<?xml version="1.0" encoding="utf-8"?>
<!-- Generator: Adobe Illustrator 16.0.0, SVG Export Plug-In . SVG Version: 6.00 Build 0)  -->
<!DOCTYPE svg PUBLIC "-//W3C//DTD SVG 1.1//EN" "http://www.w3.org/Graphics/SVG/1.1/DTD/svg11.dtd">
<svg version="1.1" id="Layer_1" xmlns="http://www.w3.org/2000/svg" xmlns:xlink="http://www.w3.org/1999/xlink" x="0px" y="0px"
	 width="89px" height="123.746px" viewBox="209.744 15.493 89 123.746" enable-background="new 209.744 15.493 89 123.746"
	 xml:space="preserve">
<g>
	<text transform="matrix(1 0 0 1 87.7144 83.894)" fill="#FFFFFF" font-family="'WWF'" font-size="97.5502">505</text>
	<rect y="92.493" fill="none" width="193.327" height="53"/>
	<text transform="matrix(1 0 0 1 3.3423 103.0776)" fill="#FFFFFF" font-family="'Georgia'" font-size="14">hectares of grassland managed </text>
	<text transform="matrix(1 0 0 1 52.1514 119.8774)" fill="#FFFFFF" font-family="'Georgia'" font-size="14">in buffer zones, critical </text>
	<text transform="matrix(1 0 0 1 35.5874 136.6772)" fill="#FFFFFF" font-family="'Georgia'" font-size="14">corridors and bottlenecks</text>
</g>
<g>
	<path fill="#FFFFFF" d="M295.974,120.006c-0.01-0.008-0.017-0.012-0.024-0.02c-0.312-0.806-0.665-1.6-1.07-2.379
		c-0.435-0.836-0.929-1.636-1.448-2.419c-0.492-2.881-1.127-5.925-1.933-8.724c-0.031-0.387-0.079-0.777-0.17-1.172
		c-0.468-2.019-1.683-3.76-2.308-5.711c-0.097-0.555-0.211-1.106-0.354-1.654c-0.099-0.374-0.608-0.204-0.56,0.154
		c0.035,0.262,0.098,0.514,0.156,0.766c-0.642-0.938-1.338-1.688-2.1-2.165c0,0,1.396,3.067,2.734,7.69
		c0.196,2.293,0.457,4.563,1.303,6.666c-0.702-0.778-1.436-1.526-2.18-2.258c-0.553-1.972-1.211-3.566-1.99-4.394
		c0,0,0.216,1.173,0.484,2.983c-1.164-1.063-2.354-2.092-3.566-3.094c-0.664-1.785-1.465-3.393-2.43-4.681
		c0,0,0.279,1.224,0.621,3.194c-0.853-0.699-1.703-1.4-2.543-2.117c-0.932-0.793-1.869-1.678-2.587-2.672
		c-0.141-0.196-0.512-0.154-0.495,0.135c0.15,2.617,1.289,4.701,3.021,6.376c-0.246,1.354-2.52,14.146-2.028,21.425h-0.062
		c0.043,0.262,0.043,0.298,0,0c-0.698-5.063-3.579-26.798-2.237-35.037c0,0-1.86,7.471-1.627,30.32
		c-0.291-4.458-1.185-10.414-3.815-13.792c0,0,2.848,12.905,0.561,18.509c-0.158,0.395-0.346,1.329-0.561,1.329
		c0,0-0.117-0.646-0.298-1.329c-0.983-3.65-3.96-15.912-2.313-25.247c0,0-3.363,6.247-2.43,25.247l0.043,1.329
		c-0.006,0-1.143-15.263-2.582-16.839c0,0,0.047,8.156-0.402,15.51c-0.021,0.359-0.041,1.329-0.063,1.329
		c0,0-0.033-0.646-0.104-1.329c-0.271-2.729-1.081-10.169-2.373-16.499V45.493h40.5v-30h-89v30h40.5v63.531
		c-0.32,0.666-2.761,6.107-2.359,16.678c0,0-4.002-11.744-0.042-21.313c0,0-3.939,3.595-4.035,13.032
		c-0.894-7.43-2.591-17.649-5.492-21.735c0,0,4.787,17.187,2.834,29.366c0,0-5.075-9.237-2.834-13.926c0,0-3.037,2.834-2.172,14.141
		c0,0-4.349-8.26-1.088-20.877c0,0-3.097,5.912-3.09,15.773c-0.505-5.815-1.439-13.834-2.997-17.732c0,0,0.775,16.722-0.796,23.508
		c-0.09,0.387-0.188,1.329-0.298,1.329c0,0-0.153-0.646-0.381-1.329c-0.915-2.723-3.095-10.428-2.224-19.811
		c0,0-2.201,5.166-0.871,16.39c-1.115-6.661-3.65-18.757-7.832-22.476c0,0,6.543,14.506,5.158,25.896
		c-0.041,0.359-0.097,1.329-0.151,1.329c0,0-0.574-0.61-1.345-1.329c-2.056-1.918-5.559-6.516-3.662-14.59
		c0,0-2.811,5.263-1.662,14.59c0,0,0.09,1.087,0.098,1.163c-0.048-0.235-3.98-15.351-0.381-29.24c0,0-4.798,3.731-4.784,28.078
		v13.294h85.033c0,0.002,2,0.004,2,0.006 M276.556,29.301c0-1.681,0.574-2.465,1.989-2.465c1.919,0,1.989,1.443,1.989,2.969v0.967
		h-2.619v0.462c0,1.289,0.126,1.695,0.966,1.695c0.478,0,0.729-0.224,0.896-0.448l0.828,0.826c-0.295,0.42-0.813,0.869-1.92,0.869
		c-1.652,0-2.129-0.924-2.129-2.605V29.301L276.556,29.301z M271.978,27.003h0.938l0.14,0.687c0.28-0.351,0.715-0.854,1.443-0.854
		c1.135,0,1.191,0.784,1.191,2.031v5.127h-1.332v-4.875c0-0.743-0.111-0.854-0.434-0.854c-0.266,0-0.504,0.182-0.615,0.28v5.449
		h-1.332V27.003L271.978,27.003z M267.147,29.301c0-1.681,0.574-2.465,1.99-2.465c1.4,0,1.988,0.742,1.988,2.465v2.409
		c0,1.723-0.588,2.465-1.988,2.465c-1.416,0-1.99-0.785-1.99-2.465V29.301z M262.052,32.648l3.04-7.312h-2.633v-1.429h4.16v1.359
		l-3.026,7.284h2.9v1.443h-4.439v-1.345H262.052z M257.013,27.003h0.938l0.168,0.98c0.35-0.938,0.896-1.135,1.597-1.163v1.471
		c-0.63,0.014-1.008,0.224-1.373,0.743v4.958h-1.331v-6.989H257.013z M252.099,29.301c0-1.681,0.574-2.465,1.989-2.465
		c1.919,0,1.989,1.443,1.989,2.969v0.967h-2.619v0.462c0,1.289,0.126,1.695,0.966,1.695c0.478,0,0.729-0.224,0.896-0.448
		l0.828,0.826c-0.295,0.42-0.813,0.869-1.92,0.869c-1.652,0-2.129-0.924-2.129-2.605V29.301z M240.354,31.276
		c0,2.367-1.037,2.717-3.066,2.717h-1.555V23.908h1.82c1.85,0,2.773,0.392,2.773,2.423v0.56c0,1.191-0.42,1.821-1.275,1.877
		c0.827,0.098,1.303,0.728,1.303,1.793V31.276z M244.947,33.993h-0.939l-0.14-0.63c-0.28,0.35-0.688,0.798-1.317,0.798
		c-1.233,0-1.317-0.882-1.317-1.779v-5.379h1.332v4.875c0,0.743,0.111,0.854,0.447,0.854c0.225,0,0.435-0.126,0.603-0.28v-5.449
		h1.331L244.947,33.993L244.947,33.993z M249.049,33.993V28.25h-1.457v5.743h-1.331V28.25h-0.771v-1.008l0.771-0.182v-1.051
		c0-1.625,0.49-2.297,1.836-2.297c0.393,0,0.784,0.126,0.826,0.14v1.191c-0.098-0.028-0.406-0.07-0.658-0.07
		c-0.645,0-0.672,0.49-0.672,1.219v0.812h1.457v-0.995c0-1.625,0.49-2.297,1.835-2.297c0.392,0,0.785,0.126,0.827,0.14v1.191
		c-0.098-0.028-0.406-0.07-0.658-0.07c-0.645,0-0.673,0.49-0.673,1.219v0.812h1.205v1.247h-1.205v5.743L249.049,33.993
		L249.049,33.993z M290.263,122.991c0.121,0.45,0.237,0.905,0.344,1.367c0.041,0.171,0.076,0.344,0.115,0.516
		c-0.05,0.146-0.1,0.317-0.15,0.517c-0.029,0.112-0.059,0.254-0.088,0.382C290.437,125.077,290.364,124.12,290.263,122.991z
		 M288.922,110.79c0.636,0.674,1.248,1.369,1.837,2.082c0.188,1.287,0.338,2.61,0.43,3.955c-0.084-0.066-0.147-0.107-0.164-0.096
		c-0.008,0.005-0.01,0.016-0.015,0.027c-0.532-0.652-1.059-1.221-1.55-1.703c-0.003-0.004-0.006-0.006-0.009-0.01
		c-0.056-0.053-0.108-0.103-0.162-0.154c-0.237-1.502-0.513-2.99-0.828-4.369C288.612,110.614,288.771,110.695,288.922,110.79z
		 M286.821,109.573c0.146,1.133,0.293,2.379,0.414,3.678c-0.004-0.002-0.008-0.006-0.014-0.008
		c-0.027-0.017-0.052-0.029-0.076-0.043c-0.043-0.023-0.082-0.045-0.119-0.062c-0.006-0.005-0.014-0.007-0.021-0.011
		c-0.043-0.02-0.081-0.035-0.112-0.045c-0.006-0.002-0.01-0.002-0.015-0.004c-0.026-0.009-0.052-0.014-0.071-0.015
		c-0.002,0-0.006-0.001-0.008-0.001l0.002,0.003c-0.017,0.001-0.033,0.001-0.043,0.009c-0.07,0.063-0.046,0.258,0.057,0.561
		c0.051,0.15,0.121,0.328,0.209,0.529c0.082,0.205,0.18,0.438,0.293,0.688c0.02,0.046,0.045,0.103,0.065,0.149
		c0.14,1.897,0.21,3.826,0.152,5.586c-0.634-1.037-1.261-1.883-1.8-2.518c-0.293-3.099-0.785-6.617-1.606-9.91
		C285.028,108.627,285.931,109.092,286.821,109.573z M286.731,125.639c-0.196-0.191-0.39-0.371-0.58-0.535
		c-0.019-0.775-0.051-1.757-0.11-2.887c0.278,1.004,0.551,2.086,0.772,3.219C286.788,125.506,286.758,125.57,286.731,125.639z
		 M280.996,125.937c-0.152,0.367-0.257,0.886-0.479,1.329c0,0-0.055-0.652-0.131-1.329c-0.439-3.593-1.804-15.317-1.826-21.399
		c0.678,0.651,1.438,1.246,2.277,1.777c0.296,0.188,0.605,0.352,0.907,0.529C282.459,112.495,282.89,120.301,280.996,125.937z"/>
	<path fill="#FFFFFF" d="M237.666,25.252h-0.546v2.941h0.574c0.854,0,1.19-0.448,1.19-1.163v-0.462
		C238.885,25.504,238.535,25.252,237.666,25.252z"/>
	<path fill="#FFFFFF" d="M254.088,28.012c-0.588,0-0.616,0.406-0.616,1.681h1.247C254.704,28.376,254.69,28.012,254.088,28.012z"/>
	<path fill="#FFFFFF" d="M237.722,29.497h-0.603v3.124h0.462c1.037,0,1.303-0.336,1.303-1.401v-0.49
		C238.885,29.679,238.478,29.497,237.722,29.497z"/>
	<path fill="#FFFFFF" d="M269.138,32.971c0.573,0,0.615-0.435,0.615-1.135v-2.689c0-0.7-0.042-1.135-0.615-1.135
		c-0.519,0-0.617,0.42-0.617,1.135v2.689C268.521,32.55,268.619,32.971,269.138,32.971z"/>
	<path fill="#FFFFFF" d="M278.545,28.012c-0.588,0-0.616,0.406-0.616,1.681h1.247C279.161,28.376,279.147,28.012,278.545,28.012z"/>
</g>
</svg>
