<?xml version="1.0" encoding="utf-8"?>
<!-- Generator: Adobe Illustrator 16.0.0, SVG Export Plug-In . SVG Version: 6.00 Build 0)  -->
<!DOCTYPE svg PUBLIC "-//W3C//DTD SVG 1.1//EN" "http://www.w3.org/Graphics/SVG/1.1/DTD/svg11.dtd">
<svg version="1.1" id="Layer_1" xmlns="http://www.w3.org/2000/svg" xmlns:xlink="http://www.w3.org/1999/xlink" x="0px" y="0px"
	 width="133.297px" height="134.575px" viewBox="154.702 3.236 133.297 134.575"
	 enable-background="new 154.702 3.236 133.297 134.575" xml:space="preserve">
<g>
	<g>
		<path fill="#FFFFFF" d="M181.846,26.276c21.523-19.47,53.735-19.768,75.557-1.995l-9.81,0.655c-2.233,0.089-3.96,1.935-3.87,4.168
			c0.09,2.173,1.877,3.87,4.02,3.87c0.06,0,0.089,0,0.148,0l19.069-0.982c2.173-0.089,3.87-1.846,3.87-4.019v-0.298
			c0-0.06,0-0.089,0-0.149v-0.03l0,0l-0.982-19.841c-0.089-2.233-1.965-3.96-4.168-3.87c-2.232,0.089-3.959,1.935-3.869,4.168
			l0.625,10.046C251.628,9.157,238.32,4.037,224.09,3.322c-17.624-0.893-34.564,5.15-47.633,16.999
			c-17.982,16.285-25.604,41.054-19.887,64.632c0.447,1.846,2.084,3.066,3.9,3.066c0.326,0,0.625-0.03,0.952-0.119
			c2.144-0.536,3.483-2.709,2.947-4.854C159.368,62.328,166.037,40.566,181.846,26.276z"/>
		<path fill="#FFFFFF" d="M286.132,55.57c-0.536-2.143-2.709-3.483-4.853-2.947c-2.145,0.536-3.483,2.709-2.947,4.853
			c5.031,20.719-1.667,42.483-17.475,56.773c-11.105,10.033-25.037,14.976-38.91,14.976c-13.248,0-26.467-4.496-37.124-13.367
			l11.088-1.578c2.203-0.209,3.84-2.145,3.632-4.377s-2.143-3.84-4.376-3.631l-20.049,2.381c-2.203,0.209-3.841,2.145-3.632,4.377
			l2.382,21.119c0.179,2.084,1.935,3.662,3.989,3.662c0.119,0,0.238,0,0.356-0.031c2.203-0.207,3.841-2.144,3.632-4.375
			l-1.429-10.758c10.808,8.752,24.056,13.842,38.196,14.558c1.131,0.06,2.263,0.089,3.363,0.089c16.404,0,32.004-6.014,44.27-17.088
			C284.227,103.918,291.848,79.178,286.132,55.57z"/>
	</g>
</g>
<path fill="#FFFFFF" d="M222.354,78.232c-4.864,0.531-13.521,1.457-16.062,2.221v-4.092h10.002l-0.356-1.084l0.023,0.115
	l-7.639-7.135l0.837-1.039l4.872,2.24l-2.024-6.168l-6.313-5.907l0.828-1.037l3.781,1.736l-0.595-1.824l-6.587-20.104l-5.686,17.374
	l4.293-1.976l0.836,1.037l-6.957,6.501l-1.813,5.55l4.433-2.042l0.836,1.04l-7.127,6.662l-1.094,3.342l2.801,2.715h5.994
	c0,0,1.443,5.65,0,5.815c-11.91,1.358-11.605,12.757-11.605,12.757c6.285,0,48.709,0,48.709,0h4.072h18.346
	c-0.133-6.189-5.244-10.688-12.613-13.5V77h8.717l-1.666-5.043l-5.99-5.541l0.705-0.864l3.728,1.697l-1.526-4.617l-5.849-5.408
	l0.704-0.864l3.609,1.642l-4.777-14.452l-4.733,14.305l-7.319-22.139l-5.594,16.905l4.223-1.923l0.822,1.008l-6.842,6.329
	l-1.781,5.4l4.361-1.982l0.814,1.008l-6.995,6.48l-1.953,5.9h10.196v3.205c-2.207-0.129-4.438-0.157-6.664-0.101
	C222.602,78.039,222.482,78.137,222.354,78.232c1.136-0.127,1.977-0.221,2.442-0.277 M234.576,77h7.538v3.01
	c-2.386-0.636-4.919-1.128-7.538-1.472V77z"/>
<g>
	<text transform="matrix(1 0 0 1 65.9136 91.0049)" fill="#FFFFFF" font-family="'WWF'" font-size="97.5502">43</text>
	<rect x="20.106" y="99.605" fill="none" width="115.327" height="32"/>
	<text transform="matrix(1 0 0 1 30.0088 110.1885)" fill="#FFFFFF" font-family="'Georgia'" font-size="14">Forest Operation </text>
	<text transform="matrix(1 0 0 1 38.855 126.9893)" fill="#FFFFFF" font-family="'Georgia'" font-size="14">Plans* renewed</text>
</g>
</svg>
