<?xml version="1.0" encoding="utf-8"?>
<!-- Generator: Adobe Illustrator 16.0.0, SVG Export Plug-In . SVG Version: 6.00 Build 0)  -->
<!DOCTYPE svg PUBLIC "-//W3C//DTD SVG 1.1//EN" "http://www.w3.org/Graphics/SVG/1.1/DTD/svg11.dtd">
<svg version="1.1" id="Layer_1" xmlns="http://www.w3.org/2000/svg" xmlns:xlink="http://www.w3.org/1999/xlink" x="0px" y="0px"
	 width="127.77px" height="73.141px" viewBox="0 0 127.77 73.141" enable-background="new 0 0 127.77 73.141" xml:space="preserve">
<g>
	<path fill="#FFFFFF" d="M53.838,18.473c0,0,2.902-3.284-0.918-8.208c-1.823-2.175-4.901-2.955-7.61-1.793
		c-0.243,0.104-0.475,0.224-0.8,0.378c-1.033-1.875-2.735-2.815-4.698-3.386h-1.999c-2.345,0.591-4.198,1.801-5.14,4.129
		c-0.174,0.428-0.286,0.88-0.438,1.357c-0.753,0.06-1.526,0.032-2.253,0.2c-2.981,0.686-4.937,3.109-5.159,6.222
		c-0.031,0.394-0.259,0.88-0.558,1.131c-3.062,2.571-3.308,6.932-0.552,9.831c0.28,0.297,0.468,0.784,0.505,1.199
		c0.412,4.582,4.738,7.331,9.057,5.762c0.33-0.121,0.815-0.021,1.151,0.137c1.095,0.521,2.159,1.111,3.334,1.729
		c0.618,4.386,0.275,24.248-1.145,28.66h7.999c-0.851-3.467-1.75-22.292-0.802-25.891c0.097-0.364,0.255-0.759,0.506-1.021
		c0.759-0.79,1.578-1.521,2.443-2.341c1.307,0.761,2.807,1.172,4.454,0.957c4.832,1.057,9.252-2.323,9.252-12.423
		C60.467,18.915,53.838,18.473,53.838,18.473z M37.785,35.034c-0.783-0.316-1.569-0.632-2.425-0.974
		c0.504-0.669,0.902-1.195,1.362-1.804c0.428,0.89,0.821,1.707,1.215,2.528C37.887,34.867,37.837,34.952,37.785,35.034z
		 M40.806,34.961c-0.338,0.812-0.781,0.89-1.301,0.202c-0.682-0.911-1.241-1.915-1.891-2.94c1.399,0.222,2.563,0.407,3.826,0.607
		C41.242,33.522,41.093,34.271,40.806,34.961z M43.355,36.827c-0.671,0.354-1.182,0.091-1.109-0.667
		c0.116-1.211,0.343-2.422,0.614-3.608c0.064-0.274,0.496-0.462,0.767-0.696c0.568,1.236,1.093,2.384,1.72,3.751
		C44.751,35.975,44.076,36.44,43.355,36.827z"/>
	<path fill="#FFFFFF" d="M23.26,29.402c-0.459-1.188-1.771-2.477-1.995-3.417c-1.007-4.263,0.602-5.365,2.637-8.258
		c0.213-6.212,4.567-6.469,7.6-7.463c-1.822-2.175-4.898-2.955-7.609-1.793c-0.243,0.104-0.478,0.224-0.802,0.378
		c-1.033-1.873-2.736-2.813-4.697-3.386h-2c-2.346,0.591-4.198,1.801-5.14,4.129c-0.172,0.428-0.286,0.88-0.438,1.358
		c-0.754,0.06-1.526,0.031-2.254,0.198c-2.98,0.686-4.937,3.111-5.159,6.222c-0.029,0.394-0.257,0.88-0.558,1.131
		c-3.062,2.571-3.308,6.934-0.552,9.833c0.281,0.295,0.468,0.783,0.505,1.199c0.412,4.582,4.738,7.331,9.058,5.762
		c0.328-0.121,0.814-0.022,1.149,0.137c1.093,0.52,2.157,1.112,3.334,1.729c0.618,4.385,0.275,24.248-1.145,28.66h7.999
		c-0.849-3.467-1.751-22.292-0.802-25.893c0.096-0.362,0.253-0.759,0.505-1.021c0.759-0.789,1.577-1.521,2.444-2.341
		c1.307,0.761,2.808,1.173,4.454,0.958c0.852-0.113,1.641-0.399,2.362-0.802c-1.95-0.462-4.511-0.387-5.926-1.385
		C24.596,34.183,24.188,31.795,23.26,29.402z M16.371,35.036c-0.783-0.319-1.569-0.634-2.425-0.977
		c0.505-0.668,0.902-1.193,1.363-1.802c0.428,0.889,0.822,1.707,1.215,2.529C16.473,34.868,16.423,34.952,16.371,35.036z
		 M19.392,34.961c-0.338,0.812-0.781,0.89-1.301,0.203c-0.683-0.913-1.24-1.916-1.891-2.94c1.399,0.219,2.563,0.406,3.827,0.606
		C19.826,33.522,19.679,34.271,19.392,34.961z M21.941,36.827c-0.671,0.356-1.18,0.09-1.109-0.667
		c0.116-1.212,0.343-2.421,0.613-3.608c0.065-0.274,0.496-0.461,0.767-0.695c0.568,1.236,1.094,2.384,1.72,3.75
		C23.336,35.975,22.659,36.441,21.941,36.827z"/>
	<path fill="#FFFFFF" d="M51.012,66.945l0.497,0.732c0.521-0.356,1.007-0.708,1.454-1.055l-0.543-0.698
		C51.987,66.262,51.518,66.602,51.012,66.945z"/>
	<path fill="#FFFFFF" d="M46.39,48.9c0.462,0.2,1.002,0.446,1.591,0.732l0.39-0.794c-0.604-0.295-1.158-0.545-1.63-0.748L46.39,48.9
		z"/>
	<path fill="#FFFFFF" d="M51.508,50.584c-0.521-0.33-1.04-0.636-1.546-0.915l-0.428,0.773c0.492,0.271,0.998,0.568,1.501,0.888
		L51.508,50.584z"/>
	<path fill="#FFFFFF" d="M56.677,57.491c0.15,0.507,0.228,1.022,0.228,1.53v0.084l0.883-0.083c0-0.593-0.09-1.191-0.263-1.782
		L56.677,57.491z"/>
	<path fill="#FFFFFF" d="M55.933,62.211l0.755,0.458c0.338-0.56,0.604-1.129,0.786-1.69l-0.841-0.274
		C56.471,61.202,56.236,61.71,55.933,62.211z"/>
	<path fill="#FFFFFF" d="M53.74,64.809l0.6,0.649c0.467-0.433,0.894-0.871,1.266-1.307l-0.672-0.575
		C54.585,63.987,54.182,64.4,53.74,64.809z"/>
	<path fill="#FFFFFF" d="M54.401,52.744c-0.43-0.389-0.905-0.772-1.407-1.144l-0.527,0.711c0.48,0.353,0.933,0.721,1.342,1.089
		L54.401,52.744z"/>
	<path fill="#FFFFFF" d="M56.767,55.532c-0.294-0.499-0.661-1-1.084-1.492l-0.669,0.578c0.39,0.452,0.724,0.91,0.993,1.363
		L56.767,55.532z"/>
	<path fill="#FFFFFF" d="M126.177,21.668c-0.209-0.302-0.306-0.796-0.224-1.15c0.04-0.177,0.066-0.352,0.095-0.527
		c-0.263-0.046-0.461-0.08-0.553-0.1c-1.449-0.34-2.974-0.715-4.355-1.342c-0.009-0.003-0.016,0-0.023-0.005
		c-0.166-0.085-0.326-0.173-0.488-0.259c-0.2-0.104-0.407-0.193-0.599-0.309c-0.022-0.013-0.04-0.029-0.061-0.04
		c-0.178-0.096-0.36-0.188-0.537-0.284c-0.034-0.007-0.067-0.001-0.104-0.018c-0.654-0.247-1.31-0.491-1.965-0.736
		c-0.344-0.129-0.492-0.425-0.497-0.716c-2.291-0.99-4.223-3.821-4.503-6.155c-0.39-0.408-0.793-0.805-1.223-1.182
		c-0.057-0.05-0.087-0.106-0.122-0.16c-0.108,0.051-0.216,0.103-0.347,0.165c-1.033-1.873-2.735-2.813-4.697-3.384h-2
		c-2.341,0.59-4.198,1.8-5.14,4.127c-0.174,0.428-0.285,0.881-0.438,1.358c-0.755,0.06-1.524,0.031-2.253,0.198
		c-2.555,0.588-4.349,2.461-4.951,4.941c-2.216-1.054-4.063-3.789-4.335-6.064c-0.389-0.408-0.793-0.805-1.222-1.182
		c-0.057-0.05-0.088-0.106-0.122-0.16c-0.108,0.051-0.218,0.103-0.349,0.165c-1.031-1.873-2.733-2.813-4.696-3.384h-2
		c-2.341,0.59-4.198,1.8-5.14,4.127c-0.173,0.428-0.284,0.881-0.438,1.358c-0.755,0.06-1.525,0.031-2.253,0.198
		c-2.98,0.686-4.937,3.112-5.158,6.222c-0.031,0.394-0.261,0.881-0.56,1.131c-3.064,2.572-3.309,6.934-0.552,9.833
		c0.283,0.297,0.468,0.783,0.506,1.199c0.411,4.582,4.735,7.332,9.057,5.762c0.328-0.119,0.815-0.022,1.149,0.137
		c1.097,0.52,2.159,1.112,3.336,1.729c0.616,4.385,0.275,24.249-1.146,28.66h8.001c-0.851-3.467-1.75-22.29-0.803-25.892
		c0.095-0.362,0.254-0.758,0.507-1.021c0.758-0.788,1.577-1.521,2.442-2.341c1.307,0.762,2.808,1.174,4.457,0.957
		c1.494-0.195,2.817-0.893,3.83-1.914c0.746,0.144,1.532,0.162,2.334,0.037c-0.02,0.17-0.053,0.34-0.069,0.51
		c-0.072,0.758,0.438,1.024,1.109,0.668c0.695-0.373,1.347-0.819,1.93-1.181c0.948,0.469,1.888,0.979,2.913,1.516
		c0.618,4.385,0.275,24.249-1.145,28.66h7.999c-0.85-3.467-1.75-22.29-0.803-25.892c0.096-0.362,0.254-0.758,0.507-1.021
		c0.759-0.788,1.579-1.521,2.442-2.341c1.307,0.762,2.808,1.174,4.457,0.957c2.758-0.359,4.975-2.394,5.616-5.113
		c0.089-0.378,0.414-0.815,0.755-0.999C127.404,29.44,128.485,25.101,126.177,21.668z M93.508,35.036
		c-0.784-0.319-1.569-0.634-2.429-0.977c0.245-0.323,0.464-0.611,0.678-0.893c0.517,0.68,1.155,1.238,1.876,1.663
		C93.592,34.898,93.55,34.967,93.508,35.036z M103.944,35.036c-0.782-0.319-1.568-0.634-2.426-0.977
		c0.507-0.668,0.903-1.193,1.365-1.804c0.428,0.89,0.821,1.708,1.214,2.531C104.046,34.868,103.996,34.952,103.944,35.036z
		 M106.967,34.96c-0.34,0.813-0.784,0.892-1.302,0.205c-0.684-0.913-1.242-1.916-1.892-2.94c1.398,0.219,2.563,0.406,3.826,0.606
		C107.399,33.52,107.254,34.271,106.967,34.96z M109.515,36.827c-0.673,0.356-1.182,0.09-1.108-0.668
		c0.113-1.211,0.342-2.419,0.612-3.606c0.063-0.274,0.496-0.461,0.769-0.695c0.564,1.236,1.092,2.384,1.72,3.75
		C110.909,35.975,110.235,36.441,109.515,36.827z"/>
</g>
</svg>
