<?xml version="1.0" encoding="utf-8"?>
<!-- Generator: Adobe Illustrator 17.0.0, SVG Export Plug-In . SVG Version: 6.00 Build 0)  -->
<!DOCTYPE svg PUBLIC "-//W3C//DTD SVG 1.1//EN" "http://www.w3.org/Graphics/SVG/1.1/DTD/svg11.dtd">
<svg version="1.1" id="Layer_1" xmlns="http://www.w3.org/2000/svg" xmlns:xlink="http://www.w3.org/1999/xlink" x="0px" y="0px"
	 width="84.286px" height="57px" viewBox="0 0 84.286 57" enable-background="new 0 0 84.286 57" xml:space="preserve">
<path fill="#FFFFFF" d="M28.521,36.526c-0.445,0.236-0.784,0.061-0.736-0.442c0.077-0.804,0.227-1.607,0.407-2.395
	c0.043-0.181,0.329-0.306,0.509-0.461c0.377,0.82,0.725,1.582,1.141,2.489C29.448,35.961,29,36.27,28.521,36.526 M26.831,35.288
	c-0.225,0.539-0.519,0.591-0.864,0.134c-0.452-0.605-0.823-1.271-1.255-1.951c0.929,0.147,1.702,0.27,2.54,0.403
	C27.12,34.333,27.02,34.83,26.831,35.288 M24.825,35.337c-0.52-0.21-1.041-0.42-1.61-0.647c0.335-0.444,0.599-0.793,0.905-1.197
	c0.284,0.591,0.545,1.133,0.806,1.678C24.892,35.226,24.859,35.282,24.825,35.337 M34.87,18.898c-1.21-1.443-3.253-1.961-5.051-1.19
	c-0.161,0.069-0.316,0.148-0.531,0.251c-0.686-1.244-1.816-1.868-3.118-2.247h-1.327c-1.556,0.392-2.786,1.195-3.411,2.74
	c-0.115,0.284-0.189,0.584-0.291,0.901c-0.5,0.04-1.012,0.021-1.495,0.132c-1.978,0.455-3.276,2.064-3.424,4.129
	c-0.02,0.262-0.172,0.584-0.37,0.751c-2.032,1.706-2.195,4.601-0.366,6.525c0.186,0.197,0.31,0.52,0.335,0.796
	c0.273,3.041,3.144,4.865,6.011,3.824c0.218-0.08,0.541-0.014,0.763,0.091c0.727,0.345,1.433,0.737,2.213,1.147
	c0.41,2.911,0.183,16.093-0.76,19.021h5.309c-0.564-2.301-1.161-14.794-0.532-17.183c0.064-0.241,0.169-0.504,0.336-0.678
	c0.504-0.524,1.047-1.009,1.621-1.554c0.867,0.505,1.863,0.779,2.956,0.636c3.207,0.701,6.14-1.542,6.14-8.245
	c0-4.106-4.399-4.399-4.399-4.399S37.404,22.166,34.87,18.898"/>
<path fill="#FFFFFF" d="M14.31,36.526c-0.445,0.236-0.783,0.06-0.736-0.442c0.077-0.805,0.227-1.607,0.407-2.395
	c0.043-0.182,0.329-0.306,0.509-0.461c0.377,0.82,0.725,1.582,1.141,2.488C15.236,35.961,14.787,36.27,14.31,36.526 M12.619,35.288
	c-0.225,0.539-0.519,0.59-0.864,0.134c-0.453-0.605-0.823-1.271-1.255-1.951c0.929,0.146,1.702,0.27,2.54,0.403
	C12.907,34.333,12.809,34.83,12.619,35.288 M10.614,35.337c-0.52-0.211-1.041-0.42-1.61-0.648c0.335-0.443,0.599-0.792,0.905-1.196
	c0.284,0.59,0.545,1.133,0.806,1.678C10.681,35.226,10.648,35.282,10.614,35.337 M17.159,35.538
	c-1.086-0.767-1.358-2.352-1.973-3.94c-0.305-0.788-1.176-1.643-1.324-2.267c-0.668-2.829,0.399-3.561,1.75-5.481
	c0.141-4.123,3.031-4.293,5.044-4.953c-1.209-1.443-3.251-1.961-5.05-1.19c-0.161,0.069-0.317,0.148-0.532,0.251
	c-0.686-1.244-1.816-1.868-3.118-2.247h-1.327c-1.556,0.392-2.786,1.195-3.411,2.74c-0.114,0.284-0.189,0.584-0.29,0.901
	c-0.501,0.04-1.013,0.021-1.496,0.132c-1.978,0.455-3.276,2.064-3.424,4.129c-0.019,0.262-0.171,0.584-0.37,0.751
	c-2.032,1.706-2.195,4.601-0.366,6.525c0.186,0.197,0.31,0.52,0.335,0.796c0.273,3.041,3.144,4.865,6.012,3.824
	c0.217-0.08,0.54-0.014,0.762,0.091c0.726,0.345,1.432,0.738,2.213,1.148c0.41,2.91,0.183,16.092-0.76,19.02h5.309
	c-0.564-2.301-1.162-14.794-0.532-17.183c0.063-0.241,0.168-0.504,0.335-0.678c0.504-0.524,1.047-1.009,1.622-1.554
	c0.867,0.505,1.863,0.779,2.956,0.636c0.565-0.075,1.089-0.266,1.567-0.532C19.797,36.15,18.097,36.2,17.159,35.538"/>
<path fill="#FFFFFF" d="M65.503,36.526c-0.446,0.236-0.784,0.06-0.736-0.443c0.076-0.804,0.227-1.606,0.407-2.394
	c0.042-0.182,0.329-0.306,0.509-0.461c0.376,0.82,0.725,1.582,1.142,2.488C66.428,35.961,65.98,36.27,65.503,36.526 M63.811,35.287
	c-0.225,0.54-0.52,0.591-0.864,0.135c-0.453-0.605-0.824-1.271-1.255-1.951c0.928,0.146,1.701,0.27,2.539,0.403
	C64.099,34.332,64.002,34.83,63.811,35.287 M61.806,35.337c-0.52-0.211-1.041-0.42-1.611-0.648c0.337-0.443,0.6-0.792,0.906-1.197
	c0.285,0.591,0.545,1.134,0.806,1.679C61.873,35.226,61.84,35.282,61.806,35.337 M76.412,25.702c0.026-0.117,0.044-0.234,0.063-0.35
	c-0.174-0.03-0.306-0.053-0.367-0.066c-0.962-0.226-1.973-0.475-2.89-0.891c-0.006-0.002-0.011,0-0.016-0.003
	c-0.11-0.056-0.217-0.115-0.324-0.172c-0.133-0.069-0.271-0.128-0.398-0.205c-0.014-0.009-0.026-0.019-0.04-0.026
	c-0.118-0.064-0.239-0.125-0.356-0.189c-0.023-0.005-0.045-0.001-0.069-0.011c-0.435-0.164-0.87-0.327-1.304-0.489
	c-0.229-0.086-0.327-0.282-0.33-0.475c-1.521-0.657-2.803-2.536-2.989-4.085c-0.258-0.271-0.526-0.534-0.811-0.784
	c-0.038-0.034-0.058-0.071-0.081-0.107c-0.072,0.034-0.144,0.069-0.231,0.11c-0.685-1.244-1.815-1.868-3.117-2.247h-1.327
	c-1.554,0.392-2.786,1.195-3.411,2.74c-0.115,0.284-0.189,0.585-0.291,0.901c-0.501,0.04-1.012,0.021-1.495,0.132
	c-1.978,0.455-3.276,2.065-3.424,4.129c-0.02,0.262-0.172,0.585-0.371,0.751c-2.033,1.707-2.195,4.601-0.366,6.525
	c0.188,0.197,0.311,0.52,0.336,0.796c0.273,3.041,3.143,4.866,6.011,3.824c0.218-0.079,0.541-0.014,0.763,0.091
	c0.727,0.345,1.432,0.738,2.213,1.148c0.41,2.91,0.183,16.092-0.76,19.02h5.309c-0.564-2.301-1.161-14.793-0.532-17.183
	c0.063-0.241,0.168-0.503,0.336-0.678c0.503-0.524,1.047-1.009,1.621-1.554c0.867,0.506,1.863,0.779,2.958,0.636
	c1.83-0.239,3.301-1.589,3.727-3.394c0.059-0.251,0.275-0.541,0.501-0.663c2.425-1.309,3.143-4.189,1.61-6.468
	C76.422,26.265,76.357,25.937,76.412,25.702"/>
<path fill="#FFFFFF" d="M76.49,23.13c3.589-2.894,3.407-6.247,2.15-9.692c-1.1-0.066-2.38,0.227-2.978-0.283
	c-0.589-0.502-0.483-1.815-0.731-2.997c-1.814,1.888-2.881,3.984-2.866,6.474c0.016,2.456,1.188,4.53,2.831,6.368
	c-1.533,0.518-3.711-0.269-5.182-1.784c-3.183-3.272-3.455-7.773-0.696-11.441C71.965,5.863,72.335,4.722,72.135,0
	c2.815,1.063,5.222,2.652,7.194,4.85c0.829,0.924,1.542,1.431,2.632-0.071c0.444,1.029,0.84,1.814,1.135,2.637
	c1.208,3.381,1.643,6.815,0.607,10.33C82.756,20.95,79.897,23.246,76.49,23.13"/>
<path fill="#FFFFFF" d="M46.102,45.586c0.907-0.731,0.861-1.579,0.543-2.45c-0.278-0.017-0.601,0.057-0.752-0.072
	c-0.149-0.126-0.122-0.458-0.185-0.758c-0.459,0.477-0.729,1.008-0.725,1.637c0.004,0.621,0.301,1.145,0.716,1.61
	c-0.387,0.13-0.938-0.068-1.31-0.452c-0.805-0.827-0.873-1.965-0.176-2.891c0.745-0.989,0.838-1.277,0.788-2.471
	c0.711,0.269,1.32,0.67,1.818,1.226c0.21,0.233,0.39,0.361,0.666-0.018c0.112,0.26,0.212,0.458,0.286,0.667
	c0.306,0.854,0.416,1.722,0.154,2.611C47.686,45.035,46.964,45.615,46.102,45.586"/>
<path fill="#FFFFFF" d="M44.831,49.879c-0.387-1.311-0.224-2.593,0.226-3.854c0.11-0.307,0.258-0.6,0.424-0.984
	c0.406,0.56,0.672,0.371,0.982,0.026c0.735-0.82,1.634-1.413,2.684-1.809c-0.075,1.761,0.063,2.187,1.163,3.646
	c1.029,1.369,0.928,3.048-0.26,4.269c-0.549,0.565-1.361,0.859-1.933,0.666c0.613-0.686,1.05-1.46,1.056-2.376
	c0.005-0.928-0.393-1.711-1.069-2.415c-0.093,0.441-0.053,0.931-0.273,1.118c-0.223,0.19-0.701,0.081-1.111,0.106
	c-0.47,1.286-0.537,2.536,0.802,3.616C46.25,51.931,45.184,51.075,44.831,49.879"/>
<path fill="#FFFFFF" d="M49.191,53.287c-0.23-0.781-0.134-1.544,0.135-2.295c0.066-0.183,0.154-0.357,0.252-0.586
	c0.242,0.334,0.401,0.221,0.585,0.016c0.438-0.489,0.973-0.841,1.598-1.077c-0.045,1.048,0.037,1.302,0.693,2.171
	c0.613,0.815,0.552,1.815-0.155,2.542c-0.326,0.336-0.81,0.511-1.151,0.396c0.365-0.408,0.626-0.868,0.629-1.415
	c0.004-0.553-0.233-1.018-0.637-1.438c-0.055,0.263-0.031,0.554-0.162,0.666c-0.133,0.113-0.417,0.048-0.662,0.063
	c-0.279,0.765-0.32,1.51,0.478,2.153C50.036,54.509,49.402,53.999,49.191,53.287"/>
<path fill="#FFFFFF" d="M54.975,56.749c1.123-0.906,1.066-1.954,0.673-3.033c-0.345-0.02-0.745,0.071-0.932-0.088
	c-0.184-0.157-0.151-0.568-0.228-0.938c-0.568,0.591-0.902,1.246-0.897,2.025c0.004,0.769,0.372,1.418,0.885,1.993
	c-0.479,0.162-1.16-0.085-1.621-0.558c-0.996-1.024-1.081-2.432-0.218-3.58c0.923-1.225,1.038-1.581,0.976-3.059
	c0.881,0.333,1.634,0.83,2.251,1.518c0.26,0.289,0.482,0.447,0.823-0.023c0.139,0.322,0.263,0.568,0.355,0.826
	c0.378,1.057,0.515,2.132,0.19,3.232C56.936,56.067,56.041,56.785,54.975,56.749"/>
<path fill="#FFFFFF" d="M46.054,38.124c0,0-0.599,1.13,0.194,1.556c0.384,0.206,0.551,0.823,0.551,0.823s0.508-0.767-0.262-1.489
	C46.338,38.828,46.049,38.679,46.054,38.124"/>
<path fill="#FFFFFF" d="M50.754,43.452c0,0,0.6,1.13-0.194,1.556c-0.384,0.206-0.551,0.823-0.551,0.823s-0.508-0.767,0.262-1.489
	C50.47,44.156,50.759,44.007,50.754,43.452"/>
<path fill="#FFFFFF" d="M56.62,47.852c0,0,0.599,1.13-0.194,1.556c-0.384,0.206-0.551,0.823-0.551,0.823s-0.508-0.767,0.262-1.489
	C56.336,48.556,56.625,48.407,56.62,47.852"/>
<path fill="#FFFFFF" d="M31.592,45.025c-0.391-0.191-0.749-0.354-1.056-0.486l0.232-0.538c0.314,0.135,0.681,0.301,1.082,0.497
	L31.592,45.025z M33.618,46.151c-0.334-0.212-0.67-0.409-0.996-0.589l0.284-0.514c0.336,0.186,0.681,0.389,1.026,0.608
	L33.618,46.151z M35.46,47.525c-0.272-0.244-0.572-0.488-0.891-0.723l0.35-0.471c0.333,0.246,0.648,0.501,0.933,0.758L35.46,47.525z
	 M36.918,49.238c-0.179-0.301-0.401-0.605-0.659-0.905l0.444-0.383c0.281,0.326,0.524,0.659,0.72,0.99L36.918,49.238z
	 M37.514,51.311v-0.056c0-0.337-0.051-0.678-0.151-1.015l0.563-0.166c0.115,0.391,0.174,0.789,0.174,1.182L37.514,51.311z
	 M37.37,53.676l-0.501-0.303c0.201-0.333,0.357-0.67,0.464-1l0.558,0.181C37.77,52.927,37.595,53.305,37.37,53.676 M35.812,55.528
	l-0.398-0.431c0.293-0.271,0.56-0.546,0.792-0.818l0.446,0.382C36.405,54.95,36.122,55.241,35.812,55.528 M33.933,57l-0.33-0.486
	c0.336-0.227,0.647-0.453,0.935-0.677l0.36,0.463C34.601,56.531,34.279,56.764,33.933,57"/>
</svg>
