<?xml version="1.0" encoding="utf-8"?>
<!-- Generator: Adobe Illustrator 17.0.0, SVG Export Plug-In . SVG Version: 6.00 Build 0)  -->
<!DOCTYPE svg PUBLIC "-//W3C//DTD SVG 1.1//EN" "http://www.w3.org/Graphics/SVG/1.1/DTD/svg11.dtd">
<svg version="1.1" id="Layer_1" xmlns="http://www.w3.org/2000/svg" xmlns:xlink="http://www.w3.org/1999/xlink" x="0px" y="0px"
	 width="79.366px" height="47.055px" viewBox="0 0 79.366 47.055" enable-background="new 0 0 79.366 47.055" xml:space="preserve">
<path fill="#FFFFFF" d="M66.816,21.83h3.848v1.591c-1.218-0.336-2.512-0.596-3.848-0.778V21.83z M48.977,21.49v3.075l2.378,2.388
	c0.813,0.841,1.218,1.948,1.218,3.052c0,0.063-0.004,0.127-0.006,0.19c-0.005,0.061-0.005,0.11-0.007,0.167
	c-0.005,0.04-0.011,0.08-0.014,0.119c-0.009,0.1-0.023,0.201-0.041,0.298c-0.004,0.022-0.007,0.04-0.013,0.062
	c-0.031,0.158-0.077,0.314-0.125,0.469H67.92H70h9.366c-0.067-3.273-2.678-5.651-6.44-7.139V21.83h4.45l-0.851-2.667l-3.057-2.93
	l0.359-0.457l1.903,0.897l-0.779-2.441l-2.986-2.859l0.359-0.457l1.843,0.868l-2.439-7.642l-2.417,7.564L65.573,0l-2.855,8.939
	l2.156-1.017l0.419,0.534l-3.492,3.346l-0.91,2.856l2.227-1.048l0.415,0.533l-3.571,3.426l-0.997,3.12h5.206v1.695
	c-1.128-0.069-2.267-0.084-3.403-0.053c-0.067,0.047-0.127,0.1-0.193,0.149c0.509-0.058,0.944-0.108,1.246-0.146
	c-0.442,0.189-0.703,0.396-0.829,0.618c-0.39-0.191-0.576-0.354-0.417-0.472c-2.484,0.281-6.903,0.771-8.201,1.175v-2.164h5.107
	l-0.182-0.573l0.012,0.061l-3.901-3.772l0.428-0.55l2.487,1.185l-1.033-3.262l-3.224-3.124l0.424-0.548l1.93,0.918l-0.304-0.965
	L50.755,0.23l-2.902,9.187l2.191-1.044l0.428,0.548l-3.553,3.437l-0.925,2.935l2.262-1.08l0.428,0.549l-3.639,3.523l-0.558,1.767
	l1.429,1.437L48.977,21.49L48.977,21.49z"/>
<path fill="#FFFFFF" d="M78.69,36.136c-0.603-1.625-2.128-2.678-3.805-2.627l-21.083-0.815c-0.362,0.984-0.92,1.892-1.661,2.658
	c-2.596,2.689-6.411,2.881-10.217,0.515l-0.092-0.054l-0.082-0.061l-10.49-7.527l1.799-2.689l10.488,7.528
	c1.227,0.763,4.199,2.208,6.356-0.027c0.484-0.501,0.819-1.099,1.015-1.729c0.048-0.155,0.094-0.311,0.124-0.469
	c0.007-0.022,0.01-0.04,0.014-0.061c0.018-0.098,0.032-0.199,0.041-0.299c0.003-0.038,0.009-0.079,0.014-0.119
	c0.002-0.057,0.002-0.106,0.007-0.167c0.002-0.063,0.007-0.126,0.007-0.19c0-1.104-0.406-2.211-1.219-3.052l-2.378-2.388
	l-3.061-3.075h-1.883l0.454-1.437L31.833,8.794c-1.429-1.437-3.384-2.167-5.37-2.005L15.656,7.66L0,7.295v23.728l19.159,0.299
	L42.89,46.037c1.4,0.867,3.048,1.196,4.658,0.927c5.857-0.97,20.576-3.483,28.632-5.439c1.729-0.42,2.781-2.105,2.781-3.87
	C78.96,37.145,78.871,36.629,78.69,36.136"/>
</svg>
