<?xml version="1.0" encoding="utf-8"?>
<!-- Generator: Adobe Illustrator 16.0.0, SVG Export Plug-In . SVG Version: 6.00 Build 0)  -->
<!DOCTYPE svg PUBLIC "-//W3C//DTD SVG 1.1//EN" "http://www.w3.org/Graphics/SVG/1.1/DTD/svg11.dtd">
<svg version="1.1" id="Layer_1" xmlns="http://www.w3.org/2000/svg" xmlns:xlink="http://www.w3.org/1999/xlink" x="0px" y="0px"
	 width="143.688px" height="97.172px" viewBox="142.313 22.292 143.688 97.172"
	 enable-background="new 142.313 22.292 143.688 97.172" xml:space="preserve">
<g>
	<g>
		<g id="Qs4kea_1_">
			<g>
				<g>
					<path fill="#FFFFFF" d="M201.757,54.508c-2.062-2.46-5.545-3.343-8.61-2.028c-0.274,0.117-0.539,0.252-0.905,0.427
						c-1.169-2.12-3.097-3.184-5.316-3.831h-2.262c-2.651,0.669-4.749,2.037-5.815,4.672c-0.195,0.484-0.322,0.996-0.494,1.536
						c-0.854,0.068-1.727,0.035-2.549,0.224c-3.373,0.776-5.586,3.52-5.839,7.039c-0.032,0.447-0.292,0.997-0.631,1.281
						c-3.464,2.909-3.741,7.843-0.624,11.124c0.316,0.335,0.529,0.886,0.572,1.356c0.465,5.184,5.359,8.295,10.247,6.519
						c0.372-0.136,0.922-0.022,1.301,0.155c1.239,0.588,2.442,1.258,3.772,1.957c0.699,4.961,0.313,27.434-1.295,32.425h9.051
						c-0.963-3.923-1.98-25.22-0.907-29.292c0.108-0.412,0.287-0.859,0.571-1.156c0.859-0.895,1.785-1.721,2.765-2.65
						c1.478,0.862,3.176,1.328,5.039,1.084c5.468,1.195,10.468-2.627,10.468-14.055c0-7-7.5-7.5-7.5-7.5
						S206.079,60.08,201.757,54.508z M184.635,82.533c-0.887-0.359-1.775-0.717-2.746-1.104c0.572-0.757,1.021-1.352,1.543-2.041
						c0.485,1.008,0.93,1.932,1.375,2.861C184.748,82.344,184.691,82.439,184.635,82.533z M188.053,82.449
						c-0.384,0.919-0.886,1.007-1.473,0.229c-0.771-1.031-1.404-2.167-2.141-3.326c1.584,0.25,2.901,0.461,4.33,0.688
						C188.545,80.82,188.376,81.669,188.053,82.449z M190.936,84.561c-0.76,0.401-1.336,0.103-1.254-0.754
						c0.129-1.371,0.387-2.74,0.693-4.082c0.072-0.311,0.561-0.522,0.867-0.787c0.642,1.398,1.236,2.697,1.945,4.242
						C192.516,83.598,191.751,84.124,190.936,84.561z"/>
				</g>
			</g>
		</g>
		<g id="Qs4kea_2_">
			<g>
				<g>
					<path fill="#FFFFFF" d="M171.564,82.876c-1.853-1.308-2.315-4.01-3.363-6.717c-0.52-1.343-2.006-2.802-2.258-3.865
						c-1.139-4.822,0.68-6.07,2.982-9.343c0.242-7.029,5.168-7.319,8.6-8.444c-2.062-2.46-5.543-3.343-8.609-2.028
						c-0.273,0.117-0.54,0.252-0.906,0.427c-1.169-2.12-3.096-3.184-5.316-3.831h-2.262c-2.652,0.669-4.748,2.037-5.814,4.672
						c-0.195,0.484-0.322,0.996-0.495,1.536c-0.854,0.068-1.726,0.035-2.549,0.224c-3.373,0.776-5.585,3.52-5.839,7.039
						c-0.032,0.447-0.291,0.997-0.631,1.281c-3.463,2.909-3.741,7.843-0.624,11.124c0.317,0.335,0.529,0.886,0.573,1.355
						c0.465,5.185,5.358,8.295,10.247,6.52c0.37-0.135,0.921-0.023,1.3,0.154c1.238,0.59,2.441,1.258,3.772,1.957
						c0.698,4.961,0.312,27.435-1.296,32.426h9.051c-0.962-3.922-1.98-25.219-0.906-29.293c0.107-0.411,0.286-0.858,0.571-1.155
						c0.858-0.894,1.785-1.722,2.765-2.649c1.478,0.861,3.176,1.327,5.039,1.084c0.963-0.127,1.857-0.453,2.672-0.906
						C176.061,83.919,173.164,84.004,171.564,82.876z M160.407,82.533c-0.888-0.359-1.775-0.717-2.746-1.104
						c0.571-0.757,1.021-1.352,1.543-2.041c0.485,1.008,0.929,1.932,1.374,2.861C160.52,82.344,160.464,82.439,160.407,82.533z
						 M163.825,82.449c-0.384,0.919-0.886,1.007-1.474,0.229c-0.771-1.031-1.404-2.167-2.14-3.326
						c1.583,0.25,2.901,0.461,4.33,0.688C164.314,80.82,164.148,81.669,163.825,82.449z M166.707,84.561
						c-0.759,0.401-1.334,0.103-1.254-0.754c0.13-1.371,0.387-2.74,0.693-4.082c0.072-0.311,0.561-0.522,0.867-0.787
						c0.643,1.398,1.236,2.697,1.945,4.242C168.285,83.598,167.521,84.124,166.707,84.561z"/>
				</g>
			</g>
		</g>
		<g id="Qs4kea_3_">
			<g>
				<g>
					<path fill="#FFFFFF" d="M272.577,66.108c0.045-0.2,0.075-0.399,0.106-0.597c-0.297-0.05-0.521-0.09-0.625-0.113
						c-1.641-0.384-3.363-0.809-4.927-1.518c-0.01-0.003-0.019,0-0.028-0.005c-0.187-0.095-0.369-0.197-0.552-0.294
						c-0.227-0.117-0.462-0.217-0.679-0.349c-0.023-0.015-0.043-0.032-0.066-0.045c-0.203-0.108-0.408-0.212-0.607-0.322
						c-0.04-0.008-0.077-0.002-0.118-0.018c-0.741-0.279-1.483-0.557-2.224-0.834c-0.39-0.147-0.557-0.48-0.562-0.809
						c-2.594-1.121-4.778-4.324-5.096-6.964c-0.44-0.462-0.896-0.911-1.384-1.338c-0.064-0.057-0.098-0.12-0.137-0.182
						c-0.123,0.058-0.246,0.118-0.395,0.188c-1.168-2.12-3.094-3.184-5.314-3.831h-2.262c-2.648,0.669-4.749,2.037-5.814,4.672
						c-0.195,0.484-0.322,0.996-0.496,1.536c-0.854,0.068-1.726,0.035-2.549,0.224c-3.373,0.776-5.584,3.52-5.838,7.039
						c-0.033,0.447-0.291,0.997-0.631,1.281c-3.466,2.909-3.742,7.843-0.624,11.124c0.319,0.335,0.529,0.886,0.572,1.355
						c0.465,5.185,5.358,8.295,10.247,6.52c0.372-0.135,0.922-0.023,1.301,0.154c1.239,0.59,2.441,1.259,3.773,1.957
						c0.699,4.961,0.312,27.435-1.297,32.426h9.051c-0.961-3.922-1.979-25.219-0.906-29.292c0.107-0.412,0.287-0.859,0.572-1.156
						c0.859-0.894,1.785-1.722,2.764-2.649c1.479,0.861,3.176,1.328,5.042,1.084c3.121-0.408,5.628-2.709,6.354-5.787
						c0.102-0.426,0.469-0.922,0.854-1.129c4.135-2.231,5.359-7.142,2.746-11.026C272.594,67.067,272.484,66.508,272.577,66.108z
						 M247.677,82.533c-0.887-0.359-1.774-0.717-2.745-1.104c0.573-0.757,1.021-1.352,1.545-2.041
						c0.484,1.008,0.928,1.932,1.373,2.861C247.792,82.344,247.734,82.439,247.677,82.533z M251.096,82.449
						c-0.385,0.919-0.887,1.007-1.474,0.229c-0.772-1.031-1.404-2.167-2.14-3.326c1.582,0.25,2.9,0.461,4.33,0.688
						C251.587,80.82,251.42,81.669,251.096,82.449z M253.979,84.561c-0.758,0.401-1.336,0.103-1.254-0.754
						c0.131-1.371,0.387-2.74,0.694-4.082c0.072-0.311,0.56-0.522,0.867-0.787c0.642,1.398,1.235,2.697,1.946,4.242
						C255.557,83.598,254.793,84.124,253.979,84.561z"/>
				</g>
			</g>
		</g>
		<g>
			<path fill="#FFFFFF" d="M272.711,61.723c6.118-4.934,5.809-10.649,3.665-16.523c-1.875-0.113-4.058,0.387-5.076-0.482
				c-1.004-0.856-0.823-3.094-1.245-5.109c-3.095,3.218-4.912,6.792-4.888,11.036c0.026,4.188,2.024,7.723,4.826,10.856
				c-2.612,0.884-6.325-0.459-8.834-3.041c-5.427-5.578-5.89-13.251-1.187-19.504c5.024-6.669,5.655-8.614,5.314-16.664
				c4.799,1.811,8.902,4.52,12.263,8.268c1.414,1.575,2.63,2.439,4.487-0.122c0.757,1.755,1.434,3.093,1.936,4.497
				c2.06,5.763,2.801,11.618,1.035,17.609C283.393,58.006,278.52,61.921,272.711,61.723z"/>
		</g>
	</g>
	<g>
		<path fill="#FFFFFF" d="M220.904,100.005c1.548-1.247,1.469-2.692,0.927-4.177c-0.474-0.029-1.024,0.098-1.283-0.122
			c-0.254-0.216-0.208-0.782-0.315-1.292c-0.781,0.813-1.241,1.717-1.234,2.79c0.007,1.06,0.512,1.952,1.22,2.744
			c-0.659,0.223-1.599-0.116-2.233-0.769c-1.371-1.41-1.488-3.351-0.299-4.931c1.27-1.687,1.428-2.177,1.342-4.212
			c1.214,0.458,2.25,1.143,3.101,2.09c0.358,0.398,0.665,0.616,1.134-0.031c0.191,0.444,0.362,0.782,0.489,1.137
			c0.521,1.457,0.708,2.938,0.263,4.451C223.605,99.064,222.374,100.055,220.904,100.005z"/>
	</g>
	<g>
		<path fill="#FFFFFF" d="M218.739,107.324c-0.659-2.235-0.382-4.42,0.386-6.57c0.188-0.523,0.439-1.023,0.723-1.678
			c0.692,0.955,1.146,0.633,1.674,0.045c1.254-1.398,2.785-2.409,4.574-3.085c-0.127,3.003,0.108,3.729,1.983,6.217
			c1.755,2.333,1.582,5.196-0.442,7.276c-0.936,0.964-2.32,1.465-3.296,1.136c1.045-1.169,1.79-2.488,1.8-4.05
			c0.01-1.583-0.668-2.917-1.822-4.117c-0.157,0.752-0.09,1.587-0.465,1.906c-0.381,0.324-1.194,0.138-1.895,0.18
			c-0.8,2.191-0.915,4.324,1.367,6.165C221.159,110.823,219.341,109.363,218.739,107.324z"/>
	</g>
	<g>
		<path fill="#FFFFFF" d="M226.172,113.134c-0.393-1.331-0.229-2.632,0.23-3.911c0.111-0.313,0.262-0.609,0.43-1
			c0.413,0.569,0.684,0.377,0.997,0.027c0.747-0.833,1.657-1.434,2.724-1.837c-0.076,1.788,0.064,2.22,1.182,3.702
			c1.045,1.389,0.941,3.094-0.264,4.333c-0.557,0.573-1.382,0.872-1.962,0.676c0.622-0.696,1.066-1.481,1.072-2.412
			c0.006-0.942-0.397-1.737-1.086-2.452c-0.095,0.448-0.054,0.945-0.277,1.135c-0.226,0.193-0.711,0.082-1.128,0.107
			c-0.477,1.305-0.545,2.575,0.814,3.671C227.613,115.217,226.531,114.348,226.172,113.134z"/>
	</g>
	<g>
		<path fill="#FFFFFF" d="M236.032,119.035c1.915-1.544,1.817-3.332,1.147-5.17c-0.588-0.035-1.27,0.121-1.589-0.151
			c-0.313-0.269-0.258-0.968-0.39-1.599c-0.969,1.007-1.537,2.125-1.529,3.453c0.008,1.311,0.635,2.416,1.51,3.396
			c-0.816,0.277-1.979-0.145-2.764-0.951c-1.697-1.746-1.843-4.146-0.371-6.104c1.572-2.087,1.77-2.695,1.663-5.215
			c1.502,0.568,2.786,1.414,3.837,2.588c0.443,0.492,0.823,0.763,1.404-0.038c0.236,0.549,0.447,0.968,0.605,1.407
			c0.645,1.803,0.877,3.635,0.323,5.51C239.375,117.872,237.85,119.098,236.032,119.035z"/>
	</g>
	<g>
		<path fill="#FFFFFF" d="M220.824,87.285c0,0-1.022,1.927,0.33,2.652c0.654,0.352,0.939,1.402,0.939,1.402s0.866-1.307-0.445-2.537
			C221.309,88.484,220.816,88.23,220.824,87.285z"/>
	</g>
	<g>
		<path fill="#FFFFFF" d="M228.837,96.368c0,0,1.022,1.927-0.331,2.653c-0.654,0.351-0.939,1.401-0.939,1.401
			s-0.865-1.307,0.447-2.537C228.352,97.568,228.846,97.314,228.837,96.368z"/>
	</g>
	<g>
		<path fill="#FFFFFF" d="M238.837,103.868c0,0,1.022,1.927-0.331,2.653c-0.654,0.351-0.939,1.401-0.939,1.401
			s-0.865-1.307,0.447-2.537C238.352,105.068,238.846,104.814,238.837,103.868z"/>
	</g>
	<g>
		<path fill="#FFFFFF" d="M200.161,119.464l-0.562-0.828c0.571-0.388,1.103-0.772,1.594-1.153l0.613,0.789
			C201.299,118.665,200.751,119.063,200.161,119.464z M203.364,116.954l-0.679-0.733c0.5-0.463,0.955-0.932,1.351-1.395l0.76,0.65
			C204.375,115.969,203.893,116.466,203.364,116.954z M206.021,113.798l-0.855-0.519c0.343-0.566,0.609-1.141,0.792-1.703
			l0.951,0.309C206.703,112.521,206.404,113.165,206.021,113.798z M206.266,109.766v-0.096c0-0.574-0.086-1.156-0.257-1.73
			l0.959-0.282c0.197,0.666,0.298,1.344,0.298,2.014L206.266,109.766z M205.249,106.232c-0.304-0.514-0.683-1.032-1.122-1.543
			l0.756-0.654c0.48,0.556,0.893,1.124,1.229,1.688L205.249,106.232z M202.766,103.313c-0.466-0.418-0.977-0.832-1.52-1.234
			l0.596-0.803c0.567,0.42,1.104,0.854,1.592,1.293L202.766,103.313z M199.624,100.969c-0.569-0.361-1.144-0.697-1.698-1.005
			l0.484-0.875c0.572,0.317,1.16,0.663,1.749,1.036L199.624,100.969z M196.171,99.049c-0.667-0.326-1.278-0.604-1.801-0.828
			l0.396-0.918c0.534,0.23,1.161,0.514,1.844,0.848L196.171,99.049z"/>
	</g>
</g>
<g>
	<text transform="matrix(1 0 0 1 18.6729 91.0049)" fill="#FFFFFF" font-family="'WWF'" font-size="97.5502">240</text>
	<rect x="8.959" y="99.605" fill="none" width="115.327" height="32"/>
	<text transform="matrix(1 0 0 1 36.061 110.1885)" fill="#FFFFFF" font-family="'Georgia'" font-size="14">km of fire-line </text>
	<text transform="matrix(1 0 0 1 51.4419 126.9893)" fill="#FFFFFF" font-family="'Georgia'" font-size="14">constructed</text>
</g>
</svg>
