<?xml version="1.0" encoding="utf-8"?>
<!-- Generator: Adobe Illustrator 16.0.0, SVG Export Plug-In . SVG Version: 6.00 Build 0)  -->
<!DOCTYPE svg PUBLIC "-//W3C//DTD SVG 1.1//EN" "http://www.w3.org/Graphics/SVG/1.1/DTD/svg11.dtd">
<svg version="1.1" id="Layer_1" xmlns="http://www.w3.org/2000/svg" xmlns:xlink="http://www.w3.org/1999/xlink" x="0px" y="0px"
	 width="127.769px" height="73.14px" viewBox="196.946 43.423 127.769 73.14" enable-background="new 196.946 43.423 127.769 73.14"
	 xml:space="preserve">
<g>
	<path fill="#FFFFFF" d="M308.373,77.354h-6.195v1.264c2.152,0.283,4.234,0.688,6.195,1.211V77.354z"/>
	<polygon fill="#FFFFFF" points="268.533,76.827 273.458,81.605 273.458,76.827 	"/>
	<path fill="#FFFFFF" d="M275.792,76.827v4.778l3.828,3.713c1.309,1.308,1.961,3.027,1.961,4.743c0,0.1-0.006,0.197-0.011,0.295
		c-0.007,0.096-0.007,0.172-0.011,0.26c-0.007,0.063-0.018,0.125-0.021,0.186c-0.016,0.156-0.037,0.312-0.066,0.464
		c-0.008,0.032-0.012,0.062-0.021,0.095c-0.05,0.246-0.123,0.489-0.201,0.73h25.039h3.348h15.078
		c-0.108-5.088-4.311-8.784-10.367-11.096v-3.641h7.164l-1.37-4.145l-4.922-4.554l0.579-0.711l3.063,1.395l-1.254-3.795L312.8,61.1
		l0.578-0.71l2.967,1.349l-3.928-11.878l-3.891,11.758l-6.018-18.196l-4.596,13.894l3.471-1.58l0.675,0.829l-5.622,5.202
		l-1.465,4.438l3.585-1.629l0.669,0.829l-5.75,5.326l-1.605,4.849h8.381v2.635c-1.814-0.106-3.648-0.131-5.478-0.082
		c-0.106,0.074-0.205,0.154-0.312,0.232c0.82-0.092,1.521-0.168,2.008-0.228c-0.713,0.293-1.133,0.616-1.336,0.961
		c-0.629-0.298-0.926-0.552-0.672-0.733c-3.998,0.436-11.112,1.197-13.201,1.825v-3.362h8.221l-0.293-0.892l0.02,0.095l-6.279-5.864
		l0.688-0.854l4.006,1.841l-1.664-5.07l-5.189-4.855l0.682-0.852l3.107,1.427l-0.489-1.5l-5.413-16.524l-4.674,14.28l3.528-1.624
		l0.688,0.852l-5.72,5.343l-1.489,4.561l3.643-1.678l0.688,0.854l-5.857,5.476l-0.899,2.745l2.302,2.234h4.928V76.827z
		 M304.509,77.354h6.195v2.475c-1.961-0.523-4.043-0.928-6.195-1.211V77.354z"/>
	<polygon fill="#FFFFFF" points="268.533,76.827 266.231,74.592 265.5,76.827 	"/>
	<path fill="#FFFFFF" d="M323.626,99.59c-0.971-2.525-3.426-4.161-6.125-4.082l-33.942-1.268c-0.583,1.529-1.481,2.941-2.673,4.131
		c-4.18,4.18-10.322,4.479-16.449,0.801l-0.146-0.084l-0.133-0.094l-16.889-11.699l2.896-4.18l16.885,11.7
		c1.976,1.187,6.76,3.433,10.232-0.042c0.779-0.777,1.318-1.708,1.633-2.688c0.078-0.24,0.152-0.483,0.201-0.729
		c0.012-0.032,0.016-0.062,0.022-0.095c0.028-0.152,0.051-0.309,0.065-0.465c0.004-0.059,0.016-0.123,0.022-0.185
		c0.004-0.088,0.004-0.165,0.011-0.26c0.004-0.097,0.012-0.196,0.012-0.295c0-1.716-0.653-3.437-1.963-4.743l-3.828-3.713
		l-4.926-4.779H265.5l0.731-2.232l-18.038-17.499c-2.301-2.233-5.449-3.368-8.646-3.117L222.15,55.33l-25.204-0.568v36.882
		l30.843,0.464l38.205,22.872c2.252,1.349,4.905,1.858,7.498,1.44c9.43-1.506,33.125-5.414,46.094-8.453
		c2.783-0.653,4.477-3.271,4.477-6.016C324.061,101.161,323.917,100.357,323.626,99.59z"/>
</g>
<g>
	<text transform="matrix(1 0 0 1 0 83.8931)" fill="#FFFFFF" font-family="'WWF'" font-size="97.5502">3600+</text>
	<rect x="11.472" y="92.493" fill="none" width="166.326" height="53"/>
	<text transform="matrix(1 0 0 1 81.8701 103.0767)" fill="#FFFFFF" font-family="'Georgia'" font-size="14">hectares of new </text>
	<text transform="matrix(1 0 0 1 12.4717 119.8765)" fill="#FFFFFF" font-family="'Georgia'" font-size="14">community forests handed </text>
	<text transform="matrix(1 0 0 1 47.335 136.6763)" fill="#FFFFFF" font-family="'Georgia'" font-size="14">over in TAL and SHL</text>
</g>
</svg>
