<?xml version="1.0" encoding="utf-8"?>
<!-- Generator: Adobe Illustrator 17.0.0, SVG Export Plug-In . SVG Version: 6.00 Build 0)  -->
<!DOCTYPE svg PUBLIC "-//W3C//DTD SVG 1.1//EN" "http://www.w3.org/Graphics/SVG/1.1/DTD/svg11.dtd">
<svg version="1.1" id="Layer_1" xmlns="http://www.w3.org/2000/svg" xmlns:xlink="http://www.w3.org/1999/xlink" x="0px" y="0px"
	 width="72.836px" height="40.672px" viewBox="0 0 72.836 40.672" enable-background="new 0 0 72.836 40.672" xml:space="preserve">
<path fill="#FFFFFF" d="M72.063,24.474c-0.261-0.678-0.557-1.347-0.895-2.002c-0.364-0.704-0.778-1.377-1.212-2.035
	c-0.412-2.425-0.942-4.987-1.617-7.34c-0.027-0.327-0.067-0.655-0.143-0.987c-0.391-1.699-1.407-3.162-1.93-4.805
	c-0.081-0.467-0.177-0.931-0.298-1.393c-0.081-0.314-0.509-0.171-0.468,0.131c0.028,0.22,0.082,0.433,0.131,0.644
	c-0.537-0.79-1.119-1.421-1.757-1.822c0,0,1.17,2.58,2.287,6.472c0.165,1.927,0.384,3.839,1.091,5.609
	c-0.588-0.656-1.2-1.286-1.823-1.902c-0.463-1.658-1.013-3-1.666-3.695c0,0,0.18,0.986,0.406,2.509
	c-0.975-0.893-1.971-1.76-2.986-2.602c-0.555-1.503-1.225-2.855-2.033-3.939c0,0,0.234,1.03,0.52,2.688
	c-0.713-0.588-1.425-1.179-2.129-1.781c-0.779-0.667-1.563-1.412-2.164-2.249c-0.118-0.164-0.429-0.129-0.416,0.113
	c0.128,2.203,1.081,3.956,2.53,5.366c-0.206,1.138-2.109,11.902-1.697,18.027h-0.052c0.036,0.22,0.036,0.25,0,0
	C55.158,25.222,52.747,6.933,53.871,0c0,0-1.559,6.286-1.363,25.511c-0.243-3.751-0.99-8.761-3.193-11.604
	c0,0,2.383,10.86,0.47,15.574c-0.133,0.331-0.29,1.118-0.47,1.118c0,0-0.098-0.543-0.249-1.118
	c-0.823-3.071-3.314-13.389-1.935-21.244c0,0-2.816,5.257-2.033,21.244l0.035,1.118c-0.005,0-0.956-12.842-2.161-14.169
	c0,0,0.041,6.863-0.336,13.051c-0.019,0.303-0.036,1.118-0.053,1.118c0,0-0.028-0.543-0.087-1.118
	c-0.237-2.397-0.524-4.789-0.86-7.173c-0.295-2.098-0.209-6.52-1.987-7.992c-2.663,4.806-1.555,11.206-2.85,16.32
	c-1.759-1.872-1.613-6.473-1.843-8.925c-0.215-2.306-0.518-4.197-1.087-6.374c-2.468,3.352-2.174,10.085-2.028,13.944
	c0,0-3.35-9.88-0.035-17.932c0,0-3.297,3.023-3.378,10.964c-0.747-6.25-2.167-14.849-4.596-18.287c0,0,4.006,14.46,2.372,24.709
	c0,0-4.248-7.774-2.372-11.718c0,0-2.541,2.384-1.817,11.899c0,0-3.64-6.951-0.911-17.567c0,0-2.591,4.976-2.585,13.272
	c-0.424-4.893-1.205-11.641-2.509-14.92c0,0,0.65,14.069-0.666,19.78c-0.074,0.325-0.157,1.118-0.249,1.118
	c0,0-0.128-0.543-0.319-1.118c-0.765-2.291-2.59-8.775-1.861-16.669c0,0-1.843,4.346-0.729,13.791
	c-0.934-5.606-3.054-15.784-6.553-18.912c0,0,5.475,12.206,4.317,21.79c-0.036,0.303-0.083,1.118-0.128,1.118
	c0,0-0.48-0.514-1.124-1.118c-1.722-1.614-4.654-5.482-3.065-12.276c0,0-2.353,4.428-1.392,12.276c0,0,0.074,0.913,0.081,0.978
	c-0.039-0.198-3.33-12.916-0.318-24.603c0,0-4.015,3.139-4.004,23.625v11.186h71.161c0,0.002,1.675,0.003,1.675,0.005L72.063,24.474
	z M67.306,27c0.101,0.379,0.196,0.762,0.286,1.151c0.035,0.144,0.064,0.289,0.096,0.435c-0.041,0.122-0.083,0.265-0.125,0.433
	c-0.025,0.095-0.049,0.215-0.074,0.321C67.45,28.755,67.39,27.951,67.306,27 M66.183,16.735c0.532,0.566,1.043,1.15,1.537,1.751
	c0.158,1.083,0.282,2.196,0.36,3.328c-0.071-0.056-0.125-0.091-0.138-0.081c-0.005,0.005-0.009,0.013-0.012,0.024
	c-0.446-0.549-0.887-1.027-1.298-1.434c-0.001-0.001-0.005-0.005-0.006-0.006c-0.047-0.046-0.091-0.088-0.137-0.132
	c-0.198-1.263-0.427-2.515-0.691-3.675C65.924,16.587,66.057,16.655,66.183,16.735 M64.424,15.711
	c0.123,0.953,0.246,2.002,0.347,3.093c-0.003-0.002-0.007-0.003-0.012-0.005c-0.022-0.014-0.042-0.026-0.064-0.037
	c-0.035-0.019-0.069-0.038-0.097-0.051c-0.007-0.003-0.014-0.005-0.019-0.009c-0.035-0.016-0.067-0.03-0.094-0.038
	c-0.005-0.002-0.008-0.002-0.012-0.004c-0.023-0.007-0.044-0.012-0.059-0.012c-0.001,0-0.005-0.001-0.006-0.001l0.001,0.003
	c-0.015,0-0.028,0-0.037,0.007c-0.059,0.052-0.038,0.218,0.047,0.472c0.042,0.127,0.101,0.277,0.175,0.445
	c0.069,0.172,0.15,0.369,0.246,0.58c0.017,0.037,0.037,0.087,0.056,0.125c0.116,1.596,0.175,3.219,0.126,4.701
	c-0.53-0.873-1.055-1.586-1.506-2.118c-0.246-2.608-0.657-5.569-1.345-8.339C62.925,14.916,63.679,15.306,64.424,15.711
	 M64.349,29.229c-0.164-0.161-0.325-0.312-0.485-0.45c-0.015-0.652-0.042-1.479-0.092-2.43c0.232,0.846,0.461,1.756,0.646,2.709
	C64.398,29.117,64.372,29.171,64.349,29.229 M59.549,29.479c-0.126,0.31-0.214,0.746-0.401,1.118c0,0-0.045-0.548-0.109-1.118
	c-0.369-3.022-1.51-12.888-1.528-18.005c0.567,0.548,1.203,1.049,1.905,1.496c0.249,0.157,0.507,0.296,0.759,0.445
	C60.774,18.169,61.134,24.738,59.549,29.479"/>
<linearGradient id="SVGID_1_" gradientUnits="userSpaceOnUse" x1="-615.8919" y1="345.1797" x2="-614.8919" y2="345.1797" gradientTransform="matrix(73.8354 0 0 -73.8354 45474.125 25506.8203)">
	<stop  offset="0" style="stop-color:#FFFFFF"/>
	<stop  offset="0.0992" style="stop-color:#F0EFEE"/>
	<stop  offset="0.2333" style="stop-color:#D4D3D2"/>
	<stop  offset="0.3872" style="stop-color:#AEABAB"/>
	<stop  offset="0.5559" style="stop-color:#807D7D"/>
	<stop  offset="0.7368" style="stop-color:#4F4D4C"/>
	<stop  offset="0.9249" style="stop-color:#1E1D1D"/>
	<stop  offset="1" style="stop-color:#010101"/>
</linearGradient>
<path fill="url(#SVGID_1_)" d="M72.063,24.474L72.063,24.474c-0.261-0.678-0.557-1.347-0.895-2.002
	c-0.364-0.704-0.778-1.377-1.212-2.035c-0.412-2.425-0.942-4.987-1.617-7.34c-0.027-0.327-0.067-0.655-0.143-0.987
	c-0.391-1.699-1.407-3.162-1.93-4.805c-0.081-0.467-0.177-0.931-0.298-1.393c-0.032-0.124-0.118-0.176-0.208-0.176
	c-0.128,0-0.264,0.107-0.263,0.267c0,0.013,0.001,0.027,0.003,0.04c0.028,0.22,0.082,0.433,0.131,0.644
	c-0.537-0.79-1.119-1.421-1.757-1.822c0,0,1.17,2.58,2.287,6.472c0.165,1.927,0.384,3.839,1.091,5.609
	c-0.588-0.656-1.2-1.286-1.823-1.902c-0.463-1.658-1.013-3-1.666-3.695c0,0,0.18,0.986,0.406,2.509
	c-0.975-0.893-1.971-1.76-2.986-2.602c-0.555-1.503-1.225-2.855-2.033-3.939c0,0,0.234,1.03,0.52,2.688
	c-0.713-0.588-1.425-1.179-2.129-1.781c-0.779-0.667-1.563-1.412-2.164-2.249c-0.048-0.067-0.129-0.101-0.206-0.101
	c-0.108,0-0.21,0.066-0.21,0.199c0,0.005,0,0.01,0.001,0.015c0.128,2.203,1.081,3.956,2.53,5.366
	c-0.186,1.027-1.755,9.901-1.755,16.123c0,0.67,0.018,1.309,0.058,1.904h-0.052c0.018,0.11,0.027,0.173,0.027,0.176c0,0,0,0,0,0
	c-0.001,0-0.01-0.055-0.027-0.177c-0.476-3.471-2.166-16.264-2.166-24.631c0-1.898,0.087-3.568,0.295-4.85
	c0,0-1.38,5.564-1.38,22.234c0,1.048,0.005,2.14,0.017,3.277c-0.243-3.751-0.99-8.761-3.193-11.604c0,0,1.213,5.53,1.213,10.41
	c0,1.959-0.196,3.813-0.743,5.164c-0.133,0.331-0.29,1.118-0.47,1.118c0,0-0.098-0.543-0.249-1.118
	c-0.651-2.427-2.344-9.382-2.343-16.07c0-1.773,0.119-3.528,0.408-5.174c0,0-2.171,4.052-2.171,15.86
	c0,1.642,0.042,3.433,0.138,5.384l0.035,1.118c-0.005,0-0.956-12.842-2.161-14.169c0,0,0.001,0.219,0.001,0.614
	c0,1.817-0.028,7.354-0.337,12.437c-0.019,0.303-0.036,1.118-0.053,1.118c0,0-0.028-0.543-0.087-1.118
	c-0.237-2.397-0.524-4.789-0.86-7.173c-0.295-2.098-0.209-6.52-1.987-7.992c-2.663,4.806-1.555,11.206-2.85,16.32
	c-1.759-1.872-1.613-6.473-1.843-8.925c-0.215-2.306-0.518-4.197-1.087-6.374c-1.776,2.412-2.122,6.573-2.122,10.155
	c0,1.397,0.052,2.706,0.094,3.789c0,0-1.5-4.422-1.5-9.76c0-2.641,0.367-5.507,1.464-8.172c0,0-3.297,3.023-3.378,10.964
	c-0.747-6.25-2.167-14.849-4.596-18.287c0,0,2.764,9.976,2.764,19.229c0,1.887-0.115,3.744-0.392,5.48c0,0-2.85-5.216-2.85-9.271
	c0-0.895,0.139-1.734,0.478-2.447c0,0-1.947,1.827-1.947,8.663c0,0.974,0.039,2.05,0.13,3.236c0,0-1.926-3.677-1.926-9.767
	c0-2.283,0.27-4.905,1.015-7.8c0,0-2.585,4.965-2.585,13.243c0,0.01,0,0.019,0,0.029c-0.424-4.893-1.205-11.641-2.509-14.92
	c0,0,0.16,3.474,0.16,7.671c0,4.248-0.165,9.236-0.826,12.109c-0.074,0.325-0.157,1.118-0.249,1.118c0,0-0.128-0.543-0.319-1.118
	c-0.642-1.922-2.03-6.795-2.03-12.976c0-1.187,0.051-2.422,0.169-3.693c0,0-1.087,2.563-1.087,8.029c0,1.652,0.099,3.57,0.358,5.762
	c-0.934-5.606-3.054-15.784-6.553-18.912c0,0,4.478,9.983,4.478,18.981c0,0.952-0.05,1.892-0.161,2.809
	c-0.036,0.303-0.083,1.118-0.128,1.118c0,0-0.48-0.514-1.124-1.118c-1.375-1.289-3.522-4.015-3.522-8.52
	c0-1.137,0.136-2.387,0.457-3.756c0,0-1.623,3.054-1.623,8.584c0,1.129,0.068,2.362,0.231,3.692c0,0,0.074,0.913,0.081,0.978
	c-0.027-0.136-1.587-6.175-1.587-13.729c0-3.448,0.325-7.211,1.269-10.874c0,0-4.004,3.13-4.004,23.541c0,0.028,0,0.056,0,0.084
	v11.186h71.161c0,0.002,1.675,0.003,1.675,0.005L72.063,24.474L72.063,24.474L72.063,24.474l0.773,16.198
	c0-0.002-1.675-0.003-1.675-0.005H0V29.481c0-0.028,0-0.056,0-0.084C0,8.986,4.004,5.856,4.004,5.856
	C3.06,9.518,2.735,13.282,2.735,16.73c0,7.555,1.56,13.593,1.587,13.729c-0.007-0.065-0.081-0.978-0.081-0.978
	C4.078,28.15,4.01,26.918,4.01,25.789c0-5.53,1.623-8.584,1.623-8.584c-0.321,1.369-0.457,2.619-0.457,3.756
	c0,4.506,2.147,7.232,3.522,8.52c0.644,0.604,1.124,1.118,1.124,1.118c0.045,0,0.092-0.815,0.128-1.118
	c0.111-0.917,0.161-1.857,0.161-2.809c0-8.998-4.478-18.981-4.478-18.981c3.499,3.128,5.619,13.306,6.553,18.912
	c-0.259-2.192-0.358-4.109-0.358-5.762c0-5.467,1.087-8.029,1.087-8.029c-0.118,1.272-0.169,2.507-0.169,3.693
	c0,6.181,1.388,11.054,2.03,12.976c0.191,0.575,0.319,1.118,0.319,1.118c0.092,0,0.175-0.793,0.249-1.118
	c0.662-2.873,0.826-7.861,0.826-12.109c0-4.197-0.161-7.671-0.16-7.671c1.304,3.279,2.085,10.027,2.509,14.92
	c0-0.009,0-0.019,0-0.029c0-8.279,2.585-13.243,2.585-13.243c-0.745,2.895-1.015,5.517-1.015,7.8c0,6.09,1.926,9.767,1.926,9.767
	c-0.091-1.186-0.13-2.262-0.13-3.236c0-6.836,1.947-8.663,1.947-8.663c-0.34,0.713-0.479,1.552-0.478,2.447
	c0,4.055,2.85,9.271,2.85,9.271c0.277-1.736,0.392-3.593,0.392-5.48c0-9.253-2.764-19.229-2.764-19.229
	c2.429,3.438,3.849,12.037,4.596,18.287c0.081-7.941,3.378-10.964,3.378-10.964c-1.098,2.665-1.465,5.531-1.464,8.172
	c0,5.338,1.5,9.76,1.5,9.76c-0.042-1.083-0.094-2.392-0.094-3.789c0-3.582,0.346-7.744,2.122-10.155
	c0.569,2.177,0.872,4.068,1.087,6.374c0.23,2.452,0.084,7.053,1.843,8.925c1.295-5.114,0.187-11.514,2.85-16.32
	c1.778,1.472,1.692,5.894,1.987,7.992c0.336,2.384,0.623,4.776,0.86,7.173c0.059,0.575,0.087,1.118,0.087,1.118
	c0.017,0,0.034-0.815,0.053-1.118c0.309-5.082,0.337-10.62,0.337-12.437c0-0.395-0.001-0.614-0.001-0.614
	c1.205,1.327,2.156,14.169,2.161,14.169l-0.035-1.118c-0.096-1.951-0.138-3.743-0.138-5.384c0-11.808,2.171-15.86,2.171-15.86
	c-0.29,1.646-0.408,3.401-0.408,5.174c0,6.688,1.693,13.642,2.343,16.07c0.151,0.575,0.249,1.118,0.249,1.118
	c0.18,0,0.337-0.787,0.47-1.118c0.548-1.35,0.743-3.205,0.743-5.164c0-4.881-1.213-10.41-1.213-10.41
	c2.203,2.843,2.95,7.853,3.193,11.604c-0.012-1.137-0.017-2.229-0.017-3.277C52.491,5.564,53.871,0,53.871,0
	c-0.208,1.282-0.295,2.952-0.295,4.85c0,8.367,1.69,21.159,2.166,24.631c0.017,0.121,0.026,0.177,0.027,0.177c0,0,0,0,0,0
	c0-0.004-0.009-0.066-0.027-0.176h0.052c-0.041-0.595-0.059-1.234-0.058-1.904c0-6.222,1.569-15.095,1.755-16.123
	c-1.449-1.41-2.402-3.163-2.53-5.366c-0.001-0.005-0.001-0.01-0.001-0.015c0-0.133,0.102-0.199,0.21-0.199
	c0.077,0,0.158,0.034,0.206,0.101c0.601,0.837,1.385,1.582,2.164,2.249c0.704,0.602,1.416,1.193,2.129,1.781
	c-0.286-1.658-0.52-2.688-0.52-2.688c0.808,1.084,1.478,2.436,2.033,3.939c1.015,0.842,2.011,1.709,2.986,2.602
	c-0.226-1.523-0.406-2.509-0.406-2.509c0.653,0.695,1.203,2.037,1.666,3.695c0.623,0.616,1.235,1.246,1.823,1.902
	c-0.707-1.77-0.926-3.682-1.091-5.609c-1.117-3.892-2.287-6.472-2.287-6.472c0.638,0.401,1.22,1.032,1.757,1.822
	c-0.049-0.211-0.103-0.424-0.131-0.644c-0.002-0.014-0.003-0.027-0.003-0.04c0-0.161,0.136-0.267,0.263-0.267
	c0.09,0,0.176,0.053,0.208,0.176c0.121,0.462,0.217,0.926,0.298,1.393c0.523,1.643,1.539,3.106,1.93,4.805
	c0.076,0.332,0.116,0.66,0.143,0.987c0.675,2.353,1.205,4.915,1.617,7.34c0.434,0.658,0.848,1.331,1.212,2.035
	C71.506,23.127,71.802,23.796,72.063,24.474L72.063,24.474z M67.306,27c0.101,0.379,0.196,0.762,0.286,1.151
	c0.035,0.144,0.064,0.289,0.096,0.435c-0.041,0.122-0.083,0.265-0.125,0.433c-0.025,0.095-0.049,0.215-0.074,0.321
	C67.45,28.755,67.39,27.951,67.306,27L67.306,27c0.084,0.951,0.144,1.755,0.183,2.34c0.025-0.106,0.049-0.226,0.074-0.321
	c0.042-0.168,0.084-0.311,0.125-0.433c-0.032-0.146-0.061-0.291-0.096-0.435C67.502,27.762,67.407,27.379,67.306,27L67.306,27z
	 M66.183,16.735c0.532,0.566,1.043,1.15,1.537,1.751c0.158,1.083,0.282,2.196,0.36,3.328c-0.063-0.05-0.113-0.083-0.132-0.083
	c-0.003,0-0.005,0.001-0.006,0.002c-0.005,0.005-0.009,0.013-0.012,0.024c-0.446-0.549-0.887-1.027-1.298-1.434
	c-0.001-0.001-0.005-0.005-0.006-0.006c-0.047-0.046-0.091-0.088-0.137-0.132c-0.198-1.263-0.427-2.515-0.691-3.675
	C65.924,16.587,66.057,16.655,66.183,16.735L66.183,16.735c-0.126-0.08-0.259-0.148-0.385-0.225c0.264,1.16,0.493,2.412,0.691,3.675
	c0.046,0.044,0.09,0.086,0.137,0.132c0.001,0.001,0.005,0.005,0.006,0.006c0.411,0.407,0.852,0.885,1.298,1.434
	c0.003-0.011,0.007-0.019,0.012-0.024c0.001-0.001,0.003-0.002,0.006-0.002c0.02,0,0.069,0.033,0.132,0.083
	c-0.078-1.132-0.202-2.245-0.36-3.328C67.226,17.885,66.715,17.301,66.183,16.735L66.183,16.735z M64.424,15.711
	c0.123,0.953,0.246,2.002,0.347,3.093c-0.003-0.002-0.007-0.003-0.012-0.005c-0.022-0.014-0.042-0.026-0.064-0.037
	c-0.035-0.019-0.069-0.038-0.097-0.051c-0.007-0.003-0.014-0.005-0.019-0.009c-0.035-0.016-0.067-0.03-0.094-0.038
	c-0.005-0.002-0.008-0.002-0.012-0.004c-0.023-0.007-0.044-0.012-0.059-0.012l-0.006-0.001l0.001,0.003
	c-0.015,0-0.028,0-0.037,0.007c-0.023,0.02-0.034,0.057-0.034,0.109c0,0.084,0.028,0.207,0.081,0.363
	c0.042,0.127,0.101,0.277,0.175,0.445c0.069,0.172,0.15,0.369,0.246,0.58c0.017,0.037,0.037,0.087,0.056,0.125
	c0.088,1.212,0.143,2.44,0.143,3.609c0,0.371-0.006,0.735-0.017,1.092c-0.53-0.873-1.055-1.586-1.506-2.118
	c-0.246-2.608-0.657-5.569-1.345-8.339C62.925,14.916,63.679,15.306,64.424,15.711L64.424,15.711
	c-0.745-0.405-1.499-0.795-2.253-1.188c0.688,2.77,1.099,5.731,1.345,8.339c0.451,0.532,0.976,1.245,1.506,2.118
	c0.012-0.356,0.017-0.721,0.017-1.092c0-1.17-0.055-2.397-0.143-3.609c-0.019-0.038-0.039-0.088-0.056-0.125
	c-0.096-0.211-0.177-0.408-0.246-0.58c-0.074-0.168-0.133-0.318-0.175-0.445c-0.053-0.157-0.081-0.28-0.081-0.363
	c0-0.052,0.011-0.089,0.034-0.109c0.009-0.007,0.022-0.007,0.037-0.007l-0.001-0.003l0.006,0.001c0.015,0,0.036,0.005,0.059,0.012
	c0.004,0.002,0.007,0.002,0.012,0.004c0.027,0.008,0.059,0.022,0.094,0.038c0.005,0.004,0.012,0.006,0.019,0.009
	c0.028,0.013,0.062,0.032,0.097,0.051c0.022,0.011,0.042,0.023,0.064,0.037c0.005,0.002,0.009,0.003,0.012,0.005
	C64.67,17.713,64.547,16.664,64.424,15.711L64.424,15.711z M64.349,29.229c-0.164-0.161-0.325-0.312-0.485-0.45
	c-0.015-0.652-0.042-1.479-0.092-2.43c0.232,0.846,0.461,1.756,0.646,2.709C64.398,29.117,64.372,29.171,64.349,29.229
	L64.349,29.229c0.023-0.058,0.049-0.112,0.069-0.171c-0.185-0.953-0.414-1.863-0.646-2.709c0.05,0.951,0.077,1.778,0.092,2.43
	C64.024,28.917,64.185,29.068,64.349,29.229L64.349,29.229z M59.549,29.479c-0.126,0.31-0.214,0.746-0.401,1.118
	c0,0-0.045-0.548-0.109-1.118c-0.369-3.022-1.51-12.888-1.528-18.005c0.567,0.548,1.203,1.049,1.905,1.496
	c0.249,0.157,0.507,0.296,0.759,0.445c0.281,2.229,0.509,4.856,0.509,7.507C60.684,23.926,60.391,26.961,59.549,29.479
	L59.549,29.479c0.842-2.518,1.135-5.553,1.135-8.557c0-2.651-0.228-5.279-0.509-7.507c-0.252-0.149-0.51-0.288-0.759-0.445
	c-0.702-0.447-1.338-0.948-1.905-1.496c0.018,5.117,1.159,14.983,1.528,18.005c0.064,0.57,0.109,1.118,0.109,1.118
	C59.335,30.225,59.423,29.789,59.549,29.479L59.549,29.479z"/>
</svg>
