<?xml version="1.0" encoding="utf-8"?>
<!-- Generator: Adobe Illustrator 16.0.0, SVG Export Plug-In . SVG Version: 6.00 Build 0)  -->
<!DOCTYPE svg PUBLIC "-//W3C//DTD SVG 1.1//EN" "http://www.w3.org/Graphics/SVG/1.1/DTD/svg11.dtd">
<svg version="1.1" id="Layer_1" xmlns="http://www.w3.org/2000/svg" xmlns:xlink="http://www.w3.org/1999/xlink" x="0px" y="0px"
	 width="143.688px" height="97.173px" viewBox="133.354 12.179 143.688 97.173"
	 enable-background="new 133.354 12.179 143.688 97.173" xml:space="preserve">
<g>
	<g>
		<g id="Qs4kea_1_">
			<g>
				<g>
					<path fill="#FFFFFF" d="M192.799,44.396c-2.062-2.46-5.545-3.343-8.61-2.028c-0.274,0.117-0.539,0.252-0.905,0.427
						c-1.169-2.12-3.097-3.184-5.316-3.831h-2.262c-2.651,0.669-4.749,2.037-5.815,4.672c-0.195,0.484-0.322,0.996-0.494,1.536
						c-0.854,0.068-1.727,0.035-2.549,0.224c-3.373,0.776-5.586,3.52-5.839,7.039c-0.032,0.447-0.292,0.997-0.631,1.281
						c-3.464,2.909-3.741,7.843-0.624,11.125c0.316,0.334,0.529,0.886,0.572,1.355c0.465,5.184,5.359,8.295,10.247,6.52
						c0.372-0.135,0.922-0.023,1.301,0.154c1.239,0.59,2.442,1.258,3.772,1.957c0.699,4.961,0.313,27.434-1.295,32.426h9.051
						c-0.963-3.922-1.98-25.219-0.907-29.293c0.108-0.412,0.287-0.858,0.571-1.155c0.859-0.894,1.785-1.722,2.765-2.65
						c1.478,0.862,3.176,1.328,5.039,1.084c5.468,1.195,10.468-2.628,10.468-14.055c0-7-7.5-7.5-7.5-7.5
						S197.121,49.967,192.799,44.396z M175.676,72.42c-0.887-0.358-1.774-0.715-2.745-1.104c0.571-0.756,1.021-1.352,1.543-2.04
						c0.484,1.007,0.928,1.933,1.373,2.861C175.79,72.232,175.733,72.327,175.676,72.42z M179.094,72.336
						c-0.384,0.92-0.886,1.008-1.473,0.229c-0.772-1.03-1.404-2.167-2.14-3.325c1.582,0.25,2.9,0.459,4.33,0.686
						C179.586,70.709,179.418,71.557,179.094,72.336z M181.976,74.447c-0.759,0.402-1.336,0.103-1.254-0.754
						c0.131-1.37,0.387-2.739,0.694-4.082c0.071-0.31,0.56-0.522,0.867-0.786c0.642,1.398,1.235,2.697,1.944,4.242
						C183.556,73.485,182.792,74.012,181.976,74.447z"/>
				</g>
			</g>
		</g>
		<g id="Qs4kea_2_">
			<g>
				<g>
					<path fill="#FFFFFF" d="M162.606,72.764c-1.853-1.309-2.315-4.01-3.363-6.717c-0.52-1.344-2.006-2.801-2.258-3.865
						c-1.139-4.822,0.68-6.07,2.982-9.343c0.242-7.029,5.168-7.319,8.6-8.444c-2.062-2.46-5.543-3.343-8.609-2.028
						c-0.273,0.117-0.54,0.252-0.906,0.427c-1.169-2.12-3.096-3.184-5.316-3.831h-2.262c-2.652,0.669-4.748,2.037-5.814,4.672
						c-0.195,0.484-0.322,0.996-0.495,1.536c-0.854,0.068-1.726,0.035-2.549,0.224c-3.373,0.776-5.585,3.52-5.838,7.039
						c-0.033,0.447-0.292,0.997-0.631,1.281c-3.464,2.909-3.741,7.843-0.624,11.124c0.317,0.336,0.529,0.887,0.572,1.356
						c0.465,5.185,5.359,8.296,10.248,6.519c0.37-0.135,0.921-0.022,1.3,0.156c1.238,0.588,2.441,1.258,3.772,1.957
						c0.698,4.961,0.312,27.434-1.296,32.424h9.051c-0.962-3.922-1.98-25.219-0.906-29.291c0.107-0.412,0.286-0.859,0.571-1.156
						c0.858-0.895,1.785-1.721,2.765-2.65c1.478,0.862,3.176,1.328,5.039,1.084c0.963-0.127,1.857-0.451,2.672-0.906
						C167.103,73.807,164.205,73.892,162.606,72.764z M151.448,72.42c-0.887-0.358-1.775-0.715-2.746-1.104
						c0.572-0.756,1.021-1.352,1.543-2.04c0.484,1.007,0.929,1.933,1.374,2.861C151.562,72.232,151.505,72.327,151.448,72.42z
						 M154.866,72.336c-0.385,0.92-0.887,1.008-1.473,0.229c-0.772-1.03-1.404-2.167-2.141-3.325c1.583,0.25,2.9,0.459,4.33,0.686
						C155.356,70.709,155.19,71.557,154.866,72.336z M157.748,74.447c-0.759,0.402-1.334,0.103-1.254-0.754
						c0.13-1.37,0.387-2.739,0.694-4.082c0.071-0.31,0.56-0.522,0.867-0.786c0.641,1.398,1.235,2.697,1.944,4.242
						C159.326,73.485,158.562,74.012,157.748,74.447z"/>
				</g>
			</g>
		</g>
		<g id="Qs4kea_3_">
			<g>
				<g>
					<path fill="#FFFFFF" d="M263.618,55.996c0.045-0.2,0.074-0.399,0.107-0.597c-0.297-0.05-0.522-0.09-0.627-0.113
						c-1.641-0.384-3.363-0.809-4.927-1.518c-0.01-0.003-0.019,0-0.028-0.005c-0.187-0.095-0.369-0.197-0.552-0.294
						c-0.227-0.117-0.462-0.217-0.679-0.349c-0.023-0.015-0.043-0.032-0.066-0.045c-0.203-0.108-0.408-0.212-0.607-0.322
						c-0.04-0.008-0.077-0.002-0.118-0.018c-0.741-0.279-1.483-0.557-2.224-0.834c-0.39-0.147-0.557-0.48-0.562-0.809
						c-2.594-1.121-4.778-4.324-5.096-6.964c-0.44-0.462-0.896-0.911-1.384-1.338c-0.064-0.057-0.098-0.12-0.138-0.182
						c-0.122,0.058-0.245,0.118-0.394,0.188c-1.168-2.12-3.094-3.184-5.314-3.831h-2.262c-2.648,0.669-4.749,2.037-5.814,4.672
						c-0.195,0.484-0.322,0.996-0.496,1.536c-0.854,0.068-1.726,0.035-2.549,0.224c-3.373,0.776-5.584,3.52-5.838,7.039
						c-0.033,0.447-0.292,0.997-0.631,1.281c-3.466,2.909-3.742,7.843-0.624,11.124c0.319,0.336,0.529,0.887,0.572,1.357
						c0.465,5.184,5.358,8.295,10.247,6.518c0.372-0.135,0.922-0.022,1.301,0.156c1.239,0.588,2.441,1.258,3.773,1.957
						c0.699,4.961,0.312,27.434-1.297,32.424h9.051c-0.961-3.922-1.979-25.219-0.906-29.291c0.107-0.412,0.287-0.859,0.572-1.156
						c0.859-0.895,1.785-1.721,2.764-2.65c1.479,0.862,3.176,1.328,5.042,1.084c3.121-0.406,5.628-2.709,6.354-5.785
						c0.102-0.428,0.469-0.922,0.854-1.129c4.135-2.232,5.359-7.143,2.746-11.028C263.635,56.955,263.524,56.396,263.618,55.996z
						 M238.718,72.42c-0.887-0.358-1.775-0.715-2.746-1.104c0.574-0.756,1.023-1.352,1.545-2.04c0.485,1.007,0.93,1.933,1.375,2.861
						C238.833,72.232,238.776,72.327,238.718,72.42z M242.136,72.336c-0.384,0.92-0.886,1.008-1.473,0.229
						c-0.771-1.03-1.404-2.167-2.141-3.325c1.584,0.25,2.901,0.459,4.33,0.686C242.628,70.709,242.461,71.557,242.136,72.336z
						 M245.021,74.447c-0.76,0.402-1.336,0.103-1.254-0.754c0.129-1.37,0.387-2.739,0.693-4.082c0.072-0.31,0.561-0.522,0.867-0.786
						c0.642,1.398,1.236,2.697,1.947,4.242C246.599,73.485,245.834,74.012,245.021,74.447z"/>
				</g>
			</g>
		</g>
		<g>
			<path fill="#FFFFFF" d="M263.752,51.61c6.118-4.934,5.808-10.649,3.665-16.523c-1.875-0.113-4.057,0.387-5.076-0.482
				c-1.004-0.856-0.824-3.094-1.246-5.109c-3.094,3.218-4.912,6.792-4.887,11.036c0.027,4.188,2.025,7.723,4.826,10.856
				c-2.612,0.884-6.325-0.459-8.834-3.041c-5.426-5.578-5.891-13.251-1.186-19.504c5.023-6.669,5.654-8.614,5.313-16.664
				c4.799,1.811,8.901,4.52,12.263,8.268c1.414,1.575,2.629,2.438,4.487-0.122c0.757,1.755,1.433,3.093,1.935,4.497
				c2.061,5.763,2.803,11.618,1.036,17.609C274.435,47.894,269.562,51.809,263.752,51.61z"/>
		</g>
	</g>
	<g>
		<path fill="#FFFFFF" d="M211.947,89.893c1.547-1.247,1.468-2.691,0.926-4.178c-0.474-0.028-1.024,0.099-1.283-0.121
			c-0.254-0.217-0.208-0.782-0.315-1.293c-0.781,0.814-1.241,1.718-1.234,2.791c0.007,1.059,0.512,1.951,1.22,2.744
			c-0.659,0.223-1.599-0.116-2.233-0.77c-1.371-1.41-1.488-3.35-0.299-4.93c1.27-1.686,1.429-2.178,1.342-4.213
			c1.214,0.459,2.25,1.144,3.101,2.091c0.358,0.397,0.665,0.616,1.134-0.031c0.191,0.444,0.362,0.782,0.489,1.138
			c0.521,1.457,0.708,2.937,0.263,4.451C214.647,88.954,213.415,89.943,211.947,89.893z"/>
	</g>
	<g>
		<path fill="#FFFFFF" d="M209.78,97.211c-0.659-2.234-0.383-4.42,0.386-6.569c0.187-0.524,0.438-1.022,0.722-1.679
			c0.693,0.955,1.146,0.634,1.674,0.045c1.254-1.397,2.785-2.408,4.576-3.084c-0.128,3.002,0.107,3.729,1.982,6.217
			c1.755,2.333,1.582,5.195-0.442,7.277c-0.936,0.963-2.321,1.463-3.296,1.135c1.045-1.17,1.79-2.488,1.801-4.051
			c0.008-1.582-0.67-2.916-1.824-4.117c-0.156,0.753-0.09,1.588-0.465,1.906c-0.379,0.324-1.193,0.139-1.894,0.181
			c-0.8,2.192-0.915,4.323,1.367,6.165C212.2,100.711,210.383,99.25,209.78,97.211z"/>
	</g>
	<g>
		<path fill="#FFFFFF" d="M217.214,103.022c-0.392-1.331-0.229-2.632,0.23-3.912c0.111-0.313,0.262-0.609,0.43-0.999
			c0.413,0.569,0.684,0.377,0.997,0.027c0.747-0.833,1.657-1.435,2.724-1.837c-0.076,1.787,0.064,2.22,1.182,3.701
			c1.045,1.39,0.941,3.095-0.264,4.334c-0.557,0.574-1.382,0.871-1.962,0.676c0.622-0.696,1.066-1.48,1.072-2.412
			c0.006-0.943-0.397-1.737-1.086-2.452c-0.095,0.448-0.054,0.944-0.277,1.136c-0.226,0.192-0.711,0.082-1.128,0.106
			c-0.476,1.305-0.545,2.575,0.814,3.671C218.655,105.105,217.572,104.235,217.214,103.022z"/>
	</g>
	<g>
		<path fill="#FFFFFF" d="M227.074,108.922c1.915-1.543,1.817-3.332,1.147-5.17c-0.588-0.035-1.27,0.121-1.589-0.15
			c-0.313-0.268-0.258-0.969-0.39-1.6c-0.969,1.008-1.537,2.125-1.529,3.453c0.008,1.312,0.635,2.418,1.51,3.397
			c-0.816,0.276-1.979-0.144-2.764-0.952c-1.697-1.744-1.843-4.146-0.371-6.104c1.572-2.086,1.77-2.694,1.663-5.213
			c1.502,0.566,2.786,1.414,3.837,2.586c0.443,0.494,0.823,0.764,1.404-0.037c0.236,0.549,0.447,0.968,0.605,1.406
			c0.645,1.803,0.877,3.635,0.323,5.51C230.416,107.76,228.892,108.985,227.074,108.922z"/>
	</g>
	<g>
		<path fill="#FFFFFF" d="M211.865,77.172c0,0-1.022,1.927,0.331,2.652c0.654,0.352,0.938,1.402,0.938,1.402
			s0.866-1.307-0.446-2.537C212.351,78.374,211.858,78.12,211.865,77.172z"/>
	</g>
	<g>
		<path fill="#FFFFFF" d="M219.879,86.256c0,0,1.022,1.927-0.331,2.652c-0.654,0.352-0.939,1.402-0.939,1.402
			s-0.865-1.307,0.447-2.537C219.394,87.456,219.886,87.202,219.879,86.256z"/>
	</g>
	<g>
		<path fill="#FFFFFF" d="M229.879,93.756c0,0,1.022,1.927-0.331,2.652c-0.654,0.352-0.939,1.402-0.939,1.402
			s-0.865-1.307,0.447-2.537C229.394,94.956,229.886,94.702,229.879,93.756z"/>
	</g>
	<g>
		<path fill="#FFFFFF" d="M191.203,109.352l-0.562-0.827c0.57-0.39,1.103-0.772,1.592-1.155l0.615,0.789
			C192.34,108.553,191.793,108.95,191.203,109.352z M194.406,106.84l-0.681-0.733c0.5-0.461,0.955-0.931,1.352-1.394l0.76,0.65
			C195.414,105.856,194.933,106.354,194.406,106.84z M197.063,103.685l-0.855-0.519c0.344-0.566,0.609-1.141,0.792-1.703
			l0.951,0.308C197.745,102.409,197.447,103.051,197.063,103.685z M197.308,99.654v-0.096c0-0.575-0.086-1.157-0.258-1.729
			l0.959-0.285c0.197,0.666,0.299,1.342,0.299,2.015L197.308,99.654z M196.29,96.122c-0.305-0.515-0.682-1.033-1.122-1.543
			l0.756-0.654c0.479,0.555,0.894,1.123,1.228,1.688L196.29,96.122z M193.806,93.2c-0.464-0.416-0.975-0.83-1.519-1.232l0.594-0.805
			c0.569,0.42,1.104,0.855,1.593,1.293L193.806,93.2z M190.665,90.856c-0.57-0.361-1.143-0.697-1.698-1.005l0.484-0.875
			c0.573,0.317,1.161,0.663,1.749,1.036L190.665,90.856z M187.212,88.937c-0.667-0.327-1.277-0.604-1.801-0.829l0.396-0.918
			c0.533,0.23,1.16,0.514,1.844,0.85L187.212,88.937z"/>
	</g>
</g>
<g>
	<text transform="matrix(1 0 0 1 9.7144 83.8931)" fill="#FFFFFF" font-family="'WWF'" font-size="97.5502">262</text>
	<rect y="92.493" fill="none" width="115.327" height="32"/>
	<text transform="matrix(1 0 0 1 27.1025 103.0776)" fill="#FFFFFF" font-family="'Georgia'" font-size="14">km of fire-line </text>
	<text transform="matrix(1 0 0 1 42.4834 119.8774)" fill="#FFFFFF" font-family="'Georgia'" font-size="14">constructed</text>
</g>
</svg>
