<?xml version="1.0" encoding="utf-8"?>
<!-- Generator: Adobe Illustrator 16.0.0, SVG Export Plug-In . SVG Version: 6.00 Build 0)  -->
<!DOCTYPE svg PUBLIC "-//W3C//DTD SVG 1.1//EN" "http://www.w3.org/Graphics/SVG/1.1/DTD/svg11.dtd">
<svg version="1.1" id="Layer_1" xmlns="http://www.w3.org/2000/svg" xmlns:xlink="http://www.w3.org/1999/xlink" x="0px" y="0px"
	 width="143.141px" height="120.209px" viewBox="0 0 143.141 120.209" enable-background="new 0 0 143.141 120.209"
	 xml:space="preserve">
<g>
	<path fill="#FFFFFF" d="M23.393,65.542c0.102-0.447,0.273-0.937,0.548-1.262c2.667-3.165,3.109-1.829,6.458-1.859
		c2.195-0.025,5.704-0.496,7.317-2.329c2.894-3.293,4.167-8.387,4.327-12.921c0.089-2.508-0.578-9.153-4.314-7.382
		c5.867-2.782-3.521-7.937-6.905-6.826c1.493-0.489,0.008-4.729-0.663-5.354c-1.66-1.547-4.122-0.183-5.957-0.942
		c-1.8-0.742-3.031-3.652-5.147-3.652h-2.167c-2.537,0.729-4.546,2.222-5.567,5.093c-0.189,0.528-0.31,1.089-0.475,1.675
		c-0.82,0.075-1.653,0.04-2.442,0.245c-3.231,0.848-5.348,3.841-5.591,7.678c-0.033,0.487-0.279,1.085-0.604,1.396
		c-3.32,3.173-3.585,8.554-0.598,12.131c0.308,0.365,0.509,0.965,0.548,1.479c0.445,5.654,5.131,9.047,9.812,7.108
		c0.356-0.146,0.884-0.025,1.249,0.17c1.185,0.644,2.337,1.374,3.611,2.135c0.67,5.41,0.3,29.917-1.241,35.362h8.666
		C23.339,93.208,22.365,69.984,23.393,65.542z"/>
	<path fill="#FFFFFF" d="M139.283,38.825c5.867-2.78-3.522-7.937-6.907-6.825c1.494-0.491,0.009-4.731-0.659-5.356
		c-1.659-1.545-4.124-0.183-5.959-0.94c-1.799-0.744-3.03-3.654-5.147-3.654h-2.167c-2.535,0.731-4.546,2.225-5.567,5.095
		c-0.188,0.528-0.308,1.087-0.475,1.676c-0.817,0.075-1.652,0.038-2.441,0.245c-3.229,0.845-5.349,3.84-5.591,7.678
		c-0.03,0.484-0.279,1.087-0.604,1.394c-3.317,3.173-3.584,8.554-0.598,12.133c0.308,0.365,0.509,0.968,0.551,1.477
		c0.444,5.655,5.13,9.05,9.812,7.11c0.356-0.147,0.885-0.025,1.246,0.17c1.186,0.642,2.336,1.371,3.611,2.136
		c0.67,5.408,0.299,29.916-1.239,35.36h8.665c-0.921-4.277-1.894-27.502-0.867-31.944c0.102-0.448,0.273-0.937,0.549-1.264
		c2.668-3.164,3.109-1.827,6.457-1.86c2.197-0.022,5.707-0.493,7.318-2.326c2.896-3.293,4.167-8.386,4.327-12.92
		C143.685,43.698,143.018,37.054,139.283,38.825z"/>
	<path fill="#FFFFFF" d="M46.983,43.889c0.268,3.403,3.089,5.444,5.905,4.278c0.214-0.086,0.532-0.014,0.75,0.103
		c0.715,0.385,1.406,0.826,2.175,1.286c0.273,2.212,0.258,9.736-0.071,15.358c-5.507,1.362-10.918,3.476-15.832,6.541
		c0.688,0.549,1.524,0.874,2.428,0.874c1.781,0,3.31-1.255,3.943-3.026h0.286h1.415h0.286c0.636,1.771,2.162,3.026,3.944,3.026
		c1.2,0,2.276-0.578,3.049-1.491h3.772c0.774,0.913,1.85,1.491,3.052,1.491c1.781,0,3.307-1.255,3.941-3.026h0.287h1.414h0.259
		h0.028h0.257c0.622,1.728,2.087,2.956,3.815,3.016c1.726-0.06,3.193-1.288,3.813-3.016h0.257h0.286H77.6h0.26h0.285
		c0.634,1.771,2.161,3.026,3.943,3.026c1.2,0,2.275-0.578,3.05-1.491h3.353c-0.042-0.196-0.085-0.467-0.127-0.787
		c0.754,1.364,2.08,2.278,3.599,2.278c1.782,0,3.307-1.255,3.942-3.026h0.285h1.416h0.096c-0.606-0.373-1.215-0.743-1.833-1.091
		c-2.542-1.425-5.166-2.601-7.923-3.403c-0.272-5.039-0.376-11.472,0.023-13.198c0.063-0.269,0.166-0.563,0.33-0.76
		c1.606-1.903,1.872-1.1,3.889-1.119c1.319-0.014,3.435-0.298,4.403-1.4c1.741-1.984,2.509-5.047,2.604-7.775
		c0.054-1.512-0.348-5.512-2.596-4.447c3.531-1.674-2.118-4.776-4.156-4.105c0.896-0.296,0.007-2.848-0.399-3.225
		c-0.998-0.93-2.48-0.109-3.587-0.565c-1.082-0.447-1.823-2.2-3.095-2.2h-1.306c-1.528,0.439-2.735,1.335-3.351,3.067
		c-0.111,0.315-0.187,0.653-0.286,1.006c-0.492,0.046-0.996,0.025-1.468,0.149c-1.945,0.509-3.22,2.309-3.366,4.619
		c-0.019,0.294-0.168,0.656-0.364,0.841c-1.998,1.91-2.156,5.149-0.359,7.301c0.185,0.221,0.306,0.582,0.33,0.891
		c0.27,3.403,3.089,5.444,5.904,4.278c0.216-0.086,0.533-0.014,0.752,0.103c0.715,0.385,1.407,0.826,2.174,1.286
		c0.259,2.086,0.259,8.896-0.018,14.381c-6.242-1.089-12.613-1.289-18.9-0.646c-1.793,0.184-3.601,0.456-5.407,0.785
		c-0.243-4.911-0.318-10.821,0.064-12.465c0.061-0.269,0.164-0.563,0.329-0.76c1.605-1.903,1.87-1.1,3.888-1.119
		c1.32-0.014,3.435-0.298,4.404-1.4c1.742-1.984,2.509-5.047,2.605-7.775c0.052-1.512-0.348-5.512-2.597-4.447
		c3.531-1.674-2.119-4.776-4.156-4.105c0.896-0.296,0.004-2.848-0.398-3.225c-1-0.93-2.481-0.109-3.588-0.565
		c-1.081-0.447-1.824-2.2-3.097-2.2h-1.304c-1.527,0.439-2.738,1.335-3.351,3.067c-0.113,0.315-0.187,0.653-0.286,1.006
		c-0.494,0.046-0.995,0.025-1.467,0.149c-1.946,0.509-3.221,2.309-3.367,4.619c-0.019,0.294-0.167,0.656-0.364,0.841
		c-1.996,1.91-2.155,5.149-0.359,7.301C46.837,43.22,46.959,43.581,46.983,43.889z"/>
	<path fill="#FFFFFF" d="M97.958,69.454c0.668,1.69,2.149,2.875,3.876,2.875c0.156,0,0.307-0.021,0.456-0.039
		c-0.683-0.445-1.359-0.887-2-1.321C99.518,70.444,98.74,69.938,97.958,69.454z"/>
	<path fill="#FFFFFF" d="M96.898,71.122c-1.053,1.841-2.868,3.067-4.936,3.067c-2.07,0-3.885-1.227-4.938-3.067
		c-1.053,1.841-2.866,3.067-4.937,3.067c-2.068,0-3.885-1.227-4.938-3.069c-1.052,1.843-2.867,3.069-4.938,3.069
		c-0.047,0-0.094-0.008-0.143-0.011c-0.039,0-0.074,0.011-0.114,0.011c-2.069,0-3.885-1.227-4.935-3.067
		c-1.053,1.841-2.868,3.067-4.936,3.067c-2.072,0-3.886-1.227-4.939-3.067c-1.051,1.841-2.866,3.067-4.935,3.067
		c-2.07,0-3.886-1.227-4.938-3.067c-1.053,1.841-2.867,3.067-4.936,3.067c-1.518,0-2.896-0.666-3.94-1.742
		c-3.181,2.163-6.135,4.737-8.724,7.805c-0.24,0.286-0.506,0.637-0.78,1.019c0.78,1.117,1.98,1.838,3.328,1.838
		c1.781,0,3.308-1.259,3.941-3.028h0.288h1.414h0.287c0.636,1.77,2.16,3.028,3.943,3.028c1.784,0,3.308-1.259,3.941-3.028h0.286
		h1.417h0.286c0.636,1.77,2.16,3.028,3.941,3.028c1.783,0,3.31-1.259,3.944-3.028h0.285h1.417h0.283
		c0.639,1.77,2.163,3.028,3.945,3.028c1.783,0,3.307-1.259,3.943-3.028h0.285h1.417h0.257h0.027h0.259
		c0.62,1.729,2.088,2.957,3.813,3.015c1.728-0.058,3.194-1.285,3.812-3.015h0.26h0.288h1.157h0.255h0.288
		c0.635,1.77,2.16,3.028,3.941,3.028c1.786,0,3.311-1.259,3.943-3.028h0.287h1.414h0.287c0.636,1.77,2.16,3.028,3.942,3.028
		c1.783,0,3.308-1.259,3.943-3.028h0.286h1.414h0.286c0.636,1.77,2.163,3.028,3.944,3.028c1.782,0,3.308-1.259,3.94-3.028h0.288
		h1.417h0.283c0.636,1.77,2.16,3.028,3.941,3.028c0.578,0,1.124-0.145,1.624-0.384c-0.024-0.057-0.043-0.112-0.067-0.172
		c-1.772-3.943-5.284-6.641-8.769-8.971c-0.736,0.384-1.553,0.607-2.414,0.607C99.765,74.189,97.951,72.963,96.898,71.122z"/>
	<path fill="#FFFFFF" d="M111.466,84.966c-2.071,0-3.887-1.227-4.938-3.067c-1.051,1.841-2.864,3.067-4.936,3.067
		c-2.07,0-3.887-1.227-4.939-3.067c-1.05,1.841-2.864,3.067-4.935,3.067c-2.069,0-3.886-1.227-4.936-3.067
		c-1.053,1.841-2.868,3.067-4.936,3.067c-2.072,0-3.887-1.227-4.938-3.07c-1.053,1.844-2.87,3.07-4.937,3.07
		c-0.052,0-0.098-0.008-0.147-0.011c-0.037,0-0.074,0.011-0.112,0.011c-2.069,0-3.883-1.227-4.936-3.067
		c-1.051,1.841-2.866,3.067-4.937,3.067c-2.067,0-3.884-1.227-4.936-3.067c-1.05,1.841-2.866,3.067-4.936,3.067
		c-2.071,0-3.883-1.227-4.936-3.067c-1.051,1.841-2.868,3.067-4.938,3.067c-2.071,0-3.885-1.227-4.938-3.07
		c-1.052,1.844-2.866,3.07-4.935,3.07c-1.717,0-3.254-0.854-4.329-2.194c-0.998,1.613-2.03,3.612-2.746,5.648
		c0.646,1.746,2.154,2.977,3.918,2.977c1.786,0,3.31-1.253,3.944-3.026h0.286h1.417h0.286c0.636,1.773,2.16,3.026,3.944,3.026
		c1.781,0,3.307-1.253,3.943-3.026h0.287h1.414h0.286c0.633,1.773,2.16,3.026,3.944,3.026c1.781,0,3.306-1.253,3.941-3.026h0.288
		h1.414h0.287c0.634,1.773,2.16,3.026,3.944,3.026c1.781,0,3.305-1.253,3.941-3.026h0.288h1.413h0.257h0.031h0.257
		c0.62,1.728,2.087,2.956,3.813,3.016c1.725-0.06,3.195-1.288,3.815-3.016h0.256h0.287h1.157h0.257h0.286
		c0.639,1.773,2.163,3.026,3.945,3.026c1.781,0,3.306-1.253,3.944-3.026h0.283h1.417h0.286c0.633,1.773,2.16,3.026,3.942,3.026
		s3.307-1.253,3.942-3.026h0.285h1.417h0.286c0.634,1.773,2.157,3.026,3.941,3.026s3.309-1.253,3.944-3.026h0.283h1.417h0.286
		c0.636,1.773,2.16,3.026,3.942,3.026c1.781,0,3.306-1.253,3.944-3.026h1.7c-0.704,2.809-2.956,4.887-5.645,4.887
		c-2.068,0-3.885-1.226-4.938-3.067c-1.052,1.842-2.867,3.067-4.936,3.067s-3.886-1.226-4.936-3.067
		c-1.052,1.842-2.869,3.067-4.937,3.067c-2.07,0-3.885-1.226-4.938-3.067c-1.052,1.842-2.868,3.067-4.936,3.067
		c-2.069,0-3.885-1.226-4.938-3.07c-1.053,1.845-2.867,3.07-4.938,3.07c-0.047,0-0.094-0.008-0.143-0.011
		c-0.039,0-0.074,0.011-0.114,0.011c-2.069,0-3.885-1.226-4.938-3.067c-1.05,1.842-2.866,3.067-4.933,3.067
		c-2.071,0-3.886-1.226-4.938-3.067c-1.051,1.842-2.869,3.067-4.935,3.067c-2.07,0-3.886-1.226-4.938-3.067
		c-1.052,1.842-2.867,3.067-4.935,3.067c-2.07,0-3.886-1.226-4.938-3.07c-1.052,1.845-2.867,3.07-4.938,3.07
		c-1.856,0-3.504-0.992-4.583-2.53c-0.52,2.435-0.379,4.713,1.046,6.184c1.326,1.369,4.09,0.696,5.791,0.698
		c11.729,0.015,23.369-1.85,35.116-0.907c5.228,0.419,10.429,1.419,15.677,1.454c7.678,0.051,16.521-0.364,24.056-2.339
		c5.723-1.499,9.483-5.094,7.55-11.387C113.02,84.763,112.266,84.966,111.466,84.966z"/>
</g>
</svg>
