<?xml version="1.0" encoding="utf-8"?>
<!-- Generator: Adobe Illustrator 16.0.0, SVG Export Plug-In . SVG Version: 6.00 Build 0)  -->
<!DOCTYPE svg PUBLIC "-//W3C//DTD SVG 1.1//EN" "http://www.w3.org/Graphics/SVG/1.1/DTD/svg11.dtd">
<svg version="1.1" id="Layer_1" xmlns="http://www.w3.org/2000/svg" xmlns:xlink="http://www.w3.org/1999/xlink" x="0px" y="0px"
	 width="143.14px" height="120.209px" viewBox="91.625 5.923 143.14 120.209" enable-background="new 91.625 5.923 143.14 120.209"
	 xml:space="preserve">
<g>
	<path fill="#FFFFFF" d="M163.325,29.407l7.961-1.053c0.004-0.151,0.023-0.298,0.023-0.451c0-8.964-5.2-21.98-14.164-21.98
		l-6.124,5.75c-6.329,0-11.797,3.63-14.475,8.915c-0.193-0.404-0.418-0.72-0.679-0.883c0,0,0.232,0.513,0.478,1.303
		c-0.097,0.204-0.203,0.402-0.29,0.61c-0.066-0.146-0.138-0.265-0.215-0.347c0,0,0.048,0.258,0.104,0.646
		c-0.119,0.298-0.231,0.6-0.332,0.906c-0.166-0.954-0.435-1.915-0.893-2.526c0,0,0.77,3.353,0.097,5.354
		c-0.031,0.075-0.052,0.18-0.097,0.27c0,0-0.012-0.133-0.027-0.27c-0.09-0.736-0.372-3.153-0.372-4.38c0,0-0.522,2.817-0.417,4.38
		h-0.013c-0.143-1.029-0.728-5.447-0.455-7.122c0,0-0.378,1.519-0.331,6.163c-0.06-0.906-0.241-2.117-0.775-2.804
		c0,0,0.579,2.624,0.114,3.763c-0.032,0.08-0.07,0.27-0.114,0.27c0,0-0.023-0.131-0.061-0.27c-0.2-0.742-0.806-3.235-0.471-5.132
		c0,0-0.684,1.27-0.493,5.132l0.009,0.27c-0.001,0-0.232-3.102-0.525-3.423c0,0,0.01,1.658-0.082,3.153
		c-0.004,0.073-0.008,0.27-0.013,0.27c0,0-0.007-0.131-0.021-0.27c-0.096-0.963-0.521-4.813-1.217-5.354
		c0,0,0.608,3.647,0.312,5.354c-0.015,0.076-0.028,0.27-0.045,0.27c0,0-0.041-0.134-0.107-0.27
		c-0.297-0.622-1.115-2.438-1.043-3.453c0,0-0.574,1.106-0.487,3.405c0,0-0.813-2.387-0.009-4.333c0,0-0.801,0.731-0.82,2.649
		c-0.182-1.51-0.525-3.588-1.115-4.418c0,0,0.973,3.494,0.575,5.97c0,0-1.031-1.878-0.575-2.831c0,0-0.618,0.576-0.442,2.874
		c0,0-0.884-1.679-0.221-4.244c0,0-0.629,1.202-0.628,3.207c-0.104-1.182-0.293-2.812-0.609-3.605c0,0,0.157,3.399-0.162,4.779
		c-0.018,0.079-0.038,0.27-0.061,0.27c0,0-0.031-0.131-0.078-0.27c-0.187-0.553-0.629-2.12-0.452-4.027c0,0-0.448,1.05-0.177,3.332
		c-0.228-1.354-0.742-3.813-1.593-4.569c0,0,1.33,2.949,1.05,5.264c-0.009,0.073-0.021,0.27-0.031,0.27c0,0-0.117-0.124-0.273-0.27
		c-0.418-0.39-1.13-1.325-0.743-2.966c0,0-0.571,1.07-0.339,2.966c0,0,0.019,0.221,0.021,0.236c-0.01-0.048-0.81-3.12-0.077-5.944
		c0,0-0.975,0.758-0.973,5.708v2.702h14.461L163.325,29.407z"/>
	<path fill="#FFFFFF" d="M232.697,94.79c-1.106-2.668-3.659-4.336-5.669-6.347c-2.01-2.01-3.965-3.873-6.632-4.979
		c-0.286-0.117-0.573-0.242-0.862-0.367c1.705-0.658,3.486-1.22,4.726-2.459c1.769-1.769,2.72-4.31,3.98-6.488
		c1.243-2.148,1.913-4.521,2.569-6.974c0.634-2.371,2.521-4.754,2.521-7.325c0,0,0.206,0.026-0.025-0.497
		c0-2.571-0.338-4.865-0.972-7.236c-0.656-2.453-1.846-4.999-3.089-7.146c-1.26-2.179-3.293-4.062-5.061-5.83
		c-1.769-1.768-3.548-3.981-5.727-5.241c-2.147-1.243-5.296-0.391-7.749-1.046c-2.371-0.634-4.664-2.791-7.234-2.791
		c-3.774,0-3.774,1.335-7.549,1.335c-3.773,0-3.773,0.123-7.548,0.123c-3.771,0-3.771-1.405-7.543-1.405
		c-3.768,0-3.768,0.833-7.536,0.833c-3.77,0-3.77,0.441-7.541,0.441c-3.769,0-3.769-0.739-7.539-0.739
		c-3.769,0-3.769-0.35-7.537-0.35c-3.77,0-3.77,0.187-7.538,0.187s-3.769,1.299-7.535,1.299c-3.771,0-3.771,0.734-7.54,0.734
		c-3.771,0-3.771-2.375-7.539-2.375c-2.571,0-4.938,1.799-7.31,2.432c-2.452,0.656-5.44,0.229-7.589,1.471
		c-2.179,1.26-4.072,3.295-5.841,5.063c-1.768,1.768-4.054,3.517-5.313,5.696c-1.243,2.148-0.775,5.225-1.431,7.678
		c-0.634,2.371-0.026,4.794-0.026,7.365h-1.394c0,2.571,0.272,5.131,0.906,7.501c0.656,2.453,0.843,5.312,2.086,7.459
		c1.26,2.179,3.135,4.278,4.903,6.047c1.768,1.768,4.306,2.886,6.484,4.146c2.148,1.243,4.765,1.453,7.218,2.107
		c2.37,0.635,4.734,2.248,7.306,2.248c3.773,0,3.773-1.741,7.548-1.741c3.239,0,3.704,0.573,6.155,0.737
		c-0.005,0.004-0.01,0.009-0.016,0.014c-2.01,2.01-3.948,3.977-5.055,6.645c-1.066,2.572-1.704,5.313-1.704,8.271h-0.785
		c0,2.959,1.845,5.523,2.911,8.097c1.106,2.668,1.48,5.951,3.49,7.962c2.01,2.01,5.327,2.305,7.994,3.411
		c2.573,1.067,5.104,3.095,8.064,3.095c3.943,0,3.943,0.025,7.887,0.025c3.942,0,3.942,0.255,7.886,0.255
		c3.94,0,3.94-1.922,7.881-1.922c3.942,0,3.942,0.996,7.883,0.996s3.94,0.587,7.881,0.587c3.939,0,3.939-1.143,7.88-1.143
		c3.938,0,3.938,0.494,7.878,0.494c3.938,0,3.938-0.439,7.878-0.439c2.959,0,5.988,0.32,8.562-0.747
		c2.668-1.106,4.24-3.847,6.251-5.858c2.01-2.01,3.79-3.981,4.896-6.649c1.066-2.573,1.696-5.204,1.696-8.164
		c0,0,1.146,0.315,1.175,0.106C234.765,100.434,233.764,97.363,232.697,94.79z M221.424,51.582c0.34,0.005,0.691,0.008,1.052,0.008
		v1.059c-0.366,0-0.723-0.003-1.068-0.008L221.424,51.582z M221.424,66.414c0.34,0.005,0.691,0.008,1.052,0.008v1.059
		c-0.366,0-0.723-0.002-1.068-0.008L221.424,66.414z M101.342,64.439c-0.34-0.006-0.69-0.008-1.051-0.008v-1.059
		c0.367,0,0.724,0.003,1.069,0.008L101.342,64.439z M101.342,49.607c-0.34-0.006-0.69-0.008-1.051-0.008V48.54
		c0.367,0,0.724,0.003,1.069,0.008L101.342,49.607z M105.411,64.651c-0.632-0.06-1.305-0.11-2.029-0.146l0.055-1.058
		c0.74,0.038,1.429,0.088,2.075,0.151L105.411,64.651z M105.411,49.819c-0.632-0.06-1.305-0.11-2.029-0.146l0.055-1.058
		c0.74,0.038,1.429,0.088,2.075,0.151L105.411,49.819z M206.64,42.374c0.646,0.109,1.301,0.192,2.003,0.255l-0.096,1.055
		c-0.727-0.065-1.408-0.152-2.084-0.265L206.64,42.374z M202.716,41.394c0.628,0.195,1.266,0.387,1.953,0.563l-0.263,1.026
		c-0.707-0.181-1.36-0.378-2.005-0.578L202.716,41.394z M200.97,48.604c0.739,0.035,1.428,0.082,2.071,0.141l-0.095,1.055
		c-0.63-0.057-1.304-0.104-2.027-0.138L200.97,48.604z M200.97,63.436c0.739,0.035,1.428,0.082,2.071,0.141l-0.095,1.055
		c-0.63-0.057-1.304-0.104-2.027-0.138L200.97,63.436z M198.695,40.281c0.664,0.137,1.312,0.298,2.039,0.507l-0.294,1.018
		c-0.699-0.201-1.322-0.356-1.958-0.487L198.695,40.281z M198.899,48.544l-0.015,1.059c-0.666-0.008-1.384-0.006-2.038,0.005
		l-0.02-1.059C197.492,48.537,198.22,48.535,198.899,48.544z M198.899,63.376l-0.015,1.059c-0.666-0.009-1.384-0.006-2.038,0.005
		l-0.02-1.059C197.492,63.37,198.22,63.367,198.899,63.376z M194.533,39.765c0.723,0.038,1.426,0.098,2.089,0.178l-0.128,1.052
		c-0.617-0.075-1.285-0.134-2.016-0.172L194.533,39.765z M194.755,48.622l0.057,1.058c-0.723,0.038-1.395,0.089-2.024,0.151
		l-0.103-1.054C193.328,48.714,194.016,48.661,194.755,48.622z M194.755,63.454l0.057,1.058c-0.723,0.038-1.395,0.089-2.024,0.151
		l-0.103-1.054C193.328,63.545,194.016,63.492,194.755,63.454z M192.384,39.711l0.061,1.059c-0.77,0-1.425,0.017-2.035,0.047
		l-0.052-1.058C190.985,39.728,191.657,39.711,192.384,39.711z M190.618,49.034l0.159,1.047c-0.711,0.109-1.368,0.23-1.993,0.36
		l-0.215-1.038C189.211,49.27,189.887,49.146,190.618,49.034z M190.618,63.865l0.159,1.047c-0.711,0.109-1.368,0.23-1.993,0.359
		l-0.215-1.038C189.211,64.102,189.887,63.977,190.618,63.865z M188.27,39.929l0.122,1.052c-0.689,0.081-1.342,0.184-1.991,0.314
		l-0.209-1.039C186.871,40.12,187.551,40.013,188.27,39.929z M186.55,49.866l0.252,1.029l-1.994,0.493l-0.248-1.029L186.55,49.866z
		 M186.55,64.698l0.252,1.028l-1.994,0.493l-0.248-1.028L186.55,64.698z M182.486,41.258c0.547-0.171,1.094-0.342,1.668-0.504
		l0.288,1.019c-0.564,0.159-1.102,0.328-1.64,0.496l-0.317,0.099l-0.314-1.012L182.486,41.258z M182.576,50.803l0.209,1.039
		c-0.641,0.128-1.318,0.248-2.051,0.354l-0.151-1.048C181.295,51.044,181.953,50.928,182.576,50.803z M182.576,65.635l0.209,1.039
		c-0.641,0.128-1.318,0.248-2.051,0.354l-0.151-1.047C181.295,65.876,181.953,65.76,182.576,65.635z M180.217,41.927l0.268,1.025
		c-0.701,0.182-1.373,0.328-2.055,0.446l-0.181-1.044C178.901,42.241,179.544,42.101,180.217,41.927z M179.362,77.95
		c-0.622,0.144-1.28,0.278-2.001,0.394l-0.168-1.046c0.694-0.112,1.329-0.241,1.928-0.38L179.362,77.95z M178.571,51.383
		l0.097,1.055c-0.646,0.059-1.334,0.108-2.071,0.143l-0.053-1.058C177.268,51.488,177.94,51.441,178.571,51.383z M178.571,66.214
		l0.097,1.056c-0.646,0.059-1.334,0.107-2.071,0.143l-0.053-1.059C177.268,66.32,177.94,66.271,178.571,66.214z M176.248,42.617
		l0.1,1.055c-0.642,0.059-1.334,0.103-2.091,0.127l-0.032-1.058C174.956,42.718,175.628,42.676,176.248,42.617z M175.34,78.602
		c-0.626,0.061-1.298,0.106-2.026,0.138l-0.046-1.058c0.708-0.031,1.36-0.076,1.971-0.135L175.34,78.602z M172.471,51.581
		c0.655,0.012,1.375,0.013,2.037,0.003l0.015,1.059c-0.3,0.004-0.61,0.006-0.927,0.006c-0.395,0-0.775-0.003-1.145-0.009
		L172.471,51.581z M172.471,66.412c0.655,0.012,1.375,0.012,2.037,0.003l0.015,1.06c-0.3,0.004-0.61,0.006-0.927,0.006
		c-0.395,0-0.775-0.004-1.145-0.01L172.471,66.412z M170.161,42.671c0.624,0.045,1.296,0.075,2.029,0.086l-0.018,1.059
		c-0.753-0.011-1.445-0.042-2.089-0.089L170.161,42.671z M168.411,51.364c0.63,0.061,1.303,0.111,2.026,0.149l-0.057,1.058
		c-0.739-0.039-1.427-0.091-2.07-0.153L168.411,51.364z M168.411,66.195c0.63,0.062,1.303,0.111,2.026,0.149l-0.057,1.058
		c-0.739-0.038-1.427-0.09-2.07-0.152L168.411,66.195z M166.174,42.078c0.66,0.154,1.308,0.277,1.979,0.376l-0.153,1.048
		c-0.701-0.102-1.377-0.231-2.066-0.392L166.174,42.078z M166.401,51.116l-0.157,1.048c-0.73-0.11-1.407-0.234-2.048-0.366
		l0.213-1.038C165.034,50.889,165.69,51.009,166.401,51.116z M166.401,65.948l-0.157,1.048c-0.73-0.11-1.407-0.234-2.048-0.366
		l0.213-1.038C165.034,65.721,165.69,65.841,166.401,65.948z M162.252,40.937c0.358,0.108,0.71,0.218,1.062,0.328l0.908,0.281
		l-0.309,1.014l-0.917-0.285c-0.348-0.109-0.695-0.217-1.05-0.324L162.252,40.937z M162.426,50.308l-0.251,1.029l-1.991-0.493
		l0.25-1.029L162.426,50.308z M162.426,65.141l-0.251,1.028l-1.991-0.493l0.25-1.029L162.426,65.141z M158.16,40.013
		c0.706,0.1,1.383,0.224,2.069,0.382l-0.236,1.032c-0.657-0.15-1.305-0.27-1.98-0.365L158.16,40.013z M156.361,49.002
		c0.731,0.107,1.409,0.228,2.051,0.357l-0.209,1.039c-0.624-0.126-1.282-0.244-1.995-0.348L156.361,49.002z M156.361,63.834
		c0.731,0.107,1.409,0.228,2.051,0.357l-0.209,1.04c-0.624-0.127-1.282-0.245-1.995-0.349L156.361,63.834z M153.986,39.715
		c0.752,0.01,1.445,0.038,2.088,0.082l-0.072,1.057c-0.625-0.043-1.298-0.07-2.029-0.08L153.986,39.715z M152.223,48.61
		c0.739,0.037,1.427,0.086,2.07,0.146l-0.098,1.055c-0.63-0.059-1.303-0.107-2.026-0.143L152.223,48.61z M152.223,63.442
		c0.739,0.037,1.427,0.086,2.07,0.146l-0.098,1.055c-0.63-0.059-1.303-0.107-2.026-0.143L152.223,63.442z M151.899,39.737
		l0.037,1.058c-0.732,0.026-1.402,0.071-2.023,0.132l-0.103-1.054C150.451,39.81,151.143,39.763,151.899,39.737z M150.151,48.546
		l-0.017,1.059c-0.66-0.009-1.379-0.008-2.039,0.002l-0.017-1.059C148.748,48.538,149.48,48.537,150.151,48.546z M147.728,40.157
		l0.187,1.043c-0.655,0.117-1.298,0.261-1.967,0.438l-0.272-1.024C146.374,40.429,147.044,40.279,147.728,40.157z M144.036,49.819
		l-0.1-1.054c0.645-0.062,1.331-0.112,2.07-0.151l0.056,1.058C145.339,49.71,144.666,49.76,144.036,49.819z M146.062,64.504
		c-0.724,0.037-1.396,0.087-2.026,0.146l-0.1-1.054c0.645-0.062,1.331-0.112,2.07-0.151L146.062,64.504z M143.518,41.252l0.161-0.05
		l0.316,1.011l-0.161,0.051c-0.597,0.187-1.193,0.374-1.826,0.55l-0.284-1.02C142.344,41.62,142.93,41.436,143.518,41.252z
		 M142.026,50.064c-0.712,0.106-1.369,0.225-1.993,0.352l-0.212-1.038c0.641-0.131,1.318-0.254,2.05-0.363L142.026,50.064z
		 M139.761,42.262l0.203,1.04c-0.675,0.132-1.354,0.236-2.077,0.317l-0.118-1.053C138.463,42.488,139.114,42.389,139.761,42.262z
		 M137.799,49.837l0.251,1.029l-1.992,0.493l-0.25-1.029L137.799,49.837z M137.799,64.668l0.251,1.029l-1.992,0.492l-0.25-1.028
		L137.799,64.668z M136.327,91.991l-0.032,1.059c-0.333-0.01-0.681-0.016-1.044-0.016v-1.06
		C135.626,91.975,135.984,91.98,136.327,91.991z M133.715,42.762l0.192,0.001c0.655,0,1.269-0.014,1.845-0.04l0.048,1.058
		c-0.59,0.027-1.221,0.041-1.896,0.041l-0.188-0.001V42.762z M133.826,50.779l0.211,1.038c-0.641,0.131-1.317,0.253-2.049,0.361
		l-0.155-1.048C132.544,51.025,133.202,50.906,133.826,50.779z M129.665,42.522c0.64,0.081,1.319,0.142,2.019,0.182l-0.061,1.057
		c-0.724-0.041-1.427-0.104-2.09-0.188L129.665,42.522z M129.82,51.372l0.101,1.054c-0.646,0.062-1.333,0.112-2.072,0.149
		l-0.054-1.058C128.518,51.481,129.19,51.432,129.82,51.372z M125.714,41.688c0.712,0.207,1.335,0.366,1.962,0.499l-0.22,1.037
		c-0.652-0.139-1.3-0.304-2.037-0.518L125.714,41.688z M121.737,40.512c0.712,0.177,1.368,0.372,2.012,0.572l-0.312,1.012
		c-0.626-0.193-1.265-0.383-1.956-0.556L121.737,40.512z M117.586,39.835c0.731,0.061,1.415,0.144,2.088,0.252l-0.169,1.046
		c-0.646-0.104-1.303-0.184-2.008-0.243L117.586,39.835z M114.417,39.711c0.371,0,0.729,0.004,1.073,0.012l-0.026,1.059
		c-0.336-0.008-0.685-0.012-1.047-0.012V39.711z M108.049,75.741c-0.338-0.007-0.687-0.011-1.049-0.011v-1.059
		c0.369,0,0.727,0.003,1.071,0.01L108.049,75.741z M109.422,65.248c-0.625-0.127-1.283-0.247-1.997-0.353l0.156-1.048
		c0.733,0.109,1.411,0.232,2.053,0.363L109.422,65.248z M109.422,50.416c-0.625-0.127-1.283-0.247-1.997-0.353l0.156-1.048
		c0.733,0.109,1.411,0.232,2.053,0.363L109.422,50.416z M112,76.012c-0.606-0.076-1.258-0.14-1.967-0.187l0.07-1.058
		c0.73,0.049,1.402,0.115,2.028,0.193L112,76.012z M113.41,66.195l-1.995-0.495l0.251-1.029l1.995,0.495L113.41,66.195z
		 M113.41,51.364l-1.995-0.495l0.251-1.029l1.995,0.495L113.41,51.364z M115.868,76.77c-0.604-0.158-1.237-0.309-1.923-0.443
		l0.204-1.04c0.709,0.139,1.36,0.295,1.985,0.458L115.868,76.77z M117.489,67.014c-0.733-0.108-1.411-0.23-2.053-0.361l0.211-1.038
		c0.625,0.127,1.284,0.245,1.996,0.35L117.489,67.014z M117.489,52.181c-0.733-0.108-1.411-0.23-2.053-0.361l0.211-1.038
		c0.625,0.127,1.284,0.245,1.996,0.35L117.489,52.181z M119.744,77.832c-0.679-0.169-1.319-0.348-1.954-0.529l0.291-1.019
		c0.624,0.178,1.252,0.354,1.919,0.521L119.744,77.832z M121.632,67.409c-0.739-0.037-1.429-0.087-2.073-0.147l0.099-1.055
		c0.631,0.059,1.304,0.107,2.028,0.145L121.632,67.409z M121.632,52.577c-0.739-0.037-1.429-0.087-2.073-0.147l0.099-1.055
		c0.631,0.059,1.304,0.108,2.028,0.144L121.632,52.577z M123.76,78.551c-0.729-0.08-1.397-0.179-2.021-0.291l0.187-1.043
		c0.602,0.108,1.245,0.203,1.95,0.281L123.76,78.551z M124.726,67.48c-0.351,0-0.69-0.002-1.021-0.008l0.017-1.059
		c0.659,0.008,1.378,0.01,2.039,0l0.017,1.059C125.437,67.479,125.087,67.48,124.726,67.48z M124.726,52.65
		c-0.351-0.001-0.69-0.003-1.021-0.008l0.017-1.059c0.659,0.009,1.378,0.009,2.039,0l0.017,1.059
		C125.437,52.647,125.087,52.65,124.726,52.65z M127.818,78.779c-0.725-0.008-1.397-0.03-2.028-0.064l0.058-1.058
		c0.616,0.034,1.275,0.055,1.982,0.063L127.818,78.779z M127.849,67.407l-0.054-1.058c0.724-0.037,1.396-0.086,2.025-0.146
		l0.101,1.054C129.276,67.32,128.589,67.37,127.849,67.407z M129.843,78.764l-0.029-1.06c0.708-0.021,1.363-0.054,1.976-0.101
		l0.081,1.056C131.242,78.707,130.569,78.742,129.843,78.764z M131.832,65.961c0.712-0.105,1.37-0.225,1.994-0.352l0.211,1.039
		c-0.641,0.131-1.317,0.252-2.049,0.36L131.832,65.961z M133.894,78.443l-0.146-1.049c0.699-0.097,1.338-0.211,1.938-0.336
		l0.218,1.037C135.238,78.234,134.58,78.35,133.894,78.443z M136.294,112.825c-0.333-0.011-0.68-0.017-1.043-0.017v-1.059
		c0.375,0,0.733,0.005,1.077,0.018L136.294,112.825z M137.603,76.596c0.46-0.125,0.906-0.252,1.354-0.38l0.567-0.161l0.288,1.02
		l-0.564,0.16c-0.452,0.129-0.905,0.258-1.369,0.384L137.603,76.596z M140.377,113.297c-0.655-0.143-1.316-0.25-2.021-0.328
		l0.118-1.053c0.739,0.083,1.436,0.195,2.128,0.346L140.377,113.297z M140.377,93.521c-0.651-0.143-1.312-0.25-2.02-0.328
		l0.117-1.053c0.743,0.082,1.44,0.195,2.129,0.346L140.377,93.521z M140.033,65.248l-0.212-1.038
		c0.641-0.131,1.318-0.254,2.05-0.363l0.155,1.048C141.314,65.001,140.657,65.12,140.033,65.248z M141.484,75.539
		c0.621-0.146,1.279-0.285,1.997-0.405l0.175,1.046c-0.694,0.115-1.328,0.247-1.928,0.389L141.484,75.539z M144.331,114.518
		l-0.622-0.218c-0.444-0.157-0.89-0.313-1.354-0.464l0.326-1.008c0.474,0.152,0.928,0.313,1.382,0.473l0.616,0.217L144.331,114.518z
		 M144.331,94.743l-0.621-0.218c-0.444-0.157-0.891-0.314-1.355-0.465l0.326-1.008c0.474,0.153,0.928,0.313,1.382,0.473l0.616,0.217
		L144.331,94.743z M145.5,74.867c0.626-0.063,1.299-0.112,2.028-0.145l0.048,1.057c-0.708,0.033-1.361,0.082-1.97,0.142
		L145.5,74.867z M148.492,115.587c-0.725-0.108-1.417-0.251-2.115-0.435l0.27-1.024c0.661,0.173,1.315,0.308,2.003,0.411
		L148.492,115.587z M148.492,95.811c-0.723-0.108-1.415-0.25-2.115-0.433l0.269-1.024c0.663,0.174,1.318,0.308,2.004,0.41
		L148.492,95.811z M148.096,64.439l-0.017-1.059c0.668-0.009,1.4-0.011,2.071-0.002l-0.017,1.059
		C149.475,64.428,148.757,64.43,148.096,64.439z M149.559,75.73l-0.008-1.059l0.245-0.001c0.629,0,1.222,0.011,1.782,0.031
		l-0.037,1.058c-0.549-0.019-1.129-0.029-1.744-0.029H149.559z M152.549,115.861c-0.69-0.002-1.326-0.021-1.919-0.055l0.063-1.058
		c0.572,0.034,1.188,0.052,1.855,0.053l0.21-0.001l0.009,1.059L152.549,115.861z M152.549,96.085c-0.69,0-1.326-0.019-1.919-0.054
		l0.063-1.057c0.572,0.033,1.188,0.051,1.854,0.051h0.211l0.009,1.059L152.549,96.085z M153.605,74.822
		c0.729,0.063,1.399,0.142,2.022,0.234l-0.155,1.049c-0.604-0.09-1.25-0.168-1.957-0.229L153.605,74.822z M154.903,115.777
		l-0.081-1.057c0.717-0.055,1.383-0.136,2.034-0.246l0.179,1.043C156.351,115.635,155.653,115.721,154.903,115.777z M154.903,96.001
		l-0.081-1.056c0.717-0.055,1.383-0.137,2.034-0.247l0.179,1.044C156.351,95.859,155.653,95.943,154.903,96.001z M157.633,75.43
		c0.695,0.153,1.342,0.32,1.97,0.494l-0.282,1.021c-0.61-0.17-1.238-0.332-1.915-0.482L157.633,75.43z M159.136,115.04l-0.29-1.019
		c0.697-0.198,1.334-0.418,1.965-0.641l0.352,0.999C160.512,114.609,159.856,114.836,159.136,115.04z M159.136,95.264l-0.29-1.019
		c0.697-0.198,1.334-0.418,1.965-0.64l0.352,0.998C160.512,94.834,159.856,95.061,159.136,95.264z M161.53,76.469
		c0.612,0.17,1.239,0.336,1.914,0.488l-0.233,1.034c-0.692-0.156-1.337-0.326-1.966-0.502L161.53,76.469z M163.13,113.715
		l-0.309-1.013c0.714-0.218,1.396-0.392,2.088-0.526l0.203,1.04C164.458,113.346,163.81,113.508,163.13,113.715z M163.13,93.939
		l-0.309-1.014c0.714-0.218,1.396-0.391,2.088-0.525l0.203,1.039C164.458,93.568,163.81,93.732,163.13,93.939z M165.376,77.326
		c0.603,0.093,1.25,0.173,1.955,0.236l-0.095,1.056c-0.73-0.066-1.399-0.149-2.022-0.246L165.376,77.326z M167.138,112.928
		l-0.1-1.054c0.671-0.063,1.391-0.103,2.136-0.117l0.021,1.06C168.476,112.829,167.783,112.867,167.138,112.928z M167.138,93.152
		l-0.1-1.055c0.671-0.063,1.391-0.103,2.136-0.117l0.021,1.06C168.476,93.055,167.783,93.091,167.138,93.152z M169.303,77.688
		c0.592,0.022,1.222,0.035,1.893,0.035l0.091,1.06c-0.777,0-1.419-0.013-2.023-0.036L169.303,77.688z M173.311,113.011
		c-0.658-0.083-1.327-0.139-2.048-0.171l0.046-1.058c0.751,0.032,1.448,0.091,2.135,0.178L173.311,113.011z M173.311,93.234
		c-0.658-0.082-1.327-0.139-2.048-0.17l0.046-1.059c0.751,0.033,1.448,0.092,2.135,0.178L173.311,93.234z M177.289,113.945
		c-0.734-0.247-1.342-0.424-1.969-0.571l0.244-1.031c0.649,0.154,1.306,0.343,2.062,0.597L177.289,113.945z M177.289,94.169
		c-0.734-0.247-1.342-0.423-1.969-0.571l0.244-1.031c0.649,0.154,1.306,0.344,2.062,0.598L177.289,94.169z M181.327,115.241
		c-0.65-0.158-1.284-0.347-2.057-0.608l0.339-1.004c0.743,0.252,1.35,0.432,1.968,0.582L181.327,115.241z M181.327,95.465
		c-0.649-0.158-1.283-0.345-2.057-0.607l0.339-1.004c0.744,0.252,1.351,0.432,1.968,0.582L181.327,95.465z M182.037,77.236
		l-0.715,0.203l-0.286-1.02l0.711-0.202c0.403-0.114,0.808-0.229,1.221-0.342l0.277,1.022
		C182.836,77.009,182.437,77.123,182.037,77.236z M185.582,115.825c-0.755-0.036-1.454-0.097-2.136-0.188l0.141-1.05
		c0.652,0.087,1.321,0.146,2.045,0.181L185.582,115.825z M185.582,96.048c-0.755-0.036-1.454-0.097-2.136-0.188l0.141-1.049
		c0.652,0.086,1.321,0.146,2.045,0.18L185.582,96.048z M185.164,76.426l-0.223-1.035c0.671-0.145,1.328-0.263,2.007-0.359
		l0.151,1.049C186.399,76.18,185.762,76.297,185.164,76.426z M187.714,115.857l-0.017-1.06c0.722-0.011,1.414-0.046,2.057-0.103
		l0.096,1.055C189.18,115.809,188.462,115.846,187.714,115.857z M187.714,96.081l-0.017-1.06c0.722-0.011,1.414-0.045,2.057-0.103
		l0.096,1.056C189.18,96.033,188.462,96.068,187.714,96.081z M189.056,75.863l-0.085-1.057c0.628-0.051,1.3-0.088,2.025-0.111
		l0.033,1.06C190.324,75.775,189.668,75.813,189.056,75.863z M191.981,115.457l-0.197-1.041c0.658-0.124,1.307-0.283,1.984-0.486
		l0.304,1.014C193.36,115.158,192.675,115.326,191.981,115.457z M191.981,95.682l-0.197-1.041c0.658-0.125,1.307-0.283,1.984-0.488
		l0.304,1.016C193.36,95.383,192.675,95.551,191.981,95.682z M194.998,75.788c-0.618-0.031-1.275-0.05-1.981-0.056l0.008-1.06
		c0.723,0.007,1.396,0.026,2.025,0.058L194.998,75.788z M196.085,114.27l-0.352-0.998c0.651-0.23,1.307-0.459,2.023-0.666
		l0.294,1.018C197.355,113.824,196.718,114.046,196.085,114.27z M196.085,94.494l-0.352-0.999c0.651-0.229,1.307-0.458,2.023-0.666
		l0.294,1.019C197.355,94.048,196.718,94.27,196.085,94.494z M198.916,76.209c-0.601-0.104-1.246-0.195-1.95-0.27l0.112-1.054
		c0.729,0.077,1.397,0.171,2.019,0.279L198.916,76.209z M200.039,113.157l-0.184-1.043c0.682-0.121,1.379-0.21,2.131-0.271
		l0.085,1.056C201.353,112.958,200.689,113.042,200.039,113.157z M200.039,93.382l-0.184-1.043c0.682-0.121,1.379-0.21,2.131-0.271
		l0.085,1.056C201.353,93.182,200.689,93.268,200.039,93.382z M202.756,77.123c-0.62-0.175-1.247-0.35-1.915-0.512l0.25-1.029
		c0.682,0.166,1.322,0.343,1.954,0.521L202.756,77.123z M206.199,112.855c-0.538-0.029-1.115-0.045-1.737-0.045l-0.33,0.002
		l-0.01-1.06l0.34-0.002c0.643,0,1.238,0.017,1.795,0.047L206.199,112.855z M206.199,93.08c-0.538-0.029-1.115-0.046-1.737-0.046
		l-0.33,0.002l-0.01-1.06l0.34-0.002c0.643,0,1.238,0.018,1.795,0.049L206.199,93.08z M206.676,78.133
		c-0.703-0.143-1.354-0.302-1.979-0.468l0.271-1.024c0.606,0.161,1.236,0.315,1.92,0.453L206.676,78.133z M206.955,65.206
		c-0.624-0.124-1.282-0.24-1.996-0.341l0.151-1.049c0.731,0.105,1.411,0.223,2.052,0.352L206.955,65.206z M206.955,50.374
		c-0.624-0.124-1.282-0.24-1.996-0.341l0.151-1.049c0.731,0.105,1.411,0.223,2.052,0.352L206.955,50.374z M210.244,113.451
		c-0.656-0.168-1.311-0.297-2.003-0.396l0.151-1.05c0.729,0.106,1.421,0.243,2.114,0.42L210.244,113.451z M210.245,93.675
		c-0.656-0.168-1.311-0.297-2.003-0.397l0.151-1.049c0.729,0.106,1.421,0.244,2.114,0.42L210.245,93.675z M210.713,78.672
		c-0.729-0.051-1.401-0.121-2.025-0.203l0.139-1.05c0.605,0.08,1.254,0.147,1.962,0.197L210.713,78.672z M210.927,66.139
		l-1.988-0.492l0.248-1.028l1.994,0.493L210.927,66.139z M210.927,51.307l-1.988-0.492l0.248-1.029l1.994,0.493L210.927,51.307z
		 M211.881,43.822c-0.37,0-0.727-0.005-1.071-0.013l0.024-1.059c0.336,0.008,0.686,0.013,1.047,0.013V43.822z M214.203,114.74
		c-0.426-0.141-0.838-0.285-1.25-0.43l-0.741-0.26l0.344-1.001l0.749,0.261c0.405,0.144,0.81,0.287,1.229,0.424L214.203,114.74z
		 M214.203,94.964c-0.426-0.14-0.838-0.284-1.25-0.43l-0.741-0.259l0.344-1.002l0.749,0.262c0.405,0.143,0.81,0.285,1.229,0.423
		L214.203,94.964z M212.93,78.771l0.021-1.06c0.338,0.007,0.688,0.011,1.049,0.011v1.059
		C213.631,78.782,213.274,78.777,212.93,78.771z M214.994,66.977c-0.729-0.112-1.404-0.237-2.046-0.373l0.217-1.037
		c0.624,0.131,1.282,0.254,1.991,0.363L214.994,66.977z M214.994,52.145c-0.729-0.113-1.404-0.238-2.046-0.373l0.217-1.037
		c0.624,0.13,1.282,0.253,1.991,0.363L214.994,52.145z M218.398,115.68c-0.739-0.088-1.435-0.205-2.124-0.361l0.231-1.034
		c0.655,0.147,1.315,0.259,2.017,0.342L218.398,115.68z M218.398,95.902c-0.739-0.086-1.435-0.204-2.124-0.36l0.231-1.034
		c0.655,0.146,1.315,0.26,2.017,0.342L218.398,95.902z M219.132,67.395c-0.739-0.039-1.428-0.094-2.071-0.158l0.105-1.053
		c0.63,0.063,1.301,0.114,2.025,0.154L219.132,67.395z M219.132,52.564c-0.739-0.04-1.428-0.094-2.071-0.158l0.105-1.054
		c0.63,0.063,1.301,0.115,2.025,0.155L219.132,52.564z M221.769,115.861c-0.375,0-0.734-0.006-1.077-0.016l0.033-1.06
		c0.333,0.01,0.68,0.016,1.044,0.016V115.861L221.769,115.861z M221.769,96.085c-0.376,0-0.734-0.005-1.077-0.017l0.033-1.059
		c0.333,0.01,0.681,0.016,1.044,0.016V96.085L221.769,96.085z"/>
</g>
<g>
	<text transform="matrix(1 0 0 1 33.2336 88.5332)" fill="#FFFFFF" font-family="'WWF'" font-size="97.5502">9</text>
	<rect x="0" y="97.133" fill="none" width="79.327" height="32"/>
	<text transform="matrix(1 0 0 1 23.9832 107.7168)" fill="#FFFFFF" font-family="'Georgia'" font-size="14">wetlands </text>
	<text transform="matrix(1 0 0 1 6.4832 124.5166)" fill="#FFFFFF" font-family="'Georgia'" font-size="14">constructed</text>
</g>
</svg>
