<?xml version="1.0" encoding="utf-8"?>
<!-- Generator: Adobe Illustrator 16.0.0, SVG Export Plug-In . SVG Version: 6.00 Build 0)  -->
<!DOCTYPE svg PUBLIC "-//W3C//DTD SVG 1.1//EN" "http://www.w3.org/Graphics/SVG/1.1/DTD/svg11.dtd">
<svg version="1.1" id="Layer_1" xmlns="http://www.w3.org/2000/svg" xmlns:xlink="http://www.w3.org/1999/xlink" x="0px" y="0px"
	 width="143.178px" height="81.331px" viewBox="142.588 37.131 143.178 81.331"
	 enable-background="new 142.588 37.131 143.178 81.331" xml:space="preserve">
<g>
	<g>
		<path fill="#FFFFFF" d="M150.639,48.841c0,0-8.075,6.279-8.051,47.25v22.371h143.178V98.327c0,0-3.03-44.138-14.738-51.466
			c0,0,11.804,25.867,7.818,49.229c-0.104,0.605-0.233,2.236-0.361,2.236c0,0-0.095-1.106-0.164-2.236
			c-0.452-6.807-2.493-30.936-7.517-36.263c0,0,5.071,27.442,0.979,36.263c-1.188,2.691-0.746,0-0.746,0c0,0.686,0,0.533,0,0
			c-0.093-7.041-1.012-32.988-9.507-44.325c0,0,6.374,27.756,0.806,44.325c-0.257,0.617-0.434,1.49-0.806,2.236
			c0,0-0.092-1.098-0.221-2.236c-0.746-6.094-3.075-26.1-3.075-36.263c0,0-4.324,23.317-3.45,36.263h-0.104
			c0.072,0.441,0.072,0.5,0,0c-1.175-8.52-6.022-45.095-3.764-58.959c0,0-3.132,12.573-2.738,51.022
			c-0.489-7.502-1.993-17.523-6.419-23.21c0,0,4.791,21.718,0.943,31.147c-0.266,0.662-0.582,2.236-0.943,2.236
			c0,0-0.197-1.086-0.501-2.236c-1.655-6.143-6.664-26.777-3.894-42.485c0,0-5.661,10.513-4.09,42.485l0.072,2.236
			c-0.012,0-1.924-25.683-4.346-28.336c0,0,0.08,13.723-0.678,26.1c-0.035,0.605-0.068,2.236-0.104,2.236
			c0,0-0.057-1.086-0.176-2.236c-0.79-7.971-4.311-39.839-10.076-44.325c0,0,5.032,30.19,2.574,44.325
			c-0.116,0.629-0.233,2.236-0.373,2.236c0,0-0.337-1.106-0.887-2.236c-2.458-5.151-9.229-20.182-8.635-28.582
			c0,0-4.752,9.156-4.029,28.185c0,0-6.735-19.762-0.072-35.866c0,0-6.628,6.048-6.792,21.929
			c-1.503-12.5-4.358-29.699-9.241-36.575c0,0,8.054,28.922,4.767,49.417c0,0-8.54-15.544-4.767-23.434
			c0,0-5.113,4.768-3.657,23.795c0,0-7.316-13.9-1.829-35.132c0,0-5.211,9.951-5.198,26.544c-0.851-9.787-2.423-23.281-5.045-29.84
			c0,0,1.305,28.139-1.339,39.559c-0.151,0.65-0.315,2.236-0.501,2.236c0,0-0.257-1.086-0.641-2.236
			c-1.539-4.582-5.208-17.549-3.741-33.338c0,0-3.705,8.692-1.468,27.58c-1.876-11.209-6.143-31.564-13.178-37.823
			c0,0,11.01,24.413,8.68,43.581c-0.069,0.605-0.164,2.236-0.257,2.236c0,0-0.966-1.025-2.261-2.236
			c-3.461-3.228-9.354-10.965-6.163-24.553c0,0-4.731,8.856-2.799,24.553c0,0,0.152,1.828,0.164,1.957
			C151.2,97.65,144.581,72.215,150.639,48.841L150.639,48.841z"/>
	</g>
</g>
<g>
	<text transform="matrix(1 0 0 1 17.1873 83.894)" fill="#FFFFFF" font-family="'WWF'" font-size="97.5502">255</text>
	<text transform="matrix(1 0 0 1 54.8997 101.2798)" fill="#FFFFFF" font-family="'Georgia'" font-size="14">hectares of </text>
	<text transform="matrix(1 0 0 1 7.324219e-004 118.0806)" fill="#FFFFFF" font-family="'Georgia'" font-size="14">grasslands managed</text>
</g>
</svg>
