<?xml version="1.0" encoding="utf-8"?>
<!-- Generator: Adobe Illustrator 16.0.0, SVG Export Plug-In . SVG Version: 6.00 Build 0)  -->
<!DOCTYPE svg PUBLIC "-//W3C//DTD SVG 1.1//EN" "http://www.w3.org/Graphics/SVG/1.1/DTD/svg11.dtd">
<svg version="1.1" id="Layer_1" xmlns="http://www.w3.org/2000/svg" xmlns:xlink="http://www.w3.org/1999/xlink" x="0px" y="0px"
	 width="63.585px" height="42.212px" viewBox="0 0 63.585 42.212" enable-background="new 0 0 63.585 42.212" xml:space="preserve">
<path fill="#FFFFFF" d="M41.626,32.052H3.933c-0.656,0-0.984-0.656-0.984-0.983V27.79c0-0.654,0.656-0.982,0.984-0.982h37.693
	c0.655,0,0.982,0.655,0.982,0.982v3.278C42.608,31.396,42.281,32.052,41.626,32.052 M1.311,23.857C0.655,23.857,0,24.513,0,25.169
	v6.883v1.311c0,0.656,0.655,0.983,0.983,0.983H19.01c0.656,0,0.983,0.655,0.983,0.982v3.606c0,0.655-0.655,0.983-0.983,0.983H0.983
	C0.328,39.918,0,40.572,0,40.901v0.327c0,0.656,0.655,0.983,0.983,0.983h60.636c0.656,0,0.983-0.656,0.983-0.983v-0.327
	c0-0.655-0.656-0.983-0.983-0.983H24.91c-0.656,0-0.983-0.655-0.983-0.983v-3.606c0-0.655,0.655-0.982,0.983-0.982h36.709
	c0.656,0,0.983-0.655,0.983-0.983v-0.327c0-0.656-0.656-0.983-0.983-0.983H47.198c-0.656,0-0.984-0.656-0.984-0.983V27.79
	c0-0.654,0.656-0.982,0.984-0.982h14.421c0.656,0,0.983-0.656,0.983-0.983c0-0.655-0.656-1.312-1.311-1.312H1.311V23.857z"/>
<path fill="#FFFFFF" d="M52.763,19.967h-1.702v-3.235h1.702V19.967z M33.614,19.967h-1.702v-3.235h1.702V19.967z M26.382,19.967
	H24.68v-3.235h1.702V19.967z M7.233,19.967H5.531v-3.235h1.703V19.967z M53.188,19.967v-3.235h0.426l-2.554-2.875V10.98h3.83
	L41.699,0.196L29.785,10.98h3.829v2.876l-2.979,3.234h0.851v3.237h-4.679V17.09h0.425l-2.553-2.875v-2.876h3.829L15.318,0.555
	L3.403,11.339h3.83v2.517L4.255,17.09h0.85v3.237H0v2.875h56.593v-2.875h-3.404V19.967z"/>
<path fill="#FFFFFF" d="M9.177,26.808c0,0-1.31,0.328-1.638,0.655c-0.328,0.327-0.328,0.656,0,0.982l-0.328,0.328
	c-0.328-0.328-1.64-0.654-1.64-0.654s0,1.31,0.328,1.638c0.328,0.328,0.655,0.328,0.983,0.328v0.983h0.656
	c0-1.312,0.328-1.967,0.655-2.295c0.328,0,0.655,0,0.983-0.328V26.808z"/>
<path fill="#FFFFFF" d="M15.077,26.808c0,0-1.311,0.328-1.639,0.655c-0.327,0.327-0.327,0.656,0,0.982l-0.327,0.328
	c-0.328-0.328-1.639-0.654-1.639-0.654s0,1.31,0.328,1.638c0.328,0.328,0.656,0.328,0.983,0.328v0.983h0.655
	c0-1.312,0.328-1.967,0.656-2.295c0.328,0,0.656,0,0.983-0.328V26.808z"/>
<path fill="#FFFFFF" d="M20.649,26.808c0,0-1.312,0.328-1.639,0.655c-0.328,0.327-0.328,0.656,0,0.982l-0.328,0.328
	c-0.328-0.328-1.64-0.654-1.64-0.654s0,1.31,0.328,1.638s0.656,0.328,0.984,0.328v0.983h0.655c0-1.312,0.327-1.967,0.655-2.295
	c0.328,0,0.656,0,0.984-0.328V26.808z"/>
<path fill="#FFFFFF" d="M25.893,26.808c0,0-1.311,0.328-1.639,0.655c-0.328,0.327-0.328,0.656,0,0.982l-0.328,0.328
	c-0.328-0.328-1.639-0.654-1.639-0.654s0,1.31,0.328,1.638s0.656,0.328,0.983,0.328v0.983h0.656c0-1.312,0.328-1.967,0.655-2.295
	c0.328,0,0.656,0,0.984-0.328V26.808z"/>
<path fill="#FFFFFF" d="M31.465,26.808c0,0-1.312,0.328-1.639,0.655c-0.327,0.327-0.327,0.656,0,0.982l-0.327,0.328
	c-0.328-0.328-1.639-0.654-1.639-0.654s0,1.31,0.328,1.638c0.328,0.328,0.655,0.328,0.983,0.328v0.983h0.655
	c0-1.312,0.328-1.967,0.655-2.295c0.328,0,0.656,0,0.984-0.328V26.808z"/>
<path fill="#FFFFFF" d="M37.037,26.808c0,0-1.312,0.328-1.638,0.655c-0.329,0.327-0.329,0.656,0,0.982l-0.329,0.328
	c-0.327-0.328-1.639-0.654-1.639-0.654s0,1.31,0.327,1.638c0.328,0.328,0.656,0.328,0.984,0.328v0.983h0.656
	c0-1.312,0.326-1.967,0.653-2.295c0.328,0,0.656,0,0.984-0.328V26.808z"/>
<path fill="#FFFFFF" d="M31.137,35.329c0,0-1.312,0.327-1.639,0.655c-0.328,0.328-0.328,0.655,0,0.982l-0.328,0.328
	c-0.328-0.328-1.639-0.655-1.639-0.655s0,1.312,0.328,1.639c0.328,0.328,0.655,0.328,0.983,0.328v0.983h0.655
	c0-1.312,0.327-1.968,0.655-2.295c0.327,0,0.655,0,0.983-0.328V35.329z"/>
<path fill="#FFFFFF" d="M36.709,35.329c0,0-1.312,0.327-1.639,0.655s-0.327,0.655,0,0.982l-0.327,0.328
	c-0.328-0.328-1.64-0.655-1.64-0.655s0,1.312,0.328,1.639c0.328,0.328,0.655,0.328,0.983,0.328v0.983h0.655
	c0-1.312,0.327-1.968,0.655-2.295c0.328,0,0.656,0,0.983-0.328V35.329z"/>
<path fill="#FFFFFF" d="M42.608,35.329c0,0-1.311,0.327-1.639,0.655c-0.326,0.328-0.326,0.655,0,0.982l-0.326,0.328
	c-0.328-0.328-1.642-0.655-1.642-0.655s0,1.312,0.329,1.639c0.328,0.328,0.655,0.328,0.984,0.328v0.983h0.654
	c0-1.312,0.328-1.968,0.655-2.295c0.328,0,0.656,0,0.983-0.328V35.329z"/>
<path fill="#FFFFFF" d="M6.555,35.329c0,0-1.311,0.327-1.638,0.655c-0.328,0.328-0.328,0.655,0,0.982l-0.328,0.328
	c-0.328-0.328-1.64-0.655-1.64-0.655s0,1.312,0.328,1.639c0.328,0.328,0.656,0.328,0.984,0.328v0.983h0.656
	c0-1.312,0.327-1.968,0.654-2.295c0.328,0,0.656,0,0.983-0.328V35.329z"/>
<path fill="#FFFFFF" d="M12.127,35.329c0,0-1.311,0.327-1.639,0.655c-0.327,0.328-0.327,0.655,0,0.982l-0.327,0.328
	c-0.328-0.328-1.639-0.655-1.639-0.655s0,1.312,0.328,1.639c0.327,0.328,0.655,0.328,0.983,0.328v0.983h0.655
	c0-1.312,0.328-1.968,0.656-2.295c0.328,0,0.656,0,0.983-0.328V35.329z"/>
<path fill="#FFFFFF" d="M17.699,35.656c0,0-1.312,0.328-1.639,0.656c-0.328,0.327-0.328,0.655,0,0.982l-0.328,0.327
	c-0.328-0.327-1.64-0.654-1.64-0.654s0,1.311,0.328,1.639s0.655,0.328,0.983,0.328v0.984h0.656c0-1.313,0.327-1.969,0.655-2.297
	c0.328,0,0.656,0,0.984-0.327V35.656z"/>
<path fill="#FFFFFF" d="M48.509,35.001c0,0-1.311,0.328-1.639,0.655c-0.328,0.328-0.328,0.655,0,0.982l-0.328,0.329
	c-0.328-0.329-1.64-0.656-1.64-0.656s0,1.311,0.328,1.64c0.328,0.327,0.655,0.327,0.983,0.327v0.984h0.656
	c0-1.312,0.328-1.968,0.655-2.295c0.327,0,0.655,0,0.983-0.329V35.001z"/>
<path fill="#FFFFFF" d="M54.08,35.001c0,0-1.312,0.328-1.639,0.655c-0.328,0.328-0.328,0.655,0,0.982l-0.328,0.329
	c-0.327-0.329-1.639-0.656-1.639-0.656s0,1.311,0.328,1.64c0.327,0.327,0.655,0.327,0.983,0.327v0.984h0.655
	c0-1.312,0.327-1.968,0.655-2.295c0.328,0,0.656,0,0.983-0.329V35.001z"/>
<path fill="#FFFFFF" d="M59.652,35.329c0,0-1.312,0.327-1.641,0.655c-0.326,0.328-0.326,0.655,0,0.982l-0.326,0.328
	c-0.327-0.328-1.639-0.655-1.639-0.655s0,1.312,0.328,1.639c0.327,0.328,0.655,0.328,0.983,0.328v0.983h0.653
	c0-1.312,0.329-1.968,0.657-2.295c0.327,0,0.655,0,0.983-0.328V35.329z"/>
<path fill="#FFFFFF" d="M52.441,26.808c0,0-1.311,0.328-1.639,0.655c-0.327,0.327-0.327,0.656,0,0.982l-0.327,0.328
	c-0.328-0.328-1.64-0.654-1.64-0.654s0,1.31,0.328,1.638s0.655,0.328,0.983,0.328v0.983h0.655c0-1.312,0.328-1.967,0.655-2.295
	c0.327,0,0.655,0,0.983-0.328V26.808z"/>
<path fill="#FFFFFF" d="M58.013,26.808c0,0-1.311,0.328-1.637,0.655c-0.329,0.327-0.329,0.656,0,0.982l-0.329,0.328
	c-0.327-0.328-1.638-0.654-1.638-0.654s0,1.31,0.326,1.638c0.328,0.328,0.657,0.328,0.984,0.328v0.983h0.656
	c0-1.312,0.326-1.967,0.653-2.295c0.328,0,0.656,0,0.983-0.328V26.808z"/>
<path fill="#FFFFFF" d="M63.585,26.808c0,0-1.311,0.328-1.638,0.655s-0.327,0.656,0,0.982l-0.327,0.328
	c-0.328-0.328-1.641-0.654-1.641-0.654s0,1.31,0.328,1.638s0.655,0.328,0.984,0.328v0.983h0.655c0-1.312,0.327-1.967,0.654-2.295
	c0.328,0,0.656,0,0.983-0.328V26.808z"/>
</svg>
