<?xml version="1.0" encoding="utf-8"?>
<!-- Generator: Adobe Illustrator 16.0.0, SVG Export Plug-In . SVG Version: 6.00 Build 0)  -->
<!DOCTYPE svg PUBLIC "-//W3C//DTD SVG 1.1//EN" "http://www.w3.org/Graphics/SVG/1.1/DTD/svg11.dtd">
<svg version="1.1" id="Layer_1" xmlns="http://www.w3.org/2000/svg" xmlns:xlink="http://www.w3.org/1999/xlink" x="0px" y="0px"
	 width="64px" height="64px" viewBox="0 0 64 64" enable-background="new 0 0 64 64" xml:space="preserve">
<g>
	<path fill="#FFFFFF" d="M8.964,26.242c-0.708-0.235-1.416-0.235-1.887,0c-0.472,0.235-0.944,0.471-1.416,0.943
		c-1.416,1.415-1.416,3.539,0,4.955l6.841,6.841l-0.944,0.943l-6.84-6.842c-1.888-1.887-1.927-4.953-0.038-6.84
		C5.387,25.535,6,25.298,7,25.063v-14.39c0-1.887-1.613-3.54-3.501-3.54C1.612,7.132,0,8.785,0,10.672v25.006
		c0,0.707,0.249,1.415,0.72,2.123L13,54.078V63h12.005H25V42.519L10.259,27.421C9.787,26.95,9.436,26.712,8.964,26.242z"/>
	<path fill="#FFFFFF" d="M60.5,7.132c-1.889,0-3.5,1.653-3.5,3.54v14.39c1,0.236,1.459,0.472,2.167,1.179
		c1.887,1.887,1.791,4.953-0.096,6.84l-6.89,6.842l-0.967-0.943l6.829-6.841c1.415-1.416,1.409-3.54-0.006-4.955
		c-0.472-0.473-0.946-0.708-1.418-0.943c-0.473-0.235-1.182-0.235-1.889,0c-0.236,0.471-0.554,0.708-1.026,1.18L39,42.519V63h12
		v-8.922l12.28-16.276c0.471-0.708,0.72-1.416,0.72-2.123V10.672C64,8.785,62.387,7.132,60.5,7.132z"/>
	<path fill="#FFFFFF" d="M51.426,17.514l0.236-13.447c0-0.472-0.236-0.708-0.472-0.943l-0.707-0.708C49.54,1.472,48.359,1,46.944,1
		s-2.595,0.472-3.538,1.416L43.17,2.888c-0.472,0.471-0.944,0.706-1.416,0.706s-0.943-0.235-1.415-0.471l-0.472-0.472
		c-0.943-0.944-2.123-1.416-3.539-1.416c-1.415,0-2.595,0.472-3.538,1.416l-0.236,0.237c-0.472,0.471-0.944,0.706-1.416,0.706
		s-0.944-0.235-1.415-0.471l-0.236-0.235c-0.943-0.944-2.123-1.416-3.538-1.416c-1.416,0-2.596,0.472-3.54,1.416
		c-0.471,0.471-0.943,0.706-1.415,0.706c-0.473,0-0.944-0.235-1.415-0.471c-0.944-0.944-2.124-1.416-3.54-1.416
		c-1.414,0-2.594,0.472-3.538,1.416l-0.133,0.235C12.133,3.594,12,4.066,12,4.303v13.683c0,5.189,2.02,10.36,5.796,14.134
		C21.57,35.897,26.421,38,31.61,38h0.237c5.426,0,10.378-2.341,13.917-6.116C49.54,28.11,51.426,22.939,51.426,17.514z"/>
</g>
</svg>
