<?xml version="1.0" encoding="utf-8"?>
<!-- Generator: Adobe Illustrator 16.0.0, SVG Export Plug-In . SVG Version: 6.00 Build 0)  -->
<!DOCTYPE svg PUBLIC "-//W3C//DTD SVG 1.1//EN" "http://www.w3.org/Graphics/SVG/1.1/DTD/svg11.dtd">
<svg version="1.1" id="Layer_1" xmlns="http://www.w3.org/2000/svg" xmlns:xlink="http://www.w3.org/1999/xlink" x="0px" y="0px"
	 width="72.684px" height="27.651px" viewBox="0 0 72.684 27.651" enable-background="new 0 0 72.684 27.651" xml:space="preserve">
<g>
	<path fill="#FFFFFF" d="M27.98,1.739c-0.643-0.401-1.286-0.295-1.93-0.699c-0.643,0-1.608-0.297-2.251-0.297h-0.965h-1.286
		c-11.9,0-21.548,12-21.548,27h8.529v-2.104c0,0.403-1.209,0-1.531-0.402c-0.643-0.805-0.283-3.622-0.283-3.622
		s2.271,0.402,2.914,1.207c0-0.401,0.332-0.805,0.332-0.805c-0.322-0.805-0.317-1.61,0.005-2.415
		c0.643-0.805,2.896-1.207,2.896-1.207s0.001,2.817-0.319,3.622c-0.644,0.805-1.287,1.053-1.93,1.053
		c-0.322,0.805-0.964,1.674-0.964,4.674h4.181C13.829,15.744,19.618,5.764,27.98,1.739z"/>
	<path fill="#FFFFFF" d="M29.266,2.344c-8.362,3.622-14.794,13.4-14.794,25.4h5.146h3.911v-1.701c-1,0.401-1.473,0-1.795-0.403
		c-0.643-0.806-0.415-3.622-0.415-3.622s2.205,0.403,2.848,1.207c0-0.402,0.299-0.804,0.299-0.804
		c-0.322-0.806-0.334-1.61-0.012-2.415c0.321-0.806,2.567-1.207,2.567-1.207s-0.003,2.816-0.325,3.622
		c-0.643,0.401-1.288,0.649-1.609,0.649c-0.322,0.805-0.967,1.674-0.967,4.674h5.789c0-8,2.573-15.115,6.754-19.944
		C34.412,5.384,31.839,3.551,29.266,2.344z"/>
	<path fill="#FFFFFF" d="M30.231,27.744h4.298v-2.104c-1,0.402-1.505,0-1.828-0.402c-0.643-0.805-0.43-3.622-0.43-3.622
		s2.196,0.402,2.839,1.207c0-0.402,0.294-0.805,0.294-0.805c-0.322-0.806-0.335-1.61-0.014-2.415
		c0.643-0.804,2.887-1.207,2.887-1.207s-0.003,2.816-0.323,3.622c-0.322,0.805-1.29,1.053-1.61,1.053
		c-0.322,0.805-0.967,1.674-0.967,4.674h7.719c0-8-2.573-14.086-6.433-18.915C32.804,13.658,30.231,19.744,30.231,27.744z"/>
	<path fill="#FFFFFF" d="M37.307,7.126c1.286-2.013,3.216-3.795,5.467-5.002c-1.608-0.806-2.896-1.38-4.503-1.38h-4.502
		c-1.287,0-2.251,0.575-3.216,0.978C33.126,2.929,35.377,4.712,37.307,7.126z"/>
	<path fill="#FFFFFF" d="M40.523,11.744h12.543c-2.251-4-5.467-7.541-9.327-9.15c-2.251,1.207-4.181,2.764-6.11,4.776
		C38.593,8.577,39.558,10.744,40.523,11.744z"/>
	<path fill="#FFFFFF" d="M54.031,11.744h14.794c-3.538-6-8.683-10-15.116-11h-4.502c-1.607,0-3.216,0.67-4.503,1.074
		C48.564,4.231,51.78,7.744,54.031,11.744z"/>
	<path fill="#FFFFFF" d="M40.845,12.744c1.93,4,2.895,9,2.895,15h1.607h11.256c0-6-1.285-11-3.215-15H40.845z"/>
	<path fill="#FFFFFF" d="M69.468,12.744H54.352c1.931,4,3.216,10,3.216,15h5.789h9.327C72.684,21.744,71.398,16.744,69.468,12.744z"
		/>
</g>
</svg>
