<?xml version="1.0" encoding="utf-8"?>
<!-- Generator: Adobe Illustrator 16.0.0, SVG Export Plug-In . SVG Version: 6.00 Build 0)  -->
<!DOCTYPE svg PUBLIC "-//W3C//DTD SVG 1.1//EN" "http://www.w3.org/Graphics/SVG/1.1/DTD/svg11.dtd">
<svg version="1.1" id="Layer_1" xmlns="http://www.w3.org/2000/svg" xmlns:xlink="http://www.w3.org/1999/xlink" x="0px" y="0px"
	 width="55.706px" height="65.811px" viewBox="0 0 55.706 65.811" enable-background="new 0 0 55.706 65.811" xml:space="preserve">
<path fill="#FFFFFF" d="M19.691,24.873h-5.959v-0.518h1.813c0.26,0,0.519-0.26,0.519-0.519c0-0.26-0.26-0.519-0.519-0.519h-4.922
	c-0.26,0-0.52,0.259-0.52,0.519c0,0.259,0.261,0.519,0.52,0.519h2.071v0.518h-2.33H9.586c-1.813,0-1.554,3.627-1.554,3.627h2.331
	c0,0-0.26-1.813,0.519-1.813h1.813h0.52h0.518v-0.259h5.959V24.873z"/>
<path fill="#FFFFFF" d="M40.418,46.378H19.692c-1.037,0-1.814-0.777-1.814-1.813v-4.405c0-1.035,0.777-1.813,1.814-1.813h20.727
	c1.037,0,1.814,0.778,1.814,1.813v4.405C42.233,45.601,41.456,46.378,40.418,46.378 M55.706,37.31v-2.332
	c0-0.518-0.518-1.036-1.036-1.036H10.881c-0.518,0-1.035-0.518-1.035-1.037v-3.368c0-0.518-0.519-1.035-1.036-1.035
	c-0.52,0-1.037,0.518-1.037,1.035v3.368c0,0.52-0.519,1.037-1.036,1.037h-5.7C0.518,33.941,0,34.46,0,34.978v2.332
	c0,0.518,0.518,1.036,1.037,1.036h11.142c0.518,0,1.035,0.519,1.035,1.037v6.218c0,0.518-0.518,1.036-1.035,1.036H1.037
	C0.518,46.637,0,47.155,0,47.674v2.332c0,0.518,0.518,1.036,1.037,1.036h24.614c0.518,0,1.036,0.518,1.036,1.035v8.292
	c0,0.519-0.519,1.036-1.036,1.036H1.037C0.518,61.405,0,61.924,0,62.441v2.332c0,0.519,0.518,1.037,1.037,1.037h53.115
	c0.518,0,1.036-0.519,1.036-1.037v-2.332c0-0.518-0.519-1.036-1.036-1.036H31.61c-0.519,0-1.036-0.518-1.036-1.036v-9.068
	c0-0.519,0.518-1.036,1.036-1.036h22.542c0.518,0,1.036-0.519,1.036-1.037v-2.331c0-0.519-0.519-1.037-1.036-1.037h-7.514
	c-0.519,0-1.037-0.518-1.037-1.036v-6.219c0-0.518,0.519-1.036,1.037-1.036h7.514C55.188,38.346,55.706,37.827,55.706,37.31"/>
<path fill="#FFFFFF" d="M39.382,53.114c0,0-1.555,0.259-2.072,0.777c-0.26,0.259-0.26,1.037,0,1.296c0,0.259-0.26,0.259-0.26,0.518
	c-0.259-0.518-2.072-0.776-2.072-0.776s0,1.554,0.259,2.071c0.259,0.52,0.778,0.52,1.296,0.261v1.036h0.518
	c0-1.556,0.519-2.332,0.777-2.851c0.52,0.259,0.778,0,1.296-0.259C39.382,54.67,39.382,53.114,39.382,53.114"/>
<path fill="#FFFFFF" d="M46.12,53.114c0,0-1.556,0.259-2.073,0.777c-0.259,0.259-0.259,1.037,0,1.296
	c0,0.259-0.259,0.259-0.259,0.518c-0.26-0.518-2.073-0.776-2.073-0.776s0,1.554,0.259,2.071c0.26,0.52,0.778,0.52,1.296,0.261v1.036
	h0.519c0-1.556,0.518-2.332,0.776-2.851c0.52,0.259,0.778,0,1.296-0.259C46.12,54.67,46.12,53.114,46.12,53.114"/>
<path fill="#FFFFFF" d="M52.856,53.114c0,0-1.556,0.259-2.073,0.777c-0.259,0.259-0.259,1.037,0,1.296
	c0,0.259-0.259,0.259-0.259,0.518c-0.259-0.518-2.073-0.776-2.073-0.776s0,1.554,0.259,2.071c0.26,0.52,0.778,0.52,1.296,0.261
	v1.036h0.519c0-1.556,0.518-2.332,0.776-2.851c0.52,0.259,0.778,0,1.297-0.259C52.856,54.929,52.856,53.114,52.856,53.114"/>
<path fill="#FFFFFF" d="M9.586,53.114c0,0-1.555,0.259-2.073,0.777c-0.259,0.259-0.259,1.037,0,1.296
	c0,0.259-0.259,0.259-0.259,0.518c-0.259-0.518-2.073-0.776-2.073-0.776s0,1.554,0.26,2.071c0.26,0.52,0.777,0.52,1.296,0.261v1.036
	h0.518c0-1.556,0.519-2.332,0.777-2.851c0.519,0.259,0.777,0,1.296-0.259C9.586,54.67,9.586,53.114,9.586,53.114"/>
<path fill="#FFFFFF" d="M16.323,53.114c0,0-1.555,0.259-2.072,0.777c-0.26,0.259-0.26,1.037,0,1.296c0,0.259-0.26,0.259-0.26,0.518
	c-0.259-0.518-2.072-0.776-2.072-0.776s0,1.554,0.259,2.071c0.26,0.52,0.777,0.52,1.296,0.261v1.036h0.518
	c0-1.556,0.519-2.332,0.777-2.851c0.519,0.259,0.778,0,1.296-0.259C16.323,54.67,16.323,53.114,16.323,53.114"/>
<path fill="#FFFFFF" d="M23.319,53.114c0,0-1.556,0.259-2.073,0.777c-0.259,0.259-0.259,1.037,0,1.296
	c0,0.259-0.259,0.259-0.259,0.518c-0.259-0.518-2.073-0.776-2.073-0.776s0,1.554,0.259,2.071c0.261,0.52,0.778,0.52,1.296,0.261
	v1.036h0.519c0-1.556,0.518-2.332,0.776-2.851c0.52,0.259,0.778,0,1.297-0.259C23.319,54.929,23.319,53.114,23.319,53.114"/>
<path fill="#FFFFFF" d="M24.874,38.864c0,0-1.556,0.259-2.073,0.777c-0.259,0.259-0.259,1.036,0,1.296
	c0,0.259-0.259,0.259-0.259,0.518c-0.26-0.518-2.073-0.777-2.073-0.777s0,1.555,0.259,2.072c0.26,0.52,0.778,0.52,1.296,0.26v1.036
	h0.519c0-1.555,0.518-2.332,0.776-2.85c0.52,0.259,0.778,0,1.296-0.259C24.874,40.678,24.874,38.864,24.874,38.864"/>
<path fill="#FFFFFF" d="M31.61,38.864c0,0-1.555,0.259-2.073,0.777c-0.259,0.259-0.259,1.036,0,1.296
	c0,0.259-0.259,0.259-0.259,0.518c-0.259-0.518-2.073-0.777-2.073-0.777s0,1.555,0.259,2.072c0.261,0.52,0.778,0.52,1.297,0.26
	v1.036h0.518c0-1.555,0.518-2.332,0.777-2.85c0.519,0.259,0.777,0,1.296-0.259C31.61,40.678,31.61,38.864,31.61,38.864"/>
<path fill="#FFFFFF" d="M38.346,39.123c0,0-1.555,0.259-2.073,0.777c-0.259,0.259-0.259,1.037,0,1.296
	c0,0.259-0.259,0.259-0.259,0.518c-0.259-0.518-2.073-0.776-2.073-0.776s0,1.554,0.26,2.072s0.777,0.519,1.296,0.26v1.036h0.518
	c0-1.556,0.519-2.332,0.777-2.851c0.519,0.259,0.777,0,1.296-0.259C38.346,40.679,38.346,39.123,38.346,39.123"/>
<path fill="#FFFFFF" d="M52.079,39.123c0,0-1.556,0.259-2.073,0.777c-0.259,0.259-0.259,1.037,0,1.296
	c0,0.259-0.259,0.259-0.259,0.518c-0.259-0.518-2.073-0.776-2.073-0.776s0,1.554,0.259,2.072c0.261,0.519,0.778,0.519,1.296,0.26
	v1.036h0.519c0-1.556,0.518-2.332,0.776-2.851c0.52,0.259,0.778,0,1.297-0.259C52.079,40.679,52.079,39.123,52.079,39.123"/>
<path fill="#FFFFFF" d="M6.218,38.864c0,0-1.555,0.259-2.073,0.777c-0.259,0.259-0.259,1.036,0,1.296
	c0,0.259-0.259,0.259-0.259,0.518c-0.259-0.518-2.073-0.777-2.073-0.777s0,1.555,0.259,2.072c0.26,0.52,0.778,0.52,1.296,0.26v1.036
	h0.518c0-1.555,0.518-2.332,0.777-2.85c0.519,0.259,0.777,0,1.296-0.259C6.218,40.419,6.218,38.864,6.218,38.864"/>
<path fill="#FFFFFF" d="M13.214,39.123c0,0-1.556,0.259-2.073,0.777c-0.259,0.259-0.259,1.037,0,1.296
	c0,0.259-0.259,0.259-0.259,0.518c-0.26-0.518-2.073-0.776-2.073-0.776s0,1.554,0.259,2.072c0.26,0.519,0.778,0.519,1.296,0.26
	v1.036h0.519c0-1.556,0.518-2.332,0.776-2.851c0.52,0.259,0.778,0,1.296-0.259C13.214,40.679,13.214,39.123,13.214,39.123"/>
<polygon fill="#FFFFFF" points="34.719,2.591 34.719,0 21.764,0 21.764,2.591 16.841,2.591 16.841,7.772 39.901,7.772 39.901,2.591 
	"/>
<rect x="16.841" y="8.291" fill="#FFFFFF" width="23.06" height="5.7"/>
<rect x="16.841" y="14.25" fill="#FFFFFF" width="23.06" height="5.959"/>
<path fill="#FFFFFF" d="M18.137,30.314h20.469c0.776,0,1.295-0.519,1.295-1.297v-8.291h-23.06v8.291
	C16.841,29.796,17.36,30.314,18.137,30.314"/>
</svg>
