<?xml version="1.0" encoding="utf-8"?>
<!-- Generator: Adobe Illustrator 16.0.0, SVG Export Plug-In . SVG Version: 6.00 Build 0)  -->
<!DOCTYPE svg PUBLIC "-//W3C//DTD SVG 1.1//EN" "http://www.w3.org/Graphics/SVG/1.1/DTD/svg11.dtd">
<svg version="1.1" id="Layer_1" xmlns="http://www.w3.org/2000/svg" xmlns:xlink="http://www.w3.org/1999/xlink" x="0px" y="0px"
	 width="70.706px" height="142.608px" viewBox="125.864 0 70.706 142.608" enable-background="new 125.864 0 70.706 142.608"
	 xml:space="preserve">
<g>
	<polygon fill="#FFFFFF" points="160.295,117.755 162.259,120.32 164.04,117.776 	"/>
	<path fill="#FFFFFF" d="M196.57,95.17V18.198c0-1.642-0.767-3.093-1.943-4.063c0.461-0.848,0.401-1.924-0.239-2.726l-1.931-2.415
		l-1.793,2.242l-1.793-2.242l-1.793,2.242l-1.793-2.242l-1.93,2.415c-0.618,0.771-0.717,1.852-0.24,2.726
		c-1.177,0.971-1.944,2.421-1.944,4.063v14.229c0,2.552-2.076,4.629-4.629,4.629c-2.627,0-5.097-1.022-6.954-2.88
		c-1.855-1.854-2.878-4.324-2.878-6.951V5.494c0-3.029-2.464-5.494-5.494-5.494c-1.462,0-2.841,0.57-3.885,1.608
		c-1.038,1.038-1.608,2.417-1.608,3.886v21.73c0,5.421-4.409,9.832-9.829,9.832c-1.237,0-2.4-0.48-3.273-1.353
		c-0.875-0.876-1.355-2.04-1.355-3.276V18.198c0-1.642-0.768-3.093-1.944-4.063c0.461-0.848,0.4-1.924-0.24-2.725l-1.93-2.415
		l-1.793,2.242l-1.793-2.242l-1.793,2.242l-1.793-2.242l-1.931,2.415c-0.616,0.771-0.717,1.852-0.239,2.725
		c-1.178,0.971-1.944,2.421-1.944,4.063v114.089c0,1.865,0.977,3.501,2.441,4.442c-0.939,0.872-1.07,2.328-0.258,3.346l1.931,2.415
		l1.793-2.243l1.793,2.243l1.793-2.243l1.793,2.243l1.93-2.415c0.706-0.883,0.735-2.166,0-3.087
		c-0.078-0.097-0.167-0.178-0.255-0.26c1.463-0.941,2.439-2.576,2.439-4.441v-1.243v-20.287c0-3.159,1.91-5.867,4.631-7.066
		c-0.127-0.785-0.231-2.111,0.215-3.359c0.521-1.458,2.029-2.66,3.843-3.062c2.081-0.461,4.232,0.199,5.95,1.81
		c2.796-1.142,7.25-2.785,12.534,0.229c0.768-1.175,2.146-1.909,3.796-1.995c2.111-0.106,4.104,0.84,5.058,2.42
		c0.561,0.929,0.949,2.406,0.181,4.459c0.512,0.312,1.001,0.665,1.435,1.1c1.46,1.458,2.265,3.398,2.265,5.465v20.018l0,0v1.634
		c0,1.865,0.978,3.501,2.44,4.441c-0.939,0.872-1.07,2.328-0.257,3.345l1.93,2.415l1.793-2.242l1.793,2.242l1.793-2.242l1.793,2.242
		l1.93-2.415c0.706-0.882,0.735-2.166,0-3.086c-0.077-0.097-0.167-0.178-0.255-0.26c1.462-0.941,2.438-2.576,2.438-4.44v-1.365l0,0
		V95.17H196.57z M189.515,67.462c0.089-0.012,0.177-0.019,0.264-0.019c0.95,0,1.778,0.701,1.91,1.669
		c0.057,0.416-0.027,0.816-0.209,1.161c-0.281,0.531-0.801,0.927-1.441,1.014c-1.253,0.172-2.526,0.298-3.785,0.376
		c-1.057,0.063-1.979-0.744-2.045-1.809c-0.022-0.374,0.067-0.726,0.233-1.032c0.307-0.567,0.885-0.971,1.575-1.013
		C187.179,67.737,188.356,67.62,189.515,67.462z M184.652,84.492c-3.243,0.443-6.538,0.505-9.793,0.183
		c-1.062-0.105-1.836-1.051-1.73-2.111c0.024-0.246,0.099-0.474,0.204-0.682c0.352-0.688,1.094-1.128,1.907-1.048
		c2.955,0.293,5.945,0.237,8.889-0.166c0.089-0.012,0.178-0.019,0.265-0.019c0.949,0,1.776,0.701,1.91,1.669
		c0.057,0.416-0.027,0.816-0.21,1.161C185.812,84.009,185.292,84.404,184.652,84.492z M170.741,52.926
		c0.132,0,0.266,0.014,0.4,0.042c4.285,0.904,8.655,1.061,12.985,0.468c1.058-0.145,2.03,0.595,2.174,1.65
		c0.058,0.416-0.026,0.815-0.209,1.161c-0.28,0.53-0.801,0.926-1.44,1.013c-4.771,0.654-9.585,0.48-14.308-0.515
		c-1.043-0.221-1.71-1.244-1.49-2.287c0.042-0.198,0.117-0.378,0.211-0.546C169.404,53.312,170.042,52.926,170.741,52.926z
		 M180.165,67.806c1.064,0.067,1.873,0.983,1.807,2.047c-0.019,0.285-0.101,0.549-0.227,0.786c-0.345,0.646-1.04,1.07-1.821,1.021
		c-7.137-0.447-12.777-2.293-16.253-3.763c-0.974-0.412-1.431-1.527-1.033-2.504c0.003-0.008,0.004-0.017,0.008-0.024
		c0.311-0.737,1.026-1.18,1.778-1.18c0.251,0,0.506,0.049,0.751,0.153C168.373,65.693,173.57,67.392,180.165,67.806z M159.451,3.733
		C159.926,3.26,160.553,3,161.217,3c1.375,0,2.494,1.119,2.494,2.494v3.826h-0.042h-4.945V5.494c0-0.331,0.064-0.652,0.187-0.949
		C159.033,4.245,159.215,3.969,159.451,3.733z M158.723,25.482v-4.139v-0.08h4.987v4.22h-0.042L158.723,25.482L158.723,25.482z
		 M163.669,17.402h-4.945v-4.139v-0.08h4.987v4.22L163.669,17.402L163.669,17.402z M157.015,51.275
		c2.039-0.793,3.202-1.479,3.215-1.485c0.304-0.181,0.646-0.271,0.988-0.271c0.344,0,0.687,0.091,0.991,0.273
		c0.008,0.005,1.172,0.69,3.211,1.483c0.994,0.387,1.486,1.506,1.1,2.499c-0.049,0.125-0.109,0.242-0.18,0.352
		c-0.486,0.753-1.449,1.087-2.318,0.749c-1.209-0.471-2.157-0.912-2.805-1.237c-0.646,0.325-1.595,0.767-2.804,1.237
		c-0.994,0.386-2.112-0.106-2.499-1.1c-0.19-0.491-0.166-1.014,0.027-1.463C156.14,51.853,156.513,51.47,157.015,51.275z
		 M157.262,64.341c0.245-0.104,0.5-0.153,0.751-0.153c0.752,0,1.467,0.442,1.777,1.18c0.221,0.521,0.189,1.081-0.029,1.556
		c-0.194,0.422-0.534,0.778-0.996,0.973c-3.476,1.471-9.116,3.315-16.253,3.763c-1.061,0.066-1.981-0.742-2.048-1.807
		c-0.022-0.374,0.066-0.727,0.232-1.034c0.306-0.566,0.884-0.97,1.574-1.013C148.866,67.392,154.063,65.693,157.262,64.341z
		 M138.307,53.436c4.331,0.593,8.699,0.437,12.985-0.468c0.136-0.028,0.269-0.042,0.401-0.042c0.893,0,1.695,0.624,1.887,1.533
		c0.089,0.422,0.027,0.839-0.141,1.203c-0.247,0.535-0.729,0.953-1.351,1.084c-4.722,0.995-9.534,1.169-14.307,0.515
		c-1.056-0.145-1.795-1.118-1.65-2.174c0.033-0.239,0.113-0.458,0.223-0.658C136.728,53.744,137.492,53.324,138.307,53.436z
		 M132.657,67.444c0.087,0,0.176,0.007,0.264,0.019c1.158,0.159,2.336,0.275,3.499,0.347c1.064,0.066,1.873,0.982,1.809,2.046
		c-0.019,0.285-0.101,0.549-0.227,0.785c-0.346,0.647-1.044,1.07-1.818,1.022c-1.26-0.078-2.532-0.204-3.785-0.376
		c-1.057-0.146-1.795-1.118-1.65-2.175c0.03-0.222,0.102-0.427,0.198-0.615C131.269,67.863,131.925,67.444,132.657,67.444z
		 M149.065,83.7c-0.299,0.527-0.838,0.908-1.488,0.974c-3.255,0.323-6.551,0.262-9.794-0.183c-1.056-0.146-1.795-1.118-1.65-2.175
		c0.03-0.222,0.102-0.427,0.198-0.615c0.325-0.635,0.98-1.053,1.712-1.054c0.087,0,0.176,0.006,0.265,0.019
		c2.942,0.402,5.934,0.459,8.889,0.166c1.06-0.105,2.006,0.669,2.111,1.729C149.349,82.974,149.254,83.366,149.065,83.7z
		 M172.299,82.431c-0.033,0.155-0.091,0.299-0.157,0.436c-0.384,0.778-1.256,1.229-2.142,1.035
		c-4.228-0.929-7.299-2.289-8.781-3.034c-1.481,0.744-4.554,2.105-8.78,3.034c-1.041,0.229-2.071-0.43-2.299-1.471
		c-0.107-0.489-0.014-0.973,0.219-1.375c0.262-0.453,0.7-0.803,1.252-0.924c5.35-1.175,8.586-3.09,8.618-3.109
		c0.305-0.183,0.648-0.273,0.991-0.273c0.344,0,0.688,0.091,0.992,0.273c0.029,0.018,3.317,1.945,8.618,3.109
		C171.869,80.361,172.528,81.39,172.299,82.431z"/>
	<path fill="#FFFFFF" d="M175.865,105.245c1.165-1.954,1.362-3.682,0.57-4.994c-0.752-1.249-2.423-2.034-4.149-1.938
		c-1.487,0.077-2.688,0.787-3.21,1.9l-0.238,0.507l-0.477-0.293c-5.244-3.227-9.538-1.464-12.381-0.297l-0.312,0.127l-0.234-0.239
		c-2.067-2.097-4.186-2.009-5.266-1.77c-1.463,0.322-2.715,1.296-3.117,2.42c-0.337,0.943-0.291,1.975-0.197,2.663
		c0.006-0.002,0.011-0.005,0.017-0.006c0.167,0.733,0.458,1.445,0.896,2.09c-0.563,1.607-0.807,3.293-0.725,5.022
		c0.005,0.097,0.012,0.191,0.019,0.286l0.614,3.186c0.882,2.729,2.628,5.133,5.009,6.819c0,3.168,4.302,6.524,8.953,6.812v-6.388
		l-3.377-4.407l7.692,0.042l-3.315,4.737v6.029c3.393-0.123,6.822-1.98,8.782-6.825c3.352-2.375,5.445-6.171,5.64-10.292
		c0.079-1.683-0.155-3.321-0.686-4.89L175.865,105.245z M159.035,113.691h-1.64l-0.808-1.392l-0.905,1.392h-1.565l0.054-0.08h-0.012
		l1.469-2.201l-1.411-2.158h0.095l-0.054-0.08h1.632l0.741,1.277l0.791-1.277h1.558l-0.053,0.08h0.012l-1.362,2.086l1.502,2.273
		h-0.095L159.035,113.691z M169.507,113.749h-1.683l-0.829-1.43l-0.93,1.43h-1.606l0.055-0.08h-0.013l1.508-2.262l-1.447-2.216
		h0.094l-0.053-0.08h1.674l0.761,1.311l0.813-1.311h1.598l-0.052,0.08h0.011l-1.399,2.144l1.542,2.334h-0.095L169.507,113.749z"/>
</g>
<g>
	<text transform="matrix(1 0 0 1 42.0461 112.4006)" fill="#FFFFFF" font-family="'WWF'" font-size="97.5502">11</text>
	<text transform="matrix(1 0 0 1 -2.441406e-004 129.7874)" fill="#FFFFFF" font-family="'Georgia'" font-size="14">tiger skins seized</text>
</g>
</svg>
