<?xml version="1.0" encoding="utf-8"?>
<!-- Generator: Adobe Illustrator 16.0.0, SVG Export Plug-In . SVG Version: 6.00 Build 0)  -->
<!DOCTYPE svg PUBLIC "-//W3C//DTD SVG 1.1//EN" "http://www.w3.org/Graphics/SVG/1.1/DTD/svg11.dtd">
<svg version="1.1" id="Layer_1" xmlns="http://www.w3.org/2000/svg" xmlns:xlink="http://www.w3.org/1999/xlink" x="0px" y="0px"
	 width="138.483px" height="109.481px" viewBox="153.932 29.196 138.483 109.481"
	 enable-background="new 153.932 29.196 138.483 109.481" xml:space="preserve">
<g>
	<g>
		<path fill="#FFFFFF" d="M191.13,41.073c0.136,0.637,0.209,1.296,0.209,1.973c0,5.238-4.246,9.485-9.484,9.485
			c-4.934,0-8.984-3.769-9.439-8.584c5.162-0.731,9.31-2.874,9.31-2.874H191.13z"/>
		<path fill="#FFFFFF" d="M181.248,29.196c6.078,0,11.006,4.928,11.006,11.008h-0.562h-0.358h-10.086c0,0-4.447,2.298-9.981,3.081
			c-0.083,0.012-0.164,0.026-0.248,0.037c-0.104,0.013-0.207,0.029-0.312,0.044c-0.301-1.003-0.468-2.064-0.468-3.162
			C170.239,34.124,175.167,29.196,181.248,29.196z"/>
	</g>
	<path fill="#FFFFFF" d="M181.28,110.315c-0.038-2.229-0.147-4.457-0.301-6.68c-0.028-0.421-0.319-0.932-0.649-1.207
		c-2.502-2.08-4.219-4.436-5.313-7.003c-1.124,3.226-1.234,6.669,0.089,10.402c0.121,0.341,0.11,0.834-0.049,1.149
		c-0.843,1.67-1.72,3.323-2.647,4.946c-2.887,5.056-5.869,11.002-9.514,15.566c-0.59,0.739-1.245,1.497-1.577,2.36
		c-0.803,2.088,0.039,4.061,2.022,5.162c1.752,0.975,4.66,0.51,5.797-1.063c2.529-3.499,5.119-7.923,7.438-11.56
		c1.639-2.57,3.207-5.188,4.752-7.82C181.321,113.151,181.305,111.733,181.28,110.315z"/>
	<path fill="#FFFFFF" d="M181.123,101.635c0.33,0.275,0.621,0.787,0.649,1.208c0.153,2.223,0.263,4.451,0.302,6.68
		c0.024,1.418,0.04,2.838,0.047,4.256c0.026,5.514-0.135,11.976-0.892,17.461c-0.153,1.117-0.362,2.292-0.179,3.378
		c0.451,2.629,2.515,4.136,5.218,4.057c2.39-0.069,5.083-2.317,5.29-4.62c0.461-5.127,0.999-11.21,1.158-16.349
		c0.199-6.383,0.097-12.778,0.025-19.167c-0.021-1.957-0.215-3.911-0.351-5.867c0.039-0.015-0.097-1.738-0.097-1.738
		c-0.006-0.131-0.016-0.26-0.021-0.39v-0.001h-0.028l-0.281-2.247l0.027-8.042l0.027-8.81l19.945,16.934
		c1.928,1.636,4.815,1.399,6.451-0.526c0.043-0.052,0.078-0.105,0.119-0.158l52.516,19.052l-19.157,2.834
		c-1.407,0.208-2.716,0.796-3.797,1.681l-4.376-2.424c-0.569-0.314-1.301-0.207-1.75,0.299c-0.521,0.586-0.467,1.484,0.119,2.004
		l3.281,2.914c-0.043,0.094-0.084,0.186-0.121,0.276c-1.129,1.37-1.828,3.272-1.828,5.377c0,1.926,0.586,3.683,1.55,5.017
		l-4.697,10.387c-0.575,1.271-0.01,2.767,1.261,3.342c1.272,0.574,2.768,0.01,3.342-1.262l4.494-9.938
		c0.061,0.002,0.121,0.006,0.182,0.006c2.428,0,4.525-1.736,5.519-4.256c5.062,0.668,10.978,1.402,15.085,1.885l-4.621,10.223
		c-0.576,1.271-0.011,2.767,1.26,3.342c1.272,0.574,2.768,0.01,3.343-1.262l5.741-12.696c1.718-2.429,3.951-8.677,5.22-12.478
		c0.266-0.798,0.851-1.449,1.614-1.801c0.763-0.352,1.64-0.374,2.418-0.058c1.809,0.735,3.886,0.198,5.111-1.321l1.937-2.398
		c0.213-0.264,0.288-0.611,0.202-0.939c-0.084-0.328-0.318-0.596-0.631-0.723l-4.277-1.738l0.943-1.402
		c0.201-0.298,0.256-0.67,0.151-1.013s-0.358-0.621-0.69-0.756l-4.819-1.958c-0.511-2.098-1.937-3.838-2.788-4.727
		c-0.125-0.131-0.314-0.18-0.486-0.127c-0.174,0.053-0.304,0.198-0.336,0.377l-0.93,5.172h0.014
		c-0.402,0.336-0.748,0.75-1.017,1.227c-0.056,0.072-0.106,0.15-0.142,0.24l-2.89,3.826L219.291,83.53
		c-0.248-0.803-0.717-1.549-1.404-2.131l-25.831-21.932c0,0-5.873-6.019-10.167-6.019c-5.129,0-8.979,3.397-8.979,9.6v5.086v7.557
		C172.912,97.356,179.721,100.47,181.123,101.635z"/>
	<polyline fill="#FFFFFF" points="163.446,57.536 160.445,57.466 158.06,59.207 154.433,59.123 153.932,80.646 157.559,80.729 
		159.691,89.922 171.485,90.194 172.24,57.74 164.597,57.563 	"/>
</g>
<g>
	<text transform="matrix(1 0 0 1 86.5732 83.8936)" fill="#FFFFFF" font-family="'WWF'" font-size="97.5502">4</text>
	<rect y="92.493" fill="none" width="132.667" height="59.333"/>
	<text transform="matrix(1 0 0 1 60.4927 103.0771)" fill="#FFFFFF" font-family="'Georgia'" font-size="14">sniffer dogs </text>
	<text transform="matrix(1 0 0 1 23.647 119.877)" fill="#FFFFFF" font-family="'Georgia'" font-size="14">included in newly </text>
	<text transform="matrix(1 0 0 1 3.085 136.6768)" fill="#FFFFFF" font-family="'Georgia'" font-size="14">formed canine squad</text>
</g>
</svg>
