<?xml version="1.0" encoding="utf-8"?>
<!-- Generator: Adobe Illustrator 16.0.0, SVG Export Plug-In . SVG Version: 6.00 Build 0)  -->
<!DOCTYPE svg PUBLIC "-//W3C//DTD SVG 1.1//EN" "http://www.w3.org/Graphics/SVG/1.1/DTD/svg11.dtd">
<svg version="1.1" id="Layer_1" xmlns="http://www.w3.org/2000/svg" xmlns:xlink="http://www.w3.org/1999/xlink" x="0px" y="0px"
	 width="121.083px" height="138.376px" viewBox="145.005 3.208 121.083 138.376"
	 enable-background="new 145.005 3.208 121.083 138.376" xml:space="preserve">
<g>
	<path fill="#FFFFFF" d="M261.175,4.058c-3.003-1.44-6.558-1.026-9.159,1.06c-10.807,8.687-30.258,8.682-41.047,0.004
		c-3.167-2.551-7.677-2.546-10.844-0.004c-10.801,8.686-30.262,8.682-41.046,0.004c-2.599-2.09-6.165-2.504-9.156-1.064
		c-3.001,1.436-4.914,4.472-4.914,7.8l-0.004,69.188c0,27.107,21.731,49.609,58.127,60.197c0.79,0.228,1.601,0.342,2.416,0.342
		s1.626-0.114,2.416-0.342c36.397-10.588,58.124-33.084,58.124-60.197V11.858C266.086,8.53,264.178,5.494,261.175,4.058z
		 M245.15,32.437c-0.047,0.034-0.086,0.066-0.116,0.091c-0.078,0.066-0.159,0.133-0.278,0.159c-1.04,0.227-1.846,0.864-2.699,1.539
		l-0.152,0.12c-0.598,0.472-1.191,0.949-1.785,1.426c-1.032,0.828-2.1,1.685-3.172,2.5l-0.062,0.046
		c-0.753,0.572-1.465,1.113-1.886,1.932c-0.073,0.144-0.148,0.344-0.093,0.486c0.038,0.097,0.146,0.178,0.319,0.24
		c0.58,0.206,1.164,0.37,1.782,0.545c0.265,0.075,0.53,0.15,0.798,0.228c0.077,0.023,0.144,0.077,0.18,0.149
		c0.039,0.071,0.046,0.156,0.02,0.234c-0.168,0.51-0.68,0.515-0.955,0.518l-0.142,0.001c-0.211,0-0.423-0.005-0.636-0.01
		c-0.504-0.013-1.004-0.015-1.383,0.023c-0.813,0.084-1.553,0.233-2.197,0.443c-0.305,0.099-0.512,0.278-0.599,0.516
		c-0.093,0.259-0.038,0.569,0.155,0.874c0.095,0.151,0.205,0.292,0.314,0.433c0.082,0.105,0.164,0.208,0.24,0.317
		c0.123,0.173,0.209,0.353,0.266,0.565c0.031,0.112-0.006,0.232-0.094,0.308c-0.088,0.075-0.213,0.092-0.318,0.045
		c-0.559-0.251-1.166-0.364-1.971-0.364c-0.261,0-0.522,0.012-0.783,0.026c-0.866,0.049-1.641,0.449-2.305,1.187
		c-0.136,0.151-0.096,0.346-0.059,0.449c0.088,0.25,0.35,0.531,0.732,0.593c0.43,0.07,0.879,0.102,1.313,0.134
		c0.376,0.028,0.753,0.055,1.126,0.105c0.416,0.056,0.814,0.196,1.124,0.396c0.285,0.183,0.431,0.454,0.392,0.723
		c-0.039,0.268-0.254,0.484-0.576,0.577c-0.403,0.116-0.823,0.141-1.229,0.165l-0.132,0.008c-0.006,0.001-0.061,0.002-0.066,0.002
		c-0.158,0-0.31-0.033-0.442-0.062c-0.058-0.013-0.114-0.025-0.171-0.034c-0.098-0.016-0.189-0.024-0.278-0.024
		c-0.212,0-0.502,0.048-0.683,0.276c-0.168,0.213-0.211,0.545-0.12,0.937c0.358,1.541,0.866,2.874,1.554,4.074
		c0.291,0.511,0.616,1.018,0.93,1.51l0.342,0.538c0.351,0.558,0.563,1.155-0.267,1.74c-0.147,0.104-0.269,0.289-0.397,0.484
		c-0.049,0.075-0.098,0.148-0.147,0.219c-0.079,0.11-0.317,0.446-0.755,0.446c-0.127,0-0.26-0.028-0.406-0.085
		c-1.21-0.469-2.581-0.999-3.941-1.46c-0.871-0.295-1.666-0.375-2.431-0.248c-0.478,0.08-0.971,0.509-0.942,1.019
		c0.045,0.78,0.106,1.605,0.316,2.366c0.266,0.962,0.566,1.936,0.857,2.877c0.357,1.155,0.727,2.351,1.037,3.543
		c0.496,1.91,0.848,3.832,1.164,5.634c0.104,0.588,0.098,1.189,0.09,1.771c-0.004,0.201-0.006,0.402-0.004,0.602
		c0.003,0.181-0.057,0.383-0.18,0.597c-0.527,0.937-0.666,2.005-0.451,3.465c0.022,0.149,0.037,0.371-0.021,0.582
		c-0.477,1.729-1.354,2.981-2.682,3.825c-1.215,0.775-1.838,1.646-1.961,2.742c-0.119,1.076-0.243,2.353-0.258,3.658
		c-0.02,1.852,0.004,3.854,0.076,6.305c0.025,0.879,0.088,1.772,0.15,2.637c0.035,0.511,0.072,1.021,0.101,1.531
		c0.021,0.363,0.03,0.729,0.039,1.095c0.019,0.71,0.035,1.444,0.147,2.142c0.087,0.549,0.35,1.102,0.604,1.637
		c0.061,0.129,0.122,0.258,0.182,0.387c0.117,0.256,0.267,0.497,0.425,0.754c0.118,0.191,0.237,0.385,0.344,0.584
		c0.142,0.264,0.161,0.491,0.058,0.675c-0.158,0.283-0.516,0.306-0.634,0.313c-0.259,0.016-0.517,0.058-0.79,0.101
		c-0.218,0.035-0.436,0.07-0.654,0.093c-0.276,0.028-0.573-0.009-0.783-0.041c-0.375-0.055-0.571-0.228-0.67-0.365
		c-0.094-0.131-0.195-0.359-0.135-0.709c0.063-0.375,0.119-0.705,0.244-1.021c0.17-0.424,0.143-0.54-0.189-0.827
		c-0.196-0.171-0.336-0.453-0.338-0.689c-0.006-0.373,0.049-0.695,0.162-0.959c0.317-0.748,0.224-1.471-0.031-2.393
		c-0.172-0.623-0.247-1.271-0.32-1.9c-0.037-0.314-0.072-0.629-0.121-0.941c-0.035-0.227-0.085-0.451-0.134-0.675
		c-0.042-0.188-0.083-0.378-0.117-0.568c-0.034-0.192-0.073-0.384-0.112-0.575c-0.104-0.509-0.213-1.033-0.224-1.563l-0.009-0.49
		c-0.018-1.112-0.034-2.164-0.309-3.217c-0.113-0.438-0.148-0.89-0.183-1.327c-0.017-0.213-0.034-0.425-0.06-0.636l-0.008-0.074
		c-0.013-0.106-0.027-0.239-0.063-0.289c-0.193-0.276-0.277-0.336-0.311-0.349c-0.023,0.01-0.174,0.105-0.313,0.273
		c-0.484,0.582-0.58,1.313-0.682,2.086l-0.014,0.109c-0.088,0.665-0.014,1.307,0.063,1.988c0.049,0.432,0.1,0.877,0.106,1.328
		c0.008,0.759-0.002,1.518-0.012,2.275c-0.006,0.446-0.012,0.893-0.014,1.338c-0.004,0.471,0.009,0.942,0.025,1.412l0.018,0.592
		c0.017,0.594,0.033,1.209,0.094,1.803c0.044,0.438,0.186,0.875,0.33,1.285c0.175,0.49,0.395,0.982,0.607,1.457
		c0.418,0.938,0.852,1.91,1.006,2.985c0.021,0.147,0.031,0.361-0.112,0.528c-0.103,0.121-0.259,0.182-0.463,0.183l-0.597,0.007
		c-0.28,0.004-0.562,0.01-0.842,0.01c-0.271,0-0.543-0.004-0.813-0.016c-0.288-0.011-0.646-0.382-0.646-0.672
		c-0.002-0.092-0.006-0.186-0.009-0.277c-0.022-0.525-0.047-1.119,0.497-1.627c0.053-0.05,0.139-0.145,0.127-0.236
		c-0.01-0.084-0.1-0.182-0.24-0.262c-0.55-0.313-0.479-0.724-0.369-1.084c0.201-0.66,0.201-1.291,0.004-1.929
		c-0.185-0.601-0.319-1.219-0.449-1.817l-0.122-0.558c-0.202-0.896-0.396-1.793-0.586-2.692c-0.036-0.168-0.07-0.369-0.046-0.567
		c0.146-1.269-0.189-2.452-0.545-3.706l-0.202-0.715c-0.294-1.021-0.597-2.078-0.466-3.217l0.054-0.442
		c0.062-0.481,0.123-0.978,0.121-1.457c-0.003-1.015-0.542-1.604-1.556-1.71c-1.547-0.159-3.056-0.479-4.326-0.771
		c-1.11-0.256-2.227-0.558-3.307-0.848c-0.658-0.178-1.316-0.355-1.978-0.523c-0.487-0.125-0.961-0.238-1.429-0.256
		c-0.957-0.039-1.75,0.223-2.369,0.795c-0.908,0.838-1.579,1.969-2.109,3.553c-0.768,2.297-2.078,4.318-3.354,6.193
		c-0.641,0.94-1.215,1.955-1.772,2.937l-0.335,0.589c-0.089,0.154-0.139,0.393-0.146,0.684c-0.078,3.045,0.812,5.928,2.643,8.566
		c0.063,0.09,0.141,0.172,0.219,0.255c0.255,0.272,0.604,0.644,0.485,1.276c-0.027,0.142-0.151,0.244-0.296,0.244h-2.93
		c-0.101,0-0.193-0.049-0.25-0.133c-0.056-0.082-0.066-0.188-0.029-0.281c0.039-0.096,0.072-0.182,0.103-0.264
		c0.068-0.184,0.128-0.34,0.207-0.484c0.192-0.352,0.183-0.627-0.036-0.92c-0.752-1.012-1.008-2.192-1.256-3.334l-0.046-0.213
		c-0.171-0.781-0.399-1.568-0.621-2.33c-0.19-0.655-0.387-1.332-0.549-2.01c-0.091-0.382-0.214-1.125-0.017-1.818l0.119-0.414
		c0.344-1.188,0.67-2.309,0.604-3.525c-0.022-0.421,0.047-0.837,0.114-1.238c0.031-0.187,0.062-0.371,0.082-0.557l0.025-0.184
		c0.024-0.161,0.047-0.313,0.024-0.434c-0.019-0.1-0.068-0.219-0.108-0.289c-0.101,0.026-0.218,0.096-0.25,0.148
		c-0.383,0.621-0.818,1.344-1.143,2.087c-0.359,0.821-0.979,1.39-1.525,1.89c-0.773,0.707-1.311,1.539-1.6,2.473
		c-0.067,0.219-0.059,0.482-0.047,0.762l0.007,0.227c0.002,0.155,0.02,0.311,0.036,0.467c0.021,0.185,0.039,0.367,0.041,0.551
		c0.017,2.808,0.506,5.18,1.494,7.252c0.144,0.302,0.342,0.581,0.553,0.877c0.152,0.215,0.305,0.43,0.438,0.654
		c0.146,0.246,0.246,0.619,0.142,0.894c-0.146,0.388-0.81,0.413-0.815,0.414c-0.292,0.009-0.583,0.011-0.875,0.011l-1.108-0.004
		l-0.307,0.001c-0.288,0-0.509-0.114-0.617-0.312c-0.1-0.184-0.082-0.412,0.049-0.612c0.498-0.772,0.276-1.481-0.004-2.38
		c-0.246-0.785-0.34-1.59-0.429-2.367c-0.03-0.264-0.062-0.529-0.097-0.791c-0.198-1.441-0.379-2.886-0.559-4.329
		c-0.113-0.911-0.22-1.823-0.313-2.737c-0.063-0.629,0.173-1.211,0.706-1.731c0.933-0.911,1.156-2.011,0.723-3.567
		c-0.145-0.521-0.234-0.945-0.287-1.334c-0.074-0.566-0.131-1.133-0.188-1.699c-0.028-0.285-0.057-0.569-0.088-0.855l-0.121-1.094
		c-0.073-0.658-0.147-1.317-0.213-1.977c-0.02-0.191-0.017-0.385-0.014-0.578c0.002-0.099,0.004-0.197,0.002-0.295
		c-0.006-0.305-0.019-0.611-0.031-0.918c-0.027-0.668-0.057-1.357-0.012-2.039l0.012-0.166c0.082-1.293,0.17-2.631,0.965-3.844
		c0.347-0.529,0.182-1.205-0.033-1.908c-0.148-0.482-0.469-0.843-0.982-1.1c-0.311-0.157-0.519-0.498-0.615-0.688
		c-0.736-1.44-1.219-2.906-1.434-4.354c-0.095-0.643,0.029-1.304,0.15-1.944c0.033-0.178,0.066-0.355,0.095-0.53
		c0.056-0.35,0.155-0.689,0.251-1.017c0.051-0.173,0.102-0.346,0.145-0.521c0.061-0.232,0.216-0.848,0.799-0.848
		c0.174,0,0.367,0.057,0.613,0.177c0.57,0.281,1.127,0.559,1.653,0.883c0.484,0.297,0.735,0.796,0.728,1.443
		c-0.004,0.24,0.004,0.482,0.01,0.723c0.013,0.474,0.025,0.964-0.032,1.449c-0.112,0.949,0.259,1.766,0.654,2.63
		c0.198,0.436,0.542,0.649,1.093,0.698c1.166,0.1,2.17-0.393,3.081-0.937c1.757-1.051,3.522-1.59,5.396-1.648
		c1.385-0.041,2.77,0.042,4.147,0.254c0.411,0.063,0.827,0.106,1.242,0.149c0.434,0.045,0.868,0.091,1.298,0.157
		c0.747,0.115,1.551,0.271,2.529,0.487c1.428,0.317,3.093,0.654,4.779,0.654l0.674-0.007c0.553-0.007,1.105-0.014,1.658,0.007
		c0.881,0.039,1.725-0.193,2.807-0.75c0.707-0.364,1.131-1.039,1.293-2.064c0.228-1.44,0.48-3.144,0.627-4.869
		c0.139-1.632,0.439-3.253,0.918-4.953c0.367-1.306,0.736-2.61,1.191-3.867c0.405-1.117,1.147-2.082,2.336-3.033
		c0.256-0.205,0.496-0.538,0.643-0.894c0.059-0.141,0.064-0.26,0.02-0.349c-0.054-0.106-0.188-0.192-0.379-0.24
		c-0.337-0.084-0.675-0.163-1.014-0.241c-0.245-0.057-0.489-0.112-0.732-0.171c-0.113-0.028-0.298-0.073-0.416-0.217
		c-0.154-0.184-0.295-0.378-0.438-0.571l-0.15-0.204c-0.052-0.069-0.07-0.157-0.053-0.242c0.02-0.085,0.072-0.157,0.146-0.199
		c0.086-0.048,0.174-0.112,0.262-0.175c0.226-0.163,0.482-0.348,0.773-0.348c0.836,0.053,1.633,0.166,2.403,0.278
		c0.3,0.043,0.601,0.086,0.899,0.125c0.089,0.011,0.178,0.027,0.266,0.042c0.407,0.071,0.73,0.092,0.949-0.148
		c0.152-0.166,0.208-0.439,0.141-0.696c-0.072-0.281-0.277-0.495-0.559-0.587c-0.678-0.223-1.405-0.469-2.115-0.762
		c-0.691-0.285-1.557-0.726-2.119-1.609c-0.129-0.202-0.186-0.405-0.18-0.659c0.002-0.104,0.057-0.199,0.145-0.252
		c0.09-0.054,0.2-0.058,0.291-0.011l0.159,0.078c0.126,0.061,0.252,0.123,0.373,0.193c0.198,0.113,0.394,0.23,0.589,0.346
		c0.344,0.205,0.688,0.41,1.042,0.597c0.22,0.115,0.425,0.174,0.606,0.174c0.51,0,0.725-0.471,0.816-0.866
		c0.153-0.661,0.168-1.246,0.045-1.838c-0.136-0.652-0.504-1.172-1.158-1.634c-0.672-0.475-1.401-0.901-2.106-1.315l-0.169-0.099
		c-0.586-0.345-0.799-0.836-0.63-1.459c0.028-0.101,0.104-0.18,0.205-0.21c0.1-0.029,0.208-0.005,0.286,0.064l0.187,0.166
		c0.138,0.121,0.265,0.233,0.384,0.352c0.075,0.075,0.145,0.156,0.213,0.237c0.09,0.109,0.178,0.213,0.271,0.279
		c0.083,0.059,0.162,0.091,0.228,0.091c0.168,0,0.287-0.228,0.33-0.326c0.279-0.629,0.063-1.092-0.436-1.727
		c-0.352-0.447-0.788-1.003-0.73-1.825c0.006-0.083,0.045-0.159,0.108-0.212c0.063-0.052,0.146-0.077,0.229-0.065
		c0.551,0.07,0.797,0.45,0.978,0.727c0.04,0.064,0.081,0.125,0.125,0.184c0.114,0.153,0.226,0.31,0.338,0.467
		c0.229,0.326,0.448,0.633,0.702,0.907c0.313,0.336,0.563,0.261,0.751-0.223c0.437-1.115,0.196-2.145-0.776-3.34
		c-0.56-0.686-1.051-1.566-0.462-2.889c0.05-0.111,0.163-0.177,0.28-0.178c0.121,0.002,0.229,0.076,0.273,0.189
		c0.045,0.115,0.09,0.217,0.131,0.31c0.086,0.196,0.16,0.365,0.203,0.555c0.181,0.816,0.567,1.228,1.254,1.336
		c0.144,0.023,0.306-0.008,0.324-0.02l0.305-0.211c0.679-0.464,1.318-0.904,1.718-1.623c0.235-0.427,0.509-0.837,0.772-1.232
		c0.297-0.446,0.604-0.908,0.85-1.382c0.172-0.332,0.264-0.711,0.363-1.113c0.064-0.265,0.129-0.529,0.218-0.784
		c0.083-0.243,0.213-0.455,0.338-0.661c0.051-0.085,0.103-0.169,0.149-0.255c0.069-0.126,0.22-0.186,0.356-0.141l0.228,0.075
		c0.138,0.044,0.224,0.18,0.207,0.322l-0.021,0.183c-0.016,0.133-0.031,0.266-0.051,0.399c-0.024,0.163-0.057,0.327-0.088,0.49
		c-0.064,0.33-0.125,0.642-0.119,0.946c0.012,0.6,0.271,0.603,0.388,0.599c0.123,0,0.279-0.039,0.451-0.113
		c0.839-0.359,1.679-0.717,2.521-1.072c0.188-0.079,0.371-0.077,0.608,0.007c0.09,0.032,0.16,0.105,0.188,0.196
		c0.027,0.091,0.01,0.191-0.047,0.267l-0.156,0.209c-0.129,0.175-0.258,0.349-0.396,0.515c-0.092,0.11-0.202,0.192-0.299,0.264
		l-0.075,0.056c-0.328,0.255-0.492,0.455-0.501,0.611c-0.008,0.16,0.144,0.387,0.464,0.694c0.184,0.177,0.327,0.543,0.33,0.752
		c0.004,0.147-0.055,0.236-0.103,0.285c-0.33,0.338-0.847,0.3-1.185-0.094c-0.031-0.036-0.068-0.067-0.102-0.1
		c-0.061-0.057-0.122-0.114-0.173-0.178c-0.356-0.444-0.775-0.651-1.321-0.651c-0.432,0-0.896,0.129-1.336,0.269
		c-0.877,0.279-1.477,0.943-1.732,1.919c-0.097,0.367-0.048,0.609,0.486,0.758c0.168,0.047,0.332,0.104,0.497,0.161l0.209,0.071
		c0.136,0.045,0.222,0.18,0.203,0.323l-0.015,0.119c-0.018,0.137-0.125,0.245-0.262,0.261c-0.16,0.02-0.32,0.043-0.479,0.066
		c-0.375,0.054-0.763,0.109-1.151,0.127c-0.378,0.017-0.654,0.134-0.952,0.401c-0.793,0.712-0.983,1.668-1.185,2.681
		c-0.031,0.157-0.063,0.314-0.096,0.471c-0.004,0.02-0.004,0.04-0.004,0.061c-0.004,0.084-0.008,0.198-0.074,0.311
		c-0.42,0.709-0.323,1.465-0.221,2.265c0.036,0.275,0.071,0.549,0.086,0.821c0.023,0.421,0.207,0.525,0.363,0.569
		c0.254,0.071,0.451-0.01,0.701-0.29c0.42-0.47,0.535-1.054,0.643-1.768c0.016-0.105,0.043-0.208,0.076-0.338l0.055-0.207
		c0.025-0.106,0.108-0.19,0.215-0.218c0.105-0.026,0.219,0.004,0.294,0.084c0.594,0.625,0.55,1.381,0.243,1.852
		c-0.457,0.705-0.618,1.483-0.791,2.308c-0.043,0.213-0.088,0.425-0.137,0.637c-0.027,0.112-0.056,0.225-0.084,0.338
		c-0.082,0.316-0.158,0.615-0.177,0.91c-0.014,0.221,0.245,0.754,0.702,1.264c0.391,0.435,0.814,0.725,1.081,0.738l0.112,0.002
		c0.467,0,1.109-0.146,1.515-0.553c0.252-0.254,0.377-0.577,0.375-0.963c-0.002-0.255,0.024-0.505,0.051-0.747
		c0.048-0.446,0.093-0.867-0.041-1.274l-0.045-0.137c-0.108-0.33-0.222-0.67-0.304-1.02c-0.045-0.186-0.047-0.368-0.049-0.544
		c0-0.068-0.002-0.138-0.004-0.206c-0.01-0.148,0.094-0.281,0.239-0.311l0.181-0.037c0.146-0.031,0.291,0.051,0.343,0.19
		l0.407,1.101c0.043,0.118,0.082,0.237,0.123,0.356c0.08,0.242,0.156,0.47,0.261,0.683c0.188,0.389,0.481,0.486,0.892,0.327
		c0.826-0.317,1.551-1.649,1.34-2.457c-0.055-0.204-0.261-0.458-0.58-0.715c-0.527-0.423-0.944-0.805-1.095-1.542
		c-0.062-0.297-0.243-0.589-0.437-0.898c-0.11-0.177-0.221-0.354-0.312-0.535c-0.075-0.151-0.112-0.311-0.143-0.451
		c-0.013-0.055-0.025-0.11-0.04-0.165c-0.038-0.138,0.027-0.285,0.156-0.349l0.185-0.091c0.13-0.066,0.288-0.027,0.375,0.091
		c0.052,0.07,0.104,0.139,0.159,0.208c0.129,0.166,0.258,0.333,0.365,0.513c0.136,0.228,0.263,0.462,0.39,0.696
		c0.208,0.384,0.405,0.746,0.642,1.087c0.129,0.188,0.252,0.284,0.365,0.284c0.085-0.001,0.237-0.049,0.482-0.279
		c0.324-0.306,0.414-0.698,0.518-1.15c0.041-0.181,0.082-0.361,0.139-0.536c0.043-0.13,0.088-0.26,0.133-0.39l0.058-0.166
		c0.048-0.141,0.19-0.225,0.339-0.198l0.143,0.026c0.149,0.027,0.254,0.162,0.244,0.314c-0.002,0.044-0.002,0.088-0.002,0.132
		c-0.002,0.123-0.002,0.263-0.045,0.404c-0.089,0.296-0.184,0.591-0.279,0.886c-0.15,0.464-0.307,0.943-0.432,1.418
		c-0.078,0.296-0.099,0.639-0.059,0.969c0.053,0.433,0.494,0.508,0.801,0.342c0.838-0.457,1.396-1.171,1.616-2.065
		c0.127-0.518,0.178-1.051,0.231-1.615c0.025-0.263,0.051-0.526,0.084-0.788l0.066-0.534c0.082-0.655,0.163-1.31,0.27-1.961
		c0.034-0.208,0.146-0.38,0.244-0.532c0.035-0.055,0.071-0.11,0.102-0.166c0.063-0.12,0.201-0.185,0.334-0.15l0.244,0.059
		c0.148,0.035,0.246,0.175,0.23,0.326c-0.02,0.176-0.035,0.352-0.052,0.528c-0.038,0.41-0.076,0.834-0.162,1.251l-0.024,0.12
		c-0.084,0.399-0.156,0.743,0.037,1.029c0.098,0.145,0.295,0.274,0.383,0.276l0.164,0.002c1.828,0,2.801-0.767,3.256-2.565
		c0.052-0.2,0.021-0.49-0.08-0.794c-0.297-0.878-0.375-1.623-0.248-2.343c0.027-0.154,0.092-0.288,0.147-0.405
		c0.022-0.044,0.044-0.088,0.062-0.133c0.053-0.128,0.185-0.202,0.322-0.182l0.184,0.029c0.146,0.022,0.255,0.148,0.255,0.297
		c0,0.145-0.004,0.29-0.008,0.435c-0.009,0.321-0.017,0.625,0.017,0.923c0.044,0.401,0.118,0.923,0.297,1.399
		c0.147,0.398,0.799,0.503,1.366,0.217c0.114-0.057,0.226-0.117,0.336-0.178c0.464-0.252,0.945-0.514,1.55-0.514l0.174,0.001
		l0.156-0.001c0.129,0,0.244,0.083,0.286,0.205C245.299,32.224,245.256,32.36,245.15,32.437z"/>
</g>
<g>
	<text transform="matrix(1 0 0 1 53.814 83.8931)" fill="#FFFFFF" font-family="'WWF'" font-size="97.5502">22</text>
	<rect y="92.493" fill="none" width="126" height="50"/>
	<text transform="matrix(1 0 0 1 35.4648 103.0776)" fill="#FFFFFF" font-family="'Georgia'" font-size="14">Wildlife Crime </text>
	<text transform="matrix(1 0 0 1 30.8779 119.8774)" fill="#FFFFFF" font-family="'Georgia'" font-size="14">Control Bureau </text>
	<text transform="matrix(1 0 0 1 3.0347 136.6772)" fill="#FFFFFF" font-family="'Georgia'" font-size="14">district cells formed</text>
</g>
</svg>
