<?xml version="1.0" encoding="utf-8"?>
<!-- Generator: Adobe Illustrator 16.0.0, SVG Export Plug-In . SVG Version: 6.00 Build 0)  -->
<!DOCTYPE svg PUBLIC "-//W3C//DTD SVG 1.1//EN" "http://www.w3.org/Graphics/SVG/1.1/DTD/svg11.dtd">
<svg version="1.1" id="Layer_1" xmlns="http://www.w3.org/2000/svg" xmlns:xlink="http://www.w3.org/1999/xlink" x="0px" y="0px"
	 width="121.93px" height="120.313px" viewBox="0 0 121.93 120.313" enable-background="new 0 0 121.93 120.313"
	 xml:space="preserve">
<g>
	<path fill="#FFFFFF" d="M106.829,80.252c-0.16-3.386-2.161-5.949-4.265-8.395c-0.956-1.109-2.018-2.128-3.102-3.262
		c0.656-0.301,1.211-0.551,1.758-0.812c3.024-1.445,5.956-3.034,8.083-5.731c1.359-1.719,2.087-3.604,1.512-5.875
		c-0.391-1.558-0.543-3.174-0.851-4.752c-0.221-1.143-0.286-2.413-0.854-3.373c-0.855-1.446-1.958-2.861-3.667-3.422
		c-2.149-0.708-4.333-1.345-6.536-1.863c-1.286-0.303-2.641-0.314-4.08-0.466c0.266-0.594,0.495-1.015,0.648-1.463
		c0.855-2.521,1.938-4.996,2.475-7.587c0.653-3.159,0.077-6.097-2.854-8.175c-1.572-1.114-3.017-2.416-4.456-3.705
		c-1.251-1.119-2.683-1.613-4.331-1.574c-3.721,0.089-6.784,1.875-9.775,3.828c-0.716,0.466-1.407,0.97-2.2,1.52
		c-0.101-0.366-0.16-0.567-0.212-0.772c-0.908-3.587-1.982-7.103-4.45-9.989c-1.436-1.68-3.166-2.677-5.499-2.565
		c-2.234,0.108-4.482,0.053-6.718-0.02c-1.751-0.056-3.156,0.622-4.388,1.77c-1.813,1.687-2.917,3.83-3.745,6.113
		c-0.647,1.785-1.169,3.615-1.771,5.5c-0.389-0.273-0.745-0.522-1.101-0.77c-2.519-1.77-5.117-3.37-8.138-4.178
		c-2.826-0.757-5.347-0.451-7.557,1.666c-1.331,1.273-2.772,2.438-4.238,3.556c-1.526,1.164-2.483,2.651-2.578,4.534
		c-0.076,1.514-0.095,3.11,0.297,4.554c0.716,2.643,1.752,5.201,2.688,7.893c-0.203,0.011-0.508,0.017-0.812,0.046
		c-3.594,0.314-7.159,0.756-10.357,2.63c-2.05,1.203-3.318,2.9-3.601,5.34c-0.205,1.78-0.651,3.532-0.915,5.309
		c-0.146,0.982-0.298,2.01-0.167,2.979c0.299,2.211,1.623,3.932,3.357,5.164c2.521,1.794,5.213,3.344,7.945,5.066
		c-0.535,0.498-1.353,1.068-1.913,1.827c-1.633,2.209-3.368,4.383-4.667,6.786c-1.225,2.265-1.081,4.7,0.436,6.986
		c1.113,1.677,2.077,3.459,3.036,5.231c0.849,1.567,2.095,2.624,3.794,3.015c1.352,0.311,2.783,0.628,4.14,0.509
		c2.892-0.261,5.757-0.805,8.661-1.233c-0.007,0.169-0.039,0.515-0.036,0.859c0.015,2.667-0.187,5.357,0.112,7.994
		c0.402,3.534,2.05,6.268,5.844,7.266c1.855,0.485,3.59,1.429,5.444,1.918c1.135,0.299,2.431,0.333,3.592,0.125
		c2.093-0.375,3.79-1.641,5.2-3.171c1.772-1.924,3.39-3.992,5.102-6.03c0.507,0.718,1.041,1.509,1.612,2.275
		c1.818,2.442,3.801,4.72,6.552,6.178c1.914,1.012,3.852,1.298,5.938,0.438c1.979-0.818,4.006-1.533,6.043-2.212
		c1.691-0.566,2.968-1.634,3.608-3.23c0.628-1.566,1.182-3.24,1.326-4.906c0.218-2.554,0.057-5.139,0.057-7.799
		c0.426,0.108,0.909,0.274,1.409,0.352c2.587,0.408,5.172,1.043,7.773,1.132c3.394,0.116,6.248-1.068,7.807-4.475
		c0.779-1.709,1.98-3.224,2.758-4.933C106.515,82.766,106.885,81.45,106.829,80.252z M93.033,73.588
		c-1.959,3.39-3.877,6.71-5.845,10.111c3.342,1.938,6.591,3.82,10.089,5.848c-2.477,0.591-4.652,0.194-6.782-0.307
		c-1.913-0.452-3.785-1.091-5.658-1.695c-1.858-0.599-2.95,0.293-2.639,2.196c0.593,3.604,1.027,7.216,0.366,10.859
		c-0.063,0.344-0.163,0.684-0.258,1.02c-0.045,0.156-0.123,0.304-0.313,0.762c-1.392-3.799-2.689-7.33-4.016-10.945
		c-3.662,1.332-7.23,2.63-10.96,3.984c1.3,3.601,2.578,7.145,3.86,10.694c-0.101,0.093-0.201,0.185-0.301,0.279
		c-1.129-1.035-2.41-1.943-3.348-3.128c-1.601-2.022-3.033-4.185-4.446-6.351c-1.121-1.716-2.34-1.67-3.513,0
		c-1.911,2.719-3.965,5.339-6.022,7.949c-0.469,0.593-1.206,0.975-1.822,1.457c-0.106-0.061-0.212-0.119-0.317-0.181
		c1.262-3.488,2.522-6.979,3.839-10.634c-3.63-1.326-7.227-2.64-10.958-4.003c-1.322,3.607-2.627,7.162-3.931,10.721
		c-0.113,0.009-0.229,0.018-0.344,0.027c-0.215-1.341-0.642-2.69-0.605-4.023c0.079-2.713,0.455-5.412,0.597-8.122
		c0.041-0.756-0.097-1.675-0.512-2.267c-0.557-0.796-1.48-0.415-2.292-0.13c-3.313,1.169-6.662,2.201-10.229,2.2
		c-0.351,0-0.704-0.012-1.052-0.057c-0.21-0.024-0.413-0.119-0.873-0.261c3.411-1.981,6.645-3.857,10.021-5.819
		c-1.943-3.365-3.857-6.682-5.836-10.11c-3.347,1.929-6.602,3.801-9.856,5.674c-0.077-0.045-0.153-0.094-0.23-0.137
		c0.377-0.749,0.613-1.616,1.149-2.222c2.146-2.419,4.324-4.822,6.613-7.106c1.648-1.645,1.505-2.867-0.667-3.671
		c-3.136-1.159-6.194-2.472-8.833-4.578c-0.571-0.454-1.077-0.996-1.61-1.498c0.051-0.086,0.103-0.176,0.155-0.262
		c3.693,0.642,7.39,1.286,11.186,1.949c0.684-3.873,1.342-7.608,2.026-11.48c-3.814-0.681-7.501-1.341-11.486-2.056
		c2.219-1.394,4.437-1.793,6.659-2.067c1.783-0.223,3.59-0.263,5.386-0.307c2.49-0.061,2.991-1.094,1.899-3.373
		c-1.357-2.831-2.522-5.758-3.678-8.679c-0.311-0.785-0.286-1.701-0.154-2.703c2.442,2.893,4.884,5.787,7.398,8.763
		c3.008-2.525,5.954-4.998,8.943-7.509c-2.481-2.963-4.893-5.849-7.307-8.732c0.058-0.109,0.111-0.218,0.169-0.328
		c1.229,0.476,2.566,0.779,3.667,1.461c2.377,1.476,4.673,3.094,6.931,4.755c1.701,1.25,3,0.796,3.363-1.294
		c0.701-4.039,1.702-7.971,4.159-11.458c0.02,1.083,0.291,7.299,0.291,11.317h11.67V16.848c0.155-0.048,0.309-0.096,0.466-0.143
		c0.696,1.327,1.593,2.588,2.048,3.994c0.851,2.616,1.446,5.313,2.145,7.977c0.395,1.492,1.684,1.96,2.917,1.047
		c0.281-0.209,0.537-0.455,0.809-0.675c2.527-2.05,5.134-3.98,8.223-5.13c0.605-0.221,1.242-0.36,2.029-0.299
		c-2.399,2.869-4.799,5.739-7.278,8.706c2.994,2.517,5.933,4.988,8.944,7.519c2.489-2.958,4.909-5.837,7.328-8.716
		c0.108,0.021,0.215,0.042,0.32,0.062c-0.15,0.98-0.133,2.026-0.487,2.924c-1.104,2.803-2.25,5.597-3.574,8.301
		c-1.164,2.375-0.61,3.446,2.084,3.438c3.304-0.006,6.579,0.196,9.726,1.32c0.643,0.231,1.256,0.541,1.84,1.079
		c-3.715,0.664-7.429,1.328-11.284,2.018c0.509,2.489,1.01,4.877,1.491,7.271c0.186,0.933,0.371,1.873,0.486,2.819
		c0.141,1.19,0.949,1.246,1.815,1.082c1.546-0.29,3.064-0.728,4.615-0.983c1.609-0.265,3.243-0.388,4.864-0.574
		c0.061,0.102,0.116,0.204,0.175,0.307c-1.122,0.873-2.156,1.905-3.389,2.575c-2.228,1.209-4.557,2.233-6.873,3.268
		c-0.854,0.384-1.961,0.633-1.891,1.704c0.049,0.74,0.663,1.528,1.204,2.13c2.024,2.239,4.17,4.374,6.173,6.631
		c0.644,0.726,0.985,1.718,1.253,2.796C99.684,77.414,96.415,75.535,93.033,73.588z"/>
	<path fill="#FFFFFF" d="M41.779,109.704c-2.661,0.011-4.824,2.195-4.833,4.878c-0.009,2.716,2.102,4.864,4.788,4.875
		c2.751,0.011,4.989-2.2,4.952-4.896C46.654,111.944,44.383,109.696,41.779,109.704z"/>
	<path fill="#FFFFFF" d="M109.484,84.982c-2.646,0.045-4.801,2.269-4.784,4.935c0.02,2.694,2.163,4.803,4.872,4.797
		c2.707-0.01,4.862-2.139,4.869-4.82C114.452,87.198,112.163,84.93,109.484,84.982z"/>
	<path fill="#FFFFFF" d="M61.039,10.599c2.686-0.014,4.85-2.18,4.844-4.844c-0.008-2.632-2.238-4.881-4.856-4.898
		c-2.704-0.02-4.892,2.213-4.867,4.969C56.183,8.531,58.31,10.612,61.039,10.599z"/>
	<path fill="#FFFFFF" d="M24.919,23.785c2.711-0.003,4.856-2.104,4.886-4.793c0.034-2.669-2.282-4.981-4.937-4.93
		c-2.666,0.051-4.796,2.239-4.786,4.915C20.095,21.702,22.193,23.789,24.919,23.785z"/>
	<path fill="#FFFFFF" d="M10.594,52.097c0.002-2.619-2.246-4.838-4.886-4.822c-2.615,0.013-4.833,2.254-4.839,4.894
		c-0.007,2.684,2.126,4.816,4.836,4.833C8.487,57.018,10.59,54.908,10.594,52.097z"/>
	<path fill="#FFFFFF" d="M80.229,109.687c-2.757-0.021-4.961,2.171-4.921,4.889c0.039,2.668,2.239,4.856,4.879,4.851
		c2.684-0.009,4.805-2.157,4.806-4.875C84.994,111.796,82.947,109.702,80.229,109.687z"/>
	<path fill="#FFFFFF" d="M97.082,23.749c2.706-0.024,4.774-2.139,4.772-4.88c-0.005-2.732-2.082-4.84-4.784-4.856
		c-2.749-0.014-4.885,2.157-4.853,4.934C92.248,21.656,94.391,23.77,97.082,23.749z"/>
	<path fill="#FFFFFF" d="M12.522,85.13c-2.771-0.047-4.977,2.064-5.015,4.795c-0.038,2.63,2.163,4.843,4.838,4.873
		c2.712,0.031,4.858-2.059,4.891-4.763C17.267,87.274,15.254,85.177,12.522,85.13z"/>
	<path fill="#FFFFFF" d="M116.564,47.231c-2.787-0.182-4.752,1.847-4.945,5.105c-0.145,2.45,1.761,4.492,4.31,4.624
		c2.647,0.137,4.97-1.862,5.122-4.412C121.221,49.707,119.277,47.406,116.564,47.231z"/>
	<path fill="#FFFFFF" d="M87.238,52.388c0-0.832-0.269-2.165-1.229-3.219c-0.962-1.054-0.855,0.112-0.962,2.165
		c-0.108,2.053-1.284,2.22-1.284,2.22s-1.075-0.399-2.675-1.541c-1.6-1.142-1.693-3.192-1.223-3.289
		c0.47-0.099,1.192-0.783,1.285-1.433c0.093-0.652,0.847-1.499,0.565-1.727c-0.283-0.229-1.318,0.684-1.89,1.204
		c-0.575,0.522-1.652,1.173-1.652,1.173s0.345-1.269,0.029-1.759c-0.312-0.488-1.599-1.498-1.599-1.498s-0.313,0.554-0.659,1.303
		c-0.345,0.748-0.063,1.399-0.063,1.399s-2.037-1.27-2.759-1.596c-0.721-0.326-1.944-0.553-3.668-1.237
		c-1.725-0.685-4.326-0.685-6.46-0.783c-2.132-0.097-2.602,0.879-2.602,0.879s-1.664,0.262-3.7,0.457
		c-2.038,0.195-7.025-0.229-10.567-0.62c-3.544-0.39-4.672,0.913-5.112,1.335c-0.438,0.424-3.512,2.541-3.856,3.388
		c-0.344,0.846-1.598,2.509-1.913,2.833c-0.313,0.327-0.063,1.239-0.063,1.239s-0.313,0.65-0.626,2.083
		c-0.313,1.434,0.188,4.202,0.752,5.31c0.564,1.106,0.47,1.694,0.846,3.615c0.377,1.922,1.946,2.605,2.224,2.834
		c0.278,0.227,0.066,0.684,0.004,1.726c-0.064,1.041,0.626,2.021,1.191,2.704c0.564,0.684,0.502,1.204,0.282,2.019
		c-0.219,0.814,0.534,1.367,1.412,1.205c0.879-0.162,1.629,0.131,2.382,0.262c0.753,0.128,1.064-0.913,0.783-1.467
		c-0.282-0.553-2.194-2.41-2.194-2.41v-3.192c0,0,0.501,0.326,1.191,0.62c0.689,0.294,0.689,0.651,0.815,1.693
		c0.125,1.041,1.254,1.789,2.007,2.278c0.753,0.488,0.72,1.434,0.94,2.541c0.218,1.108,1.256,0.945,1.788,1.01
		c0.534,0.066,1.849,0.488,2.103,0.423c0.25-0.063,1.097-0.554,1.408-0.846c0.314-0.293-0.939-1.074-1.629-1.303
		c-0.688-0.227-0.657-0.589-1.16-1.173c-0.502-0.587-0.627-1.79-0.627-2.604c0-0.816-0.406-1.957-0.406-1.957l1.127-2.246
		c0,0,1.255,0.912,4.141,1.14c2.882,0.228,4.732-1.856,5.14-1.563c0.408,0.295-0.282,0.978-0.386,1.76
		c-0.107,0.781,0.386,0.976,0.419,1.986c0.031,1.01-0.501,1.563-0.408,2.671c0.093,1.105,0.94,1.206,1.473,1.303
		c0.532,0.095,2.574,0.227,2.792-0.197c0.219-0.422-0.125-1.105-0.783-1.595c-0.659-0.487-0.878-0.749-0.912-1.758
		c-0.029-1.01,0.942-2.313,1.319-2.866c0.376-0.555,1.036-1.824,1.036-1.824l0.345,0.618c0,0,0.092,5.243,0.281,6.026
		c0.187,0.782-0.063,1.173,0,1.953c0.062,0.783,1.599,0.457,2.132,0.652s1.255,0.195,1.379,0c0.125-0.195,1.128-0.26,1.128-0.26
		s-0.72-1.466-1.19-1.761c-0.47-0.292-0.972-1.105-1.035-2.245c-0.063-1.141,1.005-3.454,1.662-4.659
		c0.66-1.204,0.471-2.378,0.471-2.378s1.944-1.075,2.664-1.792c0.722-0.717,1.319-1.205,1.319-1.205s0.313,0.814,0.94,0.554
		c0.627-0.26,0.752-1.597,0.877-2.215c0.125-0.62,0.784-0.064,1.568,0.422c0.783,0.49,2.508,0.066,2.508,0.066
		s0.845,0.358,1.191,0.521c0.345,0.163,1.757,0.36,2.132,0.256c0.377-0.104,0.879-0.126,1.129-0.026
		c0.252,0.097,1.536-0.1,2.041-0.229c0.499-0.131,0.437-0.521,0.655-0.521c0.22,0,0.408,0.521,0.408,0.521s0.578-0.215,1.007-0.493
		c0.427-0.278,0.159-2.22,0-2.831C87.076,55.83,87.238,53.222,87.238,52.388z"/>
</g>
</svg>
