<?xml version="1.0" encoding="utf-8"?>
<!-- Generator: Adobe Illustrator 17.0.0, SVG Export Plug-In . SVG Version: 6.00 Build 0)  -->
<!DOCTYPE svg PUBLIC "-//W3C//DTD SVG 1.1//EN" "http://www.w3.org/Graphics/SVG/1.1/DTD/svg11.dtd">
<svg version="1.1" id="Layer_1" xmlns="http://www.w3.org/2000/svg" xmlns:xlink="http://www.w3.org/1999/xlink" x="0px" y="0px"
	 width="70.721px" height="72px" viewBox="0 0 70.721 72" enable-background="new 0 0 70.721 72" xml:space="preserve">
<path fill="#FFFFFF" d="M35.007,4.829H34.98h-0.029c-0.104,0-0.186,0.045-0.266,0.088c-0.019,0.011-0.038,0.021-0.058,0.03
	c-0.097,0.049-0.208,0.031-0.234-0.037c-0.03-0.081-0.043-0.17-0.051-0.239c-0.005-0.051-0.004-0.103-0.002-0.158
	c0-0.025,0.001-0.049,0.001-0.074c0-0.025-0.018-0.047-0.043-0.051l-0.032-0.005c-0.023-0.004-0.046,0.009-0.055,0.032
	c-0.003,0.007-0.007,0.014-0.011,0.022c-0.009,0.021-0.02,0.043-0.025,0.069c-0.022,0.124-0.008,0.251,0.042,0.401
	c0.018,0.052,0.023,0.102,0.014,0.136c-0.078,0.308-0.245,0.439-0.558,0.439l-0.028-0.001c-0.015,0-0.049-0.022-0.066-0.047
	c-0.033-0.049-0.021-0.108-0.006-0.176l0.004-0.02c0.014-0.071,0.021-0.144,0.027-0.214c0.003-0.03,0.006-0.06,0.01-0.09
	c0.002-0.026-0.014-0.05-0.04-0.056l-0.042-0.01c-0.023-0.006-0.046,0.005-0.057,0.025c-0.006,0.01-0.012,0.019-0.018,0.029
	c-0.017,0.026-0.036,0.055-0.042,0.091c-0.018,0.111-0.032,0.224-0.046,0.336L33.358,5.44c-0.006,0.045-0.01,0.09-0.014,0.135
	c-0.009,0.097-0.019,0.188-0.04,0.276c-0.038,0.153-0.133,0.275-0.277,0.354c-0.053,0.028-0.129,0.015-0.138-0.059
	c-0.007-0.056-0.003-0.115,0.01-0.166c0.022-0.081,0.049-0.163,0.074-0.242c0.017-0.051,0.034-0.101,0.048-0.152
	c0.008-0.024,0.008-0.048,0.008-0.069c0-0.007,0-0.015,0-0.023c0.002-0.026-0.016-0.049-0.042-0.053l-0.024-0.005
	c-0.026-0.004-0.05,0.01-0.058,0.034l-0.01,0.029c-0.008,0.022-0.016,0.045-0.023,0.067c-0.01,0.03-0.017,0.061-0.024,0.092
	c-0.018,0.077-0.033,0.144-0.089,0.196c-0.042,0.04-0.068,0.048-0.083,0.048c-0.019,0-0.04-0.016-0.062-0.048
	c-0.041-0.059-0.074-0.12-0.11-0.186c-0.022-0.04-0.044-0.08-0.067-0.119c-0.018-0.031-0.04-0.06-0.063-0.088
	c-0.009-0.011-0.018-0.023-0.027-0.035c-0.015-0.021-0.042-0.027-0.064-0.016l-0.032,0.016c-0.022,0.01-0.034,0.036-0.027,0.059
	c0.003,0.01,0.005,0.019,0.007,0.028c0.006,0.024,0.011,0.052,0.025,0.077c0.015,0.031,0.034,0.062,0.053,0.092
	c0.034,0.053,0.065,0.102,0.075,0.153c0.026,0.126,0.097,0.192,0.188,0.264c0.055,0.045,0.09,0.088,0.099,0.123
	c0.036,0.138-0.088,0.366-0.229,0.42c-0.071,0.027-0.121,0.011-0.153-0.056c-0.018-0.036-0.031-0.075-0.045-0.117
	c-0.007-0.02-0.014-0.041-0.021-0.061l-0.07-0.188c-0.009-0.024-0.034-0.038-0.059-0.032l-0.03,0.006
	c-0.026,0.005-0.043,0.028-0.041,0.053c0,0.012,0,0.023,0.001,0.035c0,0.03,0,0.061,0.008,0.093c0.013,0.06,0.033,0.118,0.052,0.174
	l0.007,0.024c0.023,0.069,0.016,0.142,0.007,0.218c-0.004,0.041-0.009,0.084-0.008,0.128c0,0.066-0.022,0.121-0.065,0.164
	c-0.069,0.07-0.179,0.095-0.26,0.095l-0.019-0.001c-0.046-0.002-0.119-0.051-0.185-0.126c-0.078-0.087-0.123-0.178-0.12-0.216
	c0.003-0.051,0.016-0.102,0.03-0.156c0.005-0.019,0.01-0.039,0.014-0.058c0.009-0.036,0.016-0.073,0.024-0.109
	c0.029-0.141,0.057-0.274,0.136-0.394c0.052-0.081,0.06-0.21-0.043-0.317c-0.012-0.014-0.032-0.019-0.05-0.015
	c-0.018,0.005-0.033,0.02-0.037,0.038l-0.009,0.035c-0.006,0.023-0.011,0.04-0.013,0.058c-0.018,0.122-0.038,0.222-0.11,0.302
	c-0.044,0.048-0.077,0.062-0.121,0.05c-0.026-0.008-0.058-0.026-0.062-0.097c-0.003-0.047-0.009-0.094-0.015-0.141
	c-0.018-0.137-0.034-0.266,0.038-0.387c0.011-0.019,0.012-0.039,0.013-0.053c0-0.004,0-0.007,0-0.011
	c0.006-0.026,0.011-0.053,0.017-0.08c0.034-0.174,0.067-0.337,0.202-0.459c0.052-0.046,0.099-0.066,0.164-0.069
	c0.066-0.003,0.133-0.012,0.198-0.021c0.027-0.004,0.054-0.008,0.082-0.011c0.023-0.003,0.042-0.022,0.045-0.045l0.002-0.02
	c0.004-0.025-0.011-0.048-0.034-0.056l-0.036-0.012c-0.028-0.009-0.056-0.019-0.085-0.027c-0.092-0.026-0.1-0.067-0.084-0.13
	c0.045-0.167,0.147-0.281,0.297-0.328c0.076-0.024,0.155-0.047,0.229-0.047c0.094,0,0.166,0.036,0.227,0.111
	c0.008,0.012,0.019,0.021,0.03,0.031c0.005,0.006,0.012,0.011,0.017,0.017c0.058,0.067,0.146,0.074,0.203,0.016
	c0.009-0.009,0.019-0.024,0.018-0.049c0-0.036-0.025-0.099-0.057-0.129c-0.055-0.052-0.081-0.091-0.079-0.119
	c0.001-0.026,0.03-0.06,0.085-0.105l0.013-0.009c0.017-0.012,0.036-0.026,0.051-0.045c0.024-0.028,0.046-0.058,0.069-0.088
	l0.026-0.036c0.01-0.013,0.013-0.03,0.008-0.046c-0.005-0.016-0.017-0.028-0.032-0.033c-0.041-0.015-0.072-0.015-0.104-0.001
	c-0.144,0.06-0.288,0.121-0.433,0.183c-0.029,0.013-0.055,0.019-0.077,0.019c-0.02,0.001-0.064,0-0.066-0.102
	c-0.001-0.052,0.009-0.106,0.02-0.162c0.005-0.028,0.011-0.056,0.015-0.084c0.003-0.023,0.006-0.046,0.008-0.069l0.004-0.031
	c0.003-0.025-0.012-0.048-0.035-0.056l-0.039-0.012c-0.023-0.008-0.049,0.002-0.061,0.024c-0.008,0.014-0.017,0.029-0.026,0.043
	c-0.021,0.035-0.043,0.072-0.058,0.113C31.945,3.7,31.934,3.745,31.923,3.79c-0.017,0.069-0.033,0.134-0.062,0.19
	c-0.042,0.082-0.095,0.16-0.146,0.237c-0.045,0.067-0.092,0.138-0.132,0.211c-0.068,0.123-0.178,0.198-0.295,0.278l-0.052,0.036
	c-0.003,0.002-0.031,0.007-0.055,0.004c-0.118-0.019-0.184-0.089-0.215-0.229c-0.008-0.032-0.02-0.061-0.035-0.095
	c-0.007-0.016-0.014-0.033-0.022-0.053c-0.008-0.019-0.027-0.032-0.047-0.033c-0.02,0.001-0.04,0.012-0.048,0.031
	c-0.101,0.226-0.017,0.376,0.079,0.494c0.166,0.204,0.208,0.38,0.133,0.571c-0.033,0.083-0.075,0.096-0.129,0.038
	c-0.044-0.046-0.081-0.099-0.12-0.155c-0.02-0.027-0.039-0.054-0.058-0.08c-0.008-0.01-0.015-0.02-0.022-0.031
	c-0.031-0.047-0.073-0.112-0.167-0.124c-0.015-0.002-0.029,0.002-0.04,0.011c-0.011,0.009-0.017,0.022-0.019,0.036
	c-0.009,0.141,0.065,0.236,0.126,0.313c0.085,0.108,0.122,0.187,0.074,0.295c-0.007,0.017-0.028,0.056-0.057,0.056
	c-0.011,0-0.024-0.006-0.039-0.016c-0.016-0.011-0.031-0.029-0.046-0.048c-0.012-0.013-0.023-0.027-0.036-0.04
	c-0.02-0.02-0.042-0.039-0.066-0.06l-0.032-0.028c-0.014-0.012-0.032-0.016-0.049-0.011c-0.017,0.005-0.031,0.018-0.035,0.036
	c-0.029,0.107,0.007,0.191,0.108,0.25l0.029,0.017c0.121,0.07,0.246,0.143,0.361,0.224c0.112,0.08,0.175,0.168,0.199,0.28
	C31.029,6.496,31.026,6.596,31,6.709c-0.015,0.068-0.053,0.149-0.14,0.149c-0.031,0-0.066-0.011-0.104-0.03
	c-0.06-0.032-0.119-0.067-0.179-0.102c-0.033-0.02-0.067-0.04-0.101-0.059c-0.021-0.012-0.042-0.022-0.064-0.033l-0.027-0.013
	c-0.015-0.008-0.034-0.008-0.05,0.002c-0.015,0.009-0.024,0.025-0.025,0.043c0,0.043,0.009,0.078,0.031,0.112
	c0.096,0.151,0.245,0.227,0.363,0.276c0.122,0.05,0.247,0.092,0.363,0.13c0.048,0.016,0.083,0.052,0.096,0.1
	c0.011,0.044,0.002,0.091-0.024,0.119c-0.038,0.041-0.093,0.038-0.163,0.026c-0.016-0.003-0.031-0.006-0.046-0.008
	c-0.051-0.007-0.102-0.014-0.154-0.021c-0.132-0.019-0.268-0.038-0.412-0.047c-0.05,0-0.094,0.032-0.133,0.059
	c-0.015,0.011-0.029,0.022-0.044,0.03c-0.013,0.007-0.022,0.02-0.025,0.034c-0.004,0.014,0,0.03,0.009,0.042l0.025,0.035
	c0.025,0.033,0.049,0.066,0.075,0.097c0.02,0.025,0.052,0.033,0.072,0.038c0.042,0.01,0.083,0.019,0.125,0.029
	c0.058,0.013,0.116,0.026,0.174,0.041c0.033,0.009,0.056,0.023,0.065,0.041c0.008,0.016,0.007,0.036-0.003,0.06
	c-0.025,0.06-0.066,0.118-0.11,0.153c-0.204,0.162-0.331,0.327-0.4,0.518c-0.079,0.215-0.142,0.439-0.205,0.662
	c-0.082,0.291-0.134,0.568-0.158,0.847c-0.025,0.295-0.068,0.587-0.107,0.833c-0.028,0.175-0.101,0.29-0.222,0.353
	c-0.185,0.095-0.33,0.135-0.481,0.128c-0.095-0.004-0.19-0.002-0.284-0.001l-0.115,0.001c-0.289,0-0.575-0.058-0.82-0.112
	c-0.168-0.037-0.305-0.064-0.433-0.083c-0.074-0.012-0.148-0.019-0.223-0.027c-0.071-0.007-0.142-0.015-0.213-0.025
	c-0.236-0.037-0.474-0.051-0.711-0.044c-0.321,0.01-0.624,0.102-0.925,0.282c-0.156,0.093-0.328,0.178-0.528,0.161
	c-0.094-0.009-0.153-0.046-0.187-0.12c-0.068-0.148-0.132-0.287-0.112-0.45c0.01-0.083,0.008-0.167,0.005-0.248
	c-0.001-0.042-0.002-0.082-0.001-0.124c0.001-0.11-0.042-0.196-0.125-0.247c-0.09-0.055-0.186-0.103-0.284-0.151
	c-0.042-0.021-0.075-0.03-0.105-0.03c-0.1,0-0.126,0.105-0.136,0.145c-0.008,0.03-0.017,0.059-0.025,0.089
	c-0.017,0.056-0.034,0.114-0.044,0.174c-0.004,0.03-0.01,0.06-0.016,0.091c-0.021,0.109-0.042,0.222-0.026,0.332
	c0.037,0.248,0.12,0.499,0.246,0.745c0.016,0.033,0.052,0.091,0.105,0.118c0.088,0.044,0.143,0.105,0.169,0.188
	c0.036,0.12,0.064,0.236,0.005,0.326c-0.136,0.207-0.151,0.436-0.165,0.658l-0.002,0.028c-0.008,0.117-0.003,0.235,0.002,0.349
	c0.002,0.053,0.004,0.105,0.005,0.157c0.001,0.017,0,0.034,0,0.051c-0.001,0.033-0.002,0.066,0.002,0.099
	c0.011,0.112,0.024,0.225,0.036,0.338l0.021,0.187c0.005,0.049,0.01,0.098,0.015,0.146c0.009,0.097,0.019,0.194,0.031,0.291
	c0.009,0.067,0.025,0.139,0.049,0.228c0.074,0.267,0.037,0.455-0.124,0.611c-0.091,0.089-0.132,0.188-0.121,0.296
	c0.016,0.156,0.035,0.313,0.054,0.468c0.031,0.247,0.062,0.495,0.096,0.741c0.007,0.045,0.011,0.09,0.017,0.136
	c0.015,0.132,0.031,0.27,0.073,0.404c0.049,0.154,0.086,0.276,0.001,0.407c-0.023,0.034-0.026,0.074-0.008,0.105
	c0.018,0.034,0.056,0.053,0.106,0.053h0.052l0.19,0.001c0.05,0,0.1-0.001,0.151-0.002c0.001,0,0.115-0.005,0.14-0.071
	c0.017-0.047,0-0.111-0.025-0.153c-0.023-0.038-0.049-0.075-0.075-0.112c-0.036-0.05-0.07-0.098-0.095-0.149
	c-0.169-0.355-0.253-0.761-0.256-1.241c0-0.032-0.004-0.063-0.007-0.095c-0.002-0.026-0.006-0.053-0.006-0.079l-0.001-0.039
	c-0.002-0.048-0.004-0.093,0.008-0.13c0.049-0.16,0.141-0.302,0.274-0.423c0.094-0.086,0.2-0.183,0.261-0.323
	c0.056-0.127,0.131-0.251,0.196-0.357c0.006-0.009,0.026-0.021,0.043-0.026c0.007,0.012,0.015,0.033,0.019,0.049
	c0.003,0.021,0,0.047-0.005,0.075l-0.004,0.031c-0.004,0.032-0.009,0.063-0.014,0.095c-0.011,0.069-0.024,0.14-0.02,0.212
	c0.011,0.209-0.045,0.4-0.103,0.603l-0.021,0.071c-0.034,0.119-0.012,0.246,0.003,0.311c0.028,0.116,0.061,0.232,0.094,0.344
	c0.038,0.13,0.078,0.265,0.107,0.398l0.008,0.037c0.043,0.195,0.086,0.397,0.215,0.57c0.037,0.05,0.039,0.097,0.006,0.158
	c-0.013,0.024-0.024,0.051-0.035,0.082c-0.006,0.014-0.011,0.029-0.018,0.045c-0.006,0.016-0.005,0.034,0.005,0.048
	c0.01,0.014,0.026,0.023,0.043,0.023h0.502c0.025,0,0.045-0.018,0.05-0.042c0.02-0.108-0.039-0.172-0.083-0.218
	c-0.013-0.015-0.026-0.029-0.037-0.044c-0.314-0.452-0.467-0.944-0.453-1.465c0.001-0.05,0.01-0.091,0.025-0.117l0.057-0.101
	c0.096-0.168,0.194-0.342,0.304-0.502c0.219-0.321,0.443-0.667,0.575-1.059c0.091-0.271,0.206-0.465,0.361-0.608
	c0.106-0.098,0.243-0.143,0.407-0.136c0.08,0.003,0.161,0.022,0.245,0.043c0.113,0.029,0.226,0.059,0.339,0.09
	c0.185,0.05,0.376,0.101,0.566,0.145c0.218,0.05,0.477,0.105,0.742,0.133c0.174,0.018,0.266,0.119,0.267,0.292
	c0,0.082-0.011,0.167-0.021,0.25l-0.009,0.075c-0.022,0.195,0.03,0.376,0.08,0.55l0.035,0.123c0.06,0.214,0.118,0.417,0.093,0.634
	c-0.004,0.034,0.001,0.068,0.008,0.097c0.032,0.153,0.066,0.307,0.1,0.46l0.021,0.096c0.023,0.102,0.045,0.208,0.077,0.31
	c0.034,0.109,0.034,0.217-0.001,0.33c-0.018,0.062-0.031,0.132,0.064,0.186c0.024,0.014,0.039,0.03,0.041,0.045
	c0.002,0.015-0.013,0.032-0.022,0.04c-0.093,0.087-0.089,0.189-0.085,0.279c0.001,0.016,0.002,0.032,0.002,0.048
	c0,0.049,0.061,0.113,0.111,0.114c0.046,0.002,0.093,0.003,0.139,0.003c0.048,0,0.096-0.001,0.144-0.002l0.102-0.001
	c0.036,0,0.062-0.01,0.08-0.031c0.024-0.029,0.023-0.065,0.019-0.09c-0.027-0.184-0.101-0.351-0.172-0.511
	c-0.037-0.081-0.075-0.165-0.104-0.249c-0.025-0.07-0.049-0.145-0.057-0.22c-0.01-0.101-0.013-0.207-0.016-0.308l-0.003-0.101
	c-0.003-0.081-0.005-0.161-0.004-0.242c0-0.076,0.001-0.153,0.002-0.229c0.002-0.13,0.003-0.26,0.002-0.389
	c-0.002-0.078-0.01-0.154-0.019-0.228c-0.013-0.116-0.026-0.226-0.01-0.34l0.002-0.019c0.018-0.132,0.034-0.257,0.117-0.357
	c0.023-0.028,0.05-0.045,0.054-0.046c0.006,0.002,0.02,0.012,0.053,0.06c0.006,0.008,0.009,0.031,0.011,0.049l0.001,0.013
	c0.005,0.036,0.008,0.072,0.01,0.109c0.006,0.075,0.012,0.152,0.032,0.227c0.047,0.18,0.05,0.359,0.053,0.55l0.001,0.084
	c0.002,0.091,0.02,0.181,0.039,0.267c0.006,0.033,0.013,0.066,0.019,0.099c0.006,0.032,0.013,0.064,0.02,0.097
	c0.008,0.038,0.017,0.076,0.023,0.115c0.008,0.054,0.014,0.107,0.021,0.161c0.012,0.107,0.025,0.218,0.054,0.325
	c0.044,0.158,0.06,0.281,0.006,0.409c-0.019,0.046-0.029,0.1-0.028,0.164c0.001,0.04,0.025,0.089,0.058,0.118
	c0.057,0.049,0.061,0.069,0.033,0.142c-0.022,0.054-0.031,0.11-0.043,0.174c-0.01,0.06,0.007,0.099,0.024,0.122
	c0.017,0.023,0.051,0.053,0.114,0.062c0.037,0.005,0.087,0.012,0.135,0.007c0.037-0.004,0.075-0.01,0.112-0.016
	c0.047-0.007,0.091-0.014,0.135-0.018c0.02-0.001,0.082-0.005,0.109-0.053c0.017-0.032,0.014-0.07-0.01-0.115
	c-0.018-0.035-0.039-0.068-0.059-0.1c-0.027-0.045-0.053-0.085-0.073-0.13c-0.01-0.021-0.021-0.044-0.031-0.065
	c-0.044-0.092-0.089-0.187-0.104-0.28c-0.019-0.12-0.022-0.245-0.025-0.367c-0.002-0.063-0.003-0.125-0.007-0.188
	c-0.005-0.087-0.011-0.174-0.018-0.262c-0.01-0.147-0.021-0.3-0.025-0.451c-0.012-0.419-0.017-0.762-0.013-1.078
	c0.002-0.224,0.024-0.442,0.044-0.626c0.021-0.188,0.128-0.336,0.336-0.469c0.228-0.145,0.378-0.359,0.46-0.655
	c0.01-0.036,0.007-0.074,0.004-0.099c-0.038-0.25-0.014-0.433,0.077-0.593c0.02-0.036,0.031-0.071,0.031-0.102
	c-0.001-0.034,0-0.068,0-0.103c0.001-0.1,0.003-0.202-0.015-0.303c-0.055-0.308-0.115-0.637-0.2-0.964
	c-0.053-0.204-0.117-0.409-0.178-0.606c-0.05-0.161-0.101-0.327-0.147-0.492c-0.036-0.13-0.046-0.272-0.054-0.405
	c-0.005-0.087,0.079-0.161,0.161-0.174c0.131-0.022,0.268-0.008,0.417,0.042c0.233,0.079,0.468,0.17,0.676,0.25
	c0.025,0.009,0.048,0.014,0.07,0.014c0.075,0,0.116-0.057,0.129-0.076c0.009-0.012,0.017-0.024,0.026-0.037
	c0.021-0.033,0.042-0.065,0.068-0.083c0.142-0.1,0.106-0.202,0.046-0.297l-0.059-0.092c-0.054-0.084-0.109-0.171-0.159-0.259
	c-0.118-0.205-0.205-0.433-0.266-0.697c-0.016-0.067-0.008-0.123,0.02-0.16c0.031-0.039,0.081-0.047,0.117-0.047
	c0.015,0,0.031,0.001,0.048,0.004c0.01,0.001,0.02,0.004,0.03,0.006c0.023,0.004,0.049,0.01,0.075,0.01c0.001,0,0.01,0,0.011,0
	l0.023-0.002c0.07-0.004,0.141-0.008,0.211-0.028c0.055-0.016,0.092-0.053,0.098-0.099c0.007-0.046-0.019-0.092-0.067-0.124
	C32.7,7.668,32.632,7.644,32.56,7.635c-0.064-0.009-0.128-0.013-0.192-0.018c-0.075-0.005-0.152-0.011-0.226-0.023
	c-0.066-0.011-0.11-0.058-0.125-0.101c-0.007-0.018-0.014-0.051,0.01-0.078c0.114-0.126,0.246-0.194,0.395-0.202
	c0.045-0.003,0.089-0.005,0.134-0.005c0.138,0,0.242,0.019,0.338,0.062c0.018,0.008,0.039,0.005,0.054-0.008
	s0.021-0.034,0.016-0.053c-0.01-0.036-0.024-0.067-0.045-0.096c-0.014-0.019-0.028-0.037-0.041-0.055
	c-0.019-0.023-0.038-0.048-0.055-0.073c-0.033-0.052-0.042-0.106-0.026-0.15c0.015-0.041,0.05-0.071,0.102-0.088
	c0.111-0.036,0.237-0.062,0.376-0.076c0.065-0.006,0.151-0.006,0.237-0.004c0.037,0.001,0.073,0.001,0.109,0.001h0.024
	c0.048,0,0.135-0.001,0.164-0.088c0.005-0.014,0.004-0.028-0.003-0.04c-0.006-0.012-0.017-0.022-0.031-0.026
	c-0.045-0.013-0.091-0.026-0.136-0.038c-0.106-0.03-0.206-0.058-0.306-0.093c-0.03-0.011-0.048-0.025-0.055-0.041
	c-0.01-0.025,0.003-0.059,0.016-0.083c0.072-0.141,0.194-0.233,0.323-0.331l0.011-0.008c0.184-0.139,0.367-0.286,0.544-0.427
	c0.101-0.082,0.203-0.163,0.306-0.244l0.026-0.021c0.146-0.115,0.284-0.225,0.463-0.264c0.02-0.004,0.034-0.015,0.047-0.027
	c0.006-0.004,0.012-0.009,0.02-0.015c0.018-0.013,0.026-0.036,0.019-0.057C35.049,4.843,35.029,4.829,35.007,4.829"/>
<path fill="#FFFFFF" d="M41.06,20.631h-23.53v-2.018h23.53V20.631z M38.161,24.452c-0.766,0-1.365-0.603-1.365-1.363
	s0.603-1.363,1.365-1.363c0.762-0.005,1.366,0.598,1.366,1.363C39.526,23.855,38.922,24.452,38.161,24.452 M34.326,24.452
	c-0.767,0-1.366-0.603-1.366-1.363s0.604-1.363,1.366-1.363c0.767,0,1.366,0.603,1.366,1.363S35.094,24.452,34.326,24.452
	 M24.263,24.452c-0.766,0-1.365-0.603-1.365-1.363s0.603-1.363,1.365-1.363c0.762-0.005,1.366,0.598,1.366,1.363
	C25.628,23.855,25.024,24.452,24.263,24.452 M20.428,24.51c-0.766,0-1.365-0.655-1.365-1.421c0-0.765,0.604-1.362,1.365-1.362
	c0.767,0,1.366,0.655,1.366,1.42C21.799,23.907,21.195,24.51,20.428,24.51 M19.01,1.09h1.97v16.428h-1.97V1.09z M22.073,1.09h2.022
	v16.428h-2.022V1.09z M25.193,1.09h1.97v16.428h-1.97V1.09z M28.255,1.09h2.022v16.428h-2.022V1.09z M31.375,1.09h1.97v16.428h-1.97
	V1.09z M34.436,1.09h2.022v16.428h-2.022V1.09z M37.557,1.09h2.022v16.428h-2.022V1.09z M42.174,17.518h-0.021h-1.476V0H17.914
	v17.518h-1.476v4.203h1.98c-0.284,0.399-0.446,0.891-0.446,1.421c0,1.362,1.092,2.457,2.463,2.457c0.777,0,1.465-0.351,1.917-0.906
	c0.451,0.556,1.14,0.906,1.917,0.906c1.365,0,2.463-1.09,2.463-2.457c0-0.53-0.168-1.022-0.446-1.421h6.04
	c-0.284,0.399-0.446,0.891-0.446,1.421c0,1.362,1.092,2.457,2.463,2.457c0.777,0,1.465-0.351,1.917-0.906
	c0.451,0.556,1.14,0.906,1.917,0.906c1.366,0,2.463-1.09,2.463-2.457c0-0.53-0.168-1.022-0.446-1.421h1.98V17.518z"/>
<path fill="#FFFFFF" d="M56.569,23.768c-0.5,2.237-2.499,3.912-4.892,3.912c-2.768,0-5.014-2.24-5.014-5.004
	c0-0.134,0.01-0.266,0.02-0.396h4.995C51.676,22.28,53.866,23.41,56.569,23.768"/>
<path fill="#FFFFFF" d="M57.31,22.83c-2.94-0.388-5.323-1.62-5.323-1.62h-5.436h-0.292c0-3.157,2.564-5.716,5.727-5.716
	c3.164,0,5.729,2.559,5.729,5.716c0,0.571-0.087,1.122-0.243,1.643C57.418,22.845,57.364,22.837,57.31,22.83"/>
<path fill="#FFFFFF" d="M8.527,28.485c-3.079-0.002-5.484-2.431-5.542-5.499c-0.058-3.052,2.828-5.526,5.572-5.545
	c2.838-0.019,5.616,2.735,5.509,5.537C13.959,25.786,11.949,28.519,8.527,28.485"/>
<path fill="#FFFFFF" d="M3.897,34.637c-0.411,0.242-0.8,0.657-1.012,1.341c-0.299,0.963-0.224,1.843-0.013,2.412l0.35-0.067
	c-0.068-0.446-0.138-1.301,0.131-2.167c0.394-1.271,1.548-1.344,1.548-1.344c0.929,0.149,1.861,0.279,2.797,0.359
	c0.866,0.074,1.718,0.035,2.523-0.186c0.098,0.209,0.204,0.416,0.316,0.62c0.25,0.454,0.241,0.782-0.011,1.197
	c-0.732,1.208-1.817,1.912-3.056,2.333c-0.579-0.002-1.156-0.035-1.733-0.128c-0.561-0.09-1.478-0.188-2.405-0.358l0.275,1.436
	l-0.434,0.084l-0.314-1.631c-1.228-0.277-2.332-0.712-2.472-1.461c-0.468-2.51,1.63-2.761,2.654-2.586
	C3.327,34.539,3.612,34.588,3.897,34.637"/>
<path fill="#FFFFFF" d="M6.853,39.521c0.286-0.068,0.567-0.147,0.84-0.24c1.238-0.42,2.323-1.124,3.055-2.332
	c0.251-0.415,0.261-0.742,0.011-1.197c-0.113-0.205-0.218-0.412-0.316-0.62c-0.521-1.112-0.806-2.283-0.546-3.569
	c0.33-1.635,1.647-3.156,3.189-3.734c0.878,1.134,4.011,5.477,2.734,8.208l0.401,0.187c0.673-1.44,0.365-3.392-0.918-5.801
	c-0.638-1.198-1.354-2.195-1.764-2.732c0.065-0.016,0.129-0.034,0.193-0.046c1.499-0.285,3.39,0.64,4.253,2.161
	c2.033,3.585,3.749,7.303,4.27,11.442c0.172,1.367,0.196,2.687,0.03,3.943l-9.937,0.095c0.027-1.245,0.001-2.487,0.001-3.678
	c-2.14,0.752-4.028,1.828-6.16,2.167c-0.348,0.055-0.823,0.148-1.355,0.24l-1.273-3.884C4.666,39.963,5.768,39.776,6.853,39.521"/>
<path fill="#FFFFFF" d="M18.473,56.739c0.022-1.241,0.083-2.481,0.168-3.719c0.016-0.235,0.179-0.519,0.363-0.673
	c1.396-1.158,2.354-2.469,2.965-3.899c0.627,1.796,0.688,3.714-0.05,5.792c-0.067,0.19-0.062,0.465,0.027,0.64
	c0.471,0.93,0.96,1.85,1.477,2.755c1.611,2.814,3.276,5.594,5.309,8.136c0.33,0.412,0.695,0.834,0.88,1.314
	c0.448,1.163-0.022,2.261-1.129,2.875c-0.978,0.542-2.6,0.283-3.235-0.592c-1.412-1.949-2.856-3.88-4.15-5.906
	c-0.915-1.431-1.79-2.888-2.652-4.354C18.451,58.319,18.459,57.529,18.473,56.739"/>
<path fill="#FFFFFF" d="M12.339,45.729L12.339,45.729l9.88-0.095c-0.14,0.822-0.368,1.614-0.693,2.373
	c-0.61,1.429-1.569,2.74-2.964,3.899c-0.185,0.153-0.347,0.438-0.363,0.672c-0.085,1.238-0.147,2.479-0.168,3.72
	c-0.014,0.79-0.023,1.58-0.027,2.369c-0.014,3.071,0.075,6.138,0.498,9.191c0.086,0.622,0.203,1.276,0.099,1.881
	c-0.251,1.464-1.403,2.303-2.911,2.259c-1.333-0.039-2.836-1.29-2.952-2.572c-0.257-2.854-0.557-5.711-0.647-8.572
	c-0.11-3.554-0.053-7.115-0.013-10.672C12.095,48.696,12.289,47.215,12.339,45.729"/>
<path fill="#FFFFFF" d="M2.053,40.357c0.373-0.055,0.748-0.11,1.121-0.166l-0.124,0.04l1.269,3.871
	c-1.596,0.251-3.469,0.396-3.98-0.463C-0.744,41.817,1.025,40.509,2.053,40.357"/>
<path fill="#FFFFFF" d="M59.413,56.739c0.022-1.241,0.083-2.481,0.168-3.719c0.016-0.235,0.179-0.519,0.363-0.673
	c1.396-1.158,2.354-2.469,2.965-3.899c0.627,1.796,0.688,3.714-0.05,5.792c-0.067,0.19-0.062,0.465,0.027,0.64
	c0.471,0.93,0.96,1.85,1.477,2.755c1.611,2.814,3.276,5.594,5.309,8.136c0.33,0.412,0.695,0.834,0.88,1.314
	c0.448,1.163-0.022,2.261-1.129,2.875c-0.978,0.542-2.6,0.283-3.234-0.592c-1.412-1.949-2.856-3.88-4.151-5.906
	c-0.915-1.431-1.789-2.888-2.652-4.354C59.39,58.319,59.399,57.529,59.413,56.739"/>
<path fill="#FFFFFF" d="M53.279,45.729L53.279,45.729l9.88-0.095c-0.14,0.822-0.368,1.614-0.693,2.373
	c-0.61,1.429-1.569,2.74-2.964,3.899c-0.185,0.153-0.347,0.438-0.363,0.672c-0.085,1.238-0.147,2.479-0.168,3.72
	c-0.014,0.79-0.023,1.58-0.027,2.369c-0.014,3.071,0.075,6.138,0.498,9.191c0.086,0.622,0.203,1.276,0.099,1.881
	c-0.251,1.464-1.403,2.303-2.911,2.259c-1.333-0.039-2.836-1.29-2.952-2.572c-0.257-2.854-0.557-5.711-0.647-8.572
	c-0.11-3.554-0.053-7.115-0.013-10.672C53.035,48.696,53.229,47.215,53.279,45.729"/>
<path fill="#FFFFFF" d="M47.292,39.521c0.286-0.068,0.567-0.147,0.84-0.24c1.238-0.42,2.323-1.124,3.055-2.332
	c0.251-0.415,0.261-0.742,0.011-1.197c-0.113-0.205-0.218-0.412-0.316-0.62c-0.521-1.112-0.806-2.283-0.546-3.569
	c0.33-1.635,1.647-3.156,3.189-3.734c0.878,1.134,4.011,5.477,2.734,8.208l0.401,0.187c0.673-1.44,0.365-3.392-0.918-5.801
	c-0.638-1.198-1.354-2.195-1.764-2.732c0.065-0.016,0.129-0.034,0.193-0.046c1.499-0.285,3.39,0.64,4.253,2.161
	c2.033,3.585,3.749,7.303,4.27,11.442c0.172,1.367,0.196,2.687,0.03,3.943l-9.937,0.095c0.027-1.245,0.001-2.487,0.001-3.678
	c-2.14,0.752-4.028,1.828-6.16,2.167c-0.348,0.055-0.823,0.148-1.355,0.24L44,40.131C45.105,39.963,46.207,39.776,47.292,39.521"/>
<path fill="#FFFFFF" d="M42.095,40.357c0.373-0.055,0.748-0.11,1.121-0.166l-0.124,0.04l1.269,3.871
	c-1.596,0.251-3.469,0.396-3.98-0.463C39.298,41.817,41.067,40.509,42.095,40.357"/>
<path fill="#FFFFFF" d="M43.619,34.637c-0.411,0.242-0.8,0.657-1.012,1.341c-0.299,0.963-0.224,1.843-0.013,2.412l0.35-0.067
	c-0.068-0.446-0.138-1.301,0.131-2.167c0.394-1.271,1.548-1.344,1.548-1.344c0.929,0.149,1.861,0.279,2.797,0.359
	c0.866,0.074,1.718,0.035,2.523-0.186c0.098,0.209,0.204,0.416,0.316,0.62c0.25,0.454,0.241,0.782-0.011,1.197
	c-0.732,1.208-1.817,1.912-3.056,2.333c-0.579-0.002-1.156-0.035-1.733-0.128c-0.561-0.09-1.478-0.188-2.405-0.358l0.275,1.436
	l-0.434,0.084l-0.314-1.631c-1.228-0.277-2.332-0.712-2.472-1.461c-0.468-2.51,1.63-2.761,2.654-2.586
	C43.049,34.539,43.334,34.588,43.619,34.637"/>
</svg>
