<?xml version="1.0" encoding="utf-8"?>
<!-- Generator: Adobe Illustrator 16.0.0, SVG Export Plug-In . SVG Version: 6.00 Build 0)  -->
<!DOCTYPE svg PUBLIC "-//W3C//DTD SVG 1.1//EN" "http://www.w3.org/Graphics/SVG/1.1/DTD/svg11.dtd">
<svg version="1.1" id="Layer_1" xmlns="http://www.w3.org/2000/svg" xmlns:xlink="http://www.w3.org/1999/xlink" x="0px" y="0px"
	 width="121.083px" height="138.375px" viewBox="0 0 121.083 138.375" enable-background="new 0 0 121.083 138.375"
	 xml:space="preserve">
<path fill="#FFFFFF" d="M100.101,71.575c-0.628,0.41-1.478,0.729-1.478,0.729s-0.278-0.769-0.603-0.769
	c-0.322,0-0.229,0.577-0.969,0.769c-0.738,0.19-2.627,0.479-2.999,0.334c-0.371-0.144-1.106-0.113-1.663,0.039
	c-0.553,0.152-2.629-0.134-3.137-0.373c-0.505-0.241-1.752-0.769-1.752-0.769s-2.539,0.624-3.689-0.095
	c-1.156-0.72-2.125-1.534-2.311-0.624c-0.185,0.91-0.367,2.877-1.291,3.26c-0.921,0.382-1.385-0.814-1.385-0.814
	s-0.876,0.718-1.938,1.771c-1.061,1.055-3.92,2.637-3.92,2.637s0.274,1.726-0.694,3.5c-0.969,1.775-2.539,5.176-2.445,6.854
	c0.092,1.678,0.831,2.877,1.521,3.308c0.693,0.43,1.756,2.59,1.756,2.59s-1.479,0.095-1.664,0.381c-0.185,0.288-1.243,0.288-2.029,0
	c-0.784-0.286-3.045,0.192-3.138-0.959c-0.092-1.149,0.278-1.725,0-2.873c-0.274-1.15-0.416-8.869-0.416-8.869l-0.505-0.909
	c0,0-0.972,1.867-1.525,2.685c-0.553,0.813-1.983,2.729-1.938,4.217c0.044,1.484,0.368,1.867,1.339,2.587
	c0.97,0.721,1.475,1.727,1.152,2.351c-0.324,0.622-3.323,0.431-4.107,0.288c-0.782-0.146-2.03-0.288-2.168-1.918
	c-0.137-1.63,0.646-2.444,0.601-3.932c-0.046-1.484-0.772-1.774-0.615-2.924c0.153-1.148,1.168-2.156,0.569-2.589
	c-0.602-0.431-3.322,2.636-7.569,2.302c-4.243-0.334-6.087-1.678-6.087-1.678l-1.662,3.308c0,0,0.599,1.678,0.599,2.877
	c0,1.195,0.185,2.97,0.923,3.833c0.737,0.863,0.693,1.391,1.706,1.725c1.016,0.338,2.86,1.488,2.402,1.918
	c-0.462,0.432-1.71,1.152-2.079,1.248c-0.367,0.095-2.307-0.528-3.092-0.623c-0.781-0.098-2.305,0.141-2.628-1.487
	c-0.323-1.627-0.276-3.02-1.384-3.74c-1.106-0.716-2.768-1.818-2.954-3.352c-0.185-1.535-0.185-2.064-1.201-2.495
	c-1.015-0.431-1.752-0.909-1.752-0.909v4.695c0,0,2.816,2.733,3.229,3.549c0.416,0.814-0.046,2.347-1.154,2.157
	c-1.106-0.193-2.215-0.623-3.506-0.385c-1.292,0.24-2.398-0.576-2.075-1.772c0.323-1.198,0.414-1.967-0.416-2.974
	c-0.832-1.006-1.847-2.444-1.752-3.979c0.091-1.533,0.403-2.203-0.008-2.539c-0.41-0.334-2.717-1.34-3.271-4.169
	c-0.553-2.828-0.414-3.689-1.246-5.319c-0.83-1.63-1.568-5.704-1.108-7.815c0.462-2.107,0.923-3.067,0.923-3.067
	s-0.37-1.342,0.093-1.821c0.461-0.479,2.307-2.924,2.815-4.17c0.506-1.248,5.028-4.363,5.674-4.986
	c0.648-0.624,2.309-2.539,7.521-1.966c5.216,0.577,12.553,1.199,15.553,0.913c2.999-0.289,5.444-0.673,5.444-0.673
	s0.693-1.437,3.831-1.293c3.136,0.143,6.968,0.143,9.507,1.151c2.535,1.004,4.336,1.341,5.398,1.821
	c1.058,0.479,4.058,2.349,4.058,2.349s-0.412-0.959,0.096-2.062c0.505-1.103,0.969-1.917,0.969-1.917s1.891,1.484,2.351,2.205
	c0.463,0.718-0.045,2.586-0.045,2.586s1.589-0.957,2.436-1.723c0.839-0.769,2.36-2.111,2.78-1.773
	c0.412,0.335-0.694,1.581-0.832,2.539c-0.141,0.957-1.198,1.965-1.893,2.109c-0.69,0.143-0.553,3.163,1.801,4.842
	c2.353,1.676,3.938,2.267,3.938,2.267s1.729-0.245,1.886-3.267s0-4.739,1.415-3.186c1.413,1.551,1.808,3.513,1.808,4.737
	c0,1.226-0.233,5.064,0,5.962C100.339,68.309,100.732,71.167,100.101,71.575 M119.72,79.07V10.645
	c-0.004-3.293-1.875-6.293-4.817-7.715c-2.941-1.423-6.427-1.014-8.978,1.049c-10.591,8.591-29.657,8.585-40.23,0.004
	c-3.104-2.522-7.524-2.519-10.628-0.004C44.48,12.57,25.406,12.564,14.835,3.983C12.289,1.916,8.792,1.506,5.86,2.93
	c-2.942,1.422-4.815,4.422-4.815,7.715L1.038,79.07c0,26.809,21.301,49.064,56.975,59.532c0.776,0.228,1.571,0.34,2.369,0.34
	c0.798,0,1.593-0.112,2.37-0.34C98.423,128.134,119.72,105.883,119.72,79.07"/>
</svg>
