<?xml version="1.0" encoding="utf-8"?>
<!-- Generator: Adobe Illustrator 16.0.0, SVG Export Plug-In . SVG Version: 6.00 Build 0)  -->
<!DOCTYPE svg PUBLIC "-//W3C//DTD SVG 1.1//EN" "http://www.w3.org/Graphics/SVG/1.1/DTD/svg11.dtd">
<svg version="1.1" id="Layer_1" xmlns="http://www.w3.org/2000/svg" xmlns:xlink="http://www.w3.org/1999/xlink" x="0px" y="0px"
	 width="195.383px" height="109.279px" viewBox="162.666 12.212 195.383 109.279"
	 enable-background="new 162.666 12.212 195.383 109.279" xml:space="preserve">
<g>
	<path fill="#FFFFFF" d="M170.41,46.067l12.608,0.801l1.732,5.519l1.027,0.066c-0.047,1.967,1.123,3.841,3.07,4.576
		c2.086,0.786,4.157,1.344,6.193,1.68c3.518,0.58,6.93,0.491,10.169-0.234l1.269,0.082l-0.131-0.375
		c2.467-0.675,4.823-1.732,7.033-3.153c1.198,4.901,2.396,9.802,3.594,14.704c1.347-0.322,12.4-0.1,17.953-0.314
		c-2.016-8.242-4.714-17.696-6.728-25.937c-1.113-4.558-4.784-7.999-9.75-7.284c-3.937,0.567-7.681,4.439-7.447,8.58
		c-2.327,2.212-4.948,3.667-7.799,4.325l-1.709-4.936l5.246,0.333l0.241-3.758l-40.433-2.569l0.249-3.994l-3.76-0.241l-0.374,5.872
		l3.762,0.238l-0.118,1.878l4.346,0.277L170.41,46.067z M187.242,43.261l8.774,0.558l1.944,5.613
		c-1.856-0.164-3.771-0.598-5.749-1.344c-1.16-0.435-2.377-0.377-3.443,0.047L187.242,43.261z"/>
	<polygon fill="#FFFFFF" points="227.479,36.12 237.452,33.59 232.631,15.095 234.132,14.703 238.954,33.21 242.87,32.215 
		246.522,33.783 251.256,32.583 258.381,60.668 253.647,61.869 253.612,74.569 238.222,78.472 	"/>
	<path fill="#FFFFFF" d="M222.642,28.215c-0.966,4.327-4.824,7.566-9.441,7.566c-5.342,0-9.674-4.333-9.674-9.678
		c0-0.259,0.018-0.513,0.037-0.764h9.639C213.199,25.338,217.426,27.524,222.642,28.215z"/>
	<path fill="#FFFFFF" d="M224.069,26.4c-5.674-0.752-10.272-3.132-10.272-3.132h-10.489h-0.564c0-6.106,4.949-11.056,11.054-11.056
		c6.106,0,11.056,4.949,11.056,11.056c0,1.104-0.168,2.169-0.47,3.176C224.278,26.429,224.174,26.413,224.069,26.4z"/>
	<path fill="#FFFFFF" d="M228.13,91.98c0.042-2.399,0.16-4.799,0.325-7.192c0.03-0.453,0.344-1.004,0.7-1.3
		c2.693-2.239,4.541-4.774,5.721-7.54c1.21,3.473,1.328,7.182-0.096,11.202c-0.131,0.367-0.119,0.897,0.053,1.238
		c0.908,1.797,1.852,3.577,2.852,5.325c3.108,5.443,6.32,10.82,10.244,15.736c0.637,0.795,1.342,1.612,1.698,2.541
		c0.865,2.25-0.042,4.372-2.178,5.559c-1.888,1.05-5.019,0.549-6.242-1.146c-2.726-3.769-5.513-7.503-8.011-11.42
		c-1.764-2.769-3.453-5.587-5.116-8.421C228.086,95.036,228.104,93.508,228.13,91.98z"/>
	<path fill="#FFFFFF" d="M216.292,70.687c0-0.001,0-0.001,0-0.002l19.066-0.183c-0.271,1.59-0.711,3.121-1.338,4.59
		c-1.179,2.765-3.027,5.3-5.721,7.539c-0.357,0.298-0.669,0.848-0.699,1.301c-0.166,2.395-0.283,4.793-0.326,7.191
		c-0.026,1.528-0.043,3.057-0.051,4.584c-0.027,5.938,0.146,11.869,0.961,17.774c0.166,1.203,0.391,2.47,0.19,3.638
		c-0.483,2.83-2.707,4.453-5.618,4.368c-2.572-0.075-5.473-2.495-5.695-4.976c-0.496-5.52-1.076-11.043-1.248-16.577
		c-0.215-6.874-0.104-13.761-0.026-20.64C215.821,76.424,216.196,73.56,216.292,70.687z"/>
</g>
<g>
	<path fill="#FFFFFF" d="M350.06,42.204l4.346-0.277l-0.118-1.878l3.762-0.238l-0.374-5.872l-3.76,0.241l0.249,3.994l-40.433,2.569
		l0.242,3.758l5.245-0.333l-1.709,4.936c-2.851-0.657-5.472-2.113-7.799-4.325c0.233-4.141-3.511-8.013-7.446-8.58
		c-4.967-0.715-8.637,2.725-9.75,7.284c-2.015,8.239-4.713,17.695-6.728,25.938c5.552,0.213,16.604-0.008,17.952,0.313
		c1.197-4.903,2.396-9.803,3.594-14.704c2.209,1.422,4.566,2.479,7.033,3.153l-0.131,0.375l1.269-0.082
		c3.241,0.724,6.651,0.814,10.169,0.234c2.036-0.336,4.107-0.894,6.194-1.68c1.946-0.735,3.116-2.609,3.069-4.576l1.027-0.066
		l1.732-5.519l12.609-0.801L350.06,42.204z M331.944,48.135c-1.067-0.425-2.284-0.483-3.443-0.047
		c-1.977,0.746-3.893,1.18-5.749,1.344l1.945-5.613l8.774-0.558L331.944,48.135z"/>
	<polygon fill="#FFFFFF" points="293.235,36.12 283.261,33.59 288.082,15.095 286.581,14.703 281.759,33.21 277.843,32.215 
		274.19,33.783 269.457,32.583 262.332,60.668 267.067,61.869 267.101,74.569 282.492,78.472 	"/>
	<path fill="#FFFFFF" d="M298.071,28.215c0.966,4.327,4.824,7.566,9.441,7.566c5.342,0,9.674-4.333,9.674-9.678
		c0-0.259-0.018-0.513-0.037-0.764h-9.639C307.515,25.338,303.288,27.524,298.071,28.215z"/>
	<path fill="#FFFFFF" d="M296.644,26.4c5.674-0.752,10.273-3.132,10.273-3.132h10.49h0.564c0-6.106-4.949-11.056-11.055-11.056
		s-11.057,4.949-11.057,11.056c0,1.104,0.168,2.169,0.47,3.176C296.437,26.429,296.54,26.413,296.644,26.4z"/>
	<path fill="#FFFFFF" d="M292.583,91.98c-0.042-2.399-0.16-4.799-0.325-7.192c-0.03-0.453-0.344-1.004-0.7-1.3
		c-2.692-2.239-4.541-4.774-5.721-7.54c-1.21,3.473-1.328,7.182,0.096,11.202c0.131,0.367,0.119,0.897-0.053,1.238
		c-0.908,1.797-1.852,3.577-2.852,5.325c-3.108,5.443-6.32,10.82-10.244,15.736c-0.637,0.795-1.342,1.612-1.698,2.541
		c-0.864,2.25,0.042,4.372,2.179,5.559c1.887,1.05,5.018,0.549,6.241-1.146c2.726-3.769,5.513-7.503,8.011-11.42
		c1.765-2.769,3.453-5.587,5.116-8.421C292.627,95.036,292.61,93.508,292.583,91.98z"/>
	<path fill="#FFFFFF" d="M304.421,70.687c0-0.001,0-0.001,0-0.002l-19.066-0.183c0.271,1.59,0.711,3.121,1.338,4.59
		c1.179,2.765,3.027,5.3,5.721,7.539c0.357,0.298,0.669,0.848,0.699,1.301c0.166,2.395,0.283,4.793,0.326,7.191
		c0.026,1.528,0.043,3.057,0.051,4.584c0.027,5.938-0.145,11.869-0.961,17.774c-0.165,1.203-0.391,2.47-0.19,3.638
		c0.484,2.83,2.707,4.453,5.618,4.368c2.572-0.075,5.473-2.495,5.695-4.976c0.496-5.52,1.076-11.043,1.248-16.577
		c0.215-6.874,0.104-13.761,0.026-20.64C304.894,76.424,304.519,73.56,304.421,70.687z"/>
</g>
<g>
	<text transform="matrix(1 0 0 1 5.8057 83.8931)" fill="#FFFFFF" font-family="'WWF'" font-size="97.5502">920k</text>
	<rect x="-5.334" y="92.493" fill="none" width="166" height="32"/>
	<text transform="matrix(1 0 0 1 35.876 103.0776)" fill="#FFFFFF" font-family="'Georgia'" font-size="14">km of anti-poaching </text>
	<text transform="matrix(1 0 0 1 0.521 119.8774)" fill="#FFFFFF" font-family="'Georgia'" font-size="14">patrols in Protected Areas</text>
</g>
</svg>
