<?xml version="1.0" encoding="utf-8"?>
<!-- Generator: Adobe Illustrator 16.0.0, SVG Export Plug-In . SVG Version: 6.00 Build 0)  -->
<!DOCTYPE svg PUBLIC "-//W3C//DTD SVG 1.1//EN" "http://www.w3.org/Graphics/SVG/1.1/DTD/svg11.dtd">
<svg version="1.1" id="Layer_1" xmlns="http://www.w3.org/2000/svg" xmlns:xlink="http://www.w3.org/1999/xlink" x="0px" y="0px"
	 width="141.02px" height="135.51px" viewBox="145.018 0 141.02 135.51" enable-background="new 145.018 0 141.02 135.51"
	 xml:space="preserve">
<g>
	<g>
		<g>
			<path fill="#FFFFFF" d="M210.761,9.088h-0.05h-0.056c-0.194,0-0.35,0.084-0.499,0.166c-0.036,0.021-0.072,0.039-0.108,0.058
				c-0.183,0.092-0.392,0.058-0.439-0.07c-0.058-0.153-0.082-0.321-0.096-0.45c-0.011-0.096-0.008-0.193-0.005-0.297
				c0.001-0.047,0.003-0.093,0.003-0.14c0-0.048-0.035-0.088-0.082-0.097l-0.059-0.009c-0.044-0.007-0.087,0.018-0.104,0.06
				c-0.007,0.014-0.014,0.027-0.021,0.043c-0.019,0.038-0.039,0.081-0.048,0.13c-0.041,0.231-0.016,0.472,0.08,0.754
				c0.033,0.098,0.043,0.19,0.025,0.256c-0.146,0.579-0.46,0.826-1.048,0.826l-0.053-0.001c-0.028-0.001-0.093-0.043-0.124-0.089
				c-0.063-0.093-0.039-0.203-0.012-0.331l0.008-0.038c0.027-0.134,0.04-0.271,0.052-0.403c0.005-0.057,0.011-0.113,0.017-0.17
				c0.006-0.049-0.025-0.094-0.074-0.104l-0.078-0.02c-0.043-0.011-0.088,0.01-0.108,0.048c-0.01,0.019-0.021,0.036-0.032,0.055
				c-0.033,0.049-0.067,0.104-0.078,0.171c-0.035,0.21-0.062,0.421-0.088,0.632l-0.021,0.172c-0.011,0.084-0.019,0.169-0.026,0.254
				c-0.018,0.182-0.035,0.353-0.076,0.521c-0.07,0.287-0.25,0.518-0.52,0.664c-0.1,0.054-0.241,0.029-0.258-0.109
				c-0.014-0.106-0.006-0.217,0.019-0.313c0.04-0.152,0.091-0.307,0.14-0.457c0.031-0.095,0.062-0.189,0.09-0.284
				c0.014-0.047,0.014-0.091,0.014-0.131c0-0.014,0-0.027,0.001-0.043c0.003-0.049-0.03-0.092-0.079-0.101l-0.046-0.008
				c-0.048-0.009-0.094,0.018-0.108,0.063l-0.02,0.055c-0.016,0.042-0.029,0.084-0.043,0.126c-0.018,0.056-0.031,0.113-0.045,0.173
				c-0.033,0.146-0.063,0.271-0.167,0.37c-0.079,0.073-0.128,0.09-0.155,0.09c-0.035,0-0.076-0.031-0.117-0.091
				c-0.076-0.11-0.14-0.227-0.207-0.351c-0.041-0.075-0.082-0.149-0.125-0.224c-0.033-0.059-0.076-0.112-0.117-0.165
				c-0.018-0.022-0.034-0.044-0.051-0.067c-0.028-0.038-0.08-0.05-0.121-0.028l-0.061,0.028c-0.042,0.021-0.063,0.068-0.05,0.112
				c0.005,0.018,0.009,0.035,0.013,0.053c0.01,0.045,0.021,0.098,0.047,0.146c0.028,0.058,0.064,0.114,0.1,0.172
				c0.063,0.1,0.121,0.192,0.141,0.289c0.049,0.236,0.184,0.359,0.354,0.497c0.103,0.083,0.168,0.164,0.186,0.229
				c0.068,0.26-0.165,0.689-0.432,0.791c-0.131,0.051-0.226,0.021-0.286-0.104c-0.033-0.068-0.058-0.143-0.084-0.221
				c-0.013-0.037-0.026-0.076-0.04-0.114l-0.131-0.354c-0.016-0.045-0.063-0.071-0.11-0.061l-0.058,0.012
				c-0.047,0.01-0.08,0.052-0.077,0.1c0.001,0.022,0.001,0.044,0.002,0.066c0.001,0.057,0.001,0.115,0.015,0.175
				c0.026,0.113,0.063,0.223,0.098,0.328l0.015,0.044c0.043,0.131,0.028,0.268,0.013,0.41c-0.008,0.078-0.017,0.158-0.016,0.241
				c0.001,0.124-0.04,0.228-0.121,0.31c-0.13,0.131-0.337,0.178-0.488,0.178l-0.035-0.001c-0.086-0.004-0.224-0.097-0.349-0.237
				c-0.147-0.164-0.229-0.336-0.226-0.407c0.006-0.095,0.031-0.191,0.057-0.293c0.009-0.036,0.02-0.073,0.027-0.109
				c0.016-0.067,0.029-0.137,0.043-0.205c0.056-0.265,0.107-0.516,0.256-0.742c0.099-0.152,0.113-0.396-0.079-0.597
				c-0.024-0.025-0.062-0.036-0.095-0.026c-0.034,0.009-0.062,0.035-0.069,0.069l-0.017,0.067c-0.012,0.042-0.021,0.075-0.025,0.108
				c-0.034,0.23-0.071,0.419-0.207,0.569c-0.081,0.09-0.145,0.116-0.227,0.093c-0.049-0.014-0.108-0.048-0.116-0.183
				c-0.005-0.088-0.017-0.176-0.028-0.264c-0.033-0.259-0.064-0.501,0.071-0.729c0.022-0.036,0.022-0.073,0.024-0.1
				c0-0.007,0-0.014,0-0.021c0.012-0.05,0.021-0.101,0.031-0.151c0.064-0.326,0.126-0.635,0.381-0.863
				c0.096-0.086,0.186-0.124,0.307-0.129c0.125-0.006,0.25-0.023,0.371-0.041c0.052-0.007,0.104-0.016,0.155-0.021
				c0.044-0.005,0.079-0.04,0.085-0.084l0.004-0.038c0.006-0.046-0.021-0.089-0.064-0.104l-0.067-0.023
				c-0.053-0.018-0.106-0.037-0.159-0.052c-0.173-0.048-0.188-0.126-0.158-0.244c0.084-0.313,0.275-0.527,0.559-0.618
				c0.141-0.045,0.291-0.087,0.43-0.087c0.176,0,0.312,0.067,0.426,0.209c0.016,0.021,0.035,0.039,0.056,0.058
				c0.011,0.011,0.022,0.021,0.032,0.031c0.109,0.128,0.275,0.14,0.383,0.03c0.016-0.016,0.033-0.045,0.033-0.092
				c-0.002-0.067-0.047-0.185-0.107-0.242c-0.104-0.099-0.152-0.172-0.148-0.224c0.002-0.05,0.056-0.114,0.16-0.197l0.024-0.018
				c0.03-0.023,0.067-0.05,0.096-0.085c0.046-0.054,0.087-0.109,0.128-0.166l0.051-0.067c0.019-0.025,0.023-0.057,0.015-0.086
				c-0.009-0.03-0.032-0.053-0.06-0.063c-0.078-0.026-0.136-0.026-0.196-0.002c-0.271,0.114-0.541,0.229-0.813,0.346
				c-0.055,0.023-0.104,0.036-0.145,0.036c-0.038,0.001-0.121,0-0.125-0.193c-0.003-0.098,0.018-0.198,0.038-0.305
				c0.01-0.053,0.021-0.105,0.027-0.158c0.006-0.043,0.012-0.086,0.017-0.129l0.007-0.06c0.006-0.046-0.021-0.089-0.066-0.104
				l-0.072-0.024c-0.045-0.015-0.092,0.005-0.115,0.045c-0.016,0.028-0.032,0.056-0.049,0.082c-0.039,0.066-0.082,0.135-0.108,0.213
				c-0.028,0.082-0.049,0.167-0.069,0.252c-0.033,0.13-0.062,0.252-0.117,0.358c-0.08,0.153-0.178,0.301-0.273,0.445
				c-0.085,0.127-0.173,0.259-0.249,0.396c-0.128,0.232-0.334,0.373-0.553,0.523l-0.099,0.067c-0.006,0.004-0.058,0.015-0.104,0.008
				c-0.221-0.035-0.346-0.167-0.404-0.431c-0.014-0.061-0.037-0.115-0.064-0.179c-0.014-0.03-0.027-0.063-0.043-0.1
				c-0.014-0.036-0.049-0.061-0.088-0.062c-0.037,0.001-0.073,0.022-0.09,0.057c-0.189,0.427-0.031,0.709,0.148,0.931
				c0.313,0.385,0.391,0.716,0.25,1.075c-0.061,0.155-0.141,0.18-0.242,0.071c-0.082-0.088-0.152-0.187-0.227-0.292
				c-0.035-0.051-0.071-0.101-0.108-0.149c-0.015-0.02-0.026-0.039-0.04-0.06c-0.059-0.089-0.137-0.211-0.314-0.233
				c-0.027-0.004-0.053,0.004-0.074,0.021c-0.021,0.018-0.033,0.042-0.035,0.068c-0.018,0.265,0.122,0.443,0.234,0.588
				c0.16,0.204,0.23,0.353,0.141,0.556c-0.014,0.032-0.053,0.105-0.107,0.105c-0.021,0-0.046-0.01-0.072-0.029
				c-0.03-0.021-0.059-0.055-0.088-0.09c-0.021-0.026-0.043-0.052-0.067-0.076c-0.038-0.038-0.079-0.074-0.124-0.113l-0.061-0.053
				c-0.024-0.021-0.06-0.03-0.092-0.021c-0.031,0.01-0.057,0.034-0.066,0.067c-0.053,0.201,0.015,0.359,0.203,0.471l0.056,0.031
				c0.228,0.133,0.462,0.271,0.678,0.423c0.211,0.149,0.329,0.316,0.373,0.526c0.04,0.191,0.035,0.379-0.014,0.592
				c-0.029,0.127-0.099,0.279-0.263,0.279c-0.06,0-0.125-0.019-0.195-0.056c-0.114-0.061-0.225-0.126-0.336-0.192
				c-0.063-0.037-0.127-0.075-0.19-0.111c-0.039-0.021-0.079-0.042-0.12-0.062l-0.051-0.025c-0.029-0.015-0.064-0.014-0.094,0.004
				c-0.028,0.018-0.047,0.049-0.047,0.081c-0.002,0.082,0.017,0.147,0.058,0.212c0.181,0.284,0.46,0.427,0.683,0.519
				c0.229,0.095,0.463,0.174,0.681,0.245c0.091,0.029,0.155,0.099,0.18,0.188c0.021,0.083,0.004,0.171-0.045,0.225
				c-0.071,0.076-0.174,0.07-0.306,0.048c-0.029-0.005-0.057-0.01-0.086-0.015c-0.096-0.013-0.192-0.026-0.289-0.04
				c-0.248-0.035-0.504-0.071-0.774-0.089c-0.093,0-0.176,0.061-0.249,0.112c-0.027,0.02-0.056,0.041-0.084,0.056
				c-0.023,0.015-0.041,0.037-0.047,0.064s0,0.056,0.018,0.078l0.047,0.065c0.047,0.063,0.092,0.125,0.142,0.185
				c0.038,0.046,0.099,0.061,0.134,0.069c0.079,0.02,0.157,0.037,0.236,0.056c0.109,0.024,0.218,0.05,0.326,0.078
				c0.062,0.016,0.105,0.043,0.123,0.076c0.015,0.029,0.013,0.067-0.006,0.112c-0.047,0.114-0.125,0.223-0.207,0.288
				c-0.383,0.306-0.623,0.617-0.752,0.977c-0.147,0.403-0.266,0.824-0.385,1.244c-0.154,0.549-0.251,1.069-0.296,1.596
				c-0.047,0.555-0.129,1.104-0.202,1.566c-0.052,0.33-0.189,0.547-0.416,0.665c-0.348,0.18-0.619,0.254-0.904,0.241
				c-0.178-0.007-0.355-0.004-0.532-0.002l-0.218,0.002c-0.543,0-1.078-0.109-1.539-0.211c-0.314-0.07-0.572-0.12-0.813-0.157
				c-0.138-0.021-0.278-0.036-0.418-0.05c-0.134-0.014-0.267-0.028-0.399-0.048c-0.444-0.068-0.891-0.095-1.336-0.082
				c-0.603,0.019-1.172,0.191-1.736,0.531c-0.293,0.175-0.616,0.334-0.992,0.302c-0.178-0.017-0.288-0.085-0.352-0.226
				c-0.127-0.277-0.248-0.541-0.211-0.847c0.02-0.156,0.016-0.313,0.01-0.467c-0.002-0.078-0.004-0.155-0.002-0.233
				c0.002-0.208-0.078-0.369-0.234-0.465c-0.17-0.104-0.35-0.193-0.533-0.284c-0.078-0.039-0.142-0.057-0.197-0.057
				c-0.188,0-0.238,0.198-0.257,0.273c-0.014,0.056-0.03,0.111-0.047,0.168c-0.03,0.105-0.063,0.215-0.081,0.326
				c-0.009,0.057-0.02,0.113-0.031,0.172c-0.039,0.205-0.078,0.419-0.047,0.626c0.068,0.466,0.223,0.938,0.461,1.401
				c0.03,0.062,0.098,0.171,0.197,0.222c0.165,0.082,0.268,0.198,0.316,0.354c0.068,0.226,0.121,0.444,0.011,0.614
				c-0.256,0.39-0.284,0.82-0.312,1.237l-0.004,0.054c-0.014,0.22-0.005,0.441,0.004,0.656c0.004,0.1,0.008,0.197,0.01,0.297
				c0.002,0.031,0,0.063,0,0.095c-0.002,0.062-0.002,0.125,0.004,0.186c0.021,0.212,0.045,0.425,0.068,0.638l0.039,0.352
				c0.01,0.092,0.019,0.184,0.027,0.275c0.018,0.182,0.036,0.364,0.061,0.547c0.016,0.126,0.045,0.262,0.092,0.43
				c0.139,0.501,0.068,0.855-0.233,1.149c-0.172,0.167-0.248,0.354-0.228,0.558c0.031,0.294,0.064,0.588,0.102,0.881
				c0.059,0.465,0.116,0.931,0.18,1.395c0.012,0.084,0.021,0.17,0.031,0.255c0.029,0.25,0.059,0.509,0.139,0.762
				c0.09,0.289,0.162,0.519,0,0.766c-0.041,0.064-0.047,0.139-0.015,0.197c0.035,0.063,0.106,0.101,0.199,0.101h0.099l0.357,0.001
				c0.094,0,0.188-0.001,0.281-0.004c0.002,0,0.217-0.01,0.264-0.134c0.033-0.089,0.001-0.208-0.046-0.287
				c-0.043-0.072-0.093-0.142-0.142-0.211c-0.067-0.095-0.132-0.185-0.178-0.281c-0.318-0.667-0.475-1.432-0.48-2.335
				c0-0.06-0.008-0.118-0.014-0.179c-0.005-0.05-0.011-0.1-0.012-0.149l-0.002-0.073c-0.004-0.09-0.007-0.175,0.016-0.245
				c0.092-0.301,0.266-0.568,0.514-0.796c0.177-0.161,0.375-0.344,0.492-0.608c0.104-0.238,0.244-0.472,0.367-0.672
				c0.01-0.017,0.049-0.039,0.08-0.048c0.014,0.023,0.029,0.062,0.035,0.093c0.007,0.039,0,0.088-0.008,0.141l-0.008,0.059
				c-0.008,0.061-0.018,0.119-0.027,0.179c-0.021,0.13-0.044,0.264-0.037,0.399c0.021,0.392-0.084,0.753-0.193,1.135l-0.039,0.133
				c-0.063,0.224-0.023,0.464,0.006,0.585c0.052,0.219,0.115,0.437,0.177,0.647c0.071,0.245,0.146,0.499,0.2,0.75l0.015,0.069
				c0.08,0.366,0.162,0.747,0.404,1.072c0.069,0.096,0.073,0.184,0.012,0.298c-0.026,0.046-0.045,0.096-0.067,0.154
				c-0.01,0.026-0.021,0.056-0.033,0.085c-0.012,0.03-0.008,0.064,0.01,0.09c0.018,0.027,0.048,0.043,0.08,0.043h0.943
				c0.047,0,0.086-0.032,0.094-0.078c0.039-0.203-0.073-0.323-0.155-0.411c-0.024-0.027-0.05-0.054-0.07-0.082
				c-0.59-0.851-0.876-1.777-0.851-2.758c0.003-0.095,0.02-0.171,0.047-0.221l0.107-0.189c0.18-0.316,0.365-0.644,0.57-0.945
				c0.411-0.603,0.833-1.254,1.08-1.993c0.172-0.51,0.387-0.874,0.68-1.144c0.198-0.185,0.455-0.269,0.763-0.256
				c0.151,0.006,0.303,0.042,0.46,0.082c0.213,0.054,0.425,0.11,0.637,0.169c0.348,0.093,0.707,0.189,1.064,0.272
				c0.408,0.094,0.895,0.197,1.393,0.249c0.326,0.034,0.5,0.225,0.501,0.551c0.001,0.154-0.021,0.314-0.039,0.47l-0.017,0.142
				c-0.042,0.367,0.056,0.707,0.15,1.036l0.064,0.229c0.113,0.404,0.222,0.785,0.175,1.193c-0.008,0.064,0.003,0.128,0.015,0.183
				c0.062,0.289,0.125,0.578,0.189,0.867l0.039,0.18c0.042,0.192,0.085,0.392,0.145,0.585c0.063,0.205,0.063,0.407-0.002,0.62
				c-0.035,0.116-0.058,0.248,0.119,0.35c0.045,0.025,0.074,0.057,0.078,0.085c0.004,0.029-0.023,0.06-0.041,0.076
				c-0.175,0.163-0.167,0.354-0.16,0.523c0.002,0.03,0.004,0.061,0.004,0.09c0,0.094,0.114,0.214,0.207,0.217
				c0.088,0.003,0.176,0.005,0.262,0.005c0.091,0,0.182-0.001,0.271-0.003l0.192-0.002c0.065,0,0.116-0.021,0.149-0.06
				c0.045-0.054,0.043-0.123,0.035-0.17c-0.05-0.346-0.189-0.659-0.324-0.961c-0.067-0.153-0.139-0.311-0.195-0.469
				c-0.047-0.132-0.092-0.272-0.105-0.413c-0.02-0.191-0.025-0.39-0.029-0.581l-0.006-0.19c-0.006-0.15-0.01-0.303-0.009-0.454
				c0.001-0.144,0.003-0.287,0.004-0.432c0.003-0.244,0.007-0.489,0.003-0.732c-0.002-0.146-0.018-0.289-0.033-0.429
				c-0.025-0.219-0.049-0.426-0.021-0.64l0.005-0.035c0.033-0.249,0.063-0.484,0.219-0.672c0.045-0.054,0.094-0.085,0.102-0.087
				c0.011,0.004,0.037,0.022,0.1,0.112c0.012,0.016,0.016,0.059,0.02,0.093l0.004,0.023c0.008,0.068,0.014,0.137,0.019,0.205
				c0.011,0.142,0.022,0.286,0.06,0.428c0.088,0.339,0.094,0.677,0.099,1.035l0.003,0.158c0.004,0.171,0.038,0.34,0.072,0.503
				c0.013,0.063,0.025,0.124,0.035,0.186c0.012,0.061,0.024,0.122,0.039,0.183c0.016,0.072,0.031,0.145,0.043,0.217
				c0.016,0.102,0.026,0.202,0.039,0.304c0.022,0.201,0.047,0.41,0.103,0.611c0.082,0.297,0.112,0.529,0.01,0.771
				c-0.036,0.085-0.054,0.188-0.052,0.308c0.001,0.076,0.046,0.167,0.109,0.222c0.106,0.094,0.115,0.131,0.061,0.268
				c-0.04,0.101-0.059,0.208-0.079,0.328c-0.019,0.112,0.013,0.186,0.044,0.229c0.032,0.044,0.096,0.101,0.215,0.117
				c0.068,0.01,0.164,0.022,0.252,0.013c0.071-0.007,0.142-0.018,0.211-0.029c0.088-0.015,0.172-0.027,0.254-0.033
				c0.039-0.003,0.154-0.01,0.205-0.102c0.033-0.059,0.026-0.132-0.02-0.217c-0.034-0.063-0.072-0.126-0.111-0.188
				c-0.051-0.083-0.099-0.16-0.137-0.243c-0.02-0.041-0.038-0.083-0.058-0.124c-0.082-0.172-0.167-0.352-0.195-0.527
				c-0.036-0.225-0.042-0.461-0.047-0.689c-0.003-0.118-0.006-0.236-0.013-0.354c-0.01-0.164-0.021-0.329-0.033-0.493
				c-0.02-0.277-0.04-0.565-0.049-0.849c-0.022-0.789-0.03-1.434-0.023-2.03c0.004-0.421,0.044-0.832,0.083-1.178
				c0.039-0.353,0.24-0.633,0.631-0.883c0.427-0.272,0.71-0.675,0.863-1.232c0.019-0.067,0.014-0.139,0.007-0.187
				c-0.07-0.471-0.025-0.814,0.145-1.115c0.039-0.069,0.059-0.134,0.059-0.192c-0.001-0.063,0-0.129,0.001-0.193
				c0.002-0.188,0.005-0.381-0.028-0.571c-0.103-0.58-0.216-1.199-0.375-1.813c-0.101-0.385-0.22-0.77-0.334-1.142
				c-0.095-0.303-0.191-0.616-0.277-0.926c-0.067-0.245-0.086-0.511-0.102-0.762c-0.009-0.164,0.149-0.303,0.303-0.328
				c0.246-0.041,0.502-0.016,0.783,0.08c0.438,0.147,0.879,0.318,1.27,0.47c0.047,0.018,0.09,0.027,0.131,0.027
				c0.141,0,0.218-0.108,0.242-0.144c0.017-0.022,0.033-0.046,0.049-0.07c0.041-0.063,0.08-0.121,0.128-0.155
				c0.267-0.188,0.198-0.381,0.086-0.561l-0.11-0.173c-0.101-0.158-0.205-0.322-0.299-0.486c-0.221-0.386-0.385-0.815-0.5-1.312
				c-0.029-0.126-0.015-0.233,0.039-0.302c0.059-0.073,0.152-0.089,0.221-0.089c0.027,0,0.058,0.003,0.09,0.008
				c0.018,0.003,0.035,0.007,0.055,0.011c0.043,0.009,0.092,0.021,0.142,0.021c0.003,0,0.019,0,0.021-0.001l0.042-0.004
				c0.131-0.008,0.266-0.016,0.396-0.053c0.104-0.03,0.172-0.099,0.184-0.186c0.014-0.087-0.034-0.174-0.125-0.233
				c-0.1-0.063-0.229-0.108-0.362-0.127c-0.12-0.016-0.241-0.025-0.362-0.034c-0.14-0.01-0.285-0.021-0.423-0.043
				c-0.124-0.02-0.208-0.109-0.235-0.19c-0.013-0.033-0.025-0.097,0.019-0.146c0.214-0.238,0.463-0.366,0.742-0.382
				c0.084-0.005,0.168-0.009,0.252-0.009c0.259,0,0.455,0.036,0.634,0.117c0.034,0.015,0.074,0.009,0.102-0.016
				c0.028-0.023,0.041-0.063,0.031-0.099c-0.019-0.068-0.046-0.126-0.086-0.183c-0.025-0.034-0.051-0.067-0.076-0.102
				c-0.035-0.045-0.072-0.091-0.103-0.139c-0.062-0.099-0.08-0.198-0.05-0.281c0.027-0.077,0.094-0.134,0.191-0.166
				c0.208-0.068,0.446-0.116,0.707-0.143c0.122-0.013,0.283-0.013,0.445-0.009c0.068,0.002,0.137,0.003,0.204,0.003h0.046
				c0.089-0.001,0.253-0.003,0.309-0.167c0.008-0.024,0.006-0.052-0.007-0.074c-0.012-0.023-0.032-0.041-0.058-0.049
				c-0.086-0.024-0.172-0.049-0.258-0.072c-0.198-0.057-0.387-0.109-0.573-0.176c-0.056-0.02-0.091-0.046-0.103-0.076
				c-0.019-0.046,0.006-0.11,0.029-0.156c0.137-0.264,0.365-0.438,0.607-0.622l0.02-0.015c0.346-0.263,0.689-0.538,1.021-0.806
				c0.19-0.153,0.383-0.307,0.574-0.459l0.049-0.039c0.275-0.217,0.535-0.423,0.869-0.496c0.039-0.008,0.064-0.029,0.09-0.051
				c0.011-0.008,0.022-0.018,0.037-0.028c0.035-0.025,0.049-0.068,0.035-0.108C210.84,9.114,210.803,9.088,210.761,9.088z"/>
		</g>
	</g>
	<g>
		<path fill="#FFFFFF" d="M224.22,32.969h-0.039h-2.771V0h-42.751v32.97h-2.772v7.911h3.719c-0.533,0.75-0.838,1.678-0.838,2.674
			c0,2.564,2.053,4.626,4.627,4.626c1.459,0,2.752-0.661,3.6-1.706c0.848,1.046,2.141,1.706,3.6,1.706
			c2.565,0,4.626-2.053,4.626-4.626c0-0.996-0.315-1.924-0.838-2.674h11.345c-0.533,0.75-0.838,1.678-0.838,2.674
			c0,2.564,2.051,4.626,4.625,4.626c1.461,0,2.752-0.661,3.601-1.706c0.848,1.046,2.141,1.706,3.6,1.706
			c2.565,0,4.626-2.053,4.626-4.626c0-0.996-0.316-1.924-0.838-2.674h3.719V32.969L224.22,32.969z M215.549,2.052h3.798v30.918
			h-3.798V2.052z M209.69,2.052h3.797v30.918h-3.797V2.052z M203.938,2.052h3.699v30.918h-3.699V2.052z M198.08,2.052h3.798v30.918
			h-3.798V2.052z M192.329,2.052h3.699v30.918h-3.699V2.052z M186.47,2.052h3.799v30.918h-3.799V2.052z M180.719,2.052h3.699v30.918
			h-3.699V2.052z M183.383,46.129c-1.44,0-2.565-1.232-2.565-2.673c0-1.439,1.135-2.564,2.565-2.564c1.44,0,2.565,1.232,2.565,2.673
			C185.957,44.994,184.823,46.129,183.383,46.129z M190.583,46.02c-1.439,0-2.564-1.135-2.564-2.565c0-1.43,1.133-2.564,2.564-2.564
			c1.43-0.011,2.564,1.125,2.564,2.564C193.147,44.896,192.015,46.02,190.583,46.02z M209.483,46.02
			c-1.44,0-2.565-1.135-2.565-2.565c0-1.43,1.134-2.564,2.565-2.564c1.439,0,2.564,1.134,2.564,2.564S210.923,46.02,209.483,46.02z
			 M216.685,46.02c-1.44,0-2.565-1.135-2.565-2.565c0-1.43,1.134-2.564,2.565-2.564c1.43-0.011,2.564,1.125,2.564,2.564
			C219.248,44.896,218.114,46.02,216.685,46.02z M222.129,38.829h-44.19v-3.798h44.19V38.829z"/>
	</g>
</g>
<path fill="#FFFFFF" d="M200.425,62.107l12.27,0.778l1.687,5.371l1.001,0.064c-0.046,1.914,1.094,3.738,2.986,4.453
	c2.031,0.765,4.047,1.308,6.027,1.635c3.424,0.565,6.744,0.479,9.897-0.227l1.233,0.079l-0.127-0.365
	c2.401-0.656,4.694-1.686,6.845-3.069c1.165,4.771,2.332,9.539,3.498,14.311c1.31-0.313,12.067-0.098,17.47-0.306
	c-1.961-8.021-4.587-17.223-6.547-25.241c-1.084-4.436-4.655-7.783-9.488-7.088c-3.83,0.553-7.475,4.32-7.248,8.351
	c-2.264,2.152-4.816,3.568-7.59,4.209l-1.663-4.805l5.105,0.324l0.235-3.657l-39.348-2.5l0.242-3.886l-3.659-0.234l-0.364,5.714
	l3.661,0.231l-0.114,1.827l4.229,0.271L200.425,62.107z M216.806,59.376l8.539,0.544l1.893,5.462
	c-1.807-0.159-3.67-0.582-5.594-1.308c-1.127-0.424-2.313-0.367-3.351,0.046L216.806,59.376z"/>
<polygon fill="#FFFFFF" points="255.963,52.426 265.669,49.965 260.978,31.965 262.438,31.584 267.131,49.594 270.942,48.626 
	274.496,50.152 279.103,48.984 286.037,76.316 281.431,77.485 281.396,89.845 266.418,93.643 "/>
<path fill="#FFFFFF" d="M251.256,44.734c-0.938,4.211-4.694,7.363-9.188,7.363c-5.197,0-9.414-4.218-9.414-9.42
	c0-0.252,0.018-0.498,0.037-0.743h9.379C242.065,41.934,246.181,44.061,251.256,44.734z"/>
<path fill="#FFFFFF" d="M252.646,42.967c-5.521-0.73-9.996-3.048-9.996-3.048H232.44h-0.549c0-5.941,4.816-10.759,10.756-10.759
	c5.942,0,10.76,4.817,10.76,10.759c0,1.074-0.163,2.111-0.456,3.091C252.849,42.996,252.747,42.98,252.646,42.967z"/>
<path fill="#FFFFFF" d="M161.03,53.611c-5.782-0.003-10.301-4.575-10.409-10.349c-0.108-5.744,5.312-10.401,10.466-10.437
	c5.33-0.037,10.546,5.146,10.346,10.421C171.231,48.531,167.457,53.676,161.03,53.611z"/>
<path fill="#FFFFFF" d="M152.336,65.189c-0.772,0.455-1.502,1.235-1.901,2.523c-0.561,1.813-0.42,3.47-0.023,4.539l0.658-0.126
	c-0.129-0.84-0.26-2.449,0.246-4.079c0.74-2.392,2.906-2.527,2.906-2.527c1.745,0.278,3.495,0.524,5.252,0.675
	c1.627,0.139,3.227,0.065,4.739-0.351c0.185,0.394,0.382,0.782,0.593,1.167c0.471,0.855,0.452,1.473-0.021,2.254
	c-1.375,2.273-3.411,3.599-5.738,4.39c-1.088-0.003-2.172-0.066-3.256-0.24c-1.054-0.169-2.774-0.354-4.517-0.674l0.518,2.703
	l-0.816,0.157l-0.588-3.069c-2.308-0.522-4.38-1.34-4.643-2.75c-0.88-4.723,3.061-5.196,4.984-4.867
	C151.265,65.005,151.801,65.097,152.336,65.189z"/>
<path fill="#FFFFFF" d="M157.886,74.382c0.537-0.127,1.064-0.275,1.577-0.45c2.326-0.791,4.363-2.116,5.738-4.391
	c0.472-0.781,0.489-1.396,0.021-2.253c-0.212-0.385-0.408-0.773-0.593-1.167c-0.979-2.092-1.515-4.296-1.026-6.717
	c0.619-3.077,3.094-5.94,5.988-7.027c1.65,2.134,7.534,10.308,5.135,15.448l0.754,0.351c1.265-2.71,0.685-6.383-1.725-10.917
	c-1.197-2.254-2.542-4.131-3.313-5.142c0.121-0.03,0.242-0.063,0.363-0.086c2.815-0.537,6.366,1.204,7.986,4.066
	c3.818,6.746,7.041,13.745,8.02,21.534c0.323,2.573,0.369,5.058,0.057,7.423l-18.662,0.178c0.051-2.343,0.002-4.681,0.002-6.922
	c-4.02,1.416-7.564,3.44-11.57,4.078c-0.652,0.104-1.545,0.278-2.544,0.452l-2.39-7.311
	C153.778,75.213,155.849,74.863,157.886,74.382z"/>
<path fill="#FFFFFF" d="M179.709,106.788c0.041-2.335,0.156-4.67,0.315-7c0.031-0.44,0.336-0.977,0.683-1.266
	c2.621-2.181,4.42-4.647,5.567-7.338c1.178,3.38,1.293,6.988-0.094,10.9c-0.125,0.357-0.115,0.874,0.051,1.205
	c0.885,1.749,1.803,3.482,2.774,5.185c3.025,5.297,6.152,10.528,9.97,15.313c0.619,0.775,1.306,1.569,1.652,2.473
	c0.842,2.189-0.041,4.256-2.12,5.411c-1.837,1.021-4.883,0.533-6.075-1.114c-2.651-3.667-5.363-7.303-7.795-11.114
	c-1.718-2.694-3.361-5.438-4.979-8.195C179.667,109.762,179.683,108.275,179.709,106.788z"/>
<path fill="#FFFFFF" d="M168.188,86.066C168.188,86.065,168.188,86.065,168.188,86.066l18.556-0.178
	c-0.263,1.546-0.692,3.036-1.302,4.465c-1.146,2.689-2.946,5.157-5.566,7.338c-0.348,0.289-0.65,0.825-0.682,1.266
	c-0.16,2.33-0.275,4.665-0.316,7c-0.025,1.487-0.043,2.975-0.05,4.46c-0.027,5.779,0.141,11.551,0.935,17.298
	c0.162,1.171,0.381,2.402,0.187,3.54c-0.472,2.755-2.634,4.334-5.468,4.252c-2.502-0.072-5.326-2.428-5.543-4.842
	c-0.482-5.371-1.047-10.747-1.215-16.132c-0.207-6.69-0.101-13.391-0.025-20.087C167.729,91.651,168.095,88.862,168.188,86.066z"/>
<path fill="#FFFFFF" d="M148.872,75.955c0.701-0.104,1.404-0.207,2.105-0.313l-0.232,0.075l2.382,7.285
	c-2.996,0.473-6.515,0.745-7.474-0.871C143.62,78.703,146.942,76.241,148.872,75.955z"/>
<path fill="#FFFFFF" d="M256.597,106.788c0.041-2.335,0.156-4.67,0.316-7c0.029-0.44,0.335-0.977,0.682-1.266
	c2.621-2.181,4.42-4.647,5.567-7.338c1.178,3.38,1.293,6.988-0.093,10.9c-0.127,0.357-0.116,0.874,0.051,1.205
	c0.884,1.749,1.802,3.482,2.773,5.185c3.025,5.297,6.152,10.528,9.971,15.313c0.619,0.775,1.305,1.569,1.652,2.473
	c0.842,2.189-0.041,4.256-2.119,5.411c-1.838,1.021-4.883,0.533-6.076-1.114c-2.651-3.667-5.363-7.303-7.795-11.114
	c-1.717-2.694-3.36-5.438-4.979-8.195C256.554,109.762,256.571,108.275,256.597,106.788z"/>
<path fill="#FFFFFF" d="M245.077,86.066C245.077,86.065,245.077,86.065,245.077,86.066l18.555-0.178
	c-0.263,1.546-0.691,3.036-1.301,4.465c-1.146,2.689-2.947,5.157-5.566,7.338c-0.348,0.289-0.652,0.825-0.683,1.266
	c-0.16,2.33-0.274,4.665-0.315,7c-0.026,1.487-0.043,2.975-0.051,4.46c-0.027,5.779,0.141,11.551,0.936,17.298
	c0.162,1.171,0.381,2.402,0.186,3.54c-0.471,2.755-2.634,4.334-5.467,4.252c-2.503-0.072-5.326-2.428-5.543-4.842
	c-0.483-5.371-1.047-10.747-1.215-16.132c-0.209-6.69-0.102-13.391-0.026-20.087C244.618,91.651,244.983,88.862,245.077,86.066z"/>
<g>
	<text transform="matrix(1 0 0 1 17.0371 97.1228)" fill="#FFFFFF" font-family="'WWF'" font-size="97.5502">223</text>
	<text transform="matrix(1 0 0 1 17.0078 114.5095)" fill="#FFFFFF" font-family="'Georgia'" font-size="14">wildlife poachers </text>
	<text transform="matrix(1 0 0 1 0 131.3093)" fill="#FFFFFF" font-family="'Georgia'" font-size="14">and traders arrested</text>
</g>
</svg>
