<?xml version="1.0" encoding="utf-8"?>
<!-- Generator: Adobe Illustrator 17.0.0, SVG Export Plug-In . SVG Version: 6.00 Build 0)  -->
<!DOCTYPE svg PUBLIC "-//W3C//DTD SVG 1.1//EN" "http://www.w3.org/Graphics/SVG/1.1/DTD/svg11.dtd">
<svg version="1.1" id="Layer_1" xmlns="http://www.w3.org/2000/svg" xmlns:xlink="http://www.w3.org/1999/xlink" x="0px" y="0px"
	 width="100.8px" height="56.325px" viewBox="0 0 100.8 56.325" enable-background="new 0 0 100.8 56.325" xml:space="preserve">
<path fill="#FFFFFF" d="M12.679,16.004l4.526,0.287l1.004,2.893c-0.958-0.084-1.946-0.308-2.966-0.692
	c-0.599-0.225-1.226-0.195-1.776,0.024L12.679,16.004z M3.995,17.45l6.505,0.413l0.894,2.845l0.53,0.034
	c-0.024,1.013,0.579,1.979,1.583,2.358c1.077,0.405,2.145,0.693,3.196,0.866c1.814,0.299,3.575,0.253,5.246-0.121l0.654,0.043
	l-0.067-0.194c1.273-0.347,2.488-0.892,3.629-1.625c0.618,2.526,1.236,5.053,1.854,7.579c0.694-0.166,6.397-0.051,9.261-0.162
	c-1.039-4.248-2.431-9.121-3.47-13.368c-0.574-2.35-2.468-4.123-5.03-3.755c-2.031,0.292-3.963,2.288-3.842,4.423
	c-1.201,1.14-2.553,1.89-4.024,2.229l-0.881-2.544l2.706,0.171l0.124-1.937L2.004,13.381l0.129-2.058l-1.94-0.125L0,14.225
	l1.941,0.123L1.88,15.316l2.242,0.142L3.995,17.45z"/>
<polygon fill="#FFFFFF" points="33.438,12.323 38.583,11.019 36.096,1.486 36.87,1.284 39.358,10.823 41.378,10.31 43.262,11.118 
	45.705,10.5 49.381,24.976 46.938,25.595 46.921,32.141 38.98,34.152 "/>
<path fill="#FFFFFF" d="M30.942,8.249c-0.498,2.23-2.489,3.9-4.871,3.9c-2.756,0-4.991-2.234-4.991-4.989
	c0-0.133,0.01-0.264,0.02-0.393h4.972C26.071,6.766,28.252,7.893,30.942,8.249"/>
<path fill="#FFFFFF" d="M31.679,7.313c-2.927-0.388-5.3-1.614-5.3-1.614h-5.412h-0.291C20.676,2.551,23.229,0,26.379,0
	c3.15,0,5.703,2.551,5.703,5.699c0,0.569-0.086,1.118-0.242,1.637C31.786,7.328,31.733,7.32,31.679,7.313"/>
<path fill="#FFFFFF" d="M33.773,41.115c0.022-1.237,0.083-2.474,0.168-3.707c0.016-0.233,0.177-0.517,0.361-0.67
	c1.389-1.155,2.343-2.461,2.951-3.886c0.625,1.79,0.685,3.701-0.049,5.773c-0.067,0.19-0.062,0.463,0.027,0.639
	c0.469,0.926,0.956,1.844,1.471,2.745c1.604,2.805,3.261,5.577,5.285,8.11c0.329,0.41,0.692,0.831,0.876,1.31
	c0.447,1.159-0.021,2.254-1.123,2.866c-0.974,0.54-2.589,0.282-3.22-0.591c-1.406-1.942-2.844-3.867-4.133-5.886
	c-0.911-1.428-1.782-2.88-2.64-4.341C33.75,42.69,33.76,41.903,33.773,41.115"/>
<path fill="#FFFFFF" d="M27.666,30.14L27.666,30.14l9.836-0.095c-0.139,0.819-0.366,1.608-0.689,2.365
	c-0.609,1.426-1.563,2.732-2.952,3.887c-0.184,0.153-0.345,0.436-0.361,0.67c-0.085,1.234-0.146,2.47-0.168,3.707
	c-0.014,0.787-0.022,1.575-0.026,2.362c-0.015,3.061,0.075,6.118,0.495,9.162c0.086,0.62,0.202,1.272,0.099,1.874
	c-0.25,1.46-1.397,2.296-2.899,2.252c-1.327-0.038-2.823-1.286-2.938-2.564c-0.256-2.845-0.555-5.692-0.644-8.545
	c-0.111-3.543-0.054-7.092-0.014-10.638C27.423,33.098,27.617,31.621,27.666,30.14"/>
<path fill="#FFFFFF" d="M87.332,18.516c-0.55-0.219-1.178-0.249-1.776-0.024c-1.02,0.384-2.008,0.608-2.966,0.693l1.003-2.894
	l4.527-0.287L87.332,18.516z M96.678,15.459l2.242-0.143l-0.061-0.968l1.941-0.122l-0.193-3.027l-1.94,0.124l0.129,2.059
	l-20.859,1.324l0.124,1.937l2.706-0.172l-0.881,2.544c-1.471-0.338-2.823-1.089-4.024-2.229c0.121-2.134-1.811-4.13-3.842-4.422
	c-2.562-0.369-4.455,1.404-5.03,3.754c-1.039,4.247-2.431,9.121-3.471,13.369c2.865,0.11,8.567-0.004,9.262,0.162
	c0.618-2.527,1.237-5.053,1.854-7.579c1.14,0.733,2.356,1.278,3.629,1.625l-0.068,0.193l0.655-0.042
	c1.672,0.373,3.431,0.42,5.246,0.121c1.05-0.173,2.119-0.461,3.196-0.866c1.004-0.379,1.607-1.345,1.583-2.359l0.53-0.034
	l0.894-2.845l6.505-0.412L96.678,15.459z"/>
<polygon fill="#FFFFFF" points="67.362,12.323 62.216,11.019 64.703,1.486 63.929,1.284 61.441,10.823 59.421,10.31 57.537,11.118 
	55.095,10.5 51.419,24.976 53.862,25.595 53.879,32.141 61.82,34.152 "/>
<path fill="#FFFFFF" d="M69.857,8.249c0.498,2.23,2.489,3.9,4.871,3.9c2.756,0,4.991-2.234,4.991-4.989
	c0-0.133-0.01-0.264-0.02-0.393h-4.972C74.729,6.766,72.548,7.893,69.857,8.249"/>
<path fill="#FFFFFF" d="M69.12,7.313c2.927-0.388,5.3-1.614,5.3-1.614h5.412h0.291C80.123,2.551,77.57,0,74.42,0
	c-3.15,0-5.704,2.551-5.704,5.699c0,0.569,0.087,1.118,0.242,1.637C69.013,7.328,69.066,7.32,69.12,7.313"/>
<path fill="#FFFFFF" d="M67.025,41.115c-0.022-1.237-0.083-2.474-0.168-3.707c-0.016-0.233-0.177-0.517-0.361-0.67
	c-1.389-1.155-2.343-2.461-2.951-3.886c-0.625,1.79-0.685,3.701,0.049,5.773c0.067,0.19,0.062,0.463-0.027,0.639
	c-0.469,0.926-0.956,1.844-1.471,2.745c-1.604,2.805-3.261,5.577-5.285,8.11c-0.329,0.41-0.692,0.831-0.877,1.31
	c-0.446,1.159,0.022,2.254,1.124,2.866c0.974,0.54,2.589,0.282,3.22-0.591c1.406-1.942,2.844-3.867,4.133-5.886
	c0.91-1.428,1.782-2.88,2.64-4.341C67.048,42.69,67.039,41.903,67.025,41.115"/>
<path fill="#FFFFFF" d="M73.133,30.14L73.133,30.14l-9.836-0.095c0.139,0.819,0.366,1.608,0.689,2.365
	c0.609,1.426,1.563,2.732,2.952,3.887c0.184,0.153,0.345,0.436,0.361,0.67c0.085,1.234,0.146,2.47,0.168,3.707
	c0.014,0.787,0.022,1.575,0.026,2.362c0.015,3.061-0.075,6.118-0.495,9.162c-0.086,0.62-0.202,1.272-0.099,1.874
	c0.25,1.46,1.397,2.296,2.899,2.252c1.327-0.038,2.823-1.286,2.938-2.564c0.256-2.845,0.555-5.692,0.644-8.545
	c0.11-3.543,0.054-7.092,0.013-10.638C73.377,33.098,73.183,31.621,73.133,30.14"/>
</svg>
