<?xml version="1.0" encoding="utf-8"?>
<!-- Generator: Adobe Illustrator 16.0.0, SVG Export Plug-In . SVG Version: 6.00 Build 0)  -->
<!DOCTYPE svg PUBLIC "-//W3C//DTD SVG 1.1//EN" "http://www.w3.org/Graphics/SVG/1.1/DTD/svg11.dtd">
<svg version="1.1" id="Layer_1" xmlns="http://www.w3.org/2000/svg" xmlns:xlink="http://www.w3.org/1999/xlink" x="0px" y="0px"
	 width="288px" height="144px" viewBox="0 0 288 144" enable-background="new 0 0 288 144" xml:space="preserve">
<g>
	<g>
		<g>
			<path fill="#FFFFFF" d="M181.846,26.276c21.523-19.47,53.735-19.768,75.557-1.995l-9.81,0.655
				c-2.233,0.089-3.96,1.935-3.87,4.168c0.09,2.173,1.877,3.87,4.02,3.87c0.061,0,0.089,0,0.148,0l19.069-0.982
				c2.173-0.089,3.87-1.846,3.87-4.019v-0.298c0-0.06,0-0.089,0-0.149v-0.03l0,0l-0.982-19.841c-0.089-2.233-1.965-3.96-4.168-3.87
				c-2.232,0.089-3.959,1.935-3.869,4.168l0.625,10.046C251.628,9.157,238.32,4.037,224.09,3.322
				c-17.624-0.893-34.564,5.15-47.633,16.999c-17.982,16.285-25.604,41.054-19.887,64.632c0.447,1.846,2.084,3.066,3.9,3.066
				c0.326,0,0.625-0.03,0.952-0.119c2.144-0.536,3.483-2.709,2.947-4.854C159.368,62.328,166.037,40.566,181.846,26.276z"/>
		</g>
		<g>
			<path fill="#FFFFFF" d="M286.132,55.57c-0.536-2.143-2.709-3.483-4.853-2.947c-2.145,0.536-3.483,2.709-2.947,4.853
				c5.031,20.719-1.667,42.483-17.475,56.773c-11.105,10.033-25.037,14.976-38.91,14.976c-13.248,0-26.467-4.496-37.124-13.367
				l11.088-1.578c2.202-0.209,3.84-2.145,3.632-4.377s-2.143-3.84-4.376-3.631l-20.049,2.381c-2.203,0.209-3.841,2.145-3.632,4.377
				l2.382,21.119c0.179,2.084,1.935,3.662,3.989,3.662c0.119,0,0.238,0,0.356-0.031c2.203-0.207,3.841-2.144,3.632-4.375
				l-1.429-10.758c10.808,8.752,24.056,13.842,38.196,14.558c1.131,0.06,2.263,0.089,3.363,0.089
				c16.404,0,32.004-6.014,44.27-17.088C284.227,103.918,291.848,79.178,286.132,55.57z"/>
		</g>
	</g>
</g>
<g>
	<path fill="#FFFFFF" d="M222.354,78.232c-4.865,0.531-13.521,1.457-16.062,2.221v-4.092h10.002l-0.356-1.084l0.023,0.115
		l-7.639-7.135l0.837-1.039l4.872,2.24l-2.024-6.168l-6.313-5.907l0.828-1.037l3.781,1.736l-0.595-1.824l-6.587-20.104
		l-5.686,17.374l4.293-1.976l0.836,1.037l-6.957,6.501l-1.813,5.55l4.433-2.042l0.836,1.04l-7.127,6.662l-1.094,3.342l2.801,2.715
		h5.994c0,0,1.443,5.65,0,5.815c-11.91,1.358-11.605,12.757-11.605,12.757c6.285,0,48.709,0,48.709,0h4.072h18.346
		c-0.133-6.189-5.244-10.688-12.613-13.5V77h8.717l-1.666-5.043l-5.99-5.541l0.705-0.864l3.728,1.697l-1.526-4.617l-5.849-5.408
		l0.704-0.864l3.609,1.642l-4.777-14.452l-4.733,14.305l-7.319-22.139l-5.594,16.905l4.223-1.923l0.822,1.008l-6.842,6.329
		l-1.781,5.4l4.361-1.982l0.814,1.008l-6.996,6.48l-1.952,5.9h10.196v3.205c-2.207-0.129-4.438-0.157-6.664-0.101
		C222.602,78.039,222.482,78.137,222.354,78.232c1.135-0.127,1.977-0.221,2.442-0.277 M234.576,77h7.537v3.01
		c-2.385-0.636-4.918-1.128-7.537-1.472V77z"/>
</g>
<g>
	<g enable-background="new    ">
		<path fill="#FFFFFF" d="M100.056,76.178h-6.243v14.827H84.74V76.178H67.864v-8l16.583-47.409h9.365v46.727h6.243V76.178z
			 M84.74,67.495V41.839l-8.877,25.656H84.74z"/>
		<path fill="#FFFFFF" d="M119.175,27.89c-2.602,0-4.911,1.431-6.926,4.292l-6.049-5.561c2.927-4.812,7.381-7.219,13.364-7.219
			c5.269,0,9.007,1.448,11.219,4.341c2.21,2.895,3.316,6.975,3.316,12.242v5.658c0,3.643-0.553,6.406-1.658,8.292
			c-1.106,1.887-2.992,3.155-5.658,3.805c2.405,0.456,4.308,1.772,5.707,3.951c1.397,2.18,2.098,5.121,2.098,8.828v7.121
			c0,5.789-1.171,10.341-3.512,13.657c-2.342,3.316-6.375,4.976-12.097,4.976c-3.121,0-5.821-0.717-8.097-2.146
			c-2.277-1.43-3.968-3.088-5.072-4.975l6.341-6.244c2.21,3.058,4.551,4.585,7.023,4.585c2.08,0,3.544-0.764,4.39-2.292
			c0.845-1.527,1.269-4.049,1.269-7.561v-4.877c0-2.405-0.146-4.275-0.439-5.609c-0.293-1.332-0.862-2.292-1.707-2.878
			c-0.846-0.585-1.658-0.941-2.438-1.073c-0.78-0.129-2.082-0.194-3.902-0.194h-1.365v-8.975h1.365c1.625,0,2.813-0.064,3.561-0.195
			c0.747-0.13,1.527-0.488,2.341-1.073c0.813-0.585,1.366-1.544,1.659-2.878c0.292-1.332,0.438-3.17,0.438-5.511v-4.097
			c0-2.731-0.375-4.812-1.122-6.243C122.475,28.606,121.126,27.89,119.175,27.89z"/>
	</g>
	<g>
		<rect x="20.106" y="99.605" fill="none" width="115.327" height="32"/>
	</g>
	<g enable-background="new    ">
		<path fill="#FFFFFF" d="M38.205,102.915h-0.513c-0.096-0.36-0.295-0.745-0.598-1.155s-0.594-0.636-0.872-0.677
			c-0.141-0.019-0.309-0.032-0.502-0.041s-0.414-0.014-0.66-0.014h-1.627v3.896h1.117c0.338,0,0.601-0.035,0.788-0.105
			c0.188-0.071,0.348-0.18,0.48-0.325c0.091-0.101,0.175-0.257,0.25-0.468c0.076-0.213,0.125-0.439,0.147-0.681h0.513v3.814h-0.513
			c-0.014-0.2-0.061-0.429-0.141-0.684s-0.166-0.439-0.257-0.554c-0.137-0.169-0.31-0.283-0.518-0.346
			c-0.208-0.061-0.458-0.092-0.75-0.092h-1.117v3.337c0,0.15,0.03,0.285,0.089,0.403s0.164,0.214,0.314,0.286
			c0.068,0.032,0.216,0.071,0.444,0.116c0.228,0.046,0.401,0.07,0.52,0.075v0.485h-4.204v-0.485
			c0.137-0.009,0.319-0.024,0.547-0.044c0.228-0.021,0.376-0.047,0.444-0.079c0.137-0.06,0.236-0.147,0.297-0.263
			c0.062-0.117,0.092-0.257,0.092-0.421v-7c0-0.15-0.025-0.284-0.075-0.399c-0.05-0.117-0.155-0.211-0.314-0.284
			c-0.123-0.06-0.288-0.111-0.496-0.157s-0.373-0.073-0.496-0.082v-0.485h7.608V102.915z"/>
		<path fill="#FFFFFF" d="M45.465,106.75c0,0.474-0.075,0.94-0.226,1.397c-0.151,0.459-0.365,0.847-0.644,1.166
			c-0.315,0.364-0.68,0.636-1.095,0.813s-0.881,0.267-1.396,0.267c-0.429,0-0.837-0.081-1.225-0.242
			c-0.388-0.162-0.732-0.398-1.033-0.708c-0.296-0.306-0.533-0.678-0.708-1.118c-0.175-0.439-0.263-0.933-0.263-1.479
			c0-1.053,0.307-1.914,0.92-2.584c0.613-0.67,1.417-1.005,2.412-1.005c0.944,0,1.723,0.318,2.337,0.953
			C45.158,104.847,45.465,105.692,45.465,106.75z M44.05,106.764c0-0.342-0.034-0.703-0.103-1.083
			c-0.069-0.381-0.171-0.703-0.309-0.968c-0.146-0.282-0.338-0.509-0.575-0.681c-0.237-0.17-0.527-0.256-0.87-0.256
			c-0.352,0-0.652,0.087-0.9,0.26c-0.249,0.173-0.451,0.41-0.606,0.711c-0.146,0.278-0.249,0.595-0.309,0.95
			c-0.059,0.355-0.089,0.699-0.089,1.032c0,0.438,0.035,0.842,0.106,1.213c0.071,0.372,0.184,0.703,0.339,0.995
			s0.35,0.521,0.585,0.687c0.235,0.167,0.526,0.25,0.873,0.25c0.571,0,1.023-0.275,1.356-0.827
			C43.883,108.495,44.05,107.734,44.05,106.764z"/>
		<path fill="#FFFFFF" d="M51.597,104.316c0,0.232-0.057,0.438-0.171,0.618c-0.114,0.181-0.29,0.271-0.526,0.271
			c-0.255,0-0.45-0.066-0.584-0.198s-0.202-0.278-0.202-0.438c0-0.101,0.008-0.191,0.024-0.273s0.031-0.164,0.044-0.246
			c-0.214,0-0.465,0.087-0.752,0.26s-0.531,0.419-0.731,0.738v3.924c0,0.159,0.031,0.289,0.092,0.39s0.158,0.176,0.291,0.226
			c0.114,0.046,0.261,0.08,0.441,0.103s0.336,0.039,0.468,0.048v0.451h-3.555v-0.451c0.105-0.009,0.213-0.019,0.325-0.027
			s0.208-0.027,0.291-0.055c0.127-0.041,0.222-0.112,0.284-0.215s0.092-0.235,0.092-0.399v-4.158c0-0.142-0.033-0.28-0.099-0.417
			c-0.066-0.136-0.158-0.245-0.277-0.327c-0.086-0.055-0.189-0.095-0.308-0.12c-0.119-0.024-0.246-0.042-0.383-0.051v-0.451
			l2.242-0.15l0.096,0.096v0.95h0.034c0.283-0.369,0.597-0.649,0.943-0.841s0.663-0.287,0.95-0.287s0.521,0.094,0.701,0.28
			S51.597,104.002,51.597,104.316z"/>
		<path fill="#FFFFFF" d="M58.159,108.603c-0.283,0.538-0.661,0.966-1.135,1.285s-1.019,0.479-1.634,0.479
			c-0.542,0-1.018-0.096-1.425-0.287s-0.744-0.451-1.008-0.779s-0.461-0.711-0.591-1.148s-0.195-0.9-0.195-1.388
			c0-0.438,0.069-0.867,0.208-1.288c0.139-0.422,0.343-0.802,0.612-1.139c0.26-0.323,0.582-0.584,0.967-0.783
			c0.385-0.197,0.817-0.297,1.295-0.297c0.492,0,0.914,0.077,1.265,0.232s0.636,0.367,0.854,0.636
			c0.209,0.255,0.366,0.556,0.468,0.902s0.154,0.723,0.154,1.128v0.451h-4.464c0,0.443,0.042,0.845,0.126,1.206
			c0.084,0.36,0.218,0.678,0.4,0.952c0.178,0.265,0.41,0.474,0.697,0.627s0.629,0.229,1.025,0.229c0.406,0,0.755-0.095,1.049-0.285
			s0.578-0.532,0.851-1.027L58.159,108.603z M56.648,106.032c0-0.255-0.021-0.527-0.065-0.817c-0.043-0.291-0.113-0.534-0.208-0.729
			c-0.105-0.209-0.249-0.38-0.431-0.512s-0.417-0.197-0.704-0.197c-0.479,0-0.876,0.199-1.193,0.597s-0.489,0.95-0.516,1.659H56.648
			z"/>
		<path fill="#FFFFFF" d="M63.389,106.887c0.187,0.164,0.33,0.354,0.431,0.567s0.15,0.477,0.15,0.786
			c0,0.624-0.233,1.135-0.701,1.531c-0.467,0.396-1.072,0.595-1.814,0.595c-0.392,0-0.753-0.07-1.083-0.212s-0.566-0.271-0.708-0.39
			l-0.137,0.444h-0.513l-0.068-2.345h0.472c0.037,0.179,0.114,0.387,0.232,0.624c0.119,0.238,0.262,0.453,0.431,0.645
			c0.178,0.202,0.391,0.371,0.639,0.508c0.249,0.138,0.527,0.206,0.837,0.206c0.438,0,0.774-0.1,1.012-0.299
			s0.355-0.485,0.355-0.856c0-0.191-0.038-0.356-0.112-0.495c-0.076-0.14-0.187-0.262-0.332-0.366
			c-0.15-0.104-0.335-0.199-0.554-0.284c-0.219-0.084-0.462-0.167-0.731-0.249c-0.214-0.063-0.452-0.151-0.714-0.263
			c-0.262-0.112-0.486-0.243-0.673-0.394c-0.201-0.159-0.365-0.355-0.492-0.588s-0.191-0.506-0.191-0.82
			c0-0.552,0.205-1.019,0.615-1.401s0.959-0.574,1.647-0.574c0.264,0,0.534,0.034,0.811,0.103c0.275,0.068,0.5,0.15,0.673,0.246
			l0.157-0.355h0.492l0.103,2.167h-0.472c-0.096-0.485-0.302-0.88-0.619-1.185c-0.316-0.304-0.703-0.456-1.158-0.456
			c-0.374,0-0.667,0.094-0.882,0.282s-0.321,0.415-0.321,0.682c0,0.205,0.035,0.376,0.106,0.513s0.177,0.253,0.318,0.349
			c0.137,0.091,0.309,0.177,0.516,0.257c0.208,0.079,0.464,0.169,0.769,0.27c0.301,0.096,0.584,0.207,0.852,0.335
			C62.995,106.591,63.216,106.731,63.389,106.887z"/>
		<path fill="#FFFFFF" d="M69.151,109.895c-0.296,0.123-0.576,0.227-0.841,0.312c-0.265,0.084-0.588,0.126-0.971,0.126
			c-0.565,0-0.963-0.143-1.193-0.427c-0.229-0.285-0.345-0.688-0.345-1.207v-4.566h-1.217v-0.656h1.244v-2.099h1.244v2.099h1.935
			v0.656h-1.921v3.767c0,0.282,0.011,0.519,0.03,0.708c0.021,0.188,0.07,0.354,0.147,0.495c0.073,0.132,0.183,0.232,0.328,0.301
			s0.342,0.103,0.588,0.103c0.114,0,0.281-0.01,0.503-0.031c0.221-0.02,0.377-0.046,0.468-0.078V109.895z"/>
		<path fill="#FFFFFF" d="M81.21,101.637c0.429,0.446,0.764,0.985,1.005,1.616c0.241,0.632,0.362,1.33,0.362,2.096
			c0,0.771-0.123,1.47-0.369,2.099s-0.588,1.164-1.025,1.606c-0.424,0.438-0.916,0.774-1.477,1.012s-1.157,0.355-1.791,0.355
			c-0.675,0-1.298-0.127-1.869-0.379c-0.572-0.254-1.063-0.605-1.474-1.057c-0.41-0.442-0.732-0.979-0.968-1.609
			c-0.234-0.632-0.352-1.308-0.352-2.027c0-0.788,0.123-1.491,0.369-2.109c0.246-0.617,0.586-1.151,1.019-1.603
			c0.429-0.446,0.927-0.788,1.493-1.025c0.568-0.237,1.161-0.355,1.781-0.355c0.643,0,1.249,0.121,1.818,0.362
			S80.795,101.199,81.21,101.637z M80.191,108.514c0.255-0.415,0.44-0.884,0.558-1.408c0.115-0.524,0.174-1.109,0.174-1.757
			c0-0.665-0.064-1.276-0.195-1.832c-0.129-0.556-0.319-1.03-0.57-1.422c-0.251-0.388-0.565-0.689-0.943-0.906
			c-0.378-0.216-0.812-0.324-1.299-0.324c-0.547,0-1.012,0.125-1.395,0.376s-0.695,0.586-0.937,1.005
			c-0.228,0.401-0.397,0.87-0.509,1.408c-0.112,0.538-0.168,1.103-0.168,1.695c0,0.656,0.06,1.249,0.178,1.777
			s0.306,0.998,0.561,1.408c0.246,0.401,0.556,0.715,0.93,0.939c0.374,0.227,0.82,0.339,1.34,0.339c0.487,0,0.928-0.114,1.319-0.342
			S79.945,108.924,80.191,108.514z"/>
		<path fill="#FFFFFF" d="M89.775,104.248c0.269,0.319,0.478,0.689,0.626,1.11c0.147,0.422,0.222,0.904,0.222,1.446
			c0,0.533-0.089,1.02-0.267,1.46c-0.178,0.439-0.412,0.814-0.704,1.124c-0.306,0.314-0.645,0.556-1.019,0.725
			s-0.771,0.253-1.189,0.253c-0.405,0-0.738-0.046-0.998-0.137s-0.472-0.198-0.636-0.321h-0.055v2.028
			c0,0.164,0.032,0.302,0.096,0.411s0.162,0.189,0.294,0.24c0.109,0.041,0.266,0.08,0.469,0.119c0.202,0.039,0.37,0.061,0.502,0.065
			v0.451H83.35v-0.451c0.142-0.009,0.278-0.021,0.41-0.034s0.251-0.036,0.355-0.068c0.137-0.046,0.232-0.125,0.287-0.239
			s0.082-0.248,0.082-0.403v-7.171c0-0.137-0.034-0.269-0.103-0.396s-0.157-0.23-0.267-0.308c-0.082-0.055-0.196-0.097-0.342-0.126
			c-0.146-0.03-0.287-0.05-0.424-0.059v-0.451l2.297-0.15l0.096,0.082v0.759l0.055,0.014c0.237-0.273,0.531-0.501,0.882-0.684
			s0.699-0.273,1.046-0.273c0.419,0,0.804,0.089,1.151,0.267C89.226,103.708,89.524,103.947,89.775,104.248z M88.661,109.095
			c0.183-0.282,0.316-0.61,0.403-0.984s0.13-0.791,0.13-1.251c0-0.337-0.036-0.682-0.109-1.032s-0.187-0.656-0.342-0.916
			c-0.155-0.265-0.357-0.479-0.608-0.643s-0.552-0.246-0.902-0.246c-0.337,0-0.624,0.074-0.861,0.223
			c-0.237,0.147-0.442,0.324-0.615,0.529v3.985c0.041,0.123,0.108,0.251,0.202,0.383c0.093,0.132,0.196,0.246,0.311,0.342
			c0.142,0.114,0.294,0.206,0.458,0.276c0.164,0.071,0.364,0.106,0.602,0.106c0.255,0,0.501-0.067,0.738-0.202
			C88.304,109.531,88.502,109.341,88.661,109.095z"/>
		<path fill="#FFFFFF" d="M97.603,108.603c-0.282,0.538-0.661,0.966-1.135,1.285s-1.019,0.479-1.634,0.479
			c-0.542,0-1.018-0.096-1.425-0.287c-0.408-0.191-0.744-0.451-1.009-0.779s-0.462-0.711-0.591-1.148
			c-0.131-0.438-0.195-0.9-0.195-1.388c0-0.438,0.069-0.867,0.209-1.288c0.139-0.422,0.343-0.802,0.611-1.139
			c0.26-0.323,0.582-0.584,0.967-0.783c0.386-0.197,0.817-0.297,1.296-0.297c0.492,0,0.914,0.077,1.265,0.232
			s0.636,0.367,0.854,0.636c0.21,0.255,0.366,0.556,0.468,0.902c0.104,0.347,0.154,0.723,0.154,1.128v0.451h-4.464
			c0,0.443,0.042,0.845,0.126,1.206c0.085,0.36,0.218,0.678,0.4,0.952c0.178,0.265,0.41,0.474,0.697,0.627s0.629,0.229,1.025,0.229
			c0.405,0,0.756-0.095,1.049-0.285c0.295-0.19,0.578-0.532,0.852-1.027L97.603,108.603z M96.092,106.032
			c0-0.255-0.021-0.527-0.065-0.817c-0.043-0.291-0.112-0.534-0.208-0.729c-0.104-0.209-0.248-0.38-0.431-0.512
			s-0.417-0.197-0.704-0.197c-0.479,0-0.876,0.199-1.192,0.597c-0.317,0.397-0.489,0.95-0.517,1.659H96.092z"/>
		<path fill="#FFFFFF" d="M103.543,104.316c0,0.232-0.057,0.438-0.171,0.618c-0.114,0.181-0.289,0.271-0.526,0.271
			c-0.255,0-0.45-0.066-0.585-0.198c-0.134-0.132-0.201-0.278-0.201-0.438c0-0.101,0.008-0.191,0.023-0.273
			c0.017-0.082,0.031-0.164,0.045-0.246c-0.214,0-0.465,0.087-0.752,0.26s-0.531,0.419-0.731,0.738v3.924
			c0,0.159,0.03,0.289,0.093,0.39c0.061,0.101,0.158,0.176,0.29,0.226c0.114,0.046,0.261,0.08,0.44,0.103
			c0.181,0.022,0.337,0.039,0.469,0.048v0.451h-3.555v-0.451c0.104-0.009,0.213-0.019,0.324-0.027
			c0.112-0.009,0.209-0.027,0.291-0.055c0.128-0.041,0.223-0.112,0.283-0.215c0.063-0.103,0.093-0.235,0.093-0.399v-4.158
			c0-0.142-0.033-0.28-0.099-0.417c-0.066-0.136-0.159-0.245-0.277-0.327c-0.087-0.055-0.189-0.095-0.308-0.12
			c-0.118-0.024-0.246-0.042-0.383-0.051v-0.451l2.242-0.15l0.096,0.096v0.95h0.034c0.282-0.369,0.597-0.649,0.943-0.841
			s0.663-0.287,0.95-0.287s0.521,0.094,0.7,0.28C103.453,103.751,103.543,104.002,103.543,104.316z"/>
		<path fill="#FFFFFF" d="M110.502,110.065c-0.214,0.077-0.402,0.141-0.564,0.188c-0.161,0.049-0.345,0.072-0.55,0.072
			c-0.355,0-0.64-0.083-0.851-0.25c-0.213-0.166-0.348-0.408-0.407-0.728h-0.041c-0.296,0.328-0.614,0.579-0.954,0.752
			c-0.339,0.173-0.748,0.26-1.227,0.26c-0.506,0-0.922-0.155-1.248-0.465c-0.325-0.31-0.488-0.716-0.488-1.217
			c0-0.26,0.036-0.492,0.109-0.697s0.183-0.39,0.328-0.554c0.114-0.137,0.265-0.259,0.451-0.365
			c0.187-0.107,0.362-0.193,0.526-0.257c0.205-0.077,0.621-0.221,1.247-0.431c0.627-0.21,1.05-0.374,1.269-0.492v-0.677
			c0-0.06-0.013-0.173-0.038-0.342c-0.024-0.169-0.078-0.328-0.16-0.479c-0.091-0.169-0.22-0.315-0.387-0.44
			c-0.166-0.126-0.401-0.188-0.707-0.188c-0.21,0-0.404,0.035-0.584,0.106c-0.181,0.07-0.307,0.145-0.38,0.222
			c0,0.091,0.021,0.226,0.065,0.403c0.043,0.178,0.064,0.342,0.064,0.492c0,0.159-0.072,0.306-0.215,0.438
			c-0.145,0.132-0.344,0.198-0.599,0.198c-0.228,0-0.396-0.081-0.503-0.243c-0.106-0.161-0.16-0.343-0.16-0.543
			c0-0.21,0.074-0.41,0.223-0.602c0.147-0.191,0.34-0.362,0.577-0.513c0.205-0.128,0.453-0.235,0.745-0.325
			c0.292-0.088,0.576-0.133,0.854-0.133c0.383,0,0.717,0.026,1.001,0.078c0.285,0.053,0.544,0.166,0.776,0.339
			c0.232,0.169,0.409,0.397,0.53,0.687c0.12,0.29,0.181,0.662,0.181,1.118c0,0.651-0.007,1.229-0.021,1.733
			c-0.014,0.503-0.021,1.054-0.021,1.65c0,0.178,0.03,0.319,0.093,0.424c0.061,0.104,0.155,0.193,0.283,0.267
			c0.068,0.041,0.177,0.063,0.324,0.068c0.148,0.005,0.3,0.007,0.455,0.007V110.065z M108.116,106.456
			c-0.388,0.114-0.727,0.227-1.019,0.336s-0.563,0.246-0.813,0.411c-0.228,0.155-0.408,0.339-0.54,0.551
			c-0.132,0.213-0.198,0.465-0.198,0.758c0,0.379,0.099,0.657,0.298,0.835c0.197,0.179,0.449,0.268,0.755,0.268
			c0.323,0,0.608-0.079,0.854-0.236s0.453-0.344,0.622-0.559L108.116,106.456z"/>
		<path fill="#FFFFFF" d="M115.335,109.895c-0.296,0.123-0.576,0.227-0.841,0.312c-0.265,0.084-0.588,0.126-0.971,0.126
			c-0.565,0-0.963-0.143-1.193-0.427c-0.229-0.285-0.345-0.688-0.345-1.207v-4.566h-1.217v-0.656h1.244v-2.099h1.244v2.099h1.935
			v0.656h-1.921v3.767c0,0.282,0.011,0.519,0.03,0.708c0.021,0.188,0.07,0.354,0.147,0.495c0.073,0.132,0.183,0.232,0.328,0.301
			s0.342,0.103,0.588,0.103c0.114,0,0.281-0.01,0.503-0.031c0.221-0.02,0.377-0.046,0.468-0.078V109.895z"/>
		<path fill="#FFFFFF" d="M119.272,110.188h-3.254v-0.451c0.104-0.009,0.213-0.019,0.324-0.027c0.112-0.009,0.209-0.027,0.291-0.055
			c0.128-0.041,0.223-0.112,0.283-0.215c0.063-0.103,0.093-0.235,0.093-0.399v-4.158c0-0.146-0.033-0.279-0.099-0.399
			c-0.066-0.121-0.159-0.222-0.277-0.304c-0.087-0.055-0.212-0.102-0.376-0.14c-0.164-0.039-0.314-0.063-0.451-0.072v-0.451
			l2.379-0.15l0.096,0.096v5.496c0,0.159,0.03,0.292,0.092,0.396c0.061,0.104,0.157,0.183,0.288,0.232
			c0.1,0.041,0.197,0.074,0.292,0.1c0.096,0.024,0.201,0.042,0.319,0.051V110.188z M118.418,100.707c0,0.26-0.085,0.486-0.257,0.681
			c-0.17,0.193-0.381,0.29-0.632,0.29c-0.232,0-0.435-0.093-0.604-0.276c-0.172-0.186-0.257-0.396-0.257-0.633
			c0-0.251,0.085-0.47,0.257-0.656c0.17-0.187,0.372-0.28,0.604-0.28c0.26,0,0.473,0.088,0.64,0.263
			C118.335,100.271,118.418,100.475,118.418,100.707z"/>
		<path fill="#FFFFFF" d="M126.683,106.75c0,0.474-0.075,0.94-0.226,1.397c-0.15,0.459-0.365,0.847-0.644,1.166
			c-0.314,0.364-0.68,0.636-1.095,0.813s-0.881,0.267-1.396,0.267c-0.429,0-0.837-0.081-1.225-0.242
			c-0.388-0.162-0.732-0.398-1.033-0.708c-0.297-0.306-0.532-0.678-0.708-1.118c-0.176-0.439-0.264-0.933-0.264-1.479
			c0-1.053,0.307-1.914,0.92-2.584c0.614-0.67,1.418-1.005,2.412-1.005c0.944,0,1.724,0.318,2.338,0.953
			C126.376,104.847,126.683,105.692,126.683,106.75z M125.268,106.764c0-0.342-0.034-0.703-0.103-1.083
			c-0.068-0.381-0.172-0.703-0.309-0.968c-0.146-0.282-0.338-0.509-0.575-0.681c-0.237-0.17-0.527-0.256-0.87-0.256
			c-0.352,0-0.651,0.087-0.9,0.26c-0.248,0.173-0.45,0.41-0.605,0.711c-0.146,0.278-0.249,0.595-0.309,0.95
			s-0.089,0.699-0.089,1.032c0,0.438,0.035,0.842,0.106,1.213c0.07,0.372,0.184,0.703,0.339,0.995s0.351,0.521,0.585,0.687
			c0.235,0.167,0.526,0.25,0.873,0.25c0.571,0,1.023-0.275,1.356-0.827S125.268,107.734,125.268,106.764z"/>
		<path fill="#FFFFFF" d="M135.098,110.188h-3.295v-0.451c0.104-0.009,0.22-0.019,0.345-0.027c0.126-0.009,0.229-0.027,0.312-0.055
			c0.128-0.041,0.222-0.113,0.284-0.215c0.061-0.104,0.092-0.236,0.092-0.4v-3.466c0-0.479-0.113-0.848-0.339-1.107
			c-0.227-0.26-0.502-0.39-0.826-0.39c-0.242,0-0.464,0.037-0.664,0.113c-0.201,0.074-0.38,0.167-0.535,0.276
			c-0.15,0.104-0.271,0.218-0.359,0.339c-0.089,0.12-0.154,0.217-0.195,0.29v3.876c0,0.155,0.032,0.282,0.096,0.383
			s0.159,0.178,0.287,0.232c0.096,0.046,0.199,0.08,0.312,0.103c0.111,0.022,0.227,0.039,0.345,0.048v0.451h-3.302v-0.451
			c0.104-0.009,0.213-0.019,0.324-0.027c0.112-0.009,0.209-0.027,0.291-0.055c0.128-0.041,0.223-0.112,0.283-0.215
			c0.063-0.103,0.093-0.235,0.093-0.399v-4.158c0-0.155-0.033-0.297-0.099-0.427c-0.066-0.13-0.159-0.235-0.277-0.317
			c-0.087-0.055-0.189-0.095-0.308-0.12c-0.118-0.024-0.246-0.042-0.383-0.051v-0.451l2.242-0.15l0.096,0.096v0.95h0.034
			c0.109-0.109,0.246-0.24,0.41-0.394c0.164-0.152,0.319-0.276,0.465-0.372c0.169-0.109,0.369-0.2,0.602-0.273
			s0.494-0.109,0.786-0.109c0.647,0,1.127,0.202,1.438,0.604c0.313,0.404,0.469,0.94,0.469,1.61v3.507
			c0,0.159,0.027,0.288,0.082,0.387c0.055,0.098,0.148,0.174,0.28,0.229c0.109,0.046,0.204,0.077,0.284,0.096
			c0.079,0.019,0.189,0.032,0.331,0.041V110.188z"/>
	</g>
	<g enable-background="new    ">
		<path fill="#FFFFFF" d="M46.948,119.682c0,0.506-0.099,0.954-0.297,1.343c-0.198,0.391-0.473,0.713-0.824,0.968
			c-0.346,0.255-0.727,0.442-1.142,0.561s-0.854,0.178-1.319,0.178h-1.087v2.939c0,0.159,0.026,0.3,0.079,0.421
			c0.052,0.12,0.161,0.213,0.325,0.276c0.082,0.032,0.227,0.062,0.434,0.089s0.397,0.043,0.571,0.048v0.485h-4.163v-0.485
			c0.109-0.009,0.268-0.025,0.475-0.048s0.352-0.053,0.434-0.089c0.137-0.06,0.236-0.146,0.297-0.26s0.092-0.26,0.092-0.438v-7
			c0-0.159-0.023-0.303-0.068-0.431s-0.153-0.224-0.321-0.287c-0.173-0.06-0.345-0.102-0.516-0.127
			c-0.171-0.024-0.318-0.042-0.441-0.051v-0.485h4.43c0.902,0,1.635,0.218,2.198,0.653
			C46.667,118.377,46.948,118.957,46.948,119.682z M44.87,121.336c0.155-0.219,0.257-0.445,0.308-0.681
			c0.05-0.234,0.075-0.445,0.075-0.632c0-0.26-0.031-0.524-0.092-0.793s-0.167-0.504-0.318-0.704
			c-0.16-0.214-0.369-0.381-0.629-0.499s-0.583-0.178-0.971-0.178h-0.964v4.286h0.697c0.492,0,0.892-0.076,1.2-0.229
			C44.484,121.754,44.715,121.563,44.87,121.336z"/>
		<path fill="#FFFFFF" d="M51.043,126.989h-3.288v-0.451c0.105-0.009,0.216-0.02,0.335-0.031c0.119-0.011,0.216-0.028,0.294-0.051
			c0.127-0.041,0.223-0.113,0.287-0.216s0.096-0.235,0.096-0.4v-7.812c0-0.164-0.035-0.318-0.106-0.462s-0.163-0.257-0.277-0.339
			c-0.082-0.055-0.232-0.104-0.451-0.15s-0.394-0.073-0.526-0.082v-0.438l2.536-0.15l0.096,0.103v9.249
			c0,0.159,0.03,0.291,0.089,0.393c0.059,0.104,0.155,0.182,0.287,0.236c0.1,0.046,0.199,0.08,0.297,0.103s0.208,0.039,0.332,0.048
			V126.989z"/>
		<path fill="#FFFFFF" d="M58.275,126.866c-0.214,0.077-0.402,0.141-0.564,0.188c-0.162,0.049-0.345,0.072-0.55,0.072
			c-0.355,0-0.639-0.083-0.851-0.25c-0.212-0.166-0.348-0.408-0.407-0.728h-0.041c-0.296,0.328-0.614,0.579-0.954,0.752
			s-0.749,0.26-1.227,0.26c-0.506,0-0.922-0.155-1.248-0.465s-0.489-0.716-0.489-1.217c0-0.26,0.037-0.492,0.109-0.697
			s0.182-0.39,0.328-0.554c0.114-0.137,0.264-0.259,0.451-0.365c0.187-0.107,0.362-0.193,0.526-0.257
			c0.205-0.077,0.621-0.221,1.248-0.431s1.049-0.374,1.268-0.492v-0.677c0-0.06-0.013-0.173-0.038-0.342s-0.079-0.328-0.161-0.479
			c-0.091-0.169-0.22-0.315-0.386-0.44c-0.167-0.126-0.402-0.188-0.708-0.188c-0.209,0-0.404,0.035-0.584,0.106
			c-0.18,0.07-0.307,0.145-0.379,0.222c0,0.091,0.021,0.226,0.065,0.403s0.065,0.342,0.065,0.492c0,0.159-0.072,0.306-0.215,0.438
			s-0.343,0.198-0.598,0.198c-0.228,0-0.396-0.081-0.502-0.243c-0.107-0.161-0.161-0.343-0.161-0.543c0-0.21,0.074-0.41,0.222-0.602
			s0.341-0.362,0.578-0.513c0.205-0.128,0.454-0.235,0.745-0.325c0.292-0.088,0.577-0.133,0.854-0.133
			c0.383,0,0.717,0.026,1.001,0.078c0.285,0.053,0.543,0.166,0.776,0.339c0.232,0.169,0.409,0.397,0.53,0.687
			c0.121,0.29,0.181,0.662,0.181,1.118c0,0.651-0.007,1.229-0.021,1.733c-0.014,0.503-0.021,1.054-0.021,1.65
			c0,0.178,0.031,0.319,0.092,0.424s0.156,0.193,0.284,0.267c0.068,0.041,0.177,0.063,0.325,0.068s0.3,0.007,0.455,0.007V126.866z
			 M55.89,123.257c-0.387,0.114-0.727,0.227-1.019,0.336s-0.563,0.246-0.813,0.411c-0.228,0.155-0.408,0.339-0.54,0.551
			c-0.132,0.213-0.198,0.465-0.198,0.758c0,0.379,0.099,0.657,0.297,0.835c0.198,0.179,0.45,0.268,0.755,0.268
			c0.324,0,0.608-0.079,0.854-0.236s0.454-0.344,0.622-0.559L55.89,123.257z"/>
		<path fill="#FFFFFF" d="M66.39,126.989h-3.295v-0.451c0.105-0.009,0.22-0.019,0.345-0.027s0.229-0.027,0.311-0.055
			c0.127-0.041,0.222-0.113,0.284-0.215c0.062-0.104,0.092-0.236,0.092-0.4v-3.466c0-0.479-0.113-0.848-0.339-1.107
			s-0.501-0.39-0.826-0.39c-0.242,0-0.463,0.037-0.665,0.113c-0.201,0.074-0.379,0.167-0.534,0.276
			c-0.151,0.104-0.271,0.218-0.36,0.339c-0.089,0.12-0.154,0.217-0.195,0.29v3.876c0,0.155,0.032,0.282,0.096,0.383
			s0.16,0.178,0.287,0.232c0.096,0.046,0.199,0.08,0.311,0.103s0.227,0.039,0.345,0.048v0.451h-3.302v-0.451
			c0.105-0.009,0.213-0.019,0.325-0.027s0.208-0.027,0.291-0.055c0.127-0.041,0.222-0.112,0.284-0.215s0.092-0.235,0.092-0.399
			v-4.158c0-0.155-0.033-0.297-0.099-0.427s-0.158-0.235-0.277-0.317c-0.086-0.055-0.189-0.095-0.308-0.12
			c-0.119-0.024-0.246-0.042-0.383-0.051v-0.451l2.242-0.15l0.096,0.096v0.95h0.034c0.109-0.109,0.246-0.24,0.41-0.394
			c0.164-0.152,0.319-0.276,0.465-0.372c0.168-0.109,0.369-0.2,0.602-0.273s0.495-0.109,0.786-0.109
			c0.647,0,1.127,0.202,1.439,0.604c0.312,0.404,0.468,0.94,0.468,1.61v3.507c0,0.159,0.027,0.288,0.082,0.387
			c0.055,0.098,0.148,0.174,0.28,0.229c0.109,0.046,0.204,0.077,0.284,0.096s0.19,0.032,0.332,0.041V126.989z"/>
		<path fill="#FFFFFF" d="M71.667,123.688c0.187,0.164,0.33,0.354,0.431,0.567s0.15,0.477,0.15,0.786c0,0.624-0.233,1.135-0.7,1.531
			c-0.468,0.396-1.073,0.595-1.815,0.595c-0.392,0-0.753-0.07-1.083-0.212s-0.566-0.271-0.708-0.39l-0.137,0.444h-0.513
			l-0.068-2.345h0.472c0.037,0.179,0.114,0.387,0.232,0.624c0.119,0.238,0.262,0.453,0.431,0.645
			c0.178,0.202,0.391,0.371,0.639,0.508c0.249,0.138,0.527,0.206,0.837,0.206c0.438,0,0.775-0.1,1.012-0.299
			c0.236-0.199,0.355-0.485,0.355-0.856c0-0.191-0.037-0.356-0.113-0.495c-0.074-0.14-0.186-0.262-0.331-0.366
			c-0.15-0.104-0.335-0.199-0.554-0.284c-0.219-0.084-0.462-0.167-0.731-0.249c-0.214-0.063-0.452-0.151-0.714-0.263
			c-0.262-0.112-0.486-0.243-0.673-0.394c-0.201-0.159-0.365-0.355-0.492-0.588s-0.191-0.506-0.191-0.82
			c0-0.552,0.205-1.019,0.615-1.401s0.959-0.574,1.647-0.574c0.264,0,0.534,0.034,0.81,0.103s0.5,0.15,0.673,0.246l0.157-0.355
			h0.492l0.103,2.167h-0.472c-0.096-0.485-0.302-0.88-0.619-1.185c-0.317-0.304-0.703-0.456-1.159-0.456
			c-0.374,0-0.667,0.094-0.882,0.282s-0.321,0.415-0.321,0.682c0,0.205,0.035,0.376,0.106,0.513s0.177,0.253,0.318,0.349
			c0.137,0.091,0.309,0.177,0.516,0.257c0.208,0.079,0.464,0.169,0.769,0.27c0.301,0.096,0.584,0.207,0.851,0.335
			C71.274,123.392,71.493,123.532,71.667,123.688z"/>
		<path fill="#FFFFFF" d="M78.804,119.477c0,0.169-0.048,0.292-0.144,0.369s-0.219,0.116-0.369,0.116
			c-0.101,0-0.341-0.049-0.722-0.146c-0.38-0.099-0.808-0.175-1.281-0.229c0.205,0.282,0.396,0.519,0.574,0.708
			c0.178,0.188,0.326,0.347,0.444,0.475c0.123,0.132,0.219,0.248,0.287,0.349s0.103,0.207,0.103,0.321
			c0,0.123-0.055,0.23-0.164,0.321s-0.226,0.137-0.349,0.137c-0.082,0-0.159-0.024-0.232-0.071
			c-0.073-0.049-0.135-0.115-0.185-0.202c-0.073-0.132-0.145-0.344-0.215-0.636c-0.071-0.292-0.228-0.72-0.469-1.285
			c-0.219,0.542-0.371,0.972-0.458,1.289c-0.087,0.316-0.162,0.527-0.226,0.632c-0.06,0.091-0.119,0.159-0.182,0.205
			c-0.061,0.046-0.14,0.068-0.235,0.068c-0.128,0-0.245-0.043-0.353-0.13c-0.106-0.087-0.16-0.196-0.16-0.328
			c0-0.109,0.032-0.212,0.096-0.308s0.162-0.217,0.294-0.362c0.114-0.118,0.266-0.28,0.454-0.485
			c0.189-0.205,0.378-0.438,0.564-0.697c-0.446,0.046-0.862,0.12-1.248,0.222c-0.385,0.104-0.637,0.154-0.755,0.154
			c-0.15,0-0.273-0.037-0.369-0.113c-0.096-0.074-0.144-0.199-0.144-0.372c0-0.155,0.048-0.274,0.144-0.358
			c0.096-0.085,0.219-0.127,0.369-0.127c0.137,0,0.377,0.048,0.722,0.144c0.344,0.096,0.771,0.169,1.281,0.219
			c-0.178-0.241-0.364-0.471-0.561-0.687c-0.196-0.217-0.349-0.382-0.458-0.496c-0.128-0.137-0.225-0.254-0.29-0.352
			c-0.066-0.099-0.1-0.204-0.1-0.318c0-0.123,0.055-0.23,0.164-0.321s0.226-0.137,0.349-0.137c0.082,0,0.158,0.022,0.229,0.068
			c0.07,0.046,0.133,0.114,0.188,0.205c0.063,0.109,0.148,0.354,0.253,0.735c0.104,0.38,0.248,0.775,0.431,1.186
			c0.205-0.465,0.354-0.871,0.447-1.221c0.094-0.348,0.173-0.582,0.236-0.7c0.05-0.087,0.11-0.153,0.182-0.202
			c0.07-0.047,0.148-0.071,0.235-0.071c0.128,0,0.245,0.043,0.353,0.13c0.106,0.087,0.16,0.196,0.16,0.328
			c0,0.187-0.127,0.405-0.379,0.656c-0.254,0.251-0.597,0.649-1.029,1.196c0.492-0.055,0.92-0.129,1.281-0.222
			c0.363-0.094,0.604-0.141,0.722-0.141c0.15,0,0.273,0.041,0.369,0.123S78.804,119.317,78.804,119.477z"/>
		<path fill="#FFFFFF" d="M88.415,121.117c0,0.232-0.057,0.438-0.171,0.618c-0.114,0.181-0.289,0.271-0.526,0.271
			c-0.255,0-0.45-0.066-0.585-0.198c-0.134-0.132-0.201-0.278-0.201-0.438c0-0.101,0.008-0.191,0.023-0.273
			c0.017-0.082,0.031-0.164,0.045-0.246c-0.214,0-0.465,0.087-0.752,0.26s-0.531,0.419-0.731,0.738v3.924
			c0,0.159,0.03,0.289,0.093,0.39c0.061,0.101,0.158,0.176,0.29,0.226c0.114,0.046,0.261,0.08,0.44,0.103
			c0.181,0.022,0.337,0.039,0.469,0.048v0.451h-3.555v-0.451c0.104-0.009,0.213-0.019,0.324-0.027
			c0.112-0.009,0.209-0.027,0.291-0.055c0.128-0.041,0.223-0.112,0.283-0.215c0.063-0.103,0.093-0.235,0.093-0.399v-4.158
			c0-0.142-0.033-0.28-0.099-0.417c-0.066-0.136-0.159-0.245-0.277-0.327c-0.087-0.055-0.189-0.095-0.308-0.12
			c-0.118-0.024-0.246-0.042-0.383-0.051v-0.451l2.242-0.15l0.096,0.096v0.95h0.034c0.282-0.369,0.597-0.649,0.943-0.841
			s0.663-0.287,0.95-0.287s0.521,0.094,0.7,0.28C88.325,120.552,88.415,120.803,88.415,121.117z"/>
		<path fill="#FFFFFF" d="M94.978,125.403c-0.282,0.538-0.661,0.966-1.135,1.285s-1.019,0.479-1.634,0.479
			c-0.542,0-1.018-0.096-1.425-0.287c-0.408-0.191-0.744-0.451-1.009-0.779s-0.462-0.711-0.591-1.148
			c-0.131-0.438-0.195-0.9-0.195-1.388c0-0.438,0.069-0.867,0.209-1.288c0.139-0.422,0.343-0.802,0.611-1.139
			c0.26-0.323,0.582-0.584,0.967-0.783c0.386-0.197,0.817-0.297,1.296-0.297c0.492,0,0.914,0.077,1.265,0.232
			s0.636,0.367,0.854,0.636c0.21,0.255,0.366,0.556,0.468,0.902c0.104,0.347,0.154,0.723,0.154,1.128v0.451H90.35
			c0,0.443,0.042,0.845,0.126,1.206c0.085,0.36,0.218,0.678,0.4,0.952c0.178,0.265,0.41,0.474,0.697,0.627s0.629,0.229,1.025,0.229
			c0.405,0,0.756-0.095,1.049-0.285c0.295-0.19,0.578-0.532,0.852-1.027L94.978,125.403z M93.467,122.833
			c0-0.255-0.021-0.527-0.065-0.817c-0.043-0.291-0.112-0.534-0.208-0.729c-0.104-0.209-0.248-0.38-0.431-0.512
			s-0.417-0.197-0.704-0.197c-0.479,0-0.876,0.199-1.192,0.597c-0.317,0.397-0.489,0.95-0.517,1.659H93.467z"/>
		<path fill="#FFFFFF" d="M103.201,126.989h-3.295v-0.451c0.104-0.009,0.22-0.019,0.345-0.027c0.126-0.009,0.229-0.027,0.312-0.055
			c0.128-0.041,0.222-0.113,0.284-0.215c0.061-0.104,0.092-0.236,0.092-0.4v-3.466c0-0.479-0.113-0.848-0.339-1.107
			c-0.227-0.26-0.502-0.39-0.826-0.39c-0.242,0-0.464,0.037-0.664,0.113c-0.201,0.074-0.38,0.167-0.535,0.276
			c-0.15,0.104-0.271,0.218-0.359,0.339c-0.089,0.12-0.154,0.217-0.195,0.29v3.876c0,0.155,0.032,0.282,0.096,0.383
			s0.159,0.178,0.287,0.232c0.096,0.046,0.199,0.08,0.312,0.103c0.111,0.022,0.227,0.039,0.345,0.048v0.451h-3.302v-0.451
			c0.104-0.009,0.213-0.019,0.324-0.027c0.112-0.009,0.209-0.027,0.291-0.055c0.128-0.041,0.223-0.112,0.283-0.215
			c0.063-0.103,0.093-0.235,0.093-0.399v-4.158c0-0.155-0.033-0.297-0.099-0.427c-0.066-0.13-0.159-0.235-0.277-0.317
			c-0.087-0.055-0.189-0.095-0.308-0.12c-0.118-0.024-0.246-0.042-0.383-0.051v-0.451l2.242-0.15l0.096,0.096v0.95h0.034
			c0.109-0.109,0.246-0.24,0.41-0.394c0.164-0.152,0.319-0.276,0.465-0.372c0.169-0.109,0.369-0.2,0.602-0.273
			s0.494-0.109,0.786-0.109c0.647,0,1.127,0.202,1.438,0.604c0.313,0.404,0.469,0.94,0.469,1.61v3.507
			c0,0.159,0.027,0.288,0.082,0.387c0.055,0.098,0.148,0.174,0.28,0.229c0.109,0.046,0.204,0.077,0.284,0.096
			c0.079,0.019,0.189,0.032,0.331,0.041V126.989z"/>
		<path fill="#FFFFFF" d="M110.017,125.403c-0.282,0.538-0.661,0.966-1.135,1.285s-1.019,0.479-1.634,0.479
			c-0.542,0-1.018-0.096-1.425-0.287c-0.408-0.191-0.744-0.451-1.009-0.779s-0.462-0.711-0.591-1.148
			c-0.131-0.438-0.195-0.9-0.195-1.388c0-0.438,0.069-0.867,0.209-1.288c0.139-0.422,0.343-0.802,0.611-1.139
			c0.26-0.323,0.582-0.584,0.967-0.783c0.386-0.197,0.817-0.297,1.296-0.297c0.492,0,0.914,0.077,1.265,0.232
			s0.636,0.367,0.854,0.636c0.21,0.255,0.366,0.556,0.468,0.902c0.104,0.347,0.154,0.723,0.154,1.128v0.451h-4.464
			c0,0.443,0.042,0.845,0.126,1.206c0.085,0.36,0.218,0.678,0.4,0.952c0.178,0.265,0.41,0.474,0.697,0.627s0.629,0.229,1.025,0.229
			c0.405,0,0.756-0.095,1.049-0.285c0.295-0.19,0.578-0.532,0.852-1.027L110.017,125.403z M108.506,122.833
			c0-0.255-0.021-0.527-0.065-0.817c-0.043-0.291-0.112-0.534-0.208-0.729c-0.104-0.209-0.248-0.38-0.431-0.512
			s-0.417-0.197-0.704-0.197c-0.479,0-0.876,0.199-1.192,0.597c-0.317,0.397-0.489,0.95-0.517,1.659H108.506z"/>
		<path fill="#FFFFFF" d="M120.838,120.687c-0.191,0.019-0.397,0.098-0.618,0.239c-0.222,0.142-0.382,0.354-0.482,0.636
			c-0.228,0.67-0.443,1.305-0.646,1.904c-0.202,0.599-0.429,1.272-0.68,2.02c-0.082,0.237-0.165,0.492-0.25,0.766
			c-0.084,0.273-0.16,0.535-0.229,0.786h-0.583l-1.818-4.968l-1.821,4.968h-0.563c-0.342-1.012-0.676-2.016-1.002-3.011
			c-0.325-0.996-0.613-1.863-0.864-2.602c-0.073-0.214-0.212-0.383-0.417-0.506s-0.403-0.196-0.595-0.219v-0.451h3.006v0.479
			c-0.15,0.005-0.313,0.029-0.488,0.075s-0.264,0.121-0.264,0.226c0,0.019,0.009,0.057,0.024,0.116s0.035,0.123,0.058,0.191
			c0.146,0.478,0.312,1.011,0.496,1.6c0.185,0.59,0.422,1.354,0.714,2.296l1.719-4.846h0.662l1.756,4.778
			c0.196-0.609,0.392-1.2,0.586-1.771c0.193-0.57,0.363-1.106,0.51-1.606c0.031-0.118,0.063-0.227,0.092-0.325
			c0.029-0.098,0.045-0.194,0.045-0.29c0-0.082-0.037-0.155-0.109-0.219c-0.073-0.063-0.162-0.116-0.267-0.157
			c-0.092-0.036-0.19-0.063-0.298-0.082s-0.186-0.027-0.235-0.027v-0.438h2.563V120.687z"/>
		<path fill="#FFFFFF" d="M127.106,125.403c-0.282,0.538-0.661,0.966-1.135,1.285s-1.019,0.479-1.634,0.479
			c-0.542,0-1.018-0.096-1.425-0.287c-0.408-0.191-0.744-0.451-1.009-0.779s-0.462-0.711-0.591-1.148
			c-0.131-0.438-0.195-0.9-0.195-1.388c0-0.438,0.069-0.867,0.209-1.288c0.139-0.422,0.343-0.802,0.611-1.139
			c0.26-0.323,0.582-0.584,0.967-0.783c0.386-0.197,0.817-0.297,1.296-0.297c0.492,0,0.914,0.077,1.265,0.232
			s0.636,0.367,0.854,0.636c0.21,0.255,0.366,0.556,0.468,0.902c0.104,0.347,0.154,0.723,0.154,1.128v0.451h-4.464
			c0,0.443,0.042,0.845,0.126,1.206c0.085,0.36,0.218,0.678,0.4,0.952c0.178,0.265,0.41,0.474,0.697,0.627s0.629,0.229,1.025,0.229
			c0.405,0,0.756-0.095,1.049-0.285c0.295-0.19,0.578-0.532,0.852-1.027L127.106,125.403z M125.596,122.833
			c0-0.255-0.021-0.527-0.065-0.817c-0.043-0.291-0.112-0.534-0.208-0.729c-0.104-0.209-0.248-0.38-0.431-0.512
			s-0.417-0.197-0.704-0.197c-0.479,0-0.876,0.199-1.192,0.597c-0.317,0.397-0.489,0.95-0.517,1.659H125.596z"/>
		<path fill="#FFFFFF" d="M135.269,126.866l-2.358,0.15l-0.103-0.096v-0.629l-0.055-0.014c-0.236,0.265-0.529,0.48-0.877,0.649
			c-0.349,0.169-0.707,0.253-1.075,0.253c-0.383,0-0.752-0.086-1.109-0.256c-0.357-0.172-0.668-0.412-0.932-0.722
			c-0.269-0.314-0.481-0.692-0.639-1.135s-0.235-0.93-0.235-1.463c0-0.487,0.084-0.95,0.253-1.388c0.168-0.438,0.4-0.82,0.696-1.148
			c0.277-0.306,0.617-0.549,1.021-0.731c0.402-0.183,0.813-0.273,1.231-0.273c0.314,0,0.623,0.04,0.926,0.12
			c0.302,0.079,0.563,0.181,0.781,0.304v-2.35c0-0.191-0.032-0.366-0.096-0.523c-0.063-0.158-0.152-0.277-0.267-0.359
			c-0.128-0.087-0.3-0.149-0.517-0.188c-0.216-0.039-0.449-0.067-0.7-0.086v-0.424l2.762-0.15l0.103,0.103v9.086
			c0,0.159,0.031,0.295,0.092,0.406c0.063,0.111,0.152,0.206,0.271,0.283c0.087,0.055,0.212,0.089,0.376,0.103
			s0.314,0.022,0.451,0.027V126.866z M132.794,125.684v-3.944c-0.036-0.118-0.096-0.246-0.178-0.383
			c-0.081-0.137-0.184-0.262-0.307-0.376c-0.132-0.114-0.286-0.208-0.464-0.284c-0.178-0.074-0.385-0.112-0.621-0.112
			c-0.272,0-0.524,0.07-0.754,0.212s-0.434,0.344-0.61,0.608c-0.168,0.255-0.302,0.58-0.399,0.974
			c-0.098,0.395-0.146,0.831-0.146,1.31c0,0.383,0.036,0.73,0.109,1.042c0.072,0.313,0.195,0.604,0.368,0.872
			c0.159,0.255,0.362,0.46,0.61,0.615s0.543,0.232,0.884,0.232c0.364,0,0.665-0.08,0.904-0.239
			C132.429,126.051,132.63,125.875,132.794,125.684z"/>
	</g>
</g>
</svg>
