<?xml version="1.0" encoding="utf-8"?>
<!-- Generator: Adobe Illustrator 16.0.0, SVG Export Plug-In . SVG Version: 6.00 Build 0)  -->
<!DOCTYPE svg PUBLIC "-//W3C//DTD SVG 1.1//EN" "http://www.w3.org/Graphics/SVG/1.1/DTD/svg11.dtd">
<svg version="1.1" id="Layer_1" xmlns="http://www.w3.org/2000/svg" xmlns:xlink="http://www.w3.org/1999/xlink" x="0px" y="0px"
	 width="298.744px" height="145.493px" viewBox="0 0 298.744 145.493" enable-background="new 0 0 298.744 145.493"
	 xml:space="preserve">
<g>
	<g enable-background="new    ">
		<path fill="#FFFFFF" d="M120.394,55.994v8.39c0,7.089-1.205,12.339-3.61,15.753c-2.407,3.414-6.309,5.121-11.706,5.121
			c-6.243,0-10.861-2.404-13.852-7.217l6.438-6.245c1.495,1.887,2.747,3.106,3.755,3.659c1.008,0.553,2.195,0.828,3.561,0.828
			c3.771,0,5.658-4.096,5.658-12.291V58.53c0-3.512-0.358-6.097-1.073-7.755c-0.716-1.659-2.114-2.488-4.194-2.488
			c-2.407,0-4.39,1.529-5.951,4.585l-6.438-3.902l0.878-35.313h25.363v9.17h-17.657l-0.585,20.388
			c0.391-1.171,1.333-2.21,2.829-3.122c1.495-0.91,3.088-1.366,4.78-1.366c4.097,0,7.087,1.414,8.975,4.243
			C119.45,45.8,120.394,50.141,120.394,55.994z"/>
		<path fill="#FFFFFF" d="M156.389,35.704V61.75c0,1.756-0.017,3.089-0.049,3.999c-0.034,0.912-0.098,2.212-0.195,3.902
			c-0.098,1.691-0.277,3.023-0.536,4c-0.261,0.975-0.603,2.162-1.024,3.561c-0.424,1.398-1.01,2.488-1.756,3.268
			c-0.749,0.781-1.61,1.578-2.585,2.391c-0.976,0.814-2.195,1.396-3.658,1.756c-1.464,0.355-3.073,0.537-4.829,0.537
			s-3.351-0.182-4.78-0.537c-1.431-0.359-2.634-0.928-3.609-1.707c-0.976-0.781-1.821-1.561-2.536-2.342
			c-0.716-0.779-1.285-1.854-1.707-3.219c-0.424-1.365-0.765-2.537-1.024-3.512c-0.261-0.976-0.438-2.308-0.536-4
			c-0.098-1.69-0.163-2.991-0.195-3.902c-0.033-0.91-0.049-2.244-0.049-4V35.509c0-1.756,0.016-3.088,0.049-4
			c0.032-0.91,0.098-2.21,0.195-3.902c0.098-1.69,0.275-3.024,0.536-4c0.26-0.976,0.601-2.146,1.024-3.512
			c0.422-1.366,0.991-2.439,1.707-3.219c0.715-0.78,1.561-1.561,2.536-2.341c0.976-0.78,2.179-1.349,3.609-1.707
			c1.43-0.356,3.024-0.537,4.78-0.537s3.365,0.18,4.829,0.537c1.463,0.358,2.683,0.943,3.658,1.756
			c0.975,0.814,1.836,1.61,2.585,2.39c0.746,0.78,1.332,1.87,1.756,3.268c0.422,1.399,0.764,2.585,1.024,3.561
			c0.259,0.976,0.438,2.309,0.536,4c0.098,1.692,0.161,3.009,0.195,3.951C156.372,32.696,156.389,34.013,156.389,35.704z
			 M146.536,63.115V34.143c0-2.405-0.034-4.178-0.098-5.316c-0.065-1.137-0.229-2.422-0.488-3.854
			c-0.261-1.43-0.716-2.438-1.365-3.024c-0.651-0.585-1.529-0.878-2.634-0.878c-0.78,0-1.448,0.131-2,0.39
			c-0.554,0.261-1.009,0.731-1.365,1.415c-0.358,0.683-0.635,1.333-0.83,1.951c-0.194,0.619-0.326,1.545-0.39,2.78
			c-0.065,1.236-0.114,2.261-0.146,3.073c-0.033,0.814-0.049,2.034-0.049,3.658v28.777c0,1.627,0.016,2.829,0.049,3.609
			c0.032,0.78,0.081,1.772,0.146,2.976c0.063,1.204,0.195,2.114,0.39,2.731c0.195,0.618,0.472,1.268,0.83,1.952
			c0.356,0.682,0.812,1.154,1.365,1.414c0.552,0.26,1.22,0.391,2,0.391c1.104,0,1.982-0.293,2.634-0.879
			c0.649-0.586,1.104-1.592,1.365-3.024c0.26-1.43,0.423-2.715,0.488-3.854C146.502,67.295,146.536,65.522,146.536,63.115z"/>
		<path fill="#FFFFFF" d="M192.58,55.994v8.39c0,7.089-1.204,12.339-3.609,15.753c-2.407,3.414-6.31,5.121-11.706,5.121
			c-6.243,0-10.862-2.404-13.853-7.217l6.438-6.245c1.495,1.887,2.746,3.106,3.756,3.659c1.007,0.553,2.194,0.828,3.561,0.828
			c3.771,0,5.657-4.096,5.657-12.291V58.53c0-3.512-0.357-6.097-1.072-7.755c-0.717-1.659-2.114-2.488-4.195-2.488
			c-2.406,0-4.39,1.529-5.95,4.585l-6.438-3.902l0.878-35.313h25.363v9.17h-17.656l-0.586,20.388
			c0.391-1.171,1.332-2.21,2.829-3.122c1.495-0.91,3.088-1.366,4.78-1.366c4.097,0,7.087,1.414,8.975,4.243
			C191.636,45.8,192.58,50.141,192.58,55.994z"/>
	</g>
	<g>
		<rect y="92.493" fill="none" width="193.327" height="53"/>
	</g>
	<g enable-background="new    ">
		<path fill="#FFFFFF" d="M11.17,103.077H7.854v-0.451c0.105-0.008,0.221-0.018,0.349-0.027c0.127-0.008,0.232-0.027,0.314-0.055
			c0.127-0.041,0.222-0.113,0.284-0.215c0.062-0.104,0.092-0.236,0.092-0.4v-3.465c0-0.479-0.113-0.848-0.339-1.107
			s-0.501-0.391-0.826-0.391c-0.237,0-0.458,0.037-0.661,0.113c-0.203,0.074-0.385,0.168-0.544,0.277
			c-0.155,0.113-0.274,0.227-0.356,0.342c-0.083,0.113-0.146,0.209-0.192,0.287v3.875c0,0.156,0.031,0.283,0.092,0.383
			c0.062,0.102,0.156,0.178,0.284,0.232c0.1,0.047,0.204,0.08,0.311,0.104c0.107,0.021,0.225,0.039,0.352,0.047v0.451H3.712v-0.451
			c0.104-0.008,0.213-0.02,0.326-0.031c0.113-0.01,0.208-0.027,0.285-0.051c0.127-0.041,0.222-0.113,0.285-0.215
			c0.063-0.104,0.095-0.236,0.095-0.4v-7.854c0-0.154-0.035-0.311-0.106-0.465s-0.163-0.271-0.277-0.35
			c-0.082-0.059-0.227-0.102-0.434-0.125c-0.208-0.025-0.375-0.043-0.502-0.053v-0.438l2.495-0.15l0.096,0.104v4.703h0.027
			c0.15-0.15,0.288-0.285,0.411-0.4c0.124-0.117,0.286-0.238,0.486-0.365c0.173-0.109,0.378-0.201,0.613-0.273
			c0.235-0.074,0.499-0.109,0.791-0.109c0.603,0,1.066,0.189,1.39,0.57c0.324,0.381,0.486,0.928,0.486,1.645v3.506
			c0,0.16,0.029,0.289,0.086,0.387c0.058,0.098,0.153,0.174,0.286,0.229c0.105,0.041,0.201,0.072,0.286,0.092
			c0.085,0.021,0.196,0.037,0.334,0.045V103.077z"/>
		<path fill="#FFFFFF" d="M17.972,101.491c-0.283,0.539-0.661,0.967-1.135,1.285c-0.474,0.32-1.019,0.479-1.634,0.479
			c-0.542,0-1.018-0.096-1.425-0.287s-0.744-0.451-1.008-0.779s-0.461-0.711-0.591-1.148s-0.195-0.9-0.195-1.387
			c0-0.438,0.069-0.867,0.208-1.289s0.343-0.801,0.612-1.139c0.26-0.322,0.582-0.584,0.967-0.783
			c0.385-0.197,0.817-0.297,1.295-0.297c0.492,0,0.914,0.078,1.265,0.232c0.351,0.156,0.636,0.367,0.854,0.637
			c0.209,0.254,0.366,0.555,0.468,0.902c0.103,0.346,0.154,0.723,0.154,1.127v0.451h-4.464c0,0.443,0.042,0.846,0.126,1.207
			c0.084,0.359,0.218,0.678,0.4,0.951c0.178,0.266,0.41,0.475,0.697,0.627c0.287,0.154,0.629,0.23,1.025,0.23
			c0.406,0,0.755-0.096,1.049-0.285c0.294-0.191,0.578-0.533,0.851-1.027L17.972,101.491z M16.461,98.92
			c0-0.254-0.021-0.527-0.065-0.816c-0.043-0.291-0.113-0.535-0.208-0.73c-0.105-0.209-0.249-0.379-0.431-0.512
			c-0.182-0.131-0.417-0.197-0.704-0.197c-0.479,0-0.876,0.199-1.193,0.598c-0.317,0.396-0.489,0.949-0.516,1.658H16.461z"/>
		<path fill="#FFFFFF" d="M21.868,103.254c-0.975,0-1.739-0.322-2.29-0.971c-0.551-0.646-0.827-1.516-0.827-2.604
			c0-0.475,0.074-0.918,0.222-1.33s0.363-0.787,0.646-1.125c0.269-0.322,0.606-0.584,1.012-0.783
			c0.406-0.197,0.848-0.297,1.326-0.297c0.661,0,1.199,0.158,1.613,0.475c0.415,0.318,0.622,0.75,0.622,1.297
			c0,0.227-0.055,0.43-0.164,0.604c-0.109,0.176-0.29,0.264-0.54,0.264c-0.269,0-0.478-0.068-0.625-0.203
			c-0.148-0.137-0.222-0.289-0.222-0.457c0-0.205,0.027-0.414,0.082-0.631c0.055-0.215,0.086-0.373,0.096-0.473
			c-0.082-0.141-0.204-0.236-0.365-0.283c-0.162-0.049-0.335-0.072-0.521-0.072c-0.218,0-0.426,0.047-0.624,0.141
			s-0.39,0.266-0.576,0.516c-0.168,0.229-0.305,0.535-0.409,0.924c-0.104,0.387-0.157,0.85-0.157,1.387
			c0,0.848,0.188,1.539,0.563,2.074c0.375,0.537,0.868,0.805,1.478,0.805c0.441,0,0.812-0.107,1.109-0.324
			c0.298-0.215,0.574-0.537,0.829-0.969l0.437,0.287c-0.301,0.539-0.697,0.965-1.189,1.279S22.392,103.254,21.868,103.254z"/>
		<path fill="#FFFFFF" d="M29.271,102.784c-0.296,0.123-0.577,0.227-0.841,0.311s-0.588,0.127-0.971,0.127
			c-0.565,0-0.963-0.143-1.193-0.428s-0.345-0.688-0.345-1.207V97.02h-1.217v-0.656h1.244v-2.098h1.244v2.098h1.935v0.656h-1.921
			v3.768c0,0.281,0.01,0.518,0.031,0.707s0.069,0.354,0.147,0.496c0.073,0.131,0.182,0.232,0.328,0.301s0.342,0.102,0.588,0.102
			c0.114,0,0.281-0.01,0.502-0.031c0.221-0.02,0.377-0.045,0.468-0.078V102.784z"/>
		<path fill="#FFFFFF" d="M36.326,102.954c-0.214,0.078-0.402,0.141-0.564,0.188c-0.161,0.049-0.345,0.072-0.55,0.072
			c-0.355,0-0.639-0.082-0.851-0.25c-0.212-0.166-0.348-0.408-0.407-0.727h-0.041c-0.296,0.328-0.614,0.578-0.954,0.752
			c-0.339,0.172-0.749,0.26-1.227,0.26c-0.506,0-0.922-0.156-1.248-0.465c-0.326-0.311-0.489-0.717-0.489-1.217
			c0-0.26,0.037-0.492,0.109-0.697s0.182-0.391,0.328-0.555c0.114-0.137,0.264-0.258,0.451-0.365s0.362-0.193,0.526-0.256
			c0.205-0.078,0.621-0.221,1.248-0.432c0.626-0.209,1.049-0.373,1.268-0.492v-0.676c0-0.061-0.013-0.174-0.038-0.342
			c-0.025-0.17-0.079-0.328-0.161-0.479c-0.091-0.17-0.22-0.316-0.386-0.441s-0.402-0.188-0.708-0.188
			c-0.209,0-0.404,0.035-0.584,0.105s-0.307,0.145-0.379,0.223c0,0.09,0.021,0.225,0.065,0.402s0.065,0.342,0.065,0.492
			c0,0.16-0.072,0.307-0.215,0.438c-0.144,0.133-0.343,0.199-0.598,0.199c-0.228,0-0.396-0.082-0.502-0.244
			c-0.107-0.16-0.161-0.342-0.161-0.543c0-0.209,0.074-0.41,0.222-0.602s0.341-0.361,0.578-0.512
			c0.205-0.129,0.454-0.236,0.745-0.326c0.292-0.088,0.577-0.133,0.854-0.133c0.383,0,0.717,0.027,1.001,0.078
			c0.285,0.053,0.543,0.166,0.776,0.34c0.232,0.168,0.409,0.396,0.53,0.686c0.121,0.291,0.181,0.662,0.181,1.119
			c0,0.65-0.007,1.229-0.021,1.732s-0.021,1.055-0.021,1.65c0,0.178,0.031,0.32,0.092,0.424c0.062,0.105,0.156,0.193,0.284,0.268
			c0.068,0.041,0.177,0.063,0.324,0.068c0.148,0.004,0.3,0.006,0.455,0.006V102.954z M33.94,99.344
			c-0.387,0.115-0.727,0.227-1.019,0.336s-0.563,0.246-0.813,0.412c-0.228,0.154-0.408,0.338-0.54,0.551s-0.198,0.465-0.198,0.758
			c0,0.379,0.099,0.656,0.297,0.834c0.198,0.18,0.45,0.268,0.755,0.268c0.324,0,0.608-0.078,0.854-0.236
			c0.246-0.156,0.454-0.344,0.622-0.559L33.94,99.344z"/>
		<path fill="#FFFFFF" d="M42.157,97.206c0,0.232-0.057,0.438-0.171,0.617c-0.114,0.182-0.289,0.271-0.526,0.271
			c-0.255,0-0.45-0.066-0.585-0.199c-0.134-0.131-0.201-0.277-0.201-0.438c0-0.1,0.008-0.191,0.023-0.273
			c0.017-0.082,0.031-0.164,0.045-0.246c-0.214,0-0.465,0.088-0.752,0.26c-0.287,0.174-0.531,0.42-0.731,0.738v3.924
			c0,0.16,0.03,0.289,0.093,0.391c0.061,0.1,0.158,0.176,0.29,0.225c0.114,0.047,0.261,0.08,0.44,0.104
			c0.181,0.021,0.337,0.039,0.469,0.047v0.451h-3.555v-0.451c0.104-0.008,0.213-0.018,0.324-0.027
			c0.112-0.008,0.209-0.027,0.291-0.055c0.128-0.041,0.223-0.111,0.283-0.215c0.063-0.102,0.093-0.234,0.093-0.398v-4.158
			c0-0.143-0.033-0.281-0.099-0.418c-0.066-0.135-0.159-0.244-0.277-0.326c-0.087-0.055-0.189-0.096-0.308-0.121
			c-0.118-0.023-0.246-0.041-0.383-0.051v-0.451l2.242-0.15l0.096,0.096v0.951h0.034c0.282-0.369,0.597-0.65,0.943-0.842
			s0.663-0.287,0.95-0.287s0.521,0.094,0.7,0.281C42.067,96.639,42.157,96.891,42.157,97.206z"/>
		<path fill="#FFFFFF" d="M48.72,101.491c-0.282,0.539-0.661,0.967-1.135,1.285c-0.474,0.32-1.019,0.479-1.634,0.479
			c-0.542,0-1.018-0.096-1.425-0.287c-0.408-0.191-0.744-0.451-1.009-0.779s-0.462-0.711-0.591-1.148
			c-0.131-0.438-0.195-0.9-0.195-1.387c0-0.438,0.069-0.867,0.209-1.289c0.139-0.422,0.343-0.801,0.611-1.139
			c0.26-0.322,0.582-0.584,0.967-0.783c0.386-0.197,0.817-0.297,1.296-0.297c0.492,0,0.914,0.078,1.265,0.232
			c0.351,0.156,0.636,0.367,0.854,0.637c0.21,0.254,0.366,0.555,0.468,0.902c0.104,0.346,0.154,0.723,0.154,1.127v0.451h-4.464
			c0,0.443,0.042,0.846,0.126,1.207c0.085,0.359,0.218,0.678,0.4,0.951c0.178,0.266,0.41,0.475,0.697,0.627
			c0.287,0.154,0.629,0.23,1.025,0.23c0.405,0,0.756-0.096,1.049-0.285c0.295-0.191,0.578-0.533,0.852-1.027L48.72,101.491z
			 M47.209,98.92c0-0.254-0.021-0.527-0.065-0.816c-0.043-0.291-0.112-0.535-0.208-0.73c-0.104-0.209-0.248-0.379-0.431-0.512
			c-0.183-0.131-0.417-0.197-0.704-0.197c-0.479,0-0.876,0.199-1.192,0.598c-0.317,0.396-0.489,0.949-0.517,1.658H47.209z"/>
		<path fill="#FFFFFF" d="M53.949,99.776c0.187,0.164,0.33,0.354,0.431,0.566c0.101,0.215,0.15,0.477,0.15,0.787
			c0,0.623-0.233,1.135-0.701,1.531c-0.467,0.396-1.071,0.594-1.814,0.594c-0.392,0-0.753-0.07-1.084-0.211
			c-0.33-0.143-0.565-0.271-0.707-0.391l-0.137,0.445h-0.513l-0.068-2.346h0.472c0.036,0.18,0.114,0.387,0.232,0.625
			s0.262,0.453,0.431,0.645c0.178,0.201,0.391,0.371,0.64,0.508c0.248,0.137,0.527,0.205,0.837,0.205c0.438,0,0.774-0.1,1.012-0.299
			s0.355-0.484,0.355-0.855c0-0.191-0.038-0.357-0.112-0.496c-0.076-0.139-0.187-0.262-0.332-0.365
			c-0.15-0.105-0.335-0.199-0.554-0.285c-0.219-0.084-0.463-0.166-0.731-0.248c-0.214-0.064-0.452-0.152-0.715-0.264
			c-0.262-0.111-0.486-0.242-0.673-0.393c-0.2-0.16-0.364-0.355-0.492-0.588s-0.191-0.506-0.191-0.82
			c0-0.553,0.205-1.02,0.615-1.402s0.959-0.574,1.647-0.574c0.265,0,0.534,0.035,0.811,0.104c0.275,0.068,0.5,0.15,0.673,0.246
			l0.157-0.355h0.492l0.103,2.166H53.71c-0.096-0.484-0.302-0.879-0.619-1.184c-0.316-0.305-0.702-0.457-1.158-0.457
			c-0.374,0-0.668,0.094-0.882,0.283c-0.214,0.188-0.321,0.414-0.321,0.682c0,0.205,0.035,0.375,0.105,0.512
			c0.071,0.137,0.177,0.254,0.318,0.35c0.137,0.09,0.309,0.176,0.516,0.256c0.208,0.08,0.464,0.17,0.77,0.27
			c0.301,0.096,0.584,0.207,0.852,0.336C53.556,99.479,53.776,99.62,53.949,99.776z"/>
		<path fill="#FFFFFF" d="M65.502,99.639c0,0.473-0.075,0.939-0.226,1.396c-0.15,0.459-0.365,0.848-0.644,1.166
			c-0.314,0.365-0.68,0.637-1.095,0.814s-0.881,0.266-1.396,0.266c-0.429,0-0.837-0.08-1.225-0.242s-0.732-0.398-1.033-0.707
			c-0.297-0.307-0.532-0.678-0.708-1.119c-0.176-0.439-0.264-0.932-0.264-1.479c0-1.053,0.307-1.914,0.92-2.584
			c0.614-0.67,1.418-1.006,2.412-1.006c0.944,0,1.724,0.318,2.338,0.953C65.195,97.735,65.502,98.581,65.502,99.639z M64.087,99.653
			c0-0.342-0.034-0.703-0.103-1.084s-0.172-0.703-0.309-0.967c-0.146-0.283-0.338-0.51-0.575-0.682
			c-0.237-0.17-0.527-0.256-0.87-0.256c-0.352,0-0.651,0.088-0.9,0.26c-0.248,0.174-0.45,0.41-0.605,0.711
			c-0.146,0.279-0.249,0.596-0.309,0.951s-0.089,0.699-0.089,1.031c0,0.438,0.035,0.842,0.106,1.213
			c0.07,0.373,0.184,0.703,0.339,0.996c0.155,0.291,0.351,0.52,0.585,0.686c0.235,0.168,0.526,0.25,0.873,0.25
			c0.571,0,1.023-0.275,1.356-0.826C63.92,101.383,64.087,100.624,64.087,99.653z"/>
		<path fill="#FFFFFF" d="M71.49,93.315c0,0.205-0.055,0.379-0.164,0.52c-0.109,0.143-0.275,0.213-0.499,0.213
			c-0.142,0-0.266-0.029-0.372-0.09c-0.107-0.059-0.207-0.139-0.298-0.238c-0.091-0.102-0.176-0.215-0.253-0.342
			c-0.077-0.129-0.144-0.23-0.198-0.309c-0.306,0.014-0.541,0.227-0.708,0.639c-0.166,0.412-0.249,1.066-0.249,1.967v0.689h1.736
			v0.656h-1.736v4.84c0,0.16,0.03,0.289,0.093,0.391c0.061,0.1,0.158,0.176,0.29,0.225c0.109,0.041,0.255,0.074,0.438,0.1
			s0.34,0.043,0.472,0.051v0.451h-3.555v-0.451c0.104-0.008,0.213-0.018,0.324-0.027c0.112-0.008,0.209-0.027,0.291-0.055
			c0.128-0.041,0.223-0.113,0.283-0.215c0.063-0.104,0.093-0.236,0.093-0.4V97.02h-1.333v-0.656h1.333v-0.43
			c0-1.023,0.266-1.852,0.796-2.486c0.531-0.635,1.195-0.953,1.993-0.953c0.405,0,0.711,0.08,0.916,0.24
			C71.388,92.893,71.49,93.088,71.49,93.315z"/>
		<path fill="#FFFFFF" d="M80.179,102.379c0.183,0.174,0.326,0.369,0.431,0.588s0.157,0.49,0.157,0.814
			c0,0.322-0.07,0.627-0.212,0.912s-0.355,0.531-0.643,0.742c-0.306,0.213-0.67,0.381-1.094,0.498
			c-0.424,0.119-0.948,0.178-1.572,0.178c-1.021,0-1.784-0.148-2.29-0.447s-0.759-0.734-0.759-1.309
			c0-0.465,0.183-0.832,0.547-1.102c0.364-0.268,0.829-0.414,1.395-0.438v-0.096c-0.137-0.041-0.278-0.092-0.424-0.154
			c-0.146-0.061-0.271-0.133-0.376-0.215c-0.118-0.096-0.214-0.209-0.287-0.338c-0.073-0.131-0.109-0.291-0.109-0.482
			c0-0.24,0.085-0.463,0.257-0.666c0.17-0.203,0.429-0.377,0.775-0.523v-0.102c-0.438-0.205-0.777-0.469-1.019-0.791
			c-0.241-0.32-0.362-0.693-0.362-1.117c0-0.637,0.238-1.162,0.715-1.572c0.476-0.41,1.085-0.615,1.828-0.615
			c0.205,0,0.409,0.021,0.611,0.063c0.203,0.041,0.409,0.094,0.619,0.156h2.352v0.656h-1.586v0.041
			c0.169,0.197,0.294,0.412,0.376,0.65c0.082,0.236,0.123,0.469,0.123,0.697c0,0.592-0.24,1.094-0.722,1.504
			c-0.48,0.41-1.04,0.615-1.678,0.615h-0.827c-0.104,0.035-0.214,0.102-0.328,0.197s-0.171,0.227-0.171,0.391
			c0,0.168,0.048,0.297,0.144,0.385c0.096,0.09,0.212,0.15,0.349,0.182c0.132,0.037,0.286,0.061,0.461,0.068
			c0.176,0.01,0.357,0.016,0.544,0.021c0.2,0.004,0.476,0.018,0.823,0.041c0.35,0.021,0.597,0.035,0.742,0.041
			c0.21,0.008,0.42,0.059,0.633,0.15C79.813,102.094,80.006,102.221,80.179,102.379z M79.646,104.034
			c0-0.254-0.06-0.465-0.178-0.629s-0.299-0.275-0.54-0.334c-0.128-0.02-0.39-0.039-0.786-0.063
			c-0.396-0.021-0.856-0.033-1.381-0.033c-0.492,0.096-0.842,0.256-1.05,0.48c-0.207,0.227-0.311,0.518-0.311,0.873
			c0,0.158,0.034,0.313,0.103,0.457c0.068,0.146,0.187,0.281,0.355,0.404c0.159,0.117,0.374,0.215,0.643,0.289
			c0.269,0.076,0.597,0.113,0.984,0.113c0.67,0,1.197-0.129,1.583-0.387C79.453,104.95,79.646,104.559,79.646,104.034z
			 M78.333,98.381c0-0.533-0.108-0.959-0.325-1.275c-0.216-0.316-0.521-0.475-0.912-0.475c-0.214,0-0.397,0.043-0.551,0.133
			c-0.152,0.088-0.276,0.215-0.372,0.379c-0.091,0.15-0.156,0.332-0.194,0.543c-0.039,0.213-0.059,0.43-0.059,0.654
			c0,0.506,0.11,0.918,0.332,1.236c0.221,0.32,0.507,0.479,0.857,0.479c0.392,0,0.693-0.158,0.906-0.475
			C78.227,99.264,78.333,98.864,78.333,98.381z"/>
		<path fill="#FFFFFF" d="M86.693,97.206c0,0.232-0.057,0.438-0.171,0.617c-0.114,0.182-0.289,0.271-0.526,0.271
			c-0.255,0-0.45-0.066-0.585-0.199c-0.134-0.131-0.201-0.277-0.201-0.438c0-0.1,0.008-0.191,0.023-0.273
			c0.017-0.082,0.031-0.164,0.045-0.246c-0.214,0-0.465,0.088-0.752,0.26c-0.287,0.174-0.531,0.42-0.731,0.738v3.924
			c0,0.16,0.03,0.289,0.093,0.391c0.061,0.1,0.158,0.176,0.29,0.225c0.114,0.047,0.261,0.08,0.44,0.104
			c0.181,0.021,0.337,0.039,0.469,0.047v0.451h-3.555v-0.451c0.104-0.008,0.213-0.018,0.324-0.027
			c0.112-0.008,0.209-0.027,0.291-0.055c0.128-0.041,0.223-0.111,0.283-0.215c0.063-0.102,0.093-0.234,0.093-0.398v-4.158
			c0-0.143-0.033-0.281-0.099-0.418c-0.066-0.135-0.159-0.244-0.277-0.326c-0.087-0.055-0.189-0.096-0.308-0.121
			c-0.118-0.023-0.246-0.041-0.383-0.051v-0.451l2.242-0.15l0.096,0.096v0.951h0.034c0.282-0.369,0.597-0.65,0.943-0.842
			s0.663-0.287,0.95-0.287s0.521,0.094,0.7,0.281C86.604,96.639,86.693,96.891,86.693,97.206z"/>
		<path fill="#FFFFFF" d="M93.652,102.954c-0.214,0.078-0.402,0.141-0.564,0.188c-0.161,0.049-0.345,0.072-0.55,0.072
			c-0.355,0-0.64-0.082-0.851-0.25c-0.213-0.166-0.348-0.408-0.407-0.727h-0.041c-0.296,0.328-0.614,0.578-0.954,0.752
			c-0.339,0.172-0.748,0.26-1.227,0.26c-0.506,0-0.922-0.156-1.248-0.465c-0.325-0.311-0.488-0.717-0.488-1.217
			c0-0.26,0.036-0.492,0.109-0.697s0.183-0.391,0.328-0.555c0.114-0.137,0.265-0.258,0.451-0.365s0.362-0.193,0.526-0.256
			c0.205-0.078,0.621-0.221,1.247-0.432c0.627-0.209,1.05-0.373,1.269-0.492v-0.676c0-0.061-0.013-0.174-0.038-0.342
			c-0.024-0.17-0.078-0.328-0.16-0.479c-0.091-0.17-0.22-0.316-0.387-0.441c-0.166-0.125-0.401-0.188-0.707-0.188
			c-0.21,0-0.404,0.035-0.584,0.105c-0.181,0.07-0.307,0.145-0.38,0.223c0,0.09,0.021,0.225,0.065,0.402
			c0.043,0.178,0.064,0.342,0.064,0.492c0,0.16-0.072,0.307-0.215,0.438c-0.145,0.133-0.344,0.199-0.599,0.199
			c-0.228,0-0.396-0.082-0.503-0.244c-0.106-0.16-0.16-0.342-0.16-0.543c0-0.209,0.074-0.41,0.223-0.602
			c0.147-0.191,0.34-0.361,0.577-0.512c0.205-0.129,0.453-0.236,0.745-0.326c0.292-0.088,0.576-0.133,0.854-0.133
			c0.383,0,0.717,0.027,1.001,0.078c0.285,0.053,0.544,0.166,0.776,0.34c0.232,0.168,0.409,0.396,0.53,0.686
			c0.12,0.291,0.181,0.662,0.181,1.119c0,0.65-0.007,1.229-0.021,1.732s-0.021,1.055-0.021,1.65c0,0.178,0.03,0.32,0.093,0.424
			c0.061,0.105,0.155,0.193,0.283,0.268c0.068,0.041,0.177,0.063,0.324,0.068c0.148,0.004,0.3,0.006,0.455,0.006V102.954z
			 M91.267,99.344c-0.388,0.115-0.727,0.227-1.019,0.336s-0.563,0.246-0.813,0.412c-0.228,0.154-0.408,0.338-0.54,0.551
			s-0.198,0.465-0.198,0.758c0,0.379,0.099,0.656,0.298,0.834c0.197,0.18,0.449,0.268,0.755,0.268c0.323,0,0.608-0.078,0.854-0.236
			c0.246-0.156,0.453-0.344,0.622-0.559L91.267,99.344z"/>
		<path fill="#FFFFFF" d="M98.772,99.776c0.187,0.164,0.33,0.354,0.431,0.566c0.101,0.215,0.15,0.477,0.15,0.787
			c0,0.623-0.233,1.135-0.701,1.531c-0.467,0.396-1.071,0.594-1.814,0.594c-0.392,0-0.753-0.07-1.084-0.211
			c-0.33-0.143-0.565-0.271-0.707-0.391l-0.137,0.445h-0.513l-0.068-2.346h0.472c0.036,0.18,0.114,0.387,0.232,0.625
			s0.262,0.453,0.431,0.645c0.178,0.201,0.391,0.371,0.64,0.508c0.248,0.137,0.527,0.205,0.837,0.205c0.438,0,0.774-0.1,1.012-0.299
			s0.355-0.484,0.355-0.855c0-0.191-0.038-0.357-0.112-0.496c-0.076-0.139-0.187-0.262-0.332-0.365
			c-0.15-0.105-0.335-0.199-0.554-0.285c-0.219-0.084-0.463-0.166-0.731-0.248c-0.214-0.064-0.452-0.152-0.715-0.264
			c-0.262-0.111-0.486-0.242-0.673-0.393c-0.2-0.16-0.364-0.355-0.492-0.588s-0.191-0.506-0.191-0.82
			c0-0.553,0.205-1.02,0.615-1.402s0.959-0.574,1.647-0.574c0.265,0,0.534,0.035,0.811,0.104c0.275,0.068,0.5,0.15,0.673,0.246
			l0.157-0.355h0.492l0.103,2.166h-0.472c-0.096-0.484-0.302-0.879-0.619-1.184c-0.316-0.305-0.702-0.457-1.158-0.457
			c-0.374,0-0.668,0.094-0.882,0.283c-0.214,0.188-0.321,0.414-0.321,0.682c0,0.205,0.035,0.375,0.105,0.512
			c0.071,0.137,0.177,0.254,0.318,0.35c0.137,0.09,0.309,0.176,0.516,0.256c0.208,0.08,0.464,0.17,0.77,0.27
			c0.301,0.096,0.584,0.207,0.852,0.336C98.379,99.479,98.6,99.62,98.772,99.776z"/>
		<path fill="#FFFFFF" d="M104.822,99.776c0.187,0.164,0.33,0.354,0.431,0.566c0.101,0.215,0.15,0.477,0.15,0.787
			c0,0.623-0.233,1.135-0.701,1.531c-0.467,0.396-1.071,0.594-1.814,0.594c-0.392,0-0.753-0.07-1.084-0.211
			c-0.33-0.143-0.565-0.271-0.707-0.391l-0.137,0.445h-0.513l-0.068-2.346h0.472c0.036,0.18,0.114,0.387,0.232,0.625
			s0.262,0.453,0.431,0.645c0.178,0.201,0.391,0.371,0.64,0.508c0.248,0.137,0.527,0.205,0.837,0.205c0.438,0,0.774-0.1,1.012-0.299
			s0.355-0.484,0.355-0.855c0-0.191-0.038-0.357-0.112-0.496c-0.076-0.139-0.187-0.262-0.332-0.365
			c-0.15-0.105-0.335-0.199-0.554-0.285c-0.219-0.084-0.463-0.166-0.731-0.248c-0.214-0.064-0.452-0.152-0.715-0.264
			c-0.262-0.111-0.486-0.242-0.673-0.393c-0.2-0.16-0.364-0.355-0.492-0.588s-0.191-0.506-0.191-0.82
			c0-0.553,0.205-1.02,0.615-1.402s0.959-0.574,1.647-0.574c0.265,0,0.534,0.035,0.811,0.104c0.275,0.068,0.5,0.15,0.673,0.246
			l0.157-0.355h0.492l0.103,2.166h-0.472c-0.096-0.484-0.302-0.879-0.619-1.184c-0.316-0.305-0.702-0.457-1.158-0.457
			c-0.374,0-0.668,0.094-0.882,0.283c-0.214,0.188-0.321,0.414-0.321,0.682c0,0.205,0.035,0.375,0.105,0.512
			c0.071,0.137,0.177,0.254,0.318,0.35c0.137,0.09,0.309,0.176,0.516,0.256c0.208,0.08,0.464,0.17,0.77,0.27
			c0.301,0.096,0.584,0.207,0.852,0.336C104.429,99.479,104.649,99.62,104.822,99.776z"/>
		<path fill="#FFFFFF" d="M109.58,103.077h-3.288v-0.451c0.104-0.008,0.217-0.02,0.335-0.031c0.118-0.01,0.217-0.027,0.294-0.051
			c0.128-0.041,0.224-0.113,0.287-0.215c0.063-0.104,0.096-0.236,0.096-0.4v-7.813c0-0.164-0.035-0.318-0.106-0.461
			c-0.07-0.145-0.162-0.258-0.276-0.34c-0.082-0.055-0.232-0.104-0.451-0.15c-0.219-0.045-0.395-0.072-0.526-0.082v-0.438
			l2.536-0.15l0.096,0.104v9.248c0,0.16,0.029,0.291,0.089,0.393c0.06,0.104,0.155,0.182,0.287,0.236
			c0.101,0.047,0.199,0.08,0.297,0.104c0.099,0.021,0.209,0.039,0.332,0.047V103.077z"/>
		<path fill="#FFFFFF" d="M116.813,102.954c-0.214,0.078-0.402,0.141-0.564,0.188c-0.161,0.049-0.345,0.072-0.55,0.072
			c-0.355,0-0.64-0.082-0.851-0.25c-0.213-0.166-0.348-0.408-0.407-0.727h-0.041c-0.296,0.328-0.614,0.578-0.954,0.752
			c-0.339,0.172-0.748,0.26-1.227,0.26c-0.506,0-0.922-0.156-1.248-0.465c-0.325-0.311-0.488-0.717-0.488-1.217
			c0-0.26,0.036-0.492,0.109-0.697s0.183-0.391,0.328-0.555c0.114-0.137,0.265-0.258,0.451-0.365s0.362-0.193,0.526-0.256
			c0.205-0.078,0.621-0.221,1.247-0.432c0.627-0.209,1.05-0.373,1.269-0.492v-0.676c0-0.061-0.013-0.174-0.038-0.342
			c-0.024-0.17-0.078-0.328-0.16-0.479c-0.091-0.17-0.22-0.316-0.387-0.441c-0.166-0.125-0.401-0.188-0.707-0.188
			c-0.21,0-0.404,0.035-0.584,0.105c-0.181,0.07-0.307,0.145-0.38,0.223c0,0.09,0.021,0.225,0.065,0.402
			c0.043,0.178,0.064,0.342,0.064,0.492c0,0.16-0.072,0.307-0.215,0.438c-0.145,0.133-0.344,0.199-0.599,0.199
			c-0.228,0-0.396-0.082-0.503-0.244c-0.106-0.16-0.16-0.342-0.16-0.543c0-0.209,0.074-0.41,0.223-0.602
			c0.147-0.191,0.34-0.361,0.577-0.512c0.205-0.129,0.453-0.236,0.745-0.326c0.292-0.088,0.576-0.133,0.854-0.133
			c0.383,0,0.717,0.027,1.001,0.078c0.285,0.053,0.544,0.166,0.776,0.34c0.232,0.168,0.409,0.396,0.53,0.686
			c0.12,0.291,0.181,0.662,0.181,1.119c0,0.65-0.007,1.229-0.021,1.732s-0.021,1.055-0.021,1.65c0,0.178,0.03,0.32,0.093,0.424
			c0.061,0.105,0.155,0.193,0.283,0.268c0.068,0.041,0.177,0.063,0.324,0.068c0.148,0.004,0.3,0.006,0.455,0.006V102.954z
			 M114.427,99.344c-0.388,0.115-0.727,0.227-1.019,0.336s-0.563,0.246-0.813,0.412c-0.228,0.154-0.408,0.338-0.54,0.551
			s-0.198,0.465-0.198,0.758c0,0.379,0.099,0.656,0.298,0.834c0.197,0.18,0.449,0.268,0.755,0.268c0.323,0,0.608-0.078,0.854-0.236
			c0.246-0.156,0.453-0.344,0.622-0.559L114.427,99.344z"/>
		<path fill="#FFFFFF" d="M124.927,103.077h-3.295v-0.451c0.104-0.008,0.22-0.018,0.345-0.027c0.126-0.008,0.229-0.027,0.312-0.055
			c0.128-0.041,0.222-0.113,0.284-0.215c0.061-0.104,0.092-0.236,0.092-0.4v-3.465c0-0.479-0.113-0.848-0.339-1.107
			c-0.227-0.26-0.502-0.391-0.826-0.391c-0.242,0-0.464,0.037-0.664,0.113c-0.201,0.074-0.38,0.168-0.535,0.277
			c-0.15,0.104-0.271,0.217-0.359,0.338s-0.154,0.217-0.195,0.291v3.875c0,0.156,0.032,0.283,0.096,0.383
			c0.063,0.102,0.159,0.178,0.287,0.232c0.096,0.047,0.199,0.08,0.312,0.104c0.111,0.021,0.227,0.039,0.345,0.047v0.451h-3.302
			v-0.451c0.104-0.008,0.213-0.018,0.324-0.027c0.112-0.008,0.209-0.027,0.291-0.055c0.128-0.041,0.223-0.111,0.283-0.215
			c0.063-0.102,0.093-0.234,0.093-0.398v-4.158c0-0.156-0.033-0.297-0.099-0.428c-0.066-0.129-0.159-0.234-0.277-0.316
			c-0.087-0.055-0.189-0.096-0.308-0.121c-0.118-0.023-0.246-0.041-0.383-0.051v-0.451l2.242-0.15l0.096,0.096v0.951h0.034
			c0.109-0.109,0.246-0.24,0.41-0.395c0.164-0.152,0.319-0.275,0.465-0.371c0.169-0.109,0.369-0.201,0.602-0.273
			c0.232-0.074,0.494-0.109,0.786-0.109c0.647,0,1.127,0.201,1.438,0.604c0.313,0.404,0.469,0.941,0.469,1.611v3.506
			c0,0.16,0.027,0.289,0.082,0.387s0.148,0.174,0.28,0.229c0.109,0.047,0.204,0.078,0.284,0.096c0.079,0.02,0.189,0.033,0.331,0.041
			V103.077z"/>
		<path fill="#FFFFFF" d="M133.137,102.954l-2.358,0.15l-0.103-0.096v-0.629l-0.055-0.014c-0.236,0.266-0.529,0.48-0.877,0.65
			c-0.349,0.168-0.707,0.252-1.075,0.252c-0.383,0-0.752-0.086-1.109-0.256c-0.357-0.172-0.668-0.412-0.932-0.721
			c-0.269-0.314-0.481-0.693-0.639-1.135c-0.157-0.443-0.235-0.93-0.235-1.463c0-0.488,0.084-0.951,0.253-1.389
			c0.168-0.438,0.4-0.82,0.696-1.148c0.277-0.305,0.617-0.549,1.021-0.73c0.402-0.184,0.813-0.273,1.231-0.273
			c0.314,0,0.623,0.039,0.926,0.119c0.302,0.08,0.563,0.182,0.781,0.305v-2.35c0-0.191-0.032-0.367-0.096-0.523
			c-0.063-0.158-0.152-0.277-0.267-0.359c-0.128-0.088-0.3-0.15-0.517-0.189c-0.216-0.039-0.449-0.066-0.7-0.086v-0.424l2.762-0.15
			l0.103,0.104v9.086c0,0.158,0.031,0.295,0.092,0.406c0.063,0.111,0.152,0.205,0.271,0.283c0.087,0.055,0.212,0.088,0.376,0.102
			s0.314,0.023,0.451,0.027V102.954z M130.662,101.772v-3.945c-0.036-0.117-0.096-0.246-0.178-0.383
			c-0.081-0.137-0.184-0.262-0.307-0.375c-0.132-0.115-0.286-0.209-0.464-0.285c-0.178-0.074-0.385-0.111-0.621-0.111
			c-0.272,0-0.524,0.07-0.754,0.211c-0.229,0.143-0.434,0.344-0.61,0.609c-0.168,0.254-0.302,0.58-0.399,0.973
			c-0.098,0.395-0.146,0.832-0.146,1.311c0,0.383,0.036,0.73,0.109,1.041c0.072,0.313,0.195,0.604,0.368,0.873
			c0.159,0.254,0.362,0.459,0.61,0.615c0.248,0.154,0.543,0.232,0.884,0.232c0.364,0,0.665-0.08,0.904-0.24
			C130.297,102.139,130.498,101.963,130.662,101.772z"/>
		<path fill="#FFFFFF" d="M148.702,103.077h-3.281v-0.451c0.104-0.008,0.211-0.018,0.317-0.027c0.107-0.008,0.202-0.027,0.284-0.055
			c0.128-0.041,0.222-0.113,0.284-0.215c0.061-0.104,0.092-0.236,0.092-0.4V98.45c0-0.475-0.108-0.84-0.324-1.098
			c-0.217-0.258-0.487-0.387-0.811-0.387c-0.224,0-0.433,0.035-0.629,0.104s-0.376,0.164-0.54,0.287
			c-0.132,0.1-0.243,0.207-0.331,0.324c-0.09,0.115-0.156,0.213-0.202,0.291v3.889c0,0.16,0.027,0.291,0.082,0.393
			c0.055,0.104,0.148,0.182,0.28,0.236c0.104,0.041,0.199,0.072,0.283,0.092c0.085,0.021,0.195,0.037,0.332,0.045v0.451h-3.213
			v-0.451c0.104-0.008,0.206-0.018,0.305-0.027c0.098-0.008,0.188-0.027,0.27-0.055c0.128-0.041,0.223-0.113,0.283-0.215
			c0.063-0.104,0.093-0.236,0.093-0.4V98.45c0-0.475-0.108-0.84-0.325-1.098c-0.218-0.258-0.488-0.387-0.813-0.387
			c-0.224,0-0.434,0.035-0.63,0.105c-0.197,0.072-0.377,0.168-0.542,0.291c-0.132,0.102-0.244,0.213-0.335,0.338
			c-0.092,0.127-0.16,0.221-0.206,0.285v3.861c0,0.156,0.032,0.285,0.096,0.391c0.063,0.104,0.159,0.184,0.287,0.238
			c0.096,0.047,0.193,0.08,0.294,0.104c0.101,0.021,0.212,0.039,0.335,0.047v0.451h-3.274v-0.451
			c0.104-0.008,0.213-0.018,0.325-0.027c0.111-0.008,0.208-0.027,0.29-0.055c0.128-0.041,0.222-0.111,0.284-0.215
			c0.061-0.102,0.092-0.234,0.092-0.398v-4.186c0-0.146-0.033-0.277-0.1-0.393c-0.065-0.117-0.158-0.215-0.276-0.297
			c-0.087-0.055-0.193-0.1-0.321-0.135c-0.128-0.033-0.26-0.055-0.396-0.064v-0.451l2.256-0.15l0.096,0.096v0.965h0.048
			c0.114-0.115,0.253-0.248,0.417-0.404c0.164-0.154,0.316-0.279,0.458-0.375c0.159-0.109,0.358-0.201,0.599-0.273
			c0.238-0.074,0.497-0.109,0.775-0.109c0.438,0,0.813,0.117,1.128,0.352s0.54,0.518,0.677,0.852
			c0.164-0.16,0.309-0.301,0.434-0.422c0.125-0.119,0.29-0.248,0.494-0.385c0.173-0.119,0.377-0.215,0.611-0.287
			c0.234-0.074,0.494-0.109,0.781-0.109c0.568,0,1.02,0.186,1.352,0.561c0.332,0.373,0.498,0.947,0.498,1.723v3.424
			c0,0.16,0.027,0.291,0.082,0.393c0.055,0.104,0.148,0.182,0.28,0.236c0.104,0.041,0.208,0.072,0.312,0.092
			c0.102,0.021,0.217,0.037,0.345,0.045V103.077z"/>
		<path fill="#FFFFFF" d="M155.887,102.954c-0.214,0.078-0.402,0.141-0.564,0.188c-0.161,0.049-0.345,0.072-0.55,0.072
			c-0.355,0-0.64-0.082-0.851-0.25c-0.213-0.166-0.348-0.408-0.407-0.727h-0.041c-0.296,0.328-0.614,0.578-0.954,0.752
			c-0.339,0.172-0.748,0.26-1.227,0.26c-0.506,0-0.922-0.156-1.248-0.465c-0.325-0.311-0.488-0.717-0.488-1.217
			c0-0.26,0.036-0.492,0.109-0.697s0.183-0.391,0.328-0.555c0.114-0.137,0.265-0.258,0.451-0.365s0.362-0.193,0.526-0.256
			c0.205-0.078,0.621-0.221,1.247-0.432c0.627-0.209,1.05-0.373,1.269-0.492v-0.676c0-0.061-0.013-0.174-0.038-0.342
			c-0.024-0.17-0.078-0.328-0.16-0.479c-0.091-0.17-0.22-0.316-0.387-0.441c-0.166-0.125-0.401-0.188-0.707-0.188
			c-0.21,0-0.404,0.035-0.584,0.105c-0.181,0.07-0.307,0.145-0.38,0.223c0,0.09,0.021,0.225,0.065,0.402
			c0.043,0.178,0.064,0.342,0.064,0.492c0,0.16-0.072,0.307-0.215,0.438c-0.145,0.133-0.344,0.199-0.599,0.199
			c-0.228,0-0.396-0.082-0.503-0.244c-0.106-0.16-0.16-0.342-0.16-0.543c0-0.209,0.074-0.41,0.223-0.602
			c0.147-0.191,0.34-0.361,0.577-0.512c0.205-0.129,0.453-0.236,0.745-0.326c0.292-0.088,0.576-0.133,0.854-0.133
			c0.383,0,0.717,0.027,1.001,0.078c0.285,0.053,0.544,0.166,0.776,0.34c0.232,0.168,0.409,0.396,0.53,0.686
			c0.12,0.291,0.181,0.662,0.181,1.119c0,0.65-0.007,1.229-0.021,1.732s-0.021,1.055-0.021,1.65c0,0.178,0.03,0.32,0.093,0.424
			c0.061,0.105,0.155,0.193,0.283,0.268c0.068,0.041,0.177,0.063,0.324,0.068c0.148,0.004,0.3,0.006,0.455,0.006V102.954z
			 M153.501,99.344c-0.388,0.115-0.727,0.227-1.019,0.336s-0.563,0.246-0.813,0.412c-0.228,0.154-0.408,0.338-0.54,0.551
			s-0.198,0.465-0.198,0.758c0,0.379,0.099,0.656,0.298,0.834c0.197,0.18,0.449,0.268,0.755,0.268c0.323,0,0.608-0.078,0.854-0.236
			c0.246-0.156,0.453-0.344,0.622-0.559L153.501,99.344z"/>
		<path fill="#FFFFFF" d="M164.001,103.077h-3.295v-0.451c0.104-0.008,0.22-0.018,0.345-0.027c0.126-0.008,0.229-0.027,0.312-0.055
			c0.128-0.041,0.222-0.113,0.284-0.215c0.061-0.104,0.092-0.236,0.092-0.4v-3.465c0-0.479-0.113-0.848-0.339-1.107
			c-0.227-0.26-0.502-0.391-0.826-0.391c-0.242,0-0.464,0.037-0.664,0.113c-0.201,0.074-0.38,0.168-0.535,0.277
			c-0.15,0.104-0.271,0.217-0.359,0.338s-0.154,0.217-0.195,0.291v3.875c0,0.156,0.032,0.283,0.096,0.383
			c0.063,0.102,0.159,0.178,0.287,0.232c0.096,0.047,0.199,0.08,0.312,0.104c0.111,0.021,0.227,0.039,0.345,0.047v0.451h-3.302
			v-0.451c0.104-0.008,0.213-0.018,0.324-0.027c0.112-0.008,0.209-0.027,0.291-0.055c0.128-0.041,0.223-0.111,0.283-0.215
			c0.063-0.102,0.093-0.234,0.093-0.398v-4.158c0-0.156-0.033-0.297-0.099-0.428c-0.066-0.129-0.159-0.234-0.277-0.316
			c-0.087-0.055-0.189-0.096-0.308-0.121c-0.118-0.023-0.246-0.041-0.383-0.051v-0.451l2.242-0.15l0.096,0.096v0.951h0.034
			c0.109-0.109,0.246-0.24,0.41-0.395c0.164-0.152,0.319-0.275,0.465-0.371c0.169-0.109,0.369-0.201,0.602-0.273
			c0.232-0.074,0.494-0.109,0.786-0.109c0.647,0,1.127,0.201,1.438,0.604c0.313,0.404,0.469,0.941,0.469,1.611v3.506
			c0,0.16,0.027,0.289,0.082,0.387s0.148,0.174,0.28,0.229c0.109,0.047,0.204,0.078,0.284,0.096c0.079,0.02,0.189,0.033,0.331,0.041
			V103.077z"/>
		<path fill="#FFFFFF" d="M171.213,102.954c-0.214,0.078-0.402,0.141-0.564,0.188c-0.161,0.049-0.345,0.072-0.55,0.072
			c-0.355,0-0.64-0.082-0.851-0.25c-0.213-0.166-0.348-0.408-0.407-0.727H168.8c-0.296,0.328-0.614,0.578-0.954,0.752
			c-0.339,0.172-0.748,0.26-1.227,0.26c-0.506,0-0.922-0.156-1.248-0.465c-0.325-0.311-0.488-0.717-0.488-1.217
			c0-0.26,0.036-0.492,0.109-0.697s0.183-0.391,0.328-0.555c0.114-0.137,0.265-0.258,0.451-0.365s0.362-0.193,0.526-0.256
			c0.205-0.078,0.621-0.221,1.247-0.432c0.627-0.209,1.05-0.373,1.269-0.492v-0.676c0-0.061-0.013-0.174-0.038-0.342
			c-0.024-0.17-0.078-0.328-0.16-0.479c-0.091-0.17-0.22-0.316-0.387-0.441c-0.166-0.125-0.401-0.188-0.707-0.188
			c-0.21,0-0.404,0.035-0.584,0.105c-0.181,0.07-0.307,0.145-0.38,0.223c0,0.09,0.021,0.225,0.065,0.402
			c0.043,0.178,0.064,0.342,0.064,0.492c0,0.16-0.072,0.307-0.215,0.438c-0.145,0.133-0.344,0.199-0.599,0.199
			c-0.228,0-0.396-0.082-0.503-0.244c-0.106-0.16-0.16-0.342-0.16-0.543c0-0.209,0.074-0.41,0.223-0.602
			c0.147-0.191,0.34-0.361,0.577-0.512c0.205-0.129,0.453-0.236,0.745-0.326c0.292-0.088,0.576-0.133,0.854-0.133
			c0.383,0,0.717,0.027,1.001,0.078c0.285,0.053,0.544,0.166,0.776,0.34c0.232,0.168,0.409,0.396,0.53,0.686
			c0.12,0.291,0.181,0.662,0.181,1.119c0,0.65-0.007,1.229-0.021,1.732s-0.021,1.055-0.021,1.65c0,0.178,0.03,0.32,0.093,0.424
			c0.061,0.105,0.155,0.193,0.283,0.268c0.068,0.041,0.177,0.063,0.324,0.068c0.148,0.004,0.3,0.006,0.455,0.006V102.954z
			 M168.827,99.344c-0.388,0.115-0.727,0.227-1.019,0.336s-0.563,0.246-0.813,0.412c-0.228,0.154-0.408,0.338-0.54,0.551
			s-0.198,0.465-0.198,0.758c0,0.379,0.099,0.656,0.298,0.834c0.197,0.18,0.449,0.268,0.755,0.268c0.323,0,0.608-0.078,0.854-0.236
			c0.246-0.156,0.453-0.344,0.622-0.559L168.827,99.344z"/>
		<path fill="#FFFFFF" d="M177.659,102.379c0.183,0.174,0.326,0.369,0.431,0.588s0.157,0.49,0.157,0.814
			c0,0.322-0.07,0.627-0.212,0.912s-0.355,0.531-0.643,0.742c-0.306,0.213-0.67,0.381-1.094,0.498
			c-0.424,0.119-0.948,0.178-1.572,0.178c-1.021,0-1.784-0.148-2.29-0.447s-0.759-0.734-0.759-1.309
			c0-0.465,0.183-0.832,0.547-1.102c0.364-0.268,0.829-0.414,1.395-0.438v-0.096c-0.137-0.041-0.278-0.092-0.424-0.154
			c-0.146-0.061-0.271-0.133-0.376-0.215c-0.118-0.096-0.214-0.209-0.287-0.338c-0.073-0.131-0.109-0.291-0.109-0.482
			c0-0.24,0.085-0.463,0.257-0.666c0.17-0.203,0.429-0.377,0.775-0.523v-0.102c-0.438-0.205-0.777-0.469-1.019-0.791
			c-0.241-0.32-0.362-0.693-0.362-1.117c0-0.637,0.238-1.162,0.715-1.572c0.476-0.41,1.085-0.615,1.828-0.615
			c0.205,0,0.409,0.021,0.611,0.063c0.203,0.041,0.409,0.094,0.619,0.156h2.352v0.656h-1.586v0.041
			c0.169,0.197,0.294,0.412,0.376,0.65c0.082,0.236,0.123,0.469,0.123,0.697c0,0.592-0.24,1.094-0.722,1.504
			c-0.48,0.41-1.04,0.615-1.678,0.615h-0.827c-0.104,0.035-0.214,0.102-0.328,0.197s-0.171,0.227-0.171,0.391
			c0,0.168,0.048,0.297,0.144,0.385c0.096,0.09,0.212,0.15,0.349,0.182c0.132,0.037,0.286,0.061,0.461,0.068
			c0.176,0.01,0.357,0.016,0.544,0.021c0.2,0.004,0.476,0.018,0.823,0.041c0.35,0.021,0.597,0.035,0.742,0.041
			c0.21,0.008,0.42,0.059,0.633,0.15C177.293,102.094,177.486,102.221,177.659,102.379z M177.126,104.034
			c0-0.254-0.06-0.465-0.178-0.629s-0.299-0.275-0.54-0.334c-0.128-0.02-0.39-0.039-0.786-0.063
			c-0.396-0.021-0.856-0.033-1.381-0.033c-0.492,0.096-0.842,0.256-1.05,0.48c-0.207,0.227-0.311,0.518-0.311,0.873
			c0,0.158,0.034,0.313,0.103,0.457c0.068,0.146,0.187,0.281,0.355,0.404c0.159,0.117,0.374,0.215,0.643,0.289
			c0.269,0.076,0.597,0.113,0.984,0.113c0.67,0,1.197-0.129,1.583-0.387C176.934,104.95,177.126,104.559,177.126,104.034z
			 M175.813,98.381c0-0.533-0.108-0.959-0.325-1.275c-0.216-0.316-0.521-0.475-0.912-0.475c-0.214,0-0.397,0.043-0.551,0.133
			c-0.152,0.088-0.276,0.215-0.372,0.379c-0.091,0.15-0.156,0.332-0.194,0.543c-0.039,0.213-0.059,0.43-0.059,0.654
			c0,0.506,0.11,0.918,0.332,1.236c0.221,0.32,0.507,0.479,0.857,0.479c0.392,0,0.693-0.158,0.906-0.475
			C175.707,99.264,175.813,98.864,175.813,98.381z"/>
		<path fill="#FFFFFF" d="M185.001,101.491c-0.282,0.539-0.661,0.967-1.135,1.285c-0.474,0.32-1.019,0.479-1.634,0.479
			c-0.542,0-1.018-0.096-1.425-0.287c-0.408-0.191-0.744-0.451-1.009-0.779s-0.462-0.711-0.591-1.148
			c-0.131-0.438-0.195-0.9-0.195-1.387c0-0.438,0.069-0.867,0.209-1.289c0.139-0.422,0.343-0.801,0.611-1.139
			c0.26-0.322,0.582-0.584,0.967-0.783c0.386-0.197,0.817-0.297,1.296-0.297c0.492,0,0.914,0.078,1.265,0.232
			c0.351,0.156,0.636,0.367,0.854,0.637c0.21,0.254,0.366,0.555,0.468,0.902c0.104,0.346,0.154,0.723,0.154,1.127v0.451h-4.464
			c0,0.443,0.042,0.846,0.126,1.207c0.085,0.359,0.218,0.678,0.4,0.951c0.178,0.266,0.41,0.475,0.697,0.627
			c0.287,0.154,0.629,0.23,1.025,0.23c0.405,0,0.756-0.096,1.049-0.285c0.295-0.191,0.578-0.533,0.852-1.027L185.001,101.491z
			 M183.49,98.92c0-0.254-0.021-0.527-0.065-0.816c-0.043-0.291-0.112-0.535-0.208-0.73c-0.104-0.209-0.248-0.379-0.431-0.512
			c-0.183-0.131-0.417-0.197-0.704-0.197c-0.479,0-0.876,0.199-1.192,0.598c-0.317,0.396-0.489,0.949-0.517,1.658H183.49z"/>
		<path fill="#FFFFFF" d="M193.163,102.954l-2.358,0.15l-0.103-0.096v-0.629l-0.055-0.014c-0.236,0.266-0.529,0.48-0.877,0.65
			c-0.349,0.168-0.707,0.252-1.075,0.252c-0.383,0-0.752-0.086-1.109-0.256c-0.357-0.172-0.668-0.412-0.932-0.721
			c-0.269-0.314-0.481-0.693-0.639-1.135c-0.157-0.443-0.235-0.93-0.235-1.463c0-0.488,0.084-0.951,0.253-1.389
			c0.168-0.438,0.4-0.82,0.696-1.148c0.277-0.305,0.617-0.549,1.021-0.73c0.402-0.184,0.813-0.273,1.231-0.273
			c0.314,0,0.623,0.039,0.926,0.119c0.302,0.08,0.563,0.182,0.781,0.305v-2.35c0-0.191-0.032-0.367-0.096-0.523
			c-0.063-0.158-0.152-0.277-0.267-0.359c-0.128-0.088-0.3-0.15-0.517-0.189c-0.216-0.039-0.449-0.066-0.7-0.086v-0.424l2.762-0.15
			l0.103,0.104v9.086c0,0.158,0.031,0.295,0.092,0.406c0.063,0.111,0.152,0.205,0.271,0.283c0.087,0.055,0.212,0.088,0.376,0.102
			s0.314,0.023,0.451,0.027V102.954z M190.688,101.772v-3.945c-0.036-0.117-0.096-0.246-0.178-0.383
			c-0.081-0.137-0.184-0.262-0.307-0.375c-0.132-0.115-0.286-0.209-0.464-0.285c-0.178-0.074-0.385-0.111-0.621-0.111
			c-0.272,0-0.524,0.07-0.754,0.211c-0.229,0.143-0.434,0.344-0.61,0.609c-0.168,0.254-0.302,0.58-0.399,0.973
			c-0.098,0.395-0.146,0.832-0.146,1.311c0,0.383,0.036,0.73,0.109,1.041c0.072,0.313,0.195,0.604,0.368,0.873
			c0.159,0.254,0.362,0.459,0.61,0.615c0.248,0.154,0.543,0.232,0.884,0.232c0.364,0,0.665-0.08,0.904-0.24
			C190.323,102.139,190.524,101.963,190.688,101.772z"/>
	</g>
	<g enable-background="new    ">
		<path fill="#FFFFFF" d="M55.911,119.877h-3.254v-0.451c0.105-0.01,0.213-0.02,0.325-0.027c0.112-0.01,0.208-0.027,0.291-0.055
			c0.127-0.041,0.222-0.113,0.284-0.215c0.062-0.104,0.092-0.236,0.092-0.4v-4.158c0-0.145-0.033-0.279-0.099-0.398
			c-0.066-0.121-0.158-0.223-0.277-0.305c-0.086-0.055-0.212-0.102-0.376-0.139c-0.164-0.039-0.314-0.064-0.451-0.072v-0.451
			l2.379-0.15l0.096,0.096v5.496c0,0.158,0.031,0.291,0.092,0.396c0.061,0.104,0.157,0.182,0.289,0.232
			c0.099,0.041,0.197,0.074,0.292,0.1c0.095,0.023,0.202,0.041,0.319,0.051V119.877z M55.057,110.395
			c0,0.26-0.085,0.486-0.256,0.682c-0.171,0.193-0.382,0.289-0.632,0.289c-0.232,0-0.434-0.092-0.605-0.275
			c-0.171-0.186-0.256-0.396-0.256-0.633c0-0.252,0.085-0.471,0.256-0.656c0.171-0.188,0.373-0.281,0.605-0.281
			c0.26,0,0.473,0.088,0.639,0.264S55.057,110.163,55.057,110.395z"/>
		<path fill="#FFFFFF" d="M64.189,119.877h-3.295v-0.451c0.105-0.01,0.22-0.02,0.345-0.027c0.125-0.01,0.229-0.027,0.311-0.055
			c0.127-0.041,0.222-0.113,0.284-0.215c0.062-0.104,0.092-0.236,0.092-0.4v-3.467c0-0.479-0.113-0.848-0.339-1.107
			s-0.501-0.389-0.826-0.389c-0.242,0-0.463,0.037-0.665,0.113c-0.201,0.074-0.379,0.166-0.534,0.275
			c-0.151,0.105-0.271,0.219-0.36,0.34c-0.089,0.119-0.154,0.217-0.195,0.289v3.877c0,0.154,0.032,0.281,0.096,0.383
			c0.064,0.1,0.16,0.178,0.287,0.232c0.096,0.045,0.199,0.08,0.311,0.102c0.112,0.023,0.227,0.039,0.345,0.049v0.451h-3.302v-0.451
			c0.105-0.01,0.213-0.02,0.325-0.027c0.112-0.01,0.208-0.027,0.291-0.055c0.127-0.041,0.222-0.113,0.284-0.215
			c0.062-0.104,0.092-0.236,0.092-0.4v-4.158c0-0.154-0.033-0.297-0.099-0.426c-0.066-0.131-0.158-0.236-0.277-0.318
			c-0.086-0.055-0.189-0.094-0.308-0.119s-0.246-0.043-0.383-0.051v-0.451l2.242-0.15l0.096,0.096v0.949h0.034
			c0.109-0.109,0.246-0.24,0.41-0.393s0.319-0.277,0.465-0.373c0.168-0.109,0.369-0.199,0.602-0.273
			c0.232-0.072,0.495-0.109,0.786-0.109c0.647,0,1.127,0.203,1.439,0.605c0.312,0.404,0.468,0.939,0.468,1.609v3.508
			c0,0.158,0.027,0.287,0.082,0.387c0.055,0.098,0.148,0.174,0.28,0.229c0.109,0.045,0.204,0.076,0.284,0.096
			c0.08,0.018,0.19,0.031,0.332,0.041V119.877z"/>
		<path fill="#FFFFFF" d="M75.236,116.5c0,1.012-0.319,1.861-0.957,2.549c-0.638,0.689-1.378,1.033-2.222,1.033
			c-0.369,0-0.732-0.057-1.09-0.172c-0.358-0.113-0.694-0.266-1.008-0.457l-0.506,0.785l-0.424-0.096
			c0.023-0.338,0.039-0.742,0.048-1.217s0.014-0.934,0.014-1.375v-6.676c0-0.156-0.035-0.311-0.106-0.467
			c-0.071-0.154-0.161-0.266-0.27-0.334c-0.086-0.059-0.231-0.104-0.434-0.133c-0.203-0.031-0.366-0.051-0.489-0.059v-0.438
			l2.475-0.15l0.096,0.102v4.443l0.048,0.014c0.283-0.301,0.591-0.525,0.926-0.676s0.664-0.227,0.988-0.227
			c0.83,0,1.522,0.328,2.078,0.984S75.236,115.448,75.236,116.5z M73.808,116.547c0-0.336-0.037-0.682-0.109-1.031
			c-0.073-0.352-0.187-0.656-0.342-0.916c-0.155-0.266-0.358-0.479-0.608-0.643s-0.551-0.246-0.902-0.246
			c-0.319,0-0.598,0.063-0.837,0.188s-0.455,0.295-0.646,0.51v3.924c0.027,0.109,0.081,0.236,0.161,0.383
			c0.08,0.145,0.188,0.285,0.325,0.416c0.137,0.129,0.292,0.232,0.465,0.313c0.173,0.078,0.385,0.119,0.636,0.119
			c0.556,0,1.005-0.27,1.347-0.807C73.637,118.217,73.808,117.483,73.808,116.547z"/>
		<path fill="#FFFFFF" d="M83.46,119.754l-2.201,0.15l-0.103-0.096v-0.855h-0.041c-0.109,0.115-0.232,0.236-0.369,0.367
			c-0.136,0.129-0.293,0.246-0.471,0.352c-0.205,0.123-0.403,0.217-0.594,0.279c-0.191,0.064-0.462,0.096-0.812,0.096
			c-0.596,0-1.05-0.193-1.362-0.584c-0.312-0.389-0.467-0.955-0.467-1.695v-3.225c0-0.164-0.031-0.301-0.093-0.412
			s-0.153-0.209-0.272-0.291c-0.083-0.055-0.186-0.094-0.31-0.119s-0.254-0.043-0.392-0.051v-0.451l2.249-0.164l0.103,0.096v4.682
			c0,0.488,0.109,0.855,0.328,1.102s0.481,0.369,0.786,0.369c0.25,0,0.474-0.039,0.67-0.117c0.196-0.076,0.36-0.168,0.492-0.273
			c0.123-0.094,0.231-0.195,0.325-0.303s0.165-0.205,0.215-0.297v-3.816c0-0.15-0.032-0.283-0.096-0.4
			c-0.064-0.115-0.153-0.215-0.267-0.297c-0.082-0.055-0.204-0.088-0.366-0.098c-0.162-0.012-0.343-0.023-0.543-0.031v-0.451
			l2.454-0.164l0.103,0.096v5.346c0,0.154,0.032,0.287,0.096,0.396s0.153,0.203,0.267,0.279c0.082,0.051,0.18,0.084,0.294,0.1
			s0.239,0.025,0.376,0.031V119.754z"/>
		<path fill="#FFFFFF" d="M89.305,110.116c0,0.205-0.055,0.377-0.164,0.52c-0.109,0.141-0.275,0.211-0.499,0.211
			c-0.142,0-0.266-0.029-0.372-0.088c-0.107-0.061-0.207-0.139-0.298-0.24c-0.091-0.1-0.176-0.213-0.253-0.342
			c-0.077-0.127-0.144-0.23-0.198-0.307c-0.306,0.014-0.541,0.227-0.708,0.637c-0.166,0.412-0.249,1.068-0.249,1.969v0.689H88.3
			v0.656h-1.736v4.84c0,0.158,0.03,0.289,0.093,0.389c0.061,0.102,0.158,0.176,0.29,0.227c0.109,0.041,0.255,0.074,0.438,0.1
			c0.183,0.023,0.34,0.041,0.472,0.051v0.451h-3.555v-0.451c0.104-0.01,0.213-0.02,0.325-0.027c0.111-0.01,0.208-0.027,0.29-0.055
			c0.128-0.041,0.223-0.113,0.283-0.215c0.063-0.104,0.093-0.236,0.093-0.4v-4.908h-1.333v-0.656h1.333v-0.43
			c0-1.023,0.266-1.854,0.796-2.488c0.531-0.635,1.195-0.951,1.993-0.951c0.405,0,0.711,0.08,0.916,0.238
			C89.202,109.694,89.305,109.887,89.305,110.116z"/>
		<path fill="#FFFFFF" d="M93.857,110.116c0,0.205-0.055,0.377-0.164,0.52c-0.109,0.141-0.275,0.211-0.499,0.211
			c-0.142,0-0.266-0.029-0.372-0.088c-0.107-0.061-0.207-0.139-0.298-0.24c-0.091-0.1-0.176-0.213-0.253-0.342
			c-0.077-0.127-0.144-0.23-0.198-0.307c-0.306,0.014-0.541,0.227-0.708,0.637c-0.166,0.412-0.249,1.068-0.249,1.969v0.689h1.736
			v0.656h-1.736v4.84c0,0.158,0.03,0.289,0.093,0.389c0.061,0.102,0.158,0.176,0.29,0.227c0.109,0.041,0.255,0.074,0.438,0.1
			c0.183,0.023,0.34,0.041,0.472,0.051v0.451h-3.555v-0.451c0.104-0.01,0.213-0.02,0.324-0.027c0.112-0.01,0.209-0.027,0.291-0.055
			c0.128-0.041,0.223-0.113,0.283-0.215c0.063-0.104,0.093-0.236,0.093-0.4v-4.908h-1.333v-0.656h1.333v-0.43
			c0-1.023,0.266-1.854,0.796-2.488c0.531-0.635,1.195-0.951,1.993-0.951c0.405,0,0.711,0.08,0.916,0.238
			C93.755,109.694,93.857,109.887,93.857,110.116z"/>
		<path fill="#FFFFFF" d="M99.381,118.292c-0.282,0.537-0.661,0.965-1.135,1.285c-0.474,0.318-1.019,0.479-1.634,0.479
			c-0.542,0-1.018-0.096-1.425-0.287c-0.408-0.191-0.744-0.451-1.009-0.779s-0.462-0.711-0.591-1.148
			c-0.131-0.438-0.195-0.9-0.195-1.389c0-0.438,0.069-0.867,0.209-1.287c0.139-0.422,0.343-0.803,0.611-1.139
			c0.26-0.324,0.582-0.584,0.967-0.783c0.386-0.197,0.817-0.297,1.296-0.297c0.492,0,0.914,0.076,1.265,0.232
			c0.351,0.154,0.636,0.367,0.854,0.635c0.21,0.256,0.366,0.557,0.468,0.902c0.104,0.348,0.154,0.723,0.154,1.129v0.451h-4.464
			c0,0.443,0.042,0.844,0.126,1.205c0.085,0.361,0.218,0.678,0.4,0.953c0.178,0.264,0.41,0.473,0.697,0.627
			c0.287,0.152,0.629,0.229,1.025,0.229c0.405,0,0.756-0.094,1.049-0.285c0.295-0.189,0.578-0.531,0.852-1.027L99.381,118.292z
			 M97.87,115.721c0-0.256-0.021-0.527-0.065-0.818c-0.043-0.291-0.112-0.533-0.208-0.729c-0.104-0.209-0.248-0.381-0.431-0.512
			c-0.183-0.133-0.417-0.197-0.704-0.197c-0.479,0-0.876,0.199-1.192,0.596c-0.317,0.398-0.489,0.951-0.517,1.66H97.87z"/>
		<path fill="#FFFFFF" d="M105.321,114.004c0,0.232-0.057,0.439-0.171,0.619s-0.289,0.27-0.526,0.27
			c-0.255,0-0.45-0.066-0.585-0.197c-0.134-0.133-0.201-0.279-0.201-0.438c0-0.102,0.008-0.191,0.023-0.273
			c0.017-0.082,0.031-0.164,0.045-0.246c-0.214,0-0.465,0.086-0.752,0.26c-0.287,0.172-0.531,0.418-0.731,0.738v3.924
			c0,0.158,0.03,0.289,0.093,0.389c0.061,0.102,0.158,0.176,0.29,0.227c0.114,0.045,0.261,0.08,0.44,0.102
			c0.181,0.023,0.337,0.039,0.469,0.049v0.451h-3.555v-0.451c0.104-0.01,0.213-0.02,0.324-0.027c0.112-0.01,0.209-0.027,0.291-0.055
			c0.128-0.041,0.223-0.113,0.283-0.215c0.063-0.104,0.093-0.236,0.093-0.4v-4.158c0-0.141-0.033-0.279-0.099-0.416
			c-0.066-0.137-0.159-0.246-0.277-0.328c-0.087-0.055-0.189-0.094-0.308-0.119s-0.246-0.043-0.383-0.051v-0.451l2.242-0.15
			l0.096,0.096v0.949h0.034c0.282-0.369,0.597-0.648,0.943-0.84s0.663-0.287,0.95-0.287s0.521,0.094,0.7,0.279
			C105.231,113.44,105.321,113.69,105.321,114.004z"/>
		<path fill="#FFFFFF" d="M114.611,119.877h-5.455v-0.363l3.821-5.824h-0.945c-0.397,0-0.708,0.008-0.932,0.021
			c-0.225,0.014-0.43,0.059-0.617,0.137c-0.128,0.049-0.247,0.193-0.359,0.43c-0.112,0.238-0.209,0.547-0.291,0.93h-0.417v-2.07
			h5.154v0.279l-3.875,5.906c0.164,0.006,0.344,0.008,0.54,0.012c0.195,0.002,0.407,0.002,0.636,0.002
			c0.182,0,0.372-0.002,0.57-0.006c0.198-0.006,0.452-0.016,0.762-0.035c0.183-0.008,0.32-0.07,0.414-0.184
			c0.093-0.115,0.165-0.244,0.215-0.391c0.05-0.131,0.11-0.314,0.181-0.547c0.071-0.232,0.134-0.457,0.188-0.676h0.41V119.877z"/>
		<path fill="#FFFFFF" d="M122.063,116.438c0,0.475-0.075,0.941-0.226,1.398c-0.15,0.459-0.365,0.846-0.644,1.166
			c-0.314,0.363-0.68,0.635-1.095,0.813s-0.881,0.268-1.396,0.268c-0.429,0-0.837-0.082-1.225-0.242
			c-0.388-0.162-0.732-0.398-1.033-0.709c-0.297-0.305-0.532-0.678-0.708-1.117s-0.264-0.934-0.264-1.48
			c0-1.053,0.307-1.914,0.92-2.584c0.614-0.67,1.418-1.004,2.412-1.004c0.944,0,1.724,0.318,2.338,0.953
			C121.756,114.536,122.063,115.381,122.063,116.438z M120.647,116.452c0-0.342-0.034-0.703-0.103-1.082
			c-0.068-0.381-0.172-0.703-0.309-0.969c-0.146-0.281-0.338-0.508-0.575-0.68c-0.237-0.17-0.527-0.256-0.87-0.256
			c-0.352,0-0.651,0.086-0.9,0.26c-0.248,0.172-0.45,0.41-0.605,0.711c-0.146,0.277-0.249,0.594-0.309,0.949
			s-0.089,0.699-0.089,1.033c0,0.438,0.035,0.842,0.106,1.213c0.07,0.371,0.184,0.703,0.339,0.994
			c0.155,0.293,0.351,0.521,0.585,0.688c0.235,0.166,0.526,0.25,0.873,0.25c0.571,0,1.023-0.275,1.356-0.828
			C120.48,118.184,120.647,117.422,120.647,116.452z"/>
		<path fill="#FFFFFF" d="M130.478,119.877h-3.295v-0.451c0.104-0.01,0.22-0.02,0.345-0.027c0.126-0.01,0.229-0.027,0.312-0.055
			c0.128-0.041,0.222-0.113,0.284-0.215c0.061-0.104,0.092-0.236,0.092-0.4v-3.467c0-0.479-0.113-0.848-0.339-1.107
			c-0.227-0.26-0.502-0.389-0.826-0.389c-0.242,0-0.464,0.037-0.664,0.113c-0.201,0.074-0.38,0.166-0.535,0.275
			c-0.15,0.105-0.271,0.219-0.359,0.34c-0.089,0.119-0.154,0.217-0.195,0.289v3.877c0,0.154,0.032,0.281,0.096,0.383
			c0.063,0.1,0.159,0.178,0.287,0.232c0.096,0.045,0.199,0.08,0.312,0.102c0.111,0.023,0.227,0.039,0.345,0.049v0.451h-3.302v-0.451
			c0.104-0.01,0.213-0.02,0.324-0.027c0.112-0.01,0.209-0.027,0.291-0.055c0.128-0.041,0.223-0.113,0.283-0.215
			c0.063-0.104,0.093-0.236,0.093-0.4v-4.158c0-0.154-0.033-0.297-0.099-0.426c-0.066-0.131-0.159-0.236-0.277-0.318
			c-0.087-0.055-0.189-0.094-0.308-0.119s-0.246-0.043-0.383-0.051v-0.451l2.242-0.15l0.096,0.096v0.949h0.034
			c0.109-0.109,0.246-0.24,0.41-0.393s0.319-0.277,0.465-0.373c0.169-0.109,0.369-0.199,0.602-0.273
			c0.232-0.072,0.494-0.109,0.786-0.109c0.647,0,1.127,0.203,1.438,0.605c0.313,0.404,0.469,0.939,0.469,1.609v3.508
			c0,0.158,0.027,0.287,0.082,0.387c0.055,0.098,0.148,0.174,0.28,0.229c0.109,0.045,0.204,0.076,0.284,0.096
			c0.079,0.018,0.189,0.031,0.331,0.041V119.877z"/>
		<path fill="#FFFFFF" d="M137.293,118.292c-0.282,0.537-0.661,0.965-1.135,1.285c-0.474,0.318-1.019,0.479-1.634,0.479
			c-0.542,0-1.018-0.096-1.425-0.287c-0.408-0.191-0.744-0.451-1.009-0.779s-0.462-0.711-0.591-1.148
			c-0.131-0.438-0.195-0.9-0.195-1.389c0-0.438,0.069-0.867,0.209-1.287c0.139-0.422,0.343-0.803,0.611-1.139
			c0.26-0.324,0.582-0.584,0.967-0.783c0.386-0.197,0.817-0.297,1.296-0.297c0.492,0,0.914,0.076,1.265,0.232
			c0.351,0.154,0.636,0.367,0.854,0.635c0.21,0.256,0.366,0.557,0.468,0.902c0.104,0.348,0.154,0.723,0.154,1.129v0.451h-4.464
			c0,0.443,0.042,0.844,0.126,1.205c0.085,0.361,0.218,0.678,0.4,0.953c0.178,0.264,0.41,0.473,0.697,0.627
			c0.287,0.152,0.629,0.229,1.025,0.229c0.405,0,0.756-0.094,1.049-0.285c0.295-0.189,0.578-0.531,0.852-1.027L137.293,118.292z
			 M135.782,115.721c0-0.256-0.021-0.527-0.065-0.818c-0.043-0.291-0.112-0.533-0.208-0.729c-0.104-0.209-0.248-0.381-0.431-0.512
			c-0.183-0.133-0.417-0.197-0.704-0.197c-0.479,0-0.876,0.199-1.192,0.596c-0.317,0.398-0.489,0.951-0.517,1.66H135.782z"/>
		<path fill="#FFFFFF" d="M142.522,116.575c0.187,0.164,0.33,0.354,0.431,0.568c0.101,0.213,0.15,0.477,0.15,0.785
			c0,0.625-0.233,1.135-0.701,1.531c-0.467,0.396-1.071,0.596-1.814,0.596c-0.392,0-0.753-0.07-1.084-0.213
			c-0.33-0.141-0.565-0.271-0.707-0.389l-0.137,0.443h-0.513l-0.068-2.344h0.472c0.036,0.178,0.114,0.387,0.232,0.623
			c0.118,0.238,0.262,0.453,0.431,0.645c0.178,0.203,0.391,0.371,0.64,0.508c0.248,0.139,0.527,0.207,0.837,0.207
			c0.438,0,0.774-0.1,1.012-0.299s0.355-0.486,0.355-0.857c0-0.191-0.038-0.355-0.112-0.494c-0.076-0.141-0.187-0.262-0.332-0.367
			c-0.15-0.104-0.335-0.199-0.554-0.283s-0.463-0.168-0.731-0.25c-0.214-0.063-0.452-0.15-0.715-0.262
			c-0.262-0.113-0.486-0.244-0.673-0.395c-0.2-0.158-0.364-0.355-0.492-0.588s-0.191-0.506-0.191-0.82
			c0-0.551,0.205-1.018,0.615-1.4s0.959-0.574,1.647-0.574c0.265,0,0.534,0.033,0.811,0.102c0.275,0.068,0.5,0.15,0.673,0.246
			l0.157-0.355h0.492l0.103,2.168h-0.472c-0.096-0.486-0.302-0.881-0.619-1.186c-0.316-0.303-0.702-0.455-1.158-0.455
			c-0.374,0-0.668,0.094-0.882,0.281c-0.214,0.189-0.321,0.416-0.321,0.682c0,0.205,0.035,0.377,0.105,0.514
			c0.071,0.137,0.177,0.252,0.318,0.348c0.137,0.092,0.309,0.178,0.516,0.258c0.208,0.078,0.464,0.168,0.77,0.27
			c0.301,0.096,0.584,0.207,0.852,0.334C142.129,116.28,142.35,116.42,142.522,116.575z"/>
		<path fill="#FFFFFF" d="M146.563,119.637c0,0.328-0.074,0.639-0.222,0.93c-0.148,0.293-0.318,0.543-0.51,0.752
			c-0.196,0.219-0.403,0.412-0.622,0.582c-0.219,0.168-0.419,0.301-0.602,0.396l-0.314-0.459c0.219-0.137,0.415-0.273,0.588-0.41
			s0.314-0.273,0.424-0.41c0.137-0.158,0.253-0.332,0.349-0.52c0.096-0.186,0.157-0.398,0.185-0.635h-0.349
			c-0.306,0-0.543-0.08-0.715-0.24c-0.17-0.158-0.256-0.373-0.256-0.643c0-0.191,0.077-0.377,0.232-0.557s0.367-0.27,0.636-0.27
			c0.392,0,0.686,0.131,0.882,0.393S146.563,119.172,146.563,119.637z"/>
		<path fill="#FFFFFF" d="M154.39,120.055c-0.976,0-1.738-0.324-2.29-0.971c-0.552-0.648-0.827-1.516-0.827-2.605
			c0-0.473,0.074-0.916,0.223-1.328c0.147-0.414,0.363-0.789,0.646-1.125c0.269-0.324,0.606-0.584,1.012-0.783
			c0.405-0.197,0.848-0.297,1.326-0.297c0.661,0,1.198,0.158,1.613,0.475s0.622,0.748,0.622,1.295c0,0.229-0.055,0.43-0.164,0.605
			s-0.289,0.264-0.54,0.264c-0.269,0-0.478-0.068-0.626-0.205c-0.147-0.137-0.222-0.289-0.222-0.457
			c0-0.203,0.027-0.414,0.082-0.629c0.055-0.217,0.087-0.375,0.096-0.475c-0.082-0.141-0.203-0.234-0.365-0.283
			c-0.161-0.047-0.335-0.07-0.521-0.07c-0.218,0-0.426,0.047-0.624,0.141c-0.197,0.092-0.39,0.264-0.576,0.516
			c-0.168,0.227-0.304,0.535-0.408,0.922c-0.105,0.389-0.157,0.85-0.157,1.389c0,0.848,0.188,1.539,0.563,2.074
			c0.375,0.535,0.867,0.803,1.478,0.803c0.441,0,0.811-0.107,1.108-0.322c0.299-0.215,0.575-0.539,0.83-0.969l0.437,0.287
			c-0.301,0.537-0.697,0.963-1.189,1.277S154.914,120.055,154.39,120.055z"/>
		<path fill="#FFFFFF" d="M162.791,114.004c0,0.232-0.057,0.439-0.171,0.619s-0.289,0.27-0.526,0.27
			c-0.255,0-0.45-0.066-0.585-0.197c-0.134-0.133-0.201-0.279-0.201-0.438c0-0.102,0.008-0.191,0.023-0.273
			c0.017-0.082,0.031-0.164,0.045-0.246c-0.214,0-0.465,0.086-0.752,0.26c-0.287,0.172-0.531,0.418-0.731,0.738v3.924
			c0,0.158,0.03,0.289,0.093,0.389c0.061,0.102,0.158,0.176,0.29,0.227c0.114,0.045,0.261,0.08,0.44,0.102
			c0.181,0.023,0.337,0.039,0.469,0.049v0.451h-3.555v-0.451c0.104-0.01,0.213-0.02,0.324-0.027c0.112-0.01,0.209-0.027,0.291-0.055
			c0.128-0.041,0.223-0.113,0.283-0.215c0.063-0.104,0.093-0.236,0.093-0.4v-4.158c0-0.141-0.033-0.279-0.099-0.416
			c-0.066-0.137-0.159-0.246-0.277-0.328c-0.087-0.055-0.189-0.094-0.308-0.119s-0.246-0.043-0.383-0.051v-0.451l2.242-0.15
			l0.096,0.096v0.949h0.034c0.282-0.369,0.597-0.648,0.943-0.84s0.663-0.287,0.95-0.287s0.521,0.094,0.7,0.279
			C162.701,113.44,162.791,113.69,162.791,114.004z"/>
		<path fill="#FFFFFF" d="M166.633,119.877h-3.254v-0.451c0.104-0.01,0.213-0.02,0.324-0.027c0.112-0.01,0.209-0.027,0.291-0.055
			c0.128-0.041,0.223-0.113,0.283-0.215c0.063-0.104,0.093-0.236,0.093-0.4v-4.158c0-0.145-0.033-0.279-0.099-0.398
			c-0.066-0.121-0.159-0.223-0.277-0.305c-0.087-0.055-0.212-0.102-0.376-0.139c-0.164-0.039-0.314-0.064-0.451-0.072v-0.451
			l2.379-0.15l0.096,0.096v5.496c0,0.158,0.03,0.291,0.092,0.396c0.061,0.104,0.157,0.182,0.288,0.232
			c0.1,0.041,0.197,0.074,0.292,0.1c0.096,0.023,0.201,0.041,0.319,0.051V119.877z M165.778,110.395c0,0.26-0.085,0.486-0.257,0.682
			c-0.17,0.193-0.381,0.289-0.632,0.289c-0.232,0-0.435-0.092-0.604-0.275c-0.172-0.186-0.257-0.396-0.257-0.633
			c0-0.252,0.085-0.471,0.257-0.656c0.17-0.188,0.372-0.281,0.604-0.281c0.26,0,0.473,0.088,0.64,0.264
			C165.695,109.959,165.778,110.163,165.778,110.395z"/>
		<path fill="#FFFFFF" d="M171.63,119.583c-0.296,0.123-0.576,0.227-0.841,0.313c-0.265,0.084-0.588,0.125-0.971,0.125
			c-0.565,0-0.963-0.143-1.193-0.426c-0.229-0.285-0.345-0.688-0.345-1.207v-4.566h-1.217v-0.656h1.244v-2.1h1.244v2.1h1.935v0.656
			h-1.921v3.766c0,0.283,0.011,0.52,0.03,0.709c0.021,0.188,0.07,0.354,0.147,0.494c0.073,0.133,0.183,0.232,0.328,0.301
			s0.342,0.104,0.588,0.104c0.114,0,0.281-0.01,0.503-0.031c0.221-0.02,0.377-0.047,0.468-0.078V119.583z"/>
		<path fill="#FFFFFF" d="M175.567,119.877h-3.254v-0.451c0.104-0.01,0.213-0.02,0.324-0.027c0.112-0.01,0.209-0.027,0.291-0.055
			c0.128-0.041,0.223-0.113,0.283-0.215c0.063-0.104,0.093-0.236,0.093-0.4v-4.158c0-0.145-0.033-0.279-0.099-0.398
			c-0.066-0.121-0.159-0.223-0.277-0.305c-0.087-0.055-0.212-0.102-0.376-0.139c-0.164-0.039-0.314-0.064-0.451-0.072v-0.451
			l2.379-0.15l0.096,0.096v5.496c0,0.158,0.03,0.291,0.092,0.396c0.061,0.104,0.157,0.182,0.288,0.232
			c0.1,0.041,0.197,0.074,0.292,0.1c0.096,0.023,0.201,0.041,0.319,0.051V119.877z M174.713,110.395c0,0.26-0.085,0.486-0.257,0.682
			c-0.17,0.193-0.381,0.289-0.632,0.289c-0.232,0-0.435-0.092-0.604-0.275c-0.172-0.186-0.257-0.396-0.257-0.633
			c0-0.252,0.085-0.471,0.257-0.656c0.17-0.188,0.372-0.281,0.604-0.281c0.26,0,0.473,0.088,0.64,0.264
			C174.63,109.959,174.713,110.163,174.713,110.395z"/>
		<path fill="#FFFFFF" d="M179.519,120.055c-0.976,0-1.738-0.324-2.29-0.971c-0.552-0.648-0.827-1.516-0.827-2.605
			c0-0.473,0.074-0.916,0.223-1.328c0.147-0.414,0.363-0.789,0.646-1.125c0.269-0.324,0.606-0.584,1.012-0.783
			c0.405-0.197,0.848-0.297,1.326-0.297c0.661,0,1.198,0.158,1.613,0.475s0.622,0.748,0.622,1.295c0,0.229-0.055,0.43-0.164,0.605
			s-0.289,0.264-0.54,0.264c-0.269,0-0.478-0.068-0.626-0.205c-0.147-0.137-0.222-0.289-0.222-0.457
			c0-0.203,0.027-0.414,0.082-0.629c0.055-0.217,0.087-0.375,0.096-0.475c-0.082-0.141-0.203-0.234-0.365-0.283
			c-0.161-0.047-0.335-0.07-0.521-0.07c-0.218,0-0.426,0.047-0.624,0.141c-0.197,0.092-0.39,0.264-0.576,0.516
			c-0.168,0.227-0.304,0.535-0.408,0.922c-0.105,0.389-0.157,0.85-0.157,1.389c0,0.848,0.188,1.539,0.563,2.074
			c0.375,0.535,0.867,0.803,1.478,0.803c0.441,0,0.811-0.107,1.108-0.322c0.299-0.215,0.575-0.539,0.83-0.969l0.437,0.287
			c-0.301,0.537-0.697,0.963-1.189,1.277S180.043,120.055,179.519,120.055z"/>
		<path fill="#FFFFFF" d="M189.144,119.754c-0.214,0.076-0.402,0.141-0.564,0.188c-0.161,0.049-0.345,0.072-0.55,0.072
			c-0.355,0-0.64-0.084-0.851-0.25c-0.213-0.166-0.348-0.408-0.407-0.729h-0.041c-0.296,0.328-0.614,0.58-0.954,0.752
			c-0.339,0.174-0.748,0.26-1.227,0.26c-0.506,0-0.922-0.154-1.248-0.465c-0.325-0.309-0.488-0.715-0.488-1.217
			c0-0.26,0.036-0.492,0.109-0.697s0.183-0.389,0.328-0.553c0.114-0.137,0.265-0.26,0.451-0.365
			c0.187-0.107,0.362-0.193,0.526-0.258c0.205-0.076,0.621-0.221,1.247-0.43c0.627-0.211,1.05-0.375,1.269-0.492v-0.678
			c0-0.059-0.013-0.172-0.038-0.342c-0.024-0.168-0.078-0.328-0.16-0.479c-0.091-0.168-0.22-0.314-0.387-0.439
			c-0.166-0.127-0.401-0.189-0.707-0.189c-0.21,0-0.404,0.035-0.584,0.107c-0.181,0.07-0.307,0.145-0.38,0.221
			c0,0.092,0.021,0.227,0.065,0.404c0.043,0.178,0.064,0.342,0.064,0.492c0,0.158-0.072,0.305-0.215,0.438
			c-0.145,0.131-0.344,0.197-0.599,0.197c-0.228,0-0.396-0.08-0.503-0.242c-0.106-0.162-0.16-0.344-0.16-0.543
			c0-0.211,0.074-0.41,0.223-0.602c0.147-0.191,0.34-0.363,0.577-0.514c0.205-0.127,0.453-0.234,0.745-0.324
			c0.292-0.088,0.576-0.133,0.854-0.133c0.383,0,0.717,0.025,1.001,0.078c0.285,0.053,0.544,0.166,0.776,0.338
			c0.232,0.17,0.409,0.398,0.53,0.688c0.12,0.289,0.181,0.662,0.181,1.117c0,0.652-0.007,1.23-0.021,1.734
			c-0.014,0.502-0.021,1.053-0.021,1.65c0,0.178,0.03,0.318,0.093,0.424c0.061,0.104,0.155,0.193,0.283,0.266
			c0.068,0.041,0.177,0.064,0.324,0.068c0.148,0.006,0.3,0.008,0.455,0.008V119.754z M186.758,116.145
			c-0.388,0.113-0.727,0.227-1.019,0.336s-0.563,0.246-0.813,0.41c-0.228,0.156-0.408,0.34-0.54,0.551
			c-0.132,0.213-0.198,0.465-0.198,0.758c0,0.379,0.099,0.658,0.298,0.836c0.197,0.178,0.449,0.268,0.755,0.268
			c0.323,0,0.608-0.08,0.854-0.236c0.246-0.158,0.453-0.344,0.622-0.559L186.758,116.145z"/>
		<path fill="#FFFFFF" d="M192.972,119.877h-3.288v-0.451c0.104-0.01,0.217-0.02,0.335-0.031s0.217-0.029,0.294-0.051
			c0.128-0.041,0.224-0.113,0.287-0.217c0.063-0.102,0.096-0.234,0.096-0.4v-7.811c0-0.164-0.035-0.318-0.106-0.463
			c-0.07-0.143-0.162-0.256-0.276-0.338c-0.082-0.055-0.232-0.105-0.451-0.15c-0.219-0.047-0.395-0.074-0.526-0.082v-0.438
			l2.536-0.15l0.096,0.102v9.25c0,0.158,0.029,0.291,0.089,0.393c0.06,0.104,0.155,0.182,0.287,0.236
			c0.101,0.045,0.199,0.08,0.297,0.102c0.099,0.023,0.209,0.039,0.332,0.049V119.877z"/>
	</g>
	<g enable-background="new    ">
		<path fill="#FFFFFF" d="M39.197,136.854c-0.975,0-1.739-0.322-2.29-0.971c-0.551-0.646-0.827-1.516-0.827-2.604
			c0-0.475,0.074-0.918,0.222-1.33s0.363-0.787,0.646-1.125c0.269-0.322,0.606-0.584,1.012-0.783
			c0.406-0.197,0.848-0.297,1.326-0.297c0.661,0,1.199,0.158,1.613,0.475c0.415,0.318,0.622,0.75,0.622,1.297
			c0,0.227-0.055,0.43-0.164,0.604c-0.109,0.176-0.29,0.264-0.54,0.264c-0.269,0-0.478-0.068-0.625-0.203
			c-0.148-0.137-0.222-0.289-0.222-0.457c0-0.205,0.027-0.414,0.082-0.631c0.055-0.215,0.086-0.373,0.096-0.473
			c-0.082-0.141-0.204-0.236-0.365-0.283c-0.162-0.049-0.335-0.072-0.521-0.072c-0.218,0-0.426,0.047-0.624,0.141
			s-0.39,0.266-0.576,0.516c-0.168,0.229-0.305,0.535-0.409,0.924c-0.104,0.387-0.157,0.85-0.157,1.387
			c0,0.848,0.188,1.539,0.563,2.074c0.375,0.537,0.868,0.805,1.478,0.805c0.441,0,0.812-0.107,1.109-0.324
			c0.298-0.215,0.574-0.537,0.829-0.969l0.437,0.287c-0.301,0.539-0.697,0.965-1.189,1.279S39.721,136.854,39.197,136.854z"/>
		<path fill="#FFFFFF" d="M49.014,133.239c0,0.473-0.075,0.939-0.226,1.396c-0.151,0.459-0.365,0.848-0.644,1.166
			c-0.315,0.365-0.68,0.637-1.095,0.814s-0.881,0.266-1.396,0.266c-0.429,0-0.837-0.08-1.225-0.242s-0.732-0.398-1.033-0.707
			c-0.296-0.307-0.533-0.678-0.708-1.119c-0.175-0.439-0.263-0.932-0.263-1.479c0-1.053,0.307-1.914,0.92-2.584
			c0.613-0.67,1.417-1.006,2.412-1.006c0.944,0,1.723,0.318,2.337,0.953C48.707,131.334,49.014,132.18,49.014,133.239z
			 M47.599,133.252c0-0.342-0.034-0.703-0.103-1.084c-0.069-0.381-0.171-0.703-0.309-0.967c-0.146-0.283-0.338-0.51-0.575-0.682
			c-0.237-0.17-0.527-0.256-0.87-0.256c-0.352,0-0.652,0.088-0.9,0.26c-0.249,0.174-0.451,0.41-0.606,0.711
			c-0.146,0.279-0.249,0.596-0.309,0.951c-0.059,0.355-0.089,0.699-0.089,1.031c0,0.438,0.035,0.842,0.106,1.213
			c0.071,0.373,0.184,0.703,0.339,0.996c0.155,0.291,0.35,0.52,0.585,0.686c0.235,0.168,0.526,0.25,0.873,0.25
			c0.571,0,1.023-0.275,1.356-0.826C47.432,134.983,47.599,134.223,47.599,133.252z"/>
		<path fill="#FFFFFF" d="M55.146,130.805c0,0.232-0.057,0.438-0.171,0.617c-0.114,0.182-0.29,0.271-0.526,0.271
			c-0.255,0-0.45-0.066-0.584-0.199c-0.134-0.131-0.202-0.277-0.202-0.438c0-0.1,0.008-0.191,0.024-0.273s0.031-0.164,0.044-0.246
			c-0.214,0-0.465,0.088-0.752,0.26c-0.287,0.174-0.531,0.42-0.731,0.738v3.924c0,0.16,0.031,0.289,0.092,0.391
			c0.062,0.1,0.158,0.176,0.291,0.225c0.114,0.047,0.261,0.08,0.441,0.104c0.18,0.021,0.336,0.039,0.468,0.047v0.451h-3.555v-0.451
			c0.105-0.008,0.213-0.018,0.325-0.027c0.112-0.008,0.208-0.027,0.291-0.055c0.127-0.041,0.222-0.111,0.284-0.215
			c0.062-0.102,0.092-0.234,0.092-0.398v-4.158c0-0.143-0.033-0.281-0.099-0.418c-0.066-0.135-0.158-0.244-0.277-0.326
			c-0.086-0.055-0.189-0.096-0.308-0.121c-0.119-0.023-0.246-0.041-0.383-0.051v-0.451l2.242-0.15l0.096,0.096v0.951h0.034
			c0.283-0.369,0.597-0.65,0.943-0.842s0.663-0.287,0.95-0.287s0.521,0.094,0.701,0.281
			C55.056,130.239,55.146,130.491,55.146,130.805z"/>
		<path fill="#FFFFFF" d="M60.881,130.805c0,0.232-0.057,0.438-0.171,0.617c-0.114,0.182-0.29,0.271-0.526,0.271
			c-0.255,0-0.45-0.066-0.584-0.199c-0.134-0.131-0.202-0.277-0.202-0.438c0-0.1,0.008-0.191,0.024-0.273s0.031-0.164,0.044-0.246
			c-0.214,0-0.465,0.088-0.752,0.26c-0.287,0.174-0.531,0.42-0.731,0.738v3.924c0,0.16,0.031,0.289,0.092,0.391
			c0.062,0.1,0.158,0.176,0.291,0.225c0.114,0.047,0.261,0.08,0.441,0.104c0.18,0.021,0.336,0.039,0.468,0.047v0.451H55.72v-0.451
			c0.105-0.008,0.213-0.018,0.325-0.027c0.112-0.008,0.208-0.027,0.291-0.055c0.127-0.041,0.222-0.111,0.284-0.215
			c0.062-0.102,0.092-0.234,0.092-0.398v-4.158c0-0.143-0.033-0.281-0.099-0.418c-0.066-0.135-0.158-0.244-0.277-0.326
			c-0.086-0.055-0.189-0.096-0.308-0.121c-0.119-0.023-0.246-0.041-0.383-0.051v-0.451l2.242-0.15l0.096,0.096v0.951h0.034
			c0.283-0.369,0.597-0.65,0.943-0.842s0.663-0.287,0.95-0.287s0.521,0.094,0.701,0.281
			C60.791,130.239,60.881,130.491,60.881,130.805z"/>
		<path fill="#FFFFFF" d="M64.723,136.676h-3.254v-0.451c0.105-0.008,0.213-0.018,0.325-0.027c0.112-0.008,0.208-0.027,0.291-0.055
			c0.127-0.041,0.222-0.111,0.284-0.215c0.062-0.102,0.092-0.234,0.092-0.398v-4.158c0-0.146-0.033-0.279-0.099-0.4
			s-0.158-0.221-0.277-0.303c-0.086-0.055-0.212-0.102-0.376-0.141s-0.314-0.063-0.451-0.072v-0.451l2.379-0.15l0.096,0.096v5.496
			c0,0.16,0.031,0.293,0.092,0.396c0.061,0.105,0.157,0.184,0.289,0.232c0.099,0.041,0.197,0.074,0.292,0.1
			c0.095,0.025,0.202,0.043,0.319,0.051V136.676z M63.868,127.196c0,0.26-0.085,0.486-0.256,0.68s-0.382,0.291-0.632,0.291
			c-0.232,0-0.434-0.094-0.605-0.277c-0.171-0.186-0.256-0.395-0.256-0.633c0-0.25,0.085-0.469,0.256-0.656
			c0.171-0.186,0.373-0.279,0.605-0.279c0.26,0,0.473,0.088,0.639,0.262C63.785,126.758,63.868,126.963,63.868,127.196z"/>
		<path fill="#FFFFFF" d="M72.939,136.553l-2.358,0.15l-0.103-0.096v-0.629l-0.055-0.014c-0.236,0.266-0.529,0.48-0.877,0.65
			c-0.349,0.168-0.707,0.252-1.075,0.252c-0.383,0-0.753-0.086-1.109-0.256c-0.357-0.172-0.668-0.412-0.932-0.721
			c-0.269-0.314-0.481-0.693-0.639-1.135c-0.157-0.443-0.235-0.93-0.235-1.463c0-0.488,0.084-0.951,0.252-1.389
			s0.4-0.82,0.696-1.148c0.278-0.305,0.618-0.549,1.021-0.73c0.403-0.184,0.814-0.273,1.232-0.273c0.314,0,0.623,0.039,0.926,0.119
			c0.302,0.08,0.563,0.182,0.781,0.305v-2.35c0-0.191-0.032-0.367-0.096-0.523c-0.063-0.158-0.152-0.277-0.267-0.359
			c-0.128-0.088-0.3-0.15-0.517-0.189c-0.216-0.039-0.449-0.066-0.7-0.086v-0.424l2.762-0.15l0.103,0.104v9.086
			c0,0.158,0.031,0.295,0.092,0.406c0.063,0.111,0.152,0.205,0.271,0.283c0.087,0.055,0.212,0.088,0.376,0.102
			s0.314,0.023,0.451,0.027V136.553z M70.465,135.372v-3.945c-0.036-0.117-0.096-0.246-0.178-0.383
			c-0.081-0.137-0.184-0.262-0.307-0.375c-0.132-0.115-0.286-0.209-0.464-0.285c-0.178-0.074-0.385-0.111-0.621-0.111
			c-0.272,0-0.524,0.07-0.754,0.211c-0.229,0.143-0.433,0.344-0.61,0.609c-0.168,0.254-0.301,0.58-0.399,0.973
			c-0.098,0.395-0.146,0.832-0.146,1.311c0,0.383,0.036,0.73,0.109,1.041c0.073,0.313,0.195,0.604,0.368,0.873
			c0.159,0.254,0.363,0.459,0.61,0.615c0.248,0.154,0.543,0.232,0.884,0.232c0.364,0,0.665-0.08,0.904-0.24
			C70.1,135.739,70.301,135.563,70.465,135.372z"/>
		<path fill="#FFFFFF" d="M80.172,133.239c0,0.473-0.075,0.939-0.226,1.396c-0.15,0.459-0.365,0.848-0.644,1.166
			c-0.314,0.365-0.68,0.637-1.095,0.814s-0.881,0.266-1.396,0.266c-0.429,0-0.837-0.08-1.225-0.242s-0.732-0.398-1.033-0.707
			c-0.297-0.307-0.532-0.678-0.708-1.119c-0.176-0.439-0.264-0.932-0.264-1.479c0-1.053,0.307-1.914,0.92-2.584
			c0.614-0.67,1.418-1.006,2.412-1.006c0.944,0,1.724,0.318,2.338,0.953C79.865,131.334,80.172,132.18,80.172,133.239z
			 M78.757,133.252c0-0.342-0.034-0.703-0.103-1.084s-0.172-0.703-0.309-0.967c-0.146-0.283-0.338-0.51-0.575-0.682
			c-0.237-0.17-0.527-0.256-0.87-0.256c-0.352,0-0.651,0.088-0.9,0.26c-0.248,0.174-0.45,0.41-0.605,0.711
			c-0.146,0.279-0.249,0.596-0.309,0.951s-0.089,0.699-0.089,1.031c0,0.438,0.035,0.842,0.106,1.213
			c0.07,0.373,0.184,0.703,0.339,0.996c0.155,0.291,0.351,0.52,0.585,0.686c0.235,0.168,0.526,0.25,0.873,0.25
			c0.571,0,1.023-0.275,1.356-0.826C78.59,134.983,78.757,134.223,78.757,133.252z"/>
		<path fill="#FFFFFF" d="M86.304,130.805c0,0.232-0.057,0.438-0.171,0.617c-0.114,0.182-0.289,0.271-0.526,0.271
			c-0.255,0-0.45-0.066-0.585-0.199c-0.134-0.131-0.201-0.277-0.201-0.438c0-0.1,0.008-0.191,0.023-0.273
			c0.017-0.082,0.031-0.164,0.045-0.246c-0.214,0-0.465,0.088-0.752,0.26c-0.287,0.174-0.531,0.42-0.731,0.738v3.924
			c0,0.16,0.03,0.289,0.093,0.391c0.061,0.1,0.158,0.176,0.29,0.225c0.114,0.047,0.261,0.08,0.44,0.104
			c0.181,0.021,0.337,0.039,0.469,0.047v0.451h-3.555v-0.451c0.104-0.008,0.213-0.018,0.324-0.027
			c0.112-0.008,0.209-0.027,0.291-0.055c0.128-0.041,0.223-0.111,0.283-0.215c0.063-0.102,0.093-0.234,0.093-0.398v-4.158
			c0-0.143-0.033-0.281-0.099-0.418c-0.066-0.135-0.159-0.244-0.277-0.326c-0.087-0.055-0.189-0.096-0.308-0.121
			c-0.118-0.023-0.246-0.041-0.383-0.051v-0.451l2.242-0.15l0.096,0.096v0.951h0.034c0.282-0.369,0.597-0.65,0.943-0.842
			s0.663-0.287,0.95-0.287s0.521,0.094,0.7,0.281C86.214,130.239,86.304,130.491,86.304,130.805z"/>
		<path fill="#FFFFFF" d="M91.328,133.375c0.187,0.164,0.33,0.354,0.431,0.566c0.101,0.215,0.15,0.477,0.15,0.787
			c0,0.623-0.233,1.135-0.701,1.531c-0.467,0.396-1.071,0.594-1.814,0.594c-0.392,0-0.753-0.07-1.084-0.211
			c-0.33-0.143-0.565-0.271-0.707-0.391l-0.137,0.445h-0.513l-0.068-2.346h0.472c0.036,0.18,0.114,0.387,0.232,0.625
			s0.262,0.453,0.431,0.645c0.178,0.201,0.391,0.371,0.64,0.508c0.248,0.137,0.527,0.205,0.837,0.205c0.438,0,0.774-0.1,1.012-0.299
			s0.355-0.484,0.355-0.855c0-0.191-0.038-0.357-0.112-0.496c-0.076-0.139-0.187-0.262-0.332-0.365
			c-0.15-0.105-0.335-0.199-0.554-0.285c-0.219-0.084-0.463-0.166-0.731-0.248c-0.214-0.064-0.452-0.152-0.715-0.264
			c-0.262-0.111-0.486-0.242-0.673-0.393c-0.2-0.16-0.364-0.355-0.492-0.588s-0.191-0.506-0.191-0.82
			c0-0.553,0.205-1.02,0.615-1.402s0.959-0.574,1.647-0.574c0.265,0,0.534,0.035,0.811,0.104c0.275,0.068,0.5,0.15,0.673,0.246
			l0.157-0.355h0.492l0.103,2.166h-0.472c-0.096-0.484-0.302-0.879-0.619-1.184c-0.316-0.305-0.702-0.457-1.158-0.457
			c-0.374,0-0.668,0.094-0.882,0.283c-0.214,0.188-0.321,0.414-0.321,0.682c0,0.205,0.035,0.375,0.105,0.512
			c0.071,0.137,0.177,0.254,0.318,0.35c0.137,0.09,0.309,0.176,0.516,0.256c0.208,0.08,0.464,0.17,0.77,0.27
			c0.301,0.096,0.584,0.207,0.852,0.336C90.935,133.079,91.155,133.219,91.328,133.375z"/>
		<path fill="#FFFFFF" d="M102.689,136.553c-0.214,0.078-0.402,0.141-0.564,0.188c-0.161,0.049-0.345,0.072-0.55,0.072
			c-0.355,0-0.64-0.082-0.851-0.25c-0.213-0.166-0.348-0.408-0.407-0.727h-0.041c-0.296,0.328-0.614,0.578-0.954,0.752
			c-0.339,0.172-0.748,0.26-1.227,0.26c-0.506,0-0.922-0.156-1.248-0.465c-0.325-0.311-0.488-0.717-0.488-1.217
			c0-0.26,0.036-0.492,0.109-0.697s0.183-0.391,0.328-0.555c0.114-0.137,0.265-0.258,0.451-0.365s0.362-0.193,0.526-0.256
			c0.205-0.078,0.621-0.221,1.247-0.432c0.627-0.209,1.05-0.373,1.269-0.492v-0.676c0-0.061-0.013-0.174-0.038-0.342
			c-0.024-0.17-0.078-0.328-0.16-0.479c-0.091-0.17-0.22-0.316-0.387-0.441c-0.166-0.125-0.401-0.188-0.707-0.188
			c-0.21,0-0.404,0.035-0.584,0.105c-0.181,0.07-0.307,0.145-0.38,0.223c0,0.09,0.021,0.225,0.065,0.402
			c0.043,0.178,0.064,0.342,0.064,0.492c0,0.16-0.072,0.307-0.215,0.438c-0.145,0.133-0.344,0.199-0.599,0.199
			c-0.228,0-0.396-0.082-0.503-0.244c-0.106-0.16-0.16-0.342-0.16-0.543c0-0.209,0.074-0.41,0.223-0.602
			c0.147-0.191,0.34-0.361,0.577-0.512c0.205-0.129,0.453-0.236,0.745-0.326c0.292-0.088,0.576-0.133,0.854-0.133
			c0.383,0,0.717,0.027,1.001,0.078c0.285,0.053,0.544,0.166,0.776,0.34c0.232,0.168,0.409,0.396,0.53,0.686
			c0.12,0.291,0.181,0.662,0.181,1.119c0,0.65-0.007,1.229-0.021,1.732s-0.021,1.055-0.021,1.65c0,0.178,0.03,0.32,0.093,0.424
			c0.061,0.105,0.155,0.193,0.283,0.268c0.068,0.041,0.177,0.063,0.324,0.068c0.148,0.004,0.3,0.006,0.455,0.006V136.553z
			 M100.304,132.944c-0.388,0.115-0.727,0.227-1.019,0.336s-0.563,0.246-0.813,0.412c-0.228,0.154-0.408,0.338-0.54,0.551
			s-0.198,0.465-0.198,0.758c0,0.379,0.099,0.656,0.298,0.834c0.197,0.18,0.449,0.268,0.755,0.268c0.323,0,0.608-0.078,0.854-0.236
			c0.246-0.156,0.453-0.344,0.622-0.559L100.304,132.944z"/>
		<path fill="#FFFFFF" d="M110.804,136.676h-3.295v-0.451c0.104-0.008,0.22-0.018,0.345-0.027c0.126-0.008,0.229-0.027,0.312-0.055
			c0.128-0.041,0.222-0.113,0.284-0.215c0.061-0.104,0.092-0.236,0.092-0.4v-3.465c0-0.479-0.113-0.848-0.339-1.107
			c-0.227-0.26-0.502-0.391-0.826-0.391c-0.242,0-0.464,0.037-0.664,0.113c-0.201,0.074-0.38,0.168-0.535,0.277
			c-0.15,0.104-0.271,0.217-0.359,0.338s-0.154,0.217-0.195,0.291v3.875c0,0.156,0.032,0.283,0.096,0.383
			c0.063,0.102,0.159,0.178,0.287,0.232c0.096,0.047,0.199,0.08,0.312,0.104c0.111,0.021,0.227,0.039,0.345,0.047v0.451h-3.302
			v-0.451c0.104-0.008,0.213-0.018,0.324-0.027c0.112-0.008,0.209-0.027,0.291-0.055c0.128-0.041,0.223-0.111,0.283-0.215
			c0.063-0.102,0.093-0.234,0.093-0.398v-4.158c0-0.156-0.033-0.297-0.099-0.428c-0.066-0.129-0.159-0.234-0.277-0.316
			c-0.087-0.055-0.189-0.096-0.308-0.121c-0.118-0.023-0.246-0.041-0.383-0.051v-0.451l2.242-0.15l0.096,0.096v0.951h0.034
			c0.109-0.109,0.246-0.24,0.41-0.395c0.164-0.152,0.319-0.275,0.465-0.371c0.169-0.109,0.369-0.201,0.602-0.273
			c0.232-0.074,0.494-0.109,0.786-0.109c0.647,0,1.127,0.201,1.438,0.604c0.313,0.404,0.469,0.941,0.469,1.611v3.506
			c0,0.16,0.027,0.289,0.082,0.387s0.148,0.174,0.28,0.229c0.109,0.047,0.204,0.078,0.284,0.096c0.079,0.02,0.189,0.033,0.331,0.041
			V136.676z"/>
		<path fill="#FFFFFF" d="M119.014,136.553l-2.358,0.15l-0.103-0.096v-0.629l-0.055-0.014c-0.236,0.266-0.529,0.48-0.877,0.65
			c-0.349,0.168-0.707,0.252-1.075,0.252c-0.383,0-0.752-0.086-1.109-0.256c-0.357-0.172-0.668-0.412-0.932-0.721
			c-0.269-0.314-0.481-0.693-0.639-1.135c-0.157-0.443-0.235-0.93-0.235-1.463c0-0.488,0.084-0.951,0.253-1.389
			c0.168-0.438,0.4-0.82,0.696-1.148c0.277-0.305,0.617-0.549,1.021-0.73c0.402-0.184,0.813-0.273,1.231-0.273
			c0.314,0,0.623,0.039,0.926,0.119c0.302,0.08,0.563,0.182,0.781,0.305v-2.35c0-0.191-0.032-0.367-0.096-0.523
			c-0.063-0.158-0.152-0.277-0.267-0.359c-0.128-0.088-0.3-0.15-0.517-0.189c-0.216-0.039-0.449-0.066-0.7-0.086v-0.424l2.762-0.15
			l0.103,0.104v9.086c0,0.158,0.031,0.295,0.092,0.406c0.063,0.111,0.152,0.205,0.271,0.283c0.087,0.055,0.212,0.088,0.376,0.102
			s0.314,0.023,0.451,0.027V136.553z M116.539,135.372v-3.945c-0.036-0.117-0.096-0.246-0.178-0.383
			c-0.081-0.137-0.184-0.262-0.307-0.375c-0.132-0.115-0.286-0.209-0.464-0.285c-0.178-0.074-0.385-0.111-0.621-0.111
			c-0.272,0-0.524,0.07-0.754,0.211c-0.229,0.143-0.434,0.344-0.61,0.609c-0.168,0.254-0.302,0.58-0.399,0.973
			c-0.098,0.395-0.146,0.832-0.146,1.311c0,0.383,0.036,0.73,0.109,1.041c0.072,0.313,0.195,0.604,0.368,0.873
			c0.159,0.254,0.362,0.459,0.61,0.615c0.248,0.154,0.543,0.232,0.884,0.232c0.364,0,0.665-0.08,0.904-0.24
			C116.174,135.739,116.375,135.563,116.539,135.372z"/>
		<path fill="#FFFFFF" d="M129.89,133.299c0,1.012-0.319,1.861-0.957,2.551c-0.638,0.688-1.379,1.031-2.222,1.031
			c-0.369,0-0.732-0.057-1.09-0.17c-0.358-0.115-0.694-0.268-1.009-0.459l-0.506,0.787l-0.424-0.096
			c0.022-0.338,0.039-0.744,0.048-1.219s0.014-0.932,0.014-1.375v-6.676c0-0.154-0.035-0.311-0.105-0.465
			c-0.071-0.154-0.161-0.268-0.271-0.336c-0.087-0.059-0.231-0.104-0.435-0.133c-0.202-0.029-0.365-0.049-0.488-0.059v-0.438
			l2.475-0.15l0.096,0.104v4.443l0.048,0.014c0.282-0.301,0.591-0.527,0.927-0.678c0.334-0.15,0.664-0.225,0.987-0.225
			c0.829,0,1.522,0.328,2.078,0.984S129.89,132.247,129.89,133.299z M128.461,133.348c0-0.338-0.036-0.682-0.109-1.033
			c-0.073-0.35-0.187-0.656-0.342-0.916c-0.155-0.264-0.357-0.479-0.608-0.643s-0.552-0.246-0.902-0.246
			c-0.319,0-0.599,0.063-0.837,0.188c-0.24,0.127-0.455,0.297-0.646,0.51v3.924c0.027,0.109,0.081,0.238,0.16,0.383
			c0.08,0.146,0.188,0.285,0.325,0.418c0.137,0.127,0.292,0.23,0.465,0.311s0.385,0.119,0.636,0.119
			c0.556,0,1.005-0.268,1.347-0.807C128.29,135.018,128.461,134.282,128.461,133.348z"/>
		<path fill="#FFFFFF" d="M137.464,133.239c0,0.473-0.075,0.939-0.226,1.396c-0.15,0.459-0.365,0.848-0.644,1.166
			c-0.314,0.365-0.68,0.637-1.095,0.814s-0.881,0.266-1.396,0.266c-0.429,0-0.837-0.08-1.225-0.242s-0.732-0.398-1.033-0.707
			c-0.297-0.307-0.532-0.678-0.708-1.119c-0.176-0.439-0.264-0.932-0.264-1.479c0-1.053,0.307-1.914,0.92-2.584
			c0.614-0.67,1.418-1.006,2.412-1.006c0.944,0,1.724,0.318,2.338,0.953C137.157,131.334,137.464,132.18,137.464,133.239z
			 M136.049,133.252c0-0.342-0.034-0.703-0.103-1.084s-0.172-0.703-0.309-0.967c-0.146-0.283-0.338-0.51-0.575-0.682
			c-0.237-0.17-0.527-0.256-0.87-0.256c-0.352,0-0.651,0.088-0.9,0.26c-0.248,0.174-0.45,0.41-0.605,0.711
			c-0.146,0.279-0.249,0.596-0.309,0.951s-0.089,0.699-0.089,1.031c0,0.438,0.035,0.842,0.106,1.213
			c0.07,0.373,0.184,0.703,0.339,0.996c0.155,0.291,0.351,0.52,0.585,0.686c0.235,0.168,0.526,0.25,0.873,0.25
			c0.571,0,1.023-0.275,1.356-0.826C135.882,134.983,136.049,134.223,136.049,133.252z"/>
		<path fill="#FFFFFF" d="M142.598,136.383c-0.296,0.123-0.576,0.227-0.841,0.311s-0.588,0.127-0.971,0.127
			c-0.565,0-0.963-0.143-1.193-0.428c-0.229-0.285-0.345-0.688-0.345-1.207v-4.566h-1.217v-0.656h1.244v-2.098h1.244v2.098h1.935
			v0.656h-1.921v3.768c0,0.281,0.011,0.518,0.03,0.707c0.021,0.189,0.07,0.354,0.147,0.496c0.073,0.131,0.183,0.232,0.328,0.301
			s0.342,0.102,0.588,0.102c0.114,0,0.281-0.01,0.503-0.031c0.221-0.02,0.377-0.045,0.468-0.078V136.383z"/>
		<path fill="#FFFFFF" d="M147.431,136.383c-0.296,0.123-0.576,0.227-0.841,0.311s-0.588,0.127-0.971,0.127
			c-0.565,0-0.963-0.143-1.193-0.428c-0.229-0.285-0.345-0.688-0.345-1.207v-4.566h-1.217v-0.656h1.244v-2.098h1.244v2.098h1.935
			v0.656h-1.921v3.768c0,0.281,0.011,0.518,0.03,0.707c0.021,0.189,0.07,0.354,0.147,0.496c0.073,0.131,0.183,0.232,0.328,0.301
			s0.342,0.102,0.588,0.102c0.114,0,0.281-0.01,0.503-0.031c0.221-0.02,0.377-0.045,0.468-0.078V136.383z"/>
		<path fill="#FFFFFF" d="M151.259,136.676h-3.288v-0.451c0.104-0.008,0.217-0.02,0.335-0.031c0.118-0.01,0.217-0.027,0.294-0.051
			c0.128-0.041,0.224-0.113,0.287-0.215c0.063-0.104,0.096-0.236,0.096-0.4v-7.813c0-0.164-0.035-0.318-0.106-0.461
			c-0.07-0.145-0.162-0.258-0.276-0.34c-0.082-0.055-0.232-0.104-0.451-0.15c-0.219-0.045-0.395-0.072-0.526-0.082v-0.438
			l2.536-0.15l0.096,0.104v9.248c0,0.16,0.029,0.291,0.089,0.393c0.06,0.104,0.155,0.182,0.287,0.236
			c0.101,0.047,0.199,0.08,0.297,0.104c0.099,0.021,0.209,0.039,0.332,0.047V136.676z"/>
		<path fill="#FFFFFF" d="M158.095,135.09c-0.282,0.539-0.661,0.967-1.135,1.285c-0.474,0.32-1.019,0.479-1.634,0.479
			c-0.542,0-1.018-0.096-1.425-0.287c-0.408-0.191-0.744-0.451-1.009-0.779s-0.462-0.711-0.591-1.148
			c-0.131-0.438-0.195-0.9-0.195-1.387c0-0.438,0.069-0.867,0.209-1.289c0.139-0.422,0.343-0.801,0.611-1.139
			c0.26-0.322,0.582-0.584,0.967-0.783c0.386-0.197,0.817-0.297,1.296-0.297c0.492,0,0.914,0.078,1.265,0.232
			c0.351,0.156,0.636,0.367,0.854,0.637c0.21,0.254,0.366,0.555,0.468,0.902c0.104,0.346,0.154,0.723,0.154,1.127v0.451h-4.464
			c0,0.443,0.042,0.846,0.126,1.207c0.085,0.359,0.218,0.678,0.4,0.951c0.178,0.266,0.41,0.475,0.697,0.627
			c0.287,0.154,0.629,0.23,1.025,0.23c0.405,0,0.756-0.096,1.049-0.285c0.295-0.191,0.578-0.533,0.852-1.027L158.095,135.09z
			 M156.584,132.52c0-0.254-0.021-0.527-0.065-0.816c-0.043-0.291-0.112-0.535-0.208-0.73c-0.104-0.209-0.248-0.379-0.431-0.512
			c-0.183-0.131-0.417-0.197-0.704-0.197c-0.479,0-0.876,0.199-1.192,0.598c-0.317,0.396-0.489,0.949-0.517,1.658H156.584z"/>
		<path fill="#FFFFFF" d="M166.318,136.676h-3.295v-0.451c0.104-0.008,0.22-0.018,0.345-0.027c0.126-0.008,0.229-0.027,0.312-0.055
			c0.128-0.041,0.222-0.113,0.284-0.215c0.061-0.104,0.092-0.236,0.092-0.4v-3.465c0-0.479-0.113-0.848-0.339-1.107
			c-0.227-0.26-0.502-0.391-0.826-0.391c-0.242,0-0.464,0.037-0.664,0.113c-0.201,0.074-0.38,0.168-0.535,0.277
			c-0.15,0.104-0.271,0.217-0.359,0.338s-0.154,0.217-0.195,0.291v3.875c0,0.156,0.032,0.283,0.096,0.383
			c0.063,0.102,0.159,0.178,0.287,0.232c0.096,0.047,0.199,0.08,0.312,0.104c0.111,0.021,0.227,0.039,0.345,0.047v0.451h-3.302
			v-0.451c0.104-0.008,0.213-0.018,0.324-0.027c0.112-0.008,0.209-0.027,0.291-0.055c0.128-0.041,0.223-0.111,0.283-0.215
			c0.063-0.102,0.093-0.234,0.093-0.398v-4.158c0-0.156-0.033-0.297-0.099-0.428c-0.066-0.129-0.159-0.234-0.277-0.316
			c-0.087-0.055-0.189-0.096-0.308-0.121c-0.118-0.023-0.246-0.041-0.383-0.051v-0.451l2.242-0.15l0.096,0.096v0.951h0.034
			c0.109-0.109,0.246-0.24,0.41-0.395c0.164-0.152,0.319-0.275,0.465-0.371c0.169-0.109,0.369-0.201,0.602-0.273
			c0.232-0.074,0.494-0.109,0.786-0.109c0.647,0,1.127,0.201,1.438,0.604c0.313,0.404,0.469,0.941,0.469,1.611v3.506
			c0,0.16,0.027,0.289,0.082,0.387s0.148,0.174,0.28,0.229c0.109,0.047,0.204,0.078,0.284,0.096c0.079,0.02,0.189,0.033,0.331,0.041
			V136.676z"/>
		<path fill="#FFFFFF" d="M173.134,135.09c-0.282,0.539-0.661,0.967-1.135,1.285c-0.474,0.32-1.019,0.479-1.634,0.479
			c-0.542,0-1.018-0.096-1.425-0.287c-0.408-0.191-0.744-0.451-1.009-0.779s-0.462-0.711-0.591-1.148
			c-0.131-0.438-0.195-0.9-0.195-1.387c0-0.438,0.069-0.867,0.209-1.289c0.139-0.422,0.343-0.801,0.611-1.139
			c0.26-0.322,0.582-0.584,0.967-0.783c0.386-0.197,0.817-0.297,1.296-0.297c0.492,0,0.914,0.078,1.265,0.232
			c0.351,0.156,0.636,0.367,0.854,0.637c0.21,0.254,0.366,0.555,0.468,0.902c0.104,0.346,0.154,0.723,0.154,1.127v0.451h-4.464
			c0,0.443,0.042,0.846,0.126,1.207c0.085,0.359,0.218,0.678,0.4,0.951c0.178,0.266,0.41,0.475,0.697,0.627
			c0.287,0.154,0.629,0.23,1.025,0.23c0.405,0,0.756-0.096,1.049-0.285c0.295-0.191,0.578-0.533,0.852-1.027L173.134,135.09z
			 M171.623,132.52c0-0.254-0.021-0.527-0.065-0.816c-0.043-0.291-0.112-0.535-0.208-0.73c-0.104-0.209-0.248-0.379-0.431-0.512
			c-0.183-0.131-0.417-0.197-0.704-0.197c-0.479,0-0.876,0.199-1.192,0.598c-0.317,0.396-0.489,0.949-0.517,1.658H171.623z"/>
		<path fill="#FFFFFF" d="M177.03,136.854c-0.976,0-1.738-0.322-2.29-0.971c-0.552-0.646-0.827-1.516-0.827-2.604
			c0-0.475,0.074-0.918,0.223-1.33c0.147-0.412,0.363-0.787,0.646-1.125c0.269-0.322,0.606-0.584,1.012-0.783
			c0.405-0.197,0.848-0.297,1.326-0.297c0.661,0,1.198,0.158,1.613,0.475c0.415,0.318,0.622,0.75,0.622,1.297
			c0,0.227-0.055,0.43-0.164,0.604c-0.109,0.176-0.289,0.264-0.54,0.264c-0.269,0-0.478-0.068-0.626-0.203
			c-0.147-0.137-0.222-0.289-0.222-0.457c0-0.205,0.027-0.414,0.082-0.631c0.055-0.215,0.087-0.373,0.096-0.473
			c-0.082-0.141-0.203-0.236-0.365-0.283c-0.161-0.049-0.335-0.072-0.521-0.072c-0.218,0-0.426,0.047-0.624,0.141
			c-0.197,0.094-0.39,0.266-0.576,0.516c-0.168,0.229-0.304,0.535-0.408,0.924c-0.105,0.387-0.157,0.85-0.157,1.387
			c0,0.848,0.188,1.539,0.563,2.074c0.375,0.537,0.867,0.805,1.478,0.805c0.441,0,0.811-0.107,1.108-0.324
			c0.299-0.215,0.575-0.537,0.83-0.969l0.437,0.287c-0.301,0.539-0.697,0.965-1.189,1.279S177.555,136.854,177.03,136.854z"/>
		<path fill="#FFFFFF" d="M187.414,136.676h-2.034c-0.355-0.514-0.736-1.064-1.143-1.652s-0.828-1.158-1.266-1.715l-0.562,0.523v1.6
			c0,0.164,0.029,0.301,0.089,0.406c0.06,0.107,0.155,0.188,0.287,0.236c0.109,0.047,0.214,0.08,0.314,0.104
			c0.101,0.021,0.217,0.039,0.349,0.047v0.451h-3.302v-0.451c0.104-0.008,0.213-0.02,0.326-0.031
			c0.113-0.01,0.208-0.027,0.285-0.051c0.126-0.041,0.222-0.113,0.285-0.215c0.063-0.104,0.095-0.236,0.095-0.4v-7.84
			c0-0.168-0.035-0.326-0.106-0.475c-0.07-0.148-0.162-0.262-0.276-0.34c-0.096-0.072-0.245-0.119-0.448-0.143
			c-0.202-0.023-0.365-0.039-0.488-0.049v-0.438l2.495-0.15l0.096,0.104v7.131c0.355-0.355,0.74-0.736,1.152-1.145
			c0.413-0.408,0.761-0.771,1.044-1.09c0.036-0.041,0.076-0.096,0.119-0.162s0.065-0.119,0.065-0.16c0-0.123-0.1-0.215-0.298-0.275
			c-0.198-0.059-0.389-0.1-0.57-0.123v-0.438h2.965v0.424c-0.383,0.115-0.721,0.256-1.016,0.428
			c-0.293,0.17-0.518,0.324-0.673,0.461c-0.109,0.092-0.265,0.24-0.465,0.443c-0.201,0.205-0.481,0.475-0.842,0.807
			c0.373,0.461,0.794,1.012,1.262,1.654c0.467,0.643,0.808,1.109,1.022,1.396c0.2,0.268,0.381,0.443,0.54,0.525
			s0.392,0.133,0.697,0.15V136.676z"/>
		<path fill="#FFFFFF" d="M192.22,133.375c0.187,0.164,0.33,0.354,0.431,0.566c0.101,0.215,0.15,0.477,0.15,0.787
			c0,0.623-0.233,1.135-0.701,1.531c-0.467,0.396-1.071,0.594-1.814,0.594c-0.392,0-0.753-0.07-1.084-0.211
			c-0.33-0.143-0.565-0.271-0.707-0.391l-0.137,0.445h-0.513l-0.068-2.346h0.472c0.036,0.18,0.114,0.387,0.232,0.625
			s0.262,0.453,0.431,0.645c0.178,0.201,0.391,0.371,0.64,0.508c0.248,0.137,0.527,0.205,0.837,0.205c0.438,0,0.774-0.1,1.012-0.299
			s0.355-0.484,0.355-0.855c0-0.191-0.038-0.357-0.112-0.496c-0.076-0.139-0.187-0.262-0.332-0.365
			c-0.15-0.105-0.335-0.199-0.554-0.285c-0.219-0.084-0.463-0.166-0.731-0.248c-0.214-0.064-0.452-0.152-0.715-0.264
			c-0.262-0.111-0.486-0.242-0.673-0.393c-0.2-0.16-0.364-0.355-0.492-0.588s-0.191-0.506-0.191-0.82
			c0-0.553,0.205-1.02,0.615-1.402s0.959-0.574,1.647-0.574c0.265,0,0.534,0.035,0.811,0.104c0.275,0.068,0.5,0.15,0.673,0.246
			l0.157-0.355h0.492l0.103,2.166h-0.472c-0.096-0.484-0.302-0.879-0.619-1.184c-0.316-0.305-0.702-0.457-1.158-0.457
			c-0.374,0-0.668,0.094-0.882,0.283c-0.214,0.188-0.321,0.414-0.321,0.682c0,0.205,0.035,0.375,0.105,0.512
			c0.071,0.137,0.177,0.254,0.318,0.35c0.137,0.09,0.309,0.176,0.516,0.256c0.208,0.08,0.464,0.17,0.77,0.27
			c0.301,0.096,0.584,0.207,0.852,0.336C191.826,133.079,192.047,133.219,192.22,133.375z"/>
	</g>
</g>
<g>
	<g>
		<path fill="#FFFFFF" d="M295.974,120.006c-0.01-0.008-0.017-0.012-0.024-0.02c-0.312-0.806-0.665-1.6-1.07-2.379
			c-0.435-0.836-0.929-1.636-1.448-2.419c-0.492-2.881-1.127-5.925-1.933-8.724c-0.031-0.387-0.079-0.777-0.17-1.172
			c-0.468-2.019-1.683-3.76-2.308-5.711c-0.097-0.555-0.211-1.106-0.354-1.654c-0.099-0.374-0.608-0.204-0.56,0.154
			c0.035,0.262,0.098,0.514,0.156,0.766c-0.642-0.938-1.338-1.688-2.1-2.165c0,0,1.396,3.067,2.734,7.69
			c0.196,2.293,0.457,4.563,1.303,6.666c-0.702-0.778-1.436-1.526-2.18-2.258c-0.553-1.972-1.211-3.566-1.99-4.394
			c0,0,0.216,1.173,0.484,2.983c-1.164-1.063-2.354-2.092-3.566-3.094c-0.664-1.785-1.465-3.393-2.43-4.681
			c0,0,0.279,1.224,0.621,3.194c-0.853-0.699-1.703-1.4-2.543-2.117c-0.932-0.793-1.869-1.678-2.587-2.672
			c-0.141-0.196-0.512-0.154-0.495,0.135c0.15,2.617,1.289,4.701,3.021,6.376c-0.246,1.354-2.52,14.146-2.028,21.425h-0.062
			c0.043,0.262,0.043,0.298,0,0c-0.698-5.063-3.579-26.798-2.237-35.037c0,0-1.86,7.471-1.627,30.32
			c-0.291-4.458-1.185-10.414-3.815-13.792c0,0,2.848,12.905,0.561,18.509c-0.158,0.395-0.346,1.329-0.561,1.329
			c0,0-0.117-0.646-0.298-1.329c-0.983-3.65-3.96-15.912-2.313-25.247c0,0-3.363,6.247-2.43,25.247l0.043,1.329
			c-0.006,0-1.143-15.263-2.582-16.839c0,0,0.047,8.156-0.402,15.51c-0.021,0.359-0.041,1.329-0.063,1.329
			c0,0-0.033-0.646-0.104-1.329c-0.271-2.729-1.081-10.169-2.373-16.499V45.493h40.5v-30h-89v30h40.5v63.531
			c-0.32,0.666-2.761,6.107-2.359,16.678c0,0-4.002-11.744-0.042-21.313c0,0-3.939,3.595-4.035,13.032
			c-0.894-7.43-2.591-17.649-5.492-21.735c0,0,4.787,17.187,2.834,29.366c0,0-5.076-9.237-2.834-13.926
			c0,0-3.037,2.834-2.172,14.141c0,0-4.349-8.26-1.088-20.877c0,0-3.097,5.912-3.09,15.773c-0.505-5.815-1.439-13.834-2.997-17.732
			c0,0,0.775,16.722-0.796,23.508c-0.09,0.387-0.188,1.329-0.298,1.329c0,0-0.153-0.646-0.381-1.329
			c-0.915-2.723-3.095-10.428-2.224-19.811c0,0-2.201,5.166-0.871,16.39c-1.115-6.661-3.65-18.757-7.832-22.476
			c0,0,6.543,14.506,5.158,25.896c-0.041,0.359-0.097,1.329-0.151,1.329c0,0-0.574-0.61-1.345-1.329
			c-2.056-1.918-5.559-6.516-3.662-14.59c0,0-2.811,5.263-1.662,14.59c0,0,0.09,1.087,0.098,1.163
			c-0.048-0.235-3.98-15.351-0.381-29.24c0,0-4.798,3.731-4.784,28.078v13.294h85.033c0,0.002,2,0.004,2,0.006 M276.556,29.301
			c0-1.681,0.574-2.465,1.989-2.465c1.919,0,1.989,1.443,1.989,2.969v0.967h-2.619v0.462c0,1.289,0.126,1.695,0.966,1.695
			c0.478,0,0.729-0.224,0.896-0.448l0.828,0.826c-0.295,0.42-0.813,0.869-1.92,0.869c-1.652,0-2.129-0.924-2.129-2.605V29.301
			L276.556,29.301z M271.978,27.003h0.938l0.14,0.687c0.28-0.351,0.715-0.854,1.443-0.854c1.135,0,1.191,0.784,1.191,2.031v5.127
			h-1.332v-4.875c0-0.743-0.111-0.854-0.434-0.854c-0.266,0-0.504,0.182-0.615,0.28v5.449h-1.332V27.003L271.978,27.003z
			 M267.147,29.301c0-1.681,0.574-2.465,1.99-2.465c1.4,0,1.988,0.742,1.988,2.465v2.409c0,1.723-0.588,2.465-1.988,2.465
			c-1.416,0-1.99-0.785-1.99-2.465V29.301z M262.052,32.648l3.04-7.312h-2.633v-1.429h4.16v1.359l-3.026,7.284h2.9v1.443h-4.439
			v-1.345H262.052z M257.013,27.003h0.938l0.168,0.98c0.35-0.938,0.896-1.135,1.597-1.163v1.471
			c-0.63,0.014-1.008,0.224-1.373,0.743v4.958h-1.331v-6.989H257.013z M252.099,29.301c0-1.681,0.574-2.465,1.989-2.465
			c1.919,0,1.989,1.443,1.989,2.969v0.967h-2.619v0.462c0,1.289,0.126,1.695,0.966,1.695c0.478,0,0.729-0.224,0.896-0.448
			l0.828,0.826c-0.295,0.42-0.813,0.869-1.92,0.869c-1.652,0-2.129-0.924-2.129-2.605V29.301z M240.354,31.276
			c0,2.367-1.037,2.717-3.066,2.717h-1.555V23.908h1.82c1.85,0,2.773,0.392,2.773,2.423v0.56c0,1.191-0.42,1.821-1.275,1.877
			c0.827,0.098,1.303,0.728,1.303,1.793V31.276z M244.946,33.993h-0.938l-0.14-0.63c-0.28,0.35-0.688,0.798-1.317,0.798
			c-1.233,0-1.317-0.882-1.317-1.779v-5.379h1.332v4.875c0,0.743,0.111,0.854,0.447,0.854c0.225,0,0.434-0.126,0.603-0.28v-5.449
			h1.331V33.993L244.946,33.993z M249.049,33.993V28.25h-1.457v5.743h-1.331V28.25h-0.771v-1.008l0.771-0.182v-1.051
			c0-1.625,0.49-2.297,1.836-2.297c0.393,0,0.784,0.126,0.826,0.14v1.191c-0.098-0.028-0.406-0.07-0.658-0.07
			c-0.645,0-0.672,0.49-0.672,1.219v0.812h1.457v-0.995c0-1.625,0.49-2.297,1.835-2.297c0.392,0,0.785,0.126,0.827,0.14v1.191
			c-0.098-0.028-0.406-0.07-0.658-0.07c-0.645,0-0.673,0.49-0.673,1.219v0.812h1.205v1.247h-1.205v5.743L249.049,33.993
			L249.049,33.993z M290.263,122.991c0.121,0.45,0.237,0.905,0.344,1.367c0.041,0.171,0.076,0.344,0.115,0.516
			c-0.05,0.146-0.1,0.317-0.15,0.517c-0.029,0.112-0.059,0.254-0.088,0.382C290.437,125.077,290.364,124.12,290.263,122.991z
			 M288.922,110.79c0.636,0.674,1.248,1.369,1.837,2.082c0.188,1.287,0.338,2.61,0.43,3.955c-0.084-0.066-0.147-0.107-0.164-0.096
			c-0.008,0.005-0.01,0.016-0.015,0.027c-0.532-0.652-1.059-1.221-1.55-1.703c-0.003-0.004-0.006-0.006-0.009-0.01
			c-0.056-0.053-0.108-0.103-0.162-0.154c-0.237-1.502-0.513-2.99-0.828-4.369C288.612,110.614,288.771,110.695,288.922,110.79z
			 M286.821,109.573c0.146,1.133,0.293,2.379,0.414,3.678c-0.004-0.002-0.008-0.006-0.014-0.008
			c-0.027-0.017-0.052-0.029-0.076-0.043c-0.043-0.023-0.082-0.045-0.119-0.062c-0.006-0.005-0.014-0.007-0.021-0.011
			c-0.043-0.02-0.081-0.035-0.112-0.045c-0.006-0.002-0.01-0.002-0.015-0.004c-0.026-0.009-0.052-0.014-0.071-0.015
			c-0.002,0-0.006-0.001-0.008-0.001l0.002,0.003c-0.017,0.001-0.033,0.001-0.043,0.009c-0.07,0.063-0.046,0.258,0.057,0.561
			c0.051,0.15,0.121,0.328,0.209,0.529c0.082,0.205,0.18,0.438,0.293,0.688c0.02,0.046,0.045,0.103,0.065,0.149
			c0.14,1.897,0.21,3.826,0.152,5.586c-0.634-1.037-1.261-1.883-1.8-2.518c-0.293-3.099-0.785-6.617-1.606-9.91
			C285.028,108.627,285.931,109.092,286.821,109.573z M286.731,125.639c-0.196-0.191-0.39-0.371-0.58-0.535
			c-0.019-0.775-0.051-1.757-0.11-2.887c0.278,1.004,0.551,2.086,0.772,3.219C286.788,125.506,286.758,125.57,286.731,125.639z
			 M280.996,125.937c-0.152,0.367-0.257,0.886-0.479,1.329c0,0-0.055-0.652-0.131-1.329c-0.439-3.593-1.804-15.317-1.826-21.399
			c0.678,0.651,1.438,1.246,2.277,1.777c0.296,0.188,0.605,0.352,0.907,0.529C282.459,112.495,282.89,120.301,280.996,125.937z"/>
	</g>
	<g>
		<path fill="#FFFFFF" d="M237.666,25.252h-0.546v2.941h0.574c0.854,0,1.19-0.448,1.19-1.163v-0.462
			C238.885,25.504,238.535,25.252,237.666,25.252z"/>
	</g>
	<g>
		<path fill="#FFFFFF" d="M254.088,28.012c-0.588,0-0.616,0.406-0.616,1.681h1.247C254.704,28.376,254.69,28.012,254.088,28.012z"/>
	</g>
	<g>
		<path fill="#FFFFFF" d="M237.722,29.497h-0.603v3.124h0.462c1.037,0,1.303-0.336,1.303-1.401v-0.49
			C238.885,29.679,238.478,29.497,237.722,29.497z"/>
	</g>
	<g>
		<path fill="#FFFFFF" d="M269.138,32.971c0.573,0,0.615-0.435,0.615-1.135v-2.689c0-0.7-0.042-1.135-0.615-1.135
			c-0.519,0-0.617,0.42-0.617,1.135v2.689C268.521,32.55,268.619,32.971,269.138,32.971z"/>
	</g>
	<g>
		<path fill="#FFFFFF" d="M278.545,28.012c-0.588,0-0.616,0.406-0.616,1.681h1.247C279.161,28.376,279.147,28.012,278.545,28.012z"
			/>
	</g>
</g>
</svg>
