<?xml version="1.0" encoding="utf-8"?>
<!-- Generator: Adobe Illustrator 16.0.0, SVG Export Plug-In . SVG Version: 6.00 Build 0)  -->
<!DOCTYPE svg PUBLIC "-//W3C//DTD SVG 1.1//EN" "http://www.w3.org/Graphics/SVG/1.1/DTD/svg11.dtd">
<svg version="1.1" id="Layer_1" xmlns="http://www.w3.org/2000/svg" xmlns:xlink="http://www.w3.org/1999/xlink" x="0px" y="0px"
	 width="288px" height="144px" viewBox="0 0 288 144" enable-background="new 0 0 288 144" xml:space="preserve">
<g>
	<g>
		<g id="Qs4kea_1_">
			<g>
				<g>
					<g>
						<path fill="#FFFFFF" d="M201.757,54.508c-2.062-2.46-5.545-3.343-8.61-2.028c-0.274,0.117-0.539,0.252-0.905,0.427
							c-1.169-2.12-3.097-3.184-5.316-3.831h-2.262c-2.651,0.669-4.749,2.037-5.815,4.672c-0.195,0.484-0.322,0.996-0.494,1.536
							c-0.854,0.068-1.727,0.035-2.549,0.224c-3.373,0.776-5.586,3.52-5.839,7.039c-0.032,0.447-0.292,0.997-0.631,1.281
							c-3.464,2.909-3.741,7.843-0.624,11.124c0.316,0.335,0.529,0.886,0.572,1.356c0.465,5.184,5.359,8.295,10.247,6.519
							c0.372-0.136,0.922-0.022,1.301,0.155c1.239,0.588,2.442,1.258,3.772,1.957c0.699,4.961,0.313,27.434-1.295,32.425h9.051
							c-0.963-3.923-1.98-25.22-0.907-29.292c0.108-0.412,0.287-0.859,0.571-1.156c0.859-0.895,1.785-1.721,2.765-2.65
							c1.478,0.862,3.176,1.328,5.039,1.084c5.468,1.195,10.468-2.627,10.468-14.055c0-7-7.5-7.5-7.5-7.5
							S206.079,60.08,201.757,54.508z M184.635,82.533c-0.887-0.359-1.775-0.717-2.746-1.104c0.572-0.757,1.021-1.352,1.543-2.041
							c0.485,1.008,0.93,1.932,1.375,2.861C184.748,82.344,184.691,82.439,184.635,82.533z M188.053,82.449
							c-0.384,0.919-0.886,1.007-1.473,0.229c-0.771-1.031-1.404-2.167-2.141-3.326c1.584,0.25,2.901,0.461,4.33,0.688
							C188.545,80.82,188.376,81.669,188.053,82.449z M190.936,84.561c-0.76,0.401-1.336,0.103-1.254-0.754
							c0.129-1.371,0.387-2.74,0.693-4.082c0.072-0.311,0.561-0.522,0.867-0.787c0.642,1.398,1.236,2.697,1.945,4.242
							C192.516,83.598,191.751,84.124,190.936,84.561z"/>
					</g>
				</g>
			</g>
		</g>
		<g id="Qs4kea_2_">
			<g>
				<g>
					<g>
						<path fill="#FFFFFF" d="M171.564,82.876c-1.853-1.308-2.315-4.01-3.363-6.717c-0.52-1.343-2.006-2.802-2.258-3.865
							c-1.139-4.822,0.68-6.07,2.982-9.343c0.242-7.029,5.168-7.319,8.6-8.444c-2.062-2.46-5.543-3.343-8.609-2.028
							c-0.273,0.117-0.54,0.252-0.906,0.427c-1.169-2.12-3.096-3.184-5.316-3.831h-2.262c-2.652,0.669-4.748,2.037-5.814,4.672
							c-0.195,0.484-0.322,0.996-0.495,1.536c-0.854,0.068-1.726,0.035-2.549,0.224c-3.373,0.776-5.585,3.52-5.839,7.039
							c-0.032,0.447-0.291,0.997-0.631,1.281c-3.463,2.909-3.741,7.843-0.624,11.124c0.317,0.335,0.529,0.886,0.573,1.355
							c0.465,5.185,5.358,8.295,10.247,6.52c0.37-0.135,0.921-0.023,1.3,0.154c1.238,0.59,2.441,1.258,3.772,1.957
							c0.698,4.961,0.312,27.435-1.296,32.426h9.051c-0.962-3.922-1.98-25.219-0.906-29.293c0.107-0.411,0.286-0.858,0.571-1.155
							c0.858-0.894,1.785-1.722,2.765-2.649c1.478,0.861,3.176,1.327,5.039,1.084c0.963-0.127,1.857-0.453,2.672-0.906
							C176.061,83.919,173.164,84.004,171.564,82.876z M160.407,82.533c-0.888-0.359-1.775-0.717-2.746-1.104
							c0.571-0.757,1.021-1.352,1.543-2.041c0.485,1.008,0.929,1.932,1.374,2.861C160.52,82.344,160.464,82.439,160.407,82.533z
							 M163.825,82.449c-0.384,0.919-0.886,1.007-1.474,0.229c-0.771-1.031-1.404-2.167-2.14-3.326
							c1.583,0.25,2.901,0.461,4.33,0.688C164.314,80.82,164.148,81.669,163.825,82.449z M166.707,84.561
							c-0.759,0.401-1.334,0.103-1.254-0.754c0.13-1.371,0.387-2.74,0.693-4.082c0.072-0.311,0.561-0.522,0.867-0.787
							c0.643,1.398,1.236,2.697,1.945,4.242C168.285,83.598,167.521,84.124,166.707,84.561z"/>
					</g>
				</g>
			</g>
		</g>
		<g id="Qs4kea_3_">
			<g>
				<g>
					<g>
						<path fill="#FFFFFF" d="M272.577,66.108c0.045-0.2,0.075-0.399,0.106-0.597c-0.297-0.05-0.521-0.09-0.625-0.113
							c-1.641-0.384-3.363-0.809-4.927-1.518c-0.01-0.003-0.019,0-0.028-0.005c-0.187-0.095-0.369-0.197-0.552-0.294
							c-0.227-0.117-0.462-0.217-0.679-0.349c-0.023-0.015-0.043-0.032-0.066-0.045c-0.203-0.108-0.408-0.212-0.607-0.322
							c-0.04-0.008-0.077-0.002-0.118-0.018c-0.741-0.279-1.483-0.557-2.224-0.834c-0.39-0.147-0.557-0.48-0.562-0.809
							c-2.594-1.121-4.778-4.324-5.096-6.964c-0.44-0.462-0.896-0.911-1.384-1.338c-0.064-0.057-0.098-0.12-0.137-0.182
							c-0.123,0.058-0.246,0.118-0.395,0.188c-1.168-2.12-3.094-3.184-5.314-3.831h-2.262c-2.648,0.669-4.749,2.037-5.814,4.672
							c-0.195,0.484-0.322,0.996-0.496,1.536c-0.854,0.068-1.726,0.035-2.549,0.224c-3.373,0.776-5.584,3.52-5.838,7.039
							c-0.033,0.447-0.291,0.997-0.631,1.281c-3.466,2.909-3.742,7.843-0.624,11.124c0.319,0.335,0.529,0.886,0.572,1.355
							c0.465,5.185,5.358,8.295,10.247,6.52c0.372-0.135,0.922-0.023,1.301,0.154c1.239,0.59,2.441,1.259,3.773,1.957
							c0.699,4.961,0.312,27.435-1.297,32.426h9.051c-0.961-3.922-1.979-25.219-0.906-29.292c0.107-0.412,0.287-0.859,0.572-1.156
							c0.859-0.894,1.785-1.722,2.764-2.649c1.479,0.861,3.176,1.328,5.042,1.084c3.121-0.408,5.628-2.709,6.354-5.787
							c0.102-0.426,0.469-0.922,0.854-1.129c4.135-2.231,5.359-7.142,2.746-11.026C272.594,67.067,272.484,66.508,272.577,66.108z
							 M247.677,82.533c-0.887-0.359-1.774-0.717-2.745-1.104c0.573-0.757,1.021-1.352,1.545-2.041
							c0.484,1.008,0.928,1.932,1.373,2.861C247.792,82.344,247.734,82.439,247.677,82.533z M251.096,82.449
							c-0.385,0.919-0.887,1.007-1.474,0.229c-0.772-1.031-1.404-2.167-2.14-3.326c1.582,0.25,2.9,0.461,4.33,0.688
							C251.587,80.82,251.42,81.669,251.096,82.449z M253.979,84.561c-0.758,0.401-1.336,0.103-1.254-0.754
							c0.131-1.371,0.387-2.74,0.694-4.082c0.072-0.311,0.56-0.522,0.867-0.787c0.642,1.398,1.235,2.697,1.946,4.242
							C255.557,83.598,254.793,84.124,253.979,84.561z"/>
					</g>
				</g>
			</g>
		</g>
		<g>
			<g>
				<path fill="#FFFFFF" d="M272.711,61.723c6.118-4.934,5.809-10.649,3.665-16.523c-1.875-0.113-4.058,0.387-5.076-0.482
					c-1.004-0.856-0.823-3.094-1.245-5.109c-3.095,3.218-4.912,6.792-4.888,11.036c0.026,4.188,2.024,7.723,4.826,10.856
					c-2.612,0.884-6.325-0.459-8.834-3.041c-5.427-5.578-5.89-13.251-1.187-19.504c5.024-6.669,5.655-8.614,5.314-16.664
					c4.799,1.811,8.902,4.52,12.263,8.268c1.414,1.575,2.63,2.439,4.487-0.122c0.757,1.755,1.434,3.093,1.936,4.497
					c2.06,5.763,2.801,11.618,1.035,17.609C283.393,58.006,278.52,61.921,272.711,61.723z"/>
			</g>
		</g>
	</g>
	<g>
		<g>
			<path fill="#FFFFFF" d="M220.904,100.005c1.548-1.247,1.469-2.692,0.927-4.177c-0.474-0.029-1.024,0.098-1.283-0.122
				c-0.254-0.216-0.208-0.782-0.315-1.292c-0.781,0.813-1.241,1.717-1.234,2.79c0.007,1.06,0.512,1.952,1.22,2.744
				c-0.659,0.223-1.599-0.116-2.233-0.769c-1.371-1.41-1.488-3.351-0.299-4.931c1.27-1.687,1.428-2.177,1.342-4.212
				c1.214,0.458,2.25,1.143,3.101,2.09c0.358,0.398,0.665,0.616,1.134-0.031c0.191,0.444,0.362,0.782,0.489,1.137
				c0.521,1.457,0.708,2.938,0.263,4.451C223.605,99.064,222.374,100.055,220.904,100.005z"/>
		</g>
	</g>
	<g>
		<g>
			<path fill="#FFFFFF" d="M218.738,107.324c-0.658-2.235-0.381-4.42,0.387-6.57c0.188-0.523,0.439-1.023,0.723-1.678
				c0.692,0.955,1.146,0.633,1.674,0.045c1.254-1.398,2.785-2.409,4.574-3.085c-0.127,3.003,0.108,3.729,1.983,6.217
				c1.755,2.333,1.582,5.196-0.442,7.276c-0.936,0.964-2.32,1.465-3.296,1.136c1.045-1.169,1.79-2.488,1.8-4.05
				c0.01-1.583-0.668-2.917-1.822-4.117c-0.157,0.752-0.09,1.587-0.465,1.906c-0.381,0.324-1.194,0.138-1.895,0.18
				c-0.8,2.191-0.915,4.324,1.367,6.165C221.159,110.823,219.341,109.363,218.738,107.324z"/>
		</g>
	</g>
	<g>
		<g>
			<path fill="#FFFFFF" d="M226.172,113.134c-0.393-1.331-0.229-2.632,0.23-3.911c0.111-0.313,0.262-0.609,0.43-1
				c0.413,0.569,0.684,0.377,0.997,0.027c0.747-0.833,1.657-1.434,2.724-1.837c-0.076,1.788,0.064,2.22,1.182,3.702
				c1.045,1.389,0.941,3.094-0.264,4.333c-0.557,0.573-1.382,0.872-1.962,0.676c0.622-0.696,1.066-1.481,1.072-2.412
				c0.006-0.942-0.397-1.737-1.086-2.452c-0.095,0.448-0.054,0.945-0.277,1.135c-0.226,0.193-0.711,0.082-1.128,0.107
				c-0.477,1.305-0.545,2.575,0.814,3.671C227.613,115.217,226.531,114.348,226.172,113.134z"/>
		</g>
	</g>
	<g>
		<g>
			<path fill="#FFFFFF" d="M236.032,119.035c1.915-1.544,1.817-3.332,1.147-5.17c-0.588-0.035-1.27,0.121-1.589-0.151
				c-0.313-0.269-0.258-0.968-0.39-1.599c-0.969,1.007-1.537,2.125-1.529,3.453c0.008,1.311,0.635,2.416,1.51,3.396
				c-0.816,0.277-1.979-0.145-2.764-0.951c-1.697-1.746-1.843-4.146-0.371-6.104c1.572-2.087,1.77-2.695,1.663-5.215
				c1.502,0.568,2.786,1.414,3.837,2.588c0.443,0.492,0.823,0.763,1.404-0.038c0.236,0.549,0.447,0.968,0.605,1.407
				c0.645,1.803,0.877,3.635,0.323,5.51C239.375,117.872,237.85,119.098,236.032,119.035z"/>
		</g>
	</g>
	<g>
		<g>
			<path fill="#FFFFFF" d="M220.824,87.285c0,0-1.022,1.927,0.33,2.652c0.654,0.352,0.939,1.402,0.939,1.402
				s0.866-1.307-0.445-2.537C221.309,88.484,220.816,88.23,220.824,87.285z"/>
		</g>
	</g>
	<g>
		<g>
			<path fill="#FFFFFF" d="M228.837,96.368c0,0,1.022,1.927-0.331,2.653c-0.654,0.351-0.939,1.401-0.939,1.401
				s-0.865-1.307,0.447-2.537C228.352,97.568,228.846,97.314,228.837,96.368z"/>
		</g>
	</g>
	<g>
		<g>
			<path fill="#FFFFFF" d="M238.837,103.868c0,0,1.022,1.927-0.331,2.653c-0.654,0.351-0.939,1.401-0.939,1.401
				s-0.865-1.307,0.447-2.537C238.352,105.068,238.846,104.814,238.837,103.868z"/>
		</g>
	</g>
	<g>
		<g>
			<path fill="#FFFFFF" d="M200.161,119.464l-0.562-0.828c0.571-0.388,1.103-0.772,1.594-1.153l0.613,0.789
				C201.299,118.665,200.751,119.063,200.161,119.464z M203.363,116.954l-0.678-0.733c0.5-0.463,0.955-0.932,1.351-1.395l0.76,0.65
				C204.375,115.969,203.893,116.466,203.363,116.954z M206.021,113.798l-0.855-0.519c0.343-0.566,0.609-1.141,0.792-1.703
				l0.951,0.309C206.703,112.521,206.404,113.165,206.021,113.798z M206.266,109.766v-0.096c0-0.574-0.086-1.156-0.257-1.73
				l0.959-0.282c0.197,0.666,0.298,1.344,0.298,2.014L206.266,109.766z M205.249,106.232c-0.304-0.514-0.683-1.032-1.122-1.543
				l0.756-0.654c0.48,0.556,0.893,1.124,1.229,1.688L205.249,106.232z M202.766,103.313c-0.466-0.418-0.977-0.832-1.52-1.234
				l0.596-0.803c0.567,0.42,1.104,0.854,1.592,1.293L202.766,103.313z M199.624,100.969c-0.569-0.361-1.144-0.697-1.698-1.005
				l0.484-0.875c0.572,0.317,1.16,0.663,1.749,1.036L199.624,100.969z M196.171,99.049c-0.667-0.326-1.278-0.604-1.801-0.828
				l0.396-0.918c0.534,0.23,1.161,0.514,1.844,0.848L196.171,99.049z"/>
		</g>
	</g>
</g>
<g>
	<g enable-background="new    ">
		<path fill="#FFFFFF" d="M35.062,27.89c-2.731,0-5.138,1.365-7.219,4.097l-6.146-5.658c3.056-4.617,7.934-6.926,14.633-6.926
			c10.08,0,15.121,5.919,15.121,17.754c0,1.821-0.098,3.528-0.293,5.121c-0.195,1.595-0.375,2.943-0.537,4.048
			c-0.163,1.107-0.537,2.261-1.122,3.463c-0.585,1.204-1.024,2.131-1.317,2.78c-0.292,0.65-0.927,1.529-1.902,2.634
			c-0.976,1.106-1.659,1.87-2.049,2.292c-0.39,0.423-1.253,1.285-2.585,2.584c-1.334,1.302-2.229,2.18-2.683,2.634
			c-2.407,2.407-4.048,4.683-4.926,6.829s-1.317,4.975-1.317,8.486v3.805h17.656v9.17H23.258V79.786
			c0-5.787,0.649-10.291,1.951-13.51c1.3-3.22,3.576-6.454,6.829-9.707c0.13-0.13,0.666-0.649,1.61-1.561
			c0.942-0.91,1.512-1.479,1.707-1.707c0.195-0.227,0.683-0.796,1.463-1.707c0.78-0.91,1.3-1.593,1.561-2.049
			c0.259-0.454,0.649-1.154,1.171-2.097c0.52-0.942,0.861-1.82,1.024-2.634c0.162-0.813,0.341-1.771,0.537-2.878
			c0.195-1.105,0.292-2.244,0.292-3.414c0-3.902-0.521-6.649-1.561-8.243C38.8,28.687,37.208,27.89,35.062,27.89z"/>
		<path fill="#FFFFFF" d="M88.908,76.178h-6.243v14.827h-9.072V76.178H56.717v-8L73.3,20.769h9.365v46.727h6.243V76.178z
			 M73.593,67.495V41.839l-8.877,25.656H73.593z"/>
		<path fill="#FFFFFF" d="M123.441,42.815v26.046c0,1.756-0.017,3.089-0.049,3.999c-0.034,0.912-0.098,2.212-0.195,3.902
			c-0.098,1.691-0.277,3.023-0.536,3.999c-0.261,0.976-0.603,2.163-1.024,3.561c-0.424,1.399-1.01,2.488-1.756,3.269
			c-0.749,0.78-1.61,1.577-2.585,2.39c-0.976,0.814-2.195,1.397-3.658,1.756c-1.464,0.356-3.073,0.537-4.829,0.537
			s-3.351-0.181-4.78-0.537c-1.431-0.358-2.634-0.927-3.609-1.707s-1.821-1.561-2.536-2.341c-0.716-0.78-1.285-1.854-1.707-3.22
			c-0.424-1.365-0.765-2.536-1.024-3.512c-0.261-0.976-0.438-2.308-0.536-3.999c-0.098-1.69-0.163-2.991-0.195-3.902
			c-0.033-0.91-0.049-2.244-0.049-4V42.62c0-1.756,0.016-3.088,0.049-4c0.032-0.91,0.098-2.21,0.195-3.902
			c0.098-1.69,0.275-3.024,0.536-4c0.26-0.976,0.601-2.146,1.024-3.512c0.422-1.366,0.991-2.439,1.707-3.219
			c0.715-0.78,1.561-1.561,2.536-2.341c0.976-0.78,2.179-1.349,3.609-1.707c1.43-0.356,3.024-0.537,4.78-0.537
			s3.365,0.18,4.829,0.537c1.463,0.358,2.683,0.943,3.658,1.756c0.975,0.814,1.836,1.61,2.585,2.39
			c0.746,0.78,1.332,1.87,1.756,3.268c0.422,1.399,0.764,2.585,1.024,3.561c0.259,0.976,0.438,2.309,0.536,4
			c0.098,1.692,0.161,3.009,0.195,3.951C123.425,39.808,123.441,41.125,123.441,42.815z M113.589,70.227V41.254
			c0-2.405-0.034-4.178-0.098-5.316c-0.065-1.137-0.229-2.422-0.488-3.854c-0.261-1.43-0.716-2.438-1.365-3.024
			c-0.651-0.585-1.529-0.878-2.634-0.878c-0.78,0-1.448,0.131-2,0.39c-0.554,0.261-1.009,0.731-1.365,1.415
			c-0.358,0.683-0.635,1.333-0.83,1.951c-0.194,0.619-0.326,1.545-0.39,2.78c-0.065,1.236-0.114,2.261-0.146,3.073
			c-0.033,0.814-0.049,2.034-0.049,3.658v28.777c0,1.627,0.016,2.829,0.049,3.609c0.032,0.78,0.081,1.772,0.146,2.976
			c0.063,1.204,0.195,2.114,0.39,2.731c0.195,0.618,0.472,1.268,0.83,1.951c0.356,0.683,0.812,1.155,1.365,1.414
			c0.552,0.261,1.22,0.391,2,0.391c1.104,0,1.982-0.293,2.634-0.878c0.649-0.586,1.104-1.593,1.365-3.024
			c0.26-1.43,0.423-2.715,0.488-3.854C113.555,74.406,113.589,72.634,113.589,70.227z"/>
	</g>
	<g>
		<rect x="8.959" y="99.605" fill="none" width="115.327" height="32"/>
	</g>
	<g enable-background="new    ">
		<path fill="#FFFFFF" d="M43.696,110.188h-2.034c-0.356-0.515-0.737-1.065-1.143-1.652c-0.406-0.588-0.828-1.159-1.266-1.715
			l-0.561,0.523v1.6c0,0.164,0.03,0.3,0.089,0.406c0.059,0.107,0.155,0.187,0.287,0.236c0.109,0.046,0.214,0.08,0.314,0.103
			s0.216,0.039,0.349,0.048v0.451H36.43v-0.451c0.104-0.009,0.213-0.02,0.326-0.031c0.113-0.011,0.208-0.028,0.285-0.051
			c0.127-0.041,0.222-0.113,0.285-0.216s0.095-0.235,0.095-0.4V101.2c0-0.169-0.035-0.327-0.106-0.476s-0.163-0.261-0.277-0.339
			c-0.096-0.072-0.245-0.12-0.448-0.144c-0.203-0.022-0.366-0.039-0.489-0.048v-0.438l2.495-0.15l0.096,0.103v7.131
			c0.355-0.355,0.74-0.736,1.153-1.145c0.413-0.407,0.76-0.771,1.043-1.09c0.037-0.041,0.076-0.095,0.12-0.161
			s0.065-0.12,0.065-0.161c0-0.123-0.099-0.215-0.297-0.274c-0.198-0.059-0.389-0.101-0.571-0.123v-0.438h2.965v0.424
			c-0.383,0.114-0.721,0.256-1.015,0.428c-0.294,0.17-0.519,0.324-0.673,0.461c-0.109,0.091-0.265,0.239-0.465,0.443
			c-0.201,0.205-0.481,0.474-0.842,0.806c0.374,0.461,0.794,1.013,1.262,1.655c0.468,0.643,0.809,1.108,1.023,1.396
			c0.2,0.269,0.38,0.444,0.54,0.526s0.392,0.132,0.697,0.15V110.188z"/>
		<path fill="#FFFFFF" d="M55.584,110.188h-3.281v-0.451c0.105-0.009,0.211-0.019,0.318-0.027s0.202-0.027,0.284-0.055
			c0.127-0.041,0.222-0.113,0.284-0.215c0.062-0.104,0.092-0.236,0.092-0.4v-3.479c0-0.474-0.108-0.84-0.325-1.097
			c-0.216-0.258-0.486-0.387-0.81-0.387c-0.223,0-0.433,0.034-0.629,0.103s-0.376,0.164-0.54,0.287
			c-0.132,0.101-0.243,0.208-0.332,0.325c-0.089,0.115-0.156,0.213-0.202,0.29v3.89c0,0.159,0.027,0.291,0.082,0.393
			c0.055,0.104,0.148,0.182,0.28,0.236c0.105,0.041,0.199,0.072,0.284,0.092c0.084,0.021,0.195,0.036,0.332,0.045v0.451h-3.213
			v-0.451c0.105-0.009,0.206-0.019,0.304-0.027s0.188-0.027,0.27-0.055c0.127-0.041,0.222-0.113,0.284-0.215
			c0.062-0.104,0.092-0.236,0.092-0.4v-3.479c0-0.474-0.108-0.84-0.326-1.097c-0.217-0.258-0.488-0.387-0.812-0.387
			c-0.224,0-0.434,0.035-0.63,0.105c-0.196,0.071-0.376,0.168-0.541,0.291c-0.133,0.101-0.245,0.213-0.336,0.338
			c-0.091,0.126-0.16,0.221-0.206,0.284v3.862c0,0.155,0.032,0.285,0.096,0.39s0.16,0.185,0.287,0.239
			c0.096,0.046,0.194,0.08,0.294,0.103s0.212,0.039,0.335,0.048v0.451h-3.274v-0.451c0.105-0.009,0.213-0.019,0.325-0.027
			s0.208-0.027,0.291-0.055c0.127-0.041,0.222-0.112,0.284-0.215s0.092-0.235,0.092-0.399v-4.186c0-0.146-0.033-0.276-0.099-0.393
			s-0.158-0.215-0.277-0.297c-0.086-0.055-0.194-0.099-0.321-0.134c-0.127-0.033-0.26-0.056-0.396-0.064v-0.451l2.256-0.15
			l0.096,0.096v0.964h0.048c0.114-0.114,0.253-0.248,0.417-0.403s0.317-0.28,0.458-0.376c0.16-0.109,0.359-0.2,0.598-0.273
			s0.498-0.109,0.776-0.109c0.438,0,0.813,0.117,1.128,0.353c0.314,0.234,0.54,0.518,0.677,0.851c0.164-0.159,0.308-0.3,0.433-0.421
			c0.125-0.12,0.29-0.249,0.495-0.386c0.173-0.118,0.376-0.214,0.611-0.287s0.495-0.109,0.781-0.109
			c0.569,0,1.019,0.187,1.352,0.561c0.332,0.374,0.498,0.948,0.498,1.723v3.425c0,0.159,0.027,0.291,0.082,0.393
			c0.055,0.104,0.148,0.182,0.28,0.236c0.105,0.041,0.208,0.072,0.311,0.092c0.103,0.021,0.218,0.036,0.345,0.045V110.188z"/>
		<path fill="#FFFFFF" d="M66.337,106.75c0,0.474-0.075,0.94-0.226,1.397c-0.151,0.459-0.365,0.847-0.644,1.166
			c-0.315,0.364-0.68,0.636-1.095,0.813s-0.881,0.267-1.396,0.267c-0.429,0-0.837-0.081-1.225-0.242
			c-0.388-0.162-0.732-0.398-1.033-0.708c-0.296-0.306-0.533-0.678-0.708-1.118c-0.175-0.439-0.263-0.933-0.263-1.479
			c0-1.053,0.307-1.914,0.92-2.584c0.613-0.67,1.417-1.005,2.412-1.005c0.944,0,1.723,0.318,2.337,0.953
			C66.03,104.847,66.337,105.692,66.337,106.75z M64.922,106.764c0-0.342-0.034-0.703-0.103-1.083
			c-0.069-0.381-0.171-0.703-0.309-0.968c-0.146-0.282-0.338-0.509-0.575-0.681c-0.237-0.17-0.527-0.256-0.87-0.256
			c-0.352,0-0.652,0.087-0.9,0.26c-0.249,0.173-0.451,0.41-0.606,0.711c-0.146,0.278-0.249,0.595-0.309,0.95
			c-0.059,0.355-0.089,0.699-0.089,1.032c0,0.438,0.035,0.842,0.106,1.213c0.071,0.372,0.184,0.703,0.339,0.995
			s0.35,0.521,0.585,0.687c0.235,0.167,0.526,0.25,0.873,0.25c0.571,0,1.023-0.275,1.356-0.827
			C64.755,108.495,64.922,107.734,64.922,106.764z"/>
		<path fill="#FFFFFF" d="M72.325,100.427c0,0.205-0.055,0.378-0.164,0.52s-0.275,0.212-0.499,0.212
			c-0.142,0-0.266-0.029-0.372-0.089c-0.107-0.06-0.207-0.139-0.298-0.239s-0.176-0.214-0.253-0.342s-0.144-0.23-0.198-0.308
			c-0.306,0.014-0.541,0.227-0.708,0.638c-0.166,0.412-0.249,1.067-0.249,1.968v0.689h1.736v0.656h-1.736v4.84
			c0,0.159,0.03,0.289,0.093,0.39c0.061,0.101,0.158,0.176,0.29,0.226c0.109,0.041,0.255,0.074,0.438,0.1
			c0.183,0.024,0.34,0.042,0.472,0.051v0.451h-3.555v-0.451c0.105-0.009,0.213-0.019,0.325-0.027s0.208-0.027,0.291-0.055
			c0.128-0.041,0.222-0.113,0.284-0.215c0.061-0.104,0.092-0.236,0.092-0.4v-4.908h-1.333v-0.656h1.333v-0.43
			c0-1.023,0.266-1.853,0.796-2.487c0.531-0.635,1.195-0.952,1.993-0.952c0.405,0,0.711,0.08,0.916,0.239
			S72.325,100.199,72.325,100.427z"/>
		<path fill="#FFFFFF" d="M80.255,100.427c0,0.205-0.055,0.378-0.164,0.52s-0.275,0.212-0.499,0.212
			c-0.142,0-0.266-0.029-0.372-0.089c-0.107-0.06-0.207-0.139-0.298-0.239s-0.176-0.214-0.253-0.342s-0.144-0.23-0.198-0.308
			c-0.306,0.014-0.541,0.227-0.708,0.638c-0.166,0.412-0.249,1.067-0.249,1.968v0.689h1.736v0.656h-1.736v4.84
			c0,0.159,0.03,0.289,0.093,0.39c0.061,0.101,0.158,0.176,0.29,0.226c0.109,0.041,0.255,0.074,0.438,0.1
			c0.183,0.024,0.34,0.042,0.472,0.051v0.451h-3.555v-0.451c0.104-0.009,0.213-0.019,0.324-0.027
			c0.112-0.009,0.209-0.027,0.291-0.055c0.128-0.041,0.223-0.113,0.283-0.215c0.063-0.104,0.093-0.236,0.093-0.4v-4.908h-1.333
			v-0.656h1.333v-0.43c0-1.023,0.266-1.853,0.796-2.487c0.531-0.635,1.195-0.952,1.993-0.952c0.405,0,0.711,0.08,0.916,0.239
			S80.255,100.199,80.255,100.427z"/>
		<path fill="#FFFFFF" d="M83.058,110.188h-3.254v-0.451c0.104-0.009,0.213-0.019,0.324-0.027c0.112-0.009,0.209-0.027,0.291-0.055
			c0.128-0.041,0.223-0.112,0.283-0.215c0.063-0.103,0.093-0.235,0.093-0.399v-4.158c0-0.146-0.033-0.279-0.099-0.399
			c-0.066-0.121-0.159-0.222-0.277-0.304c-0.087-0.055-0.212-0.102-0.376-0.14c-0.164-0.039-0.314-0.063-0.451-0.072v-0.451
			l2.379-0.15l0.096,0.096v5.496c0,0.159,0.03,0.292,0.092,0.396c0.061,0.104,0.157,0.183,0.288,0.232
			c0.1,0.041,0.197,0.074,0.292,0.1c0.096,0.024,0.201,0.042,0.319,0.051V110.188z M82.203,100.707c0,0.26-0.085,0.486-0.257,0.681
			c-0.17,0.193-0.381,0.29-0.632,0.29c-0.232,0-0.435-0.093-0.604-0.276c-0.172-0.186-0.257-0.396-0.257-0.633
			c0-0.251,0.085-0.47,0.257-0.656c0.17-0.187,0.372-0.28,0.604-0.28c0.26,0,0.473,0.088,0.64,0.263
			C82.12,100.271,82.203,100.475,82.203,100.707z"/>
		<path fill="#FFFFFF" d="M89.053,104.316c0,0.232-0.057,0.438-0.171,0.618c-0.114,0.181-0.289,0.271-0.526,0.271
			c-0.255,0-0.45-0.066-0.585-0.198c-0.134-0.132-0.201-0.278-0.201-0.438c0-0.101,0.008-0.191,0.023-0.273
			c0.017-0.082,0.031-0.164,0.045-0.246c-0.214,0-0.465,0.087-0.752,0.26s-0.531,0.419-0.731,0.738v3.924
			c0,0.159,0.03,0.289,0.093,0.39c0.061,0.101,0.158,0.176,0.29,0.226c0.114,0.046,0.261,0.08,0.44,0.103
			c0.181,0.022,0.337,0.039,0.469,0.048v0.451h-3.555v-0.451c0.104-0.009,0.213-0.019,0.324-0.027
			c0.112-0.009,0.209-0.027,0.291-0.055c0.128-0.041,0.223-0.112,0.283-0.215c0.063-0.103,0.093-0.235,0.093-0.399v-4.158
			c0-0.142-0.033-0.28-0.099-0.417c-0.066-0.136-0.159-0.245-0.277-0.327c-0.087-0.055-0.189-0.095-0.308-0.12
			c-0.118-0.024-0.246-0.042-0.383-0.051v-0.451l2.242-0.15l0.096,0.096v0.95h0.034c0.282-0.369,0.597-0.649,0.943-0.841
			s0.663-0.287,0.95-0.287s0.521,0.094,0.7,0.28C88.963,103.751,89.053,104.002,89.053,104.316z"/>
		<path fill="#FFFFFF" d="M95.615,108.603c-0.282,0.538-0.661,0.966-1.135,1.285s-1.019,0.479-1.634,0.479
			c-0.542,0-1.018-0.096-1.425-0.287c-0.408-0.191-0.744-0.451-1.009-0.779s-0.462-0.711-0.591-1.148
			c-0.131-0.438-0.195-0.9-0.195-1.388c0-0.438,0.069-0.867,0.209-1.288c0.139-0.422,0.343-0.802,0.611-1.139
			c0.26-0.323,0.582-0.584,0.967-0.783c0.386-0.197,0.817-0.297,1.296-0.297c0.492,0,0.914,0.077,1.265,0.232
			s0.636,0.367,0.854,0.636c0.21,0.255,0.366,0.556,0.468,0.902c0.104,0.347,0.154,0.723,0.154,1.128v0.451h-4.464
			c0,0.443,0.042,0.845,0.126,1.206c0.085,0.36,0.218,0.678,0.4,0.952c0.178,0.265,0.41,0.474,0.697,0.627s0.629,0.229,1.025,0.229
			c0.405,0,0.756-0.095,1.049-0.285c0.295-0.19,0.578-0.532,0.852-1.027L95.615,108.603z M94.104,106.032
			c0-0.255-0.021-0.527-0.065-0.817c-0.043-0.291-0.112-0.534-0.208-0.729c-0.104-0.209-0.248-0.38-0.431-0.512
			s-0.417-0.197-0.704-0.197c-0.479,0-0.876,0.199-1.192,0.597c-0.317,0.397-0.489,0.95-0.517,1.659H94.104z"/>
		<path fill="#FFFFFF" d="M100.558,107.017h-4.074v-1.08h4.074V107.017z"/>
		<path fill="#FFFFFF" d="M104.789,110.188h-3.288v-0.451c0.104-0.009,0.217-0.02,0.335-0.031c0.118-0.011,0.217-0.028,0.294-0.051
			c0.128-0.041,0.224-0.113,0.287-0.216s0.096-0.235,0.096-0.4v-7.812c0-0.164-0.035-0.318-0.106-0.462
			c-0.07-0.144-0.162-0.257-0.276-0.339c-0.082-0.055-0.232-0.104-0.451-0.15s-0.395-0.073-0.526-0.082v-0.438l2.536-0.15
			l0.096,0.103v9.249c0,0.159,0.029,0.291,0.089,0.393c0.06,0.104,0.155,0.182,0.287,0.236c0.101,0.046,0.199,0.08,0.297,0.103
			c0.099,0.022,0.209,0.039,0.332,0.048V110.188z"/>
		<path fill="#FFFFFF" d="M108.904,110.188h-3.254v-0.451c0.104-0.009,0.213-0.019,0.324-0.027c0.112-0.009,0.209-0.027,0.291-0.055
			c0.128-0.041,0.223-0.112,0.283-0.215c0.063-0.103,0.093-0.235,0.093-0.399v-4.158c0-0.146-0.033-0.279-0.099-0.399
			c-0.066-0.121-0.159-0.222-0.277-0.304c-0.087-0.055-0.212-0.102-0.376-0.14c-0.164-0.039-0.314-0.063-0.451-0.072v-0.451
			l2.379-0.15l0.096,0.096v5.496c0,0.159,0.03,0.292,0.092,0.396c0.061,0.104,0.157,0.183,0.288,0.232
			c0.1,0.041,0.197,0.074,0.292,0.1c0.096,0.024,0.201,0.042,0.319,0.051V110.188z M108.05,100.707c0,0.26-0.085,0.486-0.257,0.681
			c-0.17,0.193-0.381,0.29-0.632,0.29c-0.232,0-0.435-0.093-0.604-0.276c-0.172-0.186-0.257-0.396-0.257-0.633
			c0-0.251,0.085-0.47,0.257-0.656c0.17-0.187,0.372-0.28,0.604-0.28c0.26,0,0.473,0.088,0.64,0.263
			C107.967,100.271,108.05,100.475,108.05,100.707z"/>
		<path fill="#FFFFFF" d="M117.183,110.188h-3.295v-0.451c0.104-0.009,0.22-0.019,0.345-0.027c0.126-0.009,0.229-0.027,0.312-0.055
			c0.128-0.041,0.222-0.113,0.284-0.215c0.061-0.104,0.092-0.236,0.092-0.4v-3.466c0-0.479-0.113-0.848-0.339-1.107
			c-0.227-0.26-0.502-0.39-0.826-0.39c-0.242,0-0.464,0.037-0.664,0.113c-0.201,0.074-0.38,0.167-0.535,0.276
			c-0.15,0.104-0.271,0.218-0.359,0.339c-0.089,0.12-0.154,0.217-0.195,0.29v3.876c0,0.155,0.032,0.282,0.096,0.383
			s0.159,0.178,0.287,0.232c0.096,0.046,0.199,0.08,0.312,0.103c0.111,0.022,0.227,0.039,0.345,0.048v0.451h-3.302v-0.451
			c0.104-0.009,0.213-0.019,0.324-0.027c0.112-0.009,0.209-0.027,0.291-0.055c0.128-0.041,0.223-0.112,0.283-0.215
			c0.063-0.103,0.093-0.235,0.093-0.399v-4.158c0-0.155-0.033-0.297-0.099-0.427c-0.066-0.13-0.159-0.235-0.277-0.317
			c-0.087-0.055-0.189-0.095-0.308-0.12c-0.118-0.024-0.246-0.042-0.383-0.051v-0.451l2.242-0.15l0.096,0.096v0.95h0.034
			c0.109-0.109,0.246-0.24,0.41-0.394c0.164-0.152,0.319-0.276,0.465-0.372c0.169-0.109,0.369-0.2,0.602-0.273
			s0.494-0.109,0.786-0.109c0.647,0,1.127,0.202,1.438,0.604c0.313,0.404,0.469,0.94,0.469,1.61v3.507
			c0,0.159,0.027,0.288,0.082,0.387c0.055,0.098,0.148,0.174,0.28,0.229c0.109,0.046,0.204,0.077,0.284,0.096
			c0.079,0.019,0.189,0.032,0.331,0.041V110.188z"/>
		<path fill="#FFFFFF" d="M123.998,108.603c-0.282,0.538-0.661,0.966-1.135,1.285s-1.019,0.479-1.634,0.479
			c-0.542,0-1.018-0.096-1.425-0.287c-0.408-0.191-0.744-0.451-1.009-0.779s-0.462-0.711-0.591-1.148
			c-0.131-0.438-0.195-0.9-0.195-1.388c0-0.438,0.069-0.867,0.209-1.288c0.139-0.422,0.343-0.802,0.611-1.139
			c0.26-0.323,0.582-0.584,0.967-0.783c0.386-0.197,0.817-0.297,1.296-0.297c0.492,0,0.914,0.077,1.265,0.232
			s0.636,0.367,0.854,0.636c0.21,0.255,0.366,0.556,0.468,0.902c0.104,0.347,0.154,0.723,0.154,1.128v0.451h-4.464
			c0,0.443,0.042,0.845,0.126,1.206c0.085,0.36,0.218,0.678,0.4,0.952c0.178,0.265,0.41,0.474,0.697,0.627s0.629,0.229,1.025,0.229
			c0.405,0,0.756-0.095,1.049-0.285c0.295-0.19,0.578-0.532,0.852-1.027L123.998,108.603z M122.487,106.032
			c0-0.255-0.021-0.527-0.065-0.817c-0.043-0.291-0.112-0.534-0.208-0.729c-0.104-0.209-0.248-0.38-0.431-0.512
			s-0.417-0.197-0.704-0.197c-0.479,0-0.876,0.199-1.192,0.597c-0.317,0.397-0.489,0.95-0.517,1.659H122.487z"/>
	</g>
	<g enable-background="new    ">
		<path fill="#FFFFFF" d="M55.052,127.167c-0.975,0-1.739-0.323-2.29-0.971s-0.827-1.516-0.827-2.604
			c0-0.474,0.074-0.917,0.222-1.329c0.148-0.413,0.363-0.788,0.646-1.125c0.269-0.323,0.606-0.584,1.012-0.783
			c0.406-0.197,0.848-0.297,1.326-0.297c0.661,0,1.199,0.158,1.613,0.475c0.415,0.317,0.622,0.749,0.622,1.296
			c0,0.228-0.055,0.43-0.164,0.604c-0.109,0.176-0.29,0.264-0.54,0.264c-0.269,0-0.478-0.068-0.625-0.204
			c-0.148-0.137-0.222-0.289-0.222-0.457c0-0.204,0.027-0.414,0.082-0.63s0.086-0.374,0.096-0.474
			c-0.082-0.141-0.204-0.235-0.365-0.283c-0.162-0.048-0.335-0.071-0.521-0.071c-0.218,0-0.426,0.047-0.624,0.141
			c-0.198,0.093-0.39,0.265-0.576,0.516c-0.168,0.228-0.305,0.535-0.409,0.923s-0.157,0.85-0.157,1.388
			c0,0.848,0.188,1.539,0.563,2.074c0.375,0.536,0.868,0.804,1.478,0.804c0.441,0,0.812-0.107,1.109-0.323
			c0.298-0.215,0.574-0.538,0.829-0.969l0.437,0.287c-0.301,0.538-0.697,0.964-1.189,1.278S55.576,127.167,55.052,127.167z"/>
		<path fill="#FFFFFF" d="M64.868,123.551c0,0.474-0.075,0.94-0.226,1.397c-0.151,0.459-0.365,0.847-0.644,1.166
			c-0.315,0.364-0.68,0.636-1.095,0.813s-0.881,0.267-1.396,0.267c-0.429,0-0.837-0.081-1.225-0.242
			c-0.388-0.162-0.732-0.398-1.033-0.708c-0.296-0.306-0.533-0.678-0.708-1.118c-0.175-0.439-0.263-0.933-0.263-1.479
			c0-1.053,0.307-1.914,0.92-2.584c0.613-0.67,1.417-1.005,2.412-1.005c0.944,0,1.723,0.318,2.337,0.953
			C64.562,121.647,64.868,122.493,64.868,123.551z M63.453,123.564c0-0.342-0.034-0.703-0.103-1.083
			c-0.069-0.381-0.171-0.703-0.309-0.968c-0.146-0.282-0.338-0.509-0.575-0.681c-0.237-0.17-0.527-0.256-0.87-0.256
			c-0.352,0-0.652,0.087-0.9,0.26c-0.249,0.173-0.451,0.41-0.606,0.711c-0.146,0.278-0.249,0.595-0.309,0.95
			c-0.059,0.355-0.089,0.699-0.089,1.032c0,0.438,0.035,0.842,0.106,1.213c0.071,0.372,0.184,0.703,0.339,0.995
			s0.35,0.521,0.585,0.687c0.235,0.167,0.526,0.25,0.873,0.25c0.571,0,1.023-0.275,1.356-0.827
			C63.287,125.296,63.453,124.535,63.453,123.564z"/>
		<path fill="#FFFFFF" d="M73.283,126.989h-3.295v-0.451c0.105-0.009,0.22-0.019,0.345-0.027s0.229-0.027,0.311-0.055
			c0.127-0.041,0.222-0.113,0.284-0.215c0.062-0.104,0.092-0.236,0.092-0.4v-3.466c0-0.479-0.113-0.848-0.339-1.107
			s-0.501-0.39-0.826-0.39c-0.242,0-0.463,0.037-0.665,0.113c-0.201,0.074-0.379,0.167-0.534,0.276
			c-0.151,0.104-0.271,0.218-0.36,0.339c-0.089,0.12-0.154,0.217-0.195,0.29v3.876c0,0.155,0.032,0.282,0.096,0.383
			s0.16,0.178,0.287,0.232c0.096,0.046,0.199,0.08,0.311,0.103s0.227,0.039,0.345,0.048v0.451h-3.302v-0.451
			c0.105-0.009,0.213-0.019,0.325-0.027s0.208-0.027,0.291-0.055c0.127-0.041,0.222-0.112,0.284-0.215s0.092-0.235,0.092-0.399
			v-4.158c0-0.155-0.033-0.297-0.099-0.427s-0.158-0.235-0.277-0.317c-0.086-0.055-0.189-0.095-0.308-0.12
			c-0.119-0.024-0.246-0.042-0.383-0.051v-0.451l2.242-0.15l0.096,0.096v0.95h0.034c0.109-0.109,0.246-0.24,0.41-0.394
			c0.164-0.152,0.319-0.276,0.465-0.372c0.168-0.109,0.369-0.2,0.602-0.273s0.495-0.109,0.786-0.109
			c0.647,0,1.127,0.202,1.439,0.604c0.312,0.404,0.468,0.94,0.468,1.61v3.507c0,0.159,0.027,0.288,0.082,0.387
			c0.055,0.098,0.148,0.174,0.28,0.229c0.109,0.046,0.204,0.077,0.284,0.096s0.19,0.032,0.332,0.041V126.989z"/>
		<path fill="#FFFFFF" d="M78.561,123.688c0.187,0.164,0.331,0.354,0.431,0.567s0.15,0.477,0.15,0.786
			c0,0.624-0.233,1.135-0.701,1.531s-1.072,0.595-1.815,0.595c-0.392,0-0.753-0.07-1.083-0.212s-0.566-0.271-0.708-0.39
			l-0.137,0.444h-0.513l-0.068-2.345h0.472c0.037,0.179,0.114,0.387,0.232,0.624c0.119,0.238,0.262,0.453,0.431,0.645
			c0.178,0.202,0.391,0.371,0.639,0.508c0.249,0.138,0.527,0.206,0.837,0.206c0.438,0,0.775-0.1,1.012-0.299
			s0.355-0.485,0.355-0.856c0-0.191-0.038-0.356-0.113-0.495c-0.075-0.14-0.186-0.262-0.332-0.366
			c-0.15-0.104-0.335-0.199-0.554-0.284c-0.219-0.084-0.462-0.167-0.731-0.249c-0.214-0.063-0.452-0.151-0.714-0.263
			c-0.262-0.112-0.486-0.243-0.673-0.394c-0.201-0.159-0.365-0.355-0.492-0.588s-0.191-0.506-0.191-0.82
			c0-0.552,0.205-1.019,0.615-1.401s0.959-0.574,1.647-0.574c0.264,0,0.534,0.034,0.81,0.103s0.5,0.15,0.673,0.246l0.157-0.355
			h0.492l0.103,2.167h-0.472c-0.096-0.485-0.302-0.88-0.619-1.185c-0.317-0.304-0.703-0.456-1.159-0.456
			c-0.374,0-0.667,0.094-0.882,0.282s-0.321,0.415-0.321,0.682c0,0.205,0.035,0.376,0.106,0.513s0.177,0.253,0.318,0.349
			c0.137,0.091,0.309,0.177,0.516,0.257c0.208,0.079,0.464,0.169,0.769,0.27c0.301,0.096,0.584,0.207,0.851,0.335
			S78.387,123.532,78.561,123.688z"/>
		<path fill="#FFFFFF" d="M84.323,126.695c-0.296,0.123-0.576,0.227-0.841,0.312c-0.264,0.084-0.588,0.126-0.971,0.126
			c-0.565,0-0.963-0.143-1.193-0.427c-0.23-0.285-0.345-0.688-0.345-1.207v-4.566h-1.217v-0.656h1.244v-2.099h1.244v2.099h1.935
			v0.656h-1.921v3.767c0,0.282,0.01,0.519,0.031,0.708c0.021,0.188,0.069,0.354,0.147,0.495c0.073,0.132,0.182,0.232,0.328,0.301
			s0.342,0.103,0.588,0.103c0.113,0,0.281-0.01,0.503-0.031c0.221-0.02,0.377-0.046,0.468-0.078V126.695z"/>
		<path fill="#FFFFFF" d="M90.154,121.117c0,0.232-0.057,0.438-0.171,0.618c-0.114,0.181-0.289,0.271-0.526,0.271
			c-0.255,0-0.45-0.066-0.585-0.198c-0.134-0.132-0.201-0.278-0.201-0.438c0-0.101,0.008-0.191,0.023-0.273
			c0.017-0.082,0.031-0.164,0.045-0.246c-0.214,0-0.465,0.087-0.752,0.26s-0.531,0.419-0.731,0.738v3.924
			c0,0.159,0.03,0.289,0.093,0.39c0.061,0.101,0.158,0.176,0.29,0.226c0.114,0.046,0.261,0.08,0.44,0.103
			c0.181,0.022,0.337,0.039,0.469,0.048v0.451h-3.555v-0.451c0.104-0.009,0.213-0.019,0.324-0.027
			c0.112-0.009,0.209-0.027,0.291-0.055c0.128-0.041,0.223-0.112,0.283-0.215c0.063-0.103,0.093-0.235,0.093-0.399v-4.158
			c0-0.142-0.033-0.28-0.099-0.417c-0.066-0.136-0.159-0.245-0.277-0.327c-0.087-0.055-0.189-0.095-0.308-0.12
			c-0.118-0.024-0.246-0.042-0.383-0.051v-0.451l2.242-0.15l0.096,0.096v0.95h0.034c0.282-0.369,0.597-0.649,0.943-0.841
			s0.663-0.287,0.95-0.287s0.521,0.094,0.7,0.28C90.064,120.552,90.154,120.803,90.154,121.117z"/>
		<path fill="#FFFFFF" d="M97.954,126.866l-2.201,0.15l-0.103-0.096v-0.854h-0.041c-0.109,0.114-0.232,0.235-0.368,0.366
			c-0.137,0.129-0.294,0.247-0.471,0.352c-0.205,0.123-0.403,0.217-0.595,0.28c-0.19,0.063-0.461,0.096-0.812,0.096
			c-0.596,0-1.05-0.194-1.361-0.584c-0.313-0.389-0.468-0.955-0.468-1.696v-3.224c0-0.164-0.031-0.302-0.093-0.413
			c-0.063-0.111-0.152-0.208-0.271-0.29c-0.083-0.055-0.187-0.095-0.31-0.12c-0.124-0.024-0.255-0.042-0.393-0.051v-0.451
			l2.249-0.164l0.103,0.096v4.683c0,0.487,0.109,0.854,0.328,1.101s0.48,0.369,0.786,0.369c0.251,0,0.474-0.039,0.67-0.116
			s0.36-0.168,0.492-0.273c0.123-0.095,0.231-0.196,0.325-0.304c0.093-0.106,0.165-0.205,0.215-0.297v-3.816
			c0-0.15-0.032-0.283-0.096-0.399s-0.152-0.215-0.267-0.297c-0.082-0.055-0.204-0.088-0.366-0.099
			c-0.161-0.012-0.343-0.022-0.543-0.031v-0.451l2.454-0.164l0.103,0.096v5.347c0,0.154,0.032,0.287,0.096,0.396
			c0.063,0.108,0.152,0.202,0.267,0.279c0.082,0.051,0.18,0.083,0.294,0.1c0.114,0.016,0.239,0.025,0.376,0.03V126.866z"/>
		<path fill="#FFFFFF" d="M101.898,127.167c-0.976,0-1.738-0.323-2.29-0.971s-0.827-1.516-0.827-2.604
			c0-0.474,0.074-0.917,0.223-1.329c0.147-0.413,0.363-0.788,0.646-1.125c0.269-0.323,0.606-0.584,1.012-0.783
			c0.405-0.197,0.848-0.297,1.326-0.297c0.661,0,1.198,0.158,1.613,0.475c0.415,0.317,0.622,0.749,0.622,1.296
			c0,0.228-0.055,0.43-0.164,0.604c-0.109,0.176-0.289,0.264-0.54,0.264c-0.269,0-0.478-0.068-0.626-0.204
			c-0.147-0.137-0.222-0.289-0.222-0.457c0-0.204,0.027-0.414,0.082-0.63s0.087-0.374,0.096-0.474
			c-0.082-0.141-0.203-0.235-0.365-0.283c-0.161-0.048-0.335-0.071-0.521-0.071c-0.218,0-0.426,0.047-0.624,0.141
			c-0.197,0.093-0.39,0.265-0.576,0.516c-0.168,0.228-0.304,0.535-0.408,0.923c-0.105,0.388-0.157,0.85-0.157,1.388
			c0,0.848,0.188,1.539,0.563,2.074c0.375,0.536,0.867,0.804,1.478,0.804c0.441,0,0.811-0.107,1.108-0.323
			c0.299-0.215,0.575-0.538,0.83-0.969l0.437,0.287c-0.301,0.538-0.697,0.964-1.189,1.278S102.423,127.167,101.898,127.167z"/>
		<path fill="#FFFFFF" d="M109.302,126.695c-0.296,0.123-0.576,0.227-0.841,0.312c-0.265,0.084-0.588,0.126-0.971,0.126
			c-0.565,0-0.963-0.143-1.193-0.427c-0.229-0.285-0.345-0.688-0.345-1.207v-4.566h-1.217v-0.656h1.244v-2.099h1.244v2.099h1.935
			v0.656h-1.921v3.767c0,0.282,0.011,0.519,0.03,0.708c0.021,0.188,0.07,0.354,0.147,0.495c0.073,0.132,0.183,0.232,0.328,0.301
			s0.342,0.103,0.588,0.103c0.114,0,0.281-0.01,0.503-0.031c0.221-0.02,0.377-0.046,0.468-0.078V126.695z"/>
		<path fill="#FFFFFF" d="M115.96,125.403c-0.282,0.538-0.661,0.966-1.135,1.285s-1.019,0.479-1.634,0.479
			c-0.542,0-1.018-0.096-1.425-0.287c-0.408-0.191-0.744-0.451-1.009-0.779s-0.462-0.711-0.591-1.148
			c-0.131-0.438-0.195-0.9-0.195-1.388c0-0.438,0.069-0.867,0.209-1.288c0.139-0.422,0.343-0.802,0.611-1.139
			c0.26-0.323,0.582-0.584,0.967-0.783c0.386-0.197,0.817-0.297,1.296-0.297c0.492,0,0.914,0.077,1.265,0.232
			s0.636,0.367,0.854,0.636c0.21,0.255,0.366,0.556,0.468,0.902c0.104,0.347,0.154,0.723,0.154,1.128v0.451h-4.464
			c0,0.443,0.042,0.845,0.126,1.206c0.085,0.36,0.218,0.678,0.4,0.952c0.178,0.265,0.41,0.474,0.697,0.627s0.629,0.229,1.025,0.229
			c0.405,0,0.756-0.095,1.049-0.285c0.295-0.19,0.578-0.532,0.852-1.027L115.96,125.403z M114.449,122.833
			c0-0.255-0.021-0.527-0.065-0.817c-0.043-0.291-0.112-0.534-0.208-0.729c-0.104-0.209-0.248-0.38-0.431-0.512
			s-0.417-0.197-0.704-0.197c-0.479,0-0.876,0.199-1.192,0.597c-0.317,0.397-0.489,0.95-0.517,1.659H114.449z"/>
		<path fill="#FFFFFF" d="M124.122,126.866l-2.358,0.15l-0.103-0.096v-0.629l-0.055-0.014c-0.236,0.265-0.529,0.48-0.877,0.649
			c-0.349,0.169-0.707,0.253-1.075,0.253c-0.383,0-0.752-0.086-1.109-0.256c-0.357-0.172-0.668-0.412-0.932-0.722
			c-0.269-0.314-0.481-0.692-0.639-1.135s-0.235-0.93-0.235-1.463c0-0.487,0.084-0.95,0.253-1.388c0.168-0.438,0.4-0.82,0.696-1.148
			c0.277-0.306,0.617-0.549,1.021-0.731c0.402-0.183,0.813-0.273,1.231-0.273c0.314,0,0.623,0.04,0.926,0.12
			c0.302,0.079,0.563,0.181,0.781,0.304v-2.35c0-0.191-0.032-0.366-0.096-0.523c-0.063-0.158-0.152-0.277-0.267-0.359
			c-0.128-0.087-0.3-0.149-0.517-0.188c-0.216-0.039-0.449-0.067-0.7-0.086v-0.424l2.762-0.15l0.103,0.103v9.086
			c0,0.159,0.031,0.295,0.092,0.406c0.063,0.111,0.152,0.206,0.271,0.283c0.087,0.055,0.212,0.089,0.376,0.103
			s0.314,0.022,0.451,0.027V126.866z M121.647,125.684v-3.944c-0.036-0.118-0.096-0.246-0.178-0.383
			c-0.081-0.137-0.184-0.262-0.307-0.376c-0.132-0.114-0.286-0.208-0.464-0.284c-0.178-0.074-0.385-0.112-0.621-0.112
			c-0.272,0-0.524,0.07-0.754,0.212s-0.434,0.344-0.61,0.608c-0.168,0.255-0.302,0.58-0.399,0.974
			c-0.098,0.395-0.146,0.831-0.146,1.31c0,0.383,0.036,0.73,0.109,1.042c0.072,0.313,0.195,0.604,0.368,0.872
			c0.159,0.255,0.362,0.46,0.61,0.615s0.543,0.232,0.884,0.232c0.364,0,0.665-0.08,0.904-0.239
			C121.282,126.051,121.483,125.875,121.647,125.684z"/>
	</g>
</g>
</svg>
