<?xml version="1.0" encoding="utf-8"?>
<!-- Generator: Adobe Illustrator 16.0.0, SVG Export Plug-In . SVG Version: 6.00 Build 0)  -->
<!DOCTYPE svg PUBLIC "-//W3C//DTD SVG 1.1//EN" "http://www.w3.org/Graphics/SVG/1.1/DTD/svg11.dtd">
<svg version="1.1" id="Layer_1" xmlns="http://www.w3.org/2000/svg" xmlns:xlink="http://www.w3.org/1999/xlink" x="0px" y="0px"
	 width="277.041px" height="124.493px" viewBox="0 0 277.041 124.493" enable-background="new 0 0 277.041 124.493"
	 xml:space="preserve">
<g>
	<g>
		<g id="Qs4kea_1_">
			<g>
				<g>
					<g>
						<path fill="#FFFFFF" d="M192.799,44.396c-2.062-2.46-5.545-3.343-8.61-2.028c-0.274,0.117-0.539,0.252-0.905,0.427
							c-1.169-2.12-3.097-3.184-5.316-3.831h-2.262c-2.651,0.669-4.749,2.037-5.815,4.672c-0.195,0.484-0.322,0.996-0.494,1.536
							c-0.854,0.068-1.727,0.035-2.549,0.224c-3.373,0.776-5.586,3.52-5.839,7.039c-0.032,0.447-0.292,0.997-0.631,1.281
							c-3.464,2.909-3.741,7.843-0.624,11.125c0.316,0.334,0.529,0.886,0.572,1.355c0.465,5.184,5.359,8.295,10.247,6.52
							c0.372-0.135,0.922-0.023,1.301,0.154c1.239,0.59,2.442,1.258,3.772,1.957c0.699,4.961,0.313,27.434-1.295,32.426h9.051
							c-0.963-3.922-1.98-25.219-0.907-29.293c0.108-0.412,0.287-0.858,0.571-1.155c0.859-0.894,1.785-1.722,2.765-2.65
							c1.478,0.862,3.176,1.328,5.039,1.084c5.468,1.195,10.468-2.628,10.468-14.055c0-7-7.5-7.5-7.5-7.5
							S197.121,49.967,192.799,44.396z M175.676,72.42c-0.887-0.358-1.774-0.715-2.745-1.104c0.571-0.756,1.021-1.352,1.543-2.04
							c0.484,1.007,0.928,1.933,1.373,2.861C175.79,72.232,175.733,72.327,175.676,72.42z M179.094,72.336
							c-0.384,0.92-0.886,1.008-1.473,0.229c-0.772-1.03-1.404-2.167-2.14-3.325c1.582,0.25,2.9,0.459,4.33,0.686
							C179.586,70.709,179.418,71.557,179.094,72.336z M181.976,74.447c-0.759,0.402-1.336,0.103-1.254-0.754
							c0.131-1.371,0.387-2.739,0.694-4.082c0.071-0.31,0.56-0.522,0.867-0.786c0.642,1.398,1.235,2.697,1.944,4.242
							C183.556,73.485,182.792,74.012,181.976,74.447z"/>
					</g>
				</g>
			</g>
		</g>
		<g id="Qs4kea_2_">
			<g>
				<g>
					<g>
						<path fill="#FFFFFF" d="M162.606,72.764c-1.853-1.309-2.315-4.01-3.363-6.717c-0.52-1.344-2.006-2.801-2.258-3.865
							c-1.139-4.822,0.68-6.07,2.982-9.343c0.242-7.029,5.168-7.319,8.6-8.444c-2.062-2.46-5.543-3.343-8.609-2.028
							c-0.273,0.117-0.54,0.252-0.906,0.427c-1.169-2.12-3.096-3.184-5.316-3.831h-2.262c-2.652,0.669-4.748,2.037-5.814,4.672
							c-0.195,0.484-0.322,0.996-0.495,1.536c-0.854,0.068-1.726,0.035-2.549,0.224c-3.373,0.776-5.585,3.52-5.838,7.039
							c-0.033,0.447-0.292,0.997-0.631,1.281c-3.464,2.909-3.741,7.843-0.624,11.124c0.317,0.336,0.529,0.887,0.572,1.356
							c0.465,5.185,5.359,8.296,10.248,6.519c0.37-0.135,0.921-0.022,1.3,0.156c1.238,0.588,2.441,1.258,3.772,1.957
							c0.698,4.961,0.312,27.434-1.296,32.424h9.051c-0.962-3.922-1.98-25.219-0.906-29.291c0.107-0.412,0.286-0.859,0.571-1.156
							c0.858-0.895,1.785-1.721,2.765-2.65c1.478,0.862,3.176,1.328,5.039,1.084c0.963-0.127,1.857-0.451,2.672-0.906
							C167.103,73.807,164.205,73.892,162.606,72.764z M151.448,72.42c-0.887-0.358-1.775-0.715-2.746-1.104
							c0.572-0.756,1.021-1.352,1.543-2.04c0.484,1.007,0.929,1.933,1.374,2.861C151.562,72.232,151.505,72.327,151.448,72.42z
							 M154.866,72.336c-0.385,0.92-0.887,1.008-1.473,0.229c-0.772-1.03-1.404-2.167-2.141-3.325c1.583,0.25,2.9,0.459,4.33,0.686
							C155.356,70.709,155.19,71.557,154.866,72.336z M157.748,74.447c-0.759,0.402-1.334,0.103-1.254-0.754
							c0.13-1.371,0.387-2.739,0.694-4.082c0.071-0.31,0.56-0.522,0.867-0.786c0.641,1.398,1.235,2.697,1.944,4.242
							C159.326,73.485,158.562,74.012,157.748,74.447z"/>
					</g>
				</g>
			</g>
		</g>
		<g id="Qs4kea_3_">
			<g>
				<g>
					<g>
						<path fill="#FFFFFF" d="M263.618,55.996c0.045-0.2,0.074-0.399,0.107-0.597c-0.297-0.05-0.522-0.09-0.627-0.113
							c-1.641-0.384-3.363-0.809-4.927-1.518c-0.01-0.003-0.019,0-0.028-0.005c-0.187-0.095-0.369-0.197-0.552-0.294
							c-0.227-0.117-0.462-0.217-0.679-0.349c-0.023-0.015-0.043-0.032-0.066-0.045c-0.203-0.108-0.408-0.212-0.607-0.322
							c-0.04-0.008-0.077-0.002-0.118-0.018c-0.741-0.279-1.483-0.557-2.224-0.834c-0.39-0.147-0.557-0.48-0.562-0.809
							c-2.594-1.121-4.778-4.324-5.096-6.964c-0.44-0.462-0.896-0.911-1.384-1.338c-0.064-0.057-0.098-0.12-0.137-0.182
							c-0.123,0.058-0.246,0.118-0.395,0.188c-1.168-2.12-3.094-3.184-5.314-3.831h-2.262c-2.648,0.669-4.749,2.037-5.814,4.672
							c-0.195,0.484-0.322,0.996-0.496,1.536c-0.854,0.068-1.726,0.035-2.549,0.224c-3.373,0.776-5.584,3.52-5.838,7.039
							c-0.033,0.447-0.291,0.997-0.631,1.281c-3.466,2.909-3.742,7.843-0.624,11.124c0.319,0.336,0.529,0.887,0.572,1.356
							c0.465,5.185,5.358,8.296,10.247,6.519c0.372-0.135,0.922-0.022,1.301,0.156c1.239,0.588,2.441,1.258,3.773,1.957
							c0.699,4.961,0.312,27.434-1.297,32.424h9.051c-0.961-3.922-1.979-25.219-0.906-29.291c0.107-0.412,0.287-0.859,0.572-1.156
							c0.859-0.895,1.785-1.721,2.764-2.65c1.479,0.862,3.176,1.328,5.042,1.084c3.121-0.406,5.628-2.709,6.354-5.785
							c0.102-0.428,0.469-0.922,0.854-1.129c4.135-2.232,5.359-7.143,2.746-11.028C263.635,56.955,263.524,56.396,263.618,55.996z
							 M238.718,72.42c-0.887-0.358-1.775-0.715-2.746-1.104c0.574-0.756,1.023-1.352,1.545-2.04
							c0.485,1.007,0.93,1.933,1.375,2.861C238.833,72.232,238.776,72.327,238.718,72.42z M242.136,72.336
							c-0.384,0.92-0.886,1.008-1.473,0.229c-0.771-1.03-1.404-2.167-2.141-3.325c1.584,0.25,2.901,0.459,4.33,0.686
							C242.628,70.709,242.461,71.557,242.136,72.336z M245.021,74.447c-0.76,0.402-1.336,0.103-1.254-0.754
							c0.129-1.371,0.387-2.739,0.693-4.082c0.072-0.31,0.561-0.522,0.867-0.786c0.643,1.398,1.236,2.697,1.947,4.242
							C246.599,73.485,245.834,74.012,245.021,74.447z"/>
					</g>
				</g>
			</g>
		</g>
		<g>
			<g>
				<path fill="#FFFFFF" d="M263.752,51.61c6.118-4.934,5.808-10.649,3.665-16.523c-1.875-0.113-4.057,0.387-5.076-0.482
					c-1.004-0.856-0.824-3.094-1.246-5.109c-3.094,3.218-4.912,6.792-4.887,11.036c0.027,4.188,2.025,7.723,4.826,10.856
					c-2.612,0.884-6.325-0.459-8.834-3.041c-5.426-5.578-5.891-13.251-1.186-19.504c5.023-6.669,5.654-8.614,5.313-16.664
					c4.799,1.811,8.901,4.52,12.263,8.268c1.414,1.575,2.629,2.439,4.487-0.122c0.757,1.755,1.433,3.093,1.935,4.497
					c2.061,5.763,2.803,11.618,1.036,17.609C274.435,47.894,269.562,51.809,263.752,51.61z"/>
			</g>
		</g>
	</g>
	<g>
		<g>
			<path fill="#FFFFFF" d="M211.946,89.893c1.548-1.247,1.469-2.691,0.927-4.178c-0.474-0.028-1.024,0.099-1.283-0.121
				c-0.254-0.217-0.208-0.782-0.315-1.293c-0.781,0.814-1.241,1.718-1.234,2.791c0.007,1.059,0.512,1.951,1.22,2.744
				c-0.659,0.223-1.599-0.116-2.233-0.77c-1.371-1.41-1.488-3.35-0.299-4.93c1.27-1.686,1.428-2.178,1.342-4.213
				c1.214,0.459,2.25,1.144,3.101,2.091c0.358,0.397,0.665,0.616,1.134-0.031c0.191,0.444,0.362,0.782,0.489,1.138
				c0.521,1.457,0.708,2.937,0.263,4.451C214.647,88.954,213.415,89.943,211.946,89.893z"/>
		</g>
	</g>
	<g>
		<g>
			<path fill="#FFFFFF" d="M209.78,97.211c-0.659-2.234-0.383-4.42,0.386-6.569c0.187-0.524,0.438-1.022,0.722-1.679
				c0.693,0.955,1.146,0.634,1.674,0.045c1.254-1.397,2.785-2.408,4.576-3.084c-0.128,3.002,0.107,3.729,1.982,6.217
				c1.755,2.333,1.582,5.195-0.441,7.277c-0.937,0.963-2.322,1.463-3.297,1.135c1.045-1.17,1.79-2.488,1.801-4.051
				c0.008-1.582-0.67-2.916-1.824-4.117c-0.156,0.753-0.09,1.588-0.465,1.906c-0.379,0.324-1.193,0.139-1.894,0.181
				c-0.8,2.192-0.915,4.323,1.367,6.165C212.2,100.711,210.383,99.25,209.78,97.211z"/>
		</g>
	</g>
	<g>
		<g>
			<path fill="#FFFFFF" d="M217.214,103.022c-0.393-1.331-0.229-2.632,0.23-3.912c0.111-0.313,0.262-0.609,0.43-0.999
				c0.413,0.569,0.684,0.377,0.997,0.027c0.747-0.833,1.657-1.435,2.724-1.837c-0.076,1.787,0.064,2.22,1.182,3.701
				c1.045,1.39,0.941,3.095-0.264,4.334c-0.557,0.574-1.382,0.871-1.962,0.676c0.622-0.696,1.066-1.48,1.072-2.412
				c0.006-0.943-0.397-1.737-1.086-2.452c-0.095,0.448-0.054,0.944-0.277,1.136c-0.226,0.192-0.711,0.082-1.128,0.106
				c-0.477,1.305-0.545,2.575,0.814,3.671C218.655,105.105,217.571,104.235,217.214,103.022z"/>
		</g>
	</g>
	<g>
		<g>
			<path fill="#FFFFFF" d="M227.074,108.922c1.915-1.543,1.817-3.332,1.147-5.17c-0.588-0.035-1.27,0.121-1.589-0.15
				c-0.313-0.268-0.258-0.969-0.39-1.6c-0.969,1.008-1.537,2.125-1.529,3.453c0.008,1.312,0.635,2.418,1.51,3.397
				c-0.816,0.276-1.979-0.144-2.764-0.952c-1.697-1.744-1.843-4.146-0.371-6.104c1.572-2.086,1.77-2.694,1.663-5.213
				c1.502,0.566,2.786,1.414,3.837,2.586c0.443,0.494,0.823,0.764,1.404-0.037c0.236,0.549,0.447,0.968,0.605,1.406
				c0.645,1.803,0.877,3.635,0.323,5.51C230.416,107.76,228.892,108.985,227.074,108.922z"/>
		</g>
	</g>
	<g>
		<g>
			<path fill="#FFFFFF" d="M211.865,77.172c0,0-1.022,1.927,0.331,2.652c0.654,0.352,0.938,1.402,0.938,1.402
				s0.866-1.307-0.446-2.537C212.351,78.374,211.858,78.12,211.865,77.172z"/>
		</g>
	</g>
	<g>
		<g>
			<path fill="#FFFFFF" d="M219.879,86.256c0,0,1.022,1.927-0.331,2.652c-0.654,0.352-0.939,1.402-0.939,1.402
				s-0.865-1.307,0.447-2.537C219.394,87.456,219.886,87.202,219.879,86.256z"/>
		</g>
	</g>
	<g>
		<g>
			<path fill="#FFFFFF" d="M229.879,93.756c0,0,1.022,1.927-0.331,2.652c-0.654,0.352-0.939,1.402-0.939,1.402
				s-0.865-1.307,0.447-2.537C229.394,94.956,229.886,94.702,229.879,93.756z"/>
		</g>
	</g>
	<g>
		<g>
			<path fill="#FFFFFF" d="M191.203,109.352l-0.562-0.827c0.57-0.39,1.103-0.772,1.592-1.155l0.615,0.789
				C192.34,108.553,191.793,108.95,191.203,109.352z M194.406,106.84l-0.681-0.733c0.5-0.461,0.955-0.931,1.352-1.394l0.76,0.65
				C195.414,105.856,194.933,106.354,194.406,106.84z M197.063,103.685l-0.855-0.519c0.344-0.566,0.609-1.141,0.792-1.703
				l0.951,0.308C197.745,102.409,197.446,103.051,197.063,103.685z M197.308,99.654v-0.096c0-0.575-0.086-1.157-0.258-1.729
				l0.959-0.285c0.197,0.666,0.299,1.342,0.299,2.015L197.308,99.654z M196.29,96.122c-0.305-0.515-0.682-1.033-1.122-1.543
				l0.756-0.654c0.479,0.555,0.894,1.123,1.228,1.688L196.29,96.122z M193.806,93.2c-0.464-0.416-0.975-0.83-1.519-1.232
				l0.594-0.805c0.569,0.42,1.104,0.855,1.593,1.293L193.806,93.2z M190.665,90.856c-0.57-0.361-1.143-0.697-1.698-1.005
				l0.484-0.875c0.573,0.317,1.161,0.663,1.749,1.036L190.665,90.856z M187.212,88.937c-0.667-0.327-1.277-0.604-1.801-0.829
				l0.396-0.918c0.533,0.23,1.16,0.514,1.844,0.85L187.212,88.937z"/>
		</g>
	</g>
</g>
<g>
	<g enable-background="new    ">
		<path fill="#FFFFFF" d="M26.103,20.778c-2.731,0-5.138,1.365-7.219,4.097l-6.146-5.658c3.056-4.617,7.934-6.926,14.633-6.926
			c10.08,0,15.121,5.919,15.121,17.754c0,1.821-0.098,3.528-0.293,5.121c-0.195,1.595-0.375,2.943-0.537,4.048
			c-0.163,1.107-0.537,2.261-1.122,3.463c-0.585,1.204-1.024,2.131-1.317,2.78c-0.292,0.65-0.927,1.529-1.902,2.634
			c-0.976,1.106-1.659,1.87-2.049,2.292c-0.39,0.423-1.253,1.285-2.585,2.584c-1.334,1.302-2.229,2.18-2.683,2.634
			c-2.407,2.407-4.048,4.683-4.926,6.829c-0.878,2.147-1.317,4.975-1.317,8.487v3.805h17.656v9.17H14.299V72.674
			c0-5.787,0.649-10.292,1.951-13.51c1.3-3.22,3.576-6.454,6.829-9.707c0.13-0.13,0.666-0.649,1.61-1.561
			c0.942-0.91,1.512-1.479,1.707-1.707c0.195-0.227,0.683-0.796,1.463-1.707c0.78-0.91,1.3-1.593,1.561-2.049
			c0.259-0.454,0.649-1.154,1.171-2.097c0.52-0.942,0.861-1.82,1.024-2.634c0.162-0.813,0.341-1.771,0.537-2.878
			c0.195-1.105,0.292-2.244,0.292-3.414c0-3.902-0.521-6.649-1.561-8.243C29.841,21.575,28.249,20.778,26.103,20.778z"/>
		<path fill="#FFFFFF" d="M78.389,58.432v3.317c0,1.755-0.017,3.089-0.049,4c-0.034,0.912-0.098,2.211-0.195,3.902
			s-0.277,3.023-0.536,3.998c-0.261,0.977-0.603,2.164-1.024,3.561c-0.424,1.4-1.01,2.488-1.756,3.27
			c-0.749,0.779-1.61,1.576-2.585,2.389c-0.976,0.814-2.195,1.398-3.658,1.756c-1.464,0.357-3.073,0.537-4.829,0.537
			s-3.351-0.18-4.78-0.537c-1.431-0.357-2.634-0.926-3.609-1.707c-0.976-0.779-1.821-1.561-2.536-2.34
			c-0.716-0.781-1.285-1.854-1.707-3.221c-0.424-1.365-0.765-2.535-1.024-3.512c-0.261-0.975-0.438-2.307-0.536-3.998
			s-0.163-2.992-0.195-3.902c-0.033-0.91-0.049-2.244-0.049-4V35.508c0-3.642,0.162-6.649,0.488-9.023
			c0.324-2.374,0.99-4.747,1.999-7.121c1.008-2.374,2.601-4.146,4.78-5.316c2.178-1.171,4.958-1.756,8.341-1.756
			c5.397,0,9.592,1.659,12.584,4.975l-5.365,7.024c-2.146-2.015-4.229-3.024-6.243-3.024c-2.927,0-4.797,1.139-5.609,3.415
			c-0.814,2.277-1.22,6.731-1.22,13.364v4.097c0.391-1.04,1.381-2.113,2.976-3.219c1.593-1.105,3.495-1.658,5.707-1.658
			c1.624,0,3.039,0.212,4.243,0.634c1.202,0.424,2.194,1.122,2.976,2.098c0.78,0.976,1.397,1.984,1.853,3.024
			c0.455,1.041,0.796,2.472,1.024,4.292c0.228,1.822,0.374,3.512,0.439,5.073C78.354,53.944,78.389,55.961,78.389,58.432z
			 M68.536,63.407v-4.195c0-2.404-0.034-4.178-0.098-5.316c-0.065-1.137-0.229-2.421-0.488-3.853
			c-0.261-1.43-0.716-2.438-1.365-3.024c-0.651-0.585-1.529-0.878-2.634-0.878c-0.78,0-1.448,0.131-2,0.39
			c-0.554,0.261-1.009,0.732-1.365,1.415c-0.358,0.683-0.635,1.333-0.83,1.951c-0.194,0.619-0.326,1.545-0.39,2.78
			c-0.065,1.236-0.114,2.26-0.146,3.072c-0.033,0.814-0.049,2.033-0.049,3.658v4c0,1.627,0.016,2.83,0.049,3.609
			c0.032,0.781,0.081,1.773,0.146,2.975c0.063,1.205,0.195,2.115,0.39,2.732c0.195,0.619,0.472,1.268,0.83,1.951
			c0.356,0.684,0.812,1.154,1.365,1.414c0.552,0.262,1.22,0.391,2,0.391c1.104,0,1.982-0.293,2.634-0.879
			c0.649-0.584,1.104-1.592,1.365-3.023c0.26-1.43,0.423-2.715,0.488-3.854C68.502,67.586,68.536,65.813,68.536,63.407z"/>
		<path fill="#FFFFFF" d="M98.289,20.778c-2.731,0-5.139,1.365-7.219,4.097l-6.146-5.658c3.056-4.617,7.934-6.926,14.632-6.926
			c10.08,0,15.121,5.919,15.121,17.754c0,1.821-0.098,3.528-0.293,5.121c-0.195,1.595-0.375,2.943-0.537,4.048
			c-0.163,1.107-0.536,2.261-1.121,3.463c-0.586,1.204-1.024,2.131-1.317,2.78c-0.293,0.65-0.927,1.529-1.902,2.634
			c-0.976,1.106-1.658,1.87-2.048,2.292c-0.391,0.423-1.253,1.285-2.586,2.584c-1.333,1.302-2.228,2.18-2.683,2.634
			c-2.406,2.407-4.048,4.683-4.926,6.829c-0.878,2.147-1.317,4.975-1.317,8.487v3.805h17.657v9.17H86.485V72.674
			c0-5.787,0.649-10.292,1.951-13.51c1.3-3.22,3.575-6.454,6.828-9.707c0.13-0.13,0.666-0.649,1.609-1.561
			c0.942-0.91,1.513-1.479,1.707-1.707c0.195-0.227,0.684-0.796,1.464-1.707c0.78-0.91,1.3-1.593,1.561-2.049
			c0.259-0.454,0.649-1.154,1.171-2.097c0.52-0.942,0.861-1.82,1.024-2.634c0.161-0.813,0.341-1.771,0.536-2.878
			c0.195-1.105,0.293-2.244,0.293-3.414c0-3.902-0.521-6.649-1.562-8.243C102.027,21.575,100.435,20.778,98.289,20.778z"/>
	</g>
	<g>
		<rect y="92.493" fill="none" width="115.327" height="32"/>
	</g>
	<g enable-background="new    ">
		<path fill="#FFFFFF" d="M34.738,103.077h-2.034c-0.356-0.514-0.737-1.064-1.143-1.652s-0.828-1.158-1.266-1.715l-0.561,0.523v1.6
			c0,0.164,0.03,0.301,0.089,0.406c0.059,0.107,0.155,0.188,0.287,0.236c0.109,0.047,0.214,0.08,0.314,0.104
			c0.1,0.021,0.216,0.039,0.349,0.047v0.451h-3.302v-0.451c0.104-0.008,0.213-0.02,0.326-0.031c0.113-0.01,0.208-0.027,0.285-0.051
			c0.127-0.041,0.222-0.113,0.285-0.215c0.063-0.104,0.095-0.236,0.095-0.4v-7.84c0-0.168-0.035-0.326-0.106-0.475
			s-0.163-0.262-0.277-0.34c-0.096-0.072-0.245-0.119-0.448-0.143s-0.366-0.039-0.489-0.049v-0.438l2.495-0.15l0.096,0.104v7.131
			c0.355-0.355,0.74-0.736,1.153-1.145s0.76-0.771,1.043-1.09c0.037-0.041,0.076-0.096,0.12-0.162s0.065-0.119,0.065-0.16
			c0-0.123-0.099-0.215-0.297-0.275c-0.198-0.059-0.389-0.1-0.571-0.123v-0.438h2.965v0.424c-0.383,0.115-0.721,0.256-1.015,0.428
			c-0.294,0.17-0.519,0.324-0.673,0.461c-0.109,0.092-0.265,0.24-0.465,0.443c-0.201,0.205-0.481,0.475-0.842,0.807
			c0.374,0.461,0.794,1.012,1.262,1.654c0.468,0.643,0.809,1.109,1.023,1.396c0.2,0.268,0.38,0.443,0.54,0.525
			s0.392,0.133,0.697,0.15V103.077z"/>
		<path fill="#FFFFFF" d="M46.626,103.077h-3.281v-0.451c0.105-0.008,0.211-0.018,0.318-0.027c0.107-0.008,0.202-0.027,0.284-0.055
			c0.127-0.041,0.222-0.113,0.284-0.215c0.062-0.104,0.092-0.236,0.092-0.4V98.45c0-0.475-0.108-0.84-0.325-1.098
			s-0.486-0.387-0.81-0.387c-0.223,0-0.433,0.035-0.629,0.104s-0.376,0.164-0.54,0.287c-0.132,0.1-0.243,0.207-0.332,0.324
			c-0.089,0.115-0.156,0.213-0.202,0.291v3.889c0,0.16,0.027,0.291,0.082,0.393c0.055,0.104,0.148,0.182,0.28,0.236
			c0.105,0.041,0.199,0.072,0.284,0.092c0.084,0.021,0.195,0.037,0.332,0.045v0.451H39.25v-0.451
			c0.105-0.008,0.206-0.018,0.304-0.027c0.098-0.008,0.188-0.027,0.27-0.055c0.127-0.041,0.222-0.113,0.284-0.215
			c0.062-0.104,0.092-0.236,0.092-0.4V98.45c0-0.475-0.108-0.84-0.326-1.098c-0.217-0.258-0.488-0.387-0.812-0.387
			c-0.224,0-0.434,0.035-0.63,0.105c-0.196,0.072-0.376,0.168-0.541,0.291c-0.133,0.102-0.245,0.213-0.336,0.338
			c-0.091,0.127-0.16,0.221-0.206,0.285v3.861c0,0.156,0.032,0.285,0.096,0.391c0.064,0.104,0.16,0.184,0.287,0.238
			c0.096,0.047,0.194,0.08,0.294,0.104c0.1,0.021,0.212,0.039,0.335,0.047v0.451h-3.274v-0.451c0.105-0.008,0.213-0.018,0.325-0.027
			c0.112-0.008,0.208-0.027,0.291-0.055c0.127-0.041,0.222-0.111,0.284-0.215c0.062-0.102,0.092-0.234,0.092-0.398v-4.186
			c0-0.146-0.033-0.277-0.099-0.393c-0.066-0.117-0.158-0.215-0.277-0.297c-0.086-0.055-0.194-0.1-0.321-0.135
			c-0.127-0.033-0.26-0.055-0.396-0.064v-0.451l2.256-0.15l0.096,0.096v0.965h0.048c0.114-0.115,0.253-0.248,0.417-0.404
			c0.164-0.154,0.317-0.279,0.458-0.375c0.16-0.109,0.359-0.201,0.598-0.273c0.239-0.074,0.498-0.109,0.776-0.109
			c0.438,0,0.813,0.117,1.128,0.352s0.54,0.518,0.677,0.852c0.164-0.16,0.308-0.301,0.433-0.422c0.125-0.119,0.29-0.248,0.495-0.385
			c0.173-0.119,0.376-0.215,0.611-0.287c0.234-0.074,0.495-0.109,0.781-0.109c0.569,0,1.019,0.186,1.352,0.561
			c0.332,0.373,0.498,0.947,0.498,1.723v3.424c0,0.16,0.027,0.291,0.082,0.393c0.055,0.104,0.148,0.182,0.28,0.236
			c0.105,0.041,0.208,0.072,0.311,0.092c0.103,0.021,0.218,0.037,0.345,0.045V103.077z"/>
		<path fill="#FFFFFF" d="M57.379,99.639c0,0.473-0.075,0.939-0.226,1.396c-0.151,0.459-0.365,0.848-0.644,1.166
			c-0.315,0.365-0.68,0.637-1.095,0.814s-0.881,0.266-1.396,0.266c-0.429,0-0.837-0.08-1.225-0.242s-0.732-0.398-1.033-0.707
			c-0.296-0.307-0.533-0.678-0.708-1.119c-0.175-0.439-0.263-0.932-0.263-1.479c0-1.053,0.307-1.914,0.92-2.584
			c0.613-0.67,1.417-1.006,2.412-1.006c0.944,0,1.723,0.318,2.337,0.953C57.072,97.735,57.379,98.581,57.379,99.639z M55.964,99.653
			c0-0.342-0.034-0.703-0.103-1.084c-0.069-0.381-0.171-0.703-0.309-0.967c-0.146-0.283-0.338-0.51-0.575-0.682
			c-0.237-0.17-0.527-0.256-0.87-0.256c-0.352,0-0.652,0.088-0.9,0.26c-0.249,0.174-0.451,0.41-0.606,0.711
			c-0.146,0.279-0.249,0.596-0.309,0.951c-0.059,0.355-0.089,0.699-0.089,1.031c0,0.438,0.035,0.842,0.106,1.213
			c0.071,0.373,0.184,0.703,0.339,0.996c0.155,0.291,0.35,0.52,0.585,0.686c0.235,0.168,0.526,0.25,0.873,0.25
			c0.571,0,1.023-0.275,1.356-0.826C55.797,101.383,55.964,100.624,55.964,99.653z"/>
		<path fill="#FFFFFF" d="M63.367,93.315c0,0.205-0.055,0.379-0.164,0.52c-0.109,0.143-0.275,0.213-0.499,0.213
			c-0.142,0-0.266-0.029-0.372-0.09c-0.107-0.059-0.207-0.139-0.298-0.238c-0.091-0.102-0.176-0.215-0.253-0.342
			c-0.077-0.129-0.144-0.23-0.198-0.309c-0.306,0.014-0.541,0.227-0.708,0.639c-0.166,0.412-0.249,1.066-0.249,1.967v0.689h1.736
			v0.656h-1.736v4.84c0,0.16,0.03,0.289,0.093,0.391c0.061,0.1,0.158,0.176,0.29,0.225c0.109,0.041,0.255,0.074,0.438,0.1
			s0.34,0.043,0.472,0.051v0.451h-3.555v-0.451c0.105-0.008,0.213-0.018,0.325-0.027c0.112-0.008,0.208-0.027,0.291-0.055
			c0.128-0.041,0.222-0.113,0.284-0.215c0.061-0.104,0.092-0.236,0.092-0.4V97.02h-1.333v-0.656h1.333v-0.43
			c0-1.023,0.266-1.852,0.796-2.486c0.531-0.635,1.195-0.953,1.993-0.953c0.405,0,0.711,0.08,0.916,0.24
			C63.265,92.893,63.367,93.088,63.367,93.315z"/>
		<path fill="#FFFFFF" d="M71.297,93.315c0,0.205-0.055,0.379-0.164,0.52c-0.109,0.143-0.275,0.213-0.499,0.213
			c-0.142,0-0.266-0.029-0.372-0.09c-0.107-0.059-0.207-0.139-0.298-0.238c-0.091-0.102-0.176-0.215-0.253-0.342
			c-0.077-0.129-0.144-0.23-0.198-0.309c-0.306,0.014-0.541,0.227-0.708,0.639c-0.166,0.412-0.249,1.066-0.249,1.967v0.689h1.736
			v0.656h-1.736v4.84c0,0.16,0.03,0.289,0.093,0.391c0.061,0.1,0.158,0.176,0.29,0.225c0.109,0.041,0.255,0.074,0.438,0.1
			s0.34,0.043,0.472,0.051v0.451h-3.555v-0.451c0.104-0.008,0.213-0.018,0.324-0.027c0.112-0.008,0.209-0.027,0.291-0.055
			c0.128-0.041,0.223-0.113,0.283-0.215c0.063-0.104,0.093-0.236,0.093-0.4V97.02h-1.333v-0.656h1.333v-0.43
			c0-1.023,0.266-1.852,0.796-2.486c0.531-0.635,1.195-0.953,1.993-0.953c0.405,0,0.711,0.08,0.916,0.24
			C71.194,92.893,71.297,93.088,71.297,93.315z"/>
		<path fill="#FFFFFF" d="M74.1,103.077h-3.254v-0.451c0.104-0.008,0.213-0.018,0.324-0.027c0.112-0.008,0.209-0.027,0.291-0.055
			c0.128-0.041,0.223-0.111,0.283-0.215c0.063-0.102,0.093-0.234,0.093-0.398v-4.158c0-0.146-0.033-0.279-0.099-0.4
			c-0.066-0.121-0.159-0.221-0.277-0.303c-0.087-0.055-0.212-0.102-0.376-0.141s-0.314-0.063-0.451-0.072v-0.451l2.379-0.15
			l0.096,0.096v5.496c0,0.16,0.03,0.293,0.092,0.396c0.061,0.105,0.157,0.184,0.288,0.232c0.1,0.041,0.197,0.074,0.292,0.1
			c0.096,0.025,0.201,0.043,0.319,0.051V103.077z M73.245,93.596c0,0.26-0.085,0.486-0.257,0.68
			c-0.17,0.193-0.381,0.291-0.632,0.291c-0.232,0-0.435-0.094-0.604-0.277c-0.172-0.186-0.257-0.395-0.257-0.633
			c0-0.25,0.085-0.469,0.257-0.656c0.17-0.186,0.372-0.279,0.604-0.279c0.26,0,0.473,0.088,0.64,0.262
			C73.162,93.159,73.245,93.364,73.245,93.596z"/>
		<path fill="#FFFFFF" d="M80.095,97.206c0,0.232-0.057,0.438-0.171,0.617c-0.114,0.182-0.289,0.271-0.526,0.271
			c-0.255,0-0.45-0.066-0.585-0.199c-0.134-0.131-0.201-0.277-0.201-0.438c0-0.1,0.008-0.191,0.023-0.273
			c0.017-0.082,0.031-0.164,0.045-0.246c-0.214,0-0.465,0.088-0.752,0.26c-0.287,0.174-0.531,0.42-0.731,0.738v3.924
			c0,0.16,0.03,0.289,0.093,0.391c0.061,0.1,0.158,0.176,0.29,0.225c0.114,0.047,0.261,0.08,0.44,0.104
			c0.181,0.021,0.337,0.039,0.469,0.047v0.451h-3.555v-0.451c0.104-0.008,0.213-0.018,0.324-0.027
			c0.112-0.008,0.209-0.027,0.291-0.055c0.128-0.041,0.223-0.111,0.283-0.215c0.063-0.102,0.093-0.234,0.093-0.398v-4.158
			c0-0.143-0.033-0.281-0.099-0.418c-0.066-0.135-0.159-0.244-0.277-0.326c-0.087-0.055-0.189-0.096-0.308-0.121
			c-0.118-0.023-0.246-0.041-0.383-0.051v-0.451l2.242-0.15l0.096,0.096v0.951h0.034c0.282-0.369,0.597-0.65,0.943-0.842
			s0.663-0.287,0.95-0.287s0.521,0.094,0.7,0.281C80.005,96.639,80.095,96.891,80.095,97.206z"/>
		<path fill="#FFFFFF" d="M86.657,101.491c-0.282,0.539-0.661,0.967-1.135,1.285c-0.474,0.32-1.019,0.479-1.634,0.479
			c-0.542,0-1.018-0.096-1.425-0.287c-0.408-0.191-0.744-0.451-1.009-0.779s-0.462-0.711-0.591-1.148
			c-0.131-0.438-0.195-0.9-0.195-1.387c0-0.438,0.069-0.867,0.209-1.289c0.139-0.422,0.343-0.801,0.611-1.139
			c0.26-0.322,0.582-0.584,0.967-0.783c0.386-0.197,0.817-0.297,1.296-0.297c0.492,0,0.914,0.078,1.265,0.232
			c0.351,0.156,0.636,0.367,0.854,0.637c0.21,0.254,0.366,0.555,0.468,0.902c0.104,0.346,0.154,0.723,0.154,1.127v0.451h-4.464
			c0,0.443,0.042,0.846,0.126,1.207c0.085,0.359,0.218,0.678,0.4,0.951c0.178,0.266,0.41,0.475,0.697,0.627
			c0.287,0.154,0.629,0.23,1.025,0.23c0.405,0,0.756-0.096,1.049-0.285c0.295-0.191,0.578-0.533,0.852-1.027L86.657,101.491z
			 M85.146,98.92c0-0.254-0.021-0.527-0.065-0.816c-0.043-0.291-0.112-0.535-0.208-0.73c-0.104-0.209-0.248-0.379-0.431-0.512
			c-0.183-0.131-0.417-0.197-0.704-0.197c-0.479,0-0.876,0.199-1.192,0.598c-0.317,0.396-0.489,0.949-0.517,1.658H85.146z"/>
		<path fill="#FFFFFF" d="M91.6,99.905h-4.074v-1.08H91.6V99.905z"/>
		<path fill="#FFFFFF" d="M95.831,103.077h-3.288v-0.451c0.104-0.008,0.217-0.02,0.335-0.031c0.118-0.01,0.217-0.027,0.294-0.051
			c0.128-0.041,0.224-0.113,0.287-0.215c0.063-0.104,0.096-0.236,0.096-0.4v-7.813c0-0.164-0.035-0.318-0.106-0.461
			c-0.07-0.145-0.162-0.258-0.276-0.34c-0.082-0.055-0.232-0.104-0.451-0.15c-0.219-0.045-0.395-0.072-0.526-0.082v-0.438
			l2.536-0.15l0.096,0.104v9.248c0,0.16,0.029,0.291,0.089,0.393c0.06,0.104,0.155,0.182,0.287,0.236
			c0.101,0.047,0.199,0.08,0.297,0.104c0.099,0.021,0.209,0.039,0.332,0.047V103.077z"/>
		<path fill="#FFFFFF" d="M99.946,103.077h-3.254v-0.451c0.104-0.008,0.213-0.018,0.324-0.027c0.112-0.008,0.209-0.027,0.291-0.055
			c0.128-0.041,0.223-0.111,0.283-0.215c0.063-0.102,0.093-0.234,0.093-0.398v-4.158c0-0.146-0.033-0.279-0.099-0.4
			c-0.066-0.121-0.159-0.221-0.277-0.303c-0.087-0.055-0.212-0.102-0.376-0.141s-0.314-0.063-0.451-0.072v-0.451l2.379-0.15
			l0.096,0.096v5.496c0,0.16,0.03,0.293,0.092,0.396c0.061,0.105,0.157,0.184,0.288,0.232c0.1,0.041,0.197,0.074,0.292,0.1
			c0.096,0.025,0.201,0.043,0.319,0.051V103.077z M99.092,93.596c0,0.26-0.085,0.486-0.257,0.68
			c-0.17,0.193-0.381,0.291-0.632,0.291c-0.232,0-0.435-0.094-0.604-0.277c-0.172-0.186-0.257-0.395-0.257-0.633
			c0-0.25,0.085-0.469,0.257-0.656c0.17-0.186,0.372-0.279,0.604-0.279c0.26,0,0.473,0.088,0.64,0.262
			C99.009,93.159,99.092,93.364,99.092,93.596z"/>
		<path fill="#FFFFFF" d="M108.225,103.077h-3.295v-0.451c0.104-0.008,0.22-0.018,0.345-0.027c0.126-0.008,0.229-0.027,0.312-0.055
			c0.128-0.041,0.222-0.113,0.284-0.215c0.061-0.104,0.092-0.236,0.092-0.4v-3.465c0-0.479-0.113-0.848-0.339-1.107
			c-0.227-0.26-0.502-0.391-0.826-0.391c-0.242,0-0.464,0.037-0.664,0.113c-0.201,0.074-0.38,0.168-0.535,0.277
			c-0.15,0.104-0.271,0.217-0.359,0.338s-0.154,0.217-0.195,0.291v3.875c0,0.156,0.032,0.283,0.096,0.383
			c0.063,0.102,0.159,0.178,0.287,0.232c0.096,0.047,0.199,0.08,0.312,0.104c0.111,0.021,0.227,0.039,0.345,0.047v0.451h-3.302
			v-0.451c0.104-0.008,0.213-0.018,0.324-0.027c0.112-0.008,0.209-0.027,0.291-0.055c0.128-0.041,0.223-0.111,0.283-0.215
			c0.063-0.102,0.093-0.234,0.093-0.398v-4.158c0-0.156-0.033-0.297-0.099-0.428c-0.066-0.129-0.159-0.234-0.277-0.316
			c-0.087-0.055-0.189-0.096-0.308-0.121c-0.118-0.023-0.246-0.041-0.383-0.051v-0.451l2.242-0.15l0.096,0.096v0.951h0.034
			c0.109-0.109,0.246-0.24,0.41-0.395c0.164-0.152,0.319-0.275,0.465-0.371c0.169-0.109,0.369-0.201,0.602-0.273
			c0.232-0.074,0.494-0.109,0.786-0.109c0.647,0,1.127,0.201,1.438,0.604c0.313,0.404,0.469,0.941,0.469,1.611v3.506
			c0,0.16,0.027,0.289,0.082,0.387s0.148,0.174,0.28,0.229c0.109,0.047,0.204,0.078,0.284,0.096c0.079,0.02,0.189,0.033,0.331,0.041
			V103.077z"/>
		<path fill="#FFFFFF" d="M115.04,101.491c-0.282,0.539-0.661,0.967-1.135,1.285c-0.474,0.32-1.019,0.479-1.634,0.479
			c-0.542,0-1.018-0.096-1.425-0.287c-0.408-0.191-0.744-0.451-1.009-0.779s-0.462-0.711-0.591-1.148
			c-0.131-0.438-0.195-0.9-0.195-1.387c0-0.438,0.069-0.867,0.209-1.289c0.139-0.422,0.343-0.801,0.611-1.139
			c0.26-0.322,0.582-0.584,0.967-0.783c0.386-0.197,0.817-0.297,1.296-0.297c0.492,0,0.914,0.078,1.265,0.232
			c0.351,0.156,0.636,0.367,0.854,0.637c0.21,0.254,0.366,0.555,0.468,0.902c0.104,0.346,0.154,0.723,0.154,1.127v0.451h-4.464
			c0,0.443,0.042,0.846,0.126,1.207c0.085,0.359,0.218,0.678,0.4,0.951c0.178,0.266,0.41,0.475,0.697,0.627
			c0.287,0.154,0.629,0.23,1.025,0.23c0.405,0,0.756-0.096,1.049-0.285c0.295-0.191,0.578-0.533,0.852-1.027L115.04,101.491z
			 M113.529,98.92c0-0.254-0.021-0.527-0.065-0.816c-0.043-0.291-0.112-0.535-0.208-0.73c-0.104-0.209-0.248-0.379-0.431-0.512
			c-0.183-0.131-0.417-0.197-0.704-0.197c-0.479,0-0.876,0.199-1.192,0.598c-0.317,0.396-0.489,0.949-0.517,1.658H113.529z"/>
	</g>
	<g enable-background="new    ">
		<path fill="#FFFFFF" d="M46.093,120.055c-0.975,0-1.739-0.324-2.29-0.971c-0.551-0.648-0.827-1.516-0.827-2.605
			c0-0.473,0.074-0.916,0.222-1.328c0.148-0.414,0.363-0.789,0.646-1.125c0.269-0.324,0.606-0.584,1.012-0.783
			c0.406-0.197,0.848-0.297,1.326-0.297c0.661,0,1.199,0.158,1.613,0.475s0.622,0.748,0.622,1.295c0,0.229-0.055,0.43-0.164,0.605
			s-0.29,0.264-0.54,0.264c-0.269,0-0.478-0.068-0.625-0.205s-0.222-0.289-0.222-0.457c0-0.203,0.027-0.414,0.082-0.629
			c0.055-0.217,0.086-0.375,0.096-0.475c-0.082-0.141-0.204-0.234-0.365-0.283c-0.162-0.047-0.335-0.07-0.521-0.07
			c-0.218,0-0.426,0.047-0.624,0.141c-0.198,0.092-0.39,0.264-0.576,0.516c-0.168,0.227-0.305,0.535-0.409,0.922
			c-0.104,0.389-0.157,0.85-0.157,1.389c0,0.848,0.188,1.539,0.563,2.074s0.868,0.803,1.478,0.803c0.441,0,0.812-0.107,1.109-0.322
			s0.574-0.539,0.829-0.969l0.437,0.287c-0.301,0.537-0.697,0.963-1.189,1.277S46.617,120.055,46.093,120.055z"/>
		<path fill="#FFFFFF" d="M55.909,116.438c0,0.475-0.075,0.941-0.226,1.398c-0.151,0.459-0.365,0.846-0.644,1.166
			c-0.315,0.363-0.68,0.635-1.095,0.813s-0.881,0.268-1.396,0.268c-0.429,0-0.837-0.082-1.225-0.242
			c-0.388-0.162-0.732-0.398-1.033-0.709c-0.296-0.305-0.533-0.678-0.708-1.117c-0.175-0.439-0.263-0.934-0.263-1.48
			c0-1.053,0.307-1.914,0.92-2.584c0.613-0.67,1.417-1.004,2.412-1.004c0.944,0,1.723,0.318,2.337,0.953
			C55.603,114.536,55.909,115.381,55.909,116.438z M54.494,116.452c0-0.342-0.034-0.703-0.103-1.082
			c-0.069-0.381-0.171-0.703-0.309-0.969c-0.146-0.281-0.338-0.508-0.575-0.68c-0.237-0.17-0.527-0.256-0.87-0.256
			c-0.352,0-0.652,0.086-0.9,0.26c-0.249,0.172-0.451,0.41-0.606,0.711c-0.146,0.277-0.249,0.594-0.309,0.949
			c-0.059,0.355-0.089,0.699-0.089,1.033c0,0.438,0.035,0.842,0.106,1.213s0.184,0.703,0.339,0.994
			c0.155,0.293,0.35,0.521,0.585,0.688c0.235,0.166,0.526,0.25,0.873,0.25c0.571,0,1.023-0.275,1.356-0.828
			C54.328,118.184,54.494,117.422,54.494,116.452z"/>
		<path fill="#FFFFFF" d="M64.324,119.877h-3.295v-0.451c0.105-0.01,0.22-0.02,0.345-0.027c0.125-0.01,0.229-0.027,0.311-0.055
			c0.127-0.041,0.222-0.113,0.284-0.215c0.062-0.104,0.092-0.236,0.092-0.4v-3.467c0-0.479-0.113-0.848-0.339-1.107
			s-0.501-0.389-0.826-0.389c-0.242,0-0.463,0.037-0.665,0.113c-0.201,0.074-0.379,0.166-0.534,0.275
			c-0.151,0.105-0.271,0.219-0.36,0.34c-0.089,0.119-0.154,0.217-0.195,0.289v3.877c0,0.154,0.032,0.281,0.096,0.383
			c0.064,0.1,0.16,0.178,0.287,0.232c0.096,0.045,0.199,0.08,0.311,0.102c0.112,0.023,0.227,0.039,0.345,0.049v0.451H56.88v-0.451
			c0.105-0.01,0.213-0.02,0.325-0.027c0.112-0.01,0.208-0.027,0.291-0.055c0.127-0.041,0.222-0.113,0.284-0.215
			c0.062-0.104,0.092-0.236,0.092-0.4v-4.158c0-0.154-0.033-0.297-0.099-0.426c-0.066-0.131-0.158-0.236-0.277-0.318
			c-0.086-0.055-0.189-0.094-0.308-0.119s-0.246-0.043-0.383-0.051v-0.451l2.242-0.15l0.096,0.096v0.949h0.034
			c0.109-0.109,0.246-0.24,0.41-0.393s0.319-0.277,0.465-0.373c0.168-0.109,0.369-0.199,0.602-0.273
			c0.232-0.072,0.495-0.109,0.786-0.109c0.647,0,1.127,0.203,1.439,0.605c0.312,0.404,0.468,0.939,0.468,1.609v3.508
			c0,0.158,0.027,0.287,0.082,0.387c0.055,0.098,0.148,0.174,0.28,0.229c0.109,0.045,0.204,0.076,0.284,0.096
			c0.08,0.018,0.19,0.031,0.332,0.041V119.877z"/>
		<path fill="#FFFFFF" d="M69.602,116.575c0.187,0.164,0.331,0.354,0.431,0.568c0.1,0.213,0.15,0.477,0.15,0.785
			c0,0.625-0.233,1.135-0.701,1.531s-1.072,0.596-1.815,0.596c-0.392,0-0.753-0.07-1.083-0.213
			c-0.331-0.141-0.566-0.271-0.708-0.389l-0.137,0.443h-0.513l-0.068-2.344h0.472c0.037,0.178,0.114,0.387,0.232,0.623
			c0.119,0.238,0.262,0.453,0.431,0.645c0.178,0.203,0.391,0.371,0.639,0.508c0.249,0.139,0.527,0.207,0.837,0.207
			c0.438,0,0.775-0.1,1.012-0.299s0.355-0.486,0.355-0.857c0-0.191-0.038-0.355-0.113-0.494c-0.075-0.141-0.186-0.262-0.332-0.367
			c-0.15-0.104-0.335-0.199-0.554-0.283s-0.462-0.168-0.731-0.25c-0.214-0.063-0.452-0.15-0.714-0.262
			c-0.262-0.113-0.486-0.244-0.673-0.395c-0.201-0.158-0.365-0.355-0.492-0.588s-0.191-0.506-0.191-0.82
			c0-0.551,0.205-1.018,0.615-1.4s0.959-0.574,1.647-0.574c0.264,0,0.534,0.033,0.81,0.102s0.5,0.15,0.673,0.246l0.157-0.355h0.492
			l0.103,2.168h-0.472c-0.096-0.486-0.302-0.881-0.619-1.186c-0.317-0.303-0.703-0.455-1.159-0.455
			c-0.374,0-0.667,0.094-0.882,0.281c-0.214,0.189-0.321,0.416-0.321,0.682c0,0.205,0.035,0.377,0.106,0.514
			s0.177,0.252,0.318,0.348c0.137,0.092,0.309,0.178,0.516,0.258c0.208,0.078,0.464,0.168,0.769,0.27
			c0.301,0.096,0.584,0.207,0.851,0.334C69.208,116.28,69.428,116.42,69.602,116.575z"/>
		<path fill="#FFFFFF" d="M75.364,119.583c-0.296,0.123-0.576,0.227-0.841,0.313c-0.264,0.084-0.588,0.125-0.971,0.125
			c-0.565,0-0.963-0.143-1.193-0.426c-0.23-0.285-0.345-0.688-0.345-1.207v-4.566h-1.217v-0.656h1.244v-2.1h1.244v2.1h1.935v0.656
			H73.3v3.766c0,0.283,0.01,0.52,0.031,0.709c0.021,0.188,0.069,0.354,0.147,0.494c0.073,0.133,0.182,0.232,0.328,0.301
			s0.342,0.104,0.588,0.104c0.113,0,0.281-0.01,0.503-0.031c0.221-0.02,0.377-0.047,0.468-0.078V119.583z"/>
		<path fill="#FFFFFF" d="M81.195,114.004c0,0.232-0.057,0.439-0.171,0.619s-0.289,0.27-0.526,0.27c-0.255,0-0.45-0.066-0.585-0.197
			c-0.134-0.133-0.201-0.279-0.201-0.438c0-0.102,0.008-0.191,0.023-0.273c0.017-0.082,0.031-0.164,0.045-0.246
			c-0.214,0-0.465,0.086-0.752,0.26c-0.287,0.172-0.531,0.418-0.731,0.738v3.924c0,0.158,0.03,0.289,0.093,0.389
			c0.061,0.102,0.158,0.176,0.29,0.227c0.114,0.045,0.261,0.08,0.44,0.102c0.181,0.023,0.337,0.039,0.469,0.049v0.451h-3.555v-0.451
			c0.104-0.01,0.213-0.02,0.324-0.027c0.112-0.01,0.209-0.027,0.291-0.055c0.128-0.041,0.223-0.113,0.283-0.215
			c0.063-0.104,0.093-0.236,0.093-0.4v-4.158c0-0.141-0.033-0.279-0.099-0.416c-0.066-0.137-0.159-0.246-0.277-0.328
			c-0.087-0.055-0.189-0.094-0.308-0.119s-0.246-0.043-0.383-0.051v-0.451l2.242-0.15l0.096,0.096v0.949h0.034
			c0.282-0.369,0.597-0.648,0.943-0.84s0.663-0.287,0.95-0.287s0.521,0.094,0.7,0.279C81.105,113.44,81.195,113.69,81.195,114.004z"
			/>
		<path fill="#FFFFFF" d="M88.995,119.754l-2.201,0.15l-0.103-0.096v-0.855H86.65c-0.109,0.115-0.232,0.236-0.368,0.367
			c-0.137,0.129-0.294,0.246-0.471,0.352c-0.205,0.123-0.403,0.217-0.595,0.279c-0.19,0.064-0.461,0.096-0.812,0.096
			c-0.596,0-1.05-0.193-1.361-0.584c-0.313-0.389-0.468-0.955-0.468-1.695v-3.225c0-0.164-0.031-0.301-0.093-0.412
			c-0.063-0.111-0.152-0.209-0.271-0.291c-0.083-0.055-0.187-0.094-0.31-0.119c-0.124-0.025-0.255-0.043-0.393-0.051v-0.451
			l2.249-0.164l0.103,0.096v4.682c0,0.488,0.109,0.855,0.328,1.102s0.48,0.369,0.786,0.369c0.251,0,0.474-0.039,0.67-0.117
			c0.196-0.076,0.36-0.168,0.492-0.273c0.123-0.094,0.231-0.195,0.325-0.303c0.093-0.107,0.165-0.205,0.215-0.297v-3.816
			c0-0.15-0.032-0.283-0.096-0.4c-0.063-0.115-0.152-0.215-0.267-0.297c-0.082-0.055-0.204-0.088-0.366-0.098
			c-0.161-0.012-0.343-0.023-0.543-0.031v-0.451l2.454-0.164l0.103,0.096v5.346c0,0.154,0.032,0.287,0.096,0.396
			s0.152,0.203,0.267,0.279c0.082,0.051,0.18,0.084,0.294,0.1s0.239,0.025,0.376,0.031V119.754z"/>
		<path fill="#FFFFFF" d="M92.939,120.055c-0.976,0-1.738-0.324-2.29-0.971c-0.552-0.648-0.827-1.516-0.827-2.605
			c0-0.473,0.074-0.916,0.223-1.328c0.147-0.414,0.363-0.789,0.646-1.125c0.269-0.324,0.606-0.584,1.012-0.783
			c0.405-0.197,0.848-0.297,1.326-0.297c0.661,0,1.198,0.158,1.613,0.475s0.622,0.748,0.622,1.295c0,0.229-0.055,0.43-0.164,0.605
			s-0.289,0.264-0.54,0.264c-0.269,0-0.478-0.068-0.626-0.205c-0.147-0.137-0.222-0.289-0.222-0.457
			c0-0.203,0.027-0.414,0.082-0.629c0.055-0.217,0.087-0.375,0.096-0.475c-0.082-0.141-0.203-0.234-0.365-0.283
			c-0.161-0.047-0.335-0.07-0.521-0.07c-0.218,0-0.426,0.047-0.624,0.141c-0.197,0.092-0.39,0.264-0.576,0.516
			c-0.168,0.227-0.304,0.535-0.408,0.922c-0.105,0.389-0.157,0.85-0.157,1.389c0,0.848,0.188,1.539,0.563,2.074
			c0.375,0.535,0.867,0.803,1.478,0.803c0.441,0,0.811-0.107,1.108-0.322c0.299-0.215,0.575-0.539,0.83-0.969l0.437,0.287
			c-0.301,0.537-0.697,0.963-1.189,1.277S93.464,120.055,92.939,120.055z"/>
		<path fill="#FFFFFF" d="M100.343,119.583c-0.296,0.123-0.576,0.227-0.841,0.313c-0.265,0.084-0.588,0.125-0.971,0.125
			c-0.565,0-0.963-0.143-1.193-0.426c-0.229-0.285-0.345-0.688-0.345-1.207v-4.566h-1.217v-0.656h1.244v-2.1h1.244v2.1h1.935v0.656
			h-1.921v3.766c0,0.283,0.011,0.52,0.03,0.709c0.021,0.188,0.07,0.354,0.147,0.494c0.073,0.133,0.183,0.232,0.328,0.301
			s0.342,0.104,0.588,0.104c0.114,0,0.281-0.01,0.503-0.031c0.221-0.02,0.377-0.047,0.468-0.078V119.583z"/>
		<path fill="#FFFFFF" d="M107.001,118.292c-0.282,0.537-0.661,0.965-1.135,1.285c-0.474,0.318-1.019,0.479-1.634,0.479
			c-0.542,0-1.018-0.096-1.425-0.287c-0.408-0.191-0.744-0.451-1.009-0.779s-0.462-0.711-0.591-1.148
			c-0.131-0.438-0.195-0.9-0.195-1.389c0-0.438,0.069-0.867,0.209-1.287c0.139-0.422,0.343-0.803,0.611-1.139
			c0.26-0.324,0.582-0.584,0.967-0.783c0.386-0.197,0.817-0.297,1.296-0.297c0.492,0,0.914,0.076,1.265,0.232
			c0.351,0.154,0.636,0.367,0.854,0.635c0.21,0.256,0.366,0.557,0.468,0.902c0.104,0.348,0.154,0.723,0.154,1.129v0.451h-4.464
			c0,0.443,0.042,0.844,0.126,1.205c0.085,0.361,0.218,0.678,0.4,0.953c0.178,0.264,0.41,0.473,0.697,0.627
			c0.287,0.152,0.629,0.229,1.025,0.229c0.405,0,0.756-0.094,1.049-0.285c0.295-0.189,0.578-0.531,0.852-1.027L107.001,118.292z
			 M105.49,115.721c0-0.256-0.021-0.527-0.065-0.818c-0.043-0.291-0.112-0.533-0.208-0.729c-0.104-0.209-0.248-0.381-0.431-0.512
			c-0.183-0.133-0.417-0.197-0.704-0.197c-0.479,0-0.876,0.199-1.192,0.596c-0.317,0.398-0.489,0.951-0.517,1.66H105.49z"/>
		<path fill="#FFFFFF" d="M115.163,119.754l-2.358,0.15l-0.103-0.096v-0.629l-0.055-0.014c-0.236,0.264-0.529,0.48-0.877,0.648
			c-0.349,0.17-0.707,0.254-1.075,0.254c-0.383,0-0.752-0.086-1.109-0.256c-0.357-0.172-0.668-0.412-0.932-0.723
			c-0.269-0.314-0.481-0.691-0.639-1.135c-0.157-0.441-0.235-0.93-0.235-1.463c0-0.486,0.084-0.949,0.253-1.387
			c0.168-0.438,0.4-0.82,0.696-1.148c0.277-0.307,0.617-0.549,1.021-0.732c0.402-0.182,0.813-0.273,1.231-0.273
			c0.314,0,0.623,0.041,0.926,0.121c0.302,0.078,0.563,0.18,0.781,0.303v-2.35c0-0.191-0.032-0.365-0.096-0.523
			s-0.152-0.277-0.267-0.359c-0.128-0.086-0.3-0.148-0.517-0.188c-0.216-0.039-0.449-0.068-0.7-0.086v-0.424l2.762-0.15l0.103,0.102
			v9.086c0,0.16,0.031,0.295,0.092,0.406c0.063,0.111,0.152,0.207,0.271,0.283c0.087,0.055,0.212,0.09,0.376,0.104
			s0.314,0.021,0.451,0.027V119.754z M112.688,118.571v-3.943c-0.036-0.119-0.096-0.246-0.178-0.383
			c-0.081-0.137-0.184-0.262-0.307-0.377c-0.132-0.113-0.286-0.207-0.464-0.283c-0.178-0.074-0.385-0.113-0.621-0.113
			c-0.272,0-0.524,0.07-0.754,0.213c-0.229,0.141-0.434,0.344-0.61,0.607c-0.168,0.256-0.302,0.58-0.399,0.975
			s-0.146,0.83-0.146,1.309c0,0.383,0.036,0.73,0.109,1.043c0.072,0.313,0.195,0.604,0.368,0.871
			c0.159,0.256,0.362,0.461,0.61,0.615c0.248,0.156,0.543,0.232,0.884,0.232c0.364,0,0.665-0.08,0.904-0.238
			C112.323,118.938,112.524,118.762,112.688,118.571z"/>
	</g>
</g>
</svg>
