<?xml version="1.0" encoding="utf-8"?>
<!-- Generator: Adobe Illustrator 16.0.0, SVG Export Plug-In . SVG Version: 6.00 Build 0)  -->
<!DOCTYPE svg PUBLIC "-//W3C//DTD SVG 1.1//EN" "http://www.w3.org/Graphics/SVG/1.1/DTD/svg11.dtd">
<svg version="1.1" id="Layer_1" xmlns="http://www.w3.org/2000/svg" xmlns:xlink="http://www.w3.org/1999/xlink" x="0px" y="0px"
	 width="285.766px" height="122.325px" viewBox="0 0 285.766 122.325" enable-background="new 0 0 285.766 122.325"
	 xml:space="preserve">
<g>
	<g>
		<g>
			<path fill="#FFFFFF" d="M150.639,48.841c0,0-8.075,6.279-8.051,47.25v22.371h143.178V98.327c0,0-3.03-44.138-14.738-51.466
				c0,0,11.804,25.867,7.818,49.229c-0.104,0.605-0.233,2.236-0.361,2.236c0,0-0.095-1.106-0.164-2.236
				c-0.452-6.807-2.493-30.936-7.517-36.263c0,0,5.071,27.442,0.979,36.263c-1.188,2.691-0.746,0-0.746,0c0,0.686,0,0.533,0,0
				c-0.093-7.041-1.012-32.988-9.507-44.325c0,0,6.374,27.756,0.806,44.325c-0.257,0.617-0.434,1.49-0.806,2.236
				c0,0-0.092-1.098-0.221-2.236c-0.746-6.094-3.075-26.1-3.075-36.263c0,0-4.324,23.317-3.451,36.263h-0.104
				c0.072,0.441,0.072,0.5,0,0c-1.175-8.52-6.022-45.095-3.764-58.959c0,0-3.133,12.573-2.738,51.022
				c-0.489-7.502-1.993-17.523-6.419-23.21c0,0,4.791,21.718,0.943,31.147c-0.266,0.662-0.582,2.236-0.943,2.236
				c0,0-0.197-1.086-0.501-2.236c-1.655-6.143-6.664-26.777-3.894-42.485c0,0-5.661,10.513-4.09,42.485l0.072,2.236
				c-0.012,0-1.924-25.683-4.346-28.336c0,0,0.08,13.723-0.678,26.1c-0.035,0.605-0.068,2.236-0.104,2.236
				c0,0-0.057-1.086-0.176-2.236c-0.79-7.971-4.311-39.839-10.076-44.325c0,0,5.032,30.19,2.574,44.325
				c-0.116,0.629-0.233,2.236-0.373,2.236c0,0-0.337-1.106-0.887-2.236c-2.458-5.151-9.229-20.182-8.635-28.582
				c0,0-4.752,9.156-4.029,28.185c0,0-6.735-19.762-0.072-35.866c0,0-6.628,6.048-6.792,21.929
				c-1.503-12.5-4.358-29.699-9.241-36.575c0,0,8.054,28.922,4.767,49.417c0,0-8.54-15.544-4.767-23.434
				c0,0-5.113,4.768-3.657,23.795c0,0-7.316-13.9-1.829-35.132c0,0-5.211,9.951-5.198,26.544c-0.851-9.787-2.423-23.281-5.045-29.84
				c0,0,1.305,28.139-1.339,39.559c-0.151,0.65-0.315,2.236-0.501,2.236c0,0-0.257-1.086-0.641-2.236
				c-1.539-4.582-5.208-17.549-3.741-33.338c0,0-3.705,8.692-1.468,27.58c-1.876-11.209-6.143-31.564-13.178-37.823
				c0,0,11.01,24.413,8.68,43.581c-0.069,0.605-0.164,2.236-0.257,2.236c0,0-0.966-1.025-2.261-2.236
				c-3.461-3.228-9.354-10.965-6.163-24.553c0,0-4.731,8.856-2.799,24.553c0,0,0.152,1.828,0.164,1.957
				C151.2,97.65,144.581,72.215,150.639,48.841L150.639,48.841z"/>
		</g>
	</g>
</g>
<g>
	<g enable-background="new    ">
		<path fill="#FFFFFF" d="M33.576,20.779c-2.731,0-5.138,1.365-7.219,4.097l-6.146-5.658c3.056-4.617,7.934-6.926,14.633-6.926
			c10.08,0,15.121,5.919,15.121,17.754c0,1.821-0.098,3.528-0.293,5.121c-0.195,1.595-0.375,2.943-0.537,4.048
			c-0.163,1.107-0.537,2.261-1.122,3.463c-0.585,1.204-1.024,2.131-1.317,2.78c-0.292,0.65-0.927,1.529-1.902,2.634
			c-0.976,1.106-1.659,1.87-2.049,2.292c-0.39,0.423-1.253,1.285-2.585,2.584c-1.334,1.302-2.229,2.18-2.683,2.634
			c-2.407,2.407-4.048,4.683-4.926,6.829c-0.878,2.146-1.317,4.975-1.317,8.486v3.805h17.656v9.17H21.773V72.674
			c0-5.787,0.649-10.291,1.951-13.509c1.3-3.22,3.576-6.454,6.829-9.707c0.13-0.13,0.666-0.649,1.61-1.561
			c0.942-0.91,1.512-1.479,1.707-1.707c0.195-0.227,0.683-0.796,1.463-1.707c0.78-0.91,1.3-1.593,1.561-2.049
			c0.259-0.454,0.649-1.154,1.171-2.097c0.52-0.942,0.861-1.82,1.024-2.634c0.162-0.813,0.341-1.771,0.537-2.878
			c0.195-1.105,0.292-2.244,0.292-3.414c0-3.902-0.521-6.649-1.561-8.243C37.315,21.576,35.722,20.779,33.576,20.779z"/>
		<path fill="#FFFFFF" d="M85.96,55.994v8.389c0,7.09-1.204,12.34-3.609,15.754c-2.407,3.414-6.31,5.121-11.706,5.121
			c-6.243,0-10.862-2.404-13.853-7.217l6.438-6.244c1.495,1.887,2.746,3.105,3.756,3.658c1.007,0.553,2.194,0.828,3.561,0.828
			c3.771,0,5.657-4.096,5.657-12.291V58.53c0-3.512-0.357-6.097-1.072-7.755c-0.717-1.659-2.114-2.488-4.195-2.488
			c-2.406,0-4.39,1.529-5.95,4.585l-6.438-3.902l0.878-35.313h25.363v9.17H67.133l-0.586,20.388c0.391-1.171,1.332-2.21,2.829-3.122
			c1.495-0.91,3.088-1.366,4.78-1.366c4.097,0,7.087,1.414,8.975,4.243C85.016,45.8,85.96,50.141,85.96,55.994z"/>
		<path fill="#FFFFFF" d="M122.054,55.994v8.389c0,7.09-1.204,12.34-3.609,15.754c-2.407,3.414-6.31,5.121-11.706,5.121
			c-6.243,0-10.862-2.404-13.853-7.217l6.438-6.244c1.495,1.887,2.746,3.105,3.756,3.658c1.007,0.553,2.194,0.828,3.561,0.828
			c3.771,0,5.657-4.096,5.657-12.291V58.53c0-3.512-0.357-6.097-1.072-7.755c-0.717-1.659-2.114-2.488-4.195-2.488
			c-2.406,0-4.39,1.529-5.95,4.585l-6.438-3.902l0.878-35.313h25.363v9.17h-17.656l-0.586,20.388
			c0.391-1.171,1.332-2.21,2.829-3.122c1.495-0.91,3.088-1.366,4.78-1.366c4.097,0,7.087,1.414,8.975,4.243
			C121.11,45.8,122.054,50.141,122.054,55.994z"/>
	</g>
	<g enable-background="new    ">
		<path fill="#FFFFFF" d="M62.727,101.28h-3.315v-0.451c0.105-0.01,0.221-0.02,0.349-0.027c0.127-0.01,0.232-0.027,0.314-0.055
			c0.127-0.041,0.222-0.113,0.284-0.215c0.062-0.104,0.092-0.236,0.092-0.4v-3.467c0-0.479-0.113-0.848-0.339-1.107
			s-0.501-0.389-0.826-0.389c-0.237,0-0.458,0.037-0.661,0.113c-0.203,0.074-0.385,0.166-0.544,0.275
			c-0.155,0.115-0.274,0.229-0.356,0.342c-0.083,0.115-0.146,0.211-0.192,0.287v3.877c0,0.154,0.031,0.281,0.092,0.383
			c0.062,0.1,0.156,0.178,0.284,0.232c0.1,0.045,0.204,0.08,0.311,0.102c0.107,0.023,0.225,0.039,0.352,0.049v0.451h-3.302v-0.451
			c0.104-0.01,0.213-0.02,0.326-0.031c0.113-0.012,0.208-0.029,0.285-0.051c0.127-0.041,0.222-0.113,0.285-0.217
			c0.063-0.102,0.095-0.234,0.095-0.4v-7.852c0-0.156-0.035-0.311-0.106-0.467c-0.071-0.154-0.163-0.27-0.277-0.348
			c-0.082-0.059-0.227-0.102-0.434-0.127s-0.375-0.043-0.502-0.051v-0.438l2.495-0.15l0.096,0.102v4.703h0.027
			c0.15-0.15,0.288-0.283,0.411-0.398c0.124-0.117,0.286-0.238,0.486-0.367c0.173-0.109,0.378-0.199,0.613-0.273
			c0.235-0.072,0.499-0.109,0.791-0.109c0.603,0,1.066,0.191,1.39,0.572c0.324,0.379,0.486,0.928,0.486,1.643v3.508
			c0,0.158,0.029,0.287,0.086,0.387c0.058,0.098,0.153,0.174,0.286,0.229c0.105,0.041,0.201,0.072,0.286,0.092
			c0.085,0.021,0.196,0.035,0.334,0.045V101.28z"/>
		<path fill="#FFFFFF" d="M69.529,99.694c-0.283,0.537-0.661,0.965-1.135,1.285c-0.474,0.318-1.019,0.479-1.634,0.479
			c-0.542,0-1.018-0.096-1.425-0.287s-0.744-0.451-1.008-0.779s-0.461-0.711-0.591-1.148s-0.195-0.9-0.195-1.389
			c0-0.438,0.069-0.867,0.208-1.287c0.139-0.422,0.343-0.803,0.612-1.139c0.26-0.324,0.582-0.584,0.967-0.783
			c0.385-0.197,0.817-0.297,1.295-0.297c0.492,0,0.914,0.076,1.265,0.232c0.351,0.154,0.636,0.367,0.854,0.635
			c0.209,0.256,0.366,0.557,0.468,0.902c0.103,0.348,0.154,0.723,0.154,1.129v0.451h-4.464c0,0.443,0.042,0.844,0.126,1.205
			s0.218,0.678,0.4,0.953c0.178,0.264,0.41,0.473,0.697,0.627c0.287,0.152,0.629,0.229,1.025,0.229c0.406,0,0.755-0.094,1.049-0.285
			c0.294-0.189,0.578-0.531,0.851-1.027L69.529,99.694z M68.018,97.124c0-0.256-0.021-0.527-0.065-0.818s-0.113-0.533-0.208-0.729
			c-0.105-0.209-0.249-0.381-0.431-0.512c-0.182-0.133-0.417-0.197-0.704-0.197c-0.479,0-0.876,0.199-1.193,0.596
			c-0.317,0.398-0.489,0.951-0.516,1.66H68.018z"/>
		<path fill="#FFFFFF" d="M73.425,101.458c-0.975,0-1.739-0.324-2.29-0.971c-0.551-0.648-0.827-1.516-0.827-2.605
			c0-0.473,0.074-0.916,0.222-1.328c0.148-0.414,0.363-0.789,0.646-1.125c0.269-0.324,0.606-0.584,1.012-0.783
			c0.406-0.197,0.848-0.297,1.326-0.297c0.661,0,1.199,0.158,1.613,0.475s0.622,0.748,0.622,1.295c0,0.229-0.055,0.43-0.164,0.605
			s-0.29,0.264-0.54,0.264c-0.269,0-0.478-0.068-0.625-0.205s-0.222-0.289-0.222-0.457c0-0.203,0.027-0.414,0.082-0.629
			c0.055-0.217,0.086-0.375,0.096-0.475c-0.082-0.141-0.204-0.234-0.365-0.283c-0.162-0.047-0.335-0.07-0.521-0.07
			c-0.218,0-0.426,0.047-0.624,0.141c-0.198,0.092-0.39,0.264-0.576,0.516c-0.168,0.227-0.305,0.535-0.409,0.922
			c-0.104,0.389-0.157,0.85-0.157,1.389c0,0.848,0.188,1.539,0.563,2.074s0.868,0.803,1.478,0.803c0.441,0,0.812-0.107,1.109-0.322
			s0.574-0.539,0.829-0.969l0.437,0.287c-0.301,0.537-0.697,0.963-1.189,1.277S73.949,101.458,73.425,101.458z"/>
		<path fill="#FFFFFF" d="M80.828,100.985c-0.296,0.123-0.577,0.227-0.841,0.313c-0.264,0.084-0.588,0.125-0.971,0.125
			c-0.565,0-0.963-0.143-1.193-0.426c-0.23-0.285-0.345-0.688-0.345-1.207v-4.566h-1.217v-0.656h1.244v-2.1h1.244v2.1h1.935v0.656
			h-1.921v3.766c0,0.283,0.01,0.52,0.031,0.709c0.021,0.188,0.069,0.354,0.147,0.494c0.073,0.133,0.182,0.232,0.328,0.301
			s0.342,0.104,0.588,0.104c0.114,0,0.281-0.01,0.502-0.031c0.221-0.02,0.377-0.047,0.468-0.078V100.985z"/>
		<path fill="#FFFFFF" d="M87.883,101.157c-0.214,0.076-0.402,0.141-0.564,0.188c-0.161,0.049-0.345,0.072-0.55,0.072
			c-0.355,0-0.639-0.084-0.851-0.25s-0.348-0.408-0.407-0.729H85.47c-0.296,0.328-0.614,0.58-0.954,0.752
			c-0.339,0.174-0.749,0.26-1.227,0.26c-0.506,0-0.922-0.154-1.248-0.465c-0.326-0.309-0.489-0.715-0.489-1.217
			c0-0.26,0.037-0.492,0.109-0.697s0.182-0.389,0.328-0.553c0.114-0.137,0.264-0.26,0.451-0.365
			c0.187-0.107,0.362-0.193,0.526-0.258c0.205-0.076,0.621-0.221,1.248-0.43c0.626-0.211,1.049-0.375,1.268-0.492v-0.678
			c0-0.059-0.013-0.172-0.038-0.342c-0.025-0.168-0.079-0.328-0.161-0.479c-0.091-0.168-0.22-0.314-0.386-0.439
			c-0.167-0.127-0.402-0.189-0.708-0.189c-0.209,0-0.404,0.035-0.584,0.107c-0.18,0.07-0.307,0.145-0.379,0.221
			c0,0.092,0.021,0.227,0.065,0.404s0.065,0.342,0.065,0.492c0,0.158-0.072,0.305-0.215,0.438c-0.144,0.131-0.343,0.197-0.598,0.197
			c-0.228,0-0.396-0.08-0.502-0.242s-0.161-0.344-0.161-0.543c0-0.211,0.074-0.41,0.222-0.602s0.341-0.363,0.578-0.514
			c0.205-0.127,0.454-0.234,0.745-0.324c0.292-0.088,0.577-0.133,0.854-0.133c0.383,0,0.717,0.025,1.001,0.078
			s0.543,0.166,0.776,0.338c0.232,0.17,0.409,0.398,0.53,0.688s0.181,0.662,0.181,1.117c0,0.652-0.007,1.23-0.021,1.734
			c-0.014,0.502-0.021,1.053-0.021,1.65c0,0.178,0.031,0.318,0.092,0.424c0.062,0.104,0.156,0.193,0.284,0.266
			c0.068,0.041,0.177,0.064,0.324,0.068c0.148,0.006,0.3,0.008,0.455,0.008V101.157z M85.497,97.547
			c-0.387,0.113-0.727,0.227-1.019,0.336s-0.563,0.246-0.813,0.41c-0.228,0.156-0.408,0.34-0.54,0.551
			c-0.132,0.213-0.198,0.465-0.198,0.758c0,0.379,0.099,0.658,0.297,0.836s0.45,0.268,0.755,0.268c0.324,0,0.608-0.08,0.854-0.236
			c0.246-0.158,0.454-0.344,0.622-0.559L85.497,97.547z"/>
		<path fill="#FFFFFF" d="M93.714,95.407c0,0.232-0.057,0.439-0.171,0.619s-0.289,0.27-0.526,0.27c-0.255,0-0.45-0.066-0.585-0.197
			c-0.134-0.133-0.201-0.279-0.201-0.438c0-0.102,0.008-0.191,0.023-0.273c0.017-0.082,0.031-0.164,0.045-0.246
			c-0.214,0-0.465,0.086-0.752,0.26c-0.287,0.172-0.531,0.418-0.731,0.738v3.924c0,0.158,0.03,0.289,0.093,0.389
			c0.061,0.102,0.158,0.176,0.29,0.227c0.114,0.045,0.261,0.08,0.44,0.102c0.181,0.023,0.337,0.039,0.469,0.049v0.451h-3.555v-0.451
			c0.104-0.01,0.213-0.02,0.324-0.027c0.112-0.01,0.209-0.027,0.291-0.055c0.128-0.041,0.223-0.113,0.283-0.215
			c0.063-0.104,0.093-0.236,0.093-0.4v-4.158c0-0.141-0.033-0.279-0.099-0.416c-0.066-0.137-0.159-0.246-0.277-0.328
			c-0.087-0.055-0.189-0.094-0.308-0.119s-0.246-0.043-0.383-0.051v-0.451l2.242-0.15l0.096,0.096v0.949h0.034
			c0.282-0.369,0.597-0.648,0.943-0.84s0.663-0.287,0.95-0.287s0.521,0.094,0.7,0.279C93.624,94.842,93.714,95.092,93.714,95.407z"
			/>
		<path fill="#FFFFFF" d="M100.277,99.694c-0.282,0.537-0.661,0.965-1.135,1.285c-0.474,0.318-1.019,0.479-1.634,0.479
			c-0.542,0-1.018-0.096-1.425-0.287c-0.408-0.191-0.744-0.451-1.009-0.779s-0.462-0.711-0.591-1.148
			c-0.131-0.438-0.195-0.9-0.195-1.389c0-0.438,0.069-0.867,0.209-1.287c0.139-0.422,0.343-0.803,0.611-1.139
			c0.26-0.324,0.582-0.584,0.967-0.783c0.386-0.197,0.817-0.297,1.296-0.297c0.492,0,0.914,0.076,1.265,0.232
			c0.351,0.154,0.636,0.367,0.854,0.635c0.21,0.256,0.366,0.557,0.468,0.902c0.104,0.348,0.154,0.723,0.154,1.129v0.451h-4.464
			c0,0.443,0.042,0.844,0.126,1.205c0.085,0.361,0.218,0.678,0.4,0.953c0.178,0.264,0.41,0.473,0.697,0.627
			c0.287,0.152,0.629,0.229,1.025,0.229c0.405,0,0.756-0.094,1.049-0.285c0.295-0.189,0.578-0.531,0.852-1.027L100.277,99.694z
			 M98.766,97.124c0-0.256-0.021-0.527-0.065-0.818c-0.043-0.291-0.112-0.533-0.208-0.729c-0.104-0.209-0.248-0.381-0.431-0.512
			c-0.183-0.133-0.417-0.197-0.704-0.197c-0.479,0-0.876,0.199-1.192,0.596c-0.317,0.398-0.489,0.951-0.517,1.66H98.766z"/>
		<path fill="#FFFFFF" d="M105.506,97.977c0.187,0.164,0.33,0.354,0.431,0.568c0.101,0.213,0.15,0.477,0.15,0.785
			c0,0.625-0.233,1.135-0.701,1.531c-0.467,0.396-1.071,0.596-1.814,0.596c-0.392,0-0.753-0.07-1.084-0.213
			c-0.33-0.141-0.565-0.271-0.707-0.389l-0.137,0.443h-0.513l-0.068-2.344h0.472c0.036,0.178,0.114,0.387,0.232,0.623
			c0.118,0.238,0.262,0.453,0.431,0.645c0.178,0.203,0.391,0.371,0.64,0.508c0.248,0.139,0.527,0.207,0.837,0.207
			c0.438,0,0.774-0.1,1.012-0.299s0.355-0.486,0.355-0.857c0-0.191-0.038-0.355-0.112-0.494c-0.076-0.141-0.187-0.262-0.332-0.367
			c-0.15-0.104-0.335-0.199-0.554-0.283s-0.463-0.168-0.731-0.25c-0.214-0.063-0.452-0.15-0.715-0.262
			c-0.262-0.113-0.486-0.244-0.673-0.395c-0.2-0.158-0.364-0.355-0.492-0.588s-0.191-0.506-0.191-0.82
			c0-0.551,0.205-1.018,0.615-1.4s0.959-0.574,1.647-0.574c0.265,0,0.534,0.033,0.811,0.102c0.275,0.068,0.5,0.15,0.673,0.246
			l0.157-0.355h0.492l0.103,2.168h-0.472c-0.096-0.486-0.302-0.881-0.619-1.186c-0.316-0.303-0.702-0.455-1.158-0.455
			c-0.374,0-0.668,0.094-0.882,0.281c-0.214,0.189-0.321,0.416-0.321,0.682c0,0.205,0.035,0.377,0.105,0.514
			c0.071,0.137,0.177,0.252,0.318,0.348c0.137,0.092,0.309,0.178,0.516,0.258c0.208,0.078,0.464,0.168,0.77,0.27
			c0.301,0.096,0.584,0.207,0.852,0.334C105.113,97.682,105.333,97.823,105.506,97.977z"/>
		<path fill="#FFFFFF" d="M117.059,97.84c0,0.475-0.075,0.941-0.226,1.398c-0.15,0.459-0.365,0.846-0.644,1.166
			c-0.314,0.363-0.68,0.635-1.095,0.813s-0.881,0.268-1.396,0.268c-0.429,0-0.837-0.082-1.225-0.242
			c-0.388-0.162-0.732-0.398-1.033-0.709c-0.297-0.305-0.532-0.678-0.708-1.117s-0.264-0.934-0.264-1.48
			c0-1.053,0.307-1.914,0.92-2.584c0.614-0.67,1.418-1.004,2.412-1.004c0.944,0,1.724,0.318,2.338,0.953
			C116.752,95.938,117.059,96.784,117.059,97.84z M115.644,97.854c0-0.342-0.034-0.703-0.103-1.082
			c-0.068-0.381-0.172-0.703-0.309-0.969c-0.146-0.281-0.338-0.508-0.575-0.68c-0.237-0.17-0.527-0.256-0.87-0.256
			c-0.352,0-0.651,0.086-0.9,0.26c-0.248,0.172-0.45,0.41-0.605,0.711c-0.146,0.277-0.249,0.594-0.309,0.949
			s-0.089,0.699-0.089,1.033c0,0.438,0.035,0.842,0.106,1.213c0.07,0.371,0.184,0.703,0.339,0.994
			c0.155,0.293,0.351,0.521,0.585,0.688c0.235,0.166,0.526,0.25,0.873,0.25c0.571,0,1.023-0.275,1.356-0.828
			C115.477,99.586,115.644,98.825,115.644,97.854z"/>
		<path fill="#FFFFFF" d="M123.047,91.518c0,0.205-0.055,0.377-0.164,0.52c-0.109,0.141-0.275,0.211-0.499,0.211
			c-0.142,0-0.266-0.029-0.372-0.088c-0.107-0.061-0.207-0.139-0.298-0.24c-0.091-0.1-0.176-0.213-0.253-0.342
			c-0.077-0.127-0.144-0.23-0.198-0.307c-0.306,0.014-0.541,0.227-0.708,0.637c-0.166,0.412-0.249,1.068-0.249,1.969v0.689h1.736
			v0.656h-1.736v4.84c0,0.158,0.03,0.289,0.093,0.389c0.061,0.102,0.158,0.176,0.29,0.227c0.109,0.041,0.255,0.074,0.438,0.1
			c0.183,0.023,0.34,0.041,0.472,0.051v0.451h-3.555v-0.451c0.104-0.01,0.213-0.02,0.324-0.027c0.112-0.01,0.209-0.027,0.291-0.055
			c0.128-0.041,0.223-0.113,0.283-0.215c0.063-0.104,0.093-0.236,0.093-0.4v-4.908h-1.333v-0.656h1.333v-0.43
			c0-1.023,0.266-1.854,0.796-2.488c0.531-0.635,1.195-0.951,1.993-0.951c0.405,0,0.711,0.08,0.916,0.238
			C122.945,91.096,123.047,91.29,123.047,91.518z"/>
	</g>
	<g enable-background="new    ">
		<path fill="#FFFFFF" d="M6.269,117.383c0.182,0.172,0.326,0.369,0.431,0.588s0.157,0.49,0.157,0.813
			c0,0.324-0.071,0.629-0.212,0.914c-0.141,0.283-0.355,0.531-0.643,0.74c-0.305,0.215-0.67,0.381-1.094,0.5
			c-0.424,0.117-0.948,0.178-1.572,0.178c-1.021,0-1.784-0.15-2.29-0.447c-0.506-0.299-0.759-0.736-0.759-1.311
			c0-0.465,0.182-0.832,0.547-1.1c0.365-0.27,0.83-0.416,1.395-0.438v-0.096c-0.137-0.041-0.278-0.092-0.424-0.154
			c-0.146-0.061-0.271-0.133-0.376-0.215c-0.119-0.096-0.214-0.209-0.287-0.338c-0.073-0.131-0.109-0.291-0.109-0.482
			c0-0.242,0.085-0.465,0.256-0.666c0.171-0.203,0.43-0.379,0.776-0.523v-0.104c-0.438-0.205-0.777-0.467-1.019-0.789
			c-0.242-0.32-0.362-0.693-0.362-1.117c0-0.639,0.238-1.162,0.714-1.572s1.086-0.615,1.829-0.615c0.205,0,0.409,0.02,0.612,0.061
			s0.409,0.094,0.619,0.158h2.352v0.656H5.223v0.041c0.168,0.195,0.294,0.412,0.376,0.648c0.082,0.238,0.123,0.471,0.123,0.697
			c0,0.594-0.24,1.094-0.721,1.504s-1.04,0.615-1.678,0.615H2.495c-0.105,0.037-0.214,0.104-0.328,0.199s-0.171,0.225-0.171,0.389
			c0,0.17,0.048,0.299,0.144,0.387c0.096,0.09,0.212,0.148,0.349,0.182c0.132,0.035,0.286,0.059,0.461,0.068
			c0.175,0.008,0.356,0.016,0.543,0.02c0.201,0.006,0.475,0.02,0.824,0.041c0.349,0.023,0.596,0.037,0.742,0.041
			c0.209,0.01,0.42,0.061,0.632,0.15C5.903,117.098,6.095,117.223,6.269,117.383z M5.736,119.038c0-0.256-0.059-0.465-0.178-0.629
			s-0.298-0.275-0.54-0.336c-0.127-0.018-0.39-0.039-0.786-0.061c-0.396-0.023-0.857-0.035-1.381-0.035
			c-0.492,0.096-0.842,0.258-1.049,0.482c-0.208,0.227-0.311,0.516-0.311,0.871c0,0.16,0.034,0.313,0.103,0.459
			c0.068,0.145,0.187,0.279,0.355,0.402c0.16,0.119,0.374,0.217,0.643,0.291c0.269,0.076,0.597,0.113,0.984,0.113
			c0.67,0,1.197-0.129,1.583-0.387S5.736,119.561,5.736,119.038z M4.423,113.383c0-0.533-0.108-0.957-0.325-1.273
			c-0.216-0.318-0.521-0.477-0.913-0.477c-0.214,0-0.397,0.045-0.55,0.135c-0.153,0.088-0.277,0.215-0.373,0.379
			c-0.091,0.15-0.156,0.332-0.195,0.543c-0.039,0.213-0.058,0.43-0.058,0.652c0,0.506,0.11,0.918,0.332,1.238
			c0.221,0.318,0.507,0.479,0.858,0.479c0.392,0,0.694-0.158,0.906-0.475C4.317,114.266,4.423,113.868,4.423,113.383z"/>
		<path fill="#FFFFFF" d="M12.783,112.208c0,0.232-0.057,0.439-0.171,0.619s-0.29,0.27-0.526,0.27c-0.255,0-0.45-0.066-0.584-0.197
			c-0.134-0.133-0.202-0.279-0.202-0.438c0-0.102,0.008-0.191,0.024-0.273s0.031-0.164,0.044-0.246c-0.214,0-0.465,0.086-0.752,0.26
			c-0.287,0.172-0.531,0.418-0.731,0.738v3.924c0,0.158,0.031,0.289,0.092,0.389c0.062,0.102,0.158,0.176,0.291,0.227
			c0.114,0.045,0.261,0.08,0.441,0.102c0.18,0.023,0.336,0.039,0.468,0.049v0.451H7.622v-0.451c0.105-0.01,0.213-0.02,0.325-0.027
			c0.112-0.01,0.208-0.027,0.291-0.055c0.127-0.041,0.222-0.113,0.284-0.215c0.062-0.104,0.092-0.236,0.092-0.4v-4.158
			c0-0.141-0.033-0.279-0.099-0.416s-0.158-0.246-0.277-0.328c-0.086-0.055-0.189-0.094-0.308-0.119s-0.246-0.043-0.383-0.051
			v-0.451l2.242-0.15l0.096,0.096v0.949h0.034c0.283-0.369,0.597-0.648,0.943-0.84s0.663-0.287,0.95-0.287s0.521,0.094,0.701,0.279
			C12.694,111.643,12.783,111.893,12.783,112.208z"/>
		<path fill="#FFFFFF" d="M19.742,117.958c-0.214,0.076-0.402,0.141-0.564,0.188c-0.162,0.049-0.345,0.072-0.55,0.072
			c-0.355,0-0.639-0.084-0.851-0.25s-0.348-0.408-0.407-0.729h-0.041c-0.296,0.328-0.614,0.58-0.954,0.752
			c-0.339,0.174-0.749,0.26-1.227,0.26c-0.506,0-0.922-0.154-1.248-0.465c-0.326-0.309-0.489-0.715-0.489-1.217
			c0-0.26,0.037-0.492,0.109-0.697s0.182-0.389,0.328-0.553c0.114-0.137,0.264-0.26,0.451-0.365
			c0.187-0.107,0.362-0.193,0.526-0.258c0.205-0.076,0.621-0.221,1.248-0.43c0.626-0.211,1.049-0.375,1.268-0.492v-0.678
			c0-0.059-0.013-0.172-0.038-0.342c-0.025-0.168-0.079-0.328-0.161-0.479c-0.091-0.168-0.22-0.314-0.386-0.439
			c-0.167-0.127-0.402-0.189-0.708-0.189c-0.209,0-0.404,0.035-0.584,0.107c-0.18,0.07-0.307,0.145-0.379,0.221
			c0,0.092,0.021,0.227,0.065,0.404s0.065,0.342,0.065,0.492c0,0.158-0.072,0.305-0.215,0.438c-0.144,0.131-0.343,0.197-0.598,0.197
			c-0.228,0-0.396-0.08-0.502-0.242s-0.161-0.344-0.161-0.543c0-0.211,0.074-0.41,0.222-0.602s0.341-0.363,0.578-0.514
			c0.205-0.127,0.454-0.234,0.745-0.324c0.292-0.088,0.577-0.133,0.854-0.133c0.383,0,0.717,0.025,1.001,0.078
			s0.543,0.166,0.776,0.338c0.232,0.17,0.409,0.398,0.53,0.688s0.181,0.662,0.181,1.117c0,0.652-0.007,1.23-0.021,1.734
			c-0.014,0.502-0.021,1.053-0.021,1.65c0,0.178,0.031,0.318,0.092,0.424c0.062,0.104,0.156,0.193,0.284,0.266
			c0.068,0.041,0.177,0.064,0.325,0.068c0.148,0.006,0.3,0.008,0.455,0.008V117.958z M17.357,114.348
			c-0.387,0.113-0.727,0.227-1.019,0.336s-0.563,0.246-0.813,0.41c-0.228,0.156-0.408,0.34-0.54,0.551
			c-0.132,0.213-0.198,0.465-0.198,0.758c0,0.379,0.099,0.658,0.297,0.836s0.45,0.268,0.755,0.268c0.324,0,0.608-0.08,0.854-0.236
			c0.246-0.158,0.454-0.344,0.622-0.559L17.357,114.348z"/>
		<path fill="#FFFFFF" d="M24.863,114.778c0.187,0.164,0.331,0.354,0.431,0.568c0.1,0.213,0.15,0.477,0.15,0.785
			c0,0.625-0.233,1.135-0.701,1.531s-1.072,0.596-1.815,0.596c-0.392,0-0.753-0.07-1.083-0.213
			c-0.331-0.141-0.566-0.271-0.708-0.389L21,118.1h-0.513l-0.068-2.344h0.472c0.037,0.178,0.114,0.387,0.232,0.623
			c0.119,0.238,0.262,0.453,0.431,0.645c0.178,0.203,0.391,0.371,0.639,0.508c0.249,0.139,0.527,0.207,0.837,0.207
			c0.438,0,0.775-0.1,1.012-0.299s0.355-0.486,0.355-0.857c0-0.191-0.038-0.355-0.113-0.494c-0.075-0.141-0.186-0.262-0.332-0.367
			c-0.15-0.104-0.335-0.199-0.554-0.283s-0.462-0.168-0.731-0.25c-0.214-0.063-0.452-0.15-0.714-0.262
			c-0.262-0.113-0.486-0.244-0.673-0.395c-0.201-0.158-0.365-0.355-0.492-0.588s-0.191-0.506-0.191-0.82
			c0-0.551,0.205-1.018,0.615-1.4s0.959-0.574,1.647-0.574c0.264,0,0.534,0.033,0.81,0.102s0.5,0.15,0.673,0.246l0.157-0.355h0.492
			l0.103,2.168h-0.472c-0.096-0.486-0.302-0.881-0.619-1.186c-0.317-0.303-0.703-0.455-1.159-0.455
			c-0.374,0-0.667,0.094-0.882,0.281c-0.214,0.189-0.321,0.416-0.321,0.682c0,0.205,0.035,0.377,0.106,0.514
			s0.177,0.252,0.318,0.348c0.137,0.092,0.309,0.178,0.516,0.258c0.208,0.078,0.464,0.168,0.769,0.27
			c0.301,0.096,0.584,0.207,0.851,0.334C24.469,114.483,24.689,114.624,24.863,114.778z"/>
		<path fill="#FFFFFF" d="M30.912,114.778c0.187,0.164,0.331,0.354,0.431,0.568c0.1,0.213,0.15,0.477,0.15,0.785
			c0,0.625-0.233,1.135-0.701,1.531s-1.072,0.596-1.815,0.596c-0.392,0-0.753-0.07-1.083-0.213
			c-0.331-0.141-0.566-0.271-0.708-0.389L27.05,118.1h-0.513l-0.068-2.344h0.472c0.037,0.178,0.114,0.387,0.232,0.623
			c0.119,0.238,0.262,0.453,0.431,0.645c0.178,0.203,0.391,0.371,0.639,0.508c0.249,0.139,0.527,0.207,0.837,0.207
			c0.438,0,0.775-0.1,1.012-0.299s0.355-0.486,0.355-0.857c0-0.191-0.038-0.355-0.113-0.494c-0.075-0.141-0.186-0.262-0.332-0.367
			c-0.15-0.104-0.335-0.199-0.554-0.283s-0.462-0.168-0.731-0.25c-0.214-0.063-0.452-0.15-0.714-0.262
			c-0.262-0.113-0.486-0.244-0.673-0.395c-0.201-0.158-0.365-0.355-0.492-0.588s-0.191-0.506-0.191-0.82
			c0-0.551,0.205-1.018,0.615-1.4s0.959-0.574,1.647-0.574c0.264,0,0.534,0.033,0.81,0.102s0.5,0.15,0.673,0.246l0.157-0.355h0.492
			l0.103,2.168h-0.472c-0.096-0.486-0.302-0.881-0.619-1.186c-0.317-0.303-0.703-0.455-1.159-0.455
			c-0.374,0-0.667,0.094-0.882,0.281c-0.214,0.189-0.321,0.416-0.321,0.682c0,0.205,0.035,0.377,0.106,0.514
			s0.177,0.252,0.318,0.348c0.137,0.092,0.309,0.178,0.516,0.258c0.208,0.078,0.464,0.168,0.769,0.27
			c0.301,0.096,0.584,0.207,0.851,0.334C30.519,114.483,30.739,114.624,30.912,114.778z"/>
		<path fill="#FFFFFF" d="M35.67,118.081h-3.288v-0.451c0.104-0.01,0.217-0.02,0.335-0.031s0.217-0.029,0.294-0.051
			c0.128-0.041,0.224-0.113,0.287-0.217c0.063-0.102,0.096-0.234,0.096-0.4v-7.811c0-0.164-0.035-0.318-0.106-0.463
			c-0.07-0.143-0.162-0.256-0.276-0.338c-0.082-0.055-0.232-0.105-0.451-0.15c-0.219-0.047-0.395-0.074-0.526-0.082v-0.438
			l2.536-0.15l0.096,0.102v9.25c0,0.158,0.029,0.291,0.089,0.393c0.06,0.104,0.155,0.182,0.287,0.236
			c0.101,0.045,0.199,0.08,0.297,0.102c0.099,0.023,0.209,0.039,0.332,0.049V118.081z"/>
		<path fill="#FFFFFF" d="M42.903,117.958c-0.214,0.076-0.402,0.141-0.564,0.188c-0.161,0.049-0.345,0.072-0.55,0.072
			c-0.355,0-0.64-0.084-0.851-0.25c-0.213-0.166-0.348-0.408-0.407-0.729H40.49c-0.296,0.328-0.614,0.58-0.954,0.752
			c-0.339,0.174-0.748,0.26-1.227,0.26c-0.506,0-0.922-0.154-1.248-0.465c-0.325-0.309-0.488-0.715-0.488-1.217
			c0-0.26,0.036-0.492,0.109-0.697s0.183-0.389,0.328-0.553c0.114-0.137,0.265-0.26,0.451-0.365
			c0.187-0.107,0.362-0.193,0.526-0.258c0.205-0.076,0.621-0.221,1.247-0.43c0.627-0.211,1.05-0.375,1.269-0.492v-0.678
			c0-0.059-0.013-0.172-0.038-0.342c-0.024-0.168-0.078-0.328-0.16-0.479c-0.091-0.168-0.22-0.314-0.387-0.439
			c-0.166-0.127-0.401-0.189-0.707-0.189c-0.21,0-0.404,0.035-0.584,0.107c-0.181,0.07-0.307,0.145-0.38,0.221
			c0,0.092,0.021,0.227,0.065,0.404c0.043,0.178,0.064,0.342,0.064,0.492c0,0.158-0.072,0.305-0.215,0.438
			c-0.145,0.131-0.344,0.197-0.599,0.197c-0.228,0-0.396-0.08-0.503-0.242c-0.106-0.162-0.16-0.344-0.16-0.543
			c0-0.211,0.074-0.41,0.223-0.602c0.147-0.191,0.34-0.363,0.577-0.514c0.205-0.127,0.453-0.234,0.745-0.324
			c0.292-0.088,0.576-0.133,0.854-0.133c0.383,0,0.717,0.025,1.001,0.078c0.285,0.053,0.544,0.166,0.776,0.338
			c0.232,0.17,0.409,0.398,0.53,0.688c0.12,0.289,0.181,0.662,0.181,1.117c0,0.652-0.007,1.23-0.021,1.734
			c-0.014,0.502-0.021,1.053-0.021,1.65c0,0.178,0.03,0.318,0.093,0.424c0.061,0.104,0.155,0.193,0.283,0.266
			c0.068,0.041,0.177,0.064,0.324,0.068c0.148,0.006,0.3,0.008,0.455,0.008V117.958z M40.517,114.348
			c-0.388,0.113-0.727,0.227-1.019,0.336s-0.563,0.246-0.813,0.41c-0.228,0.156-0.408,0.34-0.54,0.551
			c-0.132,0.213-0.198,0.465-0.198,0.758c0,0.379,0.099,0.658,0.298,0.836c0.197,0.178,0.449,0.268,0.755,0.268
			c0.323,0,0.608-0.08,0.854-0.236c0.246-0.158,0.453-0.344,0.622-0.559L40.517,114.348z"/>
		<path fill="#FFFFFF" d="M51.017,118.081h-3.295v-0.451c0.104-0.01,0.22-0.02,0.345-0.027c0.126-0.01,0.229-0.027,0.312-0.055
			c0.128-0.041,0.222-0.113,0.284-0.215c0.061-0.104,0.092-0.236,0.092-0.4v-3.467c0-0.479-0.113-0.848-0.339-1.107
			c-0.227-0.26-0.502-0.389-0.826-0.389c-0.242,0-0.464,0.037-0.664,0.113c-0.201,0.074-0.38,0.166-0.535,0.275
			c-0.15,0.105-0.271,0.219-0.359,0.34c-0.089,0.119-0.154,0.217-0.195,0.289v3.877c0,0.154,0.032,0.281,0.096,0.383
			c0.063,0.1,0.159,0.178,0.287,0.232c0.096,0.045,0.199,0.08,0.312,0.102c0.111,0.023,0.227,0.039,0.345,0.049v0.451h-3.302v-0.451
			c0.104-0.01,0.213-0.02,0.324-0.027c0.112-0.01,0.209-0.027,0.291-0.055c0.128-0.041,0.223-0.113,0.283-0.215
			c0.063-0.104,0.093-0.236,0.093-0.4v-4.158c0-0.154-0.033-0.297-0.099-0.426c-0.066-0.131-0.159-0.236-0.277-0.318
			c-0.087-0.055-0.189-0.094-0.308-0.119s-0.246-0.043-0.383-0.051v-0.451l2.242-0.15l0.096,0.096v0.949h0.034
			c0.109-0.109,0.246-0.24,0.41-0.393s0.319-0.277,0.465-0.373c0.169-0.109,0.369-0.199,0.602-0.273
			c0.232-0.072,0.494-0.109,0.786-0.109c0.647,0,1.127,0.203,1.438,0.605c0.313,0.404,0.469,0.939,0.469,1.609v3.508
			c0,0.158,0.027,0.287,0.082,0.387c0.055,0.098,0.148,0.174,0.28,0.229c0.109,0.045,0.204,0.076,0.284,0.096
			c0.079,0.018,0.189,0.031,0.331,0.041V118.081z"/>
		<path fill="#FFFFFF" d="M59.227,117.958l-2.358,0.15l-0.103-0.096v-0.629l-0.055-0.014c-0.236,0.264-0.529,0.48-0.877,0.648
			c-0.349,0.17-0.707,0.254-1.075,0.254c-0.383,0-0.752-0.086-1.109-0.256c-0.357-0.172-0.668-0.412-0.932-0.723
			c-0.269-0.314-0.481-0.691-0.639-1.135c-0.157-0.441-0.235-0.93-0.235-1.463c0-0.486,0.084-0.949,0.253-1.387
			c0.168-0.438,0.4-0.82,0.696-1.148c0.277-0.307,0.617-0.549,1.021-0.732c0.402-0.182,0.813-0.273,1.231-0.273
			c0.314,0,0.623,0.041,0.926,0.121c0.302,0.078,0.563,0.18,0.781,0.303v-2.35c0-0.191-0.032-0.365-0.096-0.523
			s-0.152-0.277-0.267-0.359c-0.128-0.086-0.3-0.148-0.517-0.188c-0.216-0.039-0.449-0.068-0.7-0.086v-0.424l2.762-0.15l0.103,0.102
			v9.086c0,0.16,0.031,0.295,0.092,0.406c0.063,0.111,0.152,0.207,0.271,0.283c0.087,0.055,0.212,0.09,0.376,0.104
			s0.314,0.021,0.451,0.027V117.958z M56.752,116.774v-3.943c-0.036-0.119-0.096-0.246-0.178-0.383
			c-0.081-0.137-0.184-0.262-0.307-0.377c-0.132-0.113-0.286-0.207-0.464-0.283c-0.178-0.074-0.385-0.113-0.621-0.113
			c-0.272,0-0.524,0.07-0.754,0.213c-0.229,0.141-0.434,0.344-0.61,0.607c-0.168,0.256-0.302,0.58-0.399,0.975
			s-0.146,0.83-0.146,1.309c0,0.383,0.036,0.73,0.109,1.043c0.072,0.313,0.195,0.604,0.368,0.871
			c0.159,0.256,0.362,0.461,0.61,0.615c0.248,0.156,0.543,0.232,0.884,0.232c0.364,0,0.665-0.08,0.904-0.238
			C56.387,117.141,56.588,116.965,56.752,116.774z"/>
		<path fill="#FFFFFF" d="M64.333,114.778c0.187,0.164,0.33,0.354,0.431,0.568c0.101,0.213,0.15,0.477,0.15,0.785
			c0,0.625-0.233,1.135-0.701,1.531c-0.467,0.396-1.071,0.596-1.814,0.596c-0.392,0-0.753-0.07-1.084-0.213
			c-0.33-0.141-0.565-0.271-0.707-0.389l-0.137,0.443h-0.513l-0.068-2.344h0.472c0.036,0.178,0.114,0.387,0.232,0.623
			c0.118,0.238,0.262,0.453,0.431,0.645c0.178,0.203,0.391,0.371,0.64,0.508c0.248,0.139,0.527,0.207,0.837,0.207
			c0.438,0,0.774-0.1,1.012-0.299s0.355-0.486,0.355-0.857c0-0.191-0.038-0.355-0.112-0.494c-0.076-0.141-0.187-0.262-0.332-0.367
			c-0.15-0.104-0.335-0.199-0.554-0.283s-0.463-0.168-0.731-0.25c-0.214-0.063-0.452-0.15-0.715-0.262
			c-0.262-0.113-0.486-0.244-0.673-0.395c-0.2-0.158-0.364-0.355-0.492-0.588s-0.191-0.506-0.191-0.82
			c0-0.551,0.205-1.018,0.615-1.4s0.959-0.574,1.647-0.574c0.265,0,0.534,0.033,0.811,0.102c0.275,0.068,0.5,0.15,0.673,0.246
			l0.157-0.355h0.492l0.103,2.168h-0.472c-0.096-0.486-0.302-0.881-0.619-1.186c-0.316-0.303-0.702-0.455-1.158-0.455
			c-0.374,0-0.668,0.094-0.882,0.281c-0.214,0.189-0.321,0.416-0.321,0.682c0,0.205,0.035,0.377,0.105,0.514
			c0.071,0.137,0.177,0.252,0.318,0.348c0.137,0.092,0.309,0.178,0.516,0.258c0.208,0.078,0.464,0.168,0.77,0.27
			c0.301,0.096,0.584,0.207,0.852,0.334C63.94,114.483,64.16,114.624,64.333,114.778z"/>
		<path fill="#FFFFFF" d="M80.842,118.081h-3.281v-0.451c0.104-0.01,0.211-0.02,0.317-0.027c0.107-0.01,0.202-0.027,0.284-0.055
			c0.128-0.041,0.222-0.113,0.284-0.215c0.061-0.104,0.092-0.236,0.092-0.4v-3.48c0-0.473-0.108-0.84-0.324-1.096
			c-0.217-0.258-0.487-0.387-0.811-0.387c-0.224,0-0.433,0.033-0.629,0.102s-0.376,0.164-0.54,0.287
			c-0.132,0.102-0.243,0.209-0.331,0.326c-0.09,0.115-0.156,0.213-0.202,0.289v3.891c0,0.158,0.027,0.291,0.082,0.393
			c0.055,0.104,0.148,0.182,0.28,0.236c0.104,0.041,0.199,0.072,0.283,0.092c0.085,0.021,0.195,0.035,0.332,0.045v0.451h-3.213
			v-0.451c0.104-0.01,0.206-0.02,0.305-0.027c0.098-0.01,0.188-0.027,0.27-0.055c0.128-0.041,0.223-0.113,0.283-0.215
			c0.063-0.104,0.093-0.236,0.093-0.4v-3.48c0-0.473-0.108-0.84-0.325-1.096c-0.218-0.258-0.488-0.387-0.813-0.387
			c-0.224,0-0.434,0.035-0.63,0.105c-0.197,0.07-0.377,0.168-0.542,0.291c-0.132,0.1-0.244,0.213-0.335,0.338
			c-0.092,0.125-0.16,0.221-0.206,0.283v3.863c0,0.154,0.032,0.285,0.096,0.389c0.063,0.105,0.159,0.186,0.287,0.24
			c0.096,0.045,0.193,0.08,0.294,0.102c0.101,0.023,0.212,0.039,0.335,0.049v0.451h-3.274v-0.451c0.104-0.01,0.213-0.02,0.325-0.027
			c0.111-0.01,0.208-0.027,0.29-0.055c0.128-0.041,0.222-0.113,0.284-0.215c0.061-0.104,0.092-0.236,0.092-0.4v-4.186
			c0-0.145-0.033-0.275-0.1-0.393c-0.065-0.115-0.158-0.215-0.276-0.297c-0.087-0.055-0.193-0.098-0.321-0.133
			c-0.128-0.033-0.26-0.057-0.396-0.064v-0.451l2.256-0.15l0.096,0.096v0.963H71.6c0.114-0.113,0.253-0.248,0.417-0.402
			c0.164-0.156,0.316-0.281,0.458-0.377c0.159-0.109,0.358-0.199,0.599-0.273c0.238-0.072,0.497-0.109,0.775-0.109
			c0.438,0,0.813,0.117,1.128,0.354c0.314,0.234,0.54,0.518,0.677,0.85c0.164-0.158,0.309-0.299,0.434-0.42s0.29-0.25,0.494-0.387
			c0.173-0.117,0.377-0.213,0.611-0.287c0.234-0.072,0.494-0.109,0.781-0.109c0.568,0,1.02,0.188,1.352,0.561
			c0.332,0.375,0.498,0.949,0.498,1.723v3.426c0,0.158,0.027,0.291,0.082,0.393c0.055,0.104,0.148,0.182,0.28,0.236
			c0.104,0.041,0.208,0.072,0.312,0.092c0.102,0.021,0.217,0.035,0.345,0.045V118.081z"/>
		<path fill="#FFFFFF" d="M88.027,117.958c-0.214,0.076-0.402,0.141-0.564,0.188c-0.161,0.049-0.345,0.072-0.55,0.072
			c-0.355,0-0.64-0.084-0.851-0.25c-0.213-0.166-0.348-0.408-0.407-0.729h-0.041c-0.296,0.328-0.614,0.58-0.954,0.752
			c-0.339,0.174-0.748,0.26-1.227,0.26c-0.506,0-0.922-0.154-1.248-0.465c-0.325-0.309-0.488-0.715-0.488-1.217
			c0-0.26,0.036-0.492,0.109-0.697s0.183-0.389,0.328-0.553c0.114-0.137,0.265-0.26,0.451-0.365
			c0.187-0.107,0.362-0.193,0.526-0.258c0.205-0.076,0.621-0.221,1.247-0.43c0.627-0.211,1.05-0.375,1.269-0.492v-0.678
			c0-0.059-0.013-0.172-0.038-0.342c-0.024-0.168-0.078-0.328-0.16-0.479c-0.091-0.168-0.22-0.314-0.387-0.439
			c-0.166-0.127-0.401-0.189-0.707-0.189c-0.21,0-0.404,0.035-0.584,0.107c-0.181,0.07-0.307,0.145-0.38,0.221
			c0,0.092,0.021,0.227,0.065,0.404c0.043,0.178,0.064,0.342,0.064,0.492c0,0.158-0.072,0.305-0.215,0.438
			c-0.145,0.131-0.344,0.197-0.599,0.197c-0.228,0-0.396-0.08-0.503-0.242c-0.106-0.162-0.16-0.344-0.16-0.543
			c0-0.211,0.074-0.41,0.223-0.602c0.147-0.191,0.34-0.363,0.577-0.514c0.205-0.127,0.453-0.234,0.745-0.324
			c0.292-0.088,0.576-0.133,0.854-0.133c0.383,0,0.717,0.025,1.001,0.078c0.285,0.053,0.544,0.166,0.776,0.338
			c0.232,0.17,0.409,0.398,0.53,0.688c0.12,0.289,0.181,0.662,0.181,1.117c0,0.652-0.007,1.23-0.021,1.734
			c-0.014,0.502-0.021,1.053-0.021,1.65c0,0.178,0.03,0.318,0.093,0.424c0.061,0.104,0.155,0.193,0.283,0.266
			c0.068,0.041,0.177,0.064,0.324,0.068c0.148,0.006,0.3,0.008,0.455,0.008V117.958z M85.641,114.348
			c-0.388,0.113-0.727,0.227-1.019,0.336s-0.563,0.246-0.813,0.41c-0.228,0.156-0.408,0.34-0.54,0.551
			c-0.132,0.213-0.198,0.465-0.198,0.758c0,0.379,0.099,0.658,0.298,0.836c0.197,0.178,0.449,0.268,0.755,0.268
			c0.323,0,0.608-0.08,0.854-0.236c0.246-0.158,0.453-0.344,0.622-0.559L85.641,114.348z"/>
		<path fill="#FFFFFF" d="M96.141,118.081h-3.295v-0.451c0.104-0.01,0.22-0.02,0.345-0.027c0.126-0.01,0.229-0.027,0.312-0.055
			c0.128-0.041,0.222-0.113,0.284-0.215c0.061-0.104,0.092-0.236,0.092-0.4v-3.467c0-0.479-0.113-0.848-0.339-1.107
			c-0.227-0.26-0.502-0.389-0.826-0.389c-0.242,0-0.464,0.037-0.664,0.113c-0.201,0.074-0.38,0.166-0.535,0.275
			c-0.15,0.105-0.271,0.219-0.359,0.34c-0.089,0.119-0.154,0.217-0.195,0.289v3.877c0,0.154,0.032,0.281,0.096,0.383
			c0.063,0.1,0.159,0.178,0.287,0.232c0.096,0.045,0.199,0.08,0.312,0.102c0.111,0.023,0.227,0.039,0.345,0.049v0.451h-3.302v-0.451
			c0.104-0.01,0.213-0.02,0.324-0.027c0.112-0.01,0.209-0.027,0.291-0.055c0.128-0.041,0.223-0.113,0.283-0.215
			c0.063-0.104,0.093-0.236,0.093-0.4v-4.158c0-0.154-0.033-0.297-0.099-0.426c-0.066-0.131-0.159-0.236-0.277-0.318
			c-0.087-0.055-0.189-0.094-0.308-0.119s-0.246-0.043-0.383-0.051v-0.451l2.242-0.15l0.096,0.096v0.949h0.034
			c0.109-0.109,0.246-0.24,0.41-0.393s0.319-0.277,0.465-0.373c0.169-0.109,0.369-0.199,0.602-0.273
			c0.232-0.072,0.494-0.109,0.786-0.109c0.647,0,1.127,0.203,1.438,0.605c0.313,0.404,0.469,0.939,0.469,1.609v3.508
			c0,0.158,0.027,0.287,0.082,0.387c0.055,0.098,0.148,0.174,0.28,0.229c0.109,0.045,0.204,0.076,0.284,0.096
			c0.079,0.018,0.189,0.031,0.331,0.041V118.081z"/>
		<path fill="#FFFFFF" d="M103.353,117.958c-0.214,0.076-0.402,0.141-0.564,0.188c-0.161,0.049-0.345,0.072-0.55,0.072
			c-0.355,0-0.64-0.084-0.851-0.25c-0.213-0.166-0.348-0.408-0.407-0.729h-0.041c-0.296,0.328-0.614,0.58-0.954,0.752
			c-0.339,0.174-0.748,0.26-1.227,0.26c-0.506,0-0.922-0.154-1.248-0.465c-0.325-0.309-0.488-0.715-0.488-1.217
			c0-0.26,0.036-0.492,0.109-0.697s0.183-0.389,0.328-0.553c0.114-0.137,0.265-0.26,0.451-0.365
			c0.187-0.107,0.362-0.193,0.526-0.258c0.205-0.076,0.621-0.221,1.247-0.43c0.627-0.211,1.05-0.375,1.269-0.492v-0.678
			c0-0.059-0.013-0.172-0.038-0.342c-0.024-0.168-0.078-0.328-0.16-0.479c-0.091-0.168-0.22-0.314-0.387-0.439
			c-0.166-0.127-0.401-0.189-0.707-0.189c-0.21,0-0.404,0.035-0.584,0.107c-0.181,0.07-0.307,0.145-0.38,0.221
			c0,0.092,0.021,0.227,0.065,0.404c0.043,0.178,0.064,0.342,0.064,0.492c0,0.158-0.072,0.305-0.215,0.438
			c-0.145,0.131-0.344,0.197-0.599,0.197c-0.228,0-0.396-0.08-0.503-0.242c-0.106-0.162-0.16-0.344-0.16-0.543
			c0-0.211,0.074-0.41,0.223-0.602c0.147-0.191,0.34-0.363,0.577-0.514c0.205-0.127,0.453-0.234,0.745-0.324
			c0.292-0.088,0.576-0.133,0.854-0.133c0.383,0,0.717,0.025,1.001,0.078c0.285,0.053,0.544,0.166,0.776,0.338
			c0.232,0.17,0.409,0.398,0.53,0.688c0.12,0.289,0.181,0.662,0.181,1.117c0,0.652-0.007,1.23-0.021,1.734
			c-0.014,0.502-0.021,1.053-0.021,1.65c0,0.178,0.03,0.318,0.093,0.424c0.061,0.104,0.155,0.193,0.283,0.266
			c0.068,0.041,0.177,0.064,0.324,0.068c0.148,0.006,0.3,0.008,0.455,0.008V117.958z M100.967,114.348
			c-0.388,0.113-0.727,0.227-1.019,0.336s-0.563,0.246-0.813,0.41c-0.228,0.156-0.408,0.34-0.54,0.551
			c-0.132,0.213-0.198,0.465-0.198,0.758c0,0.379,0.099,0.658,0.298,0.836c0.197,0.178,0.449,0.268,0.755,0.268
			c0.323,0,0.608-0.08,0.854-0.236c0.246-0.158,0.453-0.344,0.622-0.559L100.967,114.348z"/>
		<path fill="#FFFFFF" d="M109.799,117.383c0.183,0.172,0.326,0.369,0.431,0.588s0.157,0.49,0.157,0.813
			c0,0.324-0.07,0.629-0.212,0.914c-0.142,0.283-0.355,0.531-0.643,0.74c-0.306,0.215-0.67,0.381-1.094,0.5
			c-0.424,0.117-0.948,0.178-1.572,0.178c-1.021,0-1.784-0.15-2.29-0.447c-0.506-0.299-0.759-0.736-0.759-1.311
			c0-0.465,0.183-0.832,0.547-1.1c0.364-0.27,0.829-0.416,1.395-0.438v-0.096c-0.137-0.041-0.278-0.092-0.424-0.154
			c-0.146-0.061-0.271-0.133-0.376-0.215c-0.118-0.096-0.214-0.209-0.287-0.338c-0.073-0.131-0.109-0.291-0.109-0.482
			c0-0.242,0.085-0.465,0.257-0.666c0.17-0.203,0.429-0.379,0.775-0.523v-0.104c-0.438-0.205-0.777-0.467-1.019-0.789
			c-0.241-0.32-0.362-0.693-0.362-1.117c0-0.639,0.238-1.162,0.715-1.572c0.476-0.41,1.085-0.615,1.828-0.615
			c0.205,0,0.409,0.02,0.611,0.061c0.203,0.041,0.409,0.094,0.619,0.158h2.352v0.656h-1.586v0.041
			c0.169,0.195,0.294,0.412,0.376,0.648c0.082,0.238,0.123,0.471,0.123,0.697c0,0.594-0.24,1.094-0.722,1.504
			c-0.48,0.41-1.04,0.615-1.678,0.615h-0.827c-0.104,0.037-0.214,0.104-0.328,0.199s-0.171,0.225-0.171,0.389
			c0,0.17,0.048,0.299,0.144,0.387c0.096,0.09,0.212,0.148,0.349,0.182c0.132,0.035,0.286,0.059,0.461,0.068
			c0.176,0.008,0.357,0.016,0.544,0.02c0.2,0.006,0.476,0.02,0.823,0.041c0.35,0.023,0.597,0.037,0.742,0.041
			c0.21,0.01,0.42,0.061,0.633,0.15C109.433,117.098,109.626,117.223,109.799,117.383z M109.266,119.038
			c0-0.256-0.06-0.465-0.178-0.629s-0.299-0.275-0.54-0.336c-0.128-0.018-0.39-0.039-0.786-0.061
			c-0.396-0.023-0.856-0.035-1.381-0.035c-0.492,0.096-0.842,0.258-1.05,0.482c-0.207,0.227-0.311,0.516-0.311,0.871
			c0,0.16,0.034,0.313,0.103,0.459c0.068,0.145,0.187,0.279,0.355,0.402c0.159,0.119,0.374,0.217,0.643,0.291
			c0.269,0.076,0.597,0.113,0.984,0.113c0.67,0,1.197-0.129,1.583-0.387C109.073,119.952,109.266,119.561,109.266,119.038z
			 M107.953,113.383c0-0.533-0.108-0.957-0.325-1.273c-0.216-0.318-0.521-0.477-0.912-0.477c-0.214,0-0.397,0.045-0.551,0.135
			c-0.152,0.088-0.276,0.215-0.372,0.379c-0.091,0.15-0.156,0.332-0.194,0.543c-0.039,0.213-0.059,0.43-0.059,0.652
			c0,0.506,0.11,0.918,0.332,1.238c0.221,0.318,0.507,0.479,0.857,0.479c0.392,0,0.693-0.158,0.906-0.475
			C107.847,114.266,107.953,113.868,107.953,113.383z"/>
		<path fill="#FFFFFF" d="M117.141,116.495c-0.282,0.537-0.661,0.965-1.135,1.285c-0.474,0.318-1.019,0.479-1.634,0.479
			c-0.542,0-1.018-0.096-1.425-0.287c-0.408-0.191-0.744-0.451-1.009-0.779s-0.462-0.711-0.591-1.148
			c-0.131-0.438-0.195-0.9-0.195-1.389c0-0.438,0.069-0.867,0.209-1.287c0.139-0.422,0.343-0.803,0.611-1.139
			c0.26-0.324,0.582-0.584,0.967-0.783c0.386-0.197,0.817-0.297,1.296-0.297c0.492,0,0.914,0.076,1.265,0.232
			c0.351,0.154,0.636,0.367,0.854,0.635c0.21,0.256,0.366,0.557,0.468,0.902c0.104,0.348,0.154,0.723,0.154,1.129v0.451h-4.464
			c0,0.443,0.042,0.844,0.126,1.205c0.085,0.361,0.218,0.678,0.4,0.953c0.178,0.264,0.41,0.473,0.697,0.627
			c0.287,0.152,0.629,0.229,1.025,0.229c0.405,0,0.756-0.094,1.049-0.285c0.295-0.189,0.578-0.531,0.852-1.027L117.141,116.495z
			 M115.63,113.924c0-0.256-0.021-0.527-0.065-0.818c-0.043-0.291-0.112-0.533-0.208-0.729c-0.104-0.209-0.248-0.381-0.431-0.512
			c-0.183-0.133-0.417-0.197-0.704-0.197c-0.479,0-0.876,0.199-1.192,0.596c-0.317,0.398-0.489,0.951-0.517,1.66H115.63z"/>
		<path fill="#FFFFFF" d="M125.303,117.958l-2.358,0.15l-0.103-0.096v-0.629l-0.055-0.014c-0.236,0.264-0.529,0.48-0.877,0.648
			c-0.349,0.17-0.707,0.254-1.075,0.254c-0.383,0-0.752-0.086-1.109-0.256c-0.357-0.172-0.668-0.412-0.932-0.723
			c-0.269-0.314-0.481-0.691-0.639-1.135c-0.157-0.441-0.235-0.93-0.235-1.463c0-0.486,0.084-0.949,0.253-1.387
			c0.168-0.438,0.4-0.82,0.696-1.148c0.277-0.307,0.617-0.549,1.021-0.732c0.402-0.182,0.813-0.273,1.231-0.273
			c0.314,0,0.623,0.041,0.926,0.121c0.302,0.078,0.563,0.18,0.781,0.303v-2.35c0-0.191-0.032-0.365-0.096-0.523
			s-0.152-0.277-0.267-0.359c-0.128-0.086-0.3-0.148-0.517-0.188c-0.216-0.039-0.449-0.068-0.7-0.086v-0.424l2.762-0.15l0.103,0.102
			v9.086c0,0.16,0.031,0.295,0.092,0.406c0.063,0.111,0.152,0.207,0.271,0.283c0.087,0.055,0.212,0.09,0.376,0.104
			s0.314,0.021,0.451,0.027V117.958z M122.828,116.774v-3.943c-0.036-0.119-0.096-0.246-0.178-0.383
			c-0.081-0.137-0.184-0.262-0.307-0.377c-0.132-0.113-0.286-0.207-0.464-0.283c-0.178-0.074-0.385-0.113-0.621-0.113
			c-0.272,0-0.524,0.07-0.754,0.213c-0.229,0.141-0.434,0.344-0.61,0.607c-0.168,0.256-0.302,0.58-0.399,0.975
			s-0.146,0.83-0.146,1.309c0,0.383,0.036,0.73,0.109,1.043c0.072,0.313,0.195,0.604,0.368,0.871
			c0.159,0.256,0.362,0.461,0.61,0.615c0.248,0.156,0.543,0.232,0.884,0.232c0.364,0,0.665-0.08,0.904-0.238
			C122.463,117.141,122.664,116.965,122.828,116.774z"/>
	</g>
</g>
</svg>
