<?xml version="1.0" encoding="utf-8"?>
<!-- Generator: Adobe Illustrator 16.0.0, SVG Export Plug-In . SVG Version: 6.00 Build 0)  -->
<!DOCTYPE svg PUBLIC "-//W3C//DTD SVG 1.1//EN" "http://www.w3.org/Graphics/SVG/1.1/DTD/svg11.dtd">
<svg version="1.1" id="Layer_1" xmlns="http://www.w3.org/2000/svg" xmlns:xlink="http://www.w3.org/1999/xlink" x="0px" y="0px"
	 width="234.766px" height="129.133px" viewBox="0 0 234.766 129.133" enable-background="new 0 0 234.766 129.133"
	 xml:space="preserve">
<g>
	<g>
		<path fill="#FFFFFF" d="M163.325,29.407l7.961-1.053c0.004-0.151,0.023-0.298,0.023-0.451c0-8.964-5.2-21.98-14.164-21.98
			l-6.124,5.75c-6.329,0-11.797,3.63-14.475,8.915c-0.193-0.404-0.418-0.72-0.679-0.883c0,0,0.232,0.513,0.478,1.303
			c-0.097,0.204-0.203,0.402-0.29,0.61c-0.066-0.146-0.138-0.265-0.215-0.347c0,0,0.048,0.258,0.104,0.646
			c-0.119,0.298-0.231,0.6-0.332,0.906c-0.166-0.954-0.435-1.915-0.893-2.526c0,0,0.77,3.353,0.097,5.354
			c-0.031,0.075-0.052,0.18-0.097,0.27c0,0-0.012-0.133-0.027-0.27c-0.09-0.736-0.372-3.153-0.372-4.38c0,0-0.522,2.817-0.417,4.38
			h-0.013c-0.143-1.029-0.728-5.447-0.455-7.122c0,0-0.378,1.519-0.331,6.163c-0.06-0.906-0.241-2.117-0.775-2.804
			c0,0,0.579,2.624,0.114,3.763c-0.032,0.08-0.07,0.27-0.114,0.27c0,0-0.023-0.131-0.061-0.27c-0.2-0.742-0.806-3.235-0.471-5.132
			c0,0-0.684,1.27-0.493,5.132l0.009,0.27c-0.001,0-0.232-3.102-0.525-3.423c0,0,0.01,1.658-0.082,3.153
			c-0.004,0.073-0.008,0.27-0.013,0.27c0,0-0.007-0.131-0.021-0.27c-0.096-0.963-0.521-4.813-1.217-5.354
			c0,0,0.608,3.647,0.312,5.354c-0.015,0.076-0.028,0.27-0.045,0.27c0,0-0.041-0.134-0.107-0.27
			c-0.297-0.622-1.115-2.438-1.043-3.453c0,0-0.574,1.106-0.487,3.405c0,0-0.813-2.387-0.009-4.333c0,0-0.801,0.731-0.82,2.649
			c-0.182-1.51-0.525-3.588-1.115-4.418c0,0,0.973,3.494,0.575,5.97c0,0-1.031-1.878-0.575-2.831c0,0-0.618,0.576-0.442,2.874
			c0,0-0.884-1.679-0.221-4.244c0,0-0.629,1.202-0.628,3.207c-0.104-1.182-0.293-2.812-0.609-3.605c0,0,0.157,3.399-0.162,4.779
			c-0.018,0.079-0.038,0.27-0.061,0.27c0,0-0.031-0.131-0.078-0.27c-0.187-0.553-0.629-2.12-0.452-4.027c0,0-0.448,1.05-0.177,3.332
			c-0.228-1.354-0.742-3.813-1.593-4.569c0,0,1.33,2.949,1.05,5.264c-0.009,0.073-0.021,0.27-0.031,0.27c0,0-0.117-0.124-0.273-0.27
			c-0.418-0.39-1.13-1.325-0.743-2.966c0,0-0.571,1.07-0.339,2.966c0,0,0.019,0.221,0.021,0.236c-0.01-0.048-0.81-3.12-0.077-5.944
			c0,0-0.975,0.758-0.973,5.708v2.702h14.461L163.325,29.407z"/>
	</g>
	<g>
		<path fill="#FFFFFF" d="M232.697,94.79c-1.106-2.668-3.659-4.336-5.669-6.347c-2.01-2.01-3.965-3.873-6.632-4.979
			c-0.286-0.117-0.573-0.242-0.862-0.367c1.705-0.658,3.486-1.22,4.726-2.459c1.769-1.769,2.72-4.31,3.98-6.488
			c1.243-2.148,1.913-4.521,2.569-6.974c0.634-2.371,2.521-4.754,2.521-7.325c0,0,0.206,0.026-0.025-0.497
			c0-2.571-0.338-4.865-0.972-7.236c-0.656-2.453-1.846-4.999-3.089-7.146c-1.26-2.179-3.293-4.062-5.061-5.83
			c-1.769-1.768-3.548-3.981-5.727-5.241c-2.147-1.243-5.296-0.391-7.749-1.046c-2.371-0.634-4.664-2.791-7.234-2.791
			c-3.774,0-3.774,1.335-7.549,1.335c-3.773,0-3.773,0.123-7.548,0.123c-3.771,0-3.771-1.405-7.543-1.405
			c-3.768,0-3.768,0.833-7.536,0.833c-3.77,0-3.77,0.441-7.541,0.441c-3.769,0-3.769-0.739-7.539-0.739
			c-3.769,0-3.769-0.35-7.537-0.35c-3.77,0-3.77,0.186-7.538,0.186s-3.769,1.299-7.535,1.299c-3.771,0-3.771,0.734-7.54,0.734
			c-3.771,0-3.771-2.375-7.539-2.375c-2.571,0-4.938,1.799-7.31,2.432c-2.452,0.656-5.44,0.229-7.589,1.471
			c-2.179,1.26-4.072,3.295-5.841,5.063c-1.768,1.768-4.054,3.517-5.313,5.696c-1.243,2.148-0.775,5.225-1.431,7.678
			c-0.634,2.371-0.026,4.794-0.026,7.365h-1.394c0,2.571,0.272,5.131,0.906,7.501c0.656,2.453,0.843,5.312,2.086,7.459
			c1.26,2.179,3.135,4.278,4.903,6.047c1.768,1.768,4.306,2.886,6.484,4.146c2.148,1.243,4.765,1.453,7.218,2.107
			c2.37,0.635,4.734,2.248,7.306,2.248c3.773,0,3.773-1.741,7.548-1.741c3.239,0,3.704,0.573,6.155,0.737
			c-0.005,0.004-0.01,0.009-0.016,0.014c-2.01,2.01-3.948,3.977-5.055,6.645c-1.066,2.572-1.704,5.313-1.704,8.271h-0.785
			c0,2.959,1.845,5.523,2.911,8.097c1.106,2.668,1.48,5.951,3.49,7.962c2.01,2.01,5.327,2.305,7.994,3.411
			c2.573,1.067,5.104,3.095,8.064,3.095c3.943,0,3.943,0.025,7.887,0.025c3.942,0,3.942,0.255,7.886,0.255
			c3.94,0,3.94-1.922,7.881-1.922c3.942,0,3.942,0.996,7.883,0.996s3.94,0.587,7.881,0.587c3.939,0,3.939-1.143,7.88-1.143
			c3.938,0,3.938,0.494,7.878,0.494c3.938,0,3.938-0.439,7.878-0.439c2.959,0,5.988,0.32,8.562-0.747
			c2.668-1.106,4.24-3.847,6.251-5.858c2.01-2.01,3.79-3.981,4.896-6.649c1.066-2.573,1.696-5.204,1.696-8.164
			c0,0,1.146,0.315,1.175,0.106C234.765,100.434,233.764,97.363,232.697,94.79z M221.424,51.582c0.34,0.005,0.691,0.008,1.052,0.008
			v1.059c-0.366,0-0.723-0.003-1.068-0.008L221.424,51.582z M221.424,66.414c0.34,0.005,0.691,0.008,1.052,0.008v1.059
			c-0.366,0-0.723-0.002-1.068-0.008L221.424,66.414z M101.342,64.439c-0.34-0.006-0.69-0.008-1.051-0.008v-1.059
			c0.367,0,0.724,0.003,1.069,0.008L101.342,64.439z M101.342,49.607c-0.34-0.006-0.69-0.008-1.051-0.008V48.54
			c0.367,0,0.724,0.003,1.069,0.008L101.342,49.607z M105.411,64.651c-0.632-0.06-1.305-0.11-2.029-0.146l0.055-1.058
			c0.74,0.038,1.429,0.088,2.075,0.151L105.411,64.651z M105.411,49.819c-0.632-0.06-1.305-0.11-2.029-0.146l0.055-1.058
			c0.74,0.038,1.429,0.088,2.075,0.151L105.411,49.819z M206.64,42.374c0.646,0.109,1.301,0.192,2.003,0.255l-0.096,1.055
			c-0.727-0.065-1.408-0.152-2.084-0.265L206.64,42.374z M202.716,41.394c0.629,0.195,1.266,0.387,1.953,0.563l-0.263,1.026
			c-0.707-0.181-1.36-0.378-2.005-0.578L202.716,41.394z M200.97,48.604c0.739,0.035,1.428,0.082,2.071,0.141l-0.095,1.055
			c-0.63-0.057-1.304-0.104-2.027-0.138L200.97,48.604z M200.97,63.436c0.739,0.035,1.428,0.082,2.071,0.141l-0.095,1.055
			c-0.63-0.057-1.304-0.104-2.027-0.138L200.97,63.436z M198.695,40.281c0.664,0.137,1.312,0.298,2.039,0.507l-0.294,1.018
			c-0.699-0.201-1.322-0.356-1.958-0.487L198.695,40.281z M198.899,48.544l-0.015,1.059c-0.666-0.008-1.384-0.006-2.038,0.005
			l-0.02-1.059C197.492,48.537,198.22,48.535,198.899,48.544z M198.899,63.376l-0.015,1.059c-0.666-0.009-1.384-0.006-2.038,0.005
			l-0.02-1.059C197.492,63.37,198.22,63.367,198.899,63.376z M194.533,39.765c0.723,0.038,1.426,0.098,2.089,0.178l-0.128,1.052
			c-0.617-0.075-1.285-0.134-2.016-0.172L194.533,39.765z M194.755,48.622l0.057,1.058c-0.723,0.038-1.395,0.089-2.024,0.151
			l-0.103-1.054C193.328,48.714,194.016,48.661,194.755,48.622z M194.755,63.454l0.057,1.058c-0.723,0.038-1.395,0.089-2.024,0.151
			l-0.103-1.054C193.328,63.545,194.016,63.492,194.755,63.454z M192.384,39.711l0.061,1.059c-0.77,0-1.425,0.017-2.035,0.047
			l-0.052-1.058C190.985,39.728,191.657,39.711,192.384,39.711z M190.618,49.034l0.159,1.047c-0.711,0.109-1.368,0.23-1.993,0.36
			l-0.215-1.038C189.211,49.27,189.887,49.146,190.618,49.034z M190.618,63.865l0.159,1.047c-0.711,0.109-1.368,0.23-1.993,0.359
			l-0.215-1.038C189.211,64.102,189.887,63.977,190.618,63.865z M188.27,39.929l0.122,1.052c-0.689,0.081-1.342,0.184-1.991,0.314
			l-0.209-1.039C186.871,40.12,187.551,40.013,188.27,39.929z M186.55,49.866l0.252,1.029l-1.994,0.493l-0.248-1.029L186.55,49.866z
			 M186.55,64.698l0.252,1.028l-1.994,0.494l-0.248-1.029L186.55,64.698z M182.486,41.258c0.547-0.171,1.094-0.342,1.668-0.504
			l0.288,1.019c-0.564,0.159-1.102,0.328-1.64,0.496l-0.317,0.099l-0.314-1.012L182.486,41.258z M182.576,50.803l0.209,1.039
			c-0.641,0.128-1.318,0.248-2.051,0.354l-0.151-1.048C181.295,51.044,181.953,50.928,182.576,50.803z M182.576,65.635l0.209,1.039
			c-0.641,0.128-1.318,0.248-2.051,0.354l-0.151-1.047C181.295,65.876,181.953,65.76,182.576,65.635z M180.217,41.927l0.268,1.025
			c-0.701,0.182-1.373,0.328-2.055,0.446l-0.181-1.044C178.901,42.241,179.544,42.101,180.217,41.927z M179.362,77.95
			c-0.622,0.144-1.28,0.278-2.001,0.394l-0.168-1.046c0.694-0.112,1.329-0.241,1.928-0.38L179.362,77.95z M178.571,51.383
			l0.097,1.055c-0.646,0.059-1.334,0.108-2.071,0.143l-0.053-1.058C177.268,51.488,177.94,51.441,178.571,51.383z M178.571,66.214
			l0.097,1.056c-0.646,0.059-1.334,0.107-2.071,0.143l-0.053-1.059C177.268,66.32,177.94,66.271,178.571,66.214z M176.248,42.617
			l0.1,1.055c-0.642,0.059-1.334,0.103-2.091,0.127l-0.032-1.058C174.956,42.718,175.628,42.676,176.248,42.617z M175.34,78.602
			c-0.626,0.061-1.298,0.106-2.026,0.138l-0.046-1.058c0.708-0.031,1.36-0.076,1.971-0.135L175.34,78.602z M172.471,51.581
			c0.655,0.012,1.375,0.013,2.037,0.003l0.015,1.059c-0.3,0.004-0.61,0.006-0.927,0.006c-0.395,0-0.775-0.003-1.145-0.009
			L172.471,51.581z M172.471,66.412c0.655,0.012,1.375,0.012,2.037,0.003l0.015,1.06c-0.3,0.004-0.61,0.006-0.927,0.006
			c-0.395,0-0.775-0.004-1.145-0.01L172.471,66.412z M170.161,42.671c0.624,0.045,1.296,0.075,2.029,0.086l-0.018,1.059
			c-0.753-0.011-1.445-0.042-2.089-0.089L170.161,42.671z M168.411,51.364c0.63,0.061,1.303,0.111,2.026,0.149l-0.057,1.058
			c-0.739-0.039-1.427-0.091-2.07-0.153L168.411,51.364z M168.411,66.195c0.63,0.062,1.303,0.111,2.026,0.15l-0.057,1.057
			c-0.739-0.038-1.427-0.09-2.07-0.152L168.411,66.195z M166.174,42.078c0.66,0.154,1.308,0.277,1.979,0.376l-0.153,1.048
			c-0.701-0.102-1.377-0.231-2.066-0.392L166.174,42.078z M166.401,51.116l-0.157,1.048c-0.73-0.11-1.407-0.234-2.048-0.366
			l0.213-1.038C165.034,50.889,165.69,51.009,166.401,51.116z M166.401,65.948l-0.157,1.048c-0.73-0.11-1.407-0.234-2.048-0.366
			l0.213-1.038C165.034,65.721,165.69,65.841,166.401,65.948z M162.252,40.937c0.358,0.108,0.71,0.218,1.062,0.328l0.908,0.281
			l-0.309,1.014l-0.917-0.285c-0.348-0.109-0.695-0.217-1.05-0.324L162.252,40.937z M162.426,50.308l-0.251,1.029l-1.991-0.493
			l0.25-1.029L162.426,50.308z M162.426,65.141l-0.251,1.028l-1.991-0.493l0.25-1.029L162.426,65.141z M158.16,40.013
			c0.706,0.1,1.383,0.224,2.069,0.382l-0.236,1.032c-0.657-0.15-1.305-0.27-1.98-0.365L158.16,40.013z M156.361,49.002
			c0.731,0.107,1.409,0.228,2.051,0.357l-0.209,1.039c-0.624-0.126-1.282-0.244-1.995-0.348L156.361,49.002z M156.361,63.834
			c0.731,0.107,1.409,0.228,2.051,0.357l-0.209,1.04c-0.624-0.127-1.282-0.245-1.995-0.349L156.361,63.834z M153.986,39.715
			c0.752,0.01,1.445,0.038,2.088,0.082l-0.072,1.057c-0.625-0.043-1.298-0.07-2.029-0.08L153.986,39.715z M152.223,48.61
			c0.739,0.037,1.427,0.086,2.07,0.146l-0.098,1.055c-0.63-0.059-1.303-0.107-2.026-0.143L152.223,48.61z M152.223,63.442
			c0.739,0.037,1.427,0.086,2.07,0.146l-0.098,1.055c-0.63-0.059-1.303-0.107-2.026-0.143L152.223,63.442z M151.899,39.737
			l0.037,1.058c-0.732,0.026-1.402,0.071-2.023,0.132l-0.103-1.054C150.451,39.81,151.143,39.763,151.899,39.737z M150.151,48.546
			l-0.017,1.059c-0.66-0.009-1.379-0.008-2.039,0.002l-0.017-1.059C148.748,48.538,149.48,48.537,150.151,48.546z M147.728,40.157
			l0.187,1.043c-0.655,0.117-1.298,0.261-1.967,0.438l-0.272-1.024C146.374,40.429,147.044,40.279,147.728,40.157z M144.036,49.819
			l-0.1-1.054c0.645-0.062,1.331-0.112,2.07-0.151l0.056,1.058C145.339,49.71,144.666,49.76,144.036,49.819z M146.062,64.504
			c-0.724,0.037-1.396,0.087-2.026,0.146l-0.1-1.054c0.645-0.062,1.331-0.112,2.07-0.151L146.062,64.504z M143.518,41.252
			l0.161-0.05l0.316,1.011l-0.161,0.051c-0.597,0.187-1.193,0.374-1.826,0.55l-0.284-1.02
			C142.344,41.62,142.93,41.436,143.518,41.252z M142.026,50.064c-0.712,0.106-1.369,0.225-1.993,0.352l-0.212-1.038
			c0.641-0.131,1.318-0.254,2.05-0.363L142.026,50.064z M139.761,42.262l0.203,1.04c-0.675,0.132-1.354,0.236-2.077,0.317
			l-0.118-1.053C138.463,42.488,139.114,42.389,139.761,42.262z M137.799,49.837l0.251,1.029l-1.992,0.493l-0.25-1.029
			L137.799,49.837z M137.799,64.668l0.251,1.029l-1.992,0.492l-0.25-1.028L137.799,64.668z M136.327,91.991l-0.032,1.059
			c-0.333-0.01-0.681-0.016-1.044-0.016v-1.06C135.626,91.975,135.984,91.98,136.327,91.991z M133.715,42.762l0.192,0.001
			c0.655,0,1.269-0.014,1.845-0.04l0.048,1.058c-0.59,0.027-1.221,0.041-1.896,0.041l-0.188-0.001V42.762z M133.826,50.779
			l0.211,1.038c-0.641,0.131-1.317,0.253-2.049,0.361l-0.155-1.048C132.544,51.025,133.202,50.906,133.826,50.779z M129.665,42.522
			c0.64,0.081,1.319,0.142,2.019,0.182l-0.061,1.057c-0.724-0.041-1.427-0.104-2.09-0.188L129.665,42.522z M129.82,51.372
			l0.101,1.054c-0.646,0.062-1.333,0.112-2.072,0.149l-0.054-1.058C128.518,51.481,129.19,51.432,129.82,51.372z M125.714,41.688
			c0.712,0.207,1.335,0.366,1.962,0.499l-0.22,1.037c-0.652-0.139-1.3-0.304-2.037-0.518L125.714,41.688z M121.737,40.512
			c0.712,0.177,1.368,0.372,2.012,0.572l-0.312,1.012c-0.626-0.193-1.265-0.383-1.956-0.556L121.737,40.512z M117.586,39.835
			c0.731,0.061,1.415,0.144,2.088,0.252l-0.169,1.046c-0.646-0.104-1.303-0.184-2.008-0.243L117.586,39.835z M114.417,39.711
			c0.371,0,0.729,0.004,1.073,0.012l-0.026,1.059c-0.336-0.008-0.685-0.012-1.047-0.012V39.711z M108.049,75.741
			c-0.338-0.007-0.687-0.011-1.049-0.011v-1.059c0.369,0,0.727,0.003,1.071,0.01L108.049,75.741z M109.422,65.248
			c-0.625-0.127-1.283-0.247-1.997-0.353l0.156-1.048c0.733,0.109,1.411,0.232,2.053,0.363L109.422,65.248z M109.422,50.416
			c-0.625-0.127-1.283-0.247-1.997-0.353l0.156-1.048c0.733,0.109,1.411,0.232,2.053,0.363L109.422,50.416z M112,76.012
			c-0.606-0.076-1.258-0.14-1.967-0.187l0.07-1.058c0.73,0.049,1.402,0.115,2.028,0.193L112,76.012z M113.41,66.195l-1.995-0.495
			l0.251-1.029l1.995,0.495L113.41,66.195z M113.41,51.364l-1.995-0.495l0.251-1.029l1.995,0.495L113.41,51.364z M115.868,76.77
			c-0.604-0.158-1.237-0.309-1.923-0.443l0.204-1.04c0.709,0.139,1.36,0.295,1.985,0.458L115.868,76.77z M117.489,67.014
			c-0.733-0.109-1.411-0.23-2.053-0.361l0.211-1.038c0.625,0.127,1.284,0.245,1.996,0.35L117.489,67.014z M117.489,52.181
			c-0.733-0.108-1.411-0.23-2.053-0.361l0.211-1.038c0.625,0.127,1.284,0.245,1.996,0.35L117.489,52.181z M119.744,77.832
			c-0.679-0.169-1.319-0.348-1.954-0.529l0.291-1.019c0.624,0.178,1.252,0.354,1.919,0.521L119.744,77.832z M121.632,67.409
			c-0.739-0.037-1.429-0.087-2.073-0.147l0.099-1.055c0.631,0.059,1.304,0.107,2.028,0.145L121.632,67.409z M121.632,52.577
			c-0.739-0.037-1.429-0.087-2.073-0.147l0.099-1.055c0.631,0.059,1.304,0.108,2.028,0.144L121.632,52.577z M123.76,78.551
			c-0.729-0.08-1.397-0.179-2.021-0.291l0.187-1.043c0.602,0.108,1.245,0.203,1.95,0.281L123.76,78.551z M124.726,67.48
			c-0.351,0-0.69-0.002-1.021-0.008l0.017-1.059c0.659,0.008,1.378,0.01,2.039,0l0.017,1.059
			C125.437,67.479,125.087,67.48,124.726,67.48z M124.726,52.65c-0.351-0.001-0.69-0.003-1.021-0.008l0.017-1.059
			c0.659,0.009,1.378,0.009,2.039,0l0.017,1.059C125.437,52.647,125.087,52.65,124.726,52.65z M127.818,78.779
			c-0.725-0.008-1.397-0.03-2.028-0.064l0.058-1.058c0.616,0.034,1.275,0.055,1.982,0.063L127.818,78.779z M127.849,67.407
			l-0.054-1.058c0.724-0.037,1.396-0.086,2.025-0.146l0.101,1.054C129.276,67.32,128.589,67.37,127.849,67.407z M129.843,78.764
			l-0.029-1.06c0.708-0.021,1.363-0.054,1.976-0.101l0.081,1.056C131.242,78.707,130.569,78.742,129.843,78.764z M131.832,65.961
			c0.712-0.105,1.37-0.225,1.994-0.352l0.211,1.039c-0.641,0.131-1.317,0.252-2.049,0.36L131.832,65.961z M133.894,78.443
			l-0.146-1.049c0.699-0.097,1.338-0.211,1.938-0.336l0.218,1.037C135.238,78.234,134.58,78.35,133.894,78.443z M136.294,112.825
			c-0.333-0.011-0.68-0.017-1.043-0.017v-1.059c0.375,0,0.733,0.005,1.077,0.018L136.294,112.825z M137.603,76.596
			c0.46-0.125,0.906-0.252,1.354-0.38l0.567-0.161l0.288,1.02l-0.564,0.16c-0.452,0.129-0.905,0.258-1.369,0.384L137.603,76.596z
			 M140.377,113.297c-0.655-0.143-1.316-0.25-2.021-0.328l0.118-1.053c0.739,0.083,1.436,0.195,2.128,0.346L140.377,113.297z
			 M140.377,93.521c-0.651-0.143-1.312-0.25-2.02-0.328l0.117-1.053c0.743,0.082,1.44,0.195,2.129,0.346L140.377,93.521z
			 M140.033,65.248l-0.212-1.038c0.641-0.131,1.318-0.254,2.05-0.363l0.155,1.048C141.314,65.001,140.657,65.12,140.033,65.248z
			 M141.484,75.539c0.621-0.146,1.279-0.285,1.997-0.405l0.175,1.046c-0.694,0.115-1.328,0.247-1.928,0.389L141.484,75.539z
			 M144.331,114.518l-0.622-0.218c-0.444-0.157-0.89-0.313-1.354-0.464l0.326-1.008c0.474,0.152,0.928,0.313,1.382,0.473
			l0.616,0.217L144.331,114.518z M144.331,94.743l-0.621-0.218c-0.444-0.157-0.891-0.314-1.355-0.465l0.326-1.008
			c0.474,0.153,0.928,0.313,1.382,0.473l0.616,0.217L144.331,94.743z M145.5,74.867c0.626-0.063,1.299-0.112,2.028-0.145
			l0.048,1.057c-0.708,0.033-1.361,0.082-1.97,0.142L145.5,74.867z M148.492,115.587c-0.725-0.108-1.417-0.251-2.115-0.435
			l0.27-1.024c0.661,0.173,1.315,0.308,2.003,0.411L148.492,115.587z M148.492,95.811c-0.723-0.108-1.415-0.25-2.115-0.433
			l0.269-1.024c0.663,0.174,1.318,0.308,2.004,0.41L148.492,95.811z M148.096,64.439l-0.017-1.059
			c0.668-0.009,1.4-0.011,2.071-0.002l-0.017,1.059C149.475,64.428,148.757,64.43,148.096,64.439z M149.559,75.73l-0.008-1.059
			l0.245-0.001c0.629,0,1.222,0.011,1.782,0.031l-0.037,1.058c-0.549-0.019-1.129-0.029-1.744-0.029H149.559z M152.549,115.861
			c-0.69-0.002-1.326-0.021-1.919-0.055l0.063-1.058c0.572,0.034,1.188,0.052,1.855,0.053l0.21-0.001l0.009,1.059L152.549,115.861z
			 M152.549,96.085c-0.69,0-1.326-0.019-1.919-0.054l0.063-1.057c0.572,0.033,1.188,0.051,1.854,0.051h0.211l0.009,1.059
			L152.549,96.085z M153.605,74.822c0.729,0.063,1.399,0.142,2.022,0.234l-0.155,1.049c-0.604-0.09-1.25-0.168-1.957-0.229
			L153.605,74.822z M154.903,115.777l-0.081-1.057c0.717-0.055,1.383-0.136,2.034-0.246l0.179,1.043
			C156.351,115.635,155.653,115.721,154.903,115.777z M154.903,96.001l-0.081-1.056c0.717-0.055,1.383-0.137,2.034-0.247
			l0.179,1.044C156.351,95.859,155.653,95.943,154.903,96.001z M157.633,75.43c0.695,0.153,1.342,0.32,1.97,0.494l-0.282,1.021
			c-0.61-0.17-1.238-0.332-1.915-0.482L157.633,75.43z M159.136,115.04l-0.29-1.019c0.697-0.198,1.334-0.418,1.965-0.641
			l0.352,0.999C160.512,114.609,159.856,114.836,159.136,115.04z M159.136,95.264l-0.29-1.019c0.697-0.198,1.334-0.418,1.965-0.64
			l0.352,0.998C160.512,94.834,159.856,95.061,159.136,95.264z M161.53,76.469c0.612,0.17,1.239,0.336,1.914,0.488l-0.233,1.034
			c-0.692-0.156-1.337-0.326-1.966-0.502L161.53,76.469z M163.13,113.715l-0.309-1.013c0.714-0.218,1.396-0.392,2.088-0.526
			l0.203,1.04C164.458,113.346,163.81,113.508,163.13,113.715z M163.13,93.939l-0.309-1.014c0.714-0.218,1.396-0.391,2.088-0.525
			l0.203,1.039C164.458,93.568,163.81,93.732,163.13,93.939z M165.376,77.326c0.603,0.093,1.25,0.173,1.955,0.236l-0.095,1.056
			c-0.73-0.066-1.399-0.149-2.022-0.246L165.376,77.326z M167.138,112.928l-0.1-1.054c0.671-0.063,1.391-0.103,2.136-0.117
			l0.021,1.06C168.476,112.829,167.783,112.867,167.138,112.928z M167.138,93.152l-0.1-1.055c0.671-0.063,1.391-0.103,2.136-0.117
			l0.021,1.06C168.476,93.055,167.783,93.091,167.138,93.152z M169.303,77.688c0.592,0.022,1.222,0.035,1.893,0.035l0.091,1.06
			c-0.777,0-1.419-0.013-2.023-0.036L169.303,77.688z M173.311,113.011c-0.658-0.083-1.327-0.139-2.048-0.171l0.046-1.058
			c0.751,0.032,1.448,0.091,2.135,0.178L173.311,113.011z M173.311,93.234c-0.658-0.082-1.327-0.139-2.048-0.17l0.046-1.059
			c0.751,0.033,1.448,0.092,2.135,0.178L173.311,93.234z M177.289,113.945c-0.734-0.247-1.342-0.424-1.969-0.571l0.244-1.031
			c0.649,0.154,1.306,0.343,2.062,0.597L177.289,113.945z M177.289,94.169c-0.734-0.247-1.342-0.423-1.969-0.571l0.244-1.031
			c0.649,0.154,1.306,0.344,2.062,0.598L177.289,94.169z M181.327,115.241c-0.65-0.158-1.284-0.347-2.057-0.608l0.339-1.004
			c0.743,0.252,1.35,0.432,1.968,0.582L181.327,115.241z M181.327,95.465c-0.648-0.158-1.283-0.345-2.057-0.607l0.339-1.004
			c0.744,0.252,1.351,0.432,1.968,0.582L181.327,95.465z M182.037,77.236l-0.715,0.203l-0.286-1.02l0.711-0.202
			c0.403-0.114,0.808-0.229,1.221-0.342l0.277,1.022C182.836,77.009,182.437,77.123,182.037,77.236z M185.582,115.825
			c-0.755-0.036-1.454-0.097-2.136-0.188l0.141-1.05c0.652,0.087,1.321,0.146,2.045,0.181L185.582,115.825z M185.582,96.048
			c-0.755-0.036-1.454-0.097-2.136-0.188l0.141-1.049c0.652,0.086,1.321,0.146,2.045,0.18L185.582,96.048z M185.164,76.426
			l-0.223-1.035c0.671-0.145,1.328-0.263,2.007-0.359l0.151,1.049C186.399,76.18,185.762,76.297,185.164,76.426z M187.714,115.857
			l-0.017-1.06c0.722-0.011,1.414-0.046,2.057-0.103l0.096,1.055C189.18,115.809,188.462,115.846,187.714,115.857z M187.714,96.081
			l-0.017-1.06c0.722-0.011,1.414-0.045,2.057-0.103l0.096,1.056C189.18,96.033,188.462,96.068,187.714,96.081z M189.056,75.863
			l-0.085-1.057c0.628-0.051,1.3-0.088,2.025-0.111l0.033,1.06C190.324,75.775,189.668,75.813,189.056,75.863z M191.981,115.457
			l-0.197-1.041c0.658-0.124,1.307-0.283,1.984-0.486l0.304,1.014C193.36,115.158,192.675,115.326,191.981,115.457z M191.981,95.682
			l-0.197-1.041c0.658-0.125,1.307-0.283,1.984-0.488l0.304,1.016C193.36,95.383,192.675,95.551,191.981,95.682z M194.998,75.788
			c-0.618-0.031-1.275-0.05-1.981-0.056l0.008-1.06c0.723,0.007,1.396,0.026,2.025,0.058L194.998,75.788z M196.085,114.27
			l-0.352-0.998c0.651-0.23,1.307-0.459,2.023-0.666l0.294,1.018C197.355,113.824,196.718,114.046,196.085,114.27z M196.085,94.494
			l-0.352-0.999c0.651-0.229,1.307-0.458,2.023-0.666l0.294,1.019C197.355,94.048,196.718,94.27,196.085,94.494z M198.916,76.209
			c-0.601-0.104-1.246-0.195-1.95-0.27l0.112-1.054c0.729,0.077,1.397,0.171,2.019,0.279L198.916,76.209z M200.039,113.157
			l-0.184-1.043c0.682-0.121,1.379-0.21,2.131-0.271l0.085,1.056C201.353,112.958,200.689,113.042,200.039,113.157z M200.039,93.382
			l-0.184-1.043c0.682-0.121,1.379-0.21,2.131-0.271l0.085,1.056C201.353,93.182,200.689,93.268,200.039,93.382z M202.756,77.123
			c-0.619-0.175-1.247-0.35-1.915-0.512l0.25-1.029c0.682,0.166,1.322,0.343,1.954,0.521L202.756,77.123z M206.199,112.855
			c-0.538-0.029-1.115-0.045-1.737-0.045l-0.33,0.002l-0.01-1.06l0.34-0.002c0.643,0,1.238,0.017,1.795,0.047L206.199,112.855z
			 M206.199,93.08c-0.538-0.029-1.115-0.046-1.737-0.046l-0.33,0.002l-0.01-1.06l0.34-0.002c0.643,0,1.238,0.018,1.795,0.049
			L206.199,93.08z M206.676,78.133c-0.703-0.143-1.354-0.302-1.979-0.468l0.271-1.024c0.606,0.161,1.236,0.315,1.92,0.453
			L206.676,78.133z M206.955,65.206c-0.624-0.124-1.282-0.24-1.996-0.341l0.151-1.049c0.731,0.105,1.411,0.223,2.052,0.352
			L206.955,65.206z M206.955,50.374c-0.624-0.124-1.282-0.24-1.996-0.341l0.151-1.049c0.731,0.105,1.411,0.223,2.052,0.352
			L206.955,50.374z M210.244,113.451c-0.656-0.168-1.311-0.297-2.003-0.396l0.151-1.05c0.729,0.106,1.421,0.243,2.114,0.42
			L210.244,113.451z M210.245,93.675c-0.656-0.168-1.311-0.297-2.003-0.397l0.151-1.049c0.729,0.106,1.421,0.244,2.114,0.42
			L210.245,93.675z M210.713,78.672c-0.729-0.051-1.401-0.121-2.025-0.203l0.139-1.05c0.605,0.08,1.254,0.147,1.962,0.197
			L210.713,78.672z M210.928,66.139l-1.989-0.492l0.248-1.028l1.994,0.493L210.928,66.139z M210.928,51.307l-1.989-0.492
			l0.248-1.029l1.994,0.493L210.928,51.307z M211.881,43.822c-0.369,0-0.727-0.005-1.071-0.013l0.024-1.059
			c0.336,0.008,0.686,0.013,1.047,0.013V43.822L211.881,43.822z M214.203,114.74c-0.426-0.141-0.838-0.285-1.25-0.43l-0.741-0.26
			l0.344-1.001l0.749,0.261c0.405,0.144,0.81,0.287,1.229,0.424L214.203,114.74z M214.203,94.964c-0.426-0.14-0.838-0.284-1.25-0.43
			l-0.741-0.259l0.344-1.002l0.749,0.262c0.405,0.143,0.81,0.285,1.229,0.423L214.203,94.964z M212.93,78.771l0.021-1.06
			c0.338,0.007,0.688,0.011,1.049,0.011v1.059C213.631,78.782,213.274,78.777,212.93,78.771z M214.994,66.977
			c-0.729-0.112-1.404-0.237-2.046-0.373l0.217-1.037c0.624,0.131,1.282,0.254,1.991,0.363L214.994,66.977z M214.994,52.145
			c-0.729-0.113-1.404-0.238-2.046-0.373l0.217-1.037c0.624,0.13,1.282,0.253,1.991,0.363L214.994,52.145z M218.398,115.68
			c-0.739-0.088-1.435-0.205-2.124-0.361l0.231-1.034c0.655,0.147,1.315,0.259,2.017,0.342L218.398,115.68z M218.398,95.902
			c-0.739-0.086-1.435-0.204-2.124-0.36l0.231-1.034c0.655,0.146,1.315,0.26,2.017,0.342L218.398,95.902z M219.132,67.395
			c-0.739-0.039-1.428-0.094-2.071-0.158l0.105-1.053c0.63,0.063,1.301,0.114,2.025,0.154L219.132,67.395z M219.132,52.564
			c-0.739-0.04-1.428-0.094-2.071-0.158l0.105-1.054c0.63,0.063,1.301,0.115,2.025,0.155L219.132,52.564z M221.769,115.861
			c-0.375,0-0.734-0.006-1.077-0.016l0.033-1.06c0.333,0.01,0.68,0.016,1.044,0.016V115.861L221.769,115.861z M221.769,96.085
			c-0.376,0-0.734-0.005-1.077-0.017l0.033-1.059c0.333,0.01,0.681,0.016,1.044,0.016V96.085L221.769,96.085z"/>
	</g>
</g>
<g>
	<g enable-background="new    ">
		<path fill="#FFFFFF" d="M36.745,43.66v-3.317c0-1.69,0.015-3.007,0.049-3.951c0.032-0.942,0.098-2.259,0.195-3.951
			c0.097-1.69,0.276-3.024,0.536-4c0.259-0.976,0.601-2.162,1.024-3.561c0.422-1.398,1.008-2.488,1.756-3.268
			c0.747-0.78,1.61-1.576,2.585-2.39c0.976-0.813,2.195-1.397,3.658-1.756c1.463-0.356,3.073-0.537,4.829-0.537
			s3.349,0.18,4.78,0.537c1.43,0.358,2.634,0.927,3.609,1.707c0.976,0.781,1.82,1.561,2.536,2.341
			c0.715,0.78,1.284,1.854,1.707,3.219c0.422,1.366,0.764,2.536,1.024,3.512c0.259,0.976,0.439,2.309,0.537,4
			c0.098,1.692,0.161,2.992,0.195,3.902c0.032,0.911,0.049,2.244,0.049,4v26.436c0,3.644-0.163,6.65-0.488,9.023
			c-0.326,2.375-0.992,4.748-2,7.121c-1.009,2.375-2.602,4.146-4.78,5.317c-2.18,1.17-4.96,1.756-8.341,1.756
			c-5.463,0-9.82-1.788-13.072-5.365l5.365-7.024c2.405,2.277,4.649,3.415,6.731,3.415c2.927,0,4.795-1.138,5.609-3.415
			c0.813-2.275,1.219-6.73,1.219-13.364v-3.121c-1.887,2.602-4.455,3.901-7.707,3.901c-2.146,0-3.967-0.356-5.463-1.072
			c-1.497-0.715-2.65-1.593-3.463-2.634c-0.814-1.04-1.415-2.568-1.805-4.585c-0.39-2.016-0.634-3.902-0.731-5.658
			S36.745,46.718,36.745,43.66z M46.597,38.685v4.195c0,2.407,0.032,4.179,0.098,5.316c0.064,1.139,0.227,2.423,0.488,3.853
			c0.259,1.431,0.715,2.439,1.366,3.024c0.649,0.585,1.527,0.878,2.634,0.878c0.78,0,1.446-0.13,2-0.391
			c0.552-0.259,1.007-0.731,1.366-1.414c0.356-0.683,0.634-1.333,0.829-1.951c0.195-0.617,0.325-1.544,0.39-2.78
			c0.064-1.234,0.113-2.259,0.146-3.073c0.032-0.813,0.048-2.032,0.048-3.658v-4c0-1.625-0.017-2.829-0.048-3.609
			c-0.034-0.78-0.083-1.771-0.146-2.975c-0.065-1.203-0.195-2.113-0.39-2.731c-0.195-0.618-0.473-1.268-0.829-1.951
			c-0.358-0.683-0.814-1.154-1.366-1.415c-0.554-0.259-1.22-0.39-2-0.39c-1.106,0-1.984,0.292-2.634,0.878
			c-0.651,0.585-1.106,1.594-1.366,3.024c-0.261,1.432-0.424,2.716-0.488,3.854C46.63,34.507,46.597,36.28,46.597,38.685z"/>
	</g>
	<g>
		<rect x="0" y="97.133" fill="none" width="79.327" height="32"/>
	</g>
	<g enable-background="new    ">
		<path fill="#FFFFFF" d="M34.517,101.414c-0.191,0.019-0.397,0.098-0.619,0.239s-0.382,0.354-0.482,0.636
			c-0.228,0.67-0.443,1.305-0.646,1.904c-0.203,0.599-0.43,1.272-0.68,2.02c-0.082,0.237-0.165,0.492-0.25,0.766
			s-0.161,0.535-0.229,0.786h-0.583l-1.818-4.968l-1.822,4.968h-0.562c-0.342-1.012-0.676-2.016-1.001-3.011
			c-0.326-0.996-0.614-1.863-0.865-2.602c-0.073-0.214-0.212-0.383-0.417-0.506s-0.403-0.196-0.595-0.219v-0.451h3.006v0.479
			c-0.15,0.005-0.313,0.029-0.489,0.075s-0.263,0.121-0.263,0.226c0,0.019,0.008,0.057,0.024,0.116s0.035,0.123,0.058,0.191
			c0.146,0.478,0.311,1.011,0.495,1.6c0.185,0.59,0.422,1.354,0.714,2.296l1.719-4.846h0.662l1.756,4.778
			c0.196-0.609,0.391-1.2,0.585-1.771s0.364-1.106,0.51-1.606c0.032-0.118,0.063-0.227,0.092-0.325
			c0.03-0.098,0.044-0.194,0.044-0.29c0-0.082-0.037-0.155-0.109-0.219s-0.162-0.116-0.267-0.157
			c-0.091-0.036-0.19-0.063-0.297-0.082c-0.107-0.019-0.186-0.027-0.236-0.027v-0.438h2.563V101.414z"/>
		<path fill="#FFFFFF" d="M40.786,106.131c-0.283,0.538-0.661,0.966-1.135,1.285s-1.019,0.479-1.634,0.479
			c-0.542,0-1.018-0.096-1.425-0.287s-0.744-0.451-1.008-0.779s-0.461-0.711-0.591-1.148s-0.195-0.9-0.195-1.388
			c0-0.438,0.069-0.867,0.208-1.288c0.139-0.422,0.343-0.802,0.612-1.139c0.26-0.323,0.582-0.584,0.967-0.783
			c0.385-0.197,0.817-0.297,1.295-0.297c0.492,0,0.914,0.077,1.265,0.232s0.636,0.367,0.854,0.636
			c0.209,0.255,0.366,0.556,0.468,0.902s0.154,0.723,0.154,1.128v0.451h-4.464c0,0.443,0.042,0.845,0.126,1.206
			c0.084,0.36,0.218,0.678,0.4,0.952c0.178,0.265,0.41,0.474,0.697,0.627s0.629,0.229,1.025,0.229c0.406,0,0.755-0.095,1.049-0.285
			s0.578-0.532,0.851-1.027L40.786,106.131z M39.275,103.561c0-0.255-0.021-0.527-0.065-0.817c-0.043-0.291-0.113-0.534-0.208-0.729
			c-0.105-0.209-0.249-0.38-0.431-0.512s-0.417-0.197-0.704-0.197c-0.479,0-0.876,0.199-1.193,0.597s-0.489,0.95-0.516,1.659H39.275
			z"/>
		<path fill="#FFFFFF" d="M45.728,107.423c-0.296,0.123-0.577,0.227-0.841,0.312c-0.264,0.084-0.588,0.126-0.971,0.126
			c-0.565,0-0.963-0.143-1.193-0.427c-0.23-0.285-0.345-0.688-0.345-1.207v-4.566h-1.217v-0.656h1.244v-2.099h1.244v2.099h1.935
			v0.656h-1.921v3.767c0,0.282,0.01,0.519,0.031,0.708c0.021,0.188,0.069,0.354,0.147,0.495c0.073,0.132,0.182,0.232,0.328,0.301
			s0.342,0.103,0.588,0.103c0.114,0,0.281-0.01,0.502-0.031c0.221-0.02,0.377-0.046,0.468-0.078V107.423z"/>
		<path fill="#FFFFFF" d="M49.556,107.717h-3.288v-0.451c0.105-0.009,0.216-0.02,0.335-0.031c0.119-0.011,0.216-0.028,0.294-0.051
			c0.127-0.041,0.223-0.113,0.287-0.216s0.096-0.235,0.096-0.4v-7.812c0-0.164-0.035-0.318-0.106-0.462s-0.163-0.257-0.277-0.339
			c-0.082-0.055-0.232-0.104-0.451-0.15s-0.394-0.073-0.526-0.082v-0.438l2.536-0.15l0.096,0.103v9.249
			c0,0.159,0.03,0.291,0.089,0.393c0.059,0.104,0.155,0.182,0.287,0.236c0.1,0.046,0.199,0.08,0.297,0.103s0.208,0.039,0.332,0.048
			V107.717z"/>
		<path fill="#FFFFFF" d="M56.789,107.594c-0.214,0.077-0.402,0.141-0.563,0.188c-0.162,0.049-0.346,0.072-0.551,0.072
			c-0.355,0-0.639-0.083-0.851-0.25c-0.212-0.166-0.348-0.408-0.407-0.728h-0.041c-0.296,0.328-0.614,0.579-0.954,0.752
			s-0.749,0.26-1.227,0.26c-0.506,0-0.922-0.155-1.248-0.465s-0.489-0.716-0.489-1.217c0-0.26,0.037-0.492,0.109-0.697
			s0.182-0.39,0.328-0.554c0.114-0.137,0.264-0.259,0.451-0.365c0.187-0.107,0.362-0.193,0.526-0.257
			c0.205-0.077,0.621-0.221,1.248-0.431s1.049-0.374,1.268-0.492v-0.677c0-0.06-0.013-0.173-0.038-0.342s-0.079-0.328-0.161-0.479
			c-0.091-0.169-0.22-0.315-0.386-0.44c-0.167-0.126-0.402-0.188-0.708-0.188c-0.209,0-0.404,0.035-0.584,0.106
			c-0.18,0.07-0.307,0.145-0.379,0.222c0,0.091,0.021,0.226,0.065,0.403s0.065,0.342,0.065,0.492c0,0.159-0.072,0.306-0.215,0.438
			s-0.343,0.198-0.598,0.198c-0.228,0-0.396-0.081-0.502-0.243c-0.107-0.161-0.161-0.343-0.161-0.543c0-0.21,0.074-0.41,0.222-0.602
			s0.341-0.362,0.578-0.513c0.205-0.128,0.454-0.235,0.745-0.325c0.292-0.088,0.577-0.133,0.854-0.133
			c0.383,0,0.717,0.026,1.001,0.078c0.285,0.053,0.543,0.166,0.776,0.339c0.232,0.169,0.409,0.397,0.53,0.687
			c0.121,0.29,0.181,0.662,0.181,1.118c0,0.651-0.007,1.229-0.021,1.733c-0.014,0.503-0.021,1.054-0.021,1.65
			c0,0.178,0.031,0.319,0.092,0.424s0.156,0.193,0.284,0.267c0.068,0.041,0.177,0.063,0.325,0.068
			c0.147,0.005,0.299,0.007,0.454,0.007V107.594z M54.403,103.984c-0.387,0.114-0.727,0.227-1.019,0.336s-0.563,0.246-0.813,0.411
			c-0.228,0.155-0.408,0.339-0.54,0.551c-0.132,0.213-0.198,0.465-0.198,0.758c0,0.379,0.099,0.657,0.297,0.835
			c0.198,0.179,0.45,0.268,0.755,0.268c0.324,0,0.608-0.079,0.854-0.236s0.454-0.344,0.622-0.559L54.403,103.984z"/>
		<path fill="#FFFFFF" d="M64.903,107.717h-3.295v-0.451c0.104-0.009,0.22-0.019,0.345-0.027c0.126-0.009,0.229-0.027,0.312-0.055
			c0.128-0.041,0.222-0.113,0.284-0.215c0.061-0.104,0.092-0.236,0.092-0.4v-3.466c0-0.479-0.113-0.848-0.339-1.107
			c-0.227-0.26-0.502-0.39-0.826-0.39c-0.242,0-0.464,0.037-0.664,0.113c-0.201,0.074-0.38,0.167-0.535,0.276
			c-0.15,0.104-0.271,0.218-0.359,0.339c-0.089,0.12-0.154,0.217-0.195,0.29v3.876c0,0.155,0.032,0.282,0.096,0.383
			s0.159,0.178,0.287,0.232c0.096,0.046,0.199,0.08,0.312,0.103c0.111,0.022,0.227,0.039,0.345,0.048v0.451h-3.302v-0.451
			c0.104-0.009,0.213-0.019,0.324-0.027c0.112-0.009,0.209-0.027,0.291-0.055c0.128-0.041,0.223-0.112,0.283-0.215
			c0.063-0.103,0.093-0.235,0.093-0.399v-4.158c0-0.155-0.033-0.297-0.099-0.427c-0.066-0.13-0.159-0.235-0.277-0.317
			c-0.087-0.055-0.189-0.095-0.308-0.12c-0.118-0.024-0.246-0.042-0.383-0.051v-0.451l2.242-0.15l0.096,0.096v0.95h0.034
			c0.109-0.109,0.246-0.24,0.41-0.394c0.164-0.152,0.319-0.276,0.465-0.372c0.169-0.109,0.369-0.2,0.602-0.273
			s0.494-0.109,0.786-0.109c0.647,0,1.127,0.202,1.438,0.604c0.313,0.404,0.469,0.94,0.469,1.61v3.507
			c0,0.159,0.027,0.288,0.082,0.387c0.055,0.098,0.148,0.174,0.28,0.229c0.109,0.046,0.204,0.077,0.284,0.096
			c0.079,0.019,0.189,0.032,0.331,0.041V107.717z"/>
		<path fill="#FFFFFF" d="M73.113,107.594l-2.358,0.15l-0.103-0.096v-0.629l-0.055-0.014c-0.236,0.265-0.529,0.48-0.877,0.649
			c-0.349,0.169-0.707,0.253-1.075,0.253c-0.383,0-0.752-0.086-1.109-0.256c-0.357-0.172-0.668-0.412-0.932-0.722
			c-0.269-0.314-0.481-0.692-0.639-1.135s-0.235-0.93-0.235-1.463c0-0.487,0.084-0.95,0.253-1.388c0.168-0.438,0.4-0.82,0.696-1.148
			c0.277-0.306,0.617-0.549,1.021-0.731c0.402-0.183,0.813-0.273,1.231-0.273c0.314,0,0.623,0.04,0.926,0.12
			c0.302,0.079,0.563,0.181,0.781,0.304v-2.35c0-0.191-0.032-0.366-0.096-0.523c-0.063-0.158-0.152-0.277-0.267-0.359
			c-0.128-0.087-0.3-0.149-0.517-0.188c-0.216-0.039-0.449-0.067-0.7-0.086v-0.424l2.762-0.15l0.103,0.103v9.086
			c0,0.159,0.031,0.295,0.092,0.406c0.063,0.111,0.152,0.206,0.271,0.283c0.087,0.055,0.212,0.089,0.376,0.103
			s0.314,0.022,0.451,0.027V107.594z M70.638,106.411v-3.944c-0.036-0.118-0.096-0.246-0.178-0.383
			c-0.081-0.137-0.184-0.262-0.307-0.376c-0.132-0.114-0.286-0.208-0.464-0.284c-0.178-0.074-0.385-0.112-0.621-0.112
			c-0.272,0-0.524,0.07-0.754,0.212s-0.434,0.344-0.61,0.608c-0.168,0.255-0.302,0.58-0.399,0.974
			c-0.098,0.395-0.146,0.831-0.146,1.31c0,0.383,0.036,0.73,0.109,1.042c0.072,0.313,0.195,0.604,0.368,0.872
			c0.159,0.255,0.362,0.46,0.61,0.615s0.543,0.232,0.884,0.232c0.364,0,0.665-0.08,0.904-0.239
			C70.273,106.778,70.474,106.603,70.638,106.411z"/>
		<path fill="#FFFFFF" d="M78.219,104.415c0.187,0.164,0.33,0.354,0.431,0.567s0.15,0.477,0.15,0.786
			c0,0.624-0.233,1.135-0.701,1.531c-0.467,0.396-1.071,0.595-1.814,0.595c-0.392,0-0.753-0.07-1.084-0.212
			c-0.33-0.142-0.565-0.271-0.707-0.39l-0.137,0.444h-0.513l-0.068-2.345h0.472c0.036,0.179,0.114,0.387,0.232,0.624
			c0.118,0.238,0.262,0.453,0.431,0.645c0.178,0.202,0.391,0.371,0.64,0.508c0.248,0.138,0.527,0.206,0.837,0.206
			c0.438,0,0.774-0.1,1.012-0.299s0.355-0.485,0.355-0.856c0-0.191-0.038-0.356-0.112-0.495c-0.076-0.14-0.187-0.262-0.332-0.366
			c-0.15-0.104-0.335-0.199-0.554-0.284c-0.219-0.084-0.463-0.167-0.731-0.249c-0.214-0.063-0.452-0.151-0.715-0.263
			c-0.262-0.112-0.486-0.243-0.673-0.394c-0.2-0.159-0.364-0.355-0.492-0.588s-0.191-0.506-0.191-0.82
			c0-0.552,0.205-1.019,0.615-1.401s0.959-0.574,1.647-0.574c0.265,0,0.534,0.034,0.811,0.103c0.275,0.068,0.5,0.15,0.673,0.246
			l0.157-0.355h0.492l0.103,2.167H77.98c-0.096-0.485-0.302-0.88-0.619-1.185c-0.316-0.304-0.702-0.456-1.158-0.456
			c-0.374,0-0.668,0.094-0.882,0.282S75,102.002,75,102.269c0,0.205,0.035,0.376,0.105,0.513c0.071,0.137,0.177,0.253,0.318,0.349
			c0.137,0.091,0.309,0.177,0.516,0.257c0.208,0.079,0.464,0.169,0.77,0.27c0.301,0.096,0.584,0.207,0.852,0.335
			C77.826,104.119,78.047,104.26,78.219,104.415z"/>
	</g>
	<g enable-background="new    ">
		<path fill="#FFFFFF" d="M10.093,124.694c-0.975,0-1.739-0.323-2.29-0.971s-0.827-1.516-0.827-2.604
			c0-0.474,0.074-0.917,0.222-1.329c0.148-0.413,0.363-0.788,0.646-1.125c0.269-0.323,0.606-0.584,1.012-0.783
			c0.406-0.197,0.848-0.297,1.326-0.297c0.661,0,1.199,0.158,1.613,0.475c0.415,0.317,0.622,0.749,0.622,1.296
			c0,0.228-0.055,0.43-0.164,0.604c-0.109,0.176-0.29,0.264-0.54,0.264c-0.269,0-0.478-0.068-0.625-0.204
			c-0.148-0.137-0.222-0.289-0.222-0.457c0-0.204,0.027-0.414,0.082-0.63s0.086-0.374,0.096-0.474
			c-0.082-0.141-0.204-0.235-0.365-0.283c-0.162-0.048-0.335-0.071-0.521-0.071c-0.218,0-0.426,0.047-0.624,0.141
			c-0.198,0.093-0.39,0.265-0.576,0.516c-0.168,0.228-0.305,0.535-0.409,0.923s-0.157,0.85-0.157,1.388
			c0,0.848,0.188,1.539,0.563,2.074c0.375,0.536,0.868,0.804,1.478,0.804c0.441,0,0.812-0.107,1.109-0.323
			c0.298-0.215,0.574-0.538,0.829-0.969l0.437,0.287c-0.301,0.538-0.697,0.964-1.189,1.278S10.616,124.694,10.093,124.694z"/>
		<path fill="#FFFFFF" d="M19.909,121.078c0,0.474-0.075,0.94-0.226,1.397c-0.151,0.459-0.365,0.847-0.644,1.166
			c-0.315,0.364-0.68,0.636-1.095,0.813s-0.881,0.267-1.396,0.267c-0.429,0-0.837-0.081-1.225-0.242
			c-0.388-0.162-0.732-0.398-1.033-0.708c-0.296-0.306-0.533-0.678-0.708-1.118c-0.175-0.439-0.263-0.933-0.263-1.479
			c0-1.053,0.307-1.914,0.92-2.584c0.613-0.67,1.417-1.005,2.412-1.005c0.944,0,1.723,0.318,2.337,0.953
			C19.602,119.175,19.909,120.021,19.909,121.078z M18.494,121.092c0-0.342-0.034-0.703-0.103-1.083
			c-0.069-0.381-0.171-0.703-0.309-0.968c-0.146-0.282-0.338-0.509-0.575-0.681c-0.237-0.17-0.527-0.256-0.87-0.256
			c-0.352,0-0.652,0.087-0.9,0.26c-0.249,0.173-0.451,0.41-0.606,0.711c-0.146,0.278-0.249,0.595-0.309,0.95
			c-0.059,0.355-0.089,0.699-0.089,1.032c0,0.438,0.035,0.842,0.106,1.213c0.071,0.372,0.184,0.703,0.339,0.995
			s0.35,0.521,0.585,0.687c0.235,0.167,0.526,0.25,0.873,0.25c0.571,0,1.023-0.275,1.356-0.827
			C18.327,122.823,18.494,122.063,18.494,121.092z"/>
		<path fill="#FFFFFF" d="M28.324,124.517h-3.295v-0.451c0.105-0.009,0.22-0.019,0.345-0.027s0.229-0.027,0.311-0.055
			c0.127-0.041,0.222-0.113,0.284-0.215c0.062-0.104,0.092-0.236,0.092-0.4v-3.466c0-0.479-0.113-0.848-0.339-1.107
			s-0.501-0.39-0.826-0.39c-0.242,0-0.463,0.037-0.665,0.113c-0.201,0.074-0.379,0.167-0.534,0.276
			c-0.151,0.104-0.271,0.218-0.36,0.339c-0.089,0.12-0.154,0.217-0.195,0.29v3.876c0,0.155,0.032,0.282,0.096,0.383
			s0.16,0.178,0.287,0.232c0.096,0.046,0.199,0.08,0.311,0.103s0.227,0.039,0.345,0.048v0.451H20.88v-0.451
			c0.105-0.009,0.213-0.019,0.325-0.027s0.208-0.027,0.291-0.055c0.127-0.041,0.222-0.112,0.284-0.215s0.092-0.235,0.092-0.399
			v-4.158c0-0.155-0.033-0.297-0.099-0.427s-0.158-0.235-0.277-0.317c-0.086-0.055-0.189-0.095-0.308-0.12
			c-0.119-0.024-0.246-0.042-0.383-0.051v-0.451l2.242-0.15l0.096,0.096v0.95h0.034c0.109-0.109,0.246-0.24,0.41-0.394
			c0.164-0.152,0.319-0.276,0.465-0.372c0.168-0.109,0.369-0.2,0.602-0.273s0.495-0.109,0.786-0.109
			c0.647,0,1.127,0.202,1.439,0.604c0.312,0.404,0.468,0.94,0.468,1.61v3.507c0,0.159,0.027,0.288,0.082,0.387
			c0.055,0.098,0.148,0.174,0.28,0.229c0.109,0.046,0.204,0.077,0.284,0.096s0.19,0.032,0.332,0.041V124.517z"/>
		<path fill="#FFFFFF" d="M33.601,121.215c0.187,0.164,0.331,0.354,0.431,0.567s0.15,0.477,0.15,0.786
			c0,0.624-0.233,1.135-0.701,1.531s-1.072,0.595-1.815,0.595c-0.392,0-0.753-0.07-1.083-0.212s-0.566-0.271-0.708-0.39
			l-0.137,0.444h-0.513l-0.068-2.345h0.472c0.037,0.179,0.114,0.387,0.232,0.624c0.119,0.238,0.262,0.453,0.431,0.645
			c0.178,0.202,0.391,0.371,0.639,0.508c0.249,0.138,0.527,0.206,0.837,0.206c0.438,0,0.775-0.1,1.012-0.299
			s0.355-0.485,0.355-0.856c0-0.191-0.038-0.356-0.113-0.495c-0.075-0.14-0.186-0.262-0.332-0.366
			c-0.15-0.104-0.335-0.199-0.554-0.284c-0.219-0.084-0.462-0.167-0.731-0.249c-0.214-0.063-0.452-0.151-0.714-0.263
			c-0.262-0.112-0.486-0.243-0.673-0.394c-0.201-0.159-0.365-0.355-0.492-0.588s-0.191-0.506-0.191-0.82
			c0-0.552,0.205-1.019,0.615-1.401s0.959-0.574,1.647-0.574c0.264,0,0.534,0.034,0.81,0.103s0.5,0.15,0.673,0.246l0.157-0.355
			h0.492l0.103,2.167h-0.472c-0.096-0.485-0.302-0.88-0.619-1.185c-0.317-0.304-0.703-0.456-1.159-0.456
			c-0.374,0-0.667,0.094-0.882,0.282s-0.321,0.415-0.321,0.682c0,0.205,0.035,0.376,0.106,0.513s0.177,0.253,0.318,0.349
			c0.137,0.091,0.309,0.177,0.516,0.257c0.208,0.079,0.464,0.169,0.769,0.27c0.301,0.096,0.584,0.207,0.851,0.335
			S33.428,121.06,33.601,121.215z"/>
		<path fill="#FFFFFF" d="M39.364,124.223c-0.296,0.123-0.576,0.227-0.841,0.312c-0.264,0.084-0.588,0.126-0.971,0.126
			c-0.565,0-0.963-0.143-1.193-0.427c-0.23-0.285-0.345-0.688-0.345-1.207v-4.566h-1.217v-0.656h1.244v-2.099h1.244v2.099h1.935
			v0.656H37.3v3.767c0,0.282,0.01,0.519,0.031,0.708c0.021,0.188,0.069,0.354,0.147,0.495c0.073,0.132,0.182,0.232,0.328,0.301
			s0.342,0.103,0.588,0.103c0.113,0,0.281-0.01,0.503-0.031c0.221-0.02,0.377-0.046,0.468-0.078V124.223z"/>
		<path fill="#FFFFFF" d="M45.195,118.645c0,0.232-0.057,0.438-0.171,0.618c-0.114,0.181-0.289,0.271-0.526,0.271
			c-0.255,0-0.45-0.066-0.585-0.198c-0.134-0.132-0.201-0.278-0.201-0.438c0-0.101,0.008-0.191,0.023-0.273
			c0.017-0.082,0.031-0.164,0.045-0.246c-0.214,0-0.465,0.087-0.752,0.26s-0.531,0.419-0.731,0.738v3.924
			c0,0.159,0.03,0.289,0.093,0.39c0.061,0.101,0.158,0.176,0.29,0.226c0.114,0.046,0.261,0.08,0.44,0.103
			c0.181,0.022,0.337,0.039,0.469,0.048v0.451h-3.555v-0.451c0.104-0.009,0.213-0.019,0.324-0.027
			c0.112-0.009,0.209-0.027,0.291-0.055c0.128-0.041,0.223-0.112,0.283-0.215c0.063-0.103,0.093-0.235,0.093-0.399v-4.158
			c0-0.142-0.033-0.28-0.099-0.417c-0.066-0.136-0.159-0.245-0.277-0.327c-0.087-0.055-0.189-0.095-0.308-0.12
			c-0.118-0.024-0.246-0.042-0.383-0.051v-0.451l2.242-0.15l0.096,0.096v0.95h0.034c0.282-0.369,0.597-0.649,0.943-0.841
			s0.663-0.287,0.95-0.287s0.521,0.094,0.7,0.28C45.105,118.079,45.195,118.33,45.195,118.645z"/>
		<path fill="#FFFFFF" d="M52.995,124.394l-2.201,0.15l-0.103-0.096v-0.854H50.65c-0.109,0.114-0.232,0.235-0.368,0.366
			c-0.137,0.129-0.294,0.247-0.471,0.352c-0.205,0.123-0.403,0.217-0.595,0.28c-0.19,0.063-0.461,0.096-0.812,0.096
			c-0.596,0-1.05-0.194-1.361-0.584c-0.313-0.389-0.468-0.955-0.468-1.696v-3.224c0-0.164-0.031-0.302-0.093-0.413
			c-0.063-0.111-0.152-0.208-0.271-0.29c-0.083-0.055-0.187-0.095-0.31-0.12c-0.124-0.024-0.255-0.042-0.393-0.051v-0.451
			l2.249-0.164l0.103,0.096v4.683c0,0.487,0.109,0.854,0.328,1.101s0.48,0.369,0.786,0.369c0.251,0,0.474-0.039,0.67-0.116
			s0.36-0.168,0.492-0.273c0.123-0.095,0.231-0.196,0.325-0.304c0.093-0.106,0.165-0.205,0.215-0.297v-3.816
			c0-0.15-0.032-0.283-0.096-0.399s-0.152-0.215-0.267-0.297c-0.082-0.055-0.204-0.088-0.366-0.099
			c-0.161-0.012-0.343-0.022-0.543-0.031v-0.451l2.454-0.164l0.103,0.096v5.347c0,0.154,0.032,0.287,0.096,0.396
			c0.063,0.108,0.152,0.202,0.267,0.279c0.082,0.051,0.18,0.083,0.294,0.1c0.114,0.016,0.239,0.025,0.376,0.03V124.394z"/>
		<path fill="#FFFFFF" d="M56.939,124.694c-0.976,0-1.738-0.323-2.29-0.971s-0.827-1.516-0.827-2.604
			c0-0.474,0.074-0.917,0.223-1.329c0.147-0.413,0.363-0.788,0.646-1.125c0.269-0.323,0.606-0.584,1.012-0.783
			c0.405-0.197,0.848-0.297,1.326-0.297c0.661,0,1.198,0.158,1.613,0.475c0.415,0.317,0.622,0.749,0.622,1.296
			c0,0.228-0.055,0.43-0.164,0.604c-0.109,0.176-0.289,0.264-0.54,0.264c-0.269,0-0.478-0.068-0.626-0.204
			c-0.147-0.137-0.222-0.289-0.222-0.457c0-0.204,0.027-0.414,0.082-0.63s0.087-0.374,0.096-0.474
			c-0.082-0.141-0.203-0.235-0.365-0.283c-0.161-0.048-0.335-0.071-0.521-0.071c-0.218,0-0.426,0.047-0.624,0.141
			c-0.197,0.093-0.39,0.265-0.576,0.516c-0.168,0.228-0.304,0.535-0.408,0.923c-0.105,0.388-0.157,0.85-0.157,1.388
			c0,0.848,0.188,1.539,0.563,2.074c0.375,0.536,0.867,0.804,1.478,0.804c0.441,0,0.811-0.107,1.108-0.323
			c0.299-0.215,0.575-0.538,0.83-0.969l0.437,0.287c-0.301,0.538-0.697,0.964-1.189,1.278S57.464,124.694,56.939,124.694z"/>
		<path fill="#FFFFFF" d="M64.343,124.223c-0.296,0.123-0.576,0.227-0.841,0.312c-0.265,0.084-0.588,0.126-0.971,0.126
			c-0.565,0-0.963-0.143-1.193-0.427c-0.229-0.285-0.345-0.688-0.345-1.207v-4.566h-1.217v-0.656h1.244v-2.099h1.244v2.099h1.935
			v0.656h-1.921v3.767c0,0.282,0.011,0.519,0.03,0.708c0.021,0.188,0.07,0.354,0.147,0.495c0.073,0.132,0.183,0.232,0.328,0.301
			s0.342,0.103,0.588,0.103c0.114,0,0.281-0.01,0.503-0.031c0.221-0.02,0.377-0.046,0.468-0.078V124.223z"/>
		<path fill="#FFFFFF" d="M71.001,122.931c-0.282,0.538-0.661,0.966-1.135,1.285s-1.019,0.479-1.634,0.479
			c-0.542,0-1.018-0.096-1.425-0.287c-0.408-0.191-0.744-0.451-1.009-0.779s-0.462-0.711-0.591-1.148
			c-0.131-0.438-0.195-0.9-0.195-1.388c0-0.438,0.069-0.867,0.209-1.288c0.139-0.422,0.343-0.802,0.611-1.139
			c0.26-0.323,0.582-0.584,0.967-0.783c0.386-0.197,0.817-0.297,1.296-0.297c0.492,0,0.914,0.077,1.265,0.232
			s0.636,0.367,0.854,0.636c0.21,0.255,0.366,0.556,0.468,0.902c0.104,0.347,0.154,0.723,0.154,1.128v0.451h-4.464
			c0,0.443,0.042,0.845,0.126,1.206c0.085,0.36,0.218,0.678,0.4,0.952c0.178,0.265,0.41,0.474,0.697,0.627s0.629,0.229,1.025,0.229
			c0.405,0,0.756-0.095,1.049-0.285c0.295-0.19,0.578-0.532,0.852-1.027L71.001,122.931z M69.49,120.36
			c0-0.255-0.021-0.527-0.065-0.817c-0.043-0.291-0.112-0.534-0.208-0.729c-0.104-0.209-0.248-0.38-0.431-0.512
			s-0.417-0.197-0.704-0.197c-0.479,0-0.876,0.199-1.192,0.597c-0.317,0.397-0.489,0.95-0.517,1.659H69.49z"/>
		<path fill="#FFFFFF" d="M79.163,124.394l-2.358,0.15l-0.103-0.096v-0.629l-0.055-0.014c-0.236,0.265-0.529,0.48-0.877,0.649
			c-0.349,0.169-0.707,0.253-1.075,0.253c-0.383,0-0.752-0.086-1.109-0.256c-0.357-0.172-0.668-0.412-0.932-0.722
			c-0.269-0.314-0.481-0.692-0.639-1.135s-0.235-0.93-0.235-1.463c0-0.487,0.084-0.95,0.253-1.388c0.168-0.438,0.4-0.82,0.696-1.148
			c0.277-0.306,0.617-0.549,1.021-0.731c0.402-0.183,0.813-0.273,1.231-0.273c0.314,0,0.623,0.04,0.926,0.12
			c0.302,0.079,0.563,0.181,0.781,0.304v-2.35c0-0.191-0.032-0.366-0.096-0.523c-0.063-0.158-0.152-0.277-0.267-0.359
			c-0.128-0.087-0.3-0.149-0.517-0.188c-0.216-0.039-0.449-0.067-0.7-0.086v-0.424l2.762-0.15l0.103,0.103v9.086
			c0,0.159,0.031,0.295,0.092,0.406c0.063,0.111,0.152,0.206,0.271,0.283c0.087,0.055,0.212,0.089,0.376,0.103
			s0.314,0.022,0.451,0.027V124.394z M76.688,123.211v-3.944c-0.036-0.118-0.096-0.246-0.178-0.383
			c-0.081-0.137-0.184-0.262-0.307-0.376c-0.132-0.114-0.286-0.208-0.464-0.284c-0.178-0.074-0.385-0.112-0.621-0.112
			c-0.272,0-0.524,0.07-0.754,0.212s-0.434,0.344-0.61,0.608c-0.168,0.255-0.302,0.58-0.399,0.974
			c-0.098,0.395-0.146,0.831-0.146,1.31c0,0.383,0.036,0.73,0.109,1.042c0.072,0.313,0.195,0.604,0.368,0.872
			c0.159,0.255,0.362,0.46,0.61,0.615s0.543,0.232,0.884,0.232c0.364,0,0.665-0.08,0.904-0.239
			C76.323,123.578,76.524,123.402,76.688,123.211z"/>
	</g>
</g>
</svg>
