<?xml version="1.0" encoding="utf-8"?>
<!-- Generator: Adobe Illustrator 16.0.0, SVG Export Plug-In . SVG Version: 6.00 Build 0)  -->
<!DOCTYPE svg PUBLIC "-//W3C//DTD SVG 1.1//EN" "http://www.w3.org/Graphics/SVG/1.1/DTD/svg11.dtd">
<svg version="1.1" id="Layer_1" xmlns="http://www.w3.org/2000/svg" xmlns:xlink="http://www.w3.org/1999/xlink" x="0px" y="0px"
	 width="292.417px" height="151.826px" viewBox="0 0 292.417 151.826" enable-background="new 0 0 292.417 151.826"
	 xml:space="preserve">
<g>
	<g>
		<g>
			<path fill="#800000018000000180000001" d="M191.13,41.073c0.136,0.637,0.209,1.296,0.209,1.973c0,5.238-4.246,9.485-9.484,9.485
				c-4.934,0-8.984-3.769-9.439-8.584c5.162-0.731,9.31-2.874,9.31-2.874H191.13z"/>
		</g>
		<g>
			<path fill="#800000018000000180000001" d="M181.248,29.196c6.078,0,11.006,4.928,11.006,11.008h-0.562h-0.358h-10.086
				c0,0-4.447,2.298-9.981,3.081c-0.083,0.012-0.164,0.026-0.248,0.037c-0.104,0.013-0.207,0.029-0.312,0.044
				c-0.301-1.003-0.468-2.064-0.468-3.162C170.239,34.124,175.167,29.196,181.248,29.196z"/>
		</g>
	</g>
	<g>
		<path fill="#800000018000000180000001" d="M181.28,110.315c-0.038-2.229-0.147-4.457-0.301-6.68
			c-0.028-0.421-0.319-0.932-0.649-1.207c-2.502-2.08-4.219-4.436-5.313-7.003c-1.124,3.226-1.234,6.669,0.089,10.402
			c0.121,0.341,0.11,0.834-0.049,1.149c-0.843,1.67-1.72,3.323-2.647,4.946c-2.887,5.056-5.869,11.002-9.514,15.566
			c-0.59,0.739-1.245,1.497-1.577,2.36c-0.803,2.088,0.039,4.061,2.022,5.162c1.752,0.975,4.66,0.51,5.797-1.063
			c2.529-3.499,5.119-7.923,7.438-11.56c1.639-2.57,3.207-5.188,4.752-7.82C181.321,113.151,181.305,111.733,181.28,110.315z"/>
	</g>
	<g>
		<path fill="#800000018000000180000001" d="M181.123,101.635c0.33,0.275,0.621,0.787,0.649,1.208
			c0.153,2.223,0.263,4.451,0.301,6.68c0.025,1.418,0.041,2.838,0.048,4.256c0.026,5.514-0.135,11.976-0.892,17.461
			c-0.153,1.117-0.362,2.292-0.179,3.378c0.451,2.629,2.515,4.136,5.218,4.057c2.39-0.069,5.083-2.317,5.29-4.62
			c0.461-5.127,0.999-11.21,1.158-16.349c0.199-6.383,0.097-12.778,0.025-19.167c-0.021-1.957-0.215-3.911-0.351-5.867
			c0.039-0.015-0.097-1.738-0.097-1.738c-0.006-0.131-0.016-0.26-0.021-0.39v-0.001h-0.028l-0.281-2.247l0.027-8.042l0.027-8.81
			l19.945,16.934c1.928,1.636,4.815,1.399,6.451-0.526c0.043-0.052,0.078-0.105,0.119-0.158l52.516,19.052l-19.157,2.834
			c-1.407,0.208-2.716,0.796-3.797,1.681l-4.376-2.424c-0.569-0.314-1.301-0.207-1.75,0.299c-0.521,0.586-0.467,1.484,0.119,2.004
			l3.281,2.914c-0.043,0.094-0.084,0.186-0.121,0.276c-1.129,1.37-1.828,3.272-1.828,5.377c0,1.926,0.586,3.683,1.55,5.017
			l-4.697,10.387c-0.575,1.271-0.01,2.767,1.261,3.342c1.272,0.574,2.768,0.01,3.342-1.262l4.494-9.938
			c0.061,0.002,0.121,0.006,0.183,0.006c2.427,0,4.524-1.736,5.518-4.256c5.062,0.668,10.978,1.402,15.085,1.885l-4.621,10.223
			c-0.576,1.271-0.011,2.767,1.26,3.342c1.272,0.574,2.768,0.01,3.343-1.262l5.741-12.696c1.718-2.429,3.951-8.677,5.22-12.478
			c0.266-0.798,0.851-1.449,1.614-1.801c0.763-0.352,1.64-0.374,2.418-0.058c1.809,0.735,3.886,0.198,5.111-1.321l1.937-2.398
			c0.213-0.264,0.288-0.611,0.202-0.939c-0.084-0.328-0.318-0.596-0.631-0.723l-4.277-1.738l0.943-1.402
			c0.201-0.298,0.256-0.67,0.151-1.013s-0.358-0.621-0.69-0.756l-4.819-1.958c-0.511-2.098-1.937-3.838-2.788-4.727
			c-0.125-0.131-0.314-0.18-0.486-0.127c-0.174,0.053-0.304,0.198-0.336,0.377l-0.93,5.172h0.014
			c-0.402,0.336-0.748,0.75-1.017,1.227c-0.056,0.072-0.106,0.15-0.142,0.24l-2.89,3.826L219.291,83.53
			c-0.248-0.803-0.717-1.549-1.404-2.131l-25.831-21.932c0,0-5.873-6.019-10.167-6.019c-5.129,0-8.979,3.397-8.979,9.6v5.086v7.557
			C172.912,97.356,179.721,100.47,181.123,101.635z"/>
	</g>
	<g>
		<polyline fill="#800000018000000180000001" points="163.446,57.536 160.445,57.466 158.06,59.207 154.433,59.123 153.932,80.646 
			157.559,80.729 159.691,89.922 171.485,90.194 172.24,57.74 164.597,57.563 		"/>
	</g>
</g>
<g>
	<g enable-background="new    ">
		<path fill="#800000018000000180000001" d="M120.716,69.066h-6.243v14.827H105.4V69.066H88.524v-8l16.583-47.409h9.365v46.727
			h6.243V69.066z M105.4,60.384V34.728l-8.877,25.656H105.4z"/>
	</g>
	<g>
		<rect y="92.493" fill="#800000018000000180000001" width="132.667" height="59.333"/>
	</g>
	<g enable-background="new    ">
		<path fill="#800000018000000180000001" d="M65.436,99.775c0.187,0.164,0.331,0.354,0.431,0.567s0.15,0.477,0.15,0.786
			c0,0.624-0.233,1.135-0.701,1.531s-1.072,0.595-1.815,0.595c-0.392,0-0.753-0.07-1.083-0.212s-0.566-0.271-0.708-0.39
			l-0.137,0.444h-0.513l-0.068-2.345h0.472c0.037,0.179,0.114,0.387,0.232,0.624c0.119,0.238,0.262,0.453,0.431,0.645
			c0.178,0.202,0.391,0.371,0.639,0.508c0.249,0.138,0.527,0.206,0.837,0.206c0.438,0,0.775-0.1,1.012-0.299
			s0.355-0.485,0.355-0.856c0-0.191-0.038-0.356-0.113-0.495c-0.075-0.14-0.186-0.262-0.332-0.366
			c-0.15-0.104-0.335-0.199-0.554-0.284c-0.219-0.084-0.462-0.167-0.731-0.249c-0.214-0.063-0.452-0.151-0.714-0.263
			c-0.262-0.112-0.486-0.243-0.673-0.394c-0.201-0.159-0.365-0.355-0.492-0.588s-0.191-0.506-0.191-0.82
			c0-0.552,0.205-1.019,0.615-1.401s0.959-0.574,1.647-0.574c0.264,0,0.534,0.034,0.81,0.103s0.5,0.15,0.673,0.246l0.157-0.355
			h0.492l0.103,2.167h-0.472c-0.096-0.485-0.302-0.88-0.619-1.185c-0.317-0.304-0.703-0.456-1.159-0.456
			c-0.374,0-0.667,0.094-0.882,0.282s-0.321,0.415-0.321,0.682c0,0.205,0.035,0.376,0.106,0.513s0.177,0.253,0.318,0.349
			c0.137,0.091,0.309,0.177,0.516,0.257c0.208,0.079,0.464,0.169,0.769,0.27c0.301,0.096,0.584,0.207,0.851,0.335
			S65.262,99.62,65.436,99.775z"/>
		<path fill="#800000018000000180000001" d="M74.479,103.077h-3.295v-0.451c0.105-0.009,0.22-0.019,0.345-0.027
			s0.229-0.027,0.311-0.055c0.127-0.041,0.222-0.113,0.284-0.215c0.062-0.104,0.092-0.236,0.092-0.4v-3.466
			c0-0.479-0.113-0.848-0.339-1.107s-0.501-0.39-0.826-0.39c-0.242,0-0.463,0.037-0.665,0.113c-0.201,0.074-0.379,0.167-0.534,0.276
			c-0.151,0.104-0.271,0.218-0.36,0.339c-0.089,0.12-0.154,0.217-0.195,0.29v3.876c0,0.155,0.032,0.282,0.096,0.383
			s0.16,0.178,0.287,0.232c0.096,0.046,0.199,0.08,0.311,0.103s0.227,0.039,0.345,0.048v0.451h-3.302v-0.451
			c0.105-0.009,0.213-0.019,0.325-0.027s0.208-0.027,0.291-0.055c0.127-0.041,0.222-0.112,0.284-0.215s0.092-0.235,0.092-0.399
			v-4.158c0-0.155-0.033-0.297-0.099-0.427s-0.158-0.235-0.277-0.317c-0.086-0.055-0.189-0.095-0.308-0.12
			c-0.119-0.024-0.246-0.042-0.383-0.051v-0.451l2.242-0.15l0.096,0.096v0.95h0.034c0.109-0.109,0.246-0.24,0.41-0.394
			c0.164-0.152,0.319-0.276,0.465-0.372c0.168-0.109,0.369-0.2,0.602-0.273s0.495-0.109,0.786-0.109
			c0.647,0,1.127,0.202,1.439,0.604c0.312,0.404,0.468,0.94,0.468,1.61v3.507c0,0.159,0.027,0.288,0.082,0.387
			c0.055,0.098,0.148,0.174,0.28,0.229c0.109,0.046,0.204,0.077,0.284,0.096s0.19,0.032,0.332,0.041V103.077z"/>
		<path fill="#800000018000000180000001" d="M78.574,103.077H75.32v-0.451c0.105-0.009,0.213-0.019,0.325-0.027
			s0.208-0.027,0.291-0.055c0.127-0.041,0.222-0.112,0.284-0.215s0.092-0.235,0.092-0.399v-4.158c0-0.146-0.033-0.279-0.099-0.399
			c-0.066-0.121-0.158-0.222-0.277-0.304c-0.086-0.055-0.212-0.102-0.376-0.14c-0.164-0.039-0.314-0.063-0.451-0.072v-0.451
			l2.379-0.15l0.096,0.096v5.496c0,0.159,0.031,0.292,0.092,0.396s0.157,0.183,0.289,0.232c0.099,0.041,0.197,0.074,0.292,0.1
			c0.095,0.024,0.202,0.042,0.319,0.051V103.077z M77.72,93.596c0,0.26-0.085,0.486-0.256,0.681c-0.171,0.193-0.382,0.29-0.632,0.29
			c-0.232,0-0.434-0.093-0.605-0.276c-0.171-0.186-0.256-0.396-0.256-0.633c0-0.251,0.085-0.47,0.256-0.656s0.373-0.28,0.605-0.28
			c0.26,0,0.473,0.088,0.639,0.263C77.637,93.159,77.72,93.363,77.72,93.596z"/>
		<path fill="#800000018000000180000001" d="M84.426,93.315c0,0.205-0.055,0.378-0.164,0.52s-0.276,0.212-0.499,0.212
			c-0.141,0-0.266-0.029-0.373-0.089s-0.206-0.139-0.297-0.239s-0.175-0.214-0.253-0.342s-0.144-0.23-0.198-0.308
			c-0.305,0.014-0.541,0.227-0.708,0.638c-0.167,0.412-0.25,1.067-0.25,1.968v0.689h1.736v0.656h-1.736v4.84
			c0,0.159,0.031,0.289,0.092,0.39s0.158,0.176,0.291,0.226c0.109,0.041,0.255,0.074,0.438,0.1c0.182,0.024,0.339,0.042,0.472,0.051
			v0.451h-3.555v-0.451c0.105-0.009,0.213-0.019,0.325-0.027s0.208-0.027,0.291-0.055c0.127-0.041,0.222-0.113,0.284-0.215
			c0.062-0.104,0.092-0.236,0.092-0.4v-4.908H79.08v-0.656h1.333v-0.43c0-1.023,0.266-1.853,0.796-2.487s1.195-0.952,1.993-0.952
			c0.406,0,0.711,0.08,0.916,0.239S84.426,93.088,84.426,93.315z"/>
		<path fill="#800000018000000180000001" d="M88.979,93.315c0,0.205-0.055,0.378-0.164,0.52s-0.276,0.212-0.499,0.212
			c-0.141,0-0.266-0.029-0.373-0.089s-0.206-0.139-0.297-0.239s-0.175-0.214-0.253-0.342s-0.144-0.23-0.198-0.308
			c-0.305,0.014-0.541,0.227-0.708,0.638c-0.167,0.412-0.25,1.067-0.25,1.968v0.689h1.736v0.656h-1.736v4.84
			c0,0.159,0.031,0.289,0.092,0.39s0.158,0.176,0.291,0.226c0.109,0.041,0.255,0.074,0.438,0.1c0.182,0.024,0.339,0.042,0.472,0.051
			v0.451h-3.555v-0.451c0.105-0.009,0.213-0.019,0.325-0.027s0.208-0.027,0.291-0.055c0.127-0.041,0.222-0.113,0.284-0.215
			c0.062-0.104,0.092-0.236,0.092-0.4v-4.908h-1.333v-0.656h1.333v-0.43c0-1.023,0.266-1.853,0.796-2.487s1.195-0.952,1.993-0.952
			c0.406,0,0.711,0.08,0.916,0.239S88.979,93.088,88.979,93.315z"/>
		<path fill="#800000018000000180000001" d="M94.502,101.491c-0.282,0.538-0.661,0.966-1.135,1.285s-1.019,0.479-1.634,0.479
			c-0.542,0-1.018-0.096-1.425-0.287s-0.744-0.451-1.008-0.779s-0.461-0.711-0.591-1.148s-0.195-0.9-0.195-1.388
			c0-0.438,0.069-0.867,0.208-1.288c0.139-0.422,0.343-0.802,0.612-1.139c0.26-0.323,0.582-0.584,0.967-0.783
			c0.385-0.197,0.817-0.297,1.295-0.297c0.492,0,0.914,0.077,1.265,0.232s0.636,0.367,0.854,0.636
			c0.21,0.255,0.366,0.556,0.468,0.902c0.104,0.347,0.154,0.723,0.154,1.128v0.451h-4.464c0,0.443,0.042,0.845,0.126,1.206
			c0.084,0.36,0.218,0.678,0.4,0.952c0.178,0.265,0.41,0.474,0.697,0.627s0.629,0.229,1.025,0.229c0.405,0,0.755-0.095,1.049-0.285
			c0.295-0.19,0.578-0.532,0.852-1.027L94.502,101.491z M92.991,98.921c0-0.255-0.021-0.527-0.064-0.817
			c-0.044-0.291-0.113-0.534-0.209-0.729c-0.105-0.209-0.249-0.38-0.431-0.512s-0.417-0.197-0.704-0.197
			c-0.479,0-0.876,0.199-1.193,0.597s-0.489,0.95-0.516,1.659H92.991z"/>
		<path fill="#800000018000000180000001" d="M100.442,97.205c0,0.232-0.057,0.438-0.171,0.618c-0.114,0.181-0.289,0.271-0.526,0.271
			c-0.255,0-0.45-0.066-0.585-0.198c-0.134-0.132-0.201-0.278-0.201-0.438c0-0.101,0.008-0.191,0.023-0.273
			c0.017-0.082,0.031-0.164,0.045-0.246c-0.214,0-0.465,0.087-0.752,0.26s-0.531,0.419-0.731,0.738v3.924
			c0,0.159,0.03,0.289,0.093,0.39c0.061,0.101,0.158,0.176,0.29,0.226c0.114,0.046,0.261,0.08,0.44,0.103
			c0.181,0.022,0.337,0.039,0.469,0.048v0.451h-3.555v-0.451c0.104-0.009,0.213-0.019,0.324-0.027
			c0.112-0.009,0.209-0.027,0.291-0.055c0.128-0.041,0.223-0.112,0.283-0.215c0.063-0.103,0.093-0.235,0.093-0.399v-4.158
			c0-0.142-0.033-0.28-0.099-0.417c-0.066-0.136-0.159-0.245-0.277-0.327c-0.087-0.055-0.189-0.095-0.308-0.12
			c-0.118-0.024-0.246-0.042-0.383-0.051v-0.451l2.242-0.15l0.096,0.096v0.95h0.034c0.282-0.369,0.597-0.649,0.943-0.841
			s0.663-0.287,0.95-0.287s0.521,0.094,0.7,0.28C100.353,96.64,100.442,96.891,100.442,97.205z"/>
		<path fill="#800000018000000180000001" d="M111.776,102.954l-2.358,0.15l-0.103-0.096v-0.629l-0.055-0.014
			c-0.236,0.265-0.529,0.48-0.877,0.649c-0.349,0.169-0.707,0.253-1.075,0.253c-0.383,0-0.752-0.086-1.109-0.256
			c-0.357-0.172-0.668-0.412-0.932-0.722c-0.269-0.314-0.481-0.692-0.639-1.135s-0.235-0.93-0.235-1.463
			c0-0.487,0.084-0.95,0.253-1.388c0.168-0.438,0.4-0.82,0.696-1.148c0.277-0.306,0.617-0.549,1.021-0.731
			c0.402-0.183,0.813-0.273,1.231-0.273c0.314,0,0.623,0.04,0.926,0.12c0.302,0.079,0.563,0.181,0.781,0.304v-2.35
			c0-0.191-0.032-0.366-0.096-0.523c-0.063-0.158-0.152-0.277-0.267-0.359c-0.128-0.087-0.3-0.149-0.517-0.188
			c-0.216-0.039-0.449-0.067-0.7-0.086v-0.424l2.762-0.15l0.103,0.103v9.086c0,0.159,0.031,0.295,0.092,0.406
			c0.063,0.111,0.152,0.206,0.271,0.283c0.087,0.055,0.212,0.089,0.376,0.103s0.314,0.022,0.451,0.027V102.954z M109.302,101.771
			v-3.944c-0.036-0.118-0.096-0.246-0.178-0.383c-0.081-0.137-0.184-0.262-0.307-0.376c-0.132-0.114-0.286-0.208-0.464-0.284
			c-0.178-0.074-0.385-0.112-0.621-0.112c-0.272,0-0.524,0.07-0.754,0.212s-0.434,0.344-0.61,0.608
			c-0.168,0.255-0.302,0.58-0.399,0.974c-0.098,0.395-0.146,0.831-0.146,1.31c0,0.383,0.036,0.73,0.109,1.042
			c0.072,0.313,0.195,0.604,0.368,0.872c0.159,0.255,0.362,0.46,0.61,0.615s0.543,0.232,0.884,0.232c0.364,0,0.665-0.08,0.904-0.239
			C108.937,102.139,109.138,101.963,109.302,101.771z"/>
		<path fill="#800000018000000180000001" d="M119.009,99.639c0,0.474-0.075,0.94-0.226,1.397c-0.15,0.459-0.365,0.847-0.644,1.166
			c-0.314,0.364-0.68,0.636-1.095,0.813s-0.881,0.267-1.396,0.267c-0.429,0-0.837-0.081-1.225-0.242
			c-0.388-0.162-0.732-0.398-1.033-0.708c-0.297-0.306-0.532-0.678-0.708-1.118c-0.176-0.439-0.264-0.933-0.264-1.479
			c0-1.053,0.307-1.914,0.92-2.584c0.614-0.67,1.418-1.005,2.412-1.005c0.944,0,1.724,0.318,2.338,0.953
			C118.702,97.735,119.009,98.581,119.009,99.639z M117.594,99.652c0-0.342-0.034-0.703-0.103-1.083
			c-0.068-0.381-0.172-0.703-0.309-0.968c-0.146-0.282-0.338-0.509-0.575-0.681c-0.237-0.17-0.527-0.256-0.87-0.256
			c-0.352,0-0.651,0.087-0.9,0.26c-0.248,0.173-0.45,0.41-0.605,0.711c-0.146,0.278-0.249,0.595-0.309,0.95
			s-0.089,0.699-0.089,1.032c0,0.438,0.035,0.842,0.106,1.213c0.07,0.372,0.184,0.703,0.339,0.995s0.351,0.521,0.585,0.687
			c0.235,0.167,0.526,0.25,0.873,0.25c0.571,0,1.023-0.275,1.356-0.827S117.594,100.623,117.594,99.652z"/>
		<path fill="#800000018000000180000001" d="M125.756,102.38c0.183,0.173,0.326,0.369,0.431,0.588s0.157,0.49,0.157,0.813
			s-0.07,0.628-0.212,0.913c-0.142,0.284-0.355,0.531-0.643,0.741c-0.306,0.214-0.67,0.381-1.094,0.499s-0.948,0.178-1.572,0.178
			c-1.021,0-1.784-0.149-2.29-0.447c-0.506-0.299-0.759-0.735-0.759-1.31c0-0.465,0.183-0.832,0.547-1.101s0.829-0.415,1.395-0.438
			v-0.096c-0.137-0.041-0.278-0.092-0.424-0.154c-0.146-0.061-0.271-0.133-0.376-0.215c-0.118-0.096-0.214-0.209-0.287-0.338
			c-0.073-0.131-0.109-0.291-0.109-0.482c0-0.241,0.085-0.464,0.257-0.666c0.17-0.203,0.429-0.378,0.775-0.523v-0.103
			c-0.438-0.205-0.777-0.468-1.019-0.79c-0.241-0.32-0.362-0.693-0.362-1.117c0-0.638,0.238-1.162,0.715-1.572
			c0.476-0.41,1.085-0.615,1.828-0.615c0.205,0,0.409,0.021,0.611,0.062c0.203,0.041,0.409,0.094,0.619,0.157h2.352v0.656h-1.586
			v0.041c0.169,0.196,0.294,0.412,0.376,0.649s0.123,0.47,0.123,0.697c0,0.593-0.24,1.094-0.722,1.504
			c-0.48,0.41-1.04,0.615-1.678,0.615h-0.827c-0.104,0.036-0.214,0.103-0.328,0.198s-0.171,0.226-0.171,0.39
			c0,0.169,0.048,0.298,0.144,0.386c0.096,0.09,0.212,0.149,0.349,0.182c0.132,0.036,0.286,0.06,0.461,0.068
			c0.176,0.009,0.357,0.016,0.544,0.021c0.2,0.005,0.476,0.019,0.823,0.041c0.35,0.022,0.597,0.036,0.742,0.041
			c0.21,0.009,0.42,0.06,0.633,0.15C125.39,102.095,125.583,102.221,125.756,102.38z M125.223,104.034
			c0-0.255-0.06-0.465-0.178-0.629s-0.299-0.275-0.54-0.335c-0.128-0.019-0.39-0.039-0.786-0.062s-0.856-0.034-1.381-0.034
			c-0.492,0.096-0.842,0.257-1.05,0.481c-0.207,0.227-0.311,0.517-0.311,0.872c0,0.159,0.034,0.313,0.103,0.458
			s0.187,0.28,0.355,0.403c0.159,0.118,0.374,0.216,0.643,0.29c0.269,0.076,0.597,0.113,0.984,0.113c0.67,0,1.197-0.129,1.583-0.387
			C125.03,104.949,125.223,104.559,125.223,104.034z M123.91,98.381c0-0.533-0.108-0.958-0.325-1.274
			c-0.216-0.317-0.521-0.476-0.912-0.476c-0.214,0-0.397,0.044-0.551,0.134c-0.152,0.088-0.276,0.215-0.372,0.379
			c-0.091,0.15-0.156,0.332-0.194,0.543c-0.039,0.213-0.059,0.43-0.059,0.653c0,0.506,0.11,0.918,0.332,1.237
			c0.221,0.319,0.507,0.479,0.857,0.479c0.392,0,0.693-0.158,0.906-0.475C123.804,99.264,123.91,98.864,123.91,98.381z"/>
		<path fill="#800000018000000180000001" d="M131.56,99.775c0.187,0.164,0.33,0.354,0.431,0.567s0.15,0.477,0.15,0.786
			c0,0.624-0.233,1.135-0.701,1.531c-0.467,0.396-1.071,0.595-1.814,0.595c-0.392,0-0.753-0.07-1.084-0.212
			c-0.33-0.142-0.565-0.271-0.707-0.39l-0.137,0.444h-0.513l-0.068-2.345h0.472c0.036,0.179,0.114,0.387,0.232,0.624
			c0.118,0.238,0.262,0.453,0.431,0.645c0.178,0.202,0.391,0.371,0.64,0.508c0.248,0.138,0.527,0.206,0.837,0.206
			c0.438,0,0.774-0.1,1.012-0.299s0.355-0.485,0.355-0.856c0-0.191-0.038-0.356-0.112-0.495c-0.076-0.14-0.187-0.262-0.332-0.366
			c-0.15-0.104-0.335-0.199-0.554-0.284c-0.219-0.084-0.463-0.167-0.731-0.249c-0.214-0.063-0.452-0.151-0.715-0.263
			c-0.262-0.112-0.486-0.243-0.673-0.394c-0.2-0.159-0.364-0.355-0.492-0.588s-0.191-0.506-0.191-0.82
			c0-0.552,0.205-1.019,0.615-1.401s0.959-0.574,1.647-0.574c0.265,0,0.534,0.034,0.811,0.103c0.275,0.068,0.5,0.15,0.673,0.246
			l0.157-0.355h0.492l0.103,2.167h-0.472c-0.096-0.485-0.302-0.88-0.619-1.185c-0.316-0.304-0.702-0.456-1.158-0.456
			c-0.374,0-0.668,0.094-0.882,0.282s-0.321,0.415-0.321,0.682c0,0.205,0.035,0.376,0.105,0.513
			c0.071,0.137,0.177,0.253,0.318,0.349c0.137,0.091,0.309,0.177,0.516,0.257c0.208,0.079,0.464,0.169,0.77,0.27
			c0.301,0.096,0.584,0.207,0.852,0.335C131.166,99.479,131.387,99.62,131.56,99.775z"/>
	</g>
	<g enable-background="new    ">
		<path fill="#800000018000000180000001" d="M27.406,119.877h-3.254v-0.451c0.105-0.009,0.213-0.019,0.325-0.027
			s0.208-0.027,0.291-0.055c0.127-0.041,0.222-0.112,0.284-0.215s0.092-0.235,0.092-0.399v-4.158c0-0.146-0.033-0.279-0.099-0.399
			c-0.066-0.121-0.158-0.222-0.277-0.304c-0.086-0.055-0.212-0.102-0.376-0.14c-0.164-0.039-0.314-0.063-0.451-0.072v-0.451
			l2.379-0.15l0.096,0.096v5.496c0,0.159,0.031,0.292,0.092,0.396s0.157,0.183,0.289,0.232c0.099,0.041,0.197,0.074,0.292,0.1
			c0.095,0.024,0.202,0.042,0.319,0.051V119.877z M26.552,110.396c0,0.26-0.085,0.486-0.256,0.681
			c-0.171,0.193-0.382,0.29-0.632,0.29c-0.232,0-0.434-0.093-0.605-0.276c-0.171-0.186-0.256-0.396-0.256-0.633
			c0-0.251,0.085-0.47,0.256-0.656s0.373-0.28,0.605-0.28c0.26,0,0.473,0.088,0.639,0.263
			C26.469,109.959,26.552,110.163,26.552,110.396z"/>
		<path fill="#800000018000000180000001" d="M35.685,119.877H32.39v-0.451c0.105-0.009,0.22-0.019,0.345-0.027
			s0.229-0.027,0.311-0.055c0.127-0.041,0.222-0.113,0.284-0.215c0.062-0.104,0.092-0.236,0.092-0.4v-3.466
			c0-0.479-0.113-0.848-0.339-1.107s-0.501-0.39-0.826-0.39c-0.242,0-0.463,0.037-0.665,0.113c-0.201,0.074-0.379,0.167-0.534,0.276
			c-0.151,0.104-0.271,0.218-0.36,0.339c-0.089,0.12-0.154,0.217-0.195,0.29v3.876c0,0.155,0.032,0.282,0.096,0.383
			s0.16,0.178,0.287,0.232c0.096,0.046,0.199,0.08,0.311,0.103s0.227,0.039,0.345,0.048v0.451H28.24v-0.451
			c0.105-0.009,0.213-0.019,0.325-0.027s0.208-0.027,0.291-0.055c0.127-0.041,0.222-0.112,0.284-0.215s0.092-0.235,0.092-0.399
			v-4.158c0-0.155-0.033-0.297-0.099-0.427s-0.158-0.235-0.277-0.317c-0.086-0.055-0.189-0.095-0.308-0.12
			c-0.119-0.024-0.246-0.042-0.383-0.051v-0.451l2.242-0.15l0.096,0.096v0.95h0.034c0.109-0.109,0.246-0.24,0.41-0.394
			c0.164-0.152,0.319-0.276,0.465-0.372c0.168-0.109,0.369-0.2,0.602-0.273s0.495-0.109,0.786-0.109
			c0.647,0,1.127,0.202,1.439,0.604c0.312,0.404,0.468,0.94,0.468,1.61v3.507c0,0.159,0.027,0.288,0.082,0.387
			c0.055,0.098,0.148,0.174,0.28,0.229c0.109,0.046,0.204,0.077,0.284,0.096s0.19,0.032,0.332,0.041V119.877z"/>
		<path fill="#800000018000000180000001" d="M39.629,120.055c-0.975,0-1.739-0.323-2.29-0.971s-0.827-1.516-0.827-2.604
			c0-0.474,0.074-0.917,0.222-1.329c0.148-0.413,0.363-0.788,0.646-1.125c0.269-0.323,0.606-0.584,1.012-0.783
			c0.406-0.197,0.848-0.297,1.326-0.297c0.661,0,1.199,0.158,1.613,0.475c0.415,0.317,0.622,0.749,0.622,1.296
			c0,0.228-0.055,0.43-0.164,0.604c-0.109,0.176-0.29,0.264-0.54,0.264c-0.269,0-0.478-0.068-0.625-0.204
			c-0.148-0.137-0.222-0.289-0.222-0.457c0-0.204,0.027-0.414,0.082-0.63s0.086-0.374,0.096-0.474
			c-0.082-0.141-0.204-0.235-0.365-0.283c-0.162-0.048-0.335-0.071-0.521-0.071c-0.218,0-0.426,0.047-0.624,0.141
			c-0.198,0.093-0.39,0.265-0.576,0.516c-0.168,0.228-0.305,0.535-0.409,0.923s-0.157,0.85-0.157,1.388
			c0,0.848,0.188,1.539,0.563,2.074c0.375,0.536,0.868,0.804,1.478,0.804c0.441,0,0.812-0.107,1.109-0.323
			c0.298-0.215,0.574-0.538,0.829-0.969l0.437,0.287c-0.301,0.538-0.697,0.964-1.189,1.278S40.153,120.055,39.629,120.055z"/>
		<path fill="#800000018000000180000001" d="M46.027,119.877h-3.288v-0.451c0.105-0.009,0.216-0.02,0.335-0.031
			c0.119-0.011,0.216-0.028,0.294-0.051c0.127-0.041,0.223-0.113,0.287-0.216s0.096-0.235,0.096-0.4v-7.812
			c0-0.164-0.035-0.318-0.106-0.462s-0.163-0.257-0.277-0.339c-0.082-0.055-0.232-0.104-0.451-0.15s-0.394-0.073-0.526-0.082v-0.438
			l2.536-0.15l0.096,0.103v9.249c0,0.159,0.03,0.291,0.089,0.393c0.059,0.104,0.155,0.182,0.287,0.236
			c0.1,0.046,0.199,0.08,0.297,0.103s0.208,0.039,0.332,0.048V119.877z"/>
		<path fill="#800000018000000180000001" d="M54.101,119.754l-2.201,0.15l-0.103-0.096v-0.854h-0.041
			c-0.109,0.114-0.232,0.235-0.369,0.366c-0.136,0.129-0.293,0.247-0.471,0.352c-0.205,0.123-0.403,0.217-0.594,0.28
			c-0.191,0.063-0.462,0.096-0.812,0.096c-0.596,0-1.05-0.194-1.362-0.584c-0.312-0.389-0.467-0.955-0.467-1.696v-3.224
			c0-0.164-0.031-0.302-0.093-0.413s-0.153-0.208-0.272-0.29c-0.083-0.055-0.186-0.095-0.31-0.12
			c-0.124-0.024-0.254-0.042-0.392-0.051v-0.451l2.249-0.164l0.103,0.096v4.683c0,0.487,0.109,0.854,0.328,1.101
			s0.481,0.369,0.786,0.369c0.25,0,0.474-0.039,0.67-0.116s0.36-0.168,0.492-0.273c0.123-0.095,0.231-0.196,0.325-0.304
			c0.093-0.106,0.165-0.205,0.215-0.297v-3.816c0-0.15-0.032-0.283-0.096-0.399s-0.153-0.215-0.267-0.297
			c-0.082-0.055-0.204-0.088-0.366-0.099c-0.162-0.012-0.343-0.022-0.543-0.031v-0.451l2.454-0.164l0.103,0.096v5.347
			c0,0.154,0.032,0.287,0.096,0.396c0.064,0.108,0.153,0.202,0.267,0.279c0.082,0.051,0.18,0.083,0.294,0.1
			c0.114,0.016,0.239,0.025,0.376,0.03V119.754z"/>
		<path fill="#800000018000000180000001" d="M62.311,119.754l-2.358,0.15l-0.103-0.096v-0.629l-0.055-0.014
			c-0.236,0.265-0.529,0.48-0.877,0.649c-0.349,0.169-0.707,0.253-1.075,0.253c-0.383,0-0.752-0.086-1.109-0.256
			c-0.357-0.172-0.668-0.412-0.932-0.722c-0.269-0.314-0.481-0.692-0.639-1.135c-0.157-0.442-0.235-0.93-0.235-1.463
			c0-0.487,0.084-0.95,0.252-1.388s0.4-0.82,0.697-1.148c0.277-0.306,0.617-0.549,1.021-0.731c0.402-0.183,0.813-0.273,1.231-0.273
			c0.314,0,0.623,0.04,0.926,0.12c0.302,0.079,0.563,0.181,0.781,0.304v-2.35c0-0.191-0.032-0.366-0.096-0.523
			c-0.063-0.158-0.152-0.277-0.267-0.359c-0.128-0.087-0.3-0.149-0.517-0.188c-0.216-0.039-0.449-0.067-0.7-0.086v-0.424l2.762-0.15
			l0.103,0.103v9.086c0,0.159,0.031,0.295,0.092,0.406c0.063,0.111,0.152,0.206,0.271,0.283c0.087,0.055,0.212,0.089,0.376,0.103
			s0.314,0.022,0.451,0.027V119.754z M59.836,118.571v-3.944c-0.036-0.118-0.096-0.246-0.178-0.383
			c-0.081-0.137-0.184-0.262-0.307-0.376c-0.132-0.114-0.286-0.208-0.464-0.284c-0.178-0.074-0.385-0.112-0.621-0.112
			c-0.272,0-0.524,0.07-0.754,0.212s-0.434,0.344-0.61,0.608c-0.168,0.255-0.302,0.58-0.399,0.974
			c-0.098,0.395-0.146,0.831-0.146,1.31c0,0.383,0.036,0.73,0.109,1.042c0.072,0.313,0.195,0.604,0.368,0.872
			c0.159,0.255,0.362,0.46,0.61,0.615s0.543,0.232,0.884,0.232c0.364,0,0.665-0.08,0.904-0.239
			C59.471,118.938,59.672,118.763,59.836,118.571z"/>
		<path fill="#800000018000000180000001" d="M68.955,118.291c-0.282,0.538-0.661,0.966-1.135,1.285s-1.019,0.479-1.634,0.479
			c-0.542,0-1.018-0.096-1.425-0.287c-0.408-0.191-0.744-0.451-1.009-0.779s-0.462-0.711-0.591-1.148
			c-0.131-0.438-0.195-0.9-0.195-1.388c0-0.438,0.069-0.867,0.209-1.288c0.139-0.422,0.343-0.802,0.611-1.139
			c0.26-0.323,0.582-0.584,0.967-0.783c0.386-0.197,0.817-0.297,1.296-0.297c0.492,0,0.914,0.077,1.265,0.232
			s0.636,0.367,0.854,0.636c0.21,0.255,0.366,0.556,0.468,0.902c0.104,0.347,0.154,0.723,0.154,1.128v0.451h-4.464
			c0,0.443,0.042,0.845,0.126,1.206c0.085,0.36,0.218,0.678,0.4,0.952c0.178,0.265,0.41,0.474,0.697,0.627s0.629,0.229,1.025,0.229
			c0.405,0,0.756-0.095,1.049-0.285c0.295-0.19,0.578-0.532,0.852-1.027L68.955,118.291z M67.444,115.721
			c0-0.255-0.021-0.527-0.065-0.817c-0.043-0.291-0.112-0.534-0.208-0.729c-0.104-0.209-0.248-0.38-0.431-0.512
			s-0.417-0.197-0.704-0.197c-0.479,0-0.876,0.199-1.192,0.597c-0.317,0.397-0.489,0.95-0.517,1.659H67.444z"/>
		<path fill="#800000018000000180000001" d="M77.117,119.754l-2.358,0.15l-0.103-0.096v-0.629l-0.055-0.014
			c-0.236,0.265-0.529,0.48-0.877,0.649c-0.349,0.169-0.707,0.253-1.075,0.253c-0.383,0-0.752-0.086-1.109-0.256
			c-0.357-0.172-0.668-0.412-0.932-0.722c-0.269-0.314-0.481-0.692-0.639-1.135s-0.235-0.93-0.235-1.463
			c0-0.487,0.084-0.95,0.253-1.388c0.168-0.438,0.4-0.82,0.696-1.148c0.277-0.306,0.617-0.549,1.021-0.731
			c0.402-0.183,0.813-0.273,1.231-0.273c0.314,0,0.623,0.04,0.926,0.12c0.302,0.079,0.563,0.181,0.781,0.304v-2.35
			c0-0.191-0.032-0.366-0.096-0.523c-0.063-0.158-0.152-0.277-0.267-0.359c-0.128-0.087-0.3-0.149-0.517-0.188
			c-0.216-0.039-0.449-0.067-0.7-0.086v-0.424l2.762-0.15l0.103,0.103v9.086c0,0.159,0.031,0.295,0.092,0.406
			c0.063,0.111,0.152,0.206,0.271,0.283c0.087,0.055,0.212,0.089,0.376,0.103s0.314,0.022,0.451,0.027V119.754z M74.643,118.571
			v-3.944c-0.036-0.118-0.096-0.246-0.178-0.383c-0.081-0.137-0.184-0.262-0.307-0.376c-0.132-0.114-0.286-0.208-0.464-0.284
			c-0.178-0.074-0.385-0.112-0.621-0.112c-0.272,0-0.524,0.07-0.754,0.212s-0.434,0.344-0.61,0.608
			c-0.168,0.255-0.302,0.58-0.399,0.974c-0.098,0.395-0.146,0.831-0.146,1.31c0,0.383,0.036,0.73,0.109,1.042
			c0.072,0.313,0.195,0.604,0.368,0.872c0.159,0.255,0.362,0.46,0.61,0.615s0.543,0.232,0.884,0.232c0.364,0,0.665-0.08,0.904-0.239
			C74.277,118.938,74.479,118.763,74.643,118.571z"/>
		<path fill="#800000018000000180000001" d="M84.418,119.877h-3.254v-0.451c0.104-0.009,0.213-0.019,0.324-0.027
			c0.112-0.009,0.209-0.027,0.291-0.055c0.128-0.041,0.223-0.112,0.283-0.215c0.063-0.103,0.093-0.235,0.093-0.399v-4.158
			c0-0.146-0.033-0.279-0.099-0.399c-0.066-0.121-0.159-0.222-0.277-0.304c-0.087-0.055-0.212-0.102-0.376-0.14
			c-0.164-0.039-0.314-0.063-0.451-0.072v-0.451l2.379-0.15l0.096,0.096v5.496c0,0.159,0.03,0.292,0.092,0.396
			c0.061,0.104,0.157,0.183,0.288,0.232c0.1,0.041,0.197,0.074,0.292,0.1c0.096,0.024,0.201,0.042,0.319,0.051V119.877z
			 M83.563,110.396c0,0.26-0.085,0.486-0.257,0.681c-0.17,0.193-0.381,0.29-0.632,0.29c-0.232,0-0.435-0.093-0.604-0.276
			c-0.172-0.186-0.257-0.396-0.257-0.633c0-0.251,0.085-0.47,0.257-0.656c0.17-0.187,0.372-0.28,0.604-0.28
			c0.26,0,0.473,0.088,0.64,0.263C83.48,109.959,83.563,110.163,83.563,110.396z"/>
		<path fill="#800000018000000180000001" d="M92.696,119.877h-3.295v-0.451c0.104-0.009,0.22-0.019,0.345-0.027
			c0.126-0.009,0.229-0.027,0.312-0.055c0.128-0.041,0.222-0.113,0.284-0.215c0.061-0.104,0.092-0.236,0.092-0.4v-3.466
			c0-0.479-0.113-0.848-0.339-1.107c-0.227-0.26-0.502-0.39-0.826-0.39c-0.242,0-0.464,0.037-0.664,0.113
			c-0.201,0.074-0.38,0.167-0.535,0.276c-0.15,0.104-0.271,0.218-0.359,0.339c-0.089,0.12-0.154,0.217-0.195,0.29v3.876
			c0,0.155,0.032,0.282,0.096,0.383s0.159,0.178,0.287,0.232c0.096,0.046,0.199,0.08,0.312,0.103
			c0.111,0.022,0.227,0.039,0.345,0.048v0.451h-3.302v-0.451c0.104-0.009,0.213-0.019,0.324-0.027
			c0.112-0.009,0.209-0.027,0.291-0.055c0.128-0.041,0.223-0.112,0.283-0.215c0.063-0.103,0.093-0.235,0.093-0.399v-4.158
			c0-0.155-0.033-0.297-0.099-0.427c-0.066-0.13-0.159-0.235-0.277-0.317c-0.087-0.055-0.189-0.095-0.308-0.12
			c-0.118-0.024-0.246-0.042-0.383-0.051v-0.451l2.242-0.15l0.096,0.096v0.95h0.034c0.109-0.109,0.246-0.24,0.41-0.394
			c0.164-0.152,0.319-0.276,0.465-0.372c0.169-0.109,0.369-0.2,0.602-0.273s0.494-0.109,0.786-0.109
			c0.647,0,1.127,0.202,1.438,0.604c0.313,0.404,0.469,0.94,0.469,1.61v3.507c0,0.159,0.027,0.288,0.082,0.387
			c0.055,0.098,0.148,0.174,0.28,0.229c0.109,0.046,0.204,0.077,0.284,0.096c0.079,0.019,0.189,0.032,0.331,0.041V119.877z"/>
		<path fill="#800000018000000180000001" d="M104.345,119.877h-3.295v-0.451c0.104-0.009,0.22-0.019,0.345-0.027
			c0.126-0.009,0.229-0.027,0.312-0.055c0.128-0.041,0.222-0.113,0.284-0.215c0.061-0.104,0.092-0.236,0.092-0.4v-3.466
			c0-0.479-0.113-0.848-0.339-1.107c-0.227-0.26-0.502-0.39-0.826-0.39c-0.242,0-0.464,0.037-0.664,0.113
			c-0.201,0.074-0.38,0.167-0.535,0.276c-0.15,0.104-0.271,0.218-0.359,0.339c-0.089,0.12-0.154,0.217-0.195,0.29v3.876
			c0,0.155,0.032,0.282,0.096,0.383s0.159,0.178,0.287,0.232c0.096,0.046,0.199,0.08,0.312,0.103
			c0.111,0.022,0.227,0.039,0.345,0.048v0.451H96.9v-0.451c0.104-0.009,0.213-0.019,0.324-0.027
			c0.112-0.009,0.209-0.027,0.291-0.055c0.128-0.041,0.223-0.112,0.283-0.215c0.063-0.103,0.093-0.235,0.093-0.399v-4.158
			c0-0.155-0.033-0.297-0.099-0.427c-0.066-0.13-0.159-0.235-0.277-0.317c-0.087-0.055-0.189-0.095-0.308-0.12
			c-0.118-0.024-0.246-0.042-0.383-0.051v-0.451l2.242-0.15l0.096,0.096v0.95h0.034c0.109-0.109,0.246-0.24,0.41-0.394
			c0.164-0.152,0.319-0.276,0.465-0.372c0.169-0.109,0.369-0.2,0.602-0.273s0.494-0.109,0.786-0.109
			c0.647,0,1.127,0.202,1.438,0.604c0.313,0.404,0.469,0.94,0.469,1.61v3.507c0,0.159,0.027,0.288,0.082,0.387
			c0.055,0.098,0.148,0.174,0.28,0.229c0.109,0.046,0.204,0.077,0.284,0.096c0.079,0.019,0.189,0.032,0.331,0.041V119.877z"/>
		<path fill="#800000018000000180000001" d="M111.16,118.291c-0.282,0.538-0.661,0.966-1.135,1.285s-1.019,0.479-1.634,0.479
			c-0.542,0-1.018-0.096-1.425-0.287c-0.408-0.191-0.744-0.451-1.009-0.779s-0.462-0.711-0.591-1.148
			c-0.131-0.438-0.195-0.9-0.195-1.388c0-0.438,0.069-0.867,0.209-1.288c0.139-0.422,0.343-0.802,0.611-1.139
			c0.26-0.323,0.582-0.584,0.967-0.783c0.386-0.197,0.817-0.297,1.296-0.297c0.492,0,0.914,0.077,1.265,0.232
			s0.636,0.367,0.854,0.636c0.21,0.255,0.366,0.556,0.468,0.902c0.104,0.347,0.154,0.723,0.154,1.128v0.451h-4.464
			c0,0.443,0.042,0.845,0.126,1.206c0.085,0.36,0.218,0.678,0.4,0.952c0.178,0.265,0.41,0.474,0.697,0.627s0.629,0.229,1.025,0.229
			c0.405,0,0.756-0.095,1.049-0.285c0.295-0.19,0.578-0.532,0.852-1.027L111.16,118.291z M109.649,115.721
			c0-0.255-0.021-0.527-0.065-0.817c-0.043-0.291-0.112-0.534-0.208-0.729c-0.104-0.209-0.248-0.38-0.431-0.512
			s-0.417-0.197-0.704-0.197c-0.479,0-0.876,0.199-1.192,0.597c-0.317,0.397-0.489,0.95-0.517,1.659H109.649z"/>
		<path fill="#800000018000000180000001" d="M121.981,113.574c-0.191,0.019-0.397,0.098-0.618,0.239
			c-0.222,0.142-0.382,0.354-0.482,0.636c-0.228,0.67-0.443,1.305-0.646,1.904c-0.202,0.599-0.429,1.272-0.68,2.02
			c-0.082,0.237-0.165,0.492-0.25,0.766c-0.084,0.273-0.16,0.535-0.229,0.786h-0.583l-1.818-4.968l-1.821,4.968h-0.563
			c-0.342-1.012-0.676-2.016-1.002-3.011c-0.325-0.996-0.613-1.863-0.864-2.602c-0.073-0.214-0.212-0.383-0.417-0.506
			s-0.403-0.196-0.595-0.219v-0.451h3.006v0.479c-0.15,0.005-0.313,0.029-0.488,0.075s-0.264,0.121-0.264,0.226
			c0,0.019,0.009,0.057,0.024,0.116s0.035,0.123,0.058,0.191c0.146,0.478,0.312,1.011,0.496,1.6c0.185,0.59,0.422,1.354,0.714,2.296
			l1.719-4.846h0.662l1.756,4.778c0.196-0.609,0.392-1.2,0.586-1.771c0.193-0.57,0.363-1.106,0.51-1.606
			c0.031-0.118,0.063-0.227,0.092-0.325c0.029-0.098,0.045-0.194,0.045-0.29c0-0.082-0.037-0.155-0.109-0.219
			c-0.073-0.063-0.162-0.116-0.267-0.157c-0.092-0.036-0.19-0.063-0.298-0.082s-0.186-0.027-0.235-0.027v-0.438h2.563V113.574z"/>
		<path fill="#800000018000000180000001" d="M125.42,119.877h-3.288v-0.451c0.104-0.009,0.217-0.02,0.335-0.031
			c0.118-0.011,0.217-0.028,0.294-0.051c0.128-0.041,0.224-0.113,0.287-0.216s0.096-0.235,0.096-0.4v-7.812
			c0-0.164-0.035-0.318-0.106-0.462c-0.07-0.144-0.162-0.257-0.276-0.339c-0.082-0.055-0.232-0.104-0.451-0.15
			s-0.395-0.073-0.526-0.082v-0.438l2.536-0.15l0.096,0.103v9.249c0,0.159,0.029,0.291,0.089,0.393
			c0.06,0.104,0.155,0.182,0.287,0.236c0.101,0.046,0.199,0.08,0.297,0.103c0.099,0.022,0.209,0.039,0.332,0.048V119.877z"/>
		<path fill="#800000018000000180000001" d="M125.755,122.078c0-0.228,0.063-0.414,0.188-0.557c0.126-0.145,0.281-0.216,0.469-0.216
			c0.146,0,0.271,0.027,0.376,0.081c0.104,0.055,0.198,0.125,0.28,0.211c0.068,0.067,0.141,0.16,0.219,0.277
			c0.077,0.118,0.139,0.215,0.185,0.292c0.228-0.123,0.5-0.443,0.816-0.962s0.546-0.973,0.687-1.364
			c-0.433-1.079-0.824-2.045-1.175-2.897c-0.352-0.852-0.718-1.733-1.101-2.645c-0.087-0.21-0.232-0.373-0.438-0.488
			c-0.205-0.117-0.41-0.19-0.615-0.223v-0.451h3.077v0.479c-0.137,0.005-0.301,0.033-0.492,0.086
			c-0.191,0.052-0.287,0.112-0.287,0.181c0,0.027,0.011,0.072,0.031,0.137c0.021,0.063,0.044,0.13,0.071,0.197
			c0.173,0.451,0.437,1.102,0.791,1.95c0.354,0.85,0.63,1.529,0.825,2.039c0.205-0.487,0.418-0.991,0.64-1.513
			s0.469-1.138,0.742-1.848c0.032-0.087,0.078-0.206,0.138-0.358c0.059-0.152,0.089-0.283,0.089-0.393
			c0-0.119-0.104-0.229-0.312-0.332c-0.207-0.102-0.404-0.165-0.591-0.188v-0.438h2.503v0.424c-0.137,0.022-0.316,0.102-0.54,0.236
			c-0.224,0.134-0.39,0.324-0.499,0.57c-0.542,1.258-1.024,2.404-1.445,3.438c-0.422,1.034-0.742,1.796-0.961,2.283
			c-0.287,0.638-0.543,1.136-0.77,1.493c-0.225,0.358-0.445,0.64-0.659,0.845c-0.21,0.191-0.399,0.32-0.571,0.386
			c-0.17,0.066-0.347,0.1-0.529,0.1c-0.355,0-0.635-0.084-0.838-0.253C125.856,122.49,125.755,122.297,125.755,122.078z"/>
	</g>
	<g enable-background="new    ">
		<path fill="#800000018000000180000001" d="M8.595,126.915c0,0.205-0.055,0.378-0.164,0.52s-0.276,0.212-0.499,0.212
			c-0.141,0-0.266-0.029-0.373-0.089s-0.206-0.139-0.297-0.239s-0.175-0.214-0.253-0.342s-0.144-0.23-0.198-0.308
			c-0.305,0.014-0.541,0.227-0.708,0.638c-0.167,0.412-0.25,1.067-0.25,1.968v0.689H7.59v0.656H5.854v4.84
			c0,0.159,0.031,0.289,0.092,0.39s0.158,0.176,0.291,0.226c0.109,0.041,0.255,0.074,0.438,0.1c0.182,0.024,0.339,0.042,0.472,0.051
			v0.451H3.591v-0.451c0.105-0.009,0.213-0.019,0.325-0.027s0.208-0.027,0.291-0.055c0.127-0.041,0.222-0.113,0.284-0.215
			c0.062-0.104,0.092-0.236,0.092-0.4v-4.908H3.249v-0.656h1.333v-0.43c0-1.023,0.266-1.853,0.796-2.487s1.195-0.952,1.993-0.952
			c0.406,0,0.711,0.08,0.916,0.239S8.595,126.688,8.595,126.915z"/>
		<path fill="#800000018000000180000001" d="M14.706,133.238c0,0.474-0.075,0.94-0.226,1.397c-0.151,0.459-0.365,0.847-0.644,1.166
			c-0.315,0.364-0.68,0.636-1.095,0.813s-0.881,0.267-1.396,0.267c-0.429,0-0.837-0.081-1.225-0.242
			c-0.388-0.162-0.732-0.398-1.033-0.708c-0.296-0.306-0.533-0.678-0.708-1.118c-0.175-0.439-0.263-0.933-0.263-1.479
			c0-1.053,0.307-1.914,0.92-2.584c0.613-0.67,1.417-1.005,2.412-1.005c0.944,0,1.723,0.318,2.337,0.953
			C14.399,131.335,14.706,132.181,14.706,133.238z M13.291,133.252c0-0.342-0.034-0.703-0.103-1.083
			c-0.069-0.381-0.171-0.703-0.309-0.968c-0.146-0.282-0.338-0.509-0.575-0.681c-0.237-0.17-0.527-0.256-0.87-0.256
			c-0.352,0-0.652,0.087-0.9,0.26c-0.249,0.173-0.451,0.41-0.606,0.711c-0.146,0.278-0.249,0.595-0.309,0.95
			c-0.059,0.355-0.089,0.699-0.089,1.032c0,0.438,0.035,0.842,0.106,1.213c0.071,0.372,0.184,0.703,0.339,0.995
			s0.35,0.521,0.585,0.687c0.235,0.167,0.526,0.25,0.873,0.25c0.571,0,1.023-0.275,1.356-0.827
			C13.125,134.983,13.291,134.223,13.291,133.252z"/>
		<path fill="#800000018000000180000001" d="M20.838,130.805c0,0.232-0.057,0.438-0.171,0.618c-0.114,0.181-0.29,0.271-0.526,0.271
			c-0.255,0-0.45-0.066-0.584-0.198s-0.202-0.278-0.202-0.438c0-0.101,0.008-0.191,0.024-0.273s0.031-0.164,0.044-0.246
			c-0.214,0-0.465,0.087-0.752,0.26s-0.531,0.419-0.731,0.738v3.924c0,0.159,0.031,0.289,0.092,0.39s0.158,0.176,0.291,0.226
			c0.114,0.046,0.261,0.08,0.441,0.103s0.336,0.039,0.468,0.048v0.451h-3.555v-0.451c0.105-0.009,0.213-0.019,0.325-0.027
			s0.208-0.027,0.291-0.055c0.127-0.041,0.222-0.112,0.284-0.215s0.092-0.235,0.092-0.399v-4.158c0-0.142-0.033-0.28-0.099-0.417
			c-0.066-0.136-0.158-0.245-0.277-0.327c-0.086-0.055-0.189-0.095-0.308-0.12c-0.119-0.024-0.246-0.042-0.383-0.051v-0.451
			l2.242-0.15l0.096,0.096v0.95h0.034c0.283-0.369,0.597-0.649,0.943-0.841s0.663-0.287,0.95-0.287s0.521,0.094,0.701,0.28
			S20.838,130.49,20.838,130.805z"/>
		<path fill="#800000018000000180000001" d="M32.944,136.677h-3.281v-0.451c0.105-0.009,0.211-0.019,0.318-0.027
			s0.202-0.027,0.284-0.055c0.127-0.041,0.222-0.113,0.284-0.215c0.062-0.104,0.092-0.236,0.092-0.4v-3.479
			c0-0.474-0.108-0.84-0.325-1.097c-0.216-0.258-0.486-0.387-0.81-0.387c-0.223,0-0.433,0.034-0.629,0.103s-0.376,0.164-0.54,0.287
			c-0.132,0.101-0.243,0.208-0.332,0.325c-0.089,0.115-0.156,0.213-0.202,0.29v3.89c0,0.159,0.027,0.291,0.082,0.393
			c0.055,0.104,0.148,0.182,0.28,0.236c0.105,0.041,0.199,0.072,0.284,0.092c0.084,0.021,0.195,0.036,0.332,0.045v0.451h-3.213
			v-0.451c0.105-0.009,0.206-0.019,0.304-0.027s0.188-0.027,0.27-0.055c0.127-0.041,0.222-0.113,0.284-0.215
			c0.062-0.104,0.092-0.236,0.092-0.4v-3.479c0-0.474-0.108-0.84-0.326-1.097c-0.217-0.258-0.488-0.387-0.812-0.387
			c-0.224,0-0.434,0.035-0.63,0.105c-0.196,0.071-0.376,0.168-0.541,0.291c-0.133,0.101-0.245,0.213-0.336,0.338
			c-0.091,0.126-0.16,0.221-0.206,0.284v3.862c0,0.155,0.032,0.285,0.096,0.39s0.16,0.185,0.287,0.239
			c0.096,0.046,0.194,0.08,0.294,0.103s0.212,0.039,0.335,0.048v0.451h-3.274v-0.451c0.105-0.009,0.213-0.019,0.325-0.027
			s0.208-0.027,0.291-0.055c0.127-0.041,0.222-0.112,0.284-0.215s0.092-0.235,0.092-0.399v-4.186c0-0.146-0.033-0.276-0.099-0.393
			s-0.158-0.215-0.277-0.297c-0.086-0.055-0.194-0.099-0.321-0.134c-0.127-0.033-0.26-0.056-0.396-0.064v-0.451l2.256-0.15
			l0.096,0.096v0.964h0.048c0.114-0.114,0.253-0.248,0.417-0.403s0.317-0.28,0.458-0.376c0.16-0.109,0.359-0.2,0.598-0.273
			s0.498-0.109,0.776-0.109c0.438,0,0.813,0.117,1.128,0.353c0.314,0.234,0.54,0.518,0.677,0.851c0.164-0.159,0.308-0.3,0.433-0.421
			c0.125-0.12,0.29-0.249,0.495-0.386c0.173-0.118,0.376-0.214,0.611-0.287s0.495-0.109,0.781-0.109
			c0.569,0,1.019,0.187,1.352,0.561c0.332,0.374,0.498,0.948,0.498,1.723v3.425c0,0.159,0.027,0.291,0.082,0.393
			c0.055,0.104,0.148,0.182,0.28,0.236c0.105,0.041,0.208,0.072,0.311,0.092c0.103,0.021,0.218,0.036,0.345,0.045V136.677z"/>
		<path fill="#800000018000000180000001" d="M39.732,135.091c-0.282,0.538-0.661,0.966-1.135,1.285s-1.019,0.479-1.634,0.479
			c-0.542,0-1.018-0.096-1.425-0.287c-0.408-0.191-0.745-0.451-1.009-0.779s-0.461-0.711-0.591-1.148s-0.195-0.9-0.195-1.388
			c0-0.438,0.069-0.867,0.208-1.288c0.139-0.422,0.343-0.802,0.612-1.139c0.26-0.323,0.582-0.584,0.967-0.783
			c0.386-0.197,0.817-0.297,1.296-0.297c0.492,0,0.914,0.077,1.265,0.232s0.636,0.367,0.854,0.636
			c0.21,0.255,0.366,0.556,0.468,0.902c0.104,0.347,0.154,0.723,0.154,1.128v0.451h-4.464c0,0.443,0.042,0.845,0.127,1.206
			c0.084,0.36,0.217,0.678,0.399,0.952c0.178,0.265,0.41,0.474,0.697,0.627s0.629,0.229,1.025,0.229
			c0.405,0,0.756-0.095,1.049-0.285c0.295-0.19,0.578-0.532,0.852-1.027L39.732,135.091z M38.222,132.521
			c0-0.255-0.021-0.527-0.065-0.817c-0.043-0.291-0.112-0.534-0.208-0.729c-0.104-0.209-0.248-0.38-0.431-0.512
			s-0.417-0.197-0.704-0.197c-0.479,0-0.876,0.199-1.192,0.597c-0.317,0.397-0.489,0.95-0.517,1.659H38.222z"/>
		<path fill="#800000018000000180000001" d="M47.895,136.554l-2.358,0.15l-0.103-0.096v-0.629l-0.055-0.014
			c-0.236,0.265-0.529,0.48-0.877,0.649c-0.349,0.169-0.707,0.253-1.075,0.253c-0.383,0-0.752-0.086-1.109-0.256
			c-0.357-0.172-0.668-0.412-0.932-0.722c-0.269-0.314-0.481-0.692-0.639-1.135s-0.235-0.93-0.235-1.463
			c0-0.487,0.084-0.95,0.253-1.388c0.168-0.438,0.4-0.82,0.696-1.148c0.277-0.306,0.617-0.549,1.021-0.731
			c0.402-0.183,0.813-0.273,1.231-0.273c0.314,0,0.623,0.04,0.926,0.12c0.302,0.079,0.563,0.181,0.781,0.304v-2.35
			c0-0.191-0.032-0.366-0.096-0.523c-0.063-0.158-0.152-0.277-0.267-0.359c-0.128-0.087-0.3-0.149-0.517-0.188
			c-0.216-0.039-0.449-0.067-0.7-0.086v-0.424l2.762-0.15l0.103,0.103v9.086c0,0.159,0.031,0.295,0.092,0.406
			c0.063,0.111,0.152,0.206,0.271,0.283c0.087,0.055,0.212,0.089,0.376,0.103s0.314,0.022,0.451,0.027V136.554z M45.42,135.371
			v-3.944c-0.036-0.118-0.096-0.246-0.178-0.383c-0.081-0.137-0.184-0.262-0.307-0.376c-0.132-0.114-0.286-0.208-0.464-0.284
			c-0.178-0.074-0.385-0.112-0.621-0.112c-0.272,0-0.524,0.07-0.754,0.212s-0.434,0.344-0.61,0.608
			c-0.168,0.255-0.302,0.58-0.399,0.974c-0.098,0.395-0.146,0.831-0.146,1.31c0,0.383,0.036,0.73,0.109,1.042
			c0.072,0.313,0.195,0.604,0.368,0.872c0.159,0.255,0.362,0.46,0.61,0.615s0.543,0.232,0.884,0.232c0.364,0,0.665-0.08,0.904-0.239
			C45.055,135.738,45.256,135.563,45.42,135.371z"/>
		<path fill="#800000018000000180000001" d="M55.045,136.854c-0.976,0-1.738-0.323-2.29-0.971s-0.827-1.516-0.827-2.604
			c0-0.474,0.074-0.917,0.223-1.329c0.147-0.413,0.363-0.788,0.646-1.125c0.269-0.323,0.606-0.584,1.012-0.783
			c0.405-0.197,0.848-0.297,1.326-0.297c0.661,0,1.198,0.158,1.613,0.475c0.415,0.317,0.622,0.749,0.622,1.296
			c0,0.228-0.055,0.43-0.164,0.604c-0.109,0.176-0.289,0.264-0.54,0.264c-0.269,0-0.478-0.068-0.626-0.204
			c-0.147-0.137-0.222-0.289-0.222-0.457c0-0.204,0.027-0.414,0.082-0.63s0.087-0.374,0.096-0.474
			c-0.082-0.141-0.203-0.235-0.365-0.283c-0.161-0.048-0.335-0.071-0.521-0.071c-0.218,0-0.426,0.047-0.624,0.141
			c-0.197,0.093-0.39,0.265-0.576,0.516c-0.168,0.228-0.304,0.535-0.408,0.923c-0.105,0.388-0.157,0.85-0.157,1.388
			c0,0.848,0.188,1.539,0.563,2.074c0.375,0.536,0.867,0.804,1.478,0.804c0.441,0,0.811-0.107,1.108-0.323
			c0.299-0.215,0.575-0.538,0.83-0.969l0.437,0.287c-0.301,0.538-0.697,0.964-1.189,1.278S55.569,136.854,55.045,136.854z"/>
		<path fill="#800000018000000180000001" d="M64.67,136.554c-0.214,0.077-0.402,0.141-0.564,0.188
			c-0.161,0.049-0.345,0.072-0.55,0.072c-0.355,0-0.64-0.083-0.851-0.25c-0.213-0.166-0.348-0.408-0.407-0.728h-0.041
			c-0.296,0.328-0.614,0.579-0.954,0.752c-0.339,0.173-0.748,0.26-1.227,0.26c-0.506,0-0.922-0.155-1.248-0.465
			c-0.325-0.31-0.488-0.716-0.488-1.217c0-0.26,0.036-0.492,0.109-0.697s0.183-0.39,0.328-0.554
			c0.114-0.137,0.265-0.259,0.451-0.365c0.187-0.107,0.362-0.193,0.526-0.257c0.205-0.077,0.621-0.221,1.247-0.431
			c0.627-0.21,1.05-0.374,1.269-0.492v-0.677c0-0.06-0.013-0.173-0.038-0.342c-0.024-0.169-0.078-0.328-0.16-0.479
			c-0.091-0.169-0.22-0.315-0.387-0.44c-0.166-0.126-0.401-0.188-0.707-0.188c-0.21,0-0.404,0.035-0.584,0.106
			c-0.181,0.07-0.307,0.145-0.38,0.222c0,0.091,0.021,0.226,0.065,0.403c0.043,0.178,0.064,0.342,0.064,0.492
			c0,0.159-0.072,0.306-0.215,0.438c-0.145,0.132-0.344,0.198-0.599,0.198c-0.228,0-0.396-0.081-0.503-0.243
			c-0.106-0.161-0.16-0.343-0.16-0.543c0-0.21,0.074-0.41,0.223-0.602c0.147-0.191,0.34-0.362,0.577-0.513
			c0.205-0.128,0.453-0.235,0.745-0.325c0.292-0.088,0.576-0.133,0.854-0.133c0.383,0,0.717,0.026,1.001,0.078
			c0.285,0.053,0.544,0.166,0.776,0.339c0.232,0.169,0.409,0.397,0.53,0.687c0.12,0.29,0.181,0.662,0.181,1.118
			c0,0.651-0.007,1.229-0.021,1.733c-0.014,0.503-0.021,1.054-0.021,1.65c0,0.178,0.03,0.319,0.093,0.424
			c0.061,0.104,0.155,0.193,0.283,0.267c0.068,0.041,0.177,0.063,0.324,0.068c0.148,0.005,0.3,0.007,0.455,0.007V136.554z
			 M62.284,132.944c-0.388,0.114-0.727,0.227-1.019,0.336s-0.563,0.246-0.813,0.411c-0.228,0.155-0.408,0.339-0.54,0.551
			c-0.132,0.213-0.198,0.465-0.198,0.758c0,0.379,0.099,0.657,0.298,0.835c0.197,0.179,0.449,0.268,0.755,0.268
			c0.323,0,0.608-0.079,0.854-0.236s0.453-0.344,0.622-0.559L62.284,132.944z"/>
		<path fill="#800000018000000180000001" d="M72.784,136.677h-3.295v-0.451c0.104-0.009,0.22-0.019,0.345-0.027
			c0.126-0.009,0.229-0.027,0.312-0.055c0.128-0.041,0.222-0.113,0.284-0.215c0.061-0.104,0.092-0.236,0.092-0.4v-3.466
			c0-0.479-0.113-0.848-0.339-1.107c-0.227-0.26-0.502-0.39-0.826-0.39c-0.242,0-0.464,0.037-0.664,0.113
			c-0.201,0.074-0.38,0.167-0.535,0.276c-0.15,0.104-0.271,0.218-0.359,0.339c-0.089,0.12-0.154,0.217-0.195,0.29v3.876
			c0,0.155,0.032,0.282,0.096,0.383s0.159,0.178,0.287,0.232c0.096,0.046,0.199,0.08,0.312,0.103
			c0.111,0.022,0.227,0.039,0.345,0.048v0.451H65.34v-0.451c0.104-0.009,0.213-0.019,0.324-0.027
			c0.112-0.009,0.209-0.027,0.291-0.055c0.128-0.041,0.223-0.112,0.283-0.215c0.063-0.103,0.093-0.235,0.093-0.399v-4.158
			c0-0.155-0.033-0.297-0.099-0.427c-0.066-0.13-0.159-0.235-0.277-0.317c-0.087-0.055-0.189-0.095-0.308-0.12
			c-0.118-0.024-0.246-0.042-0.383-0.051v-0.451l2.242-0.15l0.096,0.096v0.95h0.034c0.109-0.109,0.246-0.24,0.41-0.394
			c0.164-0.152,0.319-0.276,0.465-0.372c0.169-0.109,0.369-0.2,0.602-0.273s0.494-0.109,0.786-0.109
			c0.647,0,1.127,0.202,1.438,0.604c0.313,0.404,0.469,0.94,0.469,1.61v3.507c0,0.159,0.027,0.288,0.082,0.387
			c0.055,0.098,0.148,0.174,0.28,0.229c0.109,0.046,0.204,0.077,0.284,0.096c0.079,0.019,0.189,0.032,0.331,0.041V136.677z"/>
		<path fill="#800000018000000180000001" d="M76.879,136.677h-3.254v-0.451c0.104-0.009,0.213-0.019,0.324-0.027
			c0.112-0.009,0.209-0.027,0.291-0.055c0.128-0.041,0.223-0.112,0.283-0.215c0.063-0.103,0.093-0.235,0.093-0.399v-4.158
			c0-0.146-0.033-0.279-0.099-0.399c-0.066-0.121-0.159-0.222-0.277-0.304c-0.087-0.055-0.212-0.102-0.376-0.14
			c-0.164-0.039-0.314-0.063-0.451-0.072v-0.451l2.379-0.15l0.096,0.096v5.496c0,0.159,0.03,0.292,0.092,0.396
			c0.061,0.104,0.157,0.183,0.288,0.232c0.1,0.041,0.197,0.074,0.292,0.1c0.096,0.024,0.201,0.042,0.319,0.051V136.677z
			 M76.024,127.195c0,0.26-0.085,0.486-0.257,0.681c-0.17,0.193-0.381,0.29-0.632,0.29c-0.232,0-0.435-0.093-0.604-0.276
			c-0.172-0.186-0.257-0.396-0.257-0.633c0-0.251,0.085-0.47,0.257-0.656c0.17-0.187,0.372-0.28,0.604-0.28
			c0.26,0,0.473,0.088,0.64,0.263C75.941,126.759,76.024,126.963,76.024,127.195z"/>
		<path fill="#800000018000000180000001" d="M85.157,136.677h-3.295v-0.451c0.104-0.009,0.22-0.019,0.345-0.027
			c0.126-0.009,0.229-0.027,0.312-0.055c0.128-0.041,0.222-0.113,0.284-0.215c0.061-0.104,0.092-0.236,0.092-0.4v-3.466
			c0-0.479-0.113-0.848-0.339-1.107c-0.227-0.26-0.502-0.39-0.826-0.39c-0.242,0-0.464,0.037-0.664,0.113
			c-0.201,0.074-0.38,0.167-0.535,0.276c-0.15,0.104-0.271,0.218-0.359,0.339c-0.089,0.12-0.154,0.217-0.195,0.29v3.876
			c0,0.155,0.032,0.282,0.096,0.383s0.159,0.178,0.287,0.232c0.096,0.046,0.199,0.08,0.312,0.103
			c0.111,0.022,0.227,0.039,0.345,0.048v0.451h-3.302v-0.451c0.104-0.009,0.213-0.019,0.324-0.027
			c0.112-0.009,0.209-0.027,0.291-0.055c0.128-0.041,0.223-0.112,0.283-0.215c0.063-0.103,0.093-0.235,0.093-0.399v-4.158
			c0-0.155-0.033-0.297-0.099-0.427c-0.066-0.13-0.159-0.235-0.277-0.317c-0.087-0.055-0.189-0.095-0.308-0.12
			c-0.118-0.024-0.246-0.042-0.383-0.051v-0.451l2.242-0.15l0.096,0.096v0.95h0.034c0.109-0.109,0.246-0.24,0.41-0.394
			c0.164-0.152,0.319-0.276,0.465-0.372c0.169-0.109,0.369-0.2,0.602-0.273s0.494-0.109,0.786-0.109
			c0.647,0,1.127,0.202,1.438,0.604c0.313,0.404,0.469,0.94,0.469,1.61v3.507c0,0.159,0.027,0.288,0.082,0.387
			c0.055,0.098,0.148,0.174,0.28,0.229c0.109,0.046,0.204,0.077,0.284,0.096c0.079,0.019,0.189,0.032,0.331,0.041V136.677z"/>
		<path fill="#800000018000000180000001" d="M91.973,135.091c-0.282,0.538-0.661,0.966-1.135,1.285s-1.019,0.479-1.634,0.479
			c-0.542,0-1.018-0.096-1.425-0.287c-0.408-0.191-0.744-0.451-1.009-0.779s-0.462-0.711-0.591-1.148
			c-0.131-0.438-0.195-0.9-0.195-1.388c0-0.438,0.069-0.867,0.209-1.288c0.139-0.422,0.343-0.802,0.611-1.139
			c0.26-0.323,0.582-0.584,0.967-0.783c0.386-0.197,0.817-0.297,1.296-0.297c0.492,0,0.914,0.077,1.265,0.232
			s0.636,0.367,0.854,0.636c0.21,0.255,0.366,0.556,0.468,0.902c0.104,0.347,0.154,0.723,0.154,1.128v0.451h-4.464
			c0,0.443,0.042,0.845,0.126,1.206c0.085,0.36,0.218,0.678,0.4,0.952c0.178,0.265,0.41,0.474,0.697,0.627s0.629,0.229,1.025,0.229
			c0.405,0,0.756-0.095,1.049-0.285c0.295-0.19,0.578-0.532,0.852-1.027L91.973,135.091z M90.462,132.521
			c0-0.255-0.021-0.527-0.065-0.817c-0.043-0.291-0.112-0.534-0.208-0.729c-0.104-0.209-0.248-0.38-0.431-0.512
			s-0.417-0.197-0.704-0.197c-0.479,0-0.876,0.199-1.192,0.597c-0.317,0.397-0.489,0.95-0.517,1.659H90.462z"/>
		<path fill="#800000018000000180000001" d="M100.579,133.375c0.187,0.164,0.33,0.354,0.431,0.567s0.15,0.477,0.15,0.786
			c0,0.624-0.233,1.135-0.701,1.531c-0.467,0.396-1.071,0.595-1.814,0.595c-0.392,0-0.753-0.07-1.084-0.212
			c-0.33-0.142-0.565-0.271-0.707-0.39l-0.137,0.444h-0.513l-0.068-2.345h0.472c0.036,0.179,0.114,0.387,0.232,0.624
			c0.118,0.238,0.262,0.453,0.431,0.645c0.178,0.202,0.391,0.371,0.64,0.508c0.248,0.138,0.527,0.206,0.837,0.206
			c0.438,0,0.774-0.1,1.012-0.299s0.355-0.485,0.355-0.856c0-0.191-0.038-0.356-0.112-0.495c-0.076-0.14-0.187-0.262-0.332-0.366
			c-0.15-0.104-0.335-0.199-0.554-0.284c-0.219-0.084-0.463-0.167-0.731-0.249c-0.214-0.063-0.452-0.151-0.715-0.263
			c-0.262-0.112-0.486-0.243-0.673-0.394c-0.2-0.159-0.364-0.355-0.492-0.588s-0.191-0.506-0.191-0.82
			c0-0.552,0.205-1.019,0.615-1.401s0.959-0.574,1.647-0.574c0.265,0,0.534,0.034,0.811,0.103c0.275,0.068,0.5,0.15,0.673,0.246
			l0.157-0.355h0.492l0.103,2.167h-0.472c-0.096-0.485-0.302-0.88-0.619-1.185c-0.316-0.304-0.702-0.456-1.158-0.456
			c-0.374,0-0.668,0.094-0.882,0.282s-0.321,0.415-0.321,0.682c0,0.205,0.035,0.376,0.105,0.513
			c0.071,0.137,0.177,0.253,0.318,0.349c0.137,0.091,0.309,0.177,0.516,0.257c0.208,0.079,0.464,0.169,0.77,0.27
			c0.301,0.096,0.584,0.207,0.852,0.335C100.186,133.079,100.406,133.22,100.579,133.375z"/>
		<path fill="#800000018000000180000001" d="M109.575,139.712h-3.65v-0.451c0.142-0.009,0.28-0.021,0.417-0.034
			s0.26-0.037,0.369-0.068c0.142-0.046,0.239-0.126,0.294-0.24s0.082-0.249,0.082-0.404v-2.493l-0.041-0.014
			c-0.072,0.082-0.177,0.177-0.311,0.283c-0.135,0.107-0.274,0.195-0.42,0.264c-0.182,0.096-0.357,0.17-0.525,0.223
			c-0.169,0.052-0.38,0.078-0.635,0.078c-0.41,0-0.796-0.086-1.157-0.256c-0.362-0.172-0.677-0.414-0.945-0.729
			c-0.269-0.31-0.481-0.691-0.639-1.145c-0.157-0.454-0.235-0.952-0.235-1.494c0-0.515,0.091-0.983,0.273-1.404
			c0.182-0.422,0.423-0.79,0.724-1.104c0.287-0.296,0.632-0.532,1.035-0.708c0.402-0.175,0.802-0.263,1.198-0.263
			c0.296,0,0.559,0.028,0.789,0.085c0.229,0.058,0.427,0.125,0.591,0.202c0.141,0.06,0.282,0.136,0.424,0.229
			c0.141,0.093,0.241,0.155,0.3,0.188l0.584-0.889l0.392,0.055c-0.019,0.338-0.042,0.753-0.071,1.245
			c-0.03,0.492-0.045,0.924-0.045,1.293v6.238c0,0.16,0.029,0.298,0.089,0.414s0.155,0.204,0.287,0.264
			c0.109,0.045,0.248,0.085,0.417,0.12c0.169,0.033,0.306,0.056,0.41,0.064V139.712z M107.087,135.426v-4.026
			c-0.036-0.114-0.098-0.24-0.185-0.379c-0.086-0.14-0.188-0.262-0.307-0.366c-0.127-0.109-0.283-0.2-0.468-0.273
			c-0.184-0.073-0.396-0.109-0.638-0.109c-0.532,0-0.979,0.275-1.341,0.827c-0.361,0.552-0.542,1.311-0.542,2.276
			c0,0.383,0.035,0.729,0.105,1.039s0.192,0.6,0.365,0.868c0.164,0.255,0.371,0.459,0.621,0.611c0.25,0.153,0.566,0.229,0.948,0.229
			c0.327,0,0.607-0.069,0.839-0.208C106.719,135.775,106.919,135.612,107.087,135.426z"/>
		<path fill="#800000018000000180000001" d="M117.238,136.554l-2.201,0.15l-0.103-0.096v-0.854h-0.041
			c-0.109,0.114-0.232,0.235-0.368,0.366c-0.137,0.129-0.294,0.247-0.471,0.352c-0.205,0.123-0.403,0.217-0.595,0.28
			c-0.19,0.063-0.461,0.096-0.812,0.096c-0.596,0-1.05-0.194-1.361-0.584c-0.313-0.389-0.468-0.955-0.468-1.696v-3.224
			c0-0.164-0.031-0.302-0.093-0.413c-0.063-0.111-0.152-0.208-0.271-0.29c-0.083-0.055-0.187-0.095-0.31-0.12
			c-0.124-0.024-0.255-0.042-0.393-0.051v-0.451l2.249-0.164l0.103,0.096v4.683c0,0.487,0.109,0.854,0.328,1.101
			s0.48,0.369,0.786,0.369c0.251,0,0.474-0.039,0.67-0.116s0.36-0.168,0.492-0.273c0.123-0.095,0.231-0.196,0.325-0.304
			c0.093-0.106,0.165-0.205,0.215-0.297v-3.816c0-0.15-0.032-0.283-0.096-0.399s-0.152-0.215-0.267-0.297
			c-0.082-0.055-0.204-0.088-0.366-0.099c-0.161-0.012-0.343-0.022-0.543-0.031v-0.451l2.454-0.164l0.103,0.096v5.347
			c0,0.154,0.032,0.287,0.096,0.396c0.063,0.108,0.152,0.202,0.267,0.279c0.082,0.051,0.18,0.083,0.294,0.1
			c0.114,0.016,0.239,0.025,0.376,0.03V136.554z"/>
		<path fill="#800000018000000180000001" d="M124.45,136.554c-0.214,0.077-0.402,0.141-0.564,0.188
			c-0.161,0.049-0.345,0.072-0.55,0.072c-0.355,0-0.64-0.083-0.851-0.25c-0.213-0.166-0.348-0.408-0.407-0.728h-0.041
			c-0.296,0.328-0.614,0.579-0.954,0.752c-0.339,0.173-0.748,0.26-1.227,0.26c-0.506,0-0.922-0.155-1.248-0.465
			c-0.325-0.31-0.488-0.716-0.488-1.217c0-0.26,0.036-0.492,0.109-0.697s0.183-0.39,0.328-0.554
			c0.114-0.137,0.265-0.259,0.451-0.365c0.187-0.107,0.362-0.193,0.526-0.257c0.205-0.077,0.621-0.221,1.247-0.431
			c0.627-0.21,1.05-0.374,1.269-0.492v-0.677c0-0.06-0.013-0.173-0.038-0.342c-0.024-0.169-0.078-0.328-0.16-0.479
			c-0.091-0.169-0.22-0.315-0.387-0.44c-0.166-0.126-0.401-0.188-0.707-0.188c-0.21,0-0.404,0.035-0.584,0.106
			c-0.181,0.07-0.307,0.145-0.38,0.222c0,0.091,0.021,0.226,0.065,0.403c0.043,0.178,0.064,0.342,0.064,0.492
			c0,0.159-0.072,0.306-0.215,0.438c-0.145,0.132-0.344,0.198-0.599,0.198c-0.228,0-0.396-0.081-0.503-0.243
			c-0.106-0.161-0.16-0.343-0.16-0.543c0-0.21,0.074-0.41,0.223-0.602c0.147-0.191,0.34-0.362,0.577-0.513
			c0.205-0.128,0.453-0.235,0.745-0.325c0.292-0.088,0.576-0.133,0.854-0.133c0.383,0,0.717,0.026,1.001,0.078
			c0.285,0.053,0.544,0.166,0.776,0.339c0.232,0.169,0.409,0.397,0.53,0.687c0.12,0.29,0.181,0.662,0.181,1.118
			c0,0.651-0.007,1.229-0.021,1.733c-0.014,0.503-0.021,1.054-0.021,1.65c0,0.178,0.03,0.319,0.093,0.424
			c0.061,0.104,0.155,0.193,0.283,0.267c0.068,0.041,0.177,0.063,0.324,0.068c0.148,0.005,0.3,0.007,0.455,0.007V136.554z
			 M122.064,132.944c-0.388,0.114-0.727,0.227-1.019,0.336s-0.563,0.246-0.813,0.411c-0.228,0.155-0.408,0.339-0.54,0.551
			c-0.132,0.213-0.198,0.465-0.198,0.758c0,0.379,0.099,0.657,0.298,0.835c0.197,0.179,0.449,0.268,0.755,0.268
			c0.323,0,0.608-0.079,0.854-0.236s0.453-0.344,0.622-0.559L122.064,132.944z"/>
		<path fill="#800000018000000180000001" d="M132.503,136.554l-2.358,0.15l-0.103-0.096v-0.629l-0.055-0.014
			c-0.236,0.265-0.529,0.48-0.877,0.649c-0.349,0.169-0.707,0.253-1.075,0.253c-0.383,0-0.752-0.086-1.109-0.256
			c-0.357-0.172-0.668-0.412-0.932-0.722c-0.269-0.314-0.481-0.692-0.639-1.135s-0.235-0.93-0.235-1.463
			c0-0.487,0.084-0.95,0.253-1.388c0.168-0.438,0.4-0.82,0.696-1.148c0.277-0.306,0.617-0.549,1.021-0.731
			c0.402-0.183,0.813-0.273,1.231-0.273c0.314,0,0.623,0.04,0.926,0.12c0.302,0.079,0.563,0.181,0.781,0.304v-2.35
			c0-0.191-0.032-0.366-0.096-0.523c-0.063-0.158-0.152-0.277-0.267-0.359c-0.128-0.087-0.3-0.149-0.517-0.188
			c-0.216-0.039-0.449-0.067-0.7-0.086v-0.424l2.762-0.15l0.103,0.103v9.086c0,0.159,0.031,0.295,0.092,0.406
			c0.063,0.111,0.152,0.206,0.271,0.283c0.087,0.055,0.212,0.089,0.376,0.103s0.314,0.022,0.451,0.027V136.554z M130.028,135.371
			v-3.944c-0.036-0.118-0.096-0.246-0.178-0.383c-0.081-0.137-0.184-0.262-0.307-0.376c-0.132-0.114-0.286-0.208-0.464-0.284
			c-0.178-0.074-0.385-0.112-0.621-0.112c-0.272,0-0.524,0.07-0.754,0.212s-0.434,0.344-0.61,0.608
			c-0.168,0.255-0.302,0.58-0.399,0.974c-0.098,0.395-0.146,0.831-0.146,1.31c0,0.383,0.036,0.73,0.109,1.042
			c0.072,0.313,0.195,0.604,0.368,0.872c0.159,0.255,0.362,0.46,0.61,0.615s0.543,0.232,0.884,0.232c0.364,0,0.665-0.08,0.904-0.239
			C129.663,135.738,129.864,135.563,130.028,135.371z"/>
	</g>
</g>
</svg>
