<?xml version="1.0" encoding="utf-8"?>
<!-- Generator: Adobe Illustrator 16.0.0, SVG Export Plug-In . SVG Version: 6.00 Build 0)  -->
<!DOCTYPE svg PUBLIC "-//W3C//DTD SVG 1.1//EN" "http://www.w3.org/Graphics/SVG/1.1/DTD/svg11.dtd">
<svg version="1.1" id="Layer_1" xmlns="http://www.w3.org/2000/svg" xmlns:xlink="http://www.w3.org/1999/xlink" x="0px" y="0px"
	 width="330.799px" height="125.954px" viewBox="0 0 330.799 125.954" enable-background="new 0 0 330.799 125.954"
	 xml:space="preserve">
<g>
	<g enable-background="new    ">
		<path fill="#FFFFFF" d="M27.607,83.893h-9.462V25.07L9.17,31.313l-4.487-6.731l15.51-10.926h7.414V83.893z"/>
		<path fill="#FFFFFF" d="M52.481,20.778c-2.731,0-5.139,1.365-7.219,4.097l-6.146-5.658c3.056-4.617,7.934-6.926,14.632-6.926
			c10.08,0,15.121,5.919,15.121,17.754c0,1.821-0.098,3.528-0.293,5.121c-0.195,1.595-0.375,2.943-0.537,4.048
			c-0.163,1.107-0.536,2.261-1.121,3.463c-0.586,1.204-1.024,2.131-1.317,2.78c-0.293,0.65-0.927,1.529-1.902,2.634
			c-0.976,1.106-1.658,1.87-2.048,2.292c-0.391,0.423-1.253,1.285-2.586,2.584c-1.333,1.302-2.228,2.18-2.683,2.634
			c-2.406,2.407-4.048,4.683-4.926,6.829c-0.878,2.147-1.317,4.975-1.317,8.487v3.805h17.657v9.17H40.678V72.674
			c0-5.787,0.649-10.292,1.951-13.51c1.3-3.22,3.575-6.454,6.828-9.707c0.13-0.13,0.666-0.649,1.609-1.561
			c0.942-0.91,1.513-1.479,1.707-1.707c0.195-0.227,0.684-0.796,1.464-1.707c0.78-0.91,1.3-1.593,1.561-2.049
			c0.259-0.454,0.649-1.154,1.171-2.097c0.52-0.942,0.861-1.82,1.024-2.634c0.161-0.813,0.341-1.771,0.536-2.878
			c0.195-1.105,0.293-2.244,0.293-3.414c0-3.902-0.521-6.649-1.562-8.243C56.22,21.575,54.627,20.778,52.481,20.778z"/>
		<path fill="#FFFFFF" d="M104.769,35.703v26.046c0,1.755-0.017,3.089-0.049,4c-0.034,0.912-0.098,2.211-0.195,3.902
			s-0.277,3.023-0.536,3.998c-0.261,0.977-0.603,2.164-1.024,3.561c-0.424,1.4-1.01,2.488-1.756,3.27
			c-0.749,0.779-1.61,1.576-2.585,2.389c-0.976,0.814-2.195,1.398-3.658,1.756c-1.464,0.357-3.073,0.537-4.829,0.537
			s-3.351-0.18-4.78-0.537c-1.431-0.357-2.634-0.926-3.609-1.707c-0.976-0.779-1.821-1.561-2.536-2.34
			c-0.716-0.781-1.285-1.854-1.707-3.221c-0.424-1.365-0.765-2.535-1.024-3.512c-0.261-0.975-0.438-2.307-0.536-3.998
			s-0.163-2.992-0.195-3.902c-0.033-0.91-0.049-2.244-0.049-4V35.508c0-1.756,0.016-3.088,0.049-4
			c0.032-0.91,0.098-2.21,0.195-3.902c0.098-1.69,0.275-3.024,0.536-4c0.26-0.976,0.601-2.146,1.024-3.512
			c0.422-1.366,0.991-2.439,1.707-3.219c0.715-0.78,1.561-1.561,2.536-2.341c0.976-0.78,2.179-1.349,3.609-1.707
			c1.43-0.356,3.024-0.537,4.78-0.537s3.365,0.18,4.829,0.537c1.463,0.358,2.683,0.943,3.658,1.756
			c0.975,0.814,1.836,1.61,2.585,2.39c0.746,0.78,1.332,1.87,1.756,3.268c0.422,1.399,0.764,2.585,1.024,3.561
			c0.259,0.976,0.438,2.309,0.536,4c0.098,1.692,0.161,3.009,0.195,3.951C104.752,32.695,104.769,34.012,104.769,35.703z
			 M94.916,63.114V34.142c0-2.405-0.034-4.178-0.098-5.316c-0.065-1.137-0.229-2.422-0.488-3.854
			c-0.261-1.43-0.716-2.438-1.365-3.024c-0.651-0.585-1.529-0.878-2.634-0.878c-0.78,0-1.448,0.131-2,0.39
			c-0.554,0.261-1.009,0.731-1.365,1.415c-0.358,0.683-0.635,1.333-0.83,1.951c-0.194,0.619-0.326,1.545-0.39,2.78
			c-0.065,1.236-0.114,2.261-0.146,3.073c-0.033,0.814-0.049,2.034-0.049,3.658v28.777c0,1.626,0.016,2.83,0.049,3.609
			c0.032,0.781,0.081,1.773,0.146,2.977c0.063,1.203,0.195,2.113,0.39,2.73c0.195,0.619,0.472,1.268,0.83,1.951
			c0.356,0.684,0.812,1.156,1.365,1.414c0.552,0.262,1.22,0.391,2,0.391c1.104,0,1.982-0.293,2.634-0.877
			c0.649-0.586,1.104-1.594,1.365-3.025c0.26-1.43,0.423-2.715,0.488-3.854C94.882,67.293,94.916,65.522,94.916,63.114z"/>
		<path fill="#FFFFFF" d="M140.861,35.703v26.046c0,1.755-0.017,3.089-0.049,4c-0.034,0.912-0.098,2.211-0.195,3.902
			s-0.277,3.023-0.536,3.998c-0.261,0.977-0.603,2.164-1.024,3.561c-0.424,1.4-1.01,2.488-1.756,3.27
			c-0.749,0.779-1.61,1.576-2.585,2.389c-0.976,0.814-2.195,1.398-3.658,1.756c-1.464,0.357-3.073,0.537-4.829,0.537
			s-3.351-0.18-4.78-0.537c-1.431-0.357-2.634-0.926-3.609-1.707c-0.976-0.779-1.821-1.561-2.536-2.34
			c-0.716-0.781-1.285-1.854-1.707-3.221c-0.424-1.365-0.765-2.535-1.024-3.512c-0.261-0.975-0.438-2.307-0.536-3.998
			s-0.163-2.992-0.195-3.902c-0.033-0.91-0.049-2.244-0.049-4V35.508c0-1.756,0.016-3.088,0.049-4
			c0.032-0.91,0.098-2.21,0.195-3.902c0.098-1.69,0.275-3.024,0.536-4c0.26-0.976,0.601-2.146,1.024-3.512
			c0.422-1.366,0.991-2.439,1.707-3.219c0.715-0.78,1.561-1.561,2.536-2.341c0.976-0.78,2.179-1.349,3.609-1.707
			c1.43-0.356,3.024-0.537,4.78-0.537s3.365,0.18,4.829,0.537c1.463,0.358,2.683,0.943,3.658,1.756
			c0.975,0.814,1.836,1.61,2.585,2.39c0.746,0.78,1.332,1.87,1.756,3.268c0.422,1.399,0.764,2.585,1.024,3.561
			c0.259,0.976,0.438,2.309,0.536,4c0.098,1.692,0.161,3.009,0.195,3.951C140.845,32.695,140.861,34.012,140.861,35.703z
			 M131.009,63.114V34.142c0-2.405-0.034-4.178-0.098-5.316c-0.065-1.137-0.229-2.422-0.488-3.854
			c-0.261-1.43-0.716-2.438-1.365-3.024c-0.651-0.585-1.529-0.878-2.634-0.878c-0.78,0-1.448,0.131-2,0.39
			c-0.554,0.261-1.009,0.731-1.365,1.415c-0.358,0.683-0.635,1.333-0.83,1.951c-0.194,0.619-0.326,1.545-0.39,2.78
			c-0.065,1.236-0.114,2.261-0.146,3.073c-0.033,0.814-0.049,2.034-0.049,3.658v28.777c0,1.626,0.016,2.83,0.049,3.609
			c0.032,0.781,0.081,1.773,0.146,2.977c0.063,1.203,0.195,2.113,0.39,2.73c0.195,0.619,0.472,1.268,0.83,1.951
			c0.356,0.684,0.812,1.156,1.365,1.414c0.552,0.262,1.22,0.391,2,0.391c1.104,0,1.982-0.293,2.634-0.877
			c0.649-0.586,1.104-1.594,1.365-3.025c0.26-1.43,0.423-2.715,0.488-3.854C130.975,67.293,131.009,65.522,131.009,63.114z"/>
		<path fill="#FFFFFF" d="M178.905,54.335h-11.999v14.828h-8.877V54.335h-12.097v-9.072h12.097V30.435h8.877v14.828h11.999V54.335z"
			/>
	</g>
	<g>
		<rect x="24.465" y="92.493" fill="none" width="166" height="32"/>
	</g>
	<g enable-background="new    ">
		<path fill="#FFFFFF" d="M46.22,103.077h-3.288v-0.451c0.105-0.008,0.216-0.02,0.335-0.031c0.119-0.01,0.216-0.027,0.294-0.051
			c0.127-0.041,0.223-0.113,0.287-0.215c0.064-0.104,0.096-0.236,0.096-0.4v-7.813c0-0.164-0.035-0.318-0.106-0.461
			c-0.071-0.145-0.163-0.258-0.277-0.34c-0.082-0.055-0.232-0.104-0.451-0.15c-0.219-0.045-0.394-0.072-0.526-0.082v-0.438
			l2.536-0.15l0.096,0.104v9.248c0,0.16,0.03,0.291,0.089,0.393c0.059,0.104,0.155,0.182,0.287,0.236
			c0.1,0.047,0.199,0.08,0.297,0.104c0.098,0.021,0.208,0.039,0.332,0.047V103.077z"/>
		<path fill="#FFFFFF" d="M53.644,99.639c0,0.473-0.075,0.939-0.226,1.396c-0.151,0.459-0.365,0.848-0.644,1.166
			c-0.315,0.365-0.68,0.637-1.095,0.814s-0.881,0.266-1.396,0.266c-0.429,0-0.837-0.08-1.225-0.242s-0.732-0.398-1.033-0.707
			c-0.296-0.307-0.533-0.678-0.708-1.119c-0.175-0.439-0.263-0.932-0.263-1.479c0-1.053,0.307-1.914,0.92-2.584
			c0.613-0.67,1.417-1.006,2.412-1.006c0.944,0,1.723,0.318,2.337,0.953C53.337,97.735,53.644,98.581,53.644,99.639z M52.229,99.653
			c0-0.342-0.034-0.703-0.103-1.084c-0.069-0.381-0.171-0.703-0.309-0.967c-0.146-0.283-0.338-0.51-0.575-0.682
			c-0.237-0.17-0.527-0.256-0.87-0.256c-0.352,0-0.652,0.088-0.9,0.26c-0.249,0.174-0.451,0.41-0.606,0.711
			c-0.146,0.279-0.249,0.596-0.309,0.951c-0.059,0.355-0.089,0.699-0.089,1.031c0,0.438,0.035,0.842,0.106,1.213
			c0.071,0.373,0.184,0.703,0.339,0.996c0.155,0.291,0.35,0.52,0.585,0.686c0.235,0.168,0.526,0.25,0.873,0.25
			c0.571,0,1.023-0.275,1.356-0.826C52.062,101.383,52.229,100.624,52.229,99.653z"/>
		<path fill="#FFFFFF" d="M57.731,103.254c-0.975,0-1.739-0.322-2.29-0.971c-0.551-0.646-0.827-1.516-0.827-2.604
			c0-0.475,0.074-0.918,0.222-1.33s0.363-0.787,0.646-1.125c0.269-0.322,0.606-0.584,1.012-0.783
			c0.406-0.197,0.848-0.297,1.326-0.297c0.661,0,1.199,0.158,1.613,0.475c0.415,0.318,0.622,0.75,0.622,1.297
			c0,0.227-0.055,0.43-0.164,0.604c-0.109,0.176-0.29,0.264-0.54,0.264c-0.269,0-0.478-0.068-0.625-0.203
			c-0.148-0.137-0.222-0.289-0.222-0.457c0-0.205,0.027-0.414,0.082-0.631c0.055-0.215,0.086-0.373,0.096-0.473
			c-0.082-0.141-0.204-0.236-0.365-0.283c-0.162-0.049-0.335-0.072-0.521-0.072c-0.218,0-0.426,0.047-0.624,0.141
			s-0.39,0.266-0.576,0.516c-0.168,0.229-0.305,0.535-0.409,0.924c-0.104,0.387-0.157,0.85-0.157,1.387
			c0,0.848,0.188,1.539,0.563,2.074c0.375,0.537,0.868,0.805,1.478,0.805c0.441,0,0.812-0.107,1.109-0.324
			c0.298-0.215,0.574-0.537,0.829-0.969l0.437,0.287c-0.301,0.539-0.697,0.965-1.189,1.279S58.255,103.254,57.731,103.254z"/>
		<path fill="#FFFFFF" d="M67.356,102.954c-0.214,0.078-0.402,0.141-0.564,0.188c-0.162,0.049-0.345,0.072-0.55,0.072
			c-0.355,0-0.639-0.082-0.851-0.25c-0.212-0.166-0.348-0.408-0.407-0.727h-0.041c-0.296,0.328-0.614,0.578-0.954,0.752
			c-0.339,0.172-0.749,0.26-1.227,0.26c-0.506,0-0.922-0.156-1.248-0.465c-0.326-0.311-0.489-0.717-0.489-1.217
			c0-0.26,0.037-0.492,0.109-0.697s0.182-0.391,0.328-0.555c0.114-0.137,0.264-0.258,0.451-0.365s0.362-0.193,0.526-0.256
			c0.205-0.078,0.621-0.221,1.248-0.432c0.626-0.209,1.049-0.373,1.268-0.492v-0.676c0-0.061-0.013-0.174-0.038-0.342
			c-0.025-0.17-0.079-0.328-0.161-0.479c-0.091-0.17-0.22-0.316-0.386-0.441s-0.402-0.188-0.708-0.188
			c-0.209,0-0.404,0.035-0.584,0.105s-0.307,0.145-0.379,0.223c0,0.09,0.021,0.225,0.065,0.402s0.065,0.342,0.065,0.492
			c0,0.16-0.072,0.307-0.215,0.438c-0.144,0.133-0.343,0.199-0.598,0.199c-0.228,0-0.396-0.082-0.502-0.244
			c-0.107-0.16-0.161-0.342-0.161-0.543c0-0.209,0.074-0.41,0.222-0.602s0.341-0.361,0.578-0.512
			c0.205-0.129,0.454-0.236,0.745-0.326c0.292-0.088,0.577-0.133,0.854-0.133c0.383,0,0.717,0.027,1.001,0.078
			c0.285,0.053,0.543,0.166,0.776,0.34c0.232,0.168,0.409,0.396,0.53,0.686c0.121,0.291,0.181,0.662,0.181,1.119
			c0,0.65-0.007,1.229-0.021,1.732s-0.021,1.055-0.021,1.65c0,0.178,0.031,0.32,0.092,0.424c0.062,0.105,0.156,0.193,0.284,0.268
			c0.068,0.041,0.177,0.063,0.325,0.068c0.148,0.004,0.3,0.006,0.455,0.006V102.954z M64.971,99.344
			c-0.387,0.115-0.727,0.227-1.019,0.336s-0.563,0.246-0.813,0.412c-0.228,0.154-0.408,0.338-0.54,0.551s-0.198,0.465-0.198,0.758
			c0,0.379,0.099,0.656,0.297,0.834c0.198,0.18,0.45,0.268,0.755,0.268c0.324,0,0.608-0.078,0.854-0.236
			c0.246-0.156,0.454-0.344,0.622-0.559L64.971,99.344z"/>
		<path fill="#FFFFFF" d="M71.185,103.077h-3.288v-0.451c0.105-0.008,0.216-0.02,0.335-0.031c0.119-0.01,0.216-0.027,0.294-0.051
			c0.127-0.041,0.223-0.113,0.287-0.215c0.064-0.104,0.096-0.236,0.096-0.4v-7.813c0-0.164-0.035-0.318-0.106-0.461
			c-0.071-0.145-0.163-0.258-0.277-0.34c-0.082-0.055-0.232-0.104-0.451-0.15c-0.219-0.045-0.394-0.072-0.526-0.082v-0.438
			l2.536-0.15l0.096,0.104v9.248c0,0.16,0.03,0.291,0.089,0.393c0.059,0.104,0.155,0.182,0.287,0.236
			c0.1,0.047,0.199,0.08,0.297,0.104c0.098,0.021,0.208,0.039,0.332,0.047V103.077z"/>
		<path fill="#FFFFFF" d="M74.896,105.278c0-0.227,0.063-0.414,0.188-0.557c0.126-0.145,0.281-0.215,0.469-0.215
			c0.146,0,0.271,0.027,0.376,0.08c0.104,0.055,0.198,0.125,0.28,0.211c0.068,0.068,0.141,0.16,0.219,0.277
			c0.077,0.119,0.139,0.215,0.185,0.293c0.228-0.123,0.5-0.443,0.816-0.963c0.316-0.518,0.546-0.973,0.687-1.363
			c-0.433-1.08-0.824-2.045-1.175-2.898c-0.352-0.852-0.718-1.732-1.101-2.645c-0.087-0.209-0.232-0.373-0.438-0.488
			c-0.205-0.117-0.41-0.189-0.615-0.223v-0.451h3.077v0.479c-0.137,0.006-0.301,0.033-0.492,0.086s-0.287,0.113-0.287,0.182
			c0,0.027,0.011,0.072,0.031,0.137c0.021,0.063,0.044,0.129,0.071,0.197c0.173,0.451,0.437,1.102,0.791,1.949
			c0.354,0.85,0.63,1.529,0.825,2.039c0.205-0.486,0.418-0.99,0.64-1.512s0.469-1.139,0.742-1.848
			c0.032-0.088,0.078-0.207,0.138-0.359c0.059-0.152,0.089-0.283,0.089-0.393c0-0.119-0.104-0.229-0.312-0.332
			c-0.207-0.102-0.404-0.164-0.591-0.188v-0.438h2.503v0.424c-0.137,0.023-0.316,0.102-0.54,0.236s-0.39,0.324-0.499,0.57
			c-0.542,1.258-1.024,2.404-1.445,3.439c-0.422,1.033-0.742,1.795-0.961,2.283c-0.287,0.637-0.543,1.135-0.77,1.492
			c-0.225,0.359-0.445,0.641-0.659,0.846c-0.21,0.191-0.399,0.32-0.571,0.385c-0.17,0.066-0.347,0.1-0.529,0.1
			c-0.355,0-0.635-0.084-0.838-0.252C74.998,105.69,74.896,105.497,74.896,105.278z"/>
		<path fill="#FFFFFF" d="M88.876,99.639c0,0.473-0.075,0.939-0.226,1.396c-0.15,0.459-0.365,0.848-0.644,1.166
			c-0.314,0.365-0.68,0.637-1.095,0.814s-0.881,0.266-1.396,0.266c-0.429,0-0.837-0.08-1.225-0.242s-0.732-0.398-1.033-0.707
			c-0.297-0.307-0.532-0.678-0.708-1.119c-0.176-0.439-0.264-0.932-0.264-1.479c0-1.053,0.307-1.914,0.92-2.584
			c0.614-0.67,1.418-1.006,2.412-1.006c0.944,0,1.724,0.318,2.338,0.953C88.569,97.735,88.876,98.581,88.876,99.639z M87.461,99.653
			c0-0.342-0.034-0.703-0.103-1.084s-0.172-0.703-0.309-0.967c-0.146-0.283-0.338-0.51-0.575-0.682
			c-0.237-0.17-0.527-0.256-0.87-0.256c-0.352,0-0.651,0.088-0.9,0.26c-0.248,0.174-0.45,0.41-0.605,0.711
			c-0.146,0.279-0.249,0.596-0.309,0.951s-0.089,0.699-0.089,1.031c0,0.438,0.035,0.842,0.106,1.213
			c0.07,0.373,0.184,0.703,0.339,0.996c0.155,0.291,0.351,0.52,0.585,0.686c0.235,0.168,0.526,0.25,0.873,0.25
			c0.571,0,1.023-0.275,1.356-0.826C87.294,101.383,87.461,100.624,87.461,99.653z"/>
		<path fill="#FFFFFF" d="M97.072,102.954l-2.201,0.15l-0.103-0.096v-0.854h-0.041c-0.109,0.113-0.232,0.234-0.368,0.365
			c-0.137,0.129-0.294,0.248-0.471,0.352c-0.205,0.123-0.403,0.217-0.595,0.281c-0.19,0.063-0.461,0.096-0.812,0.096
			c-0.596,0-1.05-0.195-1.361-0.584c-0.313-0.389-0.468-0.955-0.468-1.697v-3.223c0-0.164-0.031-0.303-0.093-0.414
			c-0.063-0.111-0.152-0.207-0.271-0.289c-0.083-0.055-0.187-0.096-0.31-0.121c-0.124-0.023-0.255-0.041-0.393-0.051v-0.451
			l2.249-0.164l0.103,0.096v4.684c0,0.486,0.109,0.854,0.328,1.1s0.48,0.369,0.786,0.369c0.251,0,0.474-0.039,0.67-0.115
			c0.196-0.078,0.36-0.168,0.492-0.273c0.123-0.096,0.231-0.197,0.325-0.305c0.093-0.105,0.165-0.205,0.215-0.297v-3.816
			c0-0.15-0.032-0.283-0.096-0.398c-0.063-0.117-0.152-0.215-0.267-0.297c-0.082-0.055-0.204-0.088-0.366-0.1
			c-0.161-0.012-0.343-0.021-0.543-0.031v-0.451l2.454-0.164l0.103,0.096v5.348c0,0.154,0.032,0.287,0.096,0.396
			c0.063,0.107,0.152,0.201,0.267,0.279c0.082,0.051,0.18,0.082,0.294,0.1c0.114,0.016,0.239,0.025,0.376,0.029V102.954z"/>
		<path fill="#FFFFFF" d="M102.063,102.784c-0.296,0.123-0.576,0.227-0.841,0.311s-0.588,0.127-0.971,0.127
			c-0.565,0-0.963-0.143-1.193-0.428c-0.229-0.285-0.345-0.688-0.345-1.207V97.02h-1.217v-0.656h1.244v-2.098h1.244v2.098h1.935
			v0.656h-1.921v3.768c0,0.281,0.011,0.518,0.03,0.707c0.021,0.189,0.07,0.354,0.147,0.496c0.073,0.131,0.183,0.232,0.328,0.301
			s0.342,0.102,0.588,0.102c0.114,0,0.281-0.01,0.503-0.031c0.221-0.02,0.377-0.045,0.468-0.078V102.784z"/>
		<path fill="#FFFFFF" d="M110.067,103.077h-3.315v-0.451c0.104-0.008,0.221-0.018,0.349-0.027c0.128-0.008,0.232-0.027,0.314-0.055
			c0.128-0.041,0.222-0.113,0.284-0.215c0.061-0.104,0.092-0.236,0.092-0.4v-3.465c0-0.479-0.113-0.848-0.339-1.107
			c-0.227-0.26-0.502-0.391-0.826-0.391c-0.237,0-0.458,0.037-0.661,0.113c-0.203,0.074-0.385,0.168-0.545,0.277
			c-0.155,0.113-0.273,0.227-0.356,0.342c-0.082,0.113-0.146,0.209-0.191,0.287v3.875c0,0.156,0.03,0.283,0.093,0.383
			c0.061,0.102,0.155,0.178,0.283,0.232c0.101,0.047,0.204,0.08,0.311,0.104c0.107,0.021,0.225,0.039,0.353,0.047v0.451h-3.302
			v-0.451c0.104-0.008,0.213-0.02,0.326-0.031c0.113-0.01,0.208-0.027,0.285-0.051c0.126-0.041,0.222-0.113,0.285-0.215
			c0.063-0.104,0.095-0.236,0.095-0.4v-7.854c0-0.154-0.035-0.311-0.106-0.465c-0.07-0.154-0.162-0.271-0.276-0.35
			c-0.082-0.059-0.227-0.102-0.435-0.125c-0.207-0.025-0.374-0.043-0.502-0.053v-0.438l2.495-0.15l0.096,0.104v4.703h0.027
			c0.15-0.15,0.287-0.285,0.411-0.4c0.123-0.117,0.285-0.238,0.486-0.365c0.173-0.109,0.377-0.201,0.612-0.273
			c0.235-0.074,0.499-0.109,0.791-0.109c0.603,0,1.065,0.189,1.39,0.57s0.486,0.928,0.486,1.645v3.506
			c0,0.16,0.028,0.289,0.086,0.387s0.152,0.174,0.286,0.229c0.105,0.041,0.2,0.072,0.285,0.092c0.085,0.021,0.196,0.037,0.334,0.045
			V103.077z"/>
		<path fill="#FFFFFF" d="M125.79,103.077h-3.281v-0.451c0.104-0.008,0.211-0.018,0.317-0.027c0.107-0.008,0.202-0.027,0.284-0.055
			c0.128-0.041,0.222-0.113,0.284-0.215c0.061-0.104,0.092-0.236,0.092-0.4V98.45c0-0.475-0.108-0.84-0.324-1.098
			c-0.217-0.258-0.487-0.387-0.811-0.387c-0.224,0-0.433,0.035-0.629,0.104s-0.376,0.164-0.54,0.287
			c-0.132,0.1-0.243,0.207-0.331,0.324c-0.09,0.115-0.156,0.213-0.202,0.291v3.889c0,0.16,0.027,0.291,0.082,0.393
			c0.055,0.104,0.148,0.182,0.28,0.236c0.104,0.041,0.199,0.072,0.283,0.092c0.085,0.021,0.195,0.037,0.332,0.045v0.451h-3.213
			v-0.451c0.104-0.008,0.206-0.018,0.305-0.027c0.098-0.008,0.188-0.027,0.27-0.055c0.128-0.041,0.223-0.113,0.283-0.215
			c0.063-0.104,0.093-0.236,0.093-0.4V98.45c0-0.475-0.108-0.84-0.325-1.098c-0.218-0.258-0.488-0.387-0.813-0.387
			c-0.224,0-0.434,0.035-0.63,0.105c-0.197,0.072-0.377,0.168-0.542,0.291c-0.132,0.102-0.244,0.213-0.335,0.338
			c-0.092,0.127-0.16,0.221-0.206,0.285v3.861c0,0.156,0.032,0.285,0.096,0.391c0.063,0.104,0.159,0.184,0.287,0.238
			c0.096,0.047,0.193,0.08,0.294,0.104c0.101,0.021,0.212,0.039,0.335,0.047v0.451h-3.274v-0.451
			c0.104-0.008,0.213-0.018,0.325-0.027c0.111-0.008,0.208-0.027,0.29-0.055c0.128-0.041,0.222-0.111,0.284-0.215
			c0.061-0.102,0.092-0.234,0.092-0.398v-4.186c0-0.146-0.033-0.277-0.1-0.393c-0.065-0.117-0.158-0.215-0.276-0.297
			c-0.087-0.055-0.193-0.1-0.321-0.135c-0.128-0.033-0.26-0.055-0.396-0.064v-0.451l2.256-0.15l0.096,0.096v0.965h0.048
			c0.114-0.115,0.253-0.248,0.417-0.404c0.164-0.154,0.316-0.279,0.458-0.375c0.159-0.109,0.358-0.201,0.599-0.273
			c0.238-0.074,0.497-0.109,0.775-0.109c0.438,0,0.813,0.117,1.128,0.352s0.54,0.518,0.677,0.852
			c0.164-0.16,0.309-0.301,0.434-0.422c0.125-0.119,0.29-0.248,0.494-0.385c0.173-0.119,0.377-0.215,0.611-0.287
			c0.234-0.074,0.494-0.109,0.781-0.109c0.568,0,1.02,0.186,1.352,0.561c0.332,0.373,0.498,0.947,0.498,1.723v3.424
			c0,0.16,0.027,0.291,0.082,0.393c0.055,0.104,0.148,0.182,0.28,0.236c0.104,0.041,0.208,0.072,0.312,0.092
			c0.102,0.021,0.217,0.037,0.345,0.045V103.077z"/>
		<path fill="#FFFFFF" d="M133.166,99.639c0,0.473-0.075,0.939-0.226,1.396c-0.15,0.459-0.365,0.848-0.644,1.166
			c-0.314,0.365-0.68,0.637-1.095,0.814s-0.881,0.266-1.396,0.266c-0.429,0-0.837-0.08-1.225-0.242s-0.732-0.398-1.033-0.707
			c-0.297-0.307-0.532-0.678-0.708-1.119c-0.176-0.439-0.264-0.932-0.264-1.479c0-1.053,0.307-1.914,0.92-2.584
			c0.614-0.67,1.418-1.006,2.412-1.006c0.944,0,1.724,0.318,2.338,0.953C132.859,97.735,133.166,98.581,133.166,99.639z
			 M131.751,99.653c0-0.342-0.034-0.703-0.103-1.084s-0.172-0.703-0.309-0.967c-0.146-0.283-0.338-0.51-0.575-0.682
			c-0.237-0.17-0.527-0.256-0.87-0.256c-0.352,0-0.651,0.088-0.9,0.26c-0.248,0.174-0.45,0.41-0.605,0.711
			c-0.146,0.279-0.249,0.596-0.309,0.951s-0.089,0.699-0.089,1.031c0,0.438,0.035,0.842,0.106,1.213
			c0.07,0.373,0.184,0.703,0.339,0.996c0.155,0.291,0.351,0.52,0.585,0.686c0.235,0.168,0.526,0.25,0.873,0.25
			c0.571,0,1.023-0.275,1.356-0.826C131.584,101.383,131.751,100.624,131.751,99.653z"/>
		<path fill="#FFFFFF" d="M140.979,99.7c0,1.012-0.319,1.861-0.957,2.551c-0.638,0.688-1.379,1.031-2.222,1.031
			c-0.369,0-0.732-0.057-1.09-0.17c-0.358-0.115-0.694-0.268-1.009-0.459l-0.506,0.787l-0.424-0.096
			c0.022-0.338,0.039-0.744,0.048-1.219s0.014-0.932,0.014-1.375v-6.676c0-0.154-0.035-0.311-0.105-0.465
			c-0.071-0.154-0.161-0.268-0.271-0.336c-0.087-0.059-0.231-0.104-0.435-0.133c-0.202-0.029-0.365-0.049-0.488-0.059v-0.438
			l2.475-0.15l0.096,0.104v4.443l0.048,0.014c0.282-0.301,0.591-0.527,0.927-0.678c0.334-0.15,0.664-0.225,0.987-0.225
			c0.829,0,1.522,0.328,2.078,0.984S140.979,98.647,140.979,99.7z M139.551,99.749c0-0.338-0.036-0.682-0.109-1.033
			c-0.073-0.35-0.187-0.656-0.342-0.916c-0.155-0.264-0.357-0.479-0.608-0.643s-0.552-0.246-0.902-0.246
			c-0.319,0-0.599,0.063-0.837,0.188c-0.24,0.127-0.455,0.297-0.646,0.51v3.924c0.027,0.109,0.081,0.238,0.16,0.383
			c0.08,0.146,0.188,0.285,0.325,0.418c0.137,0.127,0.292,0.23,0.465,0.311s0.385,0.119,0.636,0.119
			c0.556,0,1.005-0.268,1.347-0.807C139.38,101.418,139.551,100.682,139.551,99.749z"/>
		<path fill="#FFFFFF" d="M145.245,103.077h-3.254v-0.451c0.104-0.008,0.213-0.018,0.324-0.027c0.112-0.008,0.209-0.027,0.291-0.055
			c0.128-0.041,0.223-0.111,0.283-0.215c0.063-0.102,0.093-0.234,0.093-0.398v-4.158c0-0.146-0.033-0.279-0.099-0.4
			c-0.066-0.121-0.159-0.221-0.277-0.303c-0.087-0.055-0.212-0.102-0.376-0.141s-0.314-0.063-0.451-0.072v-0.451l2.379-0.15
			l0.096,0.096v5.496c0,0.16,0.03,0.293,0.092,0.396c0.061,0.105,0.157,0.184,0.288,0.232c0.1,0.041,0.197,0.074,0.292,0.1
			c0.096,0.025,0.201,0.043,0.319,0.051V103.077z M144.391,93.596c0,0.26-0.085,0.486-0.257,0.68
			c-0.17,0.193-0.381,0.291-0.632,0.291c-0.232,0-0.435-0.094-0.604-0.277c-0.172-0.186-0.257-0.395-0.257-0.633
			c0-0.25,0.085-0.469,0.257-0.656c0.17-0.186,0.372-0.279,0.604-0.279c0.26,0,0.473,0.088,0.64,0.262
			C144.308,93.159,144.391,93.364,144.391,93.596z"/>
		<path fill="#FFFFFF" d="M149.237,103.077h-3.288v-0.451c0.104-0.008,0.217-0.02,0.335-0.031c0.118-0.01,0.217-0.027,0.294-0.051
			c0.128-0.041,0.224-0.113,0.287-0.215c0.063-0.104,0.096-0.236,0.096-0.4v-7.813c0-0.164-0.035-0.318-0.106-0.461
			c-0.07-0.145-0.162-0.258-0.276-0.34c-0.082-0.055-0.232-0.104-0.451-0.15c-0.219-0.045-0.395-0.072-0.526-0.082v-0.438
			l2.536-0.15l0.096,0.104v9.248c0,0.16,0.029,0.291,0.089,0.393c0.06,0.104,0.155,0.182,0.287,0.236
			c0.101,0.047,0.199,0.08,0.297,0.104c0.099,0.021,0.209,0.039,0.332,0.047V103.077z"/>
		<path fill="#FFFFFF" d="M153.353,103.077h-3.254v-0.451c0.104-0.008,0.213-0.018,0.324-0.027c0.112-0.008,0.209-0.027,0.291-0.055
			c0.128-0.041,0.223-0.111,0.283-0.215c0.063-0.102,0.093-0.234,0.093-0.398v-4.158c0-0.146-0.033-0.279-0.099-0.4
			c-0.066-0.121-0.159-0.221-0.277-0.303c-0.087-0.055-0.212-0.102-0.376-0.141s-0.314-0.063-0.451-0.072v-0.451l2.379-0.15
			l0.096,0.096v5.496c0,0.16,0.03,0.293,0.092,0.396c0.061,0.105,0.157,0.184,0.288,0.232c0.1,0.041,0.197,0.074,0.292,0.1
			c0.096,0.025,0.201,0.043,0.319,0.051V103.077z M152.498,93.596c0,0.26-0.085,0.486-0.257,0.68
			c-0.17,0.193-0.381,0.291-0.632,0.291c-0.232,0-0.435-0.094-0.604-0.277c-0.172-0.186-0.257-0.395-0.257-0.633
			c0-0.25,0.085-0.469,0.257-0.656c0.17-0.186,0.372-0.279,0.604-0.279c0.26,0,0.473,0.088,0.64,0.262
			C152.415,93.159,152.498,93.364,152.498,93.596z"/>
		<path fill="#FFFFFF" d="M159.525,103.077h-5.455v-0.361l3.821-5.824h-0.945c-0.397,0-0.708,0.006-0.932,0.02
			c-0.225,0.014-0.43,0.061-0.617,0.137c-0.128,0.051-0.247,0.193-0.359,0.432c-0.112,0.236-0.209,0.547-0.291,0.93h-0.417v-2.072
			h5.154v0.281l-3.875,5.906c0.164,0.004,0.344,0.008,0.54,0.01c0.195,0.002,0.407,0.004,0.636,0.004
			c0.182,0,0.372-0.002,0.57-0.008c0.198-0.004,0.452-0.016,0.762-0.033c0.183-0.01,0.32-0.07,0.414-0.186
			c0.093-0.113,0.165-0.244,0.215-0.389c0.05-0.133,0.11-0.314,0.181-0.547c0.071-0.232,0.134-0.459,0.188-0.678h0.41V103.077z"/>
		<path fill="#FFFFFF" d="M166.389,101.491c-0.282,0.539-0.661,0.967-1.135,1.285c-0.474,0.32-1.019,0.479-1.634,0.479
			c-0.542,0-1.018-0.096-1.425-0.287c-0.408-0.191-0.744-0.451-1.009-0.779s-0.462-0.711-0.591-1.148
			c-0.131-0.438-0.195-0.9-0.195-1.387c0-0.438,0.069-0.867,0.209-1.289c0.139-0.422,0.343-0.801,0.611-1.139
			c0.26-0.322,0.582-0.584,0.967-0.783c0.386-0.197,0.817-0.297,1.296-0.297c0.492,0,0.914,0.078,1.265,0.232
			c0.351,0.156,0.636,0.367,0.854,0.637c0.21,0.254,0.366,0.555,0.468,0.902c0.104,0.346,0.154,0.723,0.154,1.127v0.451h-4.464
			c0,0.443,0.042,0.846,0.126,1.207c0.085,0.359,0.218,0.678,0.4,0.951c0.178,0.266,0.41,0.475,0.697,0.627
			c0.287,0.154,0.629,0.23,1.025,0.23c0.405,0,0.756-0.096,1.049-0.285c0.295-0.191,0.578-0.533,0.852-1.027L166.389,101.491z
			 M164.878,98.92c0-0.254-0.021-0.527-0.065-0.816c-0.043-0.291-0.112-0.535-0.208-0.73c-0.104-0.209-0.248-0.379-0.431-0.512
			c-0.183-0.131-0.417-0.197-0.704-0.197c-0.479,0-0.876,0.199-1.192,0.598c-0.317,0.396-0.489,0.949-0.517,1.658H164.878z"/>
		<path fill="#FFFFFF" d="M174.551,102.954l-2.358,0.15l-0.103-0.096v-0.629l-0.055-0.014c-0.236,0.266-0.529,0.48-0.877,0.65
			c-0.349,0.168-0.707,0.252-1.075,0.252c-0.383,0-0.752-0.086-1.109-0.256c-0.357-0.172-0.668-0.412-0.932-0.721
			c-0.269-0.314-0.481-0.693-0.639-1.135c-0.157-0.443-0.235-0.93-0.235-1.463c0-0.488,0.084-0.951,0.253-1.389
			c0.168-0.438,0.4-0.82,0.696-1.148c0.277-0.305,0.617-0.549,1.021-0.73c0.402-0.184,0.813-0.273,1.231-0.273
			c0.314,0,0.623,0.039,0.926,0.119c0.302,0.08,0.563,0.182,0.781,0.305v-2.35c0-0.191-0.032-0.367-0.096-0.523
			c-0.063-0.158-0.152-0.277-0.267-0.359c-0.128-0.088-0.3-0.15-0.517-0.189c-0.216-0.039-0.449-0.066-0.7-0.086v-0.424l2.762-0.15
			l0.103,0.104v9.086c0,0.158,0.031,0.295,0.092,0.406c0.063,0.111,0.152,0.205,0.271,0.283c0.087,0.055,0.212,0.088,0.376,0.102
			s0.314,0.023,0.451,0.027V102.954z M172.076,101.772v-3.945c-0.036-0.117-0.096-0.246-0.178-0.383
			c-0.081-0.137-0.184-0.262-0.307-0.375c-0.132-0.115-0.286-0.209-0.464-0.285c-0.178-0.074-0.385-0.111-0.621-0.111
			c-0.272,0-0.524,0.07-0.754,0.211c-0.229,0.143-0.434,0.344-0.61,0.609c-0.168,0.254-0.302,0.58-0.399,0.973
			c-0.098,0.395-0.146,0.832-0.146,1.311c0,0.383,0.036,0.73,0.109,1.041c0.072,0.313,0.195,0.604,0.368,0.873
			c0.159,0.254,0.362,0.459,0.61,0.615c0.248,0.154,0.543,0.232,0.884,0.232c0.364,0,0.665-0.08,0.904-0.24
			C171.711,102.139,171.912,101.963,172.076,101.772z"/>
		<path fill="#FFFFFF" d="M181.852,103.077h-3.254v-0.451c0.104-0.008,0.213-0.018,0.324-0.027c0.112-0.008,0.209-0.027,0.291-0.055
			c0.128-0.041,0.223-0.111,0.283-0.215c0.063-0.102,0.093-0.234,0.093-0.398v-4.158c0-0.146-0.033-0.279-0.099-0.4
			c-0.066-0.121-0.159-0.221-0.277-0.303c-0.087-0.055-0.212-0.102-0.376-0.141s-0.314-0.063-0.451-0.072v-0.451l2.379-0.15
			l0.096,0.096v5.496c0,0.16,0.03,0.293,0.092,0.396c0.061,0.105,0.157,0.184,0.288,0.232c0.1,0.041,0.197,0.074,0.292,0.1
			c0.096,0.025,0.201,0.043,0.319,0.051V103.077z M180.997,93.596c0,0.26-0.085,0.486-0.257,0.68
			c-0.17,0.193-0.381,0.291-0.632,0.291c-0.232,0-0.435-0.094-0.604-0.277c-0.172-0.186-0.257-0.395-0.257-0.633
			c0-0.25,0.085-0.469,0.257-0.656c0.17-0.186,0.372-0.279,0.604-0.279c0.26,0,0.473,0.088,0.64,0.262
			C180.914,93.159,180.997,93.364,180.997,93.596z"/>
		<path fill="#FFFFFF" d="M190.13,103.077h-3.295v-0.451c0.104-0.008,0.22-0.018,0.345-0.027c0.126-0.008,0.229-0.027,0.312-0.055
			c0.128-0.041,0.222-0.113,0.284-0.215c0.061-0.104,0.092-0.236,0.092-0.4v-3.465c0-0.479-0.113-0.848-0.339-1.107
			c-0.227-0.26-0.502-0.391-0.826-0.391c-0.242,0-0.464,0.037-0.664,0.113c-0.201,0.074-0.38,0.168-0.535,0.277
			c-0.15,0.104-0.271,0.217-0.359,0.338s-0.154,0.217-0.195,0.291v3.875c0,0.156,0.032,0.283,0.096,0.383
			c0.063,0.102,0.159,0.178,0.287,0.232c0.096,0.047,0.199,0.08,0.312,0.104c0.111,0.021,0.227,0.039,0.345,0.047v0.451h-3.302
			v-0.451c0.104-0.008,0.213-0.018,0.324-0.027c0.112-0.008,0.209-0.027,0.291-0.055c0.128-0.041,0.223-0.111,0.283-0.215
			c0.063-0.102,0.093-0.234,0.093-0.398v-4.158c0-0.156-0.033-0.297-0.099-0.428c-0.066-0.129-0.159-0.234-0.277-0.316
			c-0.087-0.055-0.189-0.096-0.308-0.121c-0.118-0.023-0.246-0.041-0.383-0.051v-0.451l2.242-0.15l0.096,0.096v0.951h0.034
			c0.109-0.109,0.246-0.24,0.41-0.395c0.164-0.152,0.319-0.275,0.465-0.371c0.169-0.109,0.369-0.201,0.602-0.273
			c0.232-0.074,0.494-0.109,0.786-0.109c0.647,0,1.127,0.201,1.438,0.604c0.313,0.404,0.469,0.941,0.469,1.611v3.506
			c0,0.16,0.027,0.289,0.082,0.387s0.148,0.174,0.28,0.229c0.109,0.047,0.204,0.078,0.284,0.096c0.079,0.02,0.189,0.033,0.331,0.041
			V103.077z"/>
	</g>
	<g enable-background="new    ">
		<path fill="#FFFFFF" d="M41.955,119.754c-0.214,0.076-0.402,0.141-0.564,0.188c-0.162,0.049-0.345,0.072-0.55,0.072
			c-0.355,0-0.639-0.084-0.851-0.25s-0.348-0.408-0.407-0.729h-0.041c-0.296,0.328-0.614,0.58-0.954,0.752
			c-0.339,0.174-0.749,0.26-1.227,0.26c-0.506,0-0.922-0.154-1.248-0.465c-0.326-0.309-0.489-0.715-0.489-1.217
			c0-0.26,0.037-0.492,0.109-0.697s0.182-0.389,0.328-0.553c0.114-0.137,0.264-0.26,0.451-0.365
			c0.187-0.107,0.362-0.193,0.526-0.258c0.205-0.076,0.621-0.221,1.248-0.43c0.626-0.211,1.049-0.375,1.268-0.492v-0.678
			c0-0.059-0.013-0.172-0.038-0.342c-0.025-0.168-0.079-0.328-0.161-0.479c-0.091-0.168-0.22-0.314-0.386-0.439
			c-0.167-0.127-0.402-0.189-0.708-0.189c-0.209,0-0.404,0.035-0.584,0.107c-0.18,0.07-0.307,0.145-0.379,0.221
			c0,0.092,0.021,0.227,0.065,0.404s0.065,0.342,0.065,0.492c0,0.158-0.072,0.305-0.215,0.438c-0.144,0.131-0.343,0.197-0.598,0.197
			c-0.228,0-0.396-0.08-0.502-0.242s-0.161-0.344-0.161-0.543c0-0.211,0.074-0.41,0.222-0.602s0.341-0.363,0.578-0.514
			c0.205-0.127,0.454-0.234,0.745-0.324c0.292-0.088,0.577-0.133,0.854-0.133c0.383,0,0.717,0.025,1.001,0.078
			s0.543,0.166,0.776,0.338c0.232,0.17,0.409,0.398,0.53,0.688s0.181,0.662,0.181,1.117c0,0.652-0.007,1.23-0.021,1.734
			c-0.014,0.502-0.021,1.053-0.021,1.65c0,0.178,0.031,0.318,0.092,0.424c0.062,0.104,0.156,0.193,0.284,0.266
			c0.068,0.041,0.177,0.064,0.325,0.068c0.148,0.006,0.3,0.008,0.455,0.008V119.754z M39.569,116.145
			c-0.387,0.113-0.727,0.227-1.019,0.336s-0.563,0.246-0.813,0.41c-0.228,0.156-0.408,0.34-0.54,0.551
			c-0.132,0.213-0.198,0.465-0.198,0.758c0,0.379,0.099,0.658,0.297,0.836s0.45,0.268,0.755,0.268c0.324,0,0.608-0.08,0.854-0.236
			c0.246-0.158,0.454-0.344,0.622-0.559L39.569,116.145z"/>
		<path fill="#FFFFFF" d="M50.069,119.877h-3.295v-0.451c0.105-0.01,0.22-0.02,0.345-0.027c0.125-0.01,0.229-0.027,0.311-0.055
			c0.127-0.041,0.222-0.113,0.284-0.215c0.062-0.104,0.092-0.236,0.092-0.4v-3.467c0-0.479-0.113-0.848-0.339-1.107
			s-0.501-0.389-0.826-0.389c-0.242,0-0.463,0.037-0.665,0.113c-0.201,0.074-0.379,0.166-0.534,0.275
			c-0.151,0.105-0.271,0.219-0.36,0.34c-0.089,0.119-0.154,0.217-0.195,0.289v3.877c0,0.154,0.032,0.281,0.096,0.383
			c0.064,0.1,0.16,0.178,0.287,0.232c0.096,0.045,0.199,0.08,0.311,0.102c0.112,0.023,0.227,0.039,0.345,0.049v0.451h-3.302v-0.451
			c0.105-0.01,0.213-0.02,0.325-0.027c0.112-0.01,0.208-0.027,0.291-0.055c0.127-0.041,0.222-0.113,0.284-0.215
			c0.062-0.104,0.092-0.236,0.092-0.4v-4.158c0-0.154-0.033-0.297-0.099-0.426c-0.066-0.131-0.158-0.236-0.277-0.318
			c-0.086-0.055-0.189-0.094-0.308-0.119s-0.246-0.043-0.383-0.051v-0.451l2.242-0.15l0.096,0.096v0.949h0.034
			c0.109-0.109,0.246-0.24,0.41-0.393s0.319-0.277,0.465-0.373c0.168-0.109,0.369-0.199,0.602-0.273
			c0.232-0.072,0.495-0.109,0.786-0.109c0.647,0,1.127,0.203,1.439,0.605c0.312,0.404,0.468,0.939,0.468,1.609v3.508
			c0,0.158,0.027,0.287,0.082,0.387c0.055,0.098,0.148,0.174,0.28,0.229c0.109,0.045,0.204,0.076,0.284,0.096
			c0.08,0.018,0.19,0.031,0.332,0.041V119.877z"/>
		<path fill="#FFFFFF" d="M55.06,119.583c-0.296,0.123-0.577,0.227-0.841,0.313c-0.264,0.084-0.588,0.125-0.971,0.125
			c-0.565,0-0.963-0.143-1.193-0.426c-0.23-0.285-0.345-0.688-0.345-1.207v-4.566h-1.217v-0.656h1.244v-2.1h1.244v2.1h1.935v0.656
			h-1.921v3.766c0,0.283,0.01,0.52,0.031,0.709c0.021,0.188,0.069,0.354,0.147,0.494c0.073,0.133,0.182,0.232,0.328,0.301
			s0.342,0.104,0.588,0.104c0.114,0,0.281-0.01,0.502-0.031c0.221-0.02,0.377-0.047,0.468-0.078V119.583z"/>
		<path fill="#FFFFFF" d="M58.997,119.877h-3.254v-0.451c0.105-0.01,0.213-0.02,0.325-0.027c0.112-0.01,0.208-0.027,0.291-0.055
			c0.127-0.041,0.222-0.113,0.284-0.215c0.062-0.104,0.092-0.236,0.092-0.4v-4.158c0-0.145-0.033-0.279-0.099-0.398
			c-0.066-0.121-0.158-0.223-0.277-0.305c-0.086-0.055-0.212-0.102-0.376-0.139c-0.164-0.039-0.314-0.064-0.451-0.072v-0.451
			l2.379-0.15l0.096,0.096v5.496c0,0.158,0.031,0.291,0.092,0.396c0.061,0.104,0.157,0.182,0.289,0.232
			c0.099,0.041,0.197,0.074,0.292,0.1c0.095,0.023,0.202,0.041,0.319,0.051V119.877z M58.143,110.395
			c0,0.26-0.085,0.486-0.256,0.682c-0.171,0.193-0.382,0.289-0.632,0.289c-0.232,0-0.434-0.092-0.605-0.275
			c-0.171-0.186-0.256-0.396-0.256-0.633c0-0.252,0.085-0.471,0.256-0.656c0.171-0.188,0.373-0.281,0.605-0.281
			c0.26,0,0.473,0.088,0.639,0.264S58.143,110.163,58.143,110.395z"/>
		<path fill="#FFFFFF" d="M63.994,116.706H59.92v-1.08h4.074V116.706z"/>
		<path fill="#FFFFFF" d="M71.227,113.936c0.269,0.32,0.478,0.689,0.626,1.111c0.147,0.422,0.222,0.904,0.222,1.445
			c0,0.533-0.089,1.02-0.267,1.461c-0.178,0.439-0.412,0.814-0.704,1.123c-0.306,0.314-0.645,0.557-1.019,0.725
			c-0.374,0.17-0.771,0.254-1.189,0.254c-0.405,0-0.738-0.047-0.998-0.137c-0.26-0.092-0.472-0.199-0.636-0.322h-0.055v2.029
			c0,0.164,0.031,0.301,0.096,0.41s0.162,0.189,0.294,0.24c0.109,0.041,0.266,0.08,0.469,0.119c0.202,0.039,0.37,0.061,0.502,0.066
			v0.451h-3.767v-0.451c0.141-0.01,0.278-0.021,0.41-0.035s0.25-0.035,0.355-0.068c0.137-0.045,0.232-0.125,0.287-0.238
			c0.055-0.115,0.082-0.248,0.082-0.404v-7.17c0-0.137-0.034-0.27-0.103-0.396c-0.068-0.129-0.157-0.23-0.267-0.309
			c-0.082-0.055-0.196-0.096-0.342-0.125c-0.146-0.031-0.287-0.051-0.424-0.059v-0.451l2.297-0.15l0.096,0.082v0.758l0.055,0.014
			c0.236-0.273,0.531-0.5,0.882-0.684c0.351-0.182,0.699-0.273,1.046-0.273c0.419,0,0.804,0.09,1.151,0.268
			C70.677,113.397,70.976,113.635,71.227,113.936z M70.112,118.784c0.183-0.283,0.316-0.611,0.403-0.984
			c0.087-0.375,0.13-0.791,0.13-1.252c0-0.336-0.036-0.682-0.109-1.031c-0.073-0.352-0.187-0.656-0.342-0.916
			c-0.155-0.266-0.357-0.479-0.608-0.643s-0.552-0.246-0.902-0.246c-0.337,0-0.624,0.074-0.861,0.223
			c-0.237,0.146-0.441,0.324-0.615,0.529v3.984c0.041,0.123,0.108,0.252,0.201,0.383c0.094,0.133,0.197,0.246,0.312,0.342
			c0.142,0.115,0.294,0.207,0.458,0.277s0.364,0.105,0.602,0.105c0.255,0,0.501-0.066,0.738-0.201S69.953,119.03,70.112,118.784z"/>
		<path fill="#FFFFFF" d="M79.642,116.438c0,0.475-0.075,0.941-0.226,1.398c-0.15,0.459-0.365,0.846-0.644,1.166
			c-0.314,0.363-0.68,0.635-1.095,0.813s-0.881,0.268-1.396,0.268c-0.429,0-0.837-0.082-1.225-0.242
			c-0.388-0.162-0.732-0.398-1.033-0.709c-0.297-0.305-0.532-0.678-0.708-1.117s-0.264-0.934-0.264-1.48
			c0-1.053,0.307-1.914,0.92-2.584c0.614-0.67,1.418-1.004,2.412-1.004c0.944,0,1.724,0.318,2.338,0.953
			C79.335,114.536,79.642,115.381,79.642,116.438z M78.227,116.452c0-0.342-0.034-0.703-0.103-1.082
			c-0.068-0.381-0.172-0.703-0.309-0.969c-0.146-0.281-0.338-0.508-0.575-0.68c-0.237-0.17-0.527-0.256-0.87-0.256
			c-0.352,0-0.651,0.086-0.9,0.26c-0.248,0.172-0.45,0.41-0.605,0.711c-0.146,0.277-0.249,0.594-0.309,0.949
			s-0.089,0.699-0.089,1.033c0,0.438,0.035,0.842,0.106,1.213c0.07,0.371,0.184,0.703,0.339,0.994
			c0.155,0.293,0.351,0.521,0.585,0.688c0.235,0.166,0.526,0.25,0.873,0.25c0.571,0,1.023-0.275,1.356-0.828
			C78.06,118.184,78.227,117.422,78.227,116.452z"/>
		<path fill="#FFFFFF" d="M86.997,119.754c-0.214,0.076-0.402,0.141-0.564,0.188c-0.161,0.049-0.345,0.072-0.55,0.072
			c-0.355,0-0.64-0.084-0.851-0.25c-0.213-0.166-0.348-0.408-0.407-0.729h-0.041c-0.296,0.328-0.614,0.58-0.954,0.752
			c-0.339,0.174-0.748,0.26-1.227,0.26c-0.506,0-0.922-0.154-1.248-0.465c-0.325-0.309-0.488-0.715-0.488-1.217
			c0-0.26,0.036-0.492,0.109-0.697s0.183-0.389,0.328-0.553c0.114-0.137,0.265-0.26,0.451-0.365
			c0.187-0.107,0.362-0.193,0.526-0.258c0.205-0.076,0.621-0.221,1.247-0.43c0.627-0.211,1.05-0.375,1.269-0.492v-0.678
			c0-0.059-0.013-0.172-0.038-0.342c-0.024-0.168-0.078-0.328-0.16-0.479c-0.091-0.168-0.22-0.314-0.387-0.439
			c-0.166-0.127-0.401-0.189-0.707-0.189c-0.21,0-0.404,0.035-0.584,0.107c-0.181,0.07-0.307,0.145-0.38,0.221
			c0,0.092,0.021,0.227,0.065,0.404c0.043,0.178,0.064,0.342,0.064,0.492c0,0.158-0.072,0.305-0.215,0.438
			c-0.145,0.131-0.344,0.197-0.599,0.197c-0.228,0-0.396-0.08-0.503-0.242c-0.106-0.162-0.16-0.344-0.16-0.543
			c0-0.211,0.074-0.41,0.223-0.602c0.147-0.191,0.34-0.363,0.577-0.514c0.205-0.127,0.453-0.234,0.745-0.324
			c0.292-0.088,0.576-0.133,0.854-0.133c0.383,0,0.717,0.025,1.001,0.078c0.285,0.053,0.544,0.166,0.776,0.338
			c0.232,0.17,0.409,0.398,0.53,0.688c0.12,0.289,0.181,0.662,0.181,1.117c0,0.652-0.007,1.23-0.021,1.734
			c-0.014,0.502-0.021,1.053-0.021,1.65c0,0.178,0.03,0.318,0.093,0.424c0.061,0.104,0.155,0.193,0.283,0.266
			c0.068,0.041,0.177,0.064,0.324,0.068c0.148,0.006,0.3,0.008,0.455,0.008V119.754z M84.611,116.145
			c-0.388,0.113-0.727,0.227-1.019,0.336s-0.563,0.246-0.813,0.41c-0.228,0.156-0.408,0.34-0.54,0.551
			c-0.132,0.213-0.198,0.465-0.198,0.758c0,0.379,0.099,0.658,0.298,0.836c0.197,0.178,0.449,0.268,0.755,0.268
			c0.323,0,0.608-0.08,0.854-0.236c0.246-0.158,0.453-0.344,0.622-0.559L84.611,116.145z"/>
		<path fill="#FFFFFF" d="M90.784,120.055c-0.976,0-1.738-0.324-2.29-0.971c-0.552-0.648-0.827-1.516-0.827-2.605
			c0-0.473,0.074-0.916,0.223-1.328c0.147-0.414,0.363-0.789,0.646-1.125c0.269-0.324,0.606-0.584,1.012-0.783
			c0.405-0.197,0.848-0.297,1.326-0.297c0.661,0,1.198,0.158,1.613,0.475s0.622,0.748,0.622,1.295c0,0.229-0.055,0.43-0.164,0.605
			s-0.289,0.264-0.54,0.264c-0.269,0-0.478-0.068-0.626-0.205c-0.147-0.137-0.222-0.289-0.222-0.457
			c0-0.203,0.027-0.414,0.082-0.629c0.055-0.217,0.087-0.375,0.096-0.475c-0.082-0.141-0.203-0.234-0.365-0.283
			c-0.161-0.047-0.335-0.07-0.521-0.07c-0.218,0-0.426,0.047-0.624,0.141c-0.197,0.092-0.39,0.264-0.576,0.516
			c-0.168,0.227-0.304,0.535-0.408,0.922c-0.105,0.389-0.157,0.85-0.157,1.389c0,0.848,0.188,1.539,0.563,2.074
			c0.375,0.535,0.867,0.803,1.478,0.803c0.441,0,0.811-0.107,1.108-0.322c0.299-0.215,0.575-0.539,0.83-0.969l0.437,0.287
			c-0.301,0.537-0.697,0.963-1.189,1.277S91.309,120.055,90.784,120.055z"/>
		<path fill="#FFFFFF" d="M101.359,119.877h-3.315v-0.451c0.104-0.01,0.221-0.02,0.349-0.027c0.128-0.01,0.232-0.027,0.314-0.055
			c0.128-0.041,0.222-0.113,0.284-0.215c0.061-0.104,0.092-0.236,0.092-0.4v-3.467c0-0.479-0.113-0.848-0.339-1.107
			c-0.227-0.26-0.502-0.389-0.826-0.389c-0.237,0-0.458,0.037-0.661,0.113c-0.203,0.074-0.385,0.166-0.545,0.275
			c-0.155,0.115-0.273,0.229-0.356,0.342c-0.082,0.115-0.146,0.211-0.191,0.287v3.877c0,0.154,0.03,0.281,0.093,0.383
			c0.061,0.1,0.155,0.178,0.283,0.232c0.101,0.045,0.204,0.08,0.311,0.102c0.107,0.023,0.225,0.039,0.353,0.049v0.451h-3.302v-0.451
			c0.104-0.01,0.213-0.02,0.326-0.031s0.208-0.029,0.285-0.051c0.126-0.041,0.222-0.113,0.285-0.217
			c0.063-0.102,0.095-0.234,0.095-0.4v-7.852c0-0.156-0.035-0.311-0.106-0.467c-0.07-0.154-0.162-0.27-0.276-0.348
			c-0.082-0.059-0.227-0.102-0.435-0.127c-0.207-0.025-0.374-0.043-0.502-0.051v-0.438l2.495-0.15l0.096,0.102v4.703h0.027
			c0.15-0.15,0.287-0.283,0.411-0.398c0.123-0.117,0.285-0.238,0.486-0.367c0.173-0.109,0.377-0.199,0.612-0.273
			c0.235-0.072,0.499-0.109,0.791-0.109c0.603,0,1.065,0.191,1.39,0.572c0.324,0.379,0.486,0.928,0.486,1.643v3.508
			c0,0.158,0.028,0.287,0.086,0.387c0.058,0.098,0.152,0.174,0.286,0.229c0.105,0.041,0.2,0.072,0.285,0.092
			c0.085,0.021,0.196,0.035,0.334,0.045V119.877z"/>
		<path fill="#FFFFFF" d="M105.44,119.877h-3.254v-0.451c0.104-0.01,0.213-0.02,0.324-0.027c0.112-0.01,0.209-0.027,0.291-0.055
			c0.128-0.041,0.223-0.113,0.283-0.215c0.063-0.104,0.093-0.236,0.093-0.4v-4.158c0-0.145-0.033-0.279-0.099-0.398
			c-0.066-0.121-0.159-0.223-0.277-0.305c-0.087-0.055-0.212-0.102-0.376-0.139c-0.164-0.039-0.314-0.064-0.451-0.072v-0.451
			l2.379-0.15l0.096,0.096v5.496c0,0.158,0.03,0.291,0.092,0.396c0.061,0.104,0.157,0.182,0.288,0.232
			c0.1,0.041,0.197,0.074,0.292,0.1c0.096,0.023,0.201,0.041,0.319,0.051V119.877z M104.586,110.395c0,0.26-0.085,0.486-0.257,0.682
			c-0.17,0.193-0.381,0.289-0.632,0.289c-0.232,0-0.435-0.092-0.604-0.275c-0.172-0.186-0.257-0.396-0.257-0.633
			c0-0.252,0.085-0.471,0.257-0.656c0.17-0.188,0.372-0.281,0.604-0.281c0.26,0,0.473,0.088,0.64,0.264
			C104.503,109.959,104.586,110.163,104.586,110.395z"/>
		<path fill="#FFFFFF" d="M113.719,119.877h-3.295v-0.451c0.104-0.01,0.22-0.02,0.345-0.027c0.126-0.01,0.229-0.027,0.312-0.055
			c0.128-0.041,0.222-0.113,0.284-0.215c0.061-0.104,0.092-0.236,0.092-0.4v-3.467c0-0.479-0.113-0.848-0.339-1.107
			c-0.227-0.26-0.502-0.389-0.826-0.389c-0.242,0-0.464,0.037-0.664,0.113c-0.201,0.074-0.38,0.166-0.535,0.275
			c-0.15,0.105-0.271,0.219-0.359,0.34c-0.089,0.119-0.154,0.217-0.195,0.289v3.877c0,0.154,0.032,0.281,0.096,0.383
			c0.063,0.1,0.159,0.178,0.287,0.232c0.096,0.045,0.199,0.08,0.312,0.102c0.111,0.023,0.227,0.039,0.345,0.049v0.451h-3.302v-0.451
			c0.104-0.01,0.213-0.02,0.324-0.027c0.112-0.01,0.209-0.027,0.291-0.055c0.128-0.041,0.223-0.113,0.283-0.215
			c0.063-0.104,0.093-0.236,0.093-0.4v-4.158c0-0.154-0.033-0.297-0.099-0.426c-0.066-0.131-0.159-0.236-0.277-0.318
			c-0.087-0.055-0.189-0.094-0.308-0.119s-0.246-0.043-0.383-0.051v-0.451l2.242-0.15l0.096,0.096v0.949h0.034
			c0.109-0.109,0.246-0.24,0.41-0.393s0.319-0.277,0.465-0.373c0.169-0.109,0.369-0.199,0.602-0.273
			c0.232-0.072,0.494-0.109,0.786-0.109c0.647,0,1.127,0.203,1.438,0.605c0.313,0.404,0.469,0.939,0.469,1.609v3.508
			c0,0.158,0.027,0.287,0.082,0.387c0.055,0.098,0.148,0.174,0.28,0.229c0.109,0.045,0.204,0.076,0.284,0.096
			c0.079,0.018,0.189,0.031,0.331,0.041V119.877z"/>
		<path fill="#FFFFFF" d="M120.322,119.18c0.183,0.172,0.326,0.369,0.431,0.588s0.157,0.49,0.157,0.813
			c0,0.324-0.07,0.629-0.212,0.914c-0.142,0.283-0.355,0.531-0.643,0.74c-0.306,0.215-0.67,0.381-1.094,0.5
			c-0.424,0.117-0.948,0.178-1.572,0.178c-1.021,0-1.784-0.15-2.29-0.447c-0.506-0.299-0.759-0.736-0.759-1.311
			c0-0.465,0.183-0.832,0.547-1.1c0.364-0.27,0.829-0.416,1.395-0.438v-0.096c-0.137-0.041-0.278-0.092-0.424-0.154
			c-0.146-0.061-0.271-0.133-0.376-0.215c-0.118-0.096-0.214-0.209-0.287-0.338c-0.073-0.131-0.109-0.291-0.109-0.482
			c0-0.242,0.085-0.465,0.257-0.666c0.17-0.203,0.429-0.379,0.775-0.523v-0.104c-0.438-0.205-0.777-0.467-1.019-0.789
			c-0.241-0.32-0.362-0.693-0.362-1.117c0-0.639,0.238-1.162,0.715-1.572c0.476-0.41,1.085-0.615,1.828-0.615
			c0.205,0,0.409,0.02,0.611,0.061c0.203,0.041,0.409,0.094,0.619,0.158h2.352v0.656h-1.586v0.041
			c0.169,0.195,0.294,0.412,0.376,0.648c0.082,0.238,0.123,0.471,0.123,0.697c0,0.594-0.24,1.094-0.722,1.504
			c-0.48,0.41-1.04,0.615-1.678,0.615h-0.827c-0.104,0.037-0.214,0.104-0.328,0.199s-0.171,0.225-0.171,0.389
			c0,0.17,0.048,0.299,0.144,0.387c0.096,0.09,0.212,0.148,0.349,0.182c0.132,0.035,0.286,0.059,0.461,0.068
			c0.176,0.008,0.357,0.016,0.544,0.02c0.2,0.006,0.476,0.02,0.823,0.041c0.35,0.023,0.597,0.037,0.742,0.041
			c0.21,0.01,0.42,0.061,0.633,0.15C119.956,118.895,120.149,119.02,120.322,119.18z M119.789,120.834
			c0-0.256-0.06-0.465-0.178-0.629s-0.299-0.275-0.54-0.336c-0.128-0.018-0.39-0.039-0.786-0.061
			c-0.396-0.023-0.856-0.035-1.381-0.035c-0.492,0.096-0.842,0.258-1.05,0.482c-0.207,0.227-0.311,0.516-0.311,0.871
			c0,0.16,0.034,0.313,0.103,0.459c0.068,0.145,0.187,0.279,0.355,0.402c0.159,0.119,0.374,0.217,0.643,0.291
			c0.269,0.076,0.597,0.113,0.984,0.113c0.67,0,1.197-0.129,1.583-0.387C119.597,121.749,119.789,121.358,119.789,120.834z
			 M118.477,115.18c0-0.533-0.108-0.957-0.325-1.273c-0.216-0.318-0.521-0.477-0.912-0.477c-0.214,0-0.397,0.045-0.551,0.135
			c-0.152,0.088-0.276,0.215-0.372,0.379c-0.091,0.15-0.156,0.332-0.194,0.543c-0.039,0.213-0.059,0.43-0.059,0.652
			c0,0.506,0.11,0.918,0.332,1.238c0.221,0.318,0.507,0.479,0.857,0.479c0.392,0,0.693-0.158,0.906-0.475
			C118.37,116.063,118.477,115.665,118.477,115.18z"/>
		<path fill="#FFFFFF" d="M131.629,116.438c0,0.475-0.075,0.941-0.226,1.398c-0.15,0.459-0.365,0.846-0.644,1.166
			c-0.314,0.363-0.68,0.635-1.095,0.813s-0.881,0.268-1.396,0.268c-0.429,0-0.837-0.082-1.225-0.242
			c-0.388-0.162-0.732-0.398-1.033-0.709c-0.297-0.305-0.532-0.678-0.708-1.117s-0.264-0.934-0.264-1.48
			c0-1.053,0.307-1.914,0.92-2.584c0.614-0.67,1.418-1.004,2.412-1.004c0.944,0,1.724,0.318,2.338,0.953
			C131.322,114.536,131.629,115.381,131.629,116.438z M130.214,116.452c0-0.342-0.034-0.703-0.103-1.082
			c-0.068-0.381-0.172-0.703-0.309-0.969c-0.146-0.281-0.338-0.508-0.575-0.68c-0.237-0.17-0.527-0.256-0.87-0.256
			c-0.352,0-0.651,0.086-0.9,0.26c-0.248,0.172-0.45,0.41-0.605,0.711c-0.146,0.277-0.249,0.594-0.309,0.949
			s-0.089,0.699-0.089,1.033c0,0.438,0.035,0.842,0.106,1.213c0.07,0.371,0.184,0.703,0.339,0.994
			c0.155,0.293,0.351,0.521,0.585,0.688c0.235,0.166,0.526,0.25,0.873,0.25c0.571,0,1.023-0.275,1.356-0.828
			C130.047,118.184,130.214,117.422,130.214,116.452z"/>
		<path fill="#FFFFFF" d="M138.759,113.936c0.269,0.32,0.478,0.689,0.626,1.111c0.147,0.422,0.222,0.904,0.222,1.445
			c0,0.533-0.089,1.02-0.267,1.461c-0.178,0.439-0.412,0.814-0.704,1.123c-0.306,0.314-0.645,0.557-1.019,0.725
			c-0.374,0.17-0.771,0.254-1.189,0.254c-0.405,0-0.738-0.047-0.998-0.137c-0.26-0.092-0.472-0.199-0.636-0.322h-0.055v2.029
			c0,0.164,0.032,0.301,0.096,0.41s0.162,0.189,0.294,0.24c0.109,0.041,0.266,0.08,0.469,0.119c0.202,0.039,0.37,0.061,0.502,0.066
			v0.451h-3.767v-0.451c0.142-0.01,0.278-0.021,0.41-0.035s0.251-0.035,0.355-0.068c0.137-0.045,0.232-0.125,0.287-0.238
			c0.055-0.115,0.082-0.248,0.082-0.404v-7.17c0-0.137-0.034-0.27-0.103-0.396c-0.068-0.129-0.157-0.23-0.267-0.309
			c-0.082-0.055-0.196-0.096-0.342-0.125c-0.146-0.031-0.287-0.051-0.424-0.059v-0.451l2.297-0.15l0.096,0.082v0.758l0.055,0.014
			c0.237-0.273,0.531-0.5,0.882-0.684c0.351-0.182,0.699-0.273,1.046-0.273c0.419,0,0.804,0.09,1.151,0.268
			C138.209,113.397,138.508,113.635,138.759,113.936z M137.645,118.784c0.183-0.283,0.316-0.611,0.403-0.984
			c0.087-0.375,0.13-0.791,0.13-1.252c0-0.336-0.036-0.682-0.109-1.031c-0.073-0.352-0.187-0.656-0.342-0.916
			c-0.155-0.266-0.357-0.479-0.608-0.643s-0.552-0.246-0.902-0.246c-0.337,0-0.624,0.074-0.861,0.223
			c-0.237,0.146-0.442,0.324-0.615,0.529v3.984c0.041,0.123,0.108,0.252,0.202,0.383c0.093,0.133,0.196,0.246,0.311,0.342
			c0.142,0.115,0.294,0.207,0.458,0.277s0.364,0.105,0.602,0.105c0.255,0,0.501-0.066,0.738-0.201S137.485,119.03,137.645,118.784z"
			/>
		<path fill="#FFFFFF" d="M146.586,118.292c-0.282,0.537-0.661,0.965-1.135,1.285c-0.474,0.318-1.019,0.479-1.634,0.479
			c-0.542,0-1.018-0.096-1.425-0.287c-0.408-0.191-0.744-0.451-1.009-0.779s-0.462-0.711-0.591-1.148
			c-0.131-0.438-0.195-0.9-0.195-1.389c0-0.438,0.069-0.867,0.209-1.287c0.139-0.422,0.343-0.803,0.611-1.139
			c0.26-0.324,0.582-0.584,0.967-0.783c0.386-0.197,0.817-0.297,1.296-0.297c0.492,0,0.914,0.076,1.265,0.232
			c0.351,0.154,0.636,0.367,0.854,0.635c0.21,0.256,0.366,0.557,0.468,0.902c0.104,0.348,0.154,0.723,0.154,1.129v0.451h-4.464
			c0,0.443,0.042,0.844,0.126,1.205c0.085,0.361,0.218,0.678,0.4,0.953c0.178,0.264,0.41,0.473,0.697,0.627
			c0.287,0.152,0.629,0.229,1.025,0.229c0.405,0,0.756-0.094,1.049-0.285c0.295-0.189,0.578-0.531,0.852-1.027L146.586,118.292z
			 M145.075,115.721c0-0.256-0.021-0.527-0.065-0.818c-0.043-0.291-0.112-0.533-0.208-0.729c-0.104-0.209-0.248-0.381-0.431-0.512
			c-0.183-0.133-0.417-0.197-0.704-0.197c-0.479,0-0.876,0.199-1.192,0.596c-0.317,0.398-0.489,0.951-0.517,1.66H145.075z"/>
		<path fill="#FFFFFF" d="M152.526,114.004c0,0.232-0.057,0.439-0.171,0.619s-0.289,0.27-0.526,0.27
			c-0.255,0-0.45-0.066-0.585-0.197c-0.134-0.133-0.201-0.279-0.201-0.438c0-0.102,0.008-0.191,0.023-0.273
			c0.017-0.082,0.031-0.164,0.045-0.246c-0.214,0-0.465,0.086-0.752,0.26c-0.287,0.172-0.531,0.418-0.731,0.738v3.924
			c0,0.158,0.03,0.289,0.093,0.389c0.061,0.102,0.158,0.176,0.29,0.227c0.114,0.045,0.261,0.08,0.44,0.102
			c0.181,0.023,0.337,0.039,0.469,0.049v0.451h-3.555v-0.451c0.104-0.01,0.213-0.02,0.324-0.027c0.112-0.01,0.209-0.027,0.291-0.055
			c0.128-0.041,0.223-0.113,0.283-0.215c0.063-0.104,0.093-0.236,0.093-0.4v-4.158c0-0.141-0.033-0.279-0.099-0.416
			c-0.066-0.137-0.159-0.246-0.277-0.328c-0.087-0.055-0.189-0.094-0.308-0.119s-0.246-0.043-0.383-0.051v-0.451l2.242-0.15
			l0.096,0.096v0.949h0.034c0.282-0.369,0.597-0.648,0.943-0.84s0.663-0.287,0.95-0.287s0.521,0.094,0.7,0.279
			C152.437,113.44,152.526,113.69,152.526,114.004z"/>
		<path fill="#FFFFFF" d="M159.485,119.754c-0.214,0.076-0.402,0.141-0.564,0.188c-0.161,0.049-0.345,0.072-0.55,0.072
			c-0.355,0-0.64-0.084-0.851-0.25c-0.213-0.166-0.348-0.408-0.407-0.729h-0.041c-0.296,0.328-0.614,0.58-0.954,0.752
			c-0.339,0.174-0.748,0.26-1.227,0.26c-0.506,0-0.922-0.154-1.248-0.465c-0.325-0.309-0.488-0.715-0.488-1.217
			c0-0.26,0.036-0.492,0.109-0.697s0.183-0.389,0.328-0.553c0.114-0.137,0.265-0.26,0.451-0.365
			c0.187-0.107,0.362-0.193,0.526-0.258c0.205-0.076,0.621-0.221,1.247-0.43c0.627-0.211,1.05-0.375,1.269-0.492v-0.678
			c0-0.059-0.013-0.172-0.038-0.342c-0.024-0.168-0.078-0.328-0.16-0.479c-0.091-0.168-0.22-0.314-0.387-0.439
			c-0.166-0.127-0.401-0.189-0.707-0.189c-0.21,0-0.404,0.035-0.584,0.107c-0.181,0.07-0.307,0.145-0.38,0.221
			c0,0.092,0.021,0.227,0.065,0.404c0.043,0.178,0.064,0.342,0.064,0.492c0,0.158-0.072,0.305-0.215,0.438
			c-0.145,0.131-0.344,0.197-0.599,0.197c-0.228,0-0.396-0.08-0.503-0.242c-0.106-0.162-0.16-0.344-0.16-0.543
			c0-0.211,0.074-0.41,0.223-0.602c0.147-0.191,0.34-0.363,0.577-0.514c0.205-0.127,0.453-0.234,0.745-0.324
			c0.292-0.088,0.576-0.133,0.854-0.133c0.383,0,0.717,0.025,1.001,0.078c0.285,0.053,0.544,0.166,0.776,0.338
			c0.232,0.17,0.409,0.398,0.53,0.688c0.12,0.289,0.181,0.662,0.181,1.117c0,0.652-0.007,1.23-0.021,1.734
			c-0.014,0.502-0.021,1.053-0.021,1.65c0,0.178,0.03,0.318,0.093,0.424c0.061,0.104,0.155,0.193,0.283,0.266
			c0.068,0.041,0.177,0.064,0.324,0.068c0.148,0.006,0.3,0.008,0.455,0.008V119.754z M157.1,116.145
			c-0.388,0.113-0.727,0.227-1.019,0.336s-0.563,0.246-0.813,0.41c-0.228,0.156-0.408,0.34-0.54,0.551
			c-0.132,0.213-0.198,0.465-0.198,0.758c0,0.379,0.099,0.658,0.298,0.836c0.197,0.178,0.449,0.268,0.755,0.268
			c0.323,0,0.608-0.08,0.854-0.236c0.246-0.158,0.453-0.344,0.622-0.559L157.1,116.145z"/>
		<path fill="#FFFFFF" d="M164.318,119.583c-0.296,0.123-0.576,0.227-0.841,0.313c-0.265,0.084-0.588,0.125-0.971,0.125
			c-0.565,0-0.963-0.143-1.193-0.426c-0.229-0.285-0.345-0.688-0.345-1.207v-4.566h-1.217v-0.656h1.244v-2.1h1.244v2.1h1.935v0.656
			h-1.921v3.766c0,0.283,0.011,0.52,0.03,0.709c0.021,0.188,0.07,0.354,0.147,0.494c0.073,0.133,0.183,0.232,0.328,0.301
			s0.342,0.104,0.588,0.104c0.114,0,0.281-0.01,0.503-0.031c0.221-0.02,0.377-0.047,0.468-0.078V119.583z"/>
		<path fill="#FFFFFF" d="M168.256,119.877h-3.254v-0.451c0.104-0.01,0.213-0.02,0.324-0.027c0.112-0.01,0.209-0.027,0.291-0.055
			c0.128-0.041,0.223-0.113,0.283-0.215c0.063-0.104,0.093-0.236,0.093-0.4v-4.158c0-0.145-0.033-0.279-0.099-0.398
			c-0.066-0.121-0.159-0.223-0.277-0.305c-0.087-0.055-0.212-0.102-0.376-0.139c-0.164-0.039-0.314-0.064-0.451-0.072v-0.451
			l2.379-0.15l0.096,0.096v5.496c0,0.158,0.03,0.291,0.092,0.396c0.061,0.104,0.157,0.182,0.288,0.232
			c0.1,0.041,0.197,0.074,0.292,0.1c0.096,0.023,0.201,0.041,0.319,0.051V119.877z M167.401,110.395c0,0.26-0.085,0.486-0.257,0.682
			c-0.17,0.193-0.381,0.289-0.632,0.289c-0.232,0-0.435-0.092-0.604-0.275c-0.172-0.186-0.257-0.396-0.257-0.633
			c0-0.252,0.085-0.471,0.257-0.656c0.17-0.188,0.372-0.281,0.604-0.281c0.26,0,0.473,0.088,0.64,0.264
			C167.318,109.959,167.401,110.163,167.401,110.395z"/>
		<path fill="#FFFFFF" d="M175.666,116.438c0,0.475-0.075,0.941-0.226,1.398c-0.15,0.459-0.365,0.846-0.644,1.166
			c-0.314,0.363-0.68,0.635-1.095,0.813s-0.881,0.268-1.396,0.268c-0.429,0-0.837-0.082-1.225-0.242
			c-0.388-0.162-0.732-0.398-1.033-0.709c-0.297-0.305-0.532-0.678-0.708-1.117s-0.264-0.934-0.264-1.48
			c0-1.053,0.307-1.914,0.92-2.584c0.614-0.67,1.418-1.004,2.412-1.004c0.944,0,1.724,0.318,2.338,0.953
			C175.359,114.536,175.666,115.381,175.666,116.438z M174.251,116.452c0-0.342-0.034-0.703-0.103-1.082
			c-0.068-0.381-0.172-0.703-0.309-0.969c-0.146-0.281-0.338-0.508-0.575-0.68c-0.237-0.17-0.527-0.256-0.87-0.256
			c-0.352,0-0.651,0.086-0.9,0.26c-0.248,0.172-0.45,0.41-0.605,0.711c-0.146,0.277-0.249,0.594-0.309,0.949
			s-0.089,0.699-0.089,1.033c0,0.438,0.035,0.842,0.106,1.213c0.07,0.371,0.184,0.703,0.339,0.994
			c0.155,0.293,0.351,0.521,0.585,0.688c0.235,0.166,0.526,0.25,0.873,0.25c0.571,0,1.023-0.275,1.356-0.828
			C174.084,118.184,174.251,117.422,174.251,116.452z"/>
		<path fill="#FFFFFF" d="M184.081,119.877h-3.295v-0.451c0.104-0.01,0.22-0.02,0.345-0.027c0.126-0.01,0.229-0.027,0.312-0.055
			c0.128-0.041,0.222-0.113,0.284-0.215c0.061-0.104,0.092-0.236,0.092-0.4v-3.467c0-0.479-0.113-0.848-0.339-1.107
			c-0.227-0.26-0.502-0.389-0.826-0.389c-0.242,0-0.464,0.037-0.664,0.113c-0.201,0.074-0.38,0.166-0.535,0.275
			c-0.15,0.105-0.271,0.219-0.359,0.34c-0.089,0.119-0.154,0.217-0.195,0.289v3.877c0,0.154,0.032,0.281,0.096,0.383
			c0.063,0.1,0.159,0.178,0.287,0.232c0.096,0.045,0.199,0.08,0.312,0.102c0.111,0.023,0.227,0.039,0.345,0.049v0.451h-3.302v-0.451
			c0.104-0.01,0.213-0.02,0.324-0.027c0.112-0.01,0.209-0.027,0.291-0.055c0.128-0.041,0.223-0.113,0.283-0.215
			c0.063-0.104,0.093-0.236,0.093-0.4v-4.158c0-0.154-0.033-0.297-0.099-0.426c-0.066-0.131-0.159-0.236-0.277-0.318
			c-0.087-0.055-0.189-0.094-0.308-0.119s-0.246-0.043-0.383-0.051v-0.451l2.242-0.15l0.096,0.096v0.949h0.034
			c0.109-0.109,0.246-0.24,0.41-0.393s0.319-0.277,0.465-0.373c0.169-0.109,0.369-0.199,0.602-0.273
			c0.232-0.072,0.494-0.109,0.786-0.109c0.647,0,1.127,0.203,1.438,0.605c0.313,0.404,0.469,0.939,0.469,1.609v3.508
			c0,0.158,0.027,0.287,0.082,0.387c0.055,0.098,0.148,0.174,0.28,0.229c0.109,0.045,0.204,0.076,0.284,0.096
			c0.079,0.018,0.189,0.031,0.331,0.041V119.877z"/>
		<path fill="#FFFFFF" d="M189.358,116.575c0.187,0.164,0.33,0.354,0.431,0.568c0.101,0.213,0.15,0.477,0.15,0.785
			c0,0.625-0.233,1.135-0.701,1.531c-0.467,0.396-1.071,0.596-1.814,0.596c-0.392,0-0.753-0.07-1.084-0.213
			c-0.33-0.141-0.565-0.271-0.707-0.389l-0.137,0.443h-0.513l-0.068-2.344h0.472c0.036,0.178,0.114,0.387,0.232,0.623
			c0.118,0.238,0.262,0.453,0.431,0.645c0.178,0.203,0.391,0.371,0.64,0.508c0.248,0.139,0.527,0.207,0.837,0.207
			c0.438,0,0.774-0.1,1.012-0.299s0.355-0.486,0.355-0.857c0-0.191-0.038-0.355-0.112-0.494c-0.076-0.141-0.187-0.262-0.332-0.367
			c-0.15-0.104-0.335-0.199-0.554-0.283s-0.463-0.168-0.731-0.25c-0.214-0.063-0.452-0.15-0.715-0.262
			c-0.262-0.113-0.486-0.244-0.673-0.395c-0.2-0.158-0.364-0.355-0.492-0.588s-0.191-0.506-0.191-0.82
			c0-0.551,0.205-1.018,0.615-1.4s0.959-0.574,1.647-0.574c0.265,0,0.534,0.033,0.811,0.102c0.275,0.068,0.5,0.15,0.673,0.246
			l0.157-0.355h0.492l0.103,2.168h-0.472c-0.096-0.486-0.302-0.881-0.619-1.186c-0.316-0.303-0.702-0.455-1.158-0.455
			c-0.374,0-0.668,0.094-0.882,0.281c-0.214,0.189-0.321,0.416-0.321,0.682c0,0.205,0.035,0.377,0.105,0.514
			c0.071,0.137,0.177,0.252,0.318,0.348c0.137,0.092,0.309,0.178,0.516,0.258c0.208,0.078,0.464,0.168,0.77,0.27
			c0.301,0.096,0.584,0.207,0.852,0.334C188.965,116.28,189.186,116.42,189.358,116.575z"/>
	</g>
</g>
<g id="_x39_afbP1_1_">
	<g>
		<g>
			<path fill="#FFFFFF" d="M235.304,47.821c-0.951-2.73-2-5.325-2.728-8.008c-0.396-1.463-0.378-3.082-0.302-4.618
				c0.097-1.911,1.067-3.419,2.617-4.6c1.486-1.133,2.948-2.317,4.297-3.608c2.242-2.148,4.799-2.458,7.666-1.69
				c3.064,0.821,5.701,2.444,8.258,4.239c0.359,0.252,0.719,0.503,1.115,0.781c0.61-1.911,1.14-3.769,1.797-5.58
				c0.84-2.316,1.959-4.489,3.799-6.201c1.248-1.163,2.674-1.851,4.449-1.794c2.271,0.073,4.55,0.129,6.816,0.02
				c2.366-0.114,4.122,0.899,5.577,2.601c2.504,2.928,3.595,6.496,4.517,10.135c0.051,0.207,0.112,0.411,0.215,0.783
				c0.806-0.559,1.506-1.07,2.23-1.543c3.036-1.981,6.143-3.792,9.918-3.882c1.671-0.04,3.123,0.461,4.393,1.596
				c1.461,1.306,2.926,2.629,4.52,3.758c2.974,2.107,3.559,5.088,2.895,8.293c-0.544,2.627-1.642,5.139-2.51,7.697
				c-0.154,0.454-0.387,0.882-0.656,1.484c1.459,0.156,2.833,0.166,4.138,0.473c2.235,0.526,4.449,1.172,6.632,1.89
				c1.731,0.569,2.851,2.005,3.719,3.473c0.575,0.972,0.641,2.26,0.866,3.419c0.313,1.602,0.466,3.241,0.864,4.821
				c0.58,2.305-0.156,4.216-1.534,5.961c-2.158,2.734-5.131,4.349-8.2,5.814c-0.555,0.264-1.117,0.516-1.784,0.823
				c1.1,1.149,2.178,2.183,3.146,3.308c2.134,2.481,4.164,5.082,4.327,8.515c0.058,1.217-0.319,2.551-0.833,3.677
				c-0.79,1.732-2.009,3.27-2.8,5.002c-1.579,3.457-4.477,4.658-7.918,4.54c-2.64-0.09-5.262-0.733-7.888-1.147
				c-0.506-0.08-0.998-0.248-1.429-0.356c0,2.696,0.164,5.321-0.059,7.912c-0.145,1.688-0.707,3.386-1.344,4.976
				c-0.648,1.619-1.943,2.704-3.663,3.277c-2.063,0.688-4.118,1.414-6.129,2.244c-2.116,0.874-4.082,0.583-6.022-0.445
				c-2.791-1.479-4.803-3.788-6.648-6.268c-0.578-0.775-1.119-1.578-1.632-2.305c-1.737,2.065-3.38,4.162-5.179,6.115
				c-1.428,1.553-3.15,2.836-5.273,3.217c-1.177,0.211-2.492,0.176-3.645-0.127c-1.881-0.496-3.641-1.453-5.521-1.947
				c-3.852-1.012-5.521-3.785-5.93-7.369c-0.303-2.674-0.1-5.404-0.115-8.109c-0.002-0.35,0.029-0.699,0.038-0.873
				c-2.947,0.438-5.853,0.988-8.785,1.251c-1.377,0.123-2.829-0.198-4.202-0.515c-1.723-0.396-2.988-1.471-3.847-3.059
				c-0.974-1.799-1.951-3.605-3.081-5.307c-1.538-2.318-1.684-4.791-0.441-7.089c1.316-2.437,3.077-4.642,4.732-6.884
				c0.568-0.771,1.398-1.348,1.939-1.852c-2.77-1.748-5.502-3.32-8.059-5.139c-1.76-1.252-3.102-2.997-3.404-5.24
				c-0.134-0.983,0.021-2.026,0.17-3.023c0.268-1.802,0.719-3.579,0.928-5.385c0.285-2.475,1.574-4.198,3.652-5.417
				c3.243-1.902,6.859-2.35,10.506-2.669C234.787,47.84,235.097,47.832,235.304,47.821z M223.867,65.5
				c-0.052,0.088-0.104,0.179-0.156,0.268c0.542,0.508,1.054,1.057,1.633,1.518c2.679,2.137,5.78,3.469,8.96,4.646
				c2.203,0.815,2.35,2.055,0.678,3.723c-2.321,2.318-4.53,4.755-6.709,7.21c-0.543,0.613-0.783,1.494-1.164,2.252
				c0.078,0.047,0.154,0.092,0.231,0.139c3.302-1.899,6.604-3.799,10-5.754c2.007,3.478,3.949,6.842,5.92,10.256
				c-3.426,1.99-6.704,3.893-10.163,5.902c0.465,0.145,0.672,0.24,0.885,0.266c0.353,0.043,0.711,0.058,1.066,0.058
				c3.618,0.001,7.016-1.046,10.377-2.231c0.823-0.289,1.76-0.676,2.324,0.131c0.421,0.602,0.563,1.531,0.521,2.3
				c-0.146,2.749-0.528,5.487-0.606,8.237c-0.038,1.354,0.396,2.723,0.614,4.084c0.115-0.01,0.232-0.02,0.349-0.029
				c1.323-3.607,2.646-7.217,3.987-10.875c3.785,1.383,7.433,2.716,11.117,4.063c-1.338,3.707-2.616,7.246-3.896,10.786
				c0.106,0.062,0.214,0.122,0.321,0.185c0.624-0.488,1.373-0.877,1.849-1.48c2.089-2.646,4.171-5.305,6.109-8.063
				c1.19-1.693,2.426-1.74,3.563,0c1.432,2.195,2.885,4.39,4.51,6.441c0.951,1.201,2.252,2.124,3.396,3.172
				c0.103-0.094,0.203-0.188,0.306-0.283c-1.3-3.598-2.598-7.195-3.916-10.848c3.784-1.375,7.404-2.691,11.117-4.041
				c1.346,3.667,2.662,7.25,4.076,11.104c0.193-0.467,0.271-0.615,0.316-0.774c0.097-0.341,0.197-0.685,0.26-1.032
				c0.674-3.699,0.23-7.361-0.369-11.017c-0.316-1.933,0.79-2.836,2.676-2.228c1.901,0.612,3.799,1.26,5.739,1.717
				c2.162,0.511,4.368,0.91,6.881,0.311c-3.548-2.055-6.845-3.965-10.233-5.928c1.994-3.453,3.941-6.822,5.928-10.258
				c3.433,1.974,6.749,3.879,10.064,5.787c-0.27-1.096-0.618-2.102-1.27-2.836c-2.032-2.293-4.207-4.457-6.262-6.729
				c-0.551-0.609-1.172-1.411-1.223-2.161c-0.072-1.086,1.053-1.34,1.92-1.728c2.35-1.049,4.712-2.088,6.97-3.315
				c1.25-0.68,2.3-1.728,3.439-2.61c-0.059-0.104-0.118-0.209-0.177-0.313c-1.646,0.189-3.303,0.314-4.937,0.584
				c-1.572,0.259-3.113,0.701-4.682,0.996c-0.878,0.165-1.698,0.109-1.842-1.098c-0.115-0.959-0.304-1.912-0.494-2.86
				c-0.487-2.428-0.993-4.851-1.512-7.375c3.913-0.7,7.681-1.374,11.449-2.048c-0.594-0.546-1.217-0.86-1.868-1.093
				c-3.193-1.141-6.516-1.346-9.867-1.339c-2.732,0.006-3.295-1.078-2.113-3.49c1.344-2.741,2.504-5.577,3.625-8.419
				c0.36-0.912,0.342-1.973,0.496-2.966c-0.107-0.021-0.216-0.043-0.324-0.064c-2.455,2.921-4.912,5.842-7.435,8.843
				c-3.056-2.568-6.038-5.075-9.074-7.628c2.517-3.01,4.95-5.921,7.383-8.832c-0.799-0.062-1.444,0.078-2.057,0.305
				c-3.134,1.164-5.778,3.123-8.343,5.203c-0.277,0.224-0.534,0.473-0.82,0.685c-1.251,0.926-2.561,0.452-2.958-1.062
				c-0.71-2.702-1.315-5.439-2.177-8.092c-0.463-1.425-1.37-2.706-2.077-4.052c-0.158,0.049-0.315,0.097-0.474,0.146
				c0,3.829,0,7.657,0,11.436c-4.049,0-7.896,0-11.836,0c0-4.076-0.276-10.383-0.297-11.481c-2.49,3.538-3.509,7.527-4.219,11.625
				c-0.368,2.12-1.688,2.579-3.413,1.311c-2.29-1.683-4.618-3.325-7.032-4.822c-1.115-0.692-2.47-1-3.717-1.482
				c-0.058,0.111-0.115,0.221-0.173,0.332c2.448,2.926,4.897,5.853,7.413,8.86c-3.035,2.547-6.021,5.055-9.074,7.617
				c-2.549-3.02-5.025-5.955-7.504-8.89c-0.133,1.017-0.158,1.946,0.157,2.742c1.172,2.964,2.353,5.933,3.729,8.805
				c1.107,2.312,0.6,3.359-1.925,3.421c-1.823,0.045-3.657,0.086-5.464,0.311c-2.255,0.28-4.506,0.686-6.757,2.099
				c4.043,0.723,7.782,1.393,11.651,2.085c-0.692,3.928-1.36,7.716-2.054,11.645C231.364,66.805,227.615,66.153,223.867,65.5z"/>
		</g>
		<g>
			<path fill="#FFFFFF" d="M250.325,125.954c-2.727-0.01-4.866-2.188-4.858-4.945c0.009-2.721,2.204-4.936,4.903-4.946
				c2.643-0.011,4.945,2.269,4.98,4.924C255.385,123.721,253.116,125.963,250.325,125.954z"/>
		</g>
		<g>
			<path fill="#FFFFFF" d="M319.144,100.852c-2.751,0.008-4.925-2.132-4.942-4.866c-0.018-2.702,2.169-4.959,4.852-5.007
				c2.72-0.049,5.04,2.25,5.031,4.984C324.076,98.681,321.89,100.844,319.144,100.852z"/>
		</g>
		<g>
			<path fill="#FFFFFF" d="M269.909,15.523c-2.77,0.014-4.928-2.097-4.95-4.842c-0.024-2.795,2.194-5.061,4.938-5.041
				c2.655,0.019,4.916,2.3,4.924,4.968C274.829,13.313,272.633,15.51,269.909,15.523z"/>
		</g>
		<g>
			<path fill="#FFFFFF" d="M233.269,28.901c-2.767,0.003-4.896-2.113-4.906-4.878c-0.012-2.714,2.15-4.935,4.854-4.986
				c2.692-0.051,5.04,2.294,5.009,5.001C238.192,26.765,236.019,28.898,233.269,28.901z"/>
		</g>
		<g>
			<path fill="#FFFFFF" d="M213.774,62.597c-2.748-0.017-4.912-2.179-4.904-4.901c0.007-2.679,2.255-4.953,4.908-4.967
				c2.679-0.014,4.959,2.237,4.957,4.893C218.731,60.473,216.597,62.614,213.774,62.597z"/>
		</g>
		<g>
			<path fill="#FFFFFF" d="M294.209,120.978c-0.002,2.757-2.151,4.937-4.874,4.944c-2.679,0.007-4.912-2.213-4.951-4.92
				c-0.039-2.758,2.195-4.98,4.992-4.961C292.133,116.059,294.211,118.182,294.209,120.978z"/>
		</g>
		<g>
			<path fill="#FFFFFF" d="M311.313,23.914c0.004,2.78-2.097,4.927-4.841,4.949c-2.729,0.022-4.904-2.123-4.936-4.87
				c-0.032-2.818,2.135-5.021,4.924-5.006C309.202,19.003,311.308,21.142,311.313,23.914z"/>
		</g>
		<g>
			<path fill="#FFFFFF" d="M220.692,91.131c2.771,0.048,4.813,2.175,4.781,4.978c-0.033,2.741-2.209,4.86-4.961,4.83
				c-2.715-0.03-4.947-2.276-4.908-4.942C215.642,93.225,217.882,91.084,220.692,91.131z"/>
		</g>
		<g>
			<path fill="#FFFFFF" d="M321.219,57.864c0.195-3.303,2.19-5.362,5.019-5.179c2.753,0.178,4.722,2.512,4.551,5.395
				c-0.154,2.586-2.509,4.615-5.198,4.477C323.003,62.423,321.072,60.35,321.219,57.864z"/>
		</g>
	</g>
</g>
<g>
	<path fill="#FFFFFF" d="M290.724,42.901c-0.029,0.021-0.052,0.039-0.07,0.055c-0.047,0.04-0.096,0.08-0.168,0.096
		c-0.627,0.136-1.112,0.52-1.627,0.927l-0.09,0.072c-0.36,0.284-0.719,0.571-1.076,0.859c-0.621,0.499-1.265,1.015-1.91,1.506
		l-0.037,0.028c-0.454,0.344-0.883,0.67-1.137,1.164c-0.043,0.086-0.09,0.207-0.055,0.293c0.022,0.059,0.088,0.107,0.192,0.145
		c0.348,0.124,0.7,0.223,1.073,0.328c0.158,0.045,0.318,0.09,0.479,0.137c0.048,0.014,0.087,0.046,0.109,0.09
		c0.022,0.043,0.026,0.094,0.012,0.141c-0.101,0.307-0.41,0.31-0.575,0.312h-0.086c-0.127,0-0.255-0.003-0.382-0.006
		c-0.304-0.008-0.604-0.009-0.833,0.014c-0.488,0.05-0.936,0.14-1.322,0.267c-0.185,0.06-0.309,0.167-0.361,0.31
		c-0.055,0.156-0.022,0.343,0.094,0.527c0.057,0.091,0.124,0.176,0.189,0.261c0.049,0.063,0.099,0.126,0.145,0.191
		c0.074,0.104,0.125,0.212,0.16,0.34c0.018,0.068-0.004,0.14-0.057,0.185c-0.054,0.045-0.129,0.055-0.192,0.027
		c-0.336-0.151-0.702-0.219-1.187-0.219c-0.158,0-0.314,0.007-0.472,0.016c-0.521,0.03-0.989,0.27-1.388,0.715
		c-0.081,0.091-0.057,0.208-0.035,0.271c0.053,0.151,0.21,0.32,0.441,0.357c0.258,0.042,0.528,0.062,0.791,0.081
		c0.226,0.017,0.453,0.033,0.678,0.063c0.25,0.034,0.49,0.118,0.677,0.238c0.172,0.11,0.26,0.274,0.235,0.436
		c-0.022,0.161-0.152,0.291-0.346,0.347c-0.244,0.07-0.496,0.085-0.742,0.1l-0.078,0.005c-0.004,0-0.037,0.001-0.041,0.001
		c-0.094,0-0.186-0.02-0.266-0.038c-0.033-0.008-0.068-0.015-0.102-0.021c-0.059-0.009-0.115-0.015-0.168-0.015
		c-0.127,0-0.303,0.029-0.412,0.166c-0.102,0.128-0.127,0.329-0.072,0.564c0.217,0.928,0.521,1.731,0.936,2.454
		c0.176,0.308,0.371,0.613,0.561,0.909l0.206,0.324c0.212,0.336,0.339,0.696-0.16,1.048c-0.089,0.063-0.161,0.174-0.239,0.292
		c-0.028,0.045-0.059,0.089-0.088,0.132c-0.048,0.066-0.191,0.268-0.455,0.268c-0.078,0-0.158-0.017-0.246-0.051
		c-0.729-0.282-1.554-0.602-2.373-0.879c-0.525-0.178-1.004-0.226-1.465-0.149c-0.287,0.048-0.584,0.306-0.566,0.614
		c0.027,0.47,0.064,0.967,0.189,1.425c0.16,0.58,0.342,1.166,0.517,1.732c0.215,0.696,0.438,1.416,0.625,2.135
		c0.298,1.15,0.511,2.307,0.702,3.393c0.063,0.354,0.058,0.716,0.054,1.066c-0.002,0.121-0.003,0.242-0.002,0.363
		c0.001,0.109-0.035,0.23-0.108,0.359c-0.318,0.563-0.402,1.207-0.271,2.086c0.013,0.091,0.021,0.225-0.014,0.352
		c-0.287,1.041-0.815,1.795-1.615,2.305c-0.731,0.467-1.106,0.992-1.18,1.651c-0.072,0.647-0.147,1.416-0.156,2.203
		c-0.012,1.114,0.004,2.321,0.047,3.797c0.015,0.529,0.053,1.067,0.091,1.588c0.022,0.308,0.044,0.615,0.062,0.923
		c0.012,0.219,0.018,0.439,0.023,0.659c0.011,0.429,0.021,0.87,0.088,1.29c0.053,0.33,0.211,0.663,0.364,0.986
		c0.036,0.078,0.073,0.154,0.108,0.232c0.071,0.153,0.162,0.299,0.256,0.453c0.072,0.116,0.144,0.232,0.207,0.352
		c0.086,0.16,0.098,0.297,0.035,0.406c-0.095,0.17-0.311,0.185-0.382,0.189c-0.155,0.01-0.312,0.035-0.476,0.061
		c-0.131,0.021-0.264,0.043-0.395,0.055c-0.166,0.019-0.346-0.004-0.472-0.023c-0.226-0.033-0.344-0.137-0.403-0.22
		c-0.057-0.079-0.117-0.218-0.082-0.429c0.038-0.225,0.072-0.424,0.148-0.613c0.102-0.255,0.086-0.325-0.114-0.499
		c-0.118-0.103-0.202-0.272-0.204-0.415c-0.003-0.225,0.03-0.418,0.098-0.577c0.19-0.45,0.135-0.886-0.019-1.44
		c-0.104-0.377-0.149-0.767-0.192-1.145c-0.021-0.189-0.043-0.379-0.072-0.566c-0.021-0.137-0.051-0.272-0.081-0.408
		c-0.025-0.113-0.05-0.228-0.071-0.342c-0.021-0.115-0.045-0.23-0.068-0.347c-0.063-0.306-0.127-0.622-0.133-0.942L273.917,81
		c-0.01-0.67-0.02-1.304-0.186-1.938c-0.069-0.264-0.09-0.536-0.11-0.799c-0.011-0.129-0.021-0.256-0.035-0.383l-0.005-0.045
		c-0.007-0.064-0.016-0.145-0.037-0.174c-0.115-0.166-0.167-0.203-0.188-0.211c-0.014,0.006-0.104,0.063-0.188,0.164
		c-0.291,0.352-0.35,0.791-0.41,1.258l-0.009,0.065c-0.054,0.399-0.009,0.787,0.038,1.196c0.029,0.261,0.061,0.529,0.064,0.801
		c0.006,0.457,0,0.914-0.006,1.371c-0.005,0.27-0.008,0.537-0.009,0.805c-0.002,0.284,0.005,0.568,0.015,0.852l0.012,0.355
		c0.01,0.357,0.02,0.729,0.056,1.088c0.026,0.262,0.11,0.526,0.199,0.772c0.106,0.296,0.237,0.592,0.364,0.878
		c0.252,0.566,0.514,1.15,0.606,1.798c0.013,0.088,0.019,0.218-0.067,0.317c-0.063,0.074-0.156,0.111-0.279,0.111l-0.359,0.004
		c-0.169,0.002-0.338,0.004-0.507,0.004c-0.163,0-0.327-0.002-0.489-0.008c-0.175-0.008-0.39-0.23-0.39-0.406
		c0-0.055-0.003-0.111-0.005-0.168c-0.014-0.315-0.028-0.674,0.3-0.979c0.031-0.028,0.083-0.087,0.076-0.142
		c-0.007-0.051-0.06-0.109-0.146-0.157c-0.33-0.188-0.287-0.435-0.223-0.652c0.121-0.397,0.121-0.778,0.003-1.161
		c-0.112-0.361-0.192-0.734-0.271-1.096l-0.074-0.335c-0.122-0.539-0.238-1.08-0.354-1.621c-0.021-0.103-0.041-0.222-0.027-0.342
		c0.089-0.765-0.114-1.478-0.327-2.231l-0.122-0.432c-0.178-0.615-0.359-1.252-0.28-1.938l0.033-0.267
		c0.037-0.289,0.073-0.589,0.073-0.877c-0.002-0.61-0.326-0.967-0.938-1.03c-0.932-0.096-1.84-0.289-2.605-0.465
		c-0.67-0.154-1.342-0.335-1.991-0.51c-0.397-0.107-0.793-0.215-1.191-0.316c-0.293-0.074-0.579-0.143-0.86-0.154
		c-0.576-0.023-1.055,0.135-1.428,0.479c-0.547,0.505-0.951,1.186-1.27,2.141c-0.463,1.383-1.252,2.601-2.02,3.729
		c-0.386,0.567-0.732,1.177-1.067,1.769l-0.202,0.355c-0.055,0.093-0.084,0.236-0.089,0.412c-0.048,1.834,0.489,3.57,1.592,5.158
		c0.038,0.055,0.085,0.104,0.132,0.154c0.153,0.164,0.363,0.387,0.292,0.768c-0.016,0.086-0.091,0.148-0.178,0.148h-1.765
		c-0.061,0-0.117-0.029-0.15-0.08c-0.034-0.05-0.04-0.113-0.018-0.168c0.022-0.059,0.043-0.111,0.062-0.16
		c0.041-0.11,0.077-0.205,0.125-0.291c0.116-0.213,0.11-0.379-0.022-0.556c-0.453-0.608-0.606-1.319-0.756-2.007l-0.027-0.128
		c-0.104-0.472-0.241-0.944-0.375-1.403c-0.114-0.396-0.232-0.804-0.329-1.211c-0.056-0.23-0.13-0.678-0.011-1.095l0.072-0.249
		c0.207-0.715,0.403-1.391,0.364-2.123c-0.015-0.254,0.028-0.504,0.067-0.746c0.02-0.111,0.037-0.223,0.051-0.335l0.015-0.11
		c0.015-0.097,0.028-0.188,0.015-0.262c-0.012-0.061-0.041-0.132-0.064-0.174c-0.061,0.016-0.131,0.059-0.15,0.09
		c-0.229,0.374-0.492,0.809-0.688,1.258c-0.217,0.494-0.589,0.836-0.919,1.137c-0.466,0.427-0.79,0.928-0.964,1.49
		c-0.041,0.131-0.035,0.291-0.028,0.459l0.004,0.135c0.001,0.095,0.013,0.188,0.022,0.281c0.012,0.111,0.022,0.221,0.023,0.332
		c0.01,1.691,0.305,3.12,0.9,4.368c0.087,0.183,0.206,0.351,0.333,0.528c0.092,0.13,0.184,0.259,0.264,0.395
		c0.088,0.147,0.147,0.371,0.086,0.537c-0.088,0.233-0.487,0.249-0.491,0.249c-0.177,0.005-0.352,0.007-0.527,0.007l-0.668-0.002
		h-0.186c-0.174,0-0.307-0.068-0.371-0.187c-0.061-0.111-0.05-0.249,0.028-0.369c0.302-0.465,0.167-0.892-0.003-1.433
		c-0.148-0.474-0.204-0.957-0.258-1.426c-0.018-0.16-0.037-0.318-0.059-0.478c-0.119-0.868-0.229-1.738-0.336-2.608
		c-0.068-0.549-0.133-1.098-0.188-1.648c-0.039-0.379,0.104-0.729,0.425-1.043c0.563-0.549,0.697-1.211,0.436-2.148
		c-0.086-0.314-0.142-0.568-0.172-0.804c-0.046-0.341-0.08-0.683-0.113-1.022c-0.018-0.173-0.034-0.344-0.053-0.516l-0.074-0.658
		c-0.043-0.396-0.088-0.794-0.127-1.191c-0.013-0.114-0.01-0.231-0.008-0.348c0-0.059,0.002-0.119,0-0.178
		c-0.004-0.184-0.011-0.368-0.019-0.553c-0.017-0.402-0.034-0.818-0.007-1.229l0.007-0.101c0.05-0.778,0.103-1.584,0.581-2.314
		c0.209-0.318,0.109-0.727-0.02-1.148c-0.09-0.291-0.283-0.508-0.592-0.664c-0.188-0.094-0.313-0.299-0.371-0.414
		c-0.443-0.867-0.734-1.75-0.863-2.622c-0.057-0.388,0.019-0.786,0.09-1.171c0.021-0.107,0.041-0.214,0.058-0.319
		c0.034-0.211,0.093-0.415,0.151-0.613c0.029-0.104,0.061-0.208,0.088-0.314c0.035-0.14,0.13-0.511,0.48-0.511
		c0.105,0,0.223,0.034,0.369,0.107c0.344,0.169,0.68,0.337,0.996,0.532c0.292,0.179,0.443,0.479,0.438,0.869
		c-0.002,0.144,0.002,0.29,0.007,0.435c0.008,0.285,0.015,0.58-0.021,0.873c-0.068,0.572,0.156,1.064,0.395,1.584
		c0.119,0.262,0.326,0.391,0.658,0.42c0.703,0.061,1.308-0.236,1.855-0.564c1.059-0.633,2.121-0.957,3.25-0.992
		c0.833-0.025,1.668,0.025,2.498,0.152c0.248,0.039,0.498,0.064,0.748,0.09c0.262,0.027,0.523,0.056,0.781,0.095
		c0.451,0.069,0.935,0.163,1.523,0.293c0.86,0.19,1.863,0.394,2.879,0.394l0.406-0.004c0.333-0.004,0.665-0.008,0.998,0.004
		c0.531,0.023,1.039-0.117,1.691-0.451c0.426-0.219,0.681-0.627,0.779-1.244c0.137-0.866,0.289-1.893,0.377-2.931
		c0.084-0.983,0.265-1.959,0.553-2.983c0.222-0.786,0.443-1.572,0.719-2.329c0.245-0.673,0.691-1.254,1.408-1.827
		c0.154-0.123,0.299-0.324,0.387-0.538c0.035-0.085,0.039-0.156,0.012-0.21c-0.031-0.064-0.113-0.115-0.228-0.144
		c-0.203-0.051-0.407-0.098-0.611-0.145c-0.147-0.034-0.295-0.068-0.44-0.103c-0.067-0.017-0.18-0.044-0.252-0.131
		c-0.092-0.111-0.178-0.228-0.263-0.344l-0.091-0.123c-0.031-0.042-0.043-0.094-0.032-0.146c0.011-0.051,0.043-0.095,0.089-0.12
		c0.053-0.029,0.104-0.068,0.157-0.105c0.136-0.098,0.291-0.209,0.466-0.209c0.504,0.032,0.983,0.1,1.447,0.167
		c0.182,0.026,0.361,0.052,0.542,0.075c0.054,0.007,0.106,0.016,0.16,0.025c0.245,0.043,0.44,0.055,0.571-0.089
		c0.093-0.1,0.125-0.264,0.086-0.419c-0.045-0.169-0.168-0.298-0.336-0.354c-0.408-0.134-0.847-0.282-1.274-0.459
		c-0.417-0.172-0.938-0.437-1.276-0.969c-0.076-0.122-0.111-0.244-0.108-0.397c0.001-0.063,0.034-0.12,0.088-0.152
		c0.054-0.032,0.12-0.035,0.175-0.007l0.096,0.047c0.076,0.037,0.152,0.074,0.226,0.116c0.118,0.068,0.237,0.139,0.354,0.208
		c0.207,0.124,0.414,0.247,0.629,0.359c0.133,0.07,0.254,0.105,0.364,0.105c0.308,0,0.437-0.284,0.492-0.522
		c0.092-0.398,0.101-0.75,0.026-1.107c-0.082-0.393-0.303-0.706-0.697-0.984c-0.404-0.286-0.844-0.543-1.268-0.792l-0.103-0.06
		c-0.353-0.208-0.481-0.503-0.38-0.879c0.017-0.061,0.063-0.109,0.123-0.127c0.06-0.018,0.126-0.003,0.172,0.039l0.113,0.1
		c0.082,0.073,0.16,0.14,0.231,0.212c0.046,0.045,0.087,0.094,0.127,0.143c0.056,0.066,0.107,0.128,0.163,0.168
		c0.051,0.036,0.098,0.055,0.137,0.055c0.101,0,0.172-0.137,0.198-0.196c0.168-0.379,0.038-0.658-0.262-1.04
		c-0.211-0.269-0.474-0.604-0.44-1.099c0.004-0.05,0.028-0.096,0.066-0.128c0.039-0.032,0.088-0.047,0.138-0.039
		c0.332,0.042,0.48,0.271,0.589,0.438c0.024,0.038,0.049,0.076,0.075,0.111c0.069,0.092,0.136,0.187,0.203,0.281
		c0.14,0.196,0.271,0.381,0.423,0.546c0.189,0.203,0.34,0.157,0.452-0.134c0.263-0.672,0.118-1.292-0.468-2.012
		c-0.336-0.413-0.633-0.943-0.277-1.74c0.029-0.067,0.098-0.106,0.169-0.107c0.073,0.001,0.138,0.046,0.165,0.114
		c0.028,0.069,0.055,0.131,0.079,0.187c0.052,0.118,0.097,0.22,0.121,0.334c0.108,0.491,0.342,0.74,0.755,0.805
		c0.087,0.014,0.186-0.005,0.195-0.012l0.184-0.127c0.408-0.28,0.795-0.545,1.034-0.978c0.142-0.257,0.308-0.504,0.465-0.742
		c0.179-0.269,0.364-0.547,0.511-0.832c0.104-0.2,0.16-0.428,0.219-0.67c0.039-0.16,0.08-0.319,0.132-0.472
		c0.05-0.146,0.128-0.274,0.203-0.398c0.03-0.051,0.062-0.102,0.09-0.153c0.042-0.076,0.132-0.112,0.214-0.085l0.137,0.045
		c0.084,0.027,0.135,0.108,0.125,0.194l-0.014,0.11c-0.01,0.08-0.018,0.16-0.03,0.241c-0.014,0.098-0.034,0.197-0.053,0.295
		c-0.039,0.199-0.075,0.387-0.072,0.57c0.007,0.361,0.164,0.363,0.234,0.361c0.073,0,0.168-0.023,0.271-0.068
		c0.506-0.216,1.012-0.432,1.519-0.646c0.112-0.047,0.223-0.047,0.366,0.004c0.054,0.019,0.096,0.063,0.113,0.118
		c0.016,0.055,0.006,0.115-0.029,0.161l-0.094,0.126c-0.078,0.105-0.154,0.21-0.238,0.31c-0.055,0.066-0.123,0.115-0.18,0.159
		l-0.046,0.034c-0.198,0.154-0.297,0.274-0.302,0.368c-0.005,0.096,0.086,0.233,0.279,0.418c0.111,0.107,0.197,0.327,0.199,0.453
		c0,0.088-0.033,0.142-0.063,0.172c-0.199,0.204-0.509,0.181-0.714-0.056c-0.019-0.022-0.04-0.041-0.062-0.06
		c-0.037-0.034-0.072-0.068-0.104-0.107c-0.214-0.267-0.467-0.392-0.795-0.392c-0.26,0-0.54,0.078-0.805,0.162
		c-0.528,0.168-0.89,0.568-1.045,1.156c-0.058,0.221-0.029,0.367,0.293,0.457c0.102,0.028,0.2,0.063,0.301,0.097l0.125,0.043
		c0.082,0.027,0.134,0.109,0.123,0.194l-0.01,0.072c-0.01,0.082-0.074,0.147-0.156,0.157c-0.098,0.012-0.193,0.026-0.289,0.039
		c-0.227,0.033-0.459,0.066-0.693,0.076c-0.229,0.01-0.395,0.08-0.574,0.241c-0.478,0.429-0.592,1.004-0.714,1.615
		c-0.019,0.095-0.038,0.189-0.058,0.284c-0.002,0.012-0.002,0.024-0.002,0.037c-0.002,0.051-0.004,0.119-0.045,0.187
		c-0.254,0.427-0.195,0.882-0.133,1.364c0.021,0.165,0.043,0.33,0.051,0.495c0.015,0.253,0.125,0.316,0.22,0.343
		c0.153,0.043,0.271-0.006,0.422-0.174c0.253-0.283,0.321-0.635,0.386-1.065c0.01-0.063,0.026-0.125,0.047-0.204l0.033-0.125
		c0.016-0.064,0.064-0.114,0.131-0.131c0.063-0.016,0.131,0.002,0.176,0.051c0.357,0.377,0.332,0.832,0.147,1.116
		c-0.276,0.424-0.373,0.893-0.476,1.39c-0.026,0.128-0.053,0.256-0.084,0.384c-0.016,0.068-0.032,0.135-0.051,0.203
		c-0.049,0.19-0.095,0.37-0.105,0.548c-0.008,0.133,0.148,0.454,0.423,0.761c0.235,0.262,0.49,0.437,0.651,0.444l0.066,0.001
		c0.281,0,0.668-0.088,0.912-0.333c0.152-0.153,0.227-0.348,0.227-0.58c-0.002-0.154,0.015-0.304,0.031-0.45
		c0.028-0.268,0.055-0.522-0.025-0.767l-0.027-0.082c-0.066-0.199-0.134-0.404-0.184-0.614c-0.025-0.112-0.027-0.222-0.028-0.328
		c-0.001-0.041-0.001-0.083-0.003-0.124c-0.005-0.089,0.056-0.169,0.145-0.187l0.108-0.022c0.087-0.018,0.175,0.031,0.206,0.114
		l0.245,0.663c0.026,0.071,0.05,0.143,0.073,0.215c0.049,0.146,0.096,0.283,0.158,0.411c0.113,0.234,0.289,0.293,0.536,0.197
		c0.497-0.191,0.935-0.993,0.806-1.48c-0.031-0.123-0.155-0.276-0.349-0.431c-0.317-0.255-0.569-0.485-0.659-0.929
		c-0.037-0.179-0.147-0.355-0.264-0.541c-0.066-0.106-0.133-0.213-0.188-0.322c-0.047-0.091-0.067-0.187-0.086-0.271
		c-0.008-0.033-0.016-0.066-0.024-0.1c-0.022-0.083,0.017-0.172,0.094-0.21l0.111-0.055c0.077-0.04,0.173-0.016,0.226,0.055
		c0.031,0.042,0.063,0.084,0.096,0.125c0.078,0.1,0.154,0.2,0.22,0.309c0.082,0.138,0.157,0.278,0.235,0.419
		c0.125,0.231,0.244,0.449,0.385,0.655c0.078,0.113,0.152,0.171,0.221,0.171c0.051,0,0.143-0.029,0.29-0.168
		c0.196-0.184,0.25-0.42,0.312-0.693c0.025-0.109,0.049-0.217,0.084-0.323c0.025-0.078,0.053-0.157,0.08-0.235l0.035-0.1
		c0.029-0.085,0.115-0.135,0.204-0.119l0.085,0.016c0.09,0.016,0.153,0.098,0.148,0.189c-0.002,0.026-0.002,0.053-0.002,0.08
		c0,0.074,0,0.158-0.026,0.244c-0.053,0.178-0.11,0.356-0.169,0.534c-0.09,0.279-0.184,0.568-0.26,0.854
		c-0.047,0.178-0.061,0.385-0.035,0.583c0.031,0.261,0.297,0.306,0.482,0.206c0.504-0.275,0.842-0.705,0.974-1.244
		c0.077-0.312,0.106-0.633,0.14-0.973c0.016-0.159,0.03-0.317,0.051-0.475l0.039-0.321c0.049-0.394,0.098-0.789,0.164-1.181
		c0.021-0.126,0.088-0.229,0.146-0.32c0.021-0.033,0.043-0.066,0.063-0.1c0.038-0.072,0.12-0.111,0.2-0.09l0.147,0.035
		c0.089,0.021,0.147,0.105,0.138,0.196c-0.013,0.106-0.021,0.212-0.031,0.318c-0.022,0.247-0.046,0.503-0.097,0.753l-0.016,0.072
		c-0.051,0.24-0.094,0.448,0.022,0.619c0.06,0.086,0.179,0.165,0.231,0.166l0.098,0.001c1.102,0,1.688-0.462,1.962-1.545
		c0.031-0.121,0.013-0.295-0.049-0.478c-0.179-0.529-0.226-0.977-0.15-1.411c0.017-0.093,0.056-0.173,0.089-0.244
		c0.014-0.027,0.026-0.053,0.037-0.08c0.032-0.077,0.111-0.122,0.195-0.11l0.109,0.017c0.088,0.013,0.153,0.089,0.153,0.179
		c0,0.087-0.003,0.175-0.005,0.262c-0.005,0.194-0.01,0.377,0.01,0.556c0.027,0.242,0.071,0.556,0.178,0.842
		c0.09,0.24,0.481,0.303,0.824,0.131c0.067-0.034,0.135-0.071,0.203-0.107c0.279-0.152,0.568-0.31,0.932-0.31l0.106,0.001h0.093
		c0.078,0,0.148,0.05,0.174,0.123C290.813,42.773,290.786,42.855,290.724,42.901z"/>
</g>
</svg>
