<?xml version="1.0" encoding="utf-8"?>
<!-- Generator: Adobe Illustrator 16.0.0, SVG Export Plug-In . SVG Version: 6.00 Build 0)  -->
<!DOCTYPE svg PUBLIC "-//W3C//DTD SVG 1.1//EN" "http://www.w3.org/Graphics/SVG/1.1/DTD/svg11.dtd">
<svg version="1.1" id="Layer_1" xmlns="http://www.w3.org/2000/svg" xmlns:xlink="http://www.w3.org/1999/xlink" x="0px" y="0px"
	 width="358.049px" height="124.493px" viewBox="0 0 358.049 124.493" enable-background="new 0 0 358.049 124.493"
	 xml:space="preserve">
<g>
	<g>
		<path fill="#FFFFFF" d="M170.41,46.067l12.608,0.801l1.732,5.519l1.027,0.066c-0.047,1.967,1.123,3.841,3.07,4.576
			c2.086,0.786,4.157,1.344,6.193,1.68c3.518,0.58,6.93,0.491,10.169-0.234l1.269,0.082l-0.131-0.375
			c2.467-0.675,4.823-1.732,7.033-3.153c1.198,4.901,2.396,9.802,3.594,14.704c1.346-0.322,12.4-0.1,17.953-0.314
			c-2.016-8.242-4.714-17.696-6.728-25.937c-1.113-4.558-4.784-7.999-9.75-7.284c-3.937,0.567-7.681,4.439-7.447,8.58
			c-2.327,2.212-4.948,3.667-7.799,4.325l-1.709-4.936l5.246,0.333l0.241-3.758l-40.433-2.569l0.249-3.994l-3.76-0.241l-0.374,5.872
			l3.762,0.238l-0.118,1.878l4.346,0.277L170.41,46.067z M187.242,43.261l8.774,0.558l1.944,5.613
			c-1.856-0.164-3.771-0.598-5.749-1.344c-1.16-0.435-2.377-0.377-3.443,0.047L187.242,43.261z"/>
	</g>
	<g>
		<polygon fill="#FFFFFF" points="227.479,36.12 237.452,33.59 232.631,15.095 234.132,14.703 238.954,33.21 242.87,32.215 
			246.522,33.783 251.256,32.583 258.381,60.668 253.647,61.869 253.612,74.569 238.222,78.472 		"/>
	</g>
	<g>
		<path fill="#FFFFFF" d="M222.642,28.215c-0.966,4.327-4.824,7.566-9.441,7.566c-5.342,0-9.674-4.333-9.674-9.678
			c0-0.259,0.018-0.513,0.037-0.764h9.639C213.199,25.338,217.426,27.524,222.642,28.215z"/>
	</g>
	<g>
		<path fill="#FFFFFF" d="M224.069,26.4c-5.674-0.752-10.272-3.132-10.272-3.132h-10.489h-0.564c0-6.106,4.949-11.056,11.054-11.056
			c6.106,0,11.056,4.949,11.056,11.056c0,1.104-0.168,2.169-0.47,3.176C224.278,26.429,224.174,26.413,224.069,26.4z"/>
	</g>
	<g>
		<path fill="#FFFFFF" d="M228.13,91.98c0.042-2.399,0.16-4.799,0.325-7.192c0.03-0.453,0.344-1.004,0.7-1.3
			c2.693-2.239,4.541-4.774,5.721-7.54c1.21,3.473,1.328,7.182-0.096,11.202c-0.131,0.367-0.119,0.897,0.053,1.238
			c0.908,1.797,1.852,3.577,2.852,5.325c3.108,5.443,6.32,10.82,10.244,15.736c0.637,0.795,1.342,1.612,1.698,2.541
			c0.865,2.25-0.042,4.372-2.178,5.559c-1.888,1.05-5.019,0.549-6.242-1.146c-2.726-3.769-5.513-7.503-8.011-11.42
			c-1.764-2.769-3.453-5.587-5.116-8.421C228.086,95.036,228.104,93.508,228.13,91.98z"/>
	</g>
	<g>
		<path fill="#FFFFFF" d="M216.292,70.687c0-0.001,0-0.001,0-0.002l19.066-0.183c-0.271,1.59-0.711,3.121-1.338,4.59
			c-1.179,2.765-3.027,5.3-5.721,7.539c-0.357,0.298-0.669,0.848-0.699,1.301c-0.166,2.395-0.283,4.793-0.326,7.191
			c-0.026,1.528-0.043,3.057-0.051,4.584c-0.027,5.938,0.146,11.869,0.961,17.774c0.166,1.203,0.391,2.47,0.19,3.638
			c-0.483,2.83-2.707,4.453-5.618,4.368c-2.572-0.075-5.473-2.495-5.695-4.976c-0.496-5.52-1.076-11.043-1.248-16.577
			c-0.215-6.874-0.104-13.761-0.026-20.64C215.821,76.424,216.196,73.56,216.292,70.687z"/>
	</g>
</g>
<g>
	<g>
		<path fill="#FFFFFF" d="M350.059,42.204l4.347-0.277l-0.118-1.878l3.762-0.238l-0.374-5.872l-3.76,0.241l0.249,3.994
			l-40.432,2.569l0.24,3.758l5.246-0.333l-1.709,4.936c-2.851-0.657-5.472-2.113-7.799-4.325c0.234-4.141-3.511-8.013-7.446-8.58
			c-4.967-0.715-8.637,2.725-9.75,7.284c-2.015,8.239-4.713,17.695-6.728,25.938c5.552,0.213,16.604-0.008,17.952,0.313
			c1.197-4.903,2.396-9.803,3.594-14.704c2.209,1.422,4.566,2.479,7.033,3.153l-0.13,0.375l1.268-0.082
			c3.241,0.724,6.652,0.814,10.169,0.234c2.036-0.336,4.107-0.894,6.194-1.68c1.945-0.735,3.116-2.609,3.068-4.576l1.028-0.066
			l1.733-5.519l12.607-0.801L350.059,42.204z M331.944,48.135c-1.067-0.425-2.284-0.483-3.443-0.047
			c-1.977,0.746-3.892,1.18-5.749,1.344l1.945-5.613l8.773-0.558L331.944,48.135z"/>
	</g>
	<g>
		<polygon fill="#FFFFFF" points="293.235,36.12 283.261,33.59 288.082,15.095 286.581,14.703 281.759,33.21 277.843,32.215 
			274.19,33.783 269.457,32.583 262.332,60.668 267.067,61.869 267.101,74.569 282.492,78.472 		"/>
	</g>
	<g>
		<path fill="#FFFFFF" d="M298.071,28.215c0.966,4.327,4.824,7.566,9.441,7.566c5.343,0,9.675-4.333,9.675-9.678
			c0-0.259-0.019-0.513-0.038-0.764h-9.639C307.515,25.338,303.288,27.524,298.071,28.215z"/>
	</g>
	<g>
		<path fill="#FFFFFF" d="M296.644,26.4c5.674-0.752,10.273-3.132,10.273-3.132h10.49h0.563c0-6.106-4.948-11.056-11.054-11.056
			s-11.057,4.949-11.057,11.056c0,1.104,0.168,2.169,0.47,3.176C296.437,26.429,296.54,26.413,296.644,26.4z"/>
	</g>
	<g>
		<path fill="#FFFFFF" d="M292.583,91.98c-0.042-2.399-0.16-4.799-0.325-7.192c-0.03-0.453-0.344-1.004-0.7-1.3
			c-2.692-2.239-4.541-4.774-5.721-7.54c-1.21,3.473-1.328,7.182,0.096,11.202c0.131,0.367,0.119,0.897-0.053,1.238
			c-0.908,1.797-1.852,3.577-2.852,5.325c-3.108,5.443-6.32,10.82-10.244,15.736c-0.637,0.795-1.342,1.612-1.698,2.541
			c-0.864,2.25,0.042,4.372,2.179,5.559c1.887,1.05,5.018,0.549,6.241-1.146c2.726-3.769,5.513-7.503,8.011-11.42
			c1.765-2.769,3.453-5.587,5.116-8.421C292.627,95.036,292.61,93.508,292.583,91.98z"/>
	</g>
	<g>
		<path fill="#FFFFFF" d="M304.421,70.687c0-0.001,0-0.001,0-0.002l-19.066-0.183c0.271,1.59,0.711,3.121,1.338,4.59
			c1.179,2.765,3.027,5.3,5.721,7.539c0.357,0.298,0.669,0.848,0.699,1.301c0.166,2.395,0.283,4.793,0.326,7.191
			c0.026,1.528,0.043,3.057,0.051,4.584c0.027,5.938-0.145,11.869-0.961,17.774c-0.165,1.203-0.391,2.47-0.19,3.638
			c0.484,2.83,2.707,4.453,5.618,4.368c2.572-0.075,5.473-2.495,5.695-4.976c0.496-5.52,1.076-11.043,1.248-16.577
			c0.215-6.874,0.104-13.761,0.026-20.64C304.894,76.424,304.519,73.56,304.421,70.687z"/>
	</g>
</g>
<g>
	<g enable-background="new    ">
		<path fill="#FFFFFF" d="M14.651,39.02v-3.317c0-1.69,0.015-3.007,0.049-3.951c0.032-0.942,0.098-2.259,0.195-3.951
			c0.097-1.69,0.276-3.024,0.536-4c0.259-0.976,0.601-2.162,1.024-3.561c0.422-1.398,1.008-2.488,1.756-3.268
			c0.747-0.78,1.61-1.576,2.585-2.39c0.976-0.813,2.195-1.397,3.658-1.756c1.463-0.356,3.073-0.537,4.829-0.537
			s3.349,0.18,4.78,0.537c1.43,0.358,2.634,0.927,3.609,1.707c0.976,0.781,1.82,1.561,2.536,2.341
			c0.715,0.78,1.284,1.854,1.707,3.219c0.422,1.366,0.764,2.536,1.024,3.512c0.259,0.976,0.439,2.309,0.537,4
			c0.098,1.692,0.161,2.992,0.195,3.902c0.032,0.911,0.049,2.244,0.049,4v26.436c0,3.643-0.163,6.651-0.488,9.024
			c-0.326,2.375-0.992,4.748-2,7.121c-1.009,2.375-2.602,4.146-4.78,5.316c-2.18,1.17-4.96,1.756-8.341,1.756
			c-5.463,0-9.82-1.787-13.072-5.365l5.365-7.023c2.405,2.277,4.649,3.414,6.731,3.414c2.927,0,4.795-1.137,5.609-3.414
			c0.813-2.275,1.219-6.73,1.219-13.365v-3.121c-1.887,2.602-4.455,3.901-7.707,3.901c-2.146,0-3.967-0.356-5.463-1.072
			c-1.497-0.715-2.65-1.593-3.463-2.634c-0.814-1.04-1.415-2.568-1.805-4.585c-0.39-2.016-0.634-3.902-0.731-5.658
			S14.651,42.077,14.651,39.02z M24.504,34.044v4.195c0,2.407,0.032,4.179,0.098,5.316c0.064,1.139,0.227,2.423,0.488,3.853
			c0.259,1.431,0.715,2.439,1.366,3.024c0.649,0.585,1.527,0.878,2.634,0.878c0.78,0,1.446-0.13,2-0.391
			c0.552-0.259,1.007-0.731,1.366-1.414c0.356-0.683,0.634-1.333,0.829-1.951c0.195-0.617,0.325-1.544,0.39-2.78
			c0.064-1.234,0.113-2.259,0.146-3.073c0.032-0.813,0.048-2.032,0.048-3.658v-4c0-1.625-0.017-2.829-0.048-3.609
			c-0.034-0.78-0.083-1.771-0.146-2.975c-0.065-1.203-0.195-2.113-0.39-2.731c-0.195-0.618-0.473-1.268-0.829-1.951
			c-0.358-0.683-0.814-1.154-1.366-1.415c-0.554-0.259-1.22-0.39-2-0.39c-1.106,0-1.984,0.292-2.634,0.878
			c-0.651,0.585-1.106,1.594-1.366,3.024c-0.261,1.432-0.424,2.716-0.488,3.854C24.536,29.867,24.504,31.639,24.504,34.044z"/>
		<path fill="#FFFFFF" d="M63.621,20.778c-2.731,0-5.139,1.365-7.219,4.097l-6.146-5.658c3.056-4.617,7.934-6.926,14.632-6.926
			c10.08,0,15.121,5.919,15.121,17.754c0,1.821-0.098,3.528-0.293,5.121c-0.195,1.595-0.375,2.943-0.537,4.048
			c-0.163,1.107-0.536,2.261-1.121,3.463c-0.586,1.204-1.024,2.131-1.317,2.78c-0.293,0.65-0.927,1.529-1.902,2.634
			c-0.976,1.106-1.658,1.87-2.048,2.292c-0.391,0.423-1.253,1.285-2.586,2.584c-1.333,1.302-2.228,2.18-2.683,2.634
			c-2.406,2.407-4.048,4.683-4.926,6.829c-0.878,2.147-1.317,4.975-1.317,8.487v3.805h17.657v9.17H51.817V72.674
			c0-5.787,0.649-10.292,1.951-13.51c1.3-3.22,3.575-6.454,6.828-9.707c0.13-0.13,0.666-0.649,1.609-1.561
			c0.942-0.91,1.513-1.479,1.707-1.707c0.195-0.227,0.684-0.796,1.464-1.707c0.78-0.91,1.3-1.593,1.561-2.049
			c0.259-0.454,0.649-1.154,1.171-2.097c0.52-0.942,0.861-1.82,1.024-2.634c0.161-0.813,0.341-1.771,0.536-2.878
			c0.195-1.105,0.293-2.244,0.293-3.414c0-3.902-0.521-6.649-1.562-8.243C67.359,21.575,65.767,20.778,63.621,20.778z"/>
		<path fill="#FFFFFF" d="M115.908,35.703v26.046c0,1.755-0.017,3.089-0.049,4c-0.034,0.912-0.098,2.211-0.195,3.902
			s-0.277,3.023-0.536,3.998c-0.261,0.977-0.603,2.164-1.024,3.561c-0.424,1.4-1.01,2.488-1.756,3.27
			c-0.749,0.779-1.61,1.576-2.585,2.389c-0.976,0.814-2.195,1.398-3.658,1.756c-1.464,0.357-3.073,0.537-4.829,0.537
			s-3.351-0.18-4.78-0.537c-1.431-0.357-2.634-0.926-3.609-1.707c-0.976-0.779-1.821-1.561-2.536-2.34
			c-0.716-0.781-1.285-1.854-1.707-3.221c-0.424-1.365-0.765-2.535-1.024-3.512c-0.261-0.975-0.438-2.307-0.536-3.998
			s-0.163-2.992-0.195-3.902c-0.033-0.91-0.049-2.244-0.049-4V35.508c0-1.756,0.016-3.088,0.049-4
			c0.032-0.91,0.098-2.21,0.195-3.902c0.098-1.69,0.275-3.024,0.536-4c0.26-0.976,0.601-2.146,1.024-3.512
			c0.422-1.366,0.991-2.439,1.707-3.219c0.715-0.78,1.561-1.561,2.536-2.341c0.976-0.78,2.179-1.349,3.609-1.707
			c1.43-0.356,3.024-0.537,4.78-0.537s3.365,0.18,4.829,0.537c1.463,0.358,2.683,0.943,3.658,1.756
			c0.975,0.814,1.836,1.61,2.585,2.39c0.746,0.78,1.332,1.87,1.756,3.268c0.422,1.399,0.764,2.585,1.024,3.561
			c0.259,0.976,0.438,2.309,0.536,4c0.098,1.692,0.161,3.009,0.195,3.951C115.892,32.695,115.908,34.012,115.908,35.703z
			 M106.056,63.114V34.142c0-2.405-0.034-4.178-0.098-5.316c-0.065-1.137-0.229-2.422-0.488-3.854
			c-0.261-1.43-0.716-2.438-1.365-3.024c-0.651-0.585-1.529-0.878-2.634-0.878c-0.78,0-1.448,0.131-2,0.39
			c-0.554,0.261-1.009,0.731-1.365,1.415c-0.358,0.683-0.635,1.333-0.83,1.951c-0.194,0.619-0.326,1.545-0.39,2.78
			c-0.065,1.236-0.114,2.261-0.146,3.073c-0.033,0.814-0.049,2.034-0.049,3.658v28.777c0,1.627,0.016,2.83,0.049,3.609
			c0.032,0.781,0.081,1.773,0.146,2.977c0.063,1.203,0.195,2.113,0.39,2.73c0.195,0.619,0.472,1.268,0.83,1.951
			c0.356,0.684,0.812,1.156,1.365,1.414c0.552,0.262,1.22,0.391,2,0.391c1.104,0,1.982-0.293,2.634-0.877
			c0.649-0.586,1.104-1.594,1.365-3.025c0.26-1.43,0.423-2.715,0.488-3.854C106.021,67.293,106.056,65.522,106.056,63.114z"/>
		<path fill="#FFFFFF" d="M151.221,83.893H140.88l-8.877-23.315v23.315h-9.268V13.656h9.268v43.703l8.584-22.145h9.658
			l-9.268,23.217L151.221,83.893z"/>
	</g>
	<g>
		<rect y="92.493" fill="none" width="166" height="32"/>
	</g>
	<g enable-background="new    ">
		<path fill="#FFFFFF" d="M48.846,103.077h-2.034c-0.356-0.514-0.737-1.064-1.143-1.652s-0.828-1.158-1.266-1.715l-0.561,0.523v1.6
			c0,0.164,0.03,0.301,0.089,0.406c0.059,0.107,0.155,0.188,0.287,0.236c0.109,0.047,0.214,0.08,0.314,0.104
			c0.1,0.021,0.216,0.039,0.349,0.047v0.451h-3.302v-0.451c0.104-0.008,0.213-0.02,0.326-0.031c0.113-0.01,0.208-0.027,0.285-0.051
			c0.127-0.041,0.222-0.113,0.285-0.215c0.063-0.104,0.095-0.236,0.095-0.4v-7.84c0-0.168-0.035-0.326-0.106-0.475
			s-0.163-0.262-0.277-0.34c-0.096-0.072-0.245-0.119-0.448-0.143s-0.366-0.039-0.489-0.049v-0.438l2.495-0.15l0.096,0.104v7.131
			c0.355-0.355,0.74-0.736,1.153-1.145s0.76-0.771,1.043-1.09c0.037-0.041,0.076-0.096,0.12-0.162s0.065-0.119,0.065-0.16
			c0-0.123-0.099-0.215-0.297-0.275c-0.198-0.059-0.389-0.1-0.571-0.123v-0.438h2.965v0.424c-0.383,0.115-0.721,0.256-1.015,0.428
			c-0.294,0.17-0.519,0.324-0.673,0.461c-0.109,0.092-0.265,0.24-0.465,0.443c-0.201,0.205-0.481,0.475-0.842,0.807
			c0.374,0.461,0.794,1.012,1.262,1.654c0.468,0.643,0.809,1.109,1.023,1.396c0.2,0.268,0.38,0.443,0.54,0.525
			s0.392,0.133,0.697,0.15V103.077z"/>
		<path fill="#FFFFFF" d="M60.733,103.077h-3.281v-0.451c0.105-0.008,0.211-0.018,0.318-0.027c0.107-0.008,0.202-0.027,0.284-0.055
			c0.127-0.041,0.222-0.113,0.284-0.215c0.062-0.104,0.092-0.236,0.092-0.4V98.45c0-0.475-0.108-0.84-0.325-1.098
			s-0.486-0.387-0.81-0.387c-0.223,0-0.433,0.035-0.629,0.104s-0.376,0.164-0.54,0.287c-0.132,0.1-0.243,0.207-0.332,0.324
			c-0.089,0.115-0.156,0.213-0.202,0.291v3.889c0,0.16,0.027,0.291,0.082,0.393c0.055,0.104,0.148,0.182,0.28,0.236
			c0.105,0.041,0.199,0.072,0.284,0.092c0.084,0.021,0.195,0.037,0.332,0.045v0.451h-3.213v-0.451
			c0.105-0.008,0.206-0.018,0.304-0.027c0.098-0.008,0.188-0.027,0.27-0.055c0.127-0.041,0.222-0.113,0.284-0.215
			c0.062-0.104,0.092-0.236,0.092-0.4V98.45c0-0.475-0.108-0.84-0.326-1.098c-0.217-0.258-0.488-0.387-0.812-0.387
			c-0.224,0-0.434,0.035-0.63,0.105c-0.196,0.072-0.376,0.168-0.541,0.291c-0.133,0.102-0.245,0.213-0.336,0.338
			c-0.091,0.127-0.16,0.221-0.206,0.285v3.861c0,0.156,0.032,0.285,0.096,0.391c0.064,0.104,0.16,0.184,0.287,0.238
			c0.096,0.047,0.194,0.08,0.294,0.104c0.1,0.021,0.212,0.039,0.335,0.047v0.451h-3.274v-0.451c0.105-0.008,0.213-0.018,0.325-0.027
			c0.112-0.008,0.208-0.027,0.291-0.055c0.127-0.041,0.222-0.111,0.284-0.215c0.062-0.102,0.092-0.234,0.092-0.398v-4.186
			c0-0.146-0.033-0.277-0.099-0.393c-0.066-0.117-0.158-0.215-0.277-0.297c-0.086-0.055-0.194-0.1-0.321-0.135
			c-0.127-0.033-0.26-0.055-0.396-0.064v-0.451l2.256-0.15l0.096,0.096v0.965h0.048c0.114-0.115,0.253-0.248,0.417-0.404
			c0.164-0.154,0.317-0.279,0.458-0.375c0.16-0.109,0.359-0.201,0.598-0.273c0.239-0.074,0.498-0.109,0.776-0.109
			c0.438,0,0.813,0.117,1.128,0.352s0.54,0.518,0.677,0.852c0.164-0.16,0.308-0.301,0.433-0.422c0.125-0.119,0.29-0.248,0.495-0.385
			c0.173-0.119,0.376-0.215,0.611-0.287c0.234-0.074,0.495-0.109,0.781-0.109c0.569,0,1.019,0.186,1.352,0.561
			c0.332,0.373,0.498,0.947,0.498,1.723v3.424c0,0.16,0.027,0.291,0.082,0.393c0.055,0.104,0.148,0.182,0.28,0.236
			c0.105,0.041,0.208,0.072,0.311,0.092c0.103,0.021,0.218,0.037,0.345,0.045V103.077z"/>
		<path fill="#FFFFFF" d="M71.486,99.639c0,0.473-0.075,0.939-0.226,1.396c-0.151,0.459-0.365,0.848-0.644,1.166
			c-0.315,0.365-0.68,0.637-1.095,0.814s-0.881,0.266-1.396,0.266c-0.429,0-0.837-0.08-1.225-0.242s-0.732-0.398-1.033-0.707
			c-0.296-0.307-0.533-0.678-0.708-1.119c-0.175-0.439-0.263-0.932-0.263-1.479c0-1.053,0.307-1.914,0.92-2.584
			c0.613-0.67,1.417-1.006,2.412-1.006c0.944,0,1.723,0.318,2.337,0.953C71.18,97.735,71.486,98.581,71.486,99.639z M70.071,99.653
			c0-0.342-0.034-0.703-0.103-1.084c-0.069-0.381-0.171-0.703-0.309-0.967c-0.146-0.283-0.338-0.51-0.575-0.682
			c-0.237-0.17-0.527-0.256-0.87-0.256c-0.352,0-0.652,0.088-0.9,0.26c-0.249,0.174-0.451,0.41-0.606,0.711
			c-0.146,0.279-0.249,0.596-0.309,0.951c-0.059,0.355-0.089,0.699-0.089,1.031c0,0.438,0.035,0.842,0.106,1.213
			c0.071,0.373,0.184,0.703,0.339,0.996c0.155,0.291,0.35,0.52,0.585,0.686c0.235,0.168,0.526,0.25,0.873,0.25
			c0.571,0,1.023-0.275,1.356-0.826C69.905,101.383,70.071,100.624,70.071,99.653z"/>
		<path fill="#FFFFFF" d="M77.475,93.315c0,0.205-0.055,0.379-0.164,0.52c-0.109,0.143-0.275,0.213-0.499,0.213
			c-0.142,0-0.266-0.029-0.372-0.09c-0.107-0.059-0.207-0.139-0.298-0.238c-0.091-0.102-0.176-0.215-0.253-0.342
			c-0.077-0.129-0.144-0.23-0.198-0.309c-0.306,0.014-0.541,0.227-0.708,0.639c-0.166,0.412-0.249,1.066-0.249,1.967v0.689h1.736
			v0.656h-1.736v4.84c0,0.16,0.03,0.289,0.093,0.391c0.061,0.1,0.158,0.176,0.29,0.225c0.109,0.041,0.255,0.074,0.438,0.1
			s0.34,0.043,0.472,0.051v0.451h-3.555v-0.451c0.105-0.008,0.213-0.018,0.325-0.027c0.112-0.008,0.208-0.027,0.291-0.055
			c0.128-0.041,0.222-0.113,0.284-0.215c0.061-0.104,0.092-0.236,0.092-0.4V97.02h-1.333v-0.656h1.333v-0.43
			c0-1.023,0.266-1.852,0.796-2.486c0.531-0.635,1.195-0.953,1.993-0.953c0.405,0,0.711,0.08,0.916,0.24
			C77.372,92.893,77.475,93.088,77.475,93.315z"/>
		<path fill="#FFFFFF" d="M86.771,102.954c-0.214,0.078-0.402,0.141-0.564,0.188c-0.161,0.049-0.345,0.072-0.55,0.072
			c-0.355,0-0.64-0.082-0.851-0.25c-0.213-0.166-0.348-0.408-0.407-0.727h-0.041c-0.296,0.328-0.614,0.578-0.954,0.752
			c-0.339,0.172-0.748,0.26-1.227,0.26c-0.506,0-0.922-0.156-1.248-0.465c-0.325-0.311-0.488-0.717-0.488-1.217
			c0-0.26,0.036-0.492,0.109-0.697s0.183-0.391,0.328-0.555c0.114-0.137,0.265-0.258,0.451-0.365s0.362-0.193,0.526-0.256
			c0.205-0.078,0.621-0.221,1.247-0.432c0.627-0.209,1.05-0.373,1.269-0.492v-0.676c0-0.061-0.013-0.174-0.038-0.342
			c-0.024-0.17-0.078-0.328-0.16-0.479c-0.091-0.17-0.22-0.316-0.387-0.441c-0.166-0.125-0.401-0.188-0.707-0.188
			c-0.21,0-0.404,0.035-0.584,0.105c-0.181,0.07-0.307,0.145-0.38,0.223c0,0.09,0.021,0.225,0.065,0.402
			c0.043,0.178,0.064,0.342,0.064,0.492c0,0.16-0.072,0.307-0.215,0.438c-0.145,0.133-0.344,0.199-0.599,0.199
			c-0.228,0-0.396-0.082-0.503-0.244c-0.106-0.16-0.16-0.342-0.16-0.543c0-0.209,0.074-0.41,0.223-0.602
			c0.147-0.191,0.34-0.361,0.577-0.512c0.205-0.129,0.453-0.236,0.745-0.326c0.292-0.088,0.576-0.133,0.854-0.133
			c0.383,0,0.717,0.027,1.001,0.078c0.285,0.053,0.544,0.166,0.776,0.34c0.232,0.168,0.409,0.396,0.53,0.686
			c0.12,0.291,0.181,0.662,0.181,1.119c0,0.65-0.007,1.229-0.021,1.732s-0.021,1.055-0.021,1.65c0,0.178,0.03,0.32,0.093,0.424
			c0.061,0.105,0.155,0.193,0.283,0.268c0.068,0.041,0.177,0.063,0.324,0.068c0.148,0.004,0.3,0.006,0.455,0.006V102.954z
			 M84.386,99.344c-0.388,0.115-0.727,0.227-1.019,0.336s-0.563,0.246-0.813,0.412c-0.228,0.154-0.408,0.338-0.54,0.551
			s-0.198,0.465-0.198,0.758c0,0.379,0.099,0.656,0.298,0.834c0.197,0.18,0.449,0.268,0.755,0.268c0.323,0,0.608-0.078,0.854-0.236
			c0.246-0.156,0.453-0.344,0.622-0.559L84.386,99.344z"/>
		<path fill="#FFFFFF" d="M94.886,103.077h-3.295v-0.451c0.104-0.008,0.22-0.018,0.345-0.027c0.126-0.008,0.229-0.027,0.312-0.055
			c0.128-0.041,0.222-0.113,0.284-0.215c0.061-0.104,0.092-0.236,0.092-0.4v-3.465c0-0.479-0.113-0.848-0.339-1.107
			c-0.227-0.26-0.502-0.391-0.826-0.391c-0.242,0-0.464,0.037-0.664,0.113c-0.201,0.074-0.38,0.168-0.535,0.277
			c-0.15,0.104-0.271,0.217-0.359,0.338s-0.154,0.217-0.195,0.291v3.875c0,0.156,0.032,0.283,0.096,0.383
			c0.063,0.102,0.159,0.178,0.287,0.232c0.096,0.047,0.199,0.08,0.312,0.104c0.111,0.021,0.227,0.039,0.345,0.047v0.451h-3.302
			v-0.451c0.104-0.008,0.213-0.018,0.324-0.027c0.112-0.008,0.209-0.027,0.291-0.055c0.128-0.041,0.223-0.111,0.283-0.215
			c0.063-0.102,0.093-0.234,0.093-0.398v-4.158c0-0.156-0.033-0.297-0.099-0.428c-0.066-0.129-0.159-0.234-0.277-0.316
			c-0.087-0.055-0.189-0.096-0.308-0.121c-0.118-0.023-0.246-0.041-0.383-0.051v-0.451l2.242-0.15l0.096,0.096v0.951h0.034
			c0.109-0.109,0.246-0.24,0.41-0.395c0.164-0.152,0.319-0.275,0.465-0.371c0.169-0.109,0.369-0.201,0.602-0.273
			c0.232-0.074,0.494-0.109,0.786-0.109c0.647,0,1.127,0.201,1.438,0.604c0.313,0.404,0.469,0.941,0.469,1.611v3.506
			c0,0.16,0.027,0.289,0.082,0.387s0.148,0.174,0.28,0.229c0.109,0.047,0.204,0.078,0.284,0.096c0.079,0.02,0.189,0.033,0.331,0.041
			V103.077z"/>
		<path fill="#FFFFFF" d="M99.876,102.784c-0.296,0.123-0.576,0.227-0.841,0.311s-0.588,0.127-0.971,0.127
			c-0.565,0-0.963-0.143-1.193-0.428c-0.229-0.285-0.345-0.688-0.345-1.207V97.02H95.31v-0.656h1.244v-2.098h1.244v2.098h1.935
			v0.656h-1.921v3.768c0,0.281,0.011,0.518,0.03,0.707c0.021,0.189,0.07,0.354,0.147,0.496c0.073,0.131,0.183,0.232,0.328,0.301
			s0.342,0.102,0.588,0.102c0.114,0,0.281-0.01,0.503-0.031c0.221-0.02,0.377-0.045,0.468-0.078V102.784z"/>
		<path fill="#FFFFFF" d="M103.813,103.077h-3.254v-0.451c0.104-0.008,0.213-0.018,0.324-0.027c0.112-0.008,0.209-0.027,0.291-0.055
			c0.128-0.041,0.223-0.111,0.283-0.215c0.063-0.102,0.093-0.234,0.093-0.398v-4.158c0-0.146-0.033-0.279-0.099-0.4
			c-0.066-0.121-0.159-0.221-0.277-0.303c-0.087-0.055-0.212-0.102-0.376-0.141s-0.314-0.063-0.451-0.072v-0.451l2.379-0.15
			l0.096,0.096v5.496c0,0.16,0.03,0.293,0.092,0.396c0.061,0.105,0.157,0.184,0.288,0.232c0.1,0.041,0.197,0.074,0.292,0.1
			c0.096,0.025,0.201,0.043,0.319,0.051V103.077z M102.959,93.596c0,0.26-0.085,0.486-0.257,0.68
			c-0.17,0.193-0.381,0.291-0.632,0.291c-0.232,0-0.435-0.094-0.604-0.277c-0.172-0.186-0.257-0.395-0.257-0.633
			c0-0.25,0.085-0.469,0.257-0.656c0.17-0.186,0.372-0.279,0.604-0.279c0.26,0,0.473,0.088,0.64,0.262
			C102.876,93.159,102.959,93.364,102.959,93.596z"/>
		<path fill="#FFFFFF" d="M108.811,99.905h-4.074v-1.08h4.074V99.905z"/>
		<path fill="#FFFFFF" d="M116.043,97.137c0.269,0.318,0.478,0.689,0.626,1.109c0.147,0.422,0.222,0.904,0.222,1.447
			c0,0.533-0.089,1.02-0.267,1.459s-0.412,0.814-0.704,1.125c-0.306,0.314-0.645,0.555-1.019,0.725
			c-0.374,0.168-0.771,0.252-1.189,0.252c-0.405,0-0.738-0.045-0.998-0.137c-0.26-0.09-0.472-0.197-0.636-0.32h-0.055v2.027
			c0,0.164,0.032,0.303,0.096,0.412s0.162,0.189,0.294,0.24c0.109,0.041,0.266,0.08,0.469,0.119c0.202,0.039,0.37,0.061,0.502,0.064
			v0.451h-3.767v-0.451c0.142-0.008,0.278-0.02,0.41-0.033s0.251-0.037,0.355-0.068c0.137-0.047,0.232-0.125,0.287-0.24
			c0.055-0.113,0.082-0.248,0.082-0.402v-7.172c0-0.137-0.034-0.268-0.103-0.396c-0.068-0.127-0.157-0.23-0.267-0.307
			c-0.082-0.055-0.196-0.098-0.342-0.127s-0.287-0.049-0.424-0.059v-0.451l2.297-0.15l0.096,0.082v0.76l0.055,0.014
			c0.237-0.273,0.531-0.502,0.882-0.684c0.351-0.184,0.699-0.273,1.046-0.273c0.419,0,0.804,0.088,1.151,0.266
			C115.493,96.596,115.792,96.836,116.043,97.137z M114.929,101.983c0.183-0.281,0.316-0.609,0.403-0.984
			c0.087-0.373,0.13-0.791,0.13-1.25c0-0.338-0.036-0.682-0.109-1.033c-0.073-0.35-0.187-0.656-0.342-0.916
			c-0.155-0.264-0.357-0.479-0.608-0.643s-0.552-0.246-0.902-0.246c-0.337,0-0.624,0.074-0.861,0.223s-0.442,0.324-0.615,0.529
			v3.986c0.041,0.123,0.108,0.25,0.202,0.383c0.093,0.131,0.196,0.246,0.311,0.342c0.142,0.113,0.294,0.205,0.458,0.275
			c0.164,0.072,0.364,0.107,0.602,0.107c0.255,0,0.501-0.068,0.738-0.203C114.571,102.42,114.77,102.229,114.929,101.983z"/>
		<path fill="#FFFFFF" d="M124.458,99.639c0,0.473-0.075,0.939-0.226,1.396c-0.15,0.459-0.365,0.848-0.644,1.166
			c-0.314,0.365-0.68,0.637-1.095,0.814s-0.881,0.266-1.396,0.266c-0.429,0-0.837-0.08-1.225-0.242s-0.732-0.398-1.033-0.707
			c-0.297-0.307-0.532-0.678-0.708-1.119c-0.176-0.439-0.264-0.932-0.264-1.479c0-1.053,0.307-1.914,0.92-2.584
			c0.614-0.67,1.418-1.006,2.412-1.006c0.944,0,1.724,0.318,2.338,0.953C124.151,97.735,124.458,98.581,124.458,99.639z
			 M123.043,99.653c0-0.342-0.034-0.703-0.103-1.084s-0.172-0.703-0.309-0.967c-0.146-0.283-0.338-0.51-0.575-0.682
			c-0.237-0.17-0.527-0.256-0.87-0.256c-0.352,0-0.651,0.088-0.9,0.26c-0.248,0.174-0.45,0.41-0.605,0.711
			c-0.146,0.279-0.249,0.596-0.309,0.951s-0.089,0.699-0.089,1.031c0,0.438,0.035,0.842,0.106,1.213
			c0.07,0.373,0.184,0.703,0.339,0.996c0.155,0.291,0.351,0.52,0.585,0.686c0.235,0.168,0.526,0.25,0.873,0.25
			c0.571,0,1.023-0.275,1.356-0.826C122.876,101.383,123.043,100.624,123.043,99.653z"/>
		<path fill="#FFFFFF" d="M131.813,102.954c-0.214,0.078-0.402,0.141-0.564,0.188c-0.161,0.049-0.345,0.072-0.55,0.072
			c-0.355,0-0.64-0.082-0.851-0.25c-0.213-0.166-0.348-0.408-0.407-0.727H129.4c-0.296,0.328-0.614,0.578-0.954,0.752
			c-0.339,0.172-0.748,0.26-1.227,0.26c-0.506,0-0.922-0.156-1.248-0.465c-0.325-0.311-0.488-0.717-0.488-1.217
			c0-0.26,0.036-0.492,0.109-0.697s0.183-0.391,0.328-0.555c0.114-0.137,0.265-0.258,0.451-0.365s0.362-0.193,0.526-0.256
			c0.205-0.078,0.621-0.221,1.247-0.432c0.627-0.209,1.05-0.373,1.269-0.492v-0.676c0-0.061-0.013-0.174-0.038-0.342
			c-0.024-0.17-0.078-0.328-0.16-0.479c-0.091-0.17-0.22-0.316-0.387-0.441c-0.166-0.125-0.401-0.188-0.707-0.188
			c-0.21,0-0.404,0.035-0.584,0.105c-0.181,0.07-0.307,0.145-0.38,0.223c0,0.09,0.021,0.225,0.065,0.402
			c0.043,0.178,0.064,0.342,0.064,0.492c0,0.16-0.072,0.307-0.215,0.438c-0.145,0.133-0.344,0.199-0.599,0.199
			c-0.228,0-0.396-0.082-0.503-0.244c-0.106-0.16-0.16-0.342-0.16-0.543c0-0.209,0.074-0.41,0.223-0.602
			c0.147-0.191,0.34-0.361,0.577-0.512c0.205-0.129,0.453-0.236,0.745-0.326c0.292-0.088,0.576-0.133,0.854-0.133
			c0.383,0,0.717,0.027,1.001,0.078c0.285,0.053,0.544,0.166,0.776,0.34c0.232,0.168,0.409,0.396,0.53,0.686
			c0.12,0.291,0.181,0.662,0.181,1.119c0,0.65-0.007,1.229-0.021,1.732s-0.021,1.055-0.021,1.65c0,0.178,0.03,0.32,0.093,0.424
			c0.061,0.105,0.155,0.193,0.283,0.268c0.068,0.041,0.177,0.063,0.324,0.068c0.148,0.004,0.3,0.006,0.455,0.006V102.954z
			 M129.428,99.344c-0.388,0.115-0.727,0.227-1.019,0.336s-0.563,0.246-0.813,0.412c-0.228,0.154-0.408,0.338-0.54,0.551
			s-0.198,0.465-0.198,0.758c0,0.379,0.099,0.656,0.298,0.834c0.197,0.18,0.449,0.268,0.755,0.268c0.323,0,0.608-0.078,0.854-0.236
			c0.246-0.156,0.453-0.344,0.622-0.559L129.428,99.344z"/>
		<path fill="#FFFFFF" d="M135.601,103.254c-0.976,0-1.738-0.322-2.29-0.971c-0.552-0.646-0.827-1.516-0.827-2.604
			c0-0.475,0.074-0.918,0.223-1.33c0.147-0.412,0.363-0.787,0.646-1.125c0.269-0.322,0.606-0.584,1.012-0.783
			c0.405-0.197,0.848-0.297,1.326-0.297c0.661,0,1.198,0.158,1.613,0.475c0.415,0.318,0.622,0.75,0.622,1.297
			c0,0.227-0.055,0.43-0.164,0.604c-0.109,0.176-0.289,0.264-0.54,0.264c-0.269,0-0.478-0.068-0.626-0.203
			c-0.147-0.137-0.222-0.289-0.222-0.457c0-0.205,0.027-0.414,0.082-0.631c0.055-0.215,0.087-0.373,0.096-0.473
			c-0.082-0.141-0.203-0.236-0.365-0.283c-0.161-0.049-0.335-0.072-0.521-0.072c-0.218,0-0.426,0.047-0.624,0.141
			c-0.197,0.094-0.39,0.266-0.576,0.516c-0.168,0.229-0.304,0.535-0.408,0.924c-0.105,0.387-0.157,0.85-0.157,1.387
			c0,0.848,0.188,1.539,0.563,2.074c0.375,0.537,0.867,0.805,1.478,0.805c0.441,0,0.811-0.107,1.108-0.324
			c0.299-0.215,0.575-0.537,0.83-0.969l0.437,0.287c-0.301,0.539-0.697,0.965-1.189,1.279S136.125,103.254,135.601,103.254z"/>
		<path fill="#FFFFFF" d="M146.176,103.077h-3.315v-0.451c0.104-0.008,0.221-0.018,0.349-0.027c0.128-0.008,0.232-0.027,0.314-0.055
			c0.128-0.041,0.222-0.113,0.284-0.215c0.061-0.104,0.092-0.236,0.092-0.4v-3.465c0-0.479-0.113-0.848-0.339-1.107
			c-0.227-0.26-0.502-0.391-0.826-0.391c-0.237,0-0.458,0.037-0.661,0.113c-0.203,0.074-0.385,0.168-0.545,0.277
			c-0.155,0.113-0.273,0.227-0.356,0.342c-0.082,0.113-0.146,0.209-0.191,0.287v3.875c0,0.156,0.03,0.283,0.093,0.383
			c0.061,0.102,0.155,0.178,0.283,0.232c0.101,0.047,0.204,0.08,0.311,0.104c0.107,0.021,0.225,0.039,0.353,0.047v0.451h-3.302
			v-0.451c0.104-0.008,0.213-0.02,0.326-0.031c0.113-0.01,0.208-0.027,0.285-0.051c0.126-0.041,0.222-0.113,0.285-0.215
			c0.063-0.104,0.095-0.236,0.095-0.4v-7.854c0-0.154-0.035-0.311-0.106-0.465c-0.07-0.154-0.162-0.271-0.276-0.35
			c-0.082-0.059-0.227-0.102-0.435-0.125c-0.207-0.025-0.374-0.043-0.502-0.053v-0.438l2.495-0.15l0.096,0.104v4.703h0.027
			c0.15-0.15,0.287-0.285,0.411-0.4c0.123-0.117,0.285-0.238,0.486-0.365c0.173-0.109,0.377-0.201,0.612-0.273
			c0.235-0.074,0.499-0.109,0.791-0.109c0.603,0,1.065,0.189,1.39,0.57s0.486,0.928,0.486,1.645v3.506
			c0,0.16,0.028,0.289,0.086,0.387s0.152,0.174,0.286,0.229c0.105,0.041,0.2,0.072,0.285,0.092c0.085,0.021,0.196,0.037,0.334,0.045
			V103.077z"/>
		<path fill="#FFFFFF" d="M150.257,103.077h-3.254v-0.451c0.104-0.008,0.213-0.018,0.324-0.027c0.112-0.008,0.209-0.027,0.291-0.055
			c0.128-0.041,0.223-0.111,0.283-0.215c0.063-0.102,0.093-0.234,0.093-0.398v-4.158c0-0.146-0.033-0.279-0.099-0.4
			c-0.066-0.121-0.159-0.221-0.277-0.303c-0.087-0.055-0.212-0.102-0.376-0.141s-0.314-0.063-0.451-0.072v-0.451l2.379-0.15
			l0.096,0.096v5.496c0,0.16,0.03,0.293,0.092,0.396c0.061,0.105,0.157,0.184,0.288,0.232c0.1,0.041,0.197,0.074,0.292,0.1
			c0.096,0.025,0.201,0.043,0.319,0.051V103.077z M149.402,93.596c0,0.26-0.085,0.486-0.257,0.68
			c-0.17,0.193-0.381,0.291-0.632,0.291c-0.232,0-0.435-0.094-0.604-0.277c-0.172-0.186-0.257-0.395-0.257-0.633
			c0-0.25,0.085-0.469,0.257-0.656c0.17-0.186,0.372-0.279,0.604-0.279c0.26,0,0.473,0.088,0.64,0.262
			C149.319,93.159,149.402,93.364,149.402,93.596z"/>
		<path fill="#FFFFFF" d="M158.535,103.077h-3.295v-0.451c0.104-0.008,0.22-0.018,0.345-0.027c0.126-0.008,0.229-0.027,0.312-0.055
			c0.128-0.041,0.222-0.113,0.284-0.215c0.061-0.104,0.092-0.236,0.092-0.4v-3.465c0-0.479-0.113-0.848-0.339-1.107
			c-0.227-0.26-0.502-0.391-0.826-0.391c-0.242,0-0.464,0.037-0.664,0.113c-0.201,0.074-0.38,0.168-0.535,0.277
			c-0.15,0.104-0.271,0.217-0.359,0.338s-0.154,0.217-0.195,0.291v3.875c0,0.156,0.032,0.283,0.096,0.383
			c0.063,0.102,0.159,0.178,0.287,0.232c0.096,0.047,0.199,0.08,0.312,0.104c0.111,0.021,0.227,0.039,0.345,0.047v0.451h-3.302
			v-0.451c0.104-0.008,0.213-0.018,0.324-0.027c0.112-0.008,0.209-0.027,0.291-0.055c0.128-0.041,0.223-0.111,0.283-0.215
			c0.063-0.102,0.093-0.234,0.093-0.398v-4.158c0-0.156-0.033-0.297-0.099-0.428c-0.066-0.129-0.159-0.234-0.277-0.316
			c-0.087-0.055-0.189-0.096-0.308-0.121c-0.118-0.023-0.246-0.041-0.383-0.051v-0.451l2.242-0.15l0.096,0.096v0.951h0.034
			c0.109-0.109,0.246-0.24,0.41-0.395c0.164-0.152,0.319-0.275,0.465-0.371c0.169-0.109,0.369-0.201,0.602-0.273
			c0.232-0.074,0.494-0.109,0.786-0.109c0.647,0,1.127,0.201,1.438,0.604c0.313,0.404,0.469,0.941,0.469,1.611v3.506
			c0,0.16,0.027,0.289,0.082,0.387s0.148,0.174,0.28,0.229c0.109,0.047,0.204,0.078,0.284,0.096c0.079,0.02,0.189,0.033,0.331,0.041
			V103.077z"/>
		<path fill="#FFFFFF" d="M165.139,102.379c0.183,0.174,0.326,0.369,0.431,0.588s0.157,0.49,0.157,0.814
			c0,0.322-0.07,0.627-0.212,0.912s-0.355,0.531-0.643,0.742c-0.306,0.213-0.67,0.381-1.094,0.498
			c-0.424,0.119-0.948,0.178-1.572,0.178c-1.021,0-1.784-0.148-2.29-0.447s-0.759-0.734-0.759-1.309
			c0-0.465,0.183-0.832,0.547-1.102c0.364-0.268,0.829-0.414,1.395-0.438v-0.096c-0.137-0.041-0.278-0.092-0.424-0.154
			c-0.146-0.061-0.271-0.133-0.376-0.215c-0.118-0.096-0.214-0.209-0.287-0.338c-0.073-0.131-0.109-0.291-0.109-0.482
			c0-0.24,0.085-0.463,0.257-0.666c0.17-0.203,0.429-0.377,0.775-0.523v-0.102c-0.438-0.205-0.777-0.469-1.019-0.791
			c-0.241-0.32-0.362-0.693-0.362-1.117c0-0.637,0.238-1.162,0.715-1.572c0.476-0.41,1.085-0.615,1.828-0.615
			c0.205,0,0.409,0.021,0.611,0.063c0.203,0.041,0.409,0.094,0.619,0.156h2.352v0.656h-1.586v0.041
			c0.169,0.197,0.294,0.412,0.376,0.65c0.082,0.236,0.123,0.469,0.123,0.697c0,0.592-0.24,1.094-0.722,1.504
			c-0.48,0.41-1.04,0.615-1.678,0.615h-0.827c-0.104,0.035-0.214,0.102-0.328,0.197s-0.171,0.227-0.171,0.391
			c0,0.168,0.048,0.297,0.144,0.385c0.096,0.09,0.212,0.15,0.349,0.182c0.132,0.037,0.286,0.061,0.461,0.068
			c0.176,0.01,0.357,0.016,0.544,0.021c0.2,0.004,0.476,0.018,0.823,0.041c0.35,0.021,0.597,0.035,0.742,0.041
			c0.21,0.008,0.42,0.059,0.633,0.15C164.772,102.094,164.966,102.221,165.139,102.379z M164.605,104.034
			c0-0.254-0.06-0.465-0.178-0.629s-0.299-0.275-0.54-0.334c-0.128-0.02-0.39-0.039-0.786-0.063
			c-0.396-0.021-0.856-0.033-1.381-0.033c-0.492,0.096-0.842,0.256-1.05,0.48c-0.207,0.227-0.311,0.518-0.311,0.873
			c0,0.158,0.034,0.313,0.103,0.457c0.068,0.146,0.187,0.281,0.355,0.404c0.159,0.117,0.374,0.215,0.643,0.289
			c0.269,0.076,0.597,0.113,0.984,0.113c0.67,0,1.197-0.129,1.583-0.387C164.413,104.95,164.605,104.559,164.605,104.034z
			 M163.293,98.381c0-0.533-0.108-0.959-0.325-1.275c-0.216-0.316-0.521-0.475-0.912-0.475c-0.214,0-0.397,0.043-0.551,0.133
			c-0.152,0.088-0.276,0.215-0.372,0.379c-0.091,0.15-0.156,0.332-0.194,0.543c-0.039,0.213-0.059,0.43-0.059,0.654
			c0,0.506,0.11,0.918,0.332,1.236c0.221,0.32,0.507,0.479,0.857,0.479c0.392,0,0.693-0.158,0.906-0.475
			C163.187,99.264,163.293,98.864,163.293,98.381z"/>
	</g>
	<g enable-background="new    ">
		<path fill="#FFFFFF" d="M12.507,113.936c0.269,0.32,0.478,0.689,0.625,1.111s0.222,0.904,0.222,1.445
			c0,0.533-0.089,1.02-0.267,1.461c-0.178,0.439-0.413,0.814-0.704,1.123c-0.305,0.314-0.645,0.557-1.019,0.725
			c-0.374,0.17-0.77,0.254-1.189,0.254c-0.406,0-0.738-0.047-0.998-0.137c-0.26-0.092-0.472-0.199-0.636-0.322H8.487v2.029
			c0,0.164,0.032,0.301,0.096,0.41s0.162,0.189,0.294,0.24c0.109,0.041,0.266,0.08,0.468,0.119s0.37,0.061,0.502,0.066v0.451H6.081
			v-0.451c0.141-0.01,0.278-0.021,0.41-0.035s0.25-0.035,0.355-0.068c0.137-0.045,0.232-0.125,0.287-0.238
			c0.055-0.115,0.082-0.248,0.082-0.404v-7.17c0-0.137-0.034-0.27-0.103-0.396c-0.068-0.129-0.157-0.23-0.267-0.309
			c-0.082-0.055-0.196-0.096-0.342-0.125c-0.146-0.031-0.287-0.051-0.424-0.059v-0.451l2.297-0.15l0.096,0.082v0.758l0.055,0.014
			c0.237-0.273,0.531-0.5,0.882-0.684c0.351-0.182,0.7-0.273,1.046-0.273c0.419,0,0.803,0.09,1.152,0.268
			S12.256,113.635,12.507,113.936z M11.393,118.784c0.182-0.283,0.317-0.611,0.403-0.984c0.086-0.375,0.13-0.791,0.13-1.252
			c0-0.336-0.037-0.682-0.109-1.031c-0.073-0.352-0.187-0.656-0.342-0.916c-0.155-0.266-0.358-0.479-0.608-0.643
			s-0.551-0.246-0.902-0.246c-0.337,0-0.625,0.074-0.861,0.223c-0.237,0.146-0.442,0.324-0.615,0.529v3.984
			c0.041,0.123,0.108,0.252,0.202,0.383c0.093,0.133,0.197,0.246,0.311,0.342c0.141,0.115,0.294,0.207,0.458,0.277
			s0.365,0.105,0.602,0.105c0.255,0,0.501-0.066,0.738-0.201S11.233,119.03,11.393,118.784z"/>
		<path fill="#FFFFFF" d="M20.73,119.754c-0.214,0.076-0.402,0.141-0.564,0.188c-0.162,0.049-0.345,0.072-0.55,0.072
			c-0.355,0-0.639-0.084-0.851-0.25s-0.348-0.408-0.407-0.729h-0.041c-0.296,0.328-0.614,0.58-0.954,0.752
			c-0.339,0.174-0.749,0.26-1.227,0.26c-0.506,0-0.922-0.154-1.248-0.465c-0.326-0.309-0.489-0.715-0.489-1.217
			c0-0.26,0.037-0.492,0.109-0.697s0.182-0.389,0.328-0.553c0.114-0.137,0.264-0.26,0.451-0.365
			c0.187-0.107,0.362-0.193,0.526-0.258c0.205-0.076,0.621-0.221,1.248-0.43c0.626-0.211,1.049-0.375,1.268-0.492v-0.678
			c0-0.059-0.013-0.172-0.038-0.342c-0.025-0.168-0.079-0.328-0.161-0.479c-0.091-0.168-0.22-0.314-0.386-0.439
			c-0.167-0.127-0.402-0.189-0.708-0.189c-0.209,0-0.404,0.035-0.584,0.107c-0.18,0.07-0.307,0.145-0.379,0.221
			c0,0.092,0.021,0.227,0.065,0.404s0.065,0.342,0.065,0.492c0,0.158-0.072,0.305-0.215,0.438c-0.144,0.131-0.343,0.197-0.598,0.197
			c-0.228,0-0.396-0.08-0.502-0.242s-0.161-0.344-0.161-0.543c0-0.211,0.074-0.41,0.222-0.602s0.341-0.363,0.578-0.514
			c0.205-0.127,0.454-0.234,0.745-0.324c0.292-0.088,0.577-0.133,0.854-0.133c0.383,0,0.717,0.025,1.001,0.078
			s0.543,0.166,0.776,0.338c0.232,0.17,0.409,0.398,0.53,0.688s0.181,0.662,0.181,1.117c0,0.652-0.007,1.23-0.021,1.734
			c-0.014,0.502-0.021,1.053-0.021,1.65c0,0.178,0.031,0.318,0.092,0.424c0.062,0.104,0.156,0.193,0.284,0.266
			c0.068,0.041,0.177,0.064,0.325,0.068c0.148,0.006,0.3,0.008,0.455,0.008V119.754z M18.345,116.145
			c-0.387,0.113-0.727,0.227-1.019,0.336s-0.563,0.246-0.813,0.41c-0.228,0.156-0.408,0.34-0.54,0.551
			c-0.132,0.213-0.198,0.465-0.198,0.758c0,0.379,0.099,0.658,0.297,0.836s0.45,0.268,0.755,0.268c0.324,0,0.608-0.08,0.854-0.236
			c0.246-0.158,0.454-0.344,0.622-0.559L18.345,116.145z"/>
		<path fill="#FFFFFF" d="M25.563,119.583c-0.296,0.123-0.577,0.227-0.841,0.313c-0.264,0.084-0.588,0.125-0.971,0.125
			c-0.565,0-0.963-0.143-1.193-0.426c-0.23-0.285-0.345-0.688-0.345-1.207v-4.566h-1.217v-0.656h1.244v-2.1h1.244v2.1h1.935v0.656
			h-1.921v3.766c0,0.283,0.01,0.52,0.031,0.709c0.021,0.188,0.069,0.354,0.147,0.494c0.073,0.133,0.182,0.232,0.328,0.301
			s0.342,0.104,0.588,0.104c0.114,0,0.281-0.01,0.502-0.031c0.221-0.02,0.377-0.047,0.468-0.078V119.583z"/>
		<path fill="#FFFFFF" d="M31.395,114.004c0,0.232-0.057,0.439-0.171,0.619s-0.29,0.27-0.526,0.27c-0.255,0-0.45-0.066-0.584-0.197
			c-0.134-0.133-0.202-0.279-0.202-0.438c0-0.102,0.008-0.191,0.024-0.273s0.031-0.164,0.044-0.246c-0.214,0-0.465,0.086-0.752,0.26
			c-0.287,0.172-0.531,0.418-0.731,0.738v3.924c0,0.158,0.031,0.289,0.092,0.389c0.062,0.102,0.158,0.176,0.291,0.227
			c0.114,0.045,0.261,0.08,0.441,0.102c0.18,0.023,0.336,0.039,0.468,0.049v0.451h-3.555v-0.451c0.105-0.01,0.213-0.02,0.325-0.027
			c0.112-0.01,0.208-0.027,0.291-0.055c0.127-0.041,0.222-0.113,0.284-0.215c0.062-0.104,0.092-0.236,0.092-0.4v-4.158
			c0-0.141-0.033-0.279-0.099-0.416s-0.158-0.246-0.277-0.328c-0.086-0.055-0.189-0.094-0.308-0.119s-0.246-0.043-0.383-0.051
			v-0.451l2.242-0.15l0.096,0.096v0.949h0.034c0.283-0.369,0.597-0.648,0.943-0.84s0.663-0.287,0.95-0.287s0.521,0.094,0.701,0.279
			C31.305,113.44,31.395,113.69,31.395,114.004z"/>
		<path fill="#FFFFFF" d="M38.545,116.438c0,0.475-0.075,0.941-0.226,1.398c-0.151,0.459-0.365,0.846-0.644,1.166
			c-0.315,0.363-0.68,0.635-1.095,0.813s-0.881,0.268-1.396,0.268c-0.429,0-0.837-0.082-1.225-0.242
			c-0.388-0.162-0.732-0.398-1.033-0.709c-0.296-0.305-0.533-0.678-0.708-1.117c-0.175-0.439-0.263-0.934-0.263-1.48
			c0-1.053,0.307-1.914,0.92-2.584c0.613-0.67,1.417-1.004,2.412-1.004c0.944,0,1.723,0.318,2.337,0.953
			C38.238,114.536,38.545,115.381,38.545,116.438z M37.13,116.452c0-0.342-0.034-0.703-0.103-1.082
			c-0.069-0.381-0.171-0.703-0.309-0.969c-0.146-0.281-0.338-0.508-0.575-0.68c-0.237-0.17-0.527-0.256-0.87-0.256
			c-0.352,0-0.652,0.086-0.9,0.26c-0.249,0.172-0.451,0.41-0.606,0.711c-0.146,0.277-0.249,0.594-0.309,0.949
			c-0.059,0.355-0.089,0.699-0.089,1.033c0,0.438,0.035,0.842,0.106,1.213s0.184,0.703,0.339,0.994
			c0.155,0.293,0.35,0.521,0.585,0.688c0.235,0.166,0.526,0.25,0.873,0.25c0.571,0,1.023-0.275,1.356-0.828
			C36.963,118.184,37.13,117.422,37.13,116.452z"/>
		<path fill="#FFFFFF" d="M42.674,119.877h-3.288v-0.451c0.104-0.01,0.217-0.02,0.335-0.031s0.217-0.029,0.294-0.051
			c0.128-0.041,0.224-0.113,0.287-0.217c0.063-0.102,0.096-0.234,0.096-0.4v-7.811c0-0.164-0.035-0.318-0.106-0.463
			c-0.07-0.143-0.162-0.256-0.276-0.338c-0.082-0.055-0.232-0.105-0.451-0.15c-0.219-0.047-0.395-0.074-0.526-0.082v-0.438
			l2.536-0.15l0.096,0.102v9.25c0,0.158,0.029,0.291,0.089,0.393c0.06,0.104,0.155,0.182,0.287,0.236
			c0.101,0.045,0.199,0.08,0.297,0.102c0.099,0.023,0.209,0.039,0.332,0.049V119.877z"/>
		<path fill="#FFFFFF" d="M47.972,116.575c0.187,0.164,0.33,0.354,0.431,0.568c0.101,0.213,0.15,0.477,0.15,0.785
			c0,0.625-0.233,1.135-0.701,1.531c-0.467,0.396-1.071,0.596-1.814,0.596c-0.392,0-0.753-0.07-1.084-0.213
			c-0.33-0.141-0.565-0.271-0.707-0.389l-0.137,0.443h-0.513l-0.068-2.344H44c0.036,0.178,0.114,0.387,0.232,0.623
			c0.118,0.238,0.262,0.453,0.431,0.645c0.178,0.203,0.391,0.371,0.64,0.508c0.248,0.139,0.527,0.207,0.837,0.207
			c0.438,0,0.774-0.1,1.012-0.299s0.355-0.486,0.355-0.857c0-0.191-0.038-0.355-0.112-0.494c-0.076-0.141-0.187-0.262-0.332-0.367
			c-0.15-0.104-0.335-0.199-0.554-0.283s-0.463-0.168-0.731-0.25c-0.214-0.063-0.452-0.15-0.715-0.262
			c-0.262-0.113-0.486-0.244-0.673-0.395c-0.2-0.158-0.364-0.355-0.492-0.588s-0.191-0.506-0.191-0.82
			c0-0.551,0.205-1.018,0.615-1.4s0.959-0.574,1.647-0.574c0.265,0,0.534,0.033,0.811,0.102c0.275,0.068,0.5,0.15,0.673,0.246
			l0.157-0.355h0.492l0.103,2.168h-0.472c-0.096-0.486-0.302-0.881-0.619-1.186c-0.316-0.303-0.702-0.455-1.158-0.455
			c-0.374,0-0.668,0.094-0.882,0.281c-0.214,0.189-0.321,0.416-0.321,0.682c0,0.205,0.035,0.377,0.105,0.514
			c0.071,0.137,0.177,0.252,0.318,0.348c0.137,0.092,0.309,0.178,0.516,0.258c0.208,0.078,0.464,0.168,0.77,0.27
			c0.301,0.096,0.584,0.207,0.852,0.334C47.578,116.28,47.799,116.42,47.972,116.575z"/>
		<path fill="#FFFFFF" d="M56.216,119.877h-3.254v-0.451c0.104-0.01,0.213-0.02,0.324-0.027c0.112-0.01,0.209-0.027,0.291-0.055
			c0.128-0.041,0.223-0.113,0.283-0.215c0.063-0.104,0.093-0.236,0.093-0.4v-4.158c0-0.145-0.033-0.279-0.099-0.398
			c-0.066-0.121-0.159-0.223-0.277-0.305c-0.087-0.055-0.212-0.102-0.376-0.139c-0.164-0.039-0.314-0.064-0.451-0.072v-0.451
			l2.379-0.15l0.096,0.096v5.496c0,0.158,0.03,0.291,0.092,0.396c0.061,0.104,0.157,0.182,0.288,0.232
			c0.1,0.041,0.197,0.074,0.292,0.1c0.096,0.023,0.201,0.041,0.319,0.051V119.877z M55.361,110.395c0,0.26-0.085,0.486-0.257,0.682
			c-0.17,0.193-0.381,0.289-0.632,0.289c-0.232,0-0.435-0.092-0.604-0.275c-0.172-0.186-0.257-0.396-0.257-0.633
			c0-0.252,0.085-0.471,0.257-0.656c0.17-0.188,0.372-0.281,0.604-0.281c0.26,0,0.473,0.088,0.64,0.264
			C55.278,109.959,55.361,110.163,55.361,110.395z"/>
		<path fill="#FFFFFF" d="M64.494,119.877h-3.295v-0.451c0.104-0.01,0.22-0.02,0.345-0.027c0.126-0.01,0.229-0.027,0.312-0.055
			c0.128-0.041,0.222-0.113,0.284-0.215c0.061-0.104,0.092-0.236,0.092-0.4v-3.467c0-0.479-0.113-0.848-0.339-1.107
			c-0.227-0.26-0.502-0.389-0.826-0.389c-0.242,0-0.464,0.037-0.664,0.113c-0.201,0.074-0.38,0.166-0.535,0.275
			c-0.15,0.105-0.271,0.219-0.359,0.34c-0.089,0.119-0.154,0.217-0.195,0.289v3.877c0,0.154,0.032,0.281,0.096,0.383
			c0.063,0.1,0.159,0.178,0.287,0.232c0.096,0.045,0.199,0.08,0.312,0.102c0.111,0.023,0.227,0.039,0.345,0.049v0.451H57.05v-0.451
			c0.104-0.01,0.213-0.02,0.324-0.027c0.112-0.01,0.209-0.027,0.291-0.055c0.128-0.041,0.223-0.113,0.283-0.215
			c0.063-0.104,0.093-0.236,0.093-0.4v-4.158c0-0.154-0.033-0.297-0.099-0.426c-0.066-0.131-0.159-0.236-0.277-0.318
			c-0.087-0.055-0.189-0.094-0.308-0.119s-0.246-0.043-0.383-0.051v-0.451l2.242-0.15l0.096,0.096v0.949h0.034
			c0.109-0.109,0.246-0.24,0.41-0.393s0.319-0.277,0.465-0.373c0.169-0.109,0.369-0.199,0.602-0.273
			c0.232-0.072,0.494-0.109,0.786-0.109c0.647,0,1.127,0.203,1.438,0.605c0.313,0.404,0.469,0.939,0.469,1.609v3.508
			c0,0.158,0.027,0.287,0.082,0.387c0.055,0.098,0.148,0.174,0.28,0.229c0.109,0.045,0.204,0.076,0.284,0.096
			c0.079,0.018,0.189,0.031,0.331,0.041V119.877z"/>
		<path fill="#FFFFFF" d="M76.3,112.569c0,0.506-0.1,0.955-0.297,1.344c-0.199,0.391-0.474,0.713-0.824,0.967
			c-0.347,0.256-0.727,0.443-1.142,0.561c-0.415,0.119-0.854,0.178-1.319,0.178h-1.087v2.939c0,0.16,0.026,0.301,0.079,0.422
			c0.052,0.119,0.16,0.213,0.324,0.275c0.082,0.033,0.227,0.063,0.434,0.09c0.208,0.027,0.398,0.043,0.571,0.047v0.486h-4.163
			v-0.486c0.109-0.008,0.268-0.025,0.475-0.047c0.208-0.023,0.353-0.053,0.435-0.09c0.137-0.059,0.235-0.145,0.298-0.26
			c0.061-0.113,0.092-0.26,0.092-0.438v-7c0-0.158-0.022-0.303-0.068-0.43c-0.046-0.129-0.152-0.225-0.321-0.287
			c-0.173-0.061-0.345-0.102-0.517-0.127c-0.17-0.025-0.317-0.043-0.44-0.051v-0.486h4.43c0.902,0,1.635,0.219,2.198,0.654
			C76.019,111.264,76.3,111.844,76.3,112.569z M74.222,114.223c0.155-0.219,0.258-0.445,0.308-0.68s0.075-0.445,0.075-0.633
			c0-0.26-0.031-0.523-0.092-0.793c-0.063-0.268-0.168-0.504-0.318-0.703c-0.159-0.215-0.369-0.381-0.629-0.5
			c-0.26-0.117-0.583-0.178-0.971-0.178h-0.964v4.287h0.697c0.492,0,0.892-0.076,1.2-0.229
			C73.835,114.641,74.066,114.452,74.222,114.223z"/>
		<path fill="#FFFFFF" d="M82.397,114.004c0,0.232-0.057,0.439-0.171,0.619s-0.289,0.27-0.526,0.27c-0.255,0-0.45-0.066-0.585-0.197
			c-0.134-0.133-0.201-0.279-0.201-0.438c0-0.102,0.008-0.191,0.023-0.273c0.017-0.082,0.031-0.164,0.045-0.246
			c-0.214,0-0.465,0.086-0.752,0.26c-0.287,0.172-0.531,0.418-0.731,0.738v3.924c0,0.158,0.03,0.289,0.093,0.389
			c0.061,0.102,0.158,0.176,0.29,0.227c0.114,0.045,0.261,0.08,0.44,0.102c0.181,0.023,0.337,0.039,0.469,0.049v0.451h-3.555v-0.451
			c0.104-0.01,0.213-0.02,0.324-0.027c0.112-0.01,0.209-0.027,0.291-0.055c0.128-0.041,0.223-0.113,0.283-0.215
			c0.063-0.104,0.093-0.236,0.093-0.4v-4.158c0-0.141-0.033-0.279-0.099-0.416c-0.066-0.137-0.159-0.246-0.277-0.328
			c-0.087-0.055-0.189-0.094-0.308-0.119s-0.246-0.043-0.383-0.051v-0.451l2.242-0.15l0.096,0.096v0.949h0.034
			c0.282-0.369,0.597-0.648,0.943-0.84s0.663-0.287,0.95-0.287s0.521,0.094,0.7,0.279C82.308,113.44,82.397,113.69,82.397,114.004z"
			/>
		<path fill="#FFFFFF" d="M89.548,116.438c0,0.475-0.075,0.941-0.226,1.398c-0.15,0.459-0.365,0.846-0.644,1.166
			c-0.314,0.363-0.68,0.635-1.095,0.813s-0.881,0.268-1.396,0.268c-0.429,0-0.837-0.082-1.225-0.242
			c-0.388-0.162-0.732-0.398-1.033-0.709c-0.297-0.305-0.532-0.678-0.708-1.117s-0.264-0.934-0.264-1.48
			c0-1.053,0.307-1.914,0.92-2.584c0.614-0.67,1.418-1.004,2.412-1.004c0.944,0,1.724,0.318,2.338,0.953
			C89.241,114.536,89.548,115.381,89.548,116.438z M88.133,116.452c0-0.342-0.034-0.703-0.103-1.082
			c-0.068-0.381-0.172-0.703-0.309-0.969c-0.146-0.281-0.338-0.508-0.575-0.68c-0.237-0.17-0.527-0.256-0.87-0.256
			c-0.352,0-0.651,0.086-0.9,0.26c-0.248,0.172-0.45,0.41-0.605,0.711c-0.146,0.277-0.249,0.594-0.309,0.949
			s-0.089,0.699-0.089,1.033c0,0.438,0.035,0.842,0.106,1.213c0.07,0.371,0.184,0.703,0.339,0.994
			c0.155,0.293,0.351,0.521,0.585,0.688c0.235,0.166,0.526,0.25,0.873,0.25c0.571,0,1.023-0.275,1.356-0.828
			C87.966,118.184,88.133,117.422,88.133,116.452z"/>
		<path fill="#FFFFFF" d="M94.682,119.583c-0.296,0.123-0.576,0.227-0.841,0.313c-0.265,0.084-0.588,0.125-0.971,0.125
			c-0.565,0-0.963-0.143-1.193-0.426c-0.229-0.285-0.345-0.688-0.345-1.207v-4.566h-1.217v-0.656h1.244v-2.1h1.244v2.1h1.935v0.656
			h-1.921v3.766c0,0.283,0.011,0.52,0.03,0.709c0.021,0.188,0.07,0.354,0.147,0.494c0.073,0.133,0.183,0.232,0.328,0.301
			s0.342,0.104,0.588,0.104c0.114,0,0.281-0.01,0.503-0.031c0.221-0.02,0.377-0.047,0.468-0.078V119.583z"/>
		<path fill="#FFFFFF" d="M101.34,118.292c-0.282,0.537-0.661,0.965-1.135,1.285c-0.474,0.318-1.019,0.479-1.634,0.479
			c-0.542,0-1.018-0.096-1.425-0.287c-0.408-0.191-0.744-0.451-1.009-0.779s-0.462-0.711-0.591-1.148
			c-0.131-0.438-0.195-0.9-0.195-1.389c0-0.438,0.069-0.867,0.209-1.287c0.139-0.422,0.343-0.803,0.611-1.139
			c0.26-0.324,0.582-0.584,0.967-0.783c0.386-0.197,0.817-0.297,1.296-0.297c0.492,0,0.914,0.076,1.265,0.232
			c0.351,0.154,0.636,0.367,0.854,0.635c0.21,0.256,0.366,0.557,0.468,0.902c0.104,0.348,0.154,0.723,0.154,1.129v0.451h-4.464
			c0,0.443,0.042,0.844,0.126,1.205c0.085,0.361,0.218,0.678,0.4,0.953c0.178,0.264,0.41,0.473,0.697,0.627
			c0.287,0.152,0.629,0.229,1.025,0.229c0.405,0,0.756-0.094,1.049-0.285c0.295-0.189,0.578-0.531,0.852-1.027L101.34,118.292z
			 M99.829,115.721c0-0.256-0.021-0.527-0.065-0.818c-0.043-0.291-0.112-0.533-0.208-0.729c-0.104-0.209-0.248-0.381-0.431-0.512
			c-0.183-0.133-0.417-0.197-0.704-0.197c-0.479,0-0.876,0.199-1.192,0.596c-0.317,0.398-0.489,0.951-0.517,1.66H99.829z"/>
		<path fill="#FFFFFF" d="M105.236,120.055c-0.976,0-1.738-0.324-2.29-0.971c-0.552-0.648-0.827-1.516-0.827-2.605
			c0-0.473,0.074-0.916,0.223-1.328c0.147-0.414,0.363-0.789,0.646-1.125c0.269-0.324,0.606-0.584,1.012-0.783
			c0.405-0.197,0.848-0.297,1.326-0.297c0.661,0,1.198,0.158,1.613,0.475s0.622,0.748,0.622,1.295c0,0.229-0.055,0.43-0.164,0.605
			s-0.289,0.264-0.54,0.264c-0.269,0-0.478-0.068-0.626-0.205c-0.147-0.137-0.222-0.289-0.222-0.457
			c0-0.203,0.027-0.414,0.082-0.629c0.055-0.217,0.087-0.375,0.096-0.475c-0.082-0.141-0.203-0.234-0.365-0.283
			c-0.161-0.047-0.335-0.07-0.521-0.07c-0.218,0-0.426,0.047-0.624,0.141c-0.197,0.092-0.39,0.264-0.576,0.516
			c-0.168,0.227-0.304,0.535-0.408,0.922c-0.105,0.389-0.157,0.85-0.157,1.389c0,0.848,0.188,1.539,0.563,2.074
			c0.375,0.535,0.867,0.803,1.478,0.803c0.441,0,0.811-0.107,1.108-0.322c0.299-0.215,0.575-0.539,0.83-0.969l0.437,0.287
			c-0.301,0.537-0.697,0.963-1.189,1.277S105.761,120.055,105.236,120.055z"/>
		<path fill="#FFFFFF" d="M112.64,119.583c-0.296,0.123-0.576,0.227-0.841,0.313c-0.265,0.084-0.588,0.125-0.971,0.125
			c-0.565,0-0.963-0.143-1.193-0.426c-0.229-0.285-0.345-0.688-0.345-1.207v-4.566h-1.217v-0.656h1.244v-2.1h1.244v2.1h1.935v0.656
			h-1.921v3.766c0,0.283,0.011,0.52,0.03,0.709c0.021,0.188,0.07,0.354,0.147,0.494c0.073,0.133,0.183,0.232,0.328,0.301
			s0.342,0.104,0.588,0.104c0.114,0,0.281-0.01,0.503-0.031c0.221-0.02,0.377-0.047,0.468-0.078V119.583z"/>
		<path fill="#FFFFFF" d="M119.298,118.292c-0.282,0.537-0.661,0.965-1.135,1.285c-0.474,0.318-1.019,0.479-1.634,0.479
			c-0.542,0-1.018-0.096-1.425-0.287c-0.408-0.191-0.744-0.451-1.009-0.779s-0.462-0.711-0.591-1.148
			c-0.131-0.438-0.195-0.9-0.195-1.389c0-0.438,0.069-0.867,0.209-1.287c0.139-0.422,0.343-0.803,0.611-1.139
			c0.26-0.324,0.582-0.584,0.967-0.783c0.386-0.197,0.817-0.297,1.296-0.297c0.492,0,0.914,0.076,1.265,0.232
			c0.351,0.154,0.636,0.367,0.854,0.635c0.21,0.256,0.366,0.557,0.468,0.902c0.104,0.348,0.154,0.723,0.154,1.129v0.451h-4.464
			c0,0.443,0.042,0.844,0.126,1.205c0.085,0.361,0.218,0.678,0.4,0.953c0.178,0.264,0.41,0.473,0.697,0.627
			c0.287,0.152,0.629,0.229,1.025,0.229c0.405,0,0.756-0.094,1.049-0.285c0.295-0.189,0.578-0.531,0.852-1.027L119.298,118.292z
			 M117.787,115.721c0-0.256-0.021-0.527-0.065-0.818c-0.043-0.291-0.112-0.533-0.208-0.729c-0.104-0.209-0.248-0.381-0.431-0.512
			c-0.183-0.133-0.417-0.197-0.704-0.197c-0.479,0-0.876,0.199-1.192,0.596c-0.317,0.398-0.489,0.951-0.517,1.66H117.787z"/>
		<path fill="#FFFFFF" d="M127.46,119.754l-2.358,0.15l-0.103-0.096v-0.629l-0.055-0.014c-0.236,0.264-0.529,0.48-0.877,0.648
			c-0.349,0.17-0.707,0.254-1.075,0.254c-0.383,0-0.752-0.086-1.109-0.256c-0.357-0.172-0.668-0.412-0.932-0.723
			c-0.269-0.314-0.481-0.691-0.639-1.135c-0.157-0.441-0.235-0.93-0.235-1.463c0-0.486,0.084-0.949,0.253-1.387
			c0.168-0.438,0.4-0.82,0.696-1.148c0.277-0.307,0.617-0.549,1.021-0.732c0.402-0.182,0.813-0.273,1.231-0.273
			c0.314,0,0.623,0.041,0.926,0.121c0.302,0.078,0.563,0.18,0.781,0.303v-2.35c0-0.191-0.032-0.365-0.096-0.523
			s-0.152-0.277-0.267-0.359c-0.128-0.086-0.3-0.148-0.517-0.188c-0.216-0.039-0.449-0.068-0.7-0.086v-0.424l2.762-0.15l0.103,0.102
			v9.086c0,0.16,0.031,0.295,0.092,0.406c0.063,0.111,0.152,0.207,0.271,0.283c0.087,0.055,0.212,0.09,0.376,0.104
			s0.314,0.021,0.451,0.027V119.754z M124.985,118.571v-3.943c-0.036-0.119-0.096-0.246-0.178-0.383
			c-0.081-0.137-0.184-0.262-0.307-0.377c-0.132-0.113-0.286-0.207-0.464-0.283c-0.178-0.074-0.385-0.113-0.621-0.113
			c-0.272,0-0.524,0.07-0.754,0.213c-0.229,0.141-0.434,0.344-0.61,0.607c-0.168,0.256-0.302,0.58-0.399,0.975
			s-0.146,0.83-0.146,1.309c0,0.383,0.036,0.73,0.109,1.043c0.072,0.313,0.195,0.604,0.368,0.871
			c0.159,0.256,0.362,0.461,0.61,0.615c0.248,0.156,0.543,0.232,0.884,0.232c0.364,0,0.665-0.08,0.904-0.238
			C124.62,118.938,124.821,118.762,124.985,118.571z"/>
		<path fill="#FFFFFF" d="M140.715,119.877h-4.032v-0.486c0.355-0.021,0.65-0.068,0.886-0.137c0.234-0.068,0.352-0.152,0.352-0.252
			c0-0.041-0.005-0.092-0.014-0.15c-0.009-0.061-0.022-0.111-0.041-0.158l-0.804-2.174h-3.404c-0.128,0.32-0.231,0.598-0.312,0.834
			c-0.08,0.238-0.152,0.457-0.216,0.656c-0.06,0.197-0.101,0.355-0.123,0.479c-0.023,0.123-0.034,0.225-0.034,0.301
			c0,0.184,0.144,0.324,0.431,0.424c0.287,0.102,0.61,0.16,0.971,0.178v0.486h-3.653v-0.486c0.118-0.008,0.267-0.035,0.444-0.078
			s0.323-0.102,0.438-0.174c0.183-0.123,0.323-0.252,0.424-0.387s0.198-0.32,0.294-0.557c0.487-1.217,1.025-2.584,1.613-4.102
			s1.112-2.869,1.572-4.055h0.547l3.233,8.367c0.068,0.178,0.146,0.322,0.232,0.432s0.207,0.217,0.362,0.32
			c0.104,0.064,0.241,0.117,0.41,0.162c0.169,0.043,0.31,0.066,0.424,0.07V119.877z M136.813,115.913l-1.47-3.766l-1.448,3.766
			H136.813z"/>
		<path fill="#FFFFFF" d="M146.047,114.004c0,0.232-0.057,0.439-0.171,0.619s-0.289,0.27-0.526,0.27
			c-0.255,0-0.45-0.066-0.585-0.197c-0.134-0.133-0.201-0.279-0.201-0.438c0-0.102,0.008-0.191,0.023-0.273
			c0.017-0.082,0.031-0.164,0.045-0.246c-0.214,0-0.465,0.086-0.752,0.26c-0.287,0.172-0.531,0.418-0.731,0.738v3.924
			c0,0.158,0.03,0.289,0.093,0.389c0.061,0.102,0.158,0.176,0.29,0.227c0.114,0.045,0.261,0.08,0.44,0.102
			c0.181,0.023,0.337,0.039,0.469,0.049v0.451h-3.555v-0.451c0.104-0.01,0.213-0.02,0.324-0.027c0.112-0.01,0.209-0.027,0.291-0.055
			c0.128-0.041,0.223-0.113,0.283-0.215c0.063-0.104,0.093-0.236,0.093-0.4v-4.158c0-0.141-0.033-0.279-0.099-0.416
			c-0.066-0.137-0.159-0.246-0.277-0.328c-0.087-0.055-0.189-0.094-0.308-0.119s-0.246-0.043-0.383-0.051v-0.451l2.242-0.15
			l0.096,0.096v0.949h0.034c0.282-0.369,0.597-0.648,0.943-0.84s0.663-0.287,0.95-0.287s0.521,0.094,0.7,0.279
			C145.957,113.44,146.047,113.69,146.047,114.004z"/>
		<path fill="#FFFFFF" d="M152.609,118.292c-0.282,0.537-0.661,0.965-1.135,1.285c-0.474,0.318-1.019,0.479-1.634,0.479
			c-0.542,0-1.018-0.096-1.425-0.287c-0.408-0.191-0.744-0.451-1.009-0.779s-0.462-0.711-0.591-1.148
			c-0.131-0.438-0.195-0.9-0.195-1.389c0-0.438,0.069-0.867,0.209-1.287c0.139-0.422,0.343-0.803,0.611-1.139
			c0.26-0.324,0.582-0.584,0.967-0.783c0.386-0.197,0.817-0.297,1.296-0.297c0.492,0,0.914,0.076,1.265,0.232
			c0.351,0.154,0.636,0.367,0.854,0.635c0.21,0.256,0.366,0.557,0.468,0.902c0.104,0.348,0.154,0.723,0.154,1.129v0.451h-4.464
			c0,0.443,0.042,0.844,0.126,1.205c0.085,0.361,0.218,0.678,0.4,0.953c0.178,0.264,0.41,0.473,0.697,0.627
			c0.287,0.152,0.629,0.229,1.025,0.229c0.405,0,0.756-0.094,1.049-0.285c0.295-0.189,0.578-0.531,0.852-1.027L152.609,118.292z
			 M151.099,115.721c0-0.256-0.021-0.527-0.065-0.818c-0.043-0.291-0.112-0.533-0.208-0.729c-0.104-0.209-0.248-0.381-0.431-0.512
			c-0.183-0.133-0.417-0.197-0.704-0.197c-0.479,0-0.876,0.199-1.192,0.596c-0.317,0.398-0.489,0.951-0.517,1.66H151.099z"/>
		<path fill="#FFFFFF" d="M159.773,119.754c-0.214,0.076-0.402,0.141-0.564,0.188c-0.161,0.049-0.345,0.072-0.55,0.072
			c-0.355,0-0.64-0.084-0.851-0.25c-0.213-0.166-0.348-0.408-0.407-0.729h-0.041c-0.296,0.328-0.614,0.58-0.954,0.752
			c-0.339,0.174-0.748,0.26-1.227,0.26c-0.506,0-0.922-0.154-1.248-0.465c-0.325-0.309-0.488-0.715-0.488-1.217
			c0-0.26,0.036-0.492,0.109-0.697s0.183-0.389,0.328-0.553c0.114-0.137,0.265-0.26,0.451-0.365
			c0.187-0.107,0.362-0.193,0.526-0.258c0.205-0.076,0.621-0.221,1.247-0.43c0.627-0.211,1.05-0.375,1.269-0.492v-0.678
			c0-0.059-0.013-0.172-0.038-0.342c-0.024-0.168-0.078-0.328-0.16-0.479c-0.091-0.168-0.22-0.314-0.387-0.439
			c-0.166-0.127-0.401-0.189-0.707-0.189c-0.21,0-0.404,0.035-0.584,0.107c-0.181,0.07-0.307,0.145-0.38,0.221
			c0,0.092,0.021,0.227,0.065,0.404c0.043,0.178,0.064,0.342,0.064,0.492c0,0.158-0.072,0.305-0.215,0.438
			c-0.145,0.131-0.344,0.197-0.599,0.197c-0.228,0-0.396-0.08-0.503-0.242c-0.106-0.162-0.16-0.344-0.16-0.543
			c0-0.211,0.074-0.41,0.223-0.602c0.147-0.191,0.34-0.363,0.577-0.514c0.205-0.127,0.453-0.234,0.745-0.324
			c0.292-0.088,0.576-0.133,0.854-0.133c0.383,0,0.717,0.025,1.001,0.078c0.285,0.053,0.544,0.166,0.776,0.338
			c0.232,0.17,0.409,0.398,0.53,0.688c0.12,0.289,0.181,0.662,0.181,1.117c0,0.652-0.007,1.23-0.021,1.734
			c-0.014,0.502-0.021,1.053-0.021,1.65c0,0.178,0.03,0.318,0.093,0.424c0.061,0.104,0.155,0.193,0.283,0.266
			c0.068,0.041,0.177,0.064,0.324,0.068c0.148,0.006,0.3,0.008,0.455,0.008V119.754z M157.388,116.145
			c-0.388,0.113-0.727,0.227-1.019,0.336s-0.563,0.246-0.813,0.41c-0.228,0.156-0.408,0.34-0.54,0.551
			c-0.132,0.213-0.198,0.465-0.198,0.758c0,0.379,0.099,0.658,0.298,0.836c0.197,0.178,0.449,0.268,0.755,0.268
			c0.323,0,0.608-0.08,0.854-0.236c0.246-0.158,0.453-0.344,0.622-0.559L157.388,116.145z"/>
		<path fill="#FFFFFF" d="M164.894,116.575c0.187,0.164,0.33,0.354,0.431,0.568c0.101,0.213,0.15,0.477,0.15,0.785
			c0,0.625-0.233,1.135-0.701,1.531c-0.467,0.396-1.071,0.596-1.814,0.596c-0.392,0-0.753-0.07-1.084-0.213
			c-0.33-0.141-0.565-0.271-0.707-0.389l-0.137,0.443h-0.513l-0.068-2.344h0.472c0.036,0.178,0.114,0.387,0.232,0.623
			c0.118,0.238,0.262,0.453,0.431,0.645c0.178,0.203,0.391,0.371,0.64,0.508c0.248,0.139,0.527,0.207,0.837,0.207
			c0.438,0,0.774-0.1,1.012-0.299s0.355-0.486,0.355-0.857c0-0.191-0.038-0.355-0.112-0.494c-0.076-0.141-0.187-0.262-0.332-0.367
			c-0.15-0.104-0.335-0.199-0.554-0.283s-0.463-0.168-0.731-0.25c-0.214-0.063-0.452-0.15-0.715-0.262
			c-0.262-0.113-0.486-0.244-0.673-0.395c-0.2-0.158-0.364-0.355-0.492-0.588s-0.191-0.506-0.191-0.82
			c0-0.551,0.205-1.018,0.615-1.4s0.959-0.574,1.647-0.574c0.265,0,0.534,0.033,0.811,0.102c0.275,0.068,0.5,0.15,0.673,0.246
			l0.157-0.355h0.492l0.103,2.168h-0.472c-0.096-0.486-0.302-0.881-0.619-1.186c-0.316-0.303-0.702-0.455-1.158-0.455
			c-0.374,0-0.668,0.094-0.882,0.281c-0.214,0.189-0.321,0.416-0.321,0.682c0,0.205,0.035,0.377,0.105,0.514
			c0.071,0.137,0.177,0.252,0.318,0.348c0.137,0.092,0.309,0.178,0.516,0.258c0.208,0.078,0.464,0.168,0.77,0.27
			c0.301,0.096,0.584,0.207,0.852,0.334C164.5,116.28,164.721,116.42,164.894,116.575z"/>
	</g>
</g>
</svg>
