<?xml version="1.0" encoding="utf-8"?>
<!-- Generator: Adobe Illustrator 16.0.0, SVG Export Plug-In . SVG Version: 6.00 Build 0)  -->
<!DOCTYPE svg PUBLIC "-//W3C//DTD SVG 1.1//EN" "http://www.w3.org/Graphics/SVG/1.1/DTD/svg11.dtd">
<svg version="1.1" id="Layer_1" xmlns="http://www.w3.org/2000/svg" xmlns:xlink="http://www.w3.org/1999/xlink" x="0px" y="0px"
	 width="286.037px" height="135.555px" viewBox="0 0 286.037 135.555" enable-background="new 0 0 286.037 135.555"
	 xml:space="preserve">
<g>
	<g>
		<g>
			<g>
				<path fill="#FFFFFF" d="M210.761,9.088h-0.05h-0.056c-0.194,0-0.35,0.084-0.499,0.166c-0.036,0.021-0.072,0.039-0.108,0.058
					c-0.183,0.092-0.392,0.058-0.439-0.07c-0.058-0.153-0.082-0.321-0.096-0.45c-0.011-0.096-0.008-0.193-0.005-0.297
					c0.001-0.047,0.003-0.093,0.003-0.14c0-0.048-0.035-0.088-0.082-0.097l-0.059-0.009c-0.044-0.007-0.087,0.018-0.104,0.06
					c-0.007,0.014-0.014,0.027-0.021,0.043c-0.019,0.038-0.039,0.081-0.048,0.13c-0.041,0.231-0.016,0.472,0.08,0.754
					c0.033,0.098,0.043,0.19,0.025,0.256c-0.146,0.579-0.46,0.826-1.048,0.826l-0.053-0.001c-0.028-0.001-0.093-0.043-0.124-0.089
					c-0.063-0.093-0.039-0.203-0.012-0.331l0.008-0.038c0.027-0.134,0.04-0.271,0.052-0.403c0.005-0.057,0.011-0.113,0.017-0.17
					c0.006-0.049-0.025-0.094-0.074-0.104l-0.078-0.02c-0.043-0.011-0.088,0.01-0.108,0.048c-0.01,0.019-0.021,0.036-0.032,0.055
					c-0.033,0.049-0.067,0.104-0.078,0.171c-0.035,0.21-0.062,0.421-0.088,0.632l-0.021,0.172c-0.011,0.084-0.019,0.169-0.026,0.254
					c-0.018,0.182-0.035,0.354-0.076,0.521c-0.07,0.287-0.25,0.518-0.52,0.664c-0.1,0.054-0.241,0.029-0.258-0.109
					c-0.014-0.106-0.006-0.217,0.02-0.313c0.039-0.152,0.09-0.307,0.139-0.457c0.031-0.095,0.062-0.189,0.09-0.284
					c0.014-0.047,0.014-0.091,0.014-0.131c0-0.014,0-0.027,0.001-0.043c0.003-0.049-0.03-0.092-0.079-0.101l-0.046-0.008
					c-0.048-0.009-0.094,0.018-0.108,0.063l-0.02,0.055c-0.016,0.042-0.029,0.084-0.043,0.126c-0.018,0.056-0.031,0.113-0.045,0.173
					c-0.033,0.146-0.063,0.271-0.167,0.37c-0.079,0.073-0.128,0.09-0.155,0.09c-0.035,0-0.076-0.031-0.117-0.091
					c-0.076-0.11-0.14-0.227-0.207-0.351c-0.041-0.075-0.082-0.149-0.125-0.224c-0.033-0.059-0.076-0.112-0.117-0.165
					c-0.018-0.022-0.034-0.044-0.051-0.067c-0.028-0.038-0.08-0.05-0.121-0.028l-0.061,0.028c-0.042,0.021-0.063,0.068-0.05,0.112
					c0.005,0.018,0.009,0.035,0.013,0.053c0.01,0.045,0.021,0.098,0.047,0.146c0.028,0.058,0.064,0.115,0.1,0.172
					c0.063,0.1,0.121,0.193,0.141,0.289c0.049,0.236,0.184,0.359,0.354,0.497c0.103,0.083,0.168,0.164,0.186,0.229
					c0.068,0.26-0.165,0.689-0.432,0.791c-0.131,0.051-0.226,0.021-0.286-0.104c-0.033-0.068-0.058-0.143-0.084-0.221
					c-0.013-0.037-0.026-0.076-0.04-0.114l-0.131-0.354c-0.016-0.045-0.063-0.071-0.11-0.061l-0.058,0.012
					c-0.047,0.01-0.08,0.052-0.077,0.1c0.001,0.022,0.001,0.044,0.002,0.066c0.001,0.057,0.001,0.115,0.015,0.175
					c0.026,0.113,0.063,0.223,0.098,0.328l0.015,0.044c0.043,0.131,0.028,0.268,0.013,0.41c-0.008,0.078-0.017,0.158-0.016,0.241
					c0.001,0.124-0.04,0.228-0.121,0.31c-0.13,0.131-0.337,0.178-0.488,0.178l-0.035-0.001c-0.086-0.004-0.224-0.097-0.349-0.237
					c-0.147-0.164-0.229-0.336-0.226-0.407c0.006-0.095,0.031-0.191,0.057-0.293c0.009-0.036,0.02-0.073,0.027-0.109
					c0.016-0.067,0.029-0.137,0.043-0.205c0.056-0.265,0.107-0.516,0.256-0.742c0.099-0.152,0.113-0.396-0.079-0.597
					c-0.024-0.025-0.062-0.036-0.095-0.026c-0.034,0.009-0.062,0.035-0.069,0.069l-0.017,0.067
					c-0.012,0.042-0.021,0.075-0.025,0.109c-0.034,0.229-0.071,0.418-0.207,0.568c-0.081,0.09-0.145,0.116-0.227,0.093
					c-0.049-0.014-0.108-0.048-0.117-0.183c-0.004-0.088-0.016-0.176-0.027-0.264c-0.033-0.259-0.064-0.501,0.071-0.729
					c0.022-0.036,0.022-0.073,0.024-0.1c0-0.007,0-0.014,0-0.021c0.012-0.05,0.021-0.101,0.031-0.151
					c0.064-0.326,0.126-0.635,0.381-0.863c0.096-0.086,0.186-0.124,0.307-0.129c0.125-0.006,0.25-0.023,0.371-0.041
					c0.052-0.007,0.104-0.016,0.156-0.021c0.043-0.005,0.078-0.04,0.084-0.084l0.004-0.038c0.006-0.046-0.021-0.089-0.064-0.104
					l-0.067-0.023c-0.053-0.018-0.106-0.037-0.159-0.052c-0.172-0.048-0.188-0.126-0.158-0.244c0.084-0.313,0.275-0.527,0.559-0.618
					c0.141-0.045,0.291-0.087,0.43-0.087c0.176,0,0.312,0.067,0.426,0.209c0.016,0.021,0.035,0.039,0.056,0.058
					c0.011,0.011,0.022,0.021,0.032,0.031c0.109,0.128,0.275,0.14,0.383,0.03c0.016-0.016,0.033-0.045,0.033-0.092
					c-0.002-0.067-0.047-0.185-0.107-0.242c-0.104-0.099-0.152-0.172-0.148-0.224c0.002-0.05,0.056-0.114,0.16-0.197l0.024-0.018
					c0.03-0.023,0.067-0.05,0.096-0.085c0.046-0.054,0.087-0.109,0.128-0.166l0.051-0.067c0.019-0.025,0.023-0.057,0.015-0.086
					c-0.009-0.03-0.032-0.053-0.06-0.063c-0.078-0.026-0.136-0.026-0.197-0.002c-0.271,0.114-0.54,0.229-0.812,0.346
					c-0.055,0.023-0.104,0.036-0.145,0.036c-0.038,0.001-0.121,0-0.125-0.193c-0.003-0.098,0.018-0.198,0.038-0.305
					c0.01-0.053,0.021-0.105,0.027-0.158c0.006-0.043,0.012-0.086,0.016-0.129l0.008-0.06c0.006-0.046-0.021-0.089-0.066-0.104
					l-0.072-0.024c-0.045-0.015-0.092,0.005-0.115,0.045c-0.016,0.028-0.032,0.056-0.049,0.082
					c-0.039,0.066-0.082,0.136-0.108,0.213c-0.028,0.082-0.049,0.167-0.069,0.252c-0.033,0.13-0.062,0.252-0.117,0.358
					c-0.08,0.153-0.178,0.301-0.273,0.445c-0.085,0.127-0.173,0.259-0.249,0.396c-0.128,0.232-0.334,0.373-0.553,0.523l-0.099,0.067
					c-0.006,0.005-0.058,0.015-0.104,0.008c-0.221-0.035-0.346-0.167-0.404-0.431c-0.014-0.061-0.037-0.115-0.064-0.179
					c-0.014-0.03-0.027-0.063-0.043-0.1c-0.014-0.036-0.049-0.061-0.088-0.062c-0.037,0.001-0.074,0.022-0.09,0.057
					c-0.189,0.427-0.031,0.709,0.148,0.931c0.313,0.385,0.391,0.716,0.25,1.075c-0.061,0.155-0.141,0.18-0.242,0.071
					c-0.082-0.088-0.152-0.187-0.227-0.292c-0.035-0.051-0.071-0.101-0.108-0.149c-0.015-0.02-0.026-0.039-0.04-0.06
					c-0.059-0.089-0.137-0.211-0.314-0.233c-0.027-0.004-0.053,0.004-0.074,0.021c-0.021,0.018-0.033,0.042-0.035,0.068
					c-0.018,0.265,0.122,0.443,0.234,0.588c0.16,0.204,0.23,0.353,0.141,0.556c-0.014,0.032-0.053,0.105-0.107,0.105
					c-0.021,0-0.046-0.01-0.072-0.029c-0.03-0.021-0.059-0.055-0.088-0.09c-0.021-0.026-0.043-0.052-0.067-0.076
					c-0.038-0.038-0.079-0.074-0.124-0.113l-0.061-0.053c-0.024-0.021-0.06-0.03-0.092-0.021c-0.031,0.01-0.057,0.034-0.066,0.067
					c-0.053,0.201,0.015,0.359,0.203,0.471l0.056,0.031c0.228,0.133,0.462,0.271,0.678,0.423c0.211,0.149,0.329,0.316,0.373,0.526
					c0.04,0.191,0.035,0.379-0.014,0.592c-0.029,0.127-0.099,0.279-0.263,0.279c-0.06,0-0.125-0.019-0.195-0.056
					c-0.114-0.061-0.225-0.126-0.336-0.192c-0.063-0.037-0.127-0.075-0.19-0.111c-0.039-0.021-0.079-0.042-0.12-0.062l-0.051-0.025
					c-0.029-0.015-0.064-0.014-0.094,0.004c-0.028,0.018-0.047,0.049-0.047,0.081c-0.002,0.082,0.017,0.147,0.058,0.212
					c0.181,0.284,0.46,0.427,0.683,0.519c0.229,0.095,0.463,0.174,0.681,0.245c0.091,0.029,0.155,0.099,0.18,0.188
					c0.021,0.083,0.004,0.171-0.045,0.225c-0.071,0.076-0.174,0.07-0.306,0.048c-0.029-0.005-0.057-0.01-0.086-0.015
					c-0.096-0.013-0.192-0.026-0.289-0.04c-0.248-0.035-0.504-0.071-0.774-0.089c-0.093,0-0.176,0.061-0.249,0.112
					c-0.027,0.021-0.056,0.041-0.084,0.056c-0.023,0.015-0.041,0.037-0.047,0.064s0,0.056,0.018,0.078l0.047,0.065
					c0.047,0.063,0.092,0.125,0.142,0.185c0.038,0.046,0.099,0.061,0.134,0.069c0.079,0.02,0.157,0.037,0.236,0.056
					c0.109,0.024,0.218,0.05,0.326,0.078c0.062,0.016,0.105,0.043,0.123,0.077c0.015,0.028,0.013,0.066-0.006,0.111
					c-0.047,0.114-0.125,0.223-0.207,0.288c-0.383,0.306-0.623,0.617-0.752,0.977c-0.147,0.403-0.266,0.824-0.385,1.244
					c-0.154,0.549-0.251,1.069-0.296,1.596c-0.047,0.555-0.129,1.104-0.202,1.566c-0.052,0.33-0.189,0.547-0.416,0.665
					c-0.348,0.18-0.619,0.254-0.904,0.241c-0.178-0.007-0.355-0.004-0.532-0.002l-0.218,0.002c-0.543,0-1.078-0.109-1.539-0.211
					c-0.314-0.07-0.572-0.12-0.813-0.157c-0.138-0.021-0.278-0.036-0.418-0.05c-0.134-0.014-0.267-0.028-0.399-0.048
					c-0.444-0.068-0.891-0.095-1.336-0.082c-0.603,0.019-1.172,0.191-1.736,0.531c-0.293,0.175-0.616,0.334-0.992,0.302
					c-0.178-0.017-0.288-0.085-0.352-0.226c-0.127-0.277-0.248-0.541-0.211-0.847c0.02-0.156,0.016-0.313,0.01-0.467
					c-0.002-0.078-0.004-0.155-0.002-0.233c0.002-0.208-0.078-0.369-0.234-0.465c-0.17-0.104-0.35-0.193-0.533-0.284
					c-0.078-0.039-0.142-0.057-0.197-0.057c-0.188,0-0.238,0.198-0.256,0.273c-0.015,0.056-0.031,0.111-0.048,0.168
					c-0.03,0.105-0.063,0.215-0.081,0.326c-0.009,0.057-0.02,0.113-0.031,0.172c-0.039,0.205-0.078,0.419-0.047,0.626
					c0.068,0.466,0.223,0.938,0.461,1.401c0.03,0.062,0.098,0.171,0.197,0.222c0.165,0.083,0.268,0.198,0.316,0.354
					c0.068,0.226,0.121,0.444,0.011,0.614c-0.256,0.39-0.284,0.82-0.312,1.237l-0.004,0.054c-0.014,0.22-0.004,0.441,0.004,0.657
					c0.004,0.099,0.008,0.196,0.01,0.296c0.002,0.031,0,0.063,0,0.095c-0.002,0.062-0.002,0.125,0.004,0.186
					c0.021,0.212,0.045,0.425,0.068,0.638l0.039,0.352c0.01,0.092,0.019,0.185,0.027,0.275c0.018,0.182,0.036,0.364,0.061,0.547
					c0.016,0.126,0.045,0.262,0.092,0.43c0.139,0.501,0.068,0.855-0.233,1.149c-0.172,0.167-0.248,0.354-0.228,0.558
					c0.031,0.294,0.064,0.588,0.102,0.881c0.059,0.465,0.116,0.931,0.18,1.395c0.012,0.084,0.021,0.17,0.031,0.255
					c0.029,0.25,0.059,0.509,0.139,0.762c0.09,0.289,0.162,0.519,0,0.766c-0.041,0.064-0.047,0.139-0.015,0.197
					c0.035,0.063,0.106,0.101,0.199,0.101h0.099l0.357,0.001c0.094,0,0.188-0.001,0.281-0.004c0.002,0,0.217-0.01,0.264-0.134
					c0.033-0.089,0.001-0.208-0.046-0.287c-0.044-0.072-0.093-0.142-0.142-0.211c-0.067-0.095-0.132-0.185-0.178-0.281
					c-0.318-0.667-0.475-1.432-0.48-2.335c0-0.06-0.008-0.118-0.014-0.179c-0.005-0.05-0.011-0.1-0.012-0.149l-0.002-0.073
					c-0.004-0.09-0.007-0.175,0.016-0.245c0.092-0.301,0.266-0.568,0.514-0.796c0.177-0.161,0.375-0.344,0.492-0.608
					c0.104-0.238,0.244-0.472,0.367-0.672c0.01-0.017,0.049-0.039,0.08-0.048c0.014,0.023,0.029,0.062,0.035,0.093
					c0.007,0.039,0,0.088-0.008,0.141l-0.008,0.059c-0.008,0.061-0.018,0.119-0.027,0.179c-0.021,0.13-0.044,0.264-0.037,0.399
					c0.021,0.392-0.084,0.753-0.193,1.135l-0.039,0.133c-0.063,0.224-0.023,0.464,0.006,0.585c0.052,0.219,0.115,0.437,0.177,0.647
					c0.071,0.245,0.146,0.499,0.2,0.75l0.015,0.069c0.08,0.366,0.162,0.747,0.404,1.072c0.069,0.096,0.073,0.184,0.012,0.298
					c-0.026,0.046-0.045,0.096-0.067,0.154c-0.01,0.026-0.021,0.056-0.033,0.085c-0.012,0.03-0.008,0.064,0.01,0.09
					c0.018,0.027,0.048,0.043,0.08,0.043h0.943c0.047,0,0.086-0.032,0.094-0.078c0.039-0.203-0.073-0.323-0.155-0.411
					c-0.024-0.027-0.05-0.054-0.069-0.082c-0.591-0.851-0.877-1.777-0.852-2.758c0.003-0.095,0.02-0.171,0.047-0.221l0.107-0.189
					c0.18-0.316,0.365-0.644,0.57-0.945c0.411-0.603,0.833-1.254,1.08-1.993c0.172-0.51,0.387-0.874,0.68-1.144
					c0.198-0.185,0.455-0.269,0.763-0.256c0.151,0.006,0.303,0.042,0.46,0.082c0.213,0.054,0.425,0.11,0.637,0.169
					c0.348,0.093,0.707,0.189,1.064,0.272c0.408,0.094,0.895,0.197,1.393,0.249c0.326,0.034,0.5,0.225,0.501,0.551
					c0.001,0.154-0.021,0.314-0.039,0.47l-0.017,0.142c-0.042,0.367,0.056,0.707,0.15,1.036l0.064,0.229
					c0.113,0.404,0.222,0.785,0.175,1.193c-0.008,0.064,0.003,0.128,0.015,0.183c0.062,0.289,0.125,0.578,0.189,0.867l0.039,0.18
					c0.042,0.192,0.085,0.392,0.145,0.585c0.063,0.205,0.063,0.407-0.002,0.621c-0.035,0.115-0.058,0.247,0.119,0.349
					c0.045,0.026,0.074,0.057,0.078,0.085c0.004,0.029-0.023,0.06-0.041,0.076c-0.175,0.163-0.167,0.354-0.16,0.523
					c0.002,0.03,0.004,0.061,0.004,0.09c0,0.094,0.114,0.214,0.207,0.217c0.088,0.003,0.176,0.005,0.262,0.005
					c0.091,0,0.182-0.001,0.271-0.003l0.192-0.002c0.065,0,0.116-0.021,0.149-0.06c0.045-0.054,0.043-0.123,0.035-0.17
					c-0.05-0.346-0.189-0.659-0.324-0.961c-0.067-0.153-0.139-0.311-0.195-0.469c-0.047-0.132-0.092-0.272-0.105-0.413
					c-0.02-0.191-0.025-0.39-0.029-0.581l-0.006-0.19c-0.006-0.15-0.01-0.303-0.009-0.454c0.001-0.144,0.003-0.287,0.004-0.432
					c0.003-0.244,0.007-0.489,0.003-0.732c-0.002-0.146-0.018-0.289-0.033-0.429c-0.025-0.219-0.049-0.426-0.021-0.64l0.005-0.035
					c0.033-0.249,0.063-0.483,0.219-0.672c0.045-0.054,0.094-0.085,0.102-0.087c0.011,0.004,0.037,0.022,0.1,0.112
					c0.012,0.016,0.016,0.059,0.02,0.093l0.004,0.023c0.008,0.068,0.014,0.137,0.019,0.205c0.011,0.142,0.022,0.286,0.06,0.428
					c0.088,0.339,0.094,0.677,0.099,1.035l0.003,0.158c0.004,0.171,0.038,0.34,0.072,0.503c0.013,0.063,0.025,0.124,0.035,0.186
					c0.012,0.061,0.025,0.122,0.039,0.183c0.016,0.072,0.031,0.145,0.043,0.217c0.016,0.102,0.027,0.202,0.039,0.304
					c0.022,0.201,0.047,0.41,0.103,0.611c0.082,0.297,0.112,0.529,0.011,0.771c-0.037,0.085-0.055,0.188-0.053,0.308
					c0.001,0.076,0.046,0.167,0.109,0.222c0.106,0.094,0.115,0.131,0.061,0.268c-0.04,0.101-0.059,0.208-0.079,0.328
					c-0.019,0.112,0.013,0.186,0.044,0.229c0.032,0.044,0.096,0.101,0.215,0.117c0.068,0.01,0.164,0.022,0.252,0.013
					c0.071-0.007,0.142-0.018,0.211-0.029c0.088-0.015,0.172-0.027,0.254-0.033c0.039-0.003,0.154-0.01,0.205-0.102
					c0.033-0.059,0.026-0.132-0.02-0.217c-0.034-0.063-0.072-0.126-0.111-0.188c-0.051-0.083-0.099-0.16-0.137-0.243
					c-0.02-0.041-0.038-0.083-0.059-0.124c-0.081-0.172-0.166-0.352-0.194-0.527c-0.036-0.225-0.042-0.461-0.047-0.689
					c-0.003-0.118-0.006-0.236-0.013-0.354c-0.01-0.164-0.021-0.329-0.033-0.493c-0.02-0.277-0.04-0.565-0.049-0.849
					c-0.022-0.789-0.03-1.434-0.023-2.03c0.004-0.421,0.044-0.832,0.083-1.178c0.039-0.353,0.24-0.633,0.631-0.883
					c0.427-0.272,0.71-0.675,0.863-1.232c0.019-0.067,0.015-0.139,0.007-0.187c-0.07-0.47-0.025-0.814,0.145-1.115
					c0.039-0.069,0.059-0.134,0.059-0.192c-0.001-0.063,0-0.129,0.001-0.193c0.002-0.188,0.005-0.381-0.028-0.571
					c-0.103-0.58-0.216-1.199-0.375-1.813c-0.101-0.385-0.22-0.77-0.334-1.142c-0.095-0.303-0.191-0.616-0.277-0.926
					c-0.067-0.245-0.086-0.511-0.102-0.762c-0.009-0.164,0.149-0.303,0.303-0.328c0.246-0.041,0.502-0.016,0.783,0.08
					c0.438,0.147,0.879,0.318,1.27,0.47c0.047,0.018,0.09,0.027,0.131,0.027c0.141,0,0.218-0.108,0.242-0.144
					c0.017-0.022,0.033-0.046,0.049-0.07c0.041-0.063,0.08-0.121,0.128-0.155c0.267-0.188,0.198-0.381,0.086-0.561l-0.11-0.173
					c-0.101-0.158-0.205-0.322-0.299-0.486c-0.221-0.386-0.385-0.815-0.5-1.312c-0.029-0.126-0.015-0.233,0.039-0.302
					c0.059-0.073,0.152-0.089,0.221-0.089c0.027,0,0.058,0.003,0.09,0.008c0.018,0.003,0.035,0.007,0.055,0.011
					c0.043,0.009,0.092,0.021,0.143,0.021c0.002,0,0.018,0,0.021-0.001l0.042-0.004c0.131-0.008,0.266-0.016,0.396-0.053
					c0.104-0.03,0.172-0.099,0.184-0.186c0.014-0.087-0.034-0.174-0.125-0.233c-0.1-0.063-0.229-0.108-0.362-0.127
					c-0.12-0.016-0.241-0.025-0.362-0.034c-0.14-0.01-0.285-0.021-0.423-0.043c-0.124-0.02-0.208-0.109-0.235-0.19
					c-0.013-0.033-0.025-0.097,0.019-0.146c0.214-0.238,0.463-0.366,0.742-0.382c0.084-0.005,0.168-0.009,0.252-0.009
					c0.259,0,0.454,0.036,0.634,0.117c0.034,0.015,0.074,0.009,0.102-0.016c0.028-0.023,0.041-0.063,0.031-0.099
					c-0.019-0.068-0.046-0.126-0.086-0.183c-0.025-0.034-0.051-0.067-0.076-0.102c-0.035-0.045-0.072-0.091-0.103-0.139
					c-0.062-0.099-0.08-0.198-0.05-0.281c0.027-0.077,0.094-0.134,0.191-0.166c0.209-0.068,0.446-0.116,0.707-0.143
					c0.122-0.013,0.283-0.013,0.445-0.009c0.068,0.002,0.137,0.003,0.204,0.003h0.046c0.089-0.001,0.253-0.003,0.309-0.167
					c0.008-0.024,0.006-0.052-0.007-0.074c-0.012-0.023-0.032-0.041-0.058-0.049c-0.086-0.024-0.172-0.049-0.258-0.072
					c-0.198-0.057-0.387-0.109-0.573-0.175c-0.056-0.021-0.091-0.047-0.103-0.077c-0.019-0.046,0.006-0.11,0.029-0.156
					c0.137-0.264,0.365-0.438,0.607-0.622l0.02-0.015c0.346-0.263,0.689-0.538,1.021-0.806c0.19-0.153,0.383-0.307,0.574-0.459
					l0.049-0.039c0.275-0.217,0.535-0.423,0.869-0.496c0.039-0.008,0.064-0.029,0.09-0.051c0.011-0.008,0.022-0.018,0.037-0.028
					c0.035-0.025,0.049-0.068,0.035-0.108C210.84,9.114,210.804,9.088,210.761,9.088z"/>
			</g>
		</g>
	</g>
	<g>
		<g>
			<path fill="#FFFFFF" d="M224.22,32.97h-0.039h-2.771V0h-42.751V32.97h-2.772v7.91h3.719c-0.533,0.75-0.838,1.678-0.838,2.674
				c0,2.564,2.053,4.626,4.627,4.626c1.459,0,2.752-0.661,3.6-1.706c0.848,1.046,2.141,1.706,3.6,1.706
				c2.565,0,4.627-2.053,4.627-4.626c0-0.996-0.316-1.924-0.839-2.674h11.345c-0.533,0.75-0.838,1.678-0.838,2.674
				c0,2.564,2.051,4.626,4.625,4.626c1.461,0,2.752-0.661,3.6-1.706c0.849,1.046,2.142,1.706,3.601,1.706
				c2.565,0,4.626-2.053,4.626-4.626c0-0.996-0.316-1.924-0.838-2.674h3.719V32.97L224.22,32.97z M215.549,2.052h3.798V32.97h-3.798
				V2.052z M209.69,2.052h3.797V32.97h-3.797V2.052z M203.938,2.052h3.699V32.97h-3.699V2.052z M198.08,2.052h3.798V32.97h-3.798
				V2.052z M192.329,2.052h3.699V32.97h-3.699V2.052z M186.47,2.052h3.799V32.97h-3.799V2.052z M180.719,2.052h3.699V32.97h-3.699
				V2.052z M183.383,46.129c-1.44,0-2.565-1.232-2.565-2.673c0-1.439,1.135-2.564,2.565-2.564c1.44,0,2.565,1.232,2.565,2.673
				C185.957,44.994,184.823,46.129,183.383,46.129z M190.583,46.02c-1.439,0-2.564-1.135-2.564-2.565
				c0-1.43,1.133-2.564,2.564-2.564c1.43-0.011,2.564,1.125,2.564,2.564C193.147,44.896,192.015,46.02,190.583,46.02z
				 M209.483,46.02c-1.44,0-2.565-1.135-2.565-2.565c0-1.43,1.134-2.564,2.565-2.564c1.439,0,2.564,1.134,2.564,2.564
				S210.923,46.02,209.483,46.02z M216.685,46.02c-1.44,0-2.565-1.135-2.565-2.565c0-1.43,1.134-2.564,2.565-2.564
				c1.43-0.011,2.564,1.125,2.564,2.564C219.248,44.896,218.114,46.02,216.685,46.02z M222.129,38.829h-44.19v-3.798h44.19V38.829z"
				/>
		</g>
	</g>
</g>
<g>
	<path fill="#FFFFFF" d="M200.425,62.107l12.27,0.778l1.687,5.371l1.001,0.064c-0.046,1.914,1.094,3.738,2.986,4.453
		c2.031,0.765,4.047,1.308,6.027,1.635c3.424,0.565,6.744,0.479,9.897-0.227l1.233,0.079l-0.127-0.365
		c2.401-0.656,4.695-1.686,6.845-3.069c1.165,4.771,2.332,9.539,3.498,14.311c1.31-0.313,12.067-0.098,17.47-0.306
		c-1.961-8.021-4.587-17.223-6.547-25.241c-1.084-4.436-4.655-7.783-9.488-7.088c-3.83,0.553-7.475,4.32-7.248,8.351
		c-2.264,2.152-4.816,3.568-7.59,4.209l-1.663-4.805l5.105,0.324l0.235-3.657l-39.348-2.5l0.242-3.886l-3.659-0.234l-0.364,5.714
		l3.661,0.231l-0.114,1.827l4.229,0.271L200.425,62.107z M216.806,59.376l8.539,0.544l1.893,5.462
		c-1.807-0.159-3.67-0.582-5.594-1.308c-1.127-0.424-2.313-0.367-3.351,0.046L216.806,59.376z"/>
</g>
<g>
	<polygon fill="#FFFFFF" points="255.963,52.426 265.669,49.965 260.978,31.965 262.438,31.584 267.131,49.594 270.942,48.626 
		274.496,50.152 279.103,48.984 286.037,76.316 281.431,77.485 281.396,89.845 266.418,93.643 	"/>
</g>
<g>
	<path fill="#FFFFFF" d="M251.256,44.734c-0.938,4.211-4.694,7.363-9.188,7.363c-5.197,0-9.414-4.218-9.414-9.419
		c0-0.253,0.018-0.499,0.037-0.744h9.379C242.065,41.934,246.181,44.061,251.256,44.734z"/>
</g>
<g>
	<path fill="#FFFFFF" d="M252.646,42.967c-5.521-0.73-9.996-3.048-9.996-3.048H232.44h-0.549c0-5.941,4.816-10.759,10.756-10.759
		c5.942,0,10.76,4.817,10.76,10.759c0,1.074-0.163,2.111-0.456,3.091C252.849,42.996,252.747,42.98,252.646,42.967z"/>
</g>
<g>
	<path fill="#FFFFFF" d="M161.03,53.611c-5.782-0.003-10.301-4.575-10.409-10.349c-0.108-5.744,5.312-10.401,10.466-10.437
		c5.33-0.037,10.546,5.146,10.346,10.421C171.231,48.531,167.457,53.676,161.03,53.611z"/>
</g>
<g>
	<path fill="#FFFFFF" d="M152.336,65.189c-0.772,0.455-1.502,1.235-1.901,2.523c-0.561,1.813-0.42,3.47-0.023,4.539l0.658-0.126
		c-0.129-0.84-0.26-2.449,0.246-4.079c0.74-2.392,2.906-2.527,2.906-2.527c1.745,0.278,3.495,0.524,5.252,0.675
		c1.627,0.139,3.227,0.065,4.739-0.351c0.185,0.394,0.382,0.782,0.593,1.168c0.471,0.854,0.452,1.472-0.021,2.253
		c-1.375,2.273-3.411,3.599-5.738,4.39c-1.088-0.003-2.172-0.066-3.256-0.24c-1.054-0.169-2.774-0.354-4.517-0.674l0.518,2.703
		l-0.816,0.157l-0.588-3.069c-2.308-0.522-4.38-1.34-4.643-2.75c-0.88-4.723,3.061-5.196,4.984-4.867
		C151.265,65.005,151.801,65.097,152.336,65.189z"/>
</g>
<g>
	<path fill="#FFFFFF" d="M157.886,74.382c0.537-0.127,1.064-0.275,1.577-0.45c2.326-0.791,4.363-2.116,5.738-4.391
		c0.472-0.781,0.489-1.396,0.021-2.253c-0.212-0.385-0.408-0.773-0.593-1.167c-0.979-2.092-1.515-4.296-1.026-6.717
		c0.619-3.077,3.094-5.94,5.988-7.027c1.65,2.135,7.534,10.308,5.135,15.448l0.754,0.351c1.265-2.71,0.685-6.383-1.725-10.917
		c-1.197-2.254-2.542-4.131-3.313-5.142c0.121-0.03,0.242-0.063,0.363-0.086c2.815-0.537,6.366,1.204,7.986,4.066
		c3.818,6.747,7.041,13.745,8.02,21.534c0.323,2.573,0.369,5.058,0.057,7.423l-18.662,0.178c0.051-2.343,0.002-4.681,0.002-6.922
		c-4.02,1.416-7.564,3.44-11.57,4.078c-0.652,0.104-1.545,0.278-2.544,0.452l-2.39-7.311
		C153.778,75.213,155.849,74.863,157.886,74.382z"/>
</g>
<g>
	<path fill="#FFFFFF" d="M179.709,106.788c0.041-2.335,0.156-4.67,0.315-7c0.031-0.44,0.336-0.977,0.683-1.266
		c2.621-2.181,4.42-4.647,5.567-7.338c1.178,3.38,1.293,6.988-0.094,10.9c-0.125,0.357-0.115,0.874,0.051,1.205
		c0.885,1.749,1.803,3.482,2.774,5.185c3.024,5.297,6.152,10.528,9.97,15.313c0.619,0.775,1.305,1.569,1.652,2.473
		c0.842,2.189-0.041,4.256-2.12,5.411c-1.837,1.021-4.883,0.533-6.075-1.114c-2.651-3.667-5.363-7.303-7.795-11.114
		c-1.718-2.694-3.361-5.438-4.979-8.195C179.667,109.762,179.683,108.275,179.709,106.788z"/>
</g>
<g>
	<path fill="#FFFFFF" d="M168.188,86.066C168.188,86.065,168.188,86.065,168.188,86.066l18.556-0.178
		c-0.263,1.546-0.692,3.036-1.302,4.465c-1.146,2.689-2.946,5.157-5.566,7.338c-0.348,0.289-0.65,0.825-0.682,1.266
		c-0.16,2.33-0.275,4.665-0.316,7c-0.025,1.487-0.043,2.975-0.05,4.46c-0.027,5.779,0.141,11.551,0.935,17.298
		c0.162,1.171,0.381,2.402,0.187,3.54c-0.472,2.755-2.634,4.334-5.468,4.252c-2.502-0.072-5.326-2.428-5.543-4.842
		c-0.482-5.371-1.047-10.747-1.215-16.132c-0.207-6.69-0.101-13.391-0.025-20.087C167.729,91.651,168.095,88.862,168.188,86.066z"/>
</g>
<g>
	<path fill="#FFFFFF" d="M148.872,75.955c0.701-0.104,1.404-0.207,2.105-0.313l-0.232,0.075l2.382,7.285
		c-2.996,0.473-6.515,0.745-7.474-0.871C143.62,78.703,146.942,76.241,148.872,75.955z"/>
</g>
<g>
	<path fill="#FFFFFF" d="M256.597,106.788c0.041-2.335,0.156-4.67,0.316-7c0.029-0.44,0.335-0.977,0.682-1.266
		c2.621-2.181,4.42-4.647,5.567-7.338c1.178,3.38,1.293,6.988-0.093,10.9c-0.127,0.357-0.116,0.874,0.051,1.205
		c0.884,1.749,1.802,3.482,2.773,5.185c3.025,5.297,6.152,10.528,9.971,15.313c0.619,0.775,1.305,1.569,1.652,2.473
		c0.842,2.189-0.041,4.256-2.119,5.411c-1.838,1.021-4.883,0.533-6.076-1.114c-2.651-3.667-5.363-7.303-7.795-11.114
		c-1.717-2.694-3.36-5.438-4.979-8.195C256.554,109.762,256.571,108.275,256.597,106.788z"/>
</g>
<g>
	<path fill="#FFFFFF" d="M245.077,86.066C245.077,86.065,245.077,86.065,245.077,86.066l18.555-0.178
		c-0.263,1.546-0.691,3.036-1.301,4.465c-1.146,2.689-2.947,5.157-5.566,7.338c-0.348,0.289-0.652,0.825-0.683,1.266
		c-0.16,2.33-0.274,4.665-0.315,7c-0.026,1.487-0.043,2.975-0.051,4.46c-0.027,5.779,0.141,11.551,0.936,17.298
		c0.162,1.171,0.381,2.402,0.186,3.54c-0.471,2.755-2.634,4.334-5.467,4.252c-2.503-0.072-5.326-2.428-5.543-4.842
		c-0.482-5.371-1.047-10.747-1.215-16.132c-0.209-6.69-0.102-13.391-0.026-20.087C244.618,91.651,244.983,88.862,245.077,86.066z"/>
</g>
<g>
	<g enable-background="new    ">
		<path fill="#FFFFFF" d="M33.426,34.008c-2.731,0-5.138,1.365-7.219,4.097l-6.146-5.658c3.056-4.617,7.934-6.926,14.633-6.926
			c10.08,0,15.121,5.919,15.121,17.754c0,1.821-0.098,3.528-0.293,5.121c-0.195,1.595-0.375,2.943-0.537,4.048
			c-0.163,1.107-0.537,2.261-1.122,3.463c-0.585,1.204-1.024,2.131-1.317,2.78c-0.292,0.65-0.927,1.529-1.902,2.634
			c-0.976,1.106-1.659,1.87-2.049,2.292c-0.39,0.423-1.253,1.285-2.585,2.584c-1.334,1.302-2.229,2.18-2.683,2.634
			c-2.407,2.407-4.048,4.683-4.926,6.829s-1.317,4.975-1.317,8.486v3.805h17.656v9.17H21.622V85.904
			c0-5.787,0.649-10.291,1.951-13.51c1.3-3.22,3.576-6.454,6.829-9.707c0.13-0.13,0.666-0.649,1.61-1.561
			c0.942-0.91,1.512-1.479,1.707-1.707c0.195-0.227,0.683-0.796,1.463-1.707c0.78-0.91,1.3-1.593,1.561-2.049
			c0.259-0.454,0.649-1.154,1.171-2.097c0.52-0.942,0.861-1.82,1.024-2.634c0.162-0.813,0.341-1.771,0.537-2.878
			c0.195-1.105,0.292-2.244,0.292-3.414c0-3.902-0.521-6.649-1.561-8.243C37.165,34.805,35.572,34.008,33.426,34.008z"/>
		<path fill="#FFFFFF" d="M69.519,34.008c-2.731,0-5.139,1.365-7.219,4.097l-6.146-5.658c3.056-4.617,7.934-6.926,14.632-6.926
			c10.08,0,15.121,5.919,15.121,17.754c0,1.821-0.098,3.528-0.293,5.121c-0.195,1.595-0.375,2.943-0.537,4.048
			c-0.163,1.107-0.536,2.261-1.121,3.463c-0.586,1.204-1.024,2.131-1.317,2.78c-0.293,0.65-0.927,1.529-1.902,2.634
			c-0.976,1.106-1.658,1.87-2.048,2.292c-0.391,0.423-1.253,1.285-2.586,2.584c-1.333,1.302-2.228,2.18-2.683,2.634
			c-2.406,2.407-4.048,4.683-4.926,6.829s-1.317,4.975-1.317,8.486v3.805h17.657v9.17H57.715V85.904
			c0-5.787,0.649-10.291,1.951-13.51c1.3-3.22,3.575-6.454,6.828-9.707c0.13-0.13,0.666-0.649,1.609-1.561
			c0.942-0.91,1.513-1.479,1.707-1.707c0.195-0.227,0.684-0.796,1.464-1.707c0.78-0.91,1.3-1.593,1.561-2.049
			c0.259-0.454,0.649-1.154,1.171-2.097c0.52-0.942,0.861-1.82,1.024-2.634c0.161-0.813,0.341-1.771,0.536-2.878
			c0.195-1.105,0.293-2.244,0.293-3.414c0-3.902-0.521-6.649-1.562-8.243C73.257,34.805,71.664,34.008,69.519,34.008z"/>
		<path fill="#FFFFFF" d="M106.393,34.008c-2.602,0-4.911,1.431-6.926,4.292l-6.049-5.561c2.927-4.812,7.381-7.219,13.364-7.219
			c5.269,0,9.007,1.448,11.219,4.341c2.21,2.895,3.316,6.975,3.316,12.242v5.658c0,3.643-0.553,6.406-1.658,8.292
			c-1.106,1.887-2.992,3.155-5.658,3.805c2.405,0.456,4.308,1.772,5.707,3.951c1.397,2.18,2.098,5.121,2.098,8.828v7.121
			c0,5.789-1.171,10.341-3.512,13.657c-2.342,3.316-6.375,4.976-12.097,4.976c-3.121,0-5.821-0.717-8.097-2.146
			c-2.277-1.43-3.968-3.088-5.072-4.975l6.341-6.244c2.21,3.058,4.551,4.585,7.023,4.585c2.08,0,3.544-0.764,4.39-2.292
			c0.845-1.527,1.269-4.049,1.269-7.561v-4.877c0-2.405-0.146-4.275-0.439-5.609c-0.293-1.332-0.862-2.292-1.707-2.878
			c-0.846-0.585-1.658-0.941-2.438-1.073c-0.78-0.129-2.082-0.194-3.902-0.194h-1.365v-8.975h1.365c1.625,0,2.813-0.064,3.561-0.195
			c0.747-0.13,1.527-0.488,2.341-1.073c0.813-0.585,1.366-1.544,1.659-2.878c0.292-1.332,0.438-3.17,0.438-5.511v-4.097
			c0-2.731-0.375-4.812-1.122-6.243C109.692,34.724,108.344,34.008,106.393,34.008z"/>
	</g>
	<g enable-background="new    ">
		<path fill="#FFFFFF" d="M27.542,108.207c-0.191,0.019-0.397,0.098-0.619,0.239s-0.382,0.354-0.482,0.636
			c-0.228,0.67-0.443,1.305-0.646,1.904c-0.203,0.599-0.43,1.272-0.68,2.02c-0.082,0.237-0.165,0.492-0.25,0.766
			s-0.161,0.535-0.229,0.786h-0.583l-1.818-4.968l-1.822,4.968h-0.562c-0.342-1.012-0.676-2.016-1.001-3.011
			c-0.326-0.996-0.614-1.863-0.865-2.602c-0.073-0.214-0.212-0.383-0.417-0.506s-0.403-0.196-0.595-0.219v-0.451h3.006v0.479
			c-0.15,0.005-0.313,0.029-0.489,0.075s-0.263,0.121-0.263,0.226c0,0.019,0.008,0.057,0.024,0.116s0.035,0.123,0.058,0.191
			c0.146,0.478,0.311,1.011,0.495,1.6c0.185,0.59,0.422,1.354,0.714,2.296l1.719-4.846H22.9l1.756,4.778
			c0.196-0.609,0.391-1.2,0.585-1.771s0.364-1.106,0.51-1.606c0.032-0.118,0.063-0.227,0.092-0.325
			c0.03-0.098,0.044-0.194,0.044-0.29c0-0.082-0.037-0.155-0.109-0.219s-0.162-0.116-0.267-0.157
			c-0.091-0.036-0.19-0.063-0.297-0.082c-0.107-0.019-0.186-0.027-0.236-0.027v-0.438h2.563V108.207z"/>
		<path fill="#FFFFFF" d="M31.09,114.51h-3.254v-0.451c0.105-0.009,0.213-0.019,0.325-0.027s0.208-0.027,0.291-0.055
			c0.127-0.041,0.222-0.112,0.284-0.215s0.092-0.235,0.092-0.399v-4.158c0-0.146-0.033-0.279-0.099-0.399
			c-0.066-0.121-0.158-0.222-0.277-0.304c-0.086-0.055-0.212-0.102-0.376-0.14c-0.164-0.039-0.314-0.063-0.451-0.072v-0.451
			l2.379-0.15l0.096,0.096v5.496c0,0.159,0.031,0.292,0.092,0.396s0.157,0.183,0.289,0.232c0.099,0.041,0.197,0.074,0.292,0.1
			c0.095,0.024,0.202,0.042,0.319,0.051V114.51z M30.235,105.028c0,0.26-0.085,0.486-0.256,0.681
			c-0.171,0.193-0.382,0.29-0.632,0.29c-0.232,0-0.434-0.093-0.605-0.276c-0.171-0.186-0.256-0.396-0.256-0.633
			c0-0.251,0.085-0.47,0.256-0.656s0.373-0.28,0.605-0.28c0.26,0,0.473,0.088,0.639,0.263
			C30.152,104.592,30.235,104.796,30.235,105.028z"/>
		<path fill="#FFFFFF" d="M35.082,114.51h-3.288v-0.451c0.105-0.009,0.216-0.02,0.335-0.031c0.119-0.011,0.216-0.028,0.294-0.051
			c0.127-0.041,0.223-0.113,0.287-0.216s0.096-0.235,0.096-0.4v-7.812c0-0.164-0.035-0.318-0.106-0.462s-0.163-0.257-0.277-0.339
			c-0.082-0.055-0.232-0.104-0.451-0.15s-0.394-0.073-0.526-0.082v-0.438l2.536-0.15l0.096,0.103v9.249
			c0,0.159,0.03,0.291,0.089,0.393c0.059,0.104,0.155,0.182,0.287,0.236c0.1,0.046,0.199,0.08,0.297,0.103s0.208,0.039,0.332,0.048
			V114.51z"/>
		<path fill="#FFFFFF" d="M43.313,114.386l-2.358,0.15l-0.103-0.096v-0.629l-0.055-0.014c-0.237,0.265-0.529,0.48-0.877,0.649
			c-0.349,0.169-0.707,0.253-1.075,0.253c-0.382,0-0.752-0.086-1.109-0.256c-0.357-0.172-0.668-0.412-0.932-0.722
			c-0.269-0.314-0.481-0.692-0.639-1.135c-0.157-0.442-0.235-0.93-0.235-1.463c0-0.487,0.084-0.95,0.252-1.388s0.4-0.82,0.696-1.148
			c0.278-0.306,0.618-0.549,1.021-0.731s0.813-0.273,1.232-0.273c0.314,0,0.622,0.04,0.925,0.12
			c0.303,0.079,0.563,0.181,0.782,0.304v-2.35c0-0.191-0.032-0.366-0.096-0.523c-0.064-0.158-0.153-0.277-0.267-0.359
			c-0.127-0.087-0.3-0.149-0.516-0.188s-0.45-0.067-0.701-0.086v-0.424l2.762-0.15l0.103,0.103v9.086
			c0,0.159,0.031,0.295,0.092,0.406s0.151,0.206,0.27,0.283c0.086,0.055,0.212,0.089,0.376,0.103s0.314,0.022,0.451,0.027V114.386z
			 M40.838,113.204v-3.944c-0.037-0.118-0.096-0.246-0.177-0.383c-0.082-0.137-0.184-0.262-0.307-0.376
			c-0.132-0.114-0.287-0.208-0.464-0.284c-0.178-0.074-0.384-0.112-0.621-0.112c-0.273,0-0.524,0.07-0.754,0.212
			s-0.433,0.344-0.61,0.608c-0.168,0.255-0.301,0.58-0.399,0.974c-0.098,0.395-0.146,0.831-0.146,1.31
			c0,0.383,0.036,0.73,0.109,1.042c0.073,0.313,0.195,0.604,0.368,0.872c0.159,0.255,0.363,0.46,0.611,0.615
			c0.248,0.155,0.542,0.232,0.883,0.232c0.364,0,0.665-0.08,0.904-0.239C40.473,113.571,40.674,113.395,40.838,113.204z"/>
		<path fill="#FFFFFF" d="M47.127,114.51h-3.288v-0.451c0.105-0.009,0.216-0.02,0.335-0.031c0.119-0.011,0.216-0.028,0.294-0.051
			c0.127-0.041,0.223-0.113,0.287-0.216s0.096-0.235,0.096-0.4v-7.812c0-0.164-0.035-0.318-0.106-0.462s-0.163-0.257-0.277-0.339
			c-0.082-0.055-0.232-0.104-0.451-0.15s-0.394-0.073-0.526-0.082v-0.438l2.536-0.15l0.096,0.103v9.249
			c0,0.159,0.03,0.291,0.089,0.393c0.059,0.104,0.155,0.182,0.287,0.236c0.1,0.046,0.199,0.08,0.297,0.103s0.208,0.039,0.332,0.048
			V114.51z"/>
		<path fill="#FFFFFF" d="M51.242,114.51h-3.254v-0.451c0.105-0.009,0.213-0.019,0.325-0.027s0.208-0.027,0.291-0.055
			c0.127-0.041,0.222-0.112,0.284-0.215s0.092-0.235,0.092-0.399v-4.158c0-0.146-0.033-0.279-0.099-0.399
			c-0.066-0.121-0.158-0.222-0.277-0.304c-0.086-0.055-0.212-0.102-0.376-0.14c-0.164-0.039-0.314-0.063-0.451-0.072v-0.451
			l2.379-0.15l0.096,0.096v5.496c0,0.159,0.03,0.292,0.092,0.396c0.061,0.104,0.157,0.183,0.288,0.232
			c0.1,0.041,0.197,0.074,0.292,0.1c0.096,0.024,0.201,0.042,0.319,0.051V114.51z M50.388,105.028c0,0.26-0.085,0.486-0.257,0.681
			c-0.17,0.193-0.381,0.29-0.632,0.29c-0.232,0-0.435-0.093-0.605-0.276c-0.171-0.186-0.256-0.396-0.256-0.633
			c0-0.251,0.085-0.47,0.256-0.656c0.17-0.187,0.373-0.28,0.605-0.28c0.26,0,0.473,0.088,0.64,0.263
			C50.305,104.592,50.388,104.796,50.388,105.028z"/>
		<path fill="#FFFFFF" d="M57.094,104.748c0,0.205-0.055,0.378-0.164,0.52s-0.275,0.212-0.499,0.212
			c-0.142,0-0.266-0.029-0.372-0.089c-0.107-0.06-0.207-0.139-0.298-0.239s-0.176-0.214-0.253-0.342s-0.144-0.23-0.198-0.308
			c-0.306,0.014-0.541,0.227-0.708,0.638c-0.166,0.412-0.249,1.067-0.249,1.968v0.689h1.736v0.656h-1.736v4.84
			c0,0.159,0.03,0.289,0.093,0.39c0.061,0.101,0.158,0.176,0.29,0.226c0.109,0.041,0.255,0.074,0.438,0.1
			c0.183,0.024,0.34,0.042,0.472,0.051v0.451H52.09v-0.451c0.104-0.009,0.213-0.019,0.324-0.027
			c0.112-0.009,0.209-0.027,0.291-0.055c0.128-0.041,0.223-0.113,0.283-0.215c0.063-0.104,0.093-0.236,0.093-0.4v-4.908h-1.333
			v-0.656h1.333v-0.43c0-1.023,0.266-1.853,0.796-2.487c0.531-0.635,1.195-0.952,1.993-0.952c0.405,0,0.711,0.08,0.916,0.239
			S57.094,104.52,57.094,104.748z"/>
		<path fill="#FFFFFF" d="M62.617,112.924c-0.282,0.538-0.661,0.966-1.135,1.285s-1.019,0.479-1.634,0.479
			c-0.542,0-1.018-0.096-1.425-0.287c-0.408-0.191-0.744-0.451-1.009-0.779s-0.462-0.711-0.591-1.148
			c-0.131-0.438-0.195-0.9-0.195-1.388c0-0.438,0.069-0.867,0.209-1.288c0.139-0.422,0.343-0.802,0.611-1.139
			c0.26-0.323,0.582-0.584,0.967-0.783c0.386-0.197,0.817-0.297,1.296-0.297c0.492,0,0.914,0.077,1.265,0.232
			s0.636,0.367,0.854,0.636c0.21,0.255,0.366,0.556,0.468,0.902c0.104,0.347,0.154,0.723,0.154,1.128v0.451h-4.464
			c0,0.443,0.042,0.845,0.126,1.206c0.085,0.36,0.218,0.678,0.4,0.952c0.178,0.265,0.41,0.474,0.697,0.627s0.629,0.229,1.025,0.229
			c0.405,0,0.756-0.095,1.049-0.285c0.295-0.19,0.578-0.532,0.852-1.027L62.617,112.924z M61.106,110.353
			c0-0.255-0.021-0.527-0.065-0.817c-0.043-0.291-0.112-0.534-0.208-0.729c-0.104-0.209-0.248-0.38-0.431-0.512
			s-0.417-0.197-0.704-0.197c-0.479,0-0.876,0.199-1.192,0.597c-0.317,0.397-0.489,0.95-0.517,1.659H61.106z"/>
		<path fill="#FFFFFF" d="M72.933,108.569c0.269,0.319,0.478,0.689,0.626,1.11c0.147,0.422,0.222,0.904,0.222,1.446
			c0,0.533-0.089,1.02-0.267,1.46c-0.178,0.439-0.412,0.814-0.704,1.124c-0.306,0.314-0.645,0.556-1.019,0.725
			s-0.771,0.253-1.189,0.253c-0.405,0-0.738-0.046-0.998-0.137s-0.472-0.198-0.636-0.321h-0.055v2.028
			c0,0.164,0.032,0.302,0.096,0.411s0.162,0.189,0.294,0.24c0.109,0.041,0.266,0.08,0.469,0.119c0.202,0.039,0.37,0.061,0.502,0.065
			v0.451h-3.767v-0.451c0.142-0.009,0.278-0.021,0.41-0.034s0.251-0.036,0.355-0.068c0.137-0.046,0.232-0.125,0.287-0.239
			s0.082-0.248,0.082-0.403v-7.171c0-0.137-0.034-0.269-0.103-0.396s-0.157-0.23-0.267-0.308c-0.082-0.055-0.196-0.097-0.342-0.126
			c-0.146-0.03-0.287-0.05-0.424-0.059v-0.451l2.297-0.15l0.096,0.082v0.759l0.055,0.014c0.237-0.273,0.531-0.501,0.882-0.684
			s0.699-0.273,1.046-0.273c0.419,0,0.804,0.089,1.151,0.267C72.383,108.029,72.682,108.268,72.933,108.569z M71.818,113.416
			c0.183-0.282,0.316-0.61,0.403-0.984s0.13-0.791,0.13-1.251c0-0.337-0.036-0.682-0.109-1.032s-0.187-0.656-0.342-0.916
			c-0.155-0.265-0.357-0.479-0.608-0.643s-0.552-0.246-0.902-0.246c-0.337,0-0.624,0.074-0.861,0.223
			c-0.237,0.147-0.442,0.324-0.615,0.529v3.985c0.041,0.123,0.108,0.251,0.202,0.383c0.093,0.132,0.196,0.246,0.311,0.342
			c0.142,0.114,0.294,0.206,0.458,0.276c0.164,0.071,0.364,0.106,0.602,0.106c0.255,0,0.501-0.067,0.738-0.202
			C71.461,113.852,71.659,113.662,71.818,113.416z"/>
		<path fill="#FFFFFF" d="M81.348,111.071c0,0.474-0.075,0.94-0.226,1.397c-0.15,0.459-0.365,0.847-0.644,1.166
			c-0.314,0.364-0.68,0.636-1.095,0.813s-0.881,0.267-1.396,0.267c-0.429,0-0.837-0.081-1.225-0.242
			c-0.388-0.162-0.732-0.398-1.033-0.708c-0.297-0.306-0.532-0.678-0.708-1.118c-0.176-0.439-0.264-0.933-0.264-1.479
			c0-1.053,0.307-1.914,0.92-2.584c0.614-0.67,1.418-1.005,2.412-1.005c0.944,0,1.724,0.318,2.338,0.953
			C81.041,109.168,81.348,110.013,81.348,111.071z M79.933,111.085c0-0.342-0.034-0.703-0.103-1.083
			c-0.068-0.381-0.172-0.703-0.309-0.968c-0.146-0.282-0.338-0.509-0.575-0.681c-0.237-0.17-0.527-0.256-0.87-0.256
			c-0.352,0-0.651,0.087-0.9,0.26c-0.248,0.173-0.45,0.41-0.605,0.711c-0.146,0.278-0.249,0.595-0.309,0.95
			s-0.089,0.699-0.089,1.032c0,0.438,0.035,0.842,0.106,1.213c0.07,0.372,0.184,0.703,0.339,0.995s0.351,0.521,0.585,0.687
			c0.235,0.167,0.526,0.25,0.873,0.25c0.571,0,1.023-0.275,1.356-0.827S79.933,112.055,79.933,111.085z"/>
		<path fill="#FFFFFF" d="M88.703,114.386c-0.214,0.077-0.402,0.141-0.564,0.188c-0.161,0.049-0.345,0.072-0.55,0.072
			c-0.355,0-0.64-0.083-0.851-0.25c-0.213-0.166-0.348-0.408-0.407-0.728H86.29c-0.296,0.328-0.614,0.579-0.954,0.752
			c-0.339,0.173-0.748,0.26-1.227,0.26c-0.506,0-0.922-0.155-1.248-0.465c-0.325-0.31-0.488-0.716-0.488-1.217
			c0-0.26,0.036-0.492,0.109-0.697s0.183-0.39,0.328-0.554c0.114-0.137,0.265-0.259,0.451-0.365
			c0.187-0.107,0.362-0.193,0.526-0.257c0.205-0.077,0.621-0.221,1.247-0.431c0.627-0.21,1.05-0.374,1.269-0.492v-0.677
			c0-0.06-0.013-0.173-0.038-0.342c-0.024-0.169-0.078-0.328-0.16-0.479c-0.091-0.169-0.22-0.315-0.387-0.44
			c-0.166-0.126-0.401-0.188-0.707-0.188c-0.21,0-0.404,0.035-0.584,0.106c-0.181,0.07-0.307,0.145-0.38,0.222
			c0,0.091,0.021,0.226,0.065,0.403c0.043,0.178,0.064,0.342,0.064,0.492c0,0.159-0.072,0.306-0.215,0.438
			c-0.145,0.132-0.344,0.198-0.599,0.198c-0.228,0-0.396-0.081-0.503-0.243c-0.106-0.161-0.16-0.343-0.16-0.543
			c0-0.21,0.074-0.41,0.223-0.602c0.147-0.191,0.34-0.362,0.577-0.513c0.205-0.128,0.453-0.235,0.745-0.325
			c0.292-0.088,0.576-0.133,0.854-0.133c0.383,0,0.717,0.026,1.001,0.078c0.285,0.053,0.544,0.166,0.776,0.339
			c0.232,0.169,0.409,0.397,0.53,0.687c0.12,0.29,0.181,0.662,0.181,1.118c0,0.651-0.007,1.229-0.021,1.733
			c-0.014,0.503-0.021,1.054-0.021,1.65c0,0.178,0.03,0.319,0.093,0.424c0.061,0.104,0.155,0.193,0.283,0.267
			c0.068,0.041,0.177,0.063,0.324,0.068c0.148,0.005,0.3,0.007,0.455,0.007V114.386z M86.317,110.777
			c-0.388,0.114-0.727,0.227-1.019,0.336s-0.563,0.246-0.813,0.411c-0.228,0.155-0.408,0.339-0.54,0.551
			c-0.132,0.213-0.198,0.465-0.198,0.758c0,0.379,0.099,0.657,0.298,0.835c0.197,0.179,0.449,0.268,0.755,0.268
			c0.323,0,0.608-0.079,0.854-0.236s0.453-0.344,0.622-0.559L86.317,110.777z"/>
		<path fill="#FFFFFF" d="M92.49,114.687c-0.976,0-1.738-0.323-2.29-0.971s-0.827-1.516-0.827-2.604
			c0-0.474,0.074-0.917,0.223-1.329c0.147-0.413,0.363-0.788,0.646-1.125c0.269-0.323,0.606-0.584,1.012-0.783
			c0.405-0.197,0.848-0.297,1.326-0.297c0.661,0,1.198,0.158,1.613,0.475c0.415,0.317,0.622,0.749,0.622,1.296
			c0,0.228-0.055,0.43-0.164,0.604c-0.109,0.176-0.289,0.264-0.54,0.264c-0.269,0-0.478-0.068-0.626-0.204
			c-0.147-0.137-0.222-0.289-0.222-0.457c0-0.204,0.027-0.414,0.082-0.63s0.087-0.374,0.096-0.474
			c-0.082-0.141-0.203-0.235-0.365-0.283c-0.161-0.048-0.335-0.071-0.521-0.071c-0.218,0-0.426,0.047-0.624,0.141
			c-0.197,0.093-0.39,0.265-0.576,0.516c-0.168,0.228-0.304,0.535-0.408,0.923c-0.105,0.388-0.157,0.85-0.157,1.388
			c0,0.848,0.188,1.539,0.563,2.074c0.375,0.536,0.867,0.804,1.478,0.804c0.441,0,0.811-0.107,1.108-0.323
			c0.299-0.215,0.575-0.538,0.83-0.969l0.437,0.287c-0.301,0.538-0.697,0.964-1.189,1.278S93.015,114.687,92.49,114.687z"/>
		<path fill="#FFFFFF" d="M103.065,114.51H99.75v-0.451c0.104-0.009,0.221-0.019,0.349-0.027s0.232-0.027,0.314-0.055
			c0.128-0.041,0.222-0.113,0.284-0.215c0.061-0.104,0.092-0.236,0.092-0.4v-3.466c0-0.479-0.113-0.848-0.339-1.107
			c-0.227-0.26-0.502-0.39-0.826-0.39c-0.237,0-0.458,0.037-0.661,0.113c-0.203,0.074-0.385,0.167-0.545,0.276
			c-0.155,0.114-0.273,0.228-0.356,0.342c-0.082,0.114-0.146,0.21-0.191,0.287v3.876c0,0.155,0.03,0.282,0.093,0.383
			c0.061,0.101,0.155,0.178,0.283,0.232c0.101,0.046,0.204,0.08,0.311,0.103c0.107,0.022,0.225,0.039,0.353,0.048v0.451h-3.302
			v-0.451c0.104-0.009,0.213-0.02,0.326-0.031c0.113-0.011,0.208-0.028,0.285-0.051c0.126-0.041,0.222-0.113,0.285-0.216
			s0.095-0.235,0.095-0.4v-7.853c0-0.155-0.035-0.311-0.106-0.466c-0.07-0.154-0.162-0.271-0.276-0.349
			c-0.082-0.059-0.227-0.102-0.435-0.126c-0.207-0.025-0.374-0.043-0.502-0.052v-0.438l2.495-0.15l0.096,0.103v4.703h0.027
			c0.15-0.15,0.287-0.284,0.411-0.399c0.123-0.117,0.285-0.238,0.486-0.366c0.173-0.109,0.377-0.2,0.612-0.273
			s0.499-0.109,0.791-0.109c0.603,0,1.065,0.19,1.39,0.571c0.324,0.38,0.486,0.928,0.486,1.644v3.507
			c0,0.159,0.028,0.288,0.086,0.387c0.058,0.098,0.152,0.174,0.286,0.229c0.105,0.041,0.2,0.072,0.285,0.092
			c0.085,0.021,0.196,0.036,0.334,0.045V114.51z"/>
		<path fill="#FFFFFF" d="M109.867,112.924c-0.282,0.538-0.661,0.966-1.135,1.285s-1.019,0.479-1.634,0.479
			c-0.542,0-1.018-0.096-1.425-0.287c-0.408-0.191-0.744-0.451-1.009-0.779s-0.462-0.711-0.591-1.148
			c-0.131-0.438-0.195-0.9-0.195-1.388c0-0.438,0.069-0.867,0.209-1.288c0.139-0.422,0.343-0.802,0.611-1.139
			c0.26-0.323,0.582-0.584,0.967-0.783c0.386-0.197,0.817-0.297,1.296-0.297c0.492,0,0.914,0.077,1.265,0.232
			s0.636,0.367,0.854,0.636c0.21,0.255,0.366,0.556,0.468,0.902c0.104,0.347,0.154,0.723,0.154,1.128v0.451h-4.464
			c0,0.443,0.042,0.845,0.126,1.206c0.085,0.36,0.218,0.678,0.4,0.952c0.178,0.265,0.41,0.474,0.697,0.627s0.629,0.229,1.025,0.229
			c0.405,0,0.756-0.095,1.049-0.285c0.295-0.19,0.578-0.532,0.852-1.027L109.867,112.924z M108.356,110.353
			c0-0.255-0.021-0.527-0.065-0.817c-0.043-0.291-0.112-0.534-0.208-0.729c-0.104-0.209-0.248-0.38-0.431-0.512
			s-0.417-0.197-0.704-0.197c-0.479,0-0.876,0.199-1.192,0.597c-0.317,0.397-0.489,0.95-0.517,1.659H108.356z"/>
		<path fill="#FFFFFF" d="M115.808,108.637c0,0.232-0.057,0.438-0.171,0.618c-0.114,0.181-0.289,0.271-0.526,0.271
			c-0.255,0-0.45-0.066-0.585-0.198c-0.134-0.132-0.201-0.278-0.201-0.438c0-0.101,0.008-0.191,0.023-0.273
			c0.017-0.082,0.031-0.164,0.045-0.246c-0.214,0-0.465,0.087-0.752,0.26s-0.531,0.419-0.731,0.738v3.924
			c0,0.159,0.03,0.289,0.093,0.39c0.061,0.101,0.158,0.176,0.29,0.226c0.114,0.046,0.261,0.08,0.44,0.103
			c0.181,0.022,0.337,0.039,0.469,0.048v0.451h-3.555v-0.451c0.104-0.009,0.213-0.019,0.324-0.027
			c0.112-0.009,0.209-0.027,0.291-0.055c0.128-0.041,0.223-0.112,0.283-0.215c0.063-0.103,0.093-0.235,0.093-0.399v-4.158
			c0-0.142-0.033-0.28-0.099-0.417c-0.066-0.136-0.159-0.245-0.277-0.327c-0.087-0.055-0.189-0.095-0.308-0.12
			c-0.118-0.024-0.246-0.042-0.383-0.051v-0.451l2.242-0.15l0.096,0.096v0.95h0.034c0.282-0.369,0.597-0.649,0.943-0.841
			s0.663-0.287,0.95-0.287s0.521,0.094,0.7,0.28C115.718,108.072,115.808,108.323,115.808,108.637z"/>
		<path fill="#FFFFFF" d="M120.832,111.208c0.187,0.164,0.33,0.354,0.431,0.567s0.15,0.477,0.15,0.786
			c0,0.624-0.233,1.135-0.701,1.531c-0.467,0.396-1.071,0.595-1.814,0.595c-0.392,0-0.753-0.07-1.084-0.212
			c-0.33-0.142-0.565-0.271-0.707-0.39l-0.137,0.444h-0.513l-0.068-2.345h0.472c0.036,0.179,0.114,0.387,0.232,0.624
			c0.118,0.238,0.262,0.453,0.431,0.645c0.178,0.202,0.391,0.371,0.64,0.508c0.248,0.138,0.527,0.206,0.837,0.206
			c0.438,0,0.774-0.1,1.012-0.299s0.355-0.485,0.355-0.856c0-0.191-0.038-0.356-0.112-0.495c-0.076-0.14-0.187-0.262-0.332-0.366
			c-0.15-0.104-0.335-0.199-0.554-0.284c-0.219-0.084-0.463-0.167-0.731-0.249c-0.214-0.063-0.452-0.151-0.715-0.263
			c-0.262-0.112-0.486-0.243-0.673-0.394c-0.2-0.159-0.364-0.355-0.492-0.588s-0.191-0.506-0.191-0.82
			c0-0.552,0.205-1.019,0.615-1.401s0.959-0.574,1.647-0.574c0.265,0,0.534,0.034,0.811,0.103c0.275,0.068,0.5,0.15,0.673,0.246
			l0.157-0.355h0.492l0.103,2.167h-0.472c-0.096-0.485-0.302-0.88-0.619-1.185c-0.316-0.304-0.702-0.456-1.158-0.456
			c-0.374,0-0.668,0.094-0.882,0.282s-0.321,0.415-0.321,0.682c0,0.205,0.035,0.376,0.105,0.513
			c0.071,0.137,0.177,0.253,0.318,0.349c0.137,0.091,0.309,0.177,0.516,0.257c0.208,0.079,0.464,0.169,0.77,0.27
			c0.301,0.096,0.584,0.207,0.852,0.335C120.438,110.912,120.659,111.052,120.832,111.208z"/>
	</g>
	<g enable-background="new    ">
		<path fill="#FFFFFF" d="M6.877,131.186c-0.214,0.077-0.402,0.141-0.564,0.188c-0.162,0.049-0.345,0.072-0.55,0.072
			c-0.355,0-0.639-0.083-0.851-0.25c-0.212-0.166-0.348-0.408-0.407-0.728H4.464c-0.296,0.328-0.614,0.579-0.954,0.752
			s-0.749,0.26-1.227,0.26c-0.506,0-0.922-0.155-1.248-0.465s-0.489-0.716-0.489-1.217c0-0.26,0.037-0.492,0.109-0.697
			s0.182-0.39,0.328-0.554c0.114-0.137,0.264-0.259,0.451-0.365c0.187-0.107,0.362-0.193,0.526-0.257
			c0.205-0.077,0.621-0.221,1.248-0.431s1.049-0.374,1.268-0.492v-0.677c0-0.06-0.013-0.173-0.038-0.342s-0.079-0.328-0.161-0.479
			c-0.091-0.169-0.22-0.315-0.386-0.44c-0.167-0.126-0.402-0.188-0.708-0.188c-0.209,0-0.404,0.035-0.584,0.106
			c-0.18,0.07-0.307,0.145-0.379,0.222c0,0.091,0.021,0.226,0.065,0.403s0.065,0.342,0.065,0.492c0,0.159-0.072,0.306-0.215,0.438
			s-0.343,0.198-0.598,0.198c-0.228,0-0.396-0.081-0.502-0.243c-0.107-0.161-0.161-0.343-0.161-0.543c0-0.21,0.074-0.41,0.222-0.602
			s0.341-0.362,0.578-0.513c0.205-0.128,0.454-0.235,0.745-0.325c0.292-0.088,0.577-0.133,0.854-0.133
			c0.383,0,0.717,0.026,1.001,0.078c0.285,0.053,0.543,0.166,0.776,0.339c0.232,0.169,0.409,0.397,0.53,0.687
			c0.121,0.29,0.181,0.662,0.181,1.118c0,0.651-0.007,1.229-0.021,1.733c-0.014,0.503-0.021,1.054-0.021,1.65
			c0,0.178,0.031,0.319,0.092,0.424s0.156,0.193,0.284,0.267c0.068,0.041,0.177,0.063,0.325,0.068s0.3,0.007,0.455,0.007V131.186z
			 M4.491,127.577c-0.387,0.114-0.727,0.227-1.019,0.336s-0.563,0.246-0.813,0.411c-0.228,0.155-0.408,0.339-0.54,0.551
			c-0.132,0.213-0.198,0.465-0.198,0.758c0,0.379,0.099,0.657,0.297,0.835c0.198,0.179,0.45,0.268,0.755,0.268
			c0.324,0,0.608-0.079,0.854-0.236s0.454-0.344,0.622-0.559L4.491,127.577z"/>
		<path fill="#FFFFFF" d="M14.991,131.309h-3.295v-0.451c0.105-0.009,0.22-0.019,0.345-0.027s0.229-0.027,0.311-0.055
			c0.127-0.041,0.222-0.113,0.284-0.215c0.062-0.104,0.092-0.236,0.092-0.4v-3.466c0-0.479-0.113-0.848-0.339-1.107
			s-0.501-0.39-0.826-0.39c-0.242,0-0.463,0.037-0.665,0.113c-0.201,0.074-0.379,0.167-0.534,0.276
			c-0.151,0.104-0.271,0.218-0.36,0.339c-0.089,0.12-0.154,0.217-0.195,0.29v3.876c0,0.155,0.032,0.282,0.096,0.383
			s0.16,0.178,0.287,0.232c0.096,0.046,0.199,0.08,0.311,0.103s0.227,0.039,0.345,0.048v0.451H7.547v-0.451
			c0.105-0.009,0.213-0.019,0.325-0.027s0.208-0.027,0.291-0.055c0.127-0.041,0.222-0.112,0.284-0.215s0.092-0.235,0.092-0.399
			v-4.158c0-0.155-0.033-0.297-0.099-0.427s-0.158-0.235-0.277-0.317c-0.086-0.055-0.189-0.095-0.308-0.12
			c-0.119-0.024-0.246-0.042-0.383-0.051v-0.451l2.242-0.15l0.096,0.096v0.95h0.034c0.109-0.109,0.246-0.24,0.41-0.394
			c0.164-0.152,0.319-0.276,0.465-0.372c0.168-0.109,0.369-0.2,0.602-0.273s0.495-0.109,0.786-0.109
			c0.647,0,1.127,0.202,1.439,0.604c0.312,0.404,0.468,0.94,0.468,1.61v3.507c0,0.159,0.027,0.288,0.082,0.387
			c0.055,0.098,0.148,0.174,0.28,0.229c0.109,0.046,0.204,0.077,0.284,0.096s0.19,0.032,0.332,0.041V131.309z"/>
		<path fill="#FFFFFF" d="M23.201,131.186l-2.358,0.15l-0.103-0.096v-0.629l-0.055-0.014c-0.237,0.265-0.529,0.48-0.877,0.649
			c-0.349,0.169-0.707,0.253-1.075,0.253c-0.382,0-0.752-0.086-1.109-0.256c-0.357-0.172-0.668-0.412-0.932-0.722
			c-0.269-0.314-0.481-0.692-0.639-1.135c-0.157-0.442-0.235-0.93-0.235-1.463c0-0.487,0.084-0.95,0.252-1.388s0.4-0.82,0.696-1.148
			c0.278-0.306,0.618-0.549,1.021-0.731s0.813-0.273,1.232-0.273c0.314,0,0.622,0.04,0.925,0.12
			c0.303,0.079,0.563,0.181,0.782,0.304v-2.35c0-0.191-0.032-0.366-0.096-0.523c-0.064-0.158-0.153-0.277-0.267-0.359
			c-0.127-0.087-0.3-0.149-0.516-0.188s-0.45-0.067-0.701-0.086v-0.424l2.762-0.15l0.103,0.103v9.086
			c0,0.159,0.031,0.295,0.092,0.406s0.151,0.206,0.27,0.283c0.086,0.055,0.212,0.089,0.376,0.103s0.314,0.022,0.451,0.027V131.186z
			 M20.727,130.004v-3.944c-0.037-0.118-0.096-0.246-0.177-0.383c-0.082-0.137-0.184-0.262-0.307-0.376
			c-0.132-0.114-0.287-0.208-0.464-0.284c-0.178-0.074-0.384-0.112-0.621-0.112c-0.273,0-0.524,0.07-0.754,0.212
			s-0.433,0.344-0.61,0.608c-0.168,0.255-0.301,0.58-0.399,0.974c-0.098,0.395-0.146,0.831-0.146,1.31
			c0,0.383,0.036,0.73,0.109,1.042c0.073,0.313,0.195,0.604,0.368,0.872c0.159,0.255,0.363,0.46,0.611,0.615
			c0.248,0.155,0.542,0.232,0.883,0.232c0.364,0,0.665-0.08,0.904-0.239C20.362,130.371,20.563,130.195,20.727,130.004z"/>
		<path fill="#FFFFFF" d="M31.397,131.015c-0.296,0.123-0.577,0.227-0.841,0.312c-0.264,0.084-0.588,0.126-0.971,0.126
			c-0.565,0-0.963-0.143-1.193-0.427c-0.23-0.285-0.345-0.688-0.345-1.207v-4.566h-1.217v-0.656h1.244v-2.099h1.244v2.099h1.935
			v0.656h-1.921v3.767c0,0.282,0.01,0.519,0.031,0.708c0.021,0.188,0.069,0.354,0.147,0.495c0.073,0.132,0.182,0.232,0.328,0.301
			s0.342,0.103,0.588,0.103c0.114,0,0.281-0.01,0.502-0.031c0.221-0.02,0.377-0.046,0.468-0.078V131.015z"/>
		<path fill="#FFFFFF" d="M37.229,125.437c0,0.232-0.057,0.438-0.171,0.618c-0.114,0.181-0.289,0.271-0.526,0.271
			c-0.255,0-0.45-0.066-0.585-0.198c-0.134-0.132-0.201-0.278-0.201-0.438c0-0.101,0.008-0.191,0.023-0.273
			c0.017-0.082,0.031-0.164,0.045-0.246c-0.214,0-0.465,0.087-0.752,0.26s-0.531,0.419-0.731,0.738v3.924
			c0,0.159,0.03,0.289,0.093,0.39c0.061,0.101,0.158,0.176,0.29,0.226c0.114,0.046,0.261,0.08,0.44,0.103
			c0.181,0.022,0.337,0.039,0.469,0.048v0.451h-3.555v-0.451c0.104-0.009,0.213-0.019,0.325-0.027
			c0.111-0.009,0.208-0.027,0.29-0.055c0.128-0.041,0.223-0.112,0.283-0.215c0.063-0.103,0.093-0.235,0.093-0.399v-4.158
			c0-0.142-0.033-0.28-0.099-0.417c-0.066-0.136-0.159-0.245-0.277-0.327c-0.087-0.055-0.188-0.095-0.308-0.12
			c-0.119-0.024-0.246-0.042-0.383-0.051v-0.451l2.242-0.15l0.096,0.096v0.95h0.034c0.282-0.369,0.597-0.649,0.943-0.841
			s0.663-0.287,0.95-0.287s0.521,0.094,0.7,0.28C37.139,124.872,37.229,125.123,37.229,125.437z"/>
		<path fill="#FFFFFF" d="M44.188,131.186c-0.214,0.077-0.402,0.141-0.564,0.188c-0.161,0.049-0.345,0.072-0.55,0.072
			c-0.355,0-0.64-0.083-0.851-0.25c-0.213-0.166-0.348-0.408-0.407-0.728h-0.041c-0.296,0.328-0.614,0.579-0.954,0.752
			c-0.339,0.173-0.748,0.26-1.227,0.26c-0.506,0-0.922-0.155-1.248-0.465c-0.325-0.31-0.488-0.716-0.488-1.217
			c0-0.26,0.036-0.492,0.109-0.697s0.183-0.39,0.328-0.554c0.114-0.137,0.265-0.259,0.451-0.365
			c0.187-0.107,0.362-0.193,0.526-0.257c0.205-0.077,0.621-0.221,1.247-0.431c0.627-0.21,1.05-0.374,1.269-0.492v-0.677
			c0-0.06-0.013-0.173-0.038-0.342c-0.024-0.169-0.078-0.328-0.16-0.479c-0.091-0.169-0.22-0.315-0.387-0.44
			c-0.166-0.126-0.401-0.188-0.707-0.188c-0.21,0-0.404,0.035-0.584,0.106c-0.181,0.07-0.307,0.145-0.38,0.222
			c0,0.091,0.021,0.226,0.065,0.403c0.043,0.178,0.064,0.342,0.064,0.492c0,0.159-0.072,0.306-0.215,0.438
			c-0.145,0.132-0.344,0.198-0.599,0.198c-0.228,0-0.396-0.081-0.503-0.243c-0.106-0.161-0.16-0.343-0.16-0.543
			c0-0.21,0.074-0.41,0.223-0.602c0.147-0.191,0.34-0.362,0.577-0.513c0.205-0.128,0.453-0.235,0.745-0.325
			c0.292-0.088,0.576-0.133,0.854-0.133c0.383,0,0.717,0.026,1.001,0.078c0.285,0.053,0.544,0.166,0.776,0.339
			c0.232,0.169,0.409,0.397,0.53,0.687c0.12,0.29,0.181,0.662,0.181,1.118c0,0.651-0.007,1.229-0.021,1.733
			c-0.014,0.503-0.021,1.054-0.021,1.65c0,0.178,0.03,0.319,0.093,0.424c0.061,0.104,0.155,0.193,0.283,0.267
			c0.068,0.041,0.177,0.063,0.324,0.068c0.148,0.005,0.3,0.007,0.455,0.007V131.186z M41.802,127.577
			c-0.388,0.114-0.727,0.227-1.019,0.336s-0.563,0.246-0.813,0.411c-0.228,0.155-0.408,0.339-0.54,0.551
			c-0.132,0.213-0.198,0.465-0.198,0.758c0,0.379,0.099,0.657,0.298,0.835c0.197,0.179,0.449,0.268,0.755,0.268
			c0.323,0,0.608-0.079,0.854-0.236s0.453-0.344,0.622-0.559L41.802,127.577z"/>
		<path fill="#FFFFFF" d="M52.24,131.186l-2.358,0.15l-0.103-0.096v-0.629l-0.055-0.014c-0.236,0.265-0.529,0.48-0.877,0.649
			c-0.349,0.169-0.707,0.253-1.075,0.253c-0.383,0-0.752-0.086-1.109-0.256c-0.357-0.172-0.668-0.412-0.932-0.722
			c-0.269-0.314-0.481-0.692-0.639-1.135s-0.235-0.93-0.235-1.463c0-0.487,0.084-0.95,0.253-1.388c0.168-0.438,0.4-0.82,0.696-1.148
			c0.277-0.306,0.617-0.549,1.021-0.731c0.402-0.183,0.813-0.273,1.231-0.273c0.314,0,0.623,0.04,0.926,0.12
			c0.302,0.079,0.563,0.181,0.781,0.304v-2.35c0-0.191-0.032-0.366-0.096-0.523c-0.063-0.158-0.152-0.277-0.267-0.359
			c-0.128-0.087-0.3-0.149-0.517-0.188c-0.216-0.039-0.449-0.067-0.7-0.086v-0.424l2.762-0.15l0.103,0.103v9.086
			c0,0.159,0.031,0.295,0.092,0.406c0.063,0.111,0.152,0.206,0.271,0.283c0.087,0.055,0.212,0.089,0.376,0.103
			s0.314,0.022,0.451,0.027V131.186z M49.766,130.004v-3.944c-0.036-0.118-0.096-0.246-0.178-0.383
			c-0.081-0.137-0.184-0.262-0.307-0.376c-0.132-0.114-0.286-0.208-0.464-0.284c-0.178-0.074-0.385-0.112-0.621-0.112
			c-0.272,0-0.524,0.07-0.754,0.212s-0.434,0.344-0.61,0.608c-0.168,0.255-0.302,0.58-0.399,0.974
			c-0.098,0.395-0.146,0.831-0.146,1.31c0,0.383,0.036,0.73,0.109,1.042c0.072,0.313,0.195,0.604,0.368,0.872
			c0.159,0.255,0.362,0.46,0.61,0.615s0.543,0.232,0.884,0.232c0.364,0,0.665-0.08,0.904-0.239
			C49.4,130.371,49.602,130.195,49.766,130.004z"/>
		<path fill="#FFFFFF" d="M58.885,129.723c-0.282,0.538-0.661,0.966-1.135,1.285s-1.019,0.479-1.634,0.479
			c-0.542,0-1.018-0.096-1.425-0.287c-0.408-0.191-0.744-0.451-1.009-0.779s-0.462-0.711-0.591-1.148
			c-0.131-0.438-0.195-0.9-0.195-1.388c0-0.438,0.069-0.867,0.209-1.288c0.139-0.422,0.343-0.802,0.611-1.139
			c0.26-0.323,0.582-0.584,0.967-0.783c0.386-0.197,0.817-0.297,1.296-0.297c0.492,0,0.914,0.077,1.265,0.232
			s0.636,0.367,0.854,0.636c0.21,0.255,0.366,0.556,0.468,0.902c0.104,0.347,0.154,0.723,0.154,1.128v0.451h-4.464
			c0,0.443,0.042,0.845,0.126,1.206c0.085,0.36,0.218,0.678,0.4,0.952c0.178,0.265,0.41,0.474,0.697,0.627s0.629,0.229,1.025,0.229
			c0.405,0,0.756-0.095,1.049-0.285c0.295-0.19,0.578-0.532,0.852-1.027L58.885,129.723z M57.374,127.153
			c0-0.255-0.021-0.527-0.065-0.817c-0.043-0.291-0.112-0.534-0.208-0.729c-0.104-0.209-0.248-0.38-0.431-0.512
			s-0.417-0.197-0.704-0.197c-0.479,0-0.876,0.199-1.192,0.597c-0.317,0.397-0.489,0.95-0.517,1.659H57.374z"/>
		<path fill="#FFFFFF" d="M64.825,125.437c0,0.232-0.057,0.438-0.171,0.618c-0.114,0.181-0.289,0.271-0.526,0.271
			c-0.255,0-0.45-0.066-0.585-0.198c-0.134-0.132-0.201-0.278-0.201-0.438c0-0.101,0.008-0.191,0.023-0.273
			c0.017-0.082,0.031-0.164,0.045-0.246c-0.214,0-0.465,0.087-0.752,0.26s-0.531,0.419-0.731,0.738v3.924
			c0,0.159,0.03,0.289,0.093,0.39c0.061,0.101,0.158,0.176,0.29,0.226c0.114,0.046,0.261,0.08,0.44,0.103
			c0.181,0.022,0.337,0.039,0.469,0.048v0.451h-3.555v-0.451c0.104-0.009,0.213-0.019,0.324-0.027
			c0.112-0.009,0.209-0.027,0.291-0.055c0.128-0.041,0.223-0.112,0.283-0.215c0.063-0.103,0.093-0.235,0.093-0.399v-4.158
			c0-0.142-0.033-0.28-0.099-0.417c-0.066-0.136-0.159-0.245-0.277-0.327c-0.087-0.055-0.189-0.095-0.308-0.12
			c-0.118-0.024-0.246-0.042-0.383-0.051v-0.451l2.242-0.15l0.096,0.096v0.95h0.034c0.282-0.369,0.597-0.649,0.943-0.841
			s0.663-0.287,0.95-0.287s0.521,0.094,0.7,0.28C64.735,124.872,64.825,125.123,64.825,125.437z"/>
		<path fill="#FFFFFF" d="M69.85,128.008c0.187,0.164,0.33,0.354,0.431,0.567s0.15,0.477,0.15,0.786
			c0,0.624-0.233,1.135-0.701,1.531c-0.467,0.396-1.071,0.595-1.814,0.595c-0.392,0-0.753-0.07-1.084-0.212
			c-0.33-0.142-0.565-0.271-0.707-0.39l-0.137,0.444h-0.513l-0.068-2.345h0.472c0.036,0.179,0.114,0.387,0.232,0.624
			c0.118,0.238,0.262,0.453,0.431,0.645c0.178,0.202,0.391,0.371,0.64,0.508c0.248,0.138,0.527,0.206,0.837,0.206
			c0.438,0,0.774-0.1,1.012-0.299s0.355-0.485,0.355-0.856c0-0.191-0.038-0.356-0.112-0.495c-0.076-0.14-0.187-0.262-0.332-0.366
			c-0.15-0.104-0.335-0.199-0.554-0.284c-0.219-0.084-0.463-0.167-0.731-0.249c-0.214-0.063-0.452-0.151-0.715-0.263
			c-0.262-0.112-0.486-0.243-0.673-0.394c-0.2-0.159-0.364-0.355-0.492-0.588s-0.191-0.506-0.191-0.82
			c0-0.552,0.205-1.019,0.615-1.401s0.959-0.574,1.647-0.574c0.265,0,0.534,0.034,0.811,0.103c0.275,0.068,0.5,0.15,0.673,0.246
			l0.157-0.355h0.492l0.103,2.167H69.61c-0.096-0.485-0.302-0.88-0.619-1.185c-0.316-0.304-0.702-0.456-1.158-0.456
			c-0.374,0-0.668,0.094-0.882,0.282s-0.321,0.415-0.321,0.682c0,0.205,0.035,0.376,0.105,0.513
			c0.071,0.137,0.177,0.253,0.318,0.349c0.137,0.091,0.309,0.177,0.516,0.257c0.208,0.079,0.464,0.169,0.77,0.27
			c0.301,0.096,0.584,0.207,0.852,0.335C69.456,127.712,69.677,127.852,69.85,128.008z"/>
		<path fill="#FFFFFF" d="M81.211,131.186c-0.214,0.077-0.402,0.141-0.564,0.188c-0.161,0.049-0.345,0.072-0.55,0.072
			c-0.355,0-0.64-0.083-0.851-0.25c-0.213-0.166-0.348-0.408-0.407-0.728h-0.041c-0.296,0.328-0.614,0.579-0.954,0.752
			c-0.339,0.173-0.748,0.26-1.227,0.26c-0.506,0-0.922-0.155-1.248-0.465c-0.325-0.31-0.488-0.716-0.488-1.217
			c0-0.26,0.036-0.492,0.109-0.697s0.183-0.39,0.328-0.554c0.114-0.137,0.265-0.259,0.451-0.365
			c0.187-0.107,0.362-0.193,0.526-0.257c0.205-0.077,0.621-0.221,1.247-0.431c0.627-0.21,1.05-0.374,1.269-0.492v-0.677
			c0-0.06-0.013-0.173-0.038-0.342c-0.024-0.169-0.078-0.328-0.16-0.479c-0.091-0.169-0.22-0.315-0.387-0.44
			c-0.166-0.126-0.401-0.188-0.707-0.188c-0.21,0-0.404,0.035-0.584,0.106c-0.181,0.07-0.307,0.145-0.38,0.222
			c0,0.091,0.021,0.226,0.065,0.403c0.043,0.178,0.064,0.342,0.064,0.492c0,0.159-0.072,0.306-0.215,0.438
			c-0.145,0.132-0.344,0.198-0.599,0.198c-0.228,0-0.396-0.081-0.503-0.243c-0.106-0.161-0.16-0.343-0.16-0.543
			c0-0.21,0.074-0.41,0.223-0.602c0.147-0.191,0.34-0.362,0.577-0.513c0.205-0.128,0.453-0.235,0.745-0.325
			c0.292-0.088,0.576-0.133,0.854-0.133c0.383,0,0.717,0.026,1.001,0.078c0.285,0.053,0.544,0.166,0.776,0.339
			c0.232,0.169,0.409,0.397,0.53,0.687c0.12,0.29,0.181,0.662,0.181,1.118c0,0.651-0.007,1.229-0.021,1.733
			c-0.014,0.503-0.021,1.054-0.021,1.65c0,0.178,0.03,0.319,0.093,0.424c0.061,0.104,0.155,0.193,0.283,0.267
			c0.068,0.041,0.177,0.063,0.324,0.068c0.148,0.005,0.3,0.007,0.455,0.007V131.186z M78.825,127.577
			c-0.388,0.114-0.727,0.227-1.019,0.336s-0.563,0.246-0.813,0.411c-0.228,0.155-0.408,0.339-0.54,0.551
			c-0.132,0.213-0.198,0.465-0.198,0.758c0,0.379,0.099,0.657,0.298,0.835c0.197,0.179,0.449,0.268,0.755,0.268
			c0.323,0,0.608-0.079,0.854-0.236s0.453-0.344,0.622-0.559L78.825,127.577z"/>
		<path fill="#FFFFFF" d="M87.042,125.437c0,0.232-0.057,0.438-0.171,0.618c-0.114,0.181-0.289,0.271-0.526,0.271
			c-0.255,0-0.45-0.066-0.585-0.198c-0.134-0.132-0.201-0.278-0.201-0.438c0-0.101,0.008-0.191,0.023-0.273
			c0.017-0.082,0.031-0.164,0.045-0.246c-0.214,0-0.465,0.087-0.752,0.26s-0.531,0.419-0.731,0.738v3.924
			c0,0.159,0.03,0.289,0.093,0.39c0.061,0.101,0.158,0.176,0.29,0.226c0.114,0.046,0.261,0.08,0.44,0.103
			c0.181,0.022,0.337,0.039,0.469,0.048v0.451h-3.555v-0.451c0.104-0.009,0.213-0.019,0.324-0.027
			c0.112-0.009,0.209-0.027,0.291-0.055c0.128-0.041,0.223-0.112,0.283-0.215c0.063-0.103,0.093-0.235,0.093-0.399v-4.158
			c0-0.142-0.033-0.28-0.099-0.417c-0.066-0.136-0.159-0.245-0.277-0.327c-0.087-0.055-0.189-0.095-0.308-0.12
			c-0.118-0.024-0.246-0.042-0.383-0.051v-0.451l2.242-0.15l0.096,0.096v0.95h0.034c0.282-0.369,0.597-0.649,0.943-0.841
			s0.663-0.287,0.95-0.287s0.521,0.094,0.7,0.28C86.952,124.872,87.042,125.123,87.042,125.437z"/>
		<path fill="#FFFFFF" d="M92.777,125.437c0,0.232-0.057,0.438-0.171,0.618c-0.114,0.181-0.289,0.271-0.526,0.271
			c-0.255,0-0.45-0.066-0.585-0.198c-0.134-0.132-0.201-0.278-0.201-0.438c0-0.101,0.008-0.191,0.023-0.273
			c0.017-0.082,0.031-0.164,0.045-0.246c-0.214,0-0.465,0.087-0.752,0.26s-0.531,0.419-0.731,0.738v3.924
			c0,0.159,0.03,0.289,0.093,0.39c0.061,0.101,0.158,0.176,0.29,0.226c0.114,0.046,0.261,0.08,0.44,0.103
			c0.181,0.022,0.337,0.039,0.469,0.048v0.451h-3.555v-0.451c0.104-0.009,0.213-0.019,0.324-0.027
			c0.112-0.009,0.209-0.027,0.291-0.055c0.128-0.041,0.223-0.112,0.283-0.215c0.063-0.103,0.093-0.235,0.093-0.399v-4.158
			c0-0.142-0.033-0.28-0.099-0.417c-0.066-0.136-0.159-0.245-0.277-0.327c-0.087-0.055-0.189-0.095-0.308-0.12
			c-0.118-0.024-0.246-0.042-0.383-0.051v-0.451l2.242-0.15l0.096,0.096v0.95h0.034c0.282-0.369,0.597-0.649,0.943-0.841
			s0.663-0.287,0.95-0.287s0.521,0.094,0.7,0.28C92.688,124.872,92.777,125.123,92.777,125.437z"/>
		<path fill="#FFFFFF" d="M99.34,129.723c-0.282,0.538-0.661,0.966-1.135,1.285s-1.019,0.479-1.634,0.479
			c-0.542,0-1.018-0.096-1.425-0.287c-0.408-0.191-0.744-0.451-1.009-0.779s-0.462-0.711-0.591-1.148
			c-0.131-0.438-0.195-0.9-0.195-1.388c0-0.438,0.069-0.867,0.209-1.288c0.139-0.422,0.343-0.802,0.611-1.139
			c0.26-0.323,0.582-0.584,0.967-0.783c0.386-0.197,0.817-0.297,1.296-0.297c0.492,0,0.914,0.077,1.265,0.232
			s0.636,0.367,0.854,0.636c0.21,0.255,0.366,0.556,0.468,0.902c0.104,0.347,0.154,0.723,0.154,1.128v0.451h-4.464
			c0,0.443,0.042,0.845,0.126,1.206c0.085,0.36,0.218,0.678,0.4,0.952c0.178,0.265,0.41,0.474,0.697,0.627s0.629,0.229,1.025,0.229
			c0.405,0,0.756-0.095,1.049-0.285c0.295-0.19,0.578-0.532,0.852-1.027L99.34,129.723z M97.829,127.153
			c0-0.255-0.021-0.527-0.065-0.817c-0.043-0.291-0.112-0.534-0.208-0.729c-0.104-0.209-0.248-0.38-0.431-0.512
			s-0.417-0.197-0.704-0.197c-0.479,0-0.876,0.199-1.192,0.597c-0.317,0.397-0.489,0.95-0.517,1.659H97.829z"/>
		<path fill="#FFFFFF" d="M104.569,128.008c0.187,0.164,0.33,0.354,0.431,0.567s0.15,0.477,0.15,0.786
			c0,0.624-0.233,1.135-0.701,1.531c-0.467,0.396-1.071,0.595-1.814,0.595c-0.392,0-0.753-0.07-1.084-0.212
			c-0.33-0.142-0.565-0.271-0.707-0.39l-0.137,0.444h-0.513l-0.068-2.345h0.472c0.036,0.179,0.114,0.387,0.232,0.624
			c0.118,0.238,0.262,0.453,0.431,0.645c0.178,0.202,0.391,0.371,0.64,0.508c0.248,0.138,0.527,0.206,0.837,0.206
			c0.438,0,0.774-0.1,1.012-0.299s0.355-0.485,0.355-0.856c0-0.191-0.038-0.356-0.112-0.495c-0.076-0.14-0.187-0.262-0.332-0.366
			c-0.15-0.104-0.335-0.199-0.554-0.284c-0.219-0.084-0.463-0.167-0.731-0.249c-0.214-0.063-0.452-0.151-0.715-0.263
			c-0.262-0.112-0.486-0.243-0.673-0.394c-0.2-0.159-0.364-0.355-0.492-0.588s-0.191-0.506-0.191-0.82
			c0-0.552,0.205-1.019,0.615-1.401s0.959-0.574,1.647-0.574c0.265,0,0.534,0.034,0.811,0.103c0.275,0.068,0.5,0.15,0.673,0.246
			l0.157-0.355h0.492l0.103,2.167h-0.472c-0.096-0.485-0.302-0.88-0.619-1.185c-0.316-0.304-0.702-0.456-1.158-0.456
			c-0.374,0-0.668,0.094-0.882,0.282s-0.321,0.415-0.321,0.682c0,0.205,0.035,0.376,0.105,0.513
			c0.071,0.137,0.177,0.253,0.318,0.349c0.137,0.091,0.309,0.177,0.516,0.257c0.208,0.079,0.464,0.169,0.77,0.27
			c0.301,0.096,0.584,0.207,0.852,0.335C104.176,127.712,104.396,127.852,104.569,128.008z"/>
		<path fill="#FFFFFF" d="M110.332,131.015c-0.296,0.123-0.576,0.227-0.841,0.312c-0.265,0.084-0.588,0.126-0.971,0.126
			c-0.565,0-0.963-0.143-1.193-0.427c-0.229-0.285-0.345-0.688-0.345-1.207v-4.566h-1.217v-0.656h1.244v-2.099h1.244v2.099h1.935
			v0.656h-1.921v3.767c0,0.282,0.011,0.519,0.03,0.708c0.021,0.188,0.07,0.354,0.147,0.495c0.073,0.132,0.183,0.232,0.328,0.301
			s0.342,0.103,0.588,0.103c0.114,0,0.281-0.01,0.503-0.031c0.221-0.02,0.377-0.046,0.468-0.078V131.015z"/>
		<path fill="#FFFFFF" d="M116.99,129.723c-0.282,0.538-0.661,0.966-1.135,1.285s-1.019,0.479-1.634,0.479
			c-0.542,0-1.018-0.096-1.425-0.287c-0.408-0.191-0.744-0.451-1.009-0.779s-0.462-0.711-0.591-1.148
			c-0.131-0.438-0.195-0.9-0.195-1.388c0-0.438,0.069-0.867,0.209-1.288c0.139-0.422,0.343-0.802,0.611-1.139
			c0.26-0.323,0.582-0.584,0.967-0.783c0.386-0.197,0.817-0.297,1.296-0.297c0.492,0,0.914,0.077,1.265,0.232
			s0.636,0.367,0.854,0.636c0.21,0.255,0.366,0.556,0.468,0.902c0.104,0.347,0.154,0.723,0.154,1.128v0.451h-4.464
			c0,0.443,0.042,0.845,0.126,1.206c0.085,0.36,0.218,0.678,0.4,0.952c0.178,0.265,0.41,0.474,0.697,0.627s0.629,0.229,1.025,0.229
			c0.405,0,0.756-0.095,1.049-0.285c0.295-0.19,0.578-0.532,0.852-1.027L116.99,129.723z M115.479,127.153
			c0-0.255-0.021-0.527-0.065-0.817c-0.043-0.291-0.112-0.534-0.208-0.729c-0.104-0.209-0.248-0.38-0.431-0.512
			s-0.417-0.197-0.704-0.197c-0.479,0-0.876,0.199-1.192,0.597c-0.317,0.397-0.489,0.95-0.517,1.659H115.479z"/>
		<path fill="#FFFFFF" d="M125.152,131.186l-2.358,0.15l-0.103-0.096v-0.629l-0.055-0.014c-0.236,0.265-0.529,0.48-0.877,0.649
			c-0.349,0.169-0.707,0.253-1.075,0.253c-0.383,0-0.752-0.086-1.109-0.256c-0.357-0.172-0.668-0.412-0.932-0.722
			c-0.269-0.314-0.481-0.692-0.639-1.135s-0.235-0.93-0.235-1.463c0-0.487,0.084-0.95,0.253-1.388c0.168-0.438,0.4-0.82,0.696-1.148
			c0.277-0.306,0.617-0.549,1.021-0.731c0.402-0.183,0.813-0.273,1.231-0.273c0.314,0,0.623,0.04,0.926,0.12
			c0.302,0.079,0.563,0.181,0.781,0.304v-2.35c0-0.191-0.032-0.366-0.096-0.523c-0.063-0.158-0.152-0.277-0.267-0.359
			c-0.128-0.087-0.3-0.149-0.517-0.188c-0.216-0.039-0.449-0.067-0.7-0.086v-0.424l2.762-0.15l0.103,0.103v9.086
			c0,0.159,0.031,0.295,0.092,0.406c0.063,0.111,0.152,0.206,0.271,0.283c0.087,0.055,0.212,0.089,0.376,0.103
			s0.314,0.022,0.451,0.027V131.186z M122.678,130.004v-3.944c-0.036-0.118-0.096-0.246-0.178-0.383
			c-0.081-0.137-0.184-0.262-0.307-0.376c-0.132-0.114-0.286-0.208-0.464-0.284c-0.178-0.074-0.385-0.112-0.621-0.112
			c-0.272,0-0.524,0.07-0.754,0.212s-0.434,0.344-0.61,0.608c-0.168,0.255-0.302,0.58-0.399,0.974
			c-0.098,0.395-0.146,0.831-0.146,1.31c0,0.383,0.036,0.73,0.109,1.042c0.072,0.313,0.195,0.604,0.368,0.872
			c0.159,0.255,0.362,0.46,0.61,0.615s0.543,0.232,0.884,0.232c0.364,0,0.665-0.08,0.904-0.239
			C122.313,130.371,122.514,130.195,122.678,130.004z"/>
	</g>
</g>
</svg>
