<?xml version="1.0" encoding="utf-8"?>
<!-- Generator: Adobe Illustrator 16.0.0, SVG Export Plug-In . SVG Version: 6.00 Build 0)  -->
<!DOCTYPE svg PUBLIC "-//W3C//DTD SVG 1.1//EN" "http://www.w3.org/Graphics/SVG/1.1/DTD/svg11.dtd">
<svg version="1.1" id="Layer_1" xmlns="http://www.w3.org/2000/svg" xmlns:xlink="http://www.w3.org/1999/xlink" x="0px" y="0px"
	 width="266.086px" height="142.493px" viewBox="0 0 266.086 142.493" enable-background="new 0 0 266.086 142.493"
	 xml:space="preserve">
<g>
	<g>
		<path fill="#FFFFFF" d="M261.175,4.058c-3.003-1.44-6.558-1.026-9.159,1.06c-10.807,8.687-30.258,8.682-41.047,0.004
			c-3.167-2.551-7.677-2.546-10.844-0.004c-10.801,8.686-30.262,8.682-41.046,0.004c-2.599-2.09-6.165-2.504-9.156-1.064
			c-3.001,1.436-4.914,4.472-4.914,7.8l-0.004,69.188c0,27.107,21.731,49.609,58.127,60.197c0.79,0.228,1.601,0.342,2.416,0.342
			s1.626-0.114,2.416-0.342c36.397-10.588,58.124-33.084,58.124-60.197V11.858C266.086,8.53,264.178,5.494,261.175,4.058z
			 M245.15,32.437c-0.047,0.034-0.086,0.066-0.116,0.091c-0.078,0.066-0.159,0.133-0.278,0.159c-1.04,0.227-1.846,0.864-2.699,1.539
			l-0.152,0.12c-0.598,0.472-1.191,0.949-1.785,1.426c-1.032,0.828-2.1,1.685-3.172,2.5l-0.061,0.046
			c-0.754,0.572-1.466,1.113-1.887,1.932c-0.073,0.144-0.148,0.344-0.093,0.486c0.038,0.097,0.146,0.178,0.319,0.24
			c0.58,0.206,1.164,0.37,1.782,0.545c0.265,0.075,0.53,0.15,0.798,0.228c0.077,0.023,0.144,0.077,0.18,0.149
			c0.039,0.071,0.046,0.156,0.02,0.234c-0.168,0.51-0.68,0.515-0.955,0.518l-0.142,0.001c-0.211,0-0.423-0.005-0.636-0.01
			c-0.504-0.013-1.004-0.015-1.383,0.023c-0.813,0.084-1.553,0.233-2.197,0.443c-0.305,0.099-0.512,0.278-0.598,0.516
			c-0.094,0.259-0.039,0.569,0.154,0.874c0.096,0.151,0.205,0.292,0.314,0.433c0.082,0.105,0.164,0.208,0.24,0.317
			c0.123,0.173,0.209,0.353,0.266,0.565c0.031,0.112-0.006,0.232-0.094,0.308c-0.088,0.075-0.213,0.092-0.318,0.045
			c-0.559-0.251-1.166-0.364-1.971-0.364c-0.26,0-0.522,0.012-0.783,0.026c-0.866,0.049-1.641,0.449-2.305,1.187
			c-0.136,0.151-0.096,0.346-0.059,0.449c0.088,0.25,0.35,0.531,0.732,0.593c0.43,0.07,0.879,0.102,1.313,0.134
			c0.376,0.028,0.753,0.055,1.126,0.105c0.416,0.056,0.814,0.196,1.124,0.396c0.285,0.183,0.431,0.454,0.392,0.723
			c-0.039,0.268-0.254,0.484-0.576,0.577c-0.403,0.116-0.823,0.141-1.229,0.165l-0.132,0.008c-0.006,0.001-0.061,0.002-0.066,0.002
			c-0.158,0-0.31-0.033-0.442-0.062c-0.058-0.013-0.114-0.025-0.171-0.034c-0.098-0.016-0.189-0.024-0.278-0.024
			c-0.212,0-0.502,0.048-0.683,0.276c-0.168,0.213-0.211,0.545-0.121,0.937c0.359,1.541,0.867,2.874,1.555,4.074
			c0.291,0.511,0.616,1.018,0.93,1.51l0.342,0.538c0.351,0.558,0.563,1.155-0.267,1.74c-0.147,0.104-0.269,0.289-0.397,0.484
			c-0.049,0.075-0.098,0.148-0.147,0.219c-0.079,0.11-0.317,0.446-0.755,0.446c-0.127,0-0.26-0.028-0.406-0.085
			c-1.21-0.469-2.581-0.999-3.941-1.46c-0.871-0.295-1.666-0.375-2.43-0.248c-0.479,0.08-0.972,0.509-0.943,1.019
			c0.045,0.78,0.106,1.605,0.316,2.366c0.266,0.962,0.566,1.936,0.857,2.877c0.357,1.155,0.727,2.351,1.037,3.543
			c0.496,1.91,0.848,3.831,1.164,5.634c0.104,0.588,0.098,1.189,0.09,1.771c-0.004,0.201-0.006,0.402-0.004,0.602
			c0.003,0.181-0.057,0.383-0.18,0.597c-0.527,0.937-0.666,2.005-0.451,3.465c0.022,0.149,0.037,0.371-0.021,0.582
			c-0.477,1.729-1.354,2.981-2.682,3.825c-1.215,0.775-1.838,1.646-1.961,2.742c-0.119,1.076-0.243,2.353-0.258,3.658
			c-0.02,1.852,0.004,3.854,0.076,6.305c0.025,0.879,0.088,1.772,0.15,2.637c0.035,0.511,0.072,1.021,0.102,1.531
			c0.021,0.363,0.029,0.729,0.038,1.095c0.019,0.71,0.035,1.444,0.147,2.142c0.087,0.549,0.35,1.102,0.604,1.637
			c0.061,0.129,0.122,0.258,0.182,0.387c0.117,0.256,0.267,0.497,0.425,0.754c0.118,0.191,0.237,0.385,0.344,0.584
			c0.142,0.264,0.161,0.491,0.058,0.675c-0.158,0.283-0.516,0.306-0.634,0.313c-0.259,0.016-0.517,0.058-0.79,0.101
			c-0.218,0.035-0.436,0.07-0.654,0.093c-0.276,0.028-0.573-0.009-0.783-0.041c-0.375-0.055-0.571-0.228-0.67-0.365
			c-0.094-0.131-0.195-0.359-0.135-0.709c0.063-0.375,0.119-0.705,0.244-1.021c0.17-0.424,0.143-0.54-0.189-0.827
			c-0.196-0.171-0.336-0.453-0.338-0.689c-0.006-0.373,0.049-0.695,0.162-0.959c0.317-0.748,0.224-1.471-0.031-2.393
			c-0.172-0.623-0.247-1.271-0.32-1.9c-0.037-0.314-0.072-0.629-0.121-0.941c-0.035-0.227-0.085-0.451-0.134-0.675
			c-0.042-0.188-0.083-0.378-0.117-0.568c-0.034-0.192-0.073-0.384-0.112-0.575c-0.104-0.509-0.213-1.033-0.224-1.563l-0.009-0.49
			c-0.018-1.112-0.034-2.164-0.309-3.217c-0.113-0.438-0.148-0.89-0.183-1.327c-0.017-0.213-0.034-0.425-0.06-0.636l-0.008-0.074
			c-0.013-0.106-0.027-0.239-0.063-0.289c-0.193-0.276-0.277-0.336-0.311-0.349c-0.023,0.01-0.174,0.105-0.313,0.273
			c-0.484,0.582-0.58,1.313-0.682,2.086l-0.014,0.109c-0.088,0.665-0.014,1.307,0.063,1.988c0.049,0.432,0.1,0.877,0.106,1.328
			c0.008,0.759-0.002,1.518-0.012,2.275c-0.006,0.446-0.012,0.893-0.014,1.338c-0.004,0.471,0.009,0.942,0.025,1.412l0.018,0.592
			c0.017,0.594,0.033,1.209,0.094,1.803c0.044,0.438,0.186,0.875,0.33,1.285c0.175,0.49,0.395,0.982,0.607,1.457
			c0.418,0.938,0.852,1.91,1.006,2.985c0.021,0.147,0.031,0.361-0.112,0.528c-0.103,0.121-0.259,0.182-0.463,0.183l-0.597,0.007
			c-0.28,0.004-0.562,0.01-0.842,0.01c-0.271,0-0.543-0.004-0.813-0.016c-0.288-0.011-0.646-0.382-0.646-0.672
			c-0.002-0.092-0.006-0.186-0.009-0.277c-0.022-0.525-0.047-1.119,0.497-1.627c0.053-0.05,0.139-0.145,0.127-0.236
			c-0.01-0.084-0.1-0.182-0.24-0.262c-0.55-0.313-0.479-0.724-0.369-1.084c0.201-0.66,0.201-1.291,0.004-1.929
			c-0.185-0.601-0.319-1.219-0.449-1.817l-0.122-0.558c-0.202-0.896-0.396-1.793-0.586-2.692c-0.036-0.168-0.07-0.369-0.046-0.567
			c0.146-1.269-0.189-2.452-0.545-3.706l-0.202-0.715c-0.294-1.021-0.597-2.078-0.466-3.217l0.054-0.442
			c0.062-0.481,0.123-0.978,0.121-1.457c-0.003-1.015-0.542-1.604-1.556-1.71c-1.547-0.159-3.056-0.479-4.326-0.771
			c-1.11-0.256-2.227-0.558-3.307-0.848c-0.658-0.178-1.316-0.355-1.978-0.523c-0.487-0.125-0.962-0.238-1.429-0.256
			c-0.957-0.039-1.75,0.223-2.369,0.795c-0.908,0.838-1.579,1.969-2.109,3.553c-0.768,2.297-2.078,4.318-3.354,6.193
			c-0.641,0.94-1.215,1.955-1.772,2.937l-0.335,0.589c-0.089,0.154-0.139,0.393-0.146,0.684c-0.078,3.045,0.812,5.928,2.643,8.566
			c0.063,0.09,0.141,0.172,0.219,0.255c0.255,0.272,0.604,0.644,0.485,1.276c-0.027,0.142-0.151,0.244-0.296,0.244h-2.93
			c-0.101,0-0.193-0.049-0.25-0.133c-0.056-0.082-0.066-0.188-0.029-0.281c0.039-0.096,0.072-0.182,0.103-0.264
			c0.067-0.184,0.128-0.34,0.207-0.484c0.192-0.352,0.183-0.627-0.036-0.92c-0.752-1.012-1.008-2.192-1.256-3.334l-0.046-0.213
			c-0.171-0.781-0.399-1.568-0.621-2.33c-0.19-0.655-0.387-1.332-0.549-2.01c-0.091-0.382-0.214-1.125-0.017-1.818l0.119-0.414
			c0.344-1.188,0.67-2.309,0.604-3.525c-0.022-0.421,0.047-0.837,0.114-1.238c0.031-0.187,0.062-0.371,0.082-0.557l0.025-0.184
			c0.024-0.161,0.047-0.313,0.024-0.434c-0.019-0.1-0.068-0.219-0.108-0.289c-0.102,0.026-0.218,0.096-0.25,0.148
			c-0.383,0.621-0.818,1.344-1.143,2.087c-0.359,0.821-0.979,1.39-1.525,1.89c-0.773,0.707-1.311,1.539-1.6,2.473
			c-0.067,0.219-0.059,0.482-0.047,0.762l0.007,0.227c0.002,0.155,0.02,0.311,0.036,0.467c0.021,0.185,0.039,0.367,0.041,0.551
			c0.017,2.808,0.506,5.18,1.494,7.252c0.144,0.302,0.342,0.581,0.553,0.877c0.152,0.215,0.305,0.43,0.439,0.654
			c0.146,0.246,0.245,0.619,0.141,0.894c-0.146,0.388-0.81,0.413-0.815,0.414c-0.292,0.009-0.583,0.011-0.875,0.011l-1.108-0.004
			l-0.307,0.001c-0.288,0-0.509-0.114-0.617-0.312c-0.1-0.184-0.082-0.412,0.049-0.612c0.498-0.772,0.276-1.481-0.004-2.38
			c-0.246-0.785-0.34-1.59-0.429-2.367c-0.03-0.264-0.062-0.529-0.097-0.791c-0.198-1.441-0.379-2.886-0.559-4.329
			c-0.113-0.911-0.22-1.823-0.313-2.737c-0.063-0.629,0.173-1.211,0.706-1.731c0.933-0.911,1.156-2.011,0.723-3.567
			c-0.145-0.521-0.234-0.945-0.287-1.334c-0.074-0.566-0.131-1.133-0.188-1.699c-0.028-0.285-0.057-0.569-0.088-0.855l-0.121-1.094
			c-0.073-0.658-0.147-1.317-0.213-1.977c-0.02-0.191-0.017-0.385-0.014-0.578c0.002-0.099,0.004-0.197,0.002-0.295
			c-0.006-0.305-0.019-0.611-0.031-0.918c-0.027-0.668-0.057-1.357-0.012-2.039l0.012-0.166c0.082-1.293,0.17-2.631,0.965-3.844
			c0.347-0.529,0.182-1.205-0.033-1.908c-0.148-0.482-0.469-0.843-0.982-1.1c-0.311-0.157-0.519-0.498-0.615-0.688
			c-0.736-1.44-1.219-2.906-1.434-4.354c-0.095-0.643,0.029-1.304,0.15-1.944c0.033-0.178,0.066-0.355,0.095-0.53
			c0.056-0.35,0.155-0.689,0.251-1.017c0.051-0.173,0.102-0.346,0.145-0.521c0.061-0.232,0.216-0.848,0.799-0.848
			c0.174,0,0.367,0.057,0.613,0.177c0.57,0.281,1.127,0.559,1.653,0.883c0.484,0.297,0.735,0.796,0.728,1.443
			c-0.004,0.24,0.004,0.482,0.01,0.723c0.013,0.474,0.025,0.964-0.032,1.449c-0.112,0.949,0.259,1.766,0.654,2.63
			c0.198,0.436,0.542,0.649,1.093,0.698c1.166,0.1,2.17-0.393,3.081-0.937c1.757-1.051,3.522-1.59,5.396-1.648
			c1.385-0.041,2.77,0.042,4.147,0.254c0.411,0.063,0.827,0.106,1.242,0.149c0.434,0.045,0.868,0.091,1.298,0.157
			c0.747,0.115,1.551,0.27,2.529,0.487c1.428,0.317,3.093,0.654,4.779,0.654l0.674-0.007c0.553-0.007,1.105-0.014,1.658,0.007
			c0.881,0.039,1.725-0.193,2.807-0.75c0.707-0.364,1.131-1.039,1.293-2.064c0.228-1.44,0.48-3.144,0.627-4.869
			c0.139-1.632,0.439-3.253,0.918-4.953c0.367-1.306,0.736-2.61,1.191-3.867c0.405-1.117,1.147-2.082,2.336-3.033
			c0.256-0.205,0.496-0.538,0.643-0.894c0.059-0.141,0.064-0.26,0.02-0.349c-0.054-0.106-0.188-0.192-0.379-0.24
			c-0.337-0.084-0.675-0.163-1.014-0.241c-0.245-0.057-0.489-0.112-0.732-0.171c-0.113-0.028-0.298-0.073-0.416-0.217
			c-0.154-0.184-0.295-0.378-0.438-0.571l-0.15-0.204c-0.052-0.069-0.07-0.157-0.053-0.242c0.02-0.085,0.072-0.157,0.146-0.199
			c0.086-0.048,0.174-0.112,0.262-0.175c0.226-0.163,0.482-0.348,0.773-0.348c0.836,0.053,1.633,0.166,2.403,0.278
			c0.3,0.043,0.601,0.086,0.899,0.125c0.089,0.011,0.178,0.027,0.266,0.042c0.407,0.071,0.73,0.092,0.949-0.148
			c0.152-0.166,0.208-0.439,0.141-0.696c-0.072-0.281-0.277-0.495-0.559-0.587c-0.678-0.223-1.405-0.469-2.115-0.762
			c-0.691-0.285-1.557-0.726-2.119-1.609c-0.129-0.202-0.186-0.405-0.18-0.659c0.002-0.104,0.057-0.199,0.145-0.252
			c0.09-0.054,0.2-0.058,0.291-0.011l0.159,0.078c0.126,0.061,0.252,0.123,0.373,0.193c0.198,0.113,0.394,0.23,0.589,0.346
			c0.344,0.205,0.688,0.41,1.042,0.597c0.22,0.115,0.425,0.174,0.606,0.174c0.51,0,0.725-0.471,0.816-0.866
			c0.153-0.661,0.168-1.246,0.045-1.838c-0.136-0.652-0.504-1.172-1.158-1.634c-0.672-0.475-1.401-0.901-2.106-1.315l-0.169-0.099
			c-0.586-0.345-0.799-0.836-0.63-1.459c0.028-0.101,0.104-0.18,0.205-0.21c0.1-0.029,0.208-0.005,0.286,0.064l0.187,0.166
			c0.138,0.121,0.265,0.233,0.384,0.352c0.075,0.075,0.145,0.156,0.213,0.237c0.09,0.109,0.178,0.213,0.271,0.279
			c0.083,0.059,0.162,0.091,0.228,0.091c0.168,0,0.287-0.228,0.33-0.326c0.279-0.629,0.063-1.092-0.436-1.727
			c-0.352-0.447-0.788-1.003-0.73-1.825c0.006-0.083,0.045-0.159,0.108-0.212c0.063-0.052,0.146-0.077,0.229-0.065
			c0.551,0.07,0.797,0.45,0.978,0.727c0.04,0.064,0.081,0.125,0.125,0.184c0.114,0.153,0.226,0.31,0.338,0.467
			c0.229,0.326,0.448,0.633,0.702,0.907c0.313,0.336,0.563,0.261,0.751-0.223c0.437-1.115,0.196-2.145-0.776-3.34
			c-0.56-0.686-1.051-1.566-0.462-2.889c0.05-0.111,0.163-0.177,0.28-0.178c0.121,0.002,0.229,0.076,0.273,0.189
			c0.045,0.115,0.09,0.217,0.131,0.31c0.086,0.196,0.16,0.365,0.203,0.555c0.181,0.816,0.567,1.228,1.254,1.336
			c0.144,0.023,0.306-0.008,0.324-0.02l0.305-0.211c0.679-0.464,1.318-0.904,1.718-1.623c0.235-0.427,0.509-0.837,0.772-1.232
			c0.297-0.446,0.604-0.908,0.85-1.382c0.172-0.332,0.264-0.711,0.363-1.113c0.064-0.265,0.129-0.529,0.218-0.784
			c0.083-0.243,0.213-0.455,0.338-0.661c0.051-0.085,0.103-0.169,0.149-0.255c0.069-0.126,0.22-0.186,0.356-0.141l0.228,0.075
			c0.138,0.044,0.224,0.18,0.207,0.322l-0.021,0.183c-0.016,0.133-0.031,0.266-0.051,0.399c-0.024,0.163-0.057,0.327-0.088,0.49
			c-0.064,0.33-0.125,0.642-0.119,0.946c0.012,0.6,0.271,0.603,0.388,0.599c0.123,0,0.279-0.039,0.451-0.113
			c0.839-0.359,1.679-0.717,2.521-1.072c0.188-0.079,0.371-0.077,0.608,0.007c0.09,0.032,0.16,0.105,0.188,0.196
			c0.027,0.091,0.01,0.191-0.047,0.267l-0.156,0.209c-0.129,0.175-0.258,0.349-0.396,0.515c-0.092,0.11-0.202,0.192-0.299,0.264
			l-0.075,0.056c-0.328,0.255-0.492,0.455-0.501,0.611c-0.008,0.16,0.144,0.387,0.464,0.694c0.184,0.177,0.327,0.543,0.33,0.752
			c0.004,0.147-0.055,0.236-0.103,0.285c-0.33,0.338-0.847,0.3-1.185-0.094c-0.031-0.036-0.068-0.067-0.102-0.1
			c-0.061-0.057-0.122-0.114-0.174-0.178c-0.355-0.444-0.774-0.651-1.32-0.651c-0.432,0-0.896,0.129-1.336,0.269
			c-0.877,0.279-1.477,0.943-1.732,1.919c-0.097,0.367-0.048,0.609,0.486,0.758c0.168,0.047,0.332,0.104,0.497,0.161l0.209,0.071
			c0.136,0.045,0.222,0.18,0.203,0.323l-0.015,0.119c-0.018,0.137-0.125,0.245-0.262,0.261c-0.16,0.02-0.32,0.043-0.48,0.066
			c-0.375,0.054-0.762,0.109-1.15,0.127c-0.378,0.017-0.654,0.134-0.951,0.401c-0.794,0.712-0.984,1.668-1.186,2.681
			c-0.031,0.157-0.063,0.314-0.096,0.471c-0.004,0.02-0.004,0.04-0.004,0.061c-0.004,0.084-0.008,0.198-0.074,0.311
			c-0.42,0.709-0.323,1.465-0.221,2.265c0.036,0.275,0.071,0.549,0.086,0.821c0.023,0.421,0.207,0.525,0.363,0.569
			c0.254,0.071,0.451-0.01,0.701-0.29c0.42-0.47,0.535-1.054,0.643-1.768c0.016-0.105,0.043-0.208,0.076-0.338l0.055-0.207
			c0.025-0.106,0.108-0.19,0.215-0.218c0.105-0.026,0.219,0.004,0.294,0.084c0.594,0.625,0.55,1.381,0.243,1.852
			c-0.457,0.705-0.618,1.483-0.791,2.308c-0.043,0.213-0.088,0.425-0.137,0.637c-0.027,0.112-0.056,0.225-0.084,0.338
			c-0.082,0.316-0.158,0.615-0.177,0.91c-0.015,0.221,0.245,0.754,0.702,1.264c0.391,0.435,0.814,0.725,1.081,0.738l0.112,0.002
			c0.467,0,1.109-0.145,1.515-0.553c0.252-0.254,0.377-0.577,0.375-0.963c-0.002-0.255,0.024-0.505,0.051-0.747
			c0.048-0.446,0.093-0.867-0.041-1.274l-0.045-0.137c-0.108-0.33-0.222-0.67-0.304-1.02c-0.045-0.186-0.047-0.368-0.049-0.544
			c0-0.068-0.002-0.138-0.004-0.206c-0.01-0.148,0.094-0.281,0.239-0.311l0.181-0.037c0.146-0.031,0.291,0.051,0.343,0.19
			l0.407,1.101c0.043,0.118,0.082,0.237,0.123,0.356c0.08,0.242,0.156,0.47,0.261,0.683c0.188,0.389,0.481,0.486,0.892,0.327
			c0.826-0.317,1.551-1.649,1.34-2.457c-0.055-0.204-0.261-0.458-0.58-0.715c-0.527-0.423-0.944-0.805-1.095-1.542
			c-0.062-0.297-0.243-0.589-0.437-0.898c-0.11-0.177-0.221-0.354-0.312-0.535c-0.075-0.151-0.112-0.311-0.143-0.451
			c-0.013-0.055-0.025-0.11-0.04-0.165c-0.038-0.138,0.027-0.285,0.156-0.349l0.185-0.091c0.13-0.066,0.288-0.027,0.375,0.091
			c0.052,0.07,0.104,0.139,0.159,0.208c0.129,0.166,0.258,0.333,0.365,0.513c0.136,0.228,0.263,0.462,0.39,0.696
			c0.208,0.384,0.405,0.746,0.642,1.087c0.129,0.188,0.252,0.284,0.365,0.284c0.085-0.001,0.237-0.049,0.482-0.279
			c0.324-0.306,0.414-0.698,0.518-1.15c0.041-0.181,0.082-0.361,0.139-0.536c0.043-0.13,0.088-0.26,0.133-0.39l0.058-0.166
			c0.048-0.141,0.19-0.225,0.339-0.198l0.143,0.026c0.149,0.027,0.254,0.162,0.244,0.314c-0.002,0.044-0.002,0.088-0.002,0.132
			c-0.002,0.123-0.002,0.263-0.045,0.404c-0.089,0.296-0.184,0.591-0.279,0.886c-0.15,0.464-0.307,0.943-0.432,1.418
			c-0.078,0.296-0.099,0.639-0.059,0.969c0.053,0.433,0.494,0.508,0.801,0.342c0.838-0.457,1.396-1.171,1.616-2.065
			c0.127-0.518,0.178-1.051,0.231-1.615c0.025-0.263,0.051-0.526,0.084-0.788l0.066-0.534c0.082-0.655,0.163-1.31,0.27-1.961
			c0.035-0.208,0.146-0.38,0.244-0.532c0.035-0.055,0.071-0.11,0.102-0.166c0.064-0.12,0.201-0.185,0.334-0.15l0.244,0.059
			c0.148,0.035,0.246,0.175,0.23,0.326c-0.02,0.176-0.035,0.352-0.052,0.528c-0.038,0.41-0.076,0.834-0.162,1.251l-0.024,0.12
			c-0.084,0.399-0.156,0.743,0.037,1.029c0.098,0.144,0.295,0.274,0.383,0.276l0.164,0.002c1.828,0,2.801-0.767,3.256-2.565
			c0.052-0.2,0.021-0.49-0.08-0.794c-0.297-0.878-0.375-1.623-0.248-2.343c0.027-0.154,0.092-0.288,0.147-0.405
			c0.022-0.044,0.044-0.088,0.062-0.133c0.053-0.128,0.185-0.202,0.322-0.182l0.184,0.029c0.146,0.022,0.255,0.148,0.255,0.297
			c0,0.145-0.004,0.29-0.008,0.435c-0.009,0.321-0.017,0.625,0.017,0.923c0.045,0.401,0.118,0.923,0.297,1.399
			c0.147,0.398,0.799,0.503,1.366,0.217c0.114-0.057,0.226-0.117,0.336-0.178c0.464-0.252,0.945-0.514,1.55-0.514l0.174,0.001
			l0.156-0.001c0.129,0,0.244,0.083,0.286,0.205C245.299,32.224,245.256,32.36,245.15,32.437z"/>
	</g>
</g>
<g>
	<g enable-background="new    ">
		<path fill="#FFFFFF" d="M70.203,20.778c-2.731,0-5.138,1.365-7.219,4.097l-6.146-5.658c3.056-4.617,7.934-6.926,14.633-6.926
			c10.08,0,15.121,5.919,15.121,17.754c0,1.821-0.098,3.528-0.293,5.121c-0.195,1.595-0.375,2.943-0.537,4.048
			c-0.163,1.107-0.537,2.261-1.122,3.463c-0.585,1.204-1.024,2.131-1.317,2.78c-0.292,0.65-0.927,1.529-1.902,2.634
			c-0.976,1.106-1.659,1.87-2.049,2.292c-0.39,0.423-1.253,1.285-2.585,2.584c-1.334,1.302-2.229,2.18-2.683,2.634
			c-2.407,2.407-4.048,4.683-4.926,6.829s-1.317,4.975-1.317,8.486v3.805h17.656v9.17H58.399V72.674
			c0-5.788,0.649-10.292,1.951-13.51c1.3-3.22,3.576-6.454,6.829-9.707c0.13-0.13,0.666-0.649,1.61-1.561
			c0.942-0.91,1.512-1.479,1.707-1.707c0.195-0.227,0.683-0.796,1.463-1.707c0.78-0.91,1.3-1.593,1.561-2.049
			c0.259-0.454,0.649-1.154,1.171-2.097c0.52-0.942,0.861-1.82,1.024-2.634c0.162-0.813,0.341-1.771,0.537-2.878
			c0.195-1.105,0.292-2.244,0.292-3.414c0-3.902-0.521-6.649-1.561-8.243C73.942,21.575,72.349,20.778,70.203,20.778z"/>
		<path fill="#FFFFFF" d="M106.296,20.778c-2.731,0-5.139,1.365-7.219,4.097l-6.146-5.658c3.056-4.617,7.934-6.926,14.632-6.926
			c10.08,0,15.121,5.919,15.121,17.754c0,1.821-0.098,3.528-0.293,5.121c-0.195,1.595-0.375,2.943-0.537,4.048
			c-0.163,1.107-0.536,2.261-1.121,3.463c-0.586,1.204-1.024,2.131-1.317,2.78c-0.293,0.65-0.927,1.529-1.902,2.634
			c-0.976,1.106-1.658,1.87-2.048,2.292c-0.391,0.423-1.253,1.285-2.586,2.584c-1.333,1.302-2.228,2.18-2.683,2.634
			c-2.406,2.407-4.048,4.683-4.926,6.829s-1.317,4.975-1.317,8.486v3.805h17.657v9.17H94.492V72.674
			c0-5.788,0.649-10.292,1.951-13.51c1.3-3.22,3.575-6.454,6.828-9.707c0.13-0.13,0.666-0.649,1.609-1.561
			c0.942-0.91,1.513-1.479,1.707-1.707c0.195-0.227,0.684-0.796,1.464-1.707c0.78-0.91,1.3-1.593,1.561-2.049
			c0.259-0.454,0.649-1.154,1.171-2.097c0.52-0.942,0.861-1.82,1.024-2.634c0.161-0.813,0.341-1.771,0.536-2.878
			c0.195-1.105,0.293-2.244,0.293-3.414c0-3.902-0.521-6.649-1.562-8.243C110.034,21.575,108.441,20.778,106.296,20.778z"/>
	</g>
	<g>
		<rect y="92.493" fill="none" width="126" height="50"/>
	</g>
	<g enable-background="new    ">
		<path fill="#FFFFFF" d="M49.328,93.862c-0.114,0.006-0.246,0.031-0.396,0.078c-0.15,0.049-0.29,0.111-0.417,0.189
			c-0.16,0.1-0.288,0.215-0.386,0.344c-0.098,0.131-0.184,0.313-0.256,0.545c-0.324,1.053-0.7,2.281-1.128,3.688
			s-0.891,2.904-1.388,4.494h-0.629l-2.449-7.471l-2.546,7.471h-0.604c-0.451-1.594-0.918-3.25-1.401-4.967
			c-0.483-1.715-0.807-2.865-0.971-3.447c-0.041-0.143-0.102-0.268-0.181-0.377s-0.188-0.209-0.325-0.301
			c-0.114-0.076-0.247-0.135-0.4-0.174s-0.291-0.063-0.414-0.072v-0.484h3.954v0.484c-0.347,0.02-0.642,0.053-0.885,0.104
			c-0.244,0.049-0.365,0.135-0.365,0.252c0,0.047,0.006,0.105,0.02,0.182c0.014,0.074,0.025,0.135,0.034,0.182
			c0.105,0.4,0.29,1.064,0.557,1.988c0.266,0.926,0.661,2.311,1.185,4.156l2.421-7.211h0.669l2.443,7.365
			c0.329-1.133,0.613-2.123,0.851-2.969c0.237-0.848,0.434-1.572,0.59-2.174c0.109-0.426,0.178-0.717,0.205-0.873
			c0.027-0.158,0.041-0.291,0.041-0.4c0-0.154-0.106-0.285-0.318-0.389c-0.212-0.105-0.555-0.176-1.028-0.213v-0.484h3.518V93.862z"
			/>
		<path fill="#FFFFFF" d="M52.883,103.077h-3.254v-0.451c0.105-0.008,0.213-0.018,0.325-0.027c0.112-0.008,0.208-0.027,0.291-0.055
			c0.127-0.041,0.222-0.111,0.284-0.215c0.062-0.102,0.092-0.234,0.092-0.398v-4.158c0-0.146-0.033-0.279-0.099-0.4
			s-0.158-0.221-0.277-0.303c-0.086-0.055-0.212-0.102-0.376-0.141s-0.314-0.063-0.451-0.072v-0.451l2.379-0.15l0.096,0.096v5.496
			c0,0.16,0.031,0.293,0.092,0.396c0.061,0.105,0.157,0.184,0.289,0.232c0.099,0.041,0.197,0.074,0.292,0.1
			c0.095,0.025,0.202,0.043,0.319,0.051V103.077z M52.028,93.596c0,0.26-0.085,0.486-0.256,0.68s-0.382,0.291-0.632,0.291
			c-0.232,0-0.434-0.094-0.605-0.277c-0.171-0.186-0.256-0.395-0.256-0.633c0-0.25,0.085-0.469,0.256-0.656
			c0.171-0.186,0.373-0.279,0.605-0.279c0.26,0,0.473,0.088,0.639,0.262C51.945,93.159,52.028,93.364,52.028,93.596z"/>
		<path fill="#FFFFFF" d="M56.875,103.077h-3.288v-0.451c0.105-0.008,0.216-0.02,0.335-0.031c0.119-0.01,0.216-0.027,0.294-0.051
			c0.127-0.041,0.223-0.113,0.287-0.215c0.064-0.104,0.096-0.236,0.096-0.4v-7.813c0-0.164-0.035-0.318-0.106-0.461
			c-0.071-0.145-0.163-0.258-0.277-0.34c-0.082-0.055-0.232-0.104-0.451-0.15c-0.219-0.045-0.394-0.072-0.526-0.082v-0.438
			l2.536-0.15l0.096,0.104v9.248c0,0.16,0.03,0.291,0.089,0.393c0.059,0.104,0.155,0.182,0.287,0.236
			c0.1,0.047,0.199,0.08,0.297,0.104c0.098,0.021,0.208,0.039,0.332,0.047V103.077z"/>
		<path fill="#FFFFFF" d="M65.105,102.954l-2.358,0.15l-0.103-0.096v-0.629l-0.055-0.014c-0.237,0.266-0.529,0.48-0.877,0.65
			c-0.349,0.168-0.707,0.252-1.075,0.252c-0.382,0-0.752-0.086-1.109-0.256c-0.357-0.172-0.668-0.412-0.932-0.721
			c-0.269-0.314-0.481-0.693-0.639-1.135c-0.157-0.443-0.235-0.93-0.235-1.463c0-0.488,0.084-0.951,0.252-1.389
			s0.4-0.82,0.696-1.148c0.278-0.305,0.618-0.549,1.021-0.73c0.403-0.184,0.813-0.273,1.232-0.273c0.314,0,0.622,0.039,0.925,0.119
			s0.563,0.182,0.782,0.305v-2.35c0-0.191-0.032-0.367-0.096-0.523c-0.064-0.158-0.153-0.277-0.267-0.359
			c-0.127-0.088-0.3-0.15-0.516-0.189s-0.45-0.066-0.701-0.086v-0.424l2.762-0.15l0.103,0.104v9.086
			c0,0.158,0.031,0.295,0.092,0.406s0.151,0.205,0.27,0.283c0.086,0.055,0.212,0.088,0.376,0.102s0.314,0.023,0.451,0.027V102.954z
			 M62.631,101.772v-3.945c-0.037-0.117-0.096-0.246-0.177-0.383c-0.082-0.137-0.184-0.262-0.307-0.375
			c-0.132-0.115-0.287-0.209-0.464-0.285c-0.178-0.074-0.384-0.111-0.621-0.111c-0.273,0-0.524,0.07-0.754,0.211
			c-0.229,0.143-0.433,0.344-0.61,0.609c-0.168,0.254-0.301,0.58-0.399,0.973c-0.098,0.395-0.146,0.832-0.146,1.311
			c0,0.383,0.036,0.73,0.109,1.041c0.073,0.313,0.195,0.604,0.368,0.873c0.159,0.254,0.363,0.459,0.611,0.615
			c0.248,0.154,0.542,0.232,0.883,0.232c0.364,0,0.665-0.08,0.904-0.24C62.266,102.139,62.467,101.963,62.631,101.772z"/>
		<path fill="#FFFFFF" d="M68.92,103.077h-3.288v-0.451c0.105-0.008,0.216-0.02,0.335-0.031c0.119-0.01,0.216-0.027,0.294-0.051
			c0.127-0.041,0.223-0.113,0.287-0.215c0.064-0.104,0.096-0.236,0.096-0.4v-7.813c0-0.164-0.035-0.318-0.106-0.461
			c-0.071-0.145-0.163-0.258-0.277-0.34c-0.082-0.055-0.232-0.104-0.451-0.15c-0.219-0.045-0.394-0.072-0.526-0.082v-0.438
			l2.536-0.15l0.096,0.104v9.248c0,0.16,0.03,0.291,0.089,0.393c0.059,0.104,0.154,0.182,0.287,0.236
			c0.101,0.047,0.199,0.08,0.297,0.104c0.099,0.021,0.209,0.039,0.332,0.047V103.077z"/>
		<path fill="#FFFFFF" d="M73.035,103.077h-3.254v-0.451c0.104-0.008,0.213-0.018,0.324-0.027c0.112-0.008,0.209-0.027,0.291-0.055
			c0.128-0.041,0.223-0.111,0.283-0.215c0.063-0.102,0.093-0.234,0.093-0.398v-4.158c0-0.146-0.033-0.279-0.099-0.4
			c-0.066-0.121-0.159-0.221-0.277-0.303c-0.087-0.055-0.212-0.102-0.376-0.141s-0.314-0.063-0.451-0.072v-0.451l2.379-0.15
			l0.096,0.096v5.496c0,0.16,0.03,0.293,0.092,0.396c0.061,0.105,0.157,0.184,0.288,0.232c0.1,0.041,0.197,0.074,0.292,0.1
			c0.096,0.025,0.201,0.043,0.319,0.051V103.077z M72.181,93.596c0,0.26-0.085,0.486-0.257,0.68
			c-0.17,0.193-0.381,0.291-0.632,0.291c-0.232,0-0.435-0.094-0.604-0.277c-0.172-0.186-0.257-0.395-0.257-0.633
			c0-0.25,0.085-0.469,0.257-0.656c0.17-0.186,0.372-0.279,0.604-0.279c0.26,0,0.473,0.088,0.64,0.262
			C72.098,93.159,72.181,93.364,72.181,93.596z"/>
		<path fill="#FFFFFF" d="M78.887,93.315c0,0.205-0.055,0.379-0.164,0.52c-0.109,0.143-0.275,0.213-0.499,0.213
			c-0.142,0-0.266-0.029-0.372-0.09c-0.107-0.059-0.207-0.139-0.298-0.238c-0.091-0.102-0.176-0.215-0.253-0.342
			c-0.077-0.129-0.144-0.23-0.198-0.309c-0.306,0.014-0.541,0.227-0.708,0.639c-0.166,0.412-0.249,1.066-0.249,1.967v0.689h1.736
			v0.656h-1.736v4.84c0,0.16,0.03,0.289,0.093,0.391c0.061,0.1,0.158,0.176,0.29,0.225c0.109,0.041,0.255,0.074,0.438,0.1
			s0.34,0.043,0.472,0.051v0.451h-3.555v-0.451c0.104-0.008,0.213-0.018,0.324-0.027c0.112-0.008,0.209-0.027,0.291-0.055
			c0.128-0.041,0.223-0.113,0.283-0.215c0.063-0.104,0.093-0.236,0.093-0.4V97.02h-1.333v-0.656h1.333v-0.43
			c0-1.023,0.266-1.852,0.796-2.486c0.531-0.635,1.195-0.953,1.993-0.953c0.405,0,0.711,0.08,0.916,0.24
			C78.784,92.893,78.887,93.088,78.887,93.315z"/>
		<path fill="#FFFFFF" d="M84.41,101.491c-0.282,0.539-0.661,0.967-1.135,1.285c-0.474,0.32-1.019,0.479-1.634,0.479
			c-0.542,0-1.018-0.096-1.425-0.287c-0.408-0.191-0.744-0.451-1.009-0.779s-0.462-0.711-0.591-1.148
			c-0.131-0.438-0.195-0.9-0.195-1.387c0-0.438,0.069-0.867,0.209-1.289c0.139-0.422,0.343-0.801,0.611-1.139
			c0.26-0.322,0.582-0.584,0.967-0.783c0.386-0.197,0.817-0.297,1.296-0.297c0.492,0,0.914,0.078,1.265,0.232
			c0.351,0.156,0.636,0.367,0.854,0.637c0.21,0.254,0.366,0.555,0.468,0.902c0.104,0.346,0.154,0.723,0.154,1.127v0.451h-4.464
			c0,0.443,0.042,0.846,0.126,1.207c0.085,0.359,0.218,0.678,0.4,0.951c0.178,0.266,0.41,0.475,0.697,0.627
			c0.287,0.154,0.629,0.23,1.025,0.23c0.405,0,0.756-0.096,1.049-0.285c0.295-0.191,0.578-0.533,0.852-1.027L84.41,101.491z
			 M82.899,98.92c0-0.254-0.021-0.527-0.065-0.816c-0.043-0.291-0.112-0.535-0.208-0.73c-0.104-0.209-0.248-0.379-0.431-0.512
			c-0.183-0.131-0.417-0.197-0.704-0.197c-0.479,0-0.876,0.199-1.192,0.598c-0.317,0.396-0.489,0.949-0.517,1.658H82.899z"/>
		<path fill="#FFFFFF" d="M93.013,103.309c-0.578,0-1.133-0.113-1.663-0.342s-1.001-0.557-1.41-0.984
			c-0.405-0.43-0.729-0.953-0.97-1.57c-0.242-0.617-0.362-1.314-0.362-2.09s0.118-1.479,0.355-2.109
			c0.236-0.633,0.564-1.176,0.983-1.633c0.414-0.451,0.903-0.799,1.468-1.047c0.564-0.246,1.168-0.369,1.811-0.369
			c0.478,0,0.91,0.061,1.297,0.178c0.388,0.119,0.756,0.285,1.106,0.5l0.28-0.465h0.547l0.062,3.459h-0.561
			c-0.073-0.338-0.182-0.703-0.328-1.098c-0.146-0.395-0.316-0.729-0.512-1.002c-0.219-0.309-0.478-0.553-0.778-0.729
			c-0.301-0.174-0.645-0.262-1.031-0.262c-0.441,0-0.853,0.098-1.232,0.293c-0.38,0.197-0.709,0.486-0.986,0.869
			c-0.264,0.369-0.472,0.84-0.621,1.41c-0.15,0.57-0.226,1.205-0.226,1.908c0,0.621,0.078,1.189,0.235,1.707
			s0.382,0.973,0.673,1.365c0.291,0.387,0.636,0.691,1.034,0.91s0.844,0.328,1.335,0.328c0.369,0,0.708-0.059,1.018-0.176
			c0.31-0.115,0.578-0.27,0.806-0.461c0.228-0.199,0.428-0.428,0.601-0.684c0.174-0.254,0.314-0.533,0.424-0.834l0.513,0.246
			c-0.392,0.963-0.911,1.648-1.558,2.061C94.675,103.104,93.905,103.309,93.013,103.309z"/>
		<path fill="#FFFFFF" d="M102.717,97.206c0,0.232-0.057,0.438-0.171,0.617c-0.114,0.182-0.289,0.271-0.526,0.271
			c-0.255,0-0.45-0.066-0.585-0.199c-0.134-0.131-0.201-0.277-0.201-0.438c0-0.1,0.008-0.191,0.023-0.273
			c0.017-0.082,0.031-0.164,0.045-0.246c-0.214,0-0.465,0.088-0.752,0.26c-0.287,0.174-0.531,0.42-0.731,0.738v3.924
			c0,0.16,0.03,0.289,0.093,0.391c0.061,0.1,0.158,0.176,0.29,0.225c0.114,0.047,0.261,0.08,0.44,0.104
			c0.181,0.021,0.337,0.039,0.469,0.047v0.451h-3.555v-0.451c0.104-0.008,0.213-0.018,0.324-0.027
			c0.112-0.008,0.209-0.027,0.291-0.055c0.128-0.041,0.223-0.111,0.283-0.215c0.063-0.102,0.093-0.234,0.093-0.398v-4.158
			c0-0.143-0.033-0.281-0.099-0.418c-0.066-0.135-0.159-0.244-0.277-0.326c-0.087-0.055-0.189-0.096-0.308-0.121
			c-0.118-0.023-0.246-0.041-0.383-0.051v-0.451l2.242-0.15l0.096,0.096v0.951h0.034c0.282-0.369,0.597-0.65,0.943-0.842
			s0.663-0.287,0.95-0.287s0.521,0.094,0.7,0.281C102.627,96.639,102.717,96.891,102.717,97.206z"/>
		<path fill="#FFFFFF" d="M106.559,103.077h-3.254v-0.451c0.104-0.008,0.213-0.018,0.324-0.027c0.112-0.008,0.209-0.027,0.291-0.055
			c0.128-0.041,0.223-0.111,0.283-0.215c0.063-0.102,0.093-0.234,0.093-0.398v-4.158c0-0.146-0.033-0.279-0.099-0.4
			c-0.066-0.121-0.159-0.221-0.277-0.303c-0.087-0.055-0.212-0.102-0.376-0.141s-0.314-0.063-0.451-0.072v-0.451l2.379-0.15
			l0.096,0.096v5.496c0,0.16,0.03,0.293,0.092,0.396c0.061,0.105,0.157,0.184,0.288,0.232c0.1,0.041,0.197,0.074,0.292,0.1
			c0.096,0.025,0.201,0.043,0.319,0.051V103.077z M105.704,93.596c0,0.26-0.085,0.486-0.257,0.68
			c-0.17,0.193-0.381,0.291-0.632,0.291c-0.232,0-0.435-0.094-0.604-0.277c-0.172-0.186-0.257-0.395-0.257-0.633
			c0-0.25,0.085-0.469,0.257-0.656c0.17-0.186,0.372-0.279,0.604-0.279c0.26,0,0.473,0.088,0.64,0.262
			C105.621,93.159,105.704,93.364,105.704,93.596z"/>
		<path fill="#FFFFFF" d="M118.925,103.077h-3.281v-0.451c0.104-0.008,0.211-0.018,0.317-0.027c0.107-0.008,0.202-0.027,0.284-0.055
			c0.128-0.041,0.222-0.113,0.284-0.215c0.061-0.104,0.092-0.236,0.092-0.4V98.45c0-0.475-0.108-0.84-0.324-1.098
			c-0.217-0.258-0.487-0.387-0.811-0.387c-0.224,0-0.433,0.035-0.629,0.104s-0.376,0.164-0.54,0.287
			c-0.132,0.1-0.243,0.207-0.331,0.324c-0.09,0.115-0.156,0.213-0.202,0.291v3.889c0,0.16,0.027,0.291,0.082,0.393
			c0.055,0.104,0.148,0.182,0.28,0.236c0.104,0.041,0.199,0.072,0.283,0.092c0.085,0.021,0.195,0.037,0.332,0.045v0.451h-3.213
			v-0.451c0.104-0.008,0.206-0.018,0.305-0.027c0.098-0.008,0.188-0.027,0.27-0.055c0.128-0.041,0.223-0.113,0.283-0.215
			c0.063-0.104,0.093-0.236,0.093-0.4V98.45c0-0.475-0.108-0.84-0.325-1.098c-0.218-0.258-0.488-0.387-0.813-0.387
			c-0.224,0-0.434,0.035-0.63,0.105c-0.197,0.072-0.377,0.168-0.542,0.291c-0.132,0.102-0.244,0.213-0.335,0.338
			c-0.092,0.127-0.16,0.221-0.206,0.285v3.861c0,0.156,0.032,0.285,0.096,0.391c0.063,0.104,0.159,0.184,0.287,0.238
			c0.096,0.047,0.193,0.08,0.294,0.104c0.101,0.021,0.212,0.039,0.335,0.047v0.451h-3.274v-0.451
			c0.104-0.008,0.213-0.018,0.325-0.027c0.111-0.008,0.208-0.027,0.29-0.055c0.128-0.041,0.222-0.111,0.284-0.215
			c0.061-0.102,0.092-0.234,0.092-0.398v-4.186c0-0.146-0.033-0.277-0.1-0.393c-0.065-0.117-0.158-0.215-0.276-0.297
			c-0.087-0.055-0.193-0.1-0.321-0.135c-0.128-0.033-0.26-0.055-0.396-0.064v-0.451l2.256-0.15l0.096,0.096v0.965h0.048
			c0.114-0.115,0.253-0.248,0.417-0.404c0.164-0.154,0.316-0.279,0.458-0.375c0.159-0.109,0.358-0.201,0.599-0.273
			c0.238-0.074,0.497-0.109,0.775-0.109c0.438,0,0.813,0.117,1.128,0.352s0.54,0.518,0.677,0.852
			c0.164-0.16,0.309-0.301,0.434-0.422c0.125-0.119,0.29-0.248,0.494-0.385c0.173-0.119,0.377-0.215,0.611-0.287
			c0.234-0.074,0.494-0.109,0.781-0.109c0.568,0,1.02,0.186,1.352,0.561c0.332,0.373,0.498,0.947,0.498,1.723v3.424
			c0,0.16,0.027,0.291,0.082,0.393c0.055,0.104,0.148,0.182,0.28,0.236c0.104,0.041,0.208,0.072,0.312,0.092
			c0.102,0.021,0.217,0.037,0.345,0.045V103.077z"/>
		<path fill="#FFFFFF" d="M125.713,101.491c-0.282,0.539-0.661,0.967-1.135,1.285c-0.474,0.32-1.019,0.479-1.634,0.479
			c-0.542,0-1.018-0.096-1.425-0.287c-0.408-0.191-0.744-0.451-1.009-0.779s-0.462-0.711-0.591-1.148
			c-0.131-0.438-0.195-0.9-0.195-1.387c0-0.438,0.069-0.867,0.209-1.289c0.139-0.422,0.343-0.801,0.611-1.139
			c0.26-0.322,0.582-0.584,0.967-0.783c0.386-0.197,0.817-0.297,1.296-0.297c0.492,0,0.914,0.078,1.265,0.232
			c0.351,0.156,0.636,0.367,0.854,0.637c0.21,0.254,0.366,0.555,0.468,0.902c0.104,0.346,0.154,0.723,0.154,1.127v0.451h-4.464
			c0,0.443,0.042,0.846,0.126,1.207c0.085,0.359,0.218,0.678,0.4,0.951c0.178,0.266,0.41,0.475,0.697,0.627
			c0.287,0.154,0.629,0.23,1.025,0.23c0.405,0,0.756-0.096,1.049-0.285c0.295-0.191,0.578-0.533,0.852-1.027L125.713,101.491z
			 M124.202,98.92c0-0.254-0.021-0.527-0.065-0.816c-0.043-0.291-0.112-0.535-0.208-0.73c-0.104-0.209-0.248-0.379-0.431-0.512
			c-0.183-0.131-0.417-0.197-0.704-0.197c-0.479,0-0.876,0.199-1.192,0.598c-0.317,0.396-0.489,0.949-0.517,1.658H124.202z"/>
	</g>
	<g enable-background="new    ">
		<path fill="#FFFFFF" d="M35.817,120.11c-0.579,0-1.133-0.115-1.664-0.342c-0.53-0.229-1-0.557-1.41-0.986
			c-0.405-0.428-0.729-0.951-0.97-1.568c-0.241-0.619-0.362-1.316-0.362-2.09c0-0.775,0.118-1.48,0.355-2.111
			s0.564-1.176,0.983-1.631c0.415-0.451,0.904-0.801,1.469-1.047c0.564-0.246,1.167-0.369,1.81-0.369
			c0.478,0,0.911,0.059,1.298,0.178c0.387,0.117,0.755,0.285,1.106,0.498l0.28-0.465h0.547l0.062,3.459H38.76
			c-0.073-0.336-0.182-0.703-0.328-1.096c-0.146-0.395-0.316-0.729-0.512-1.002c-0.219-0.311-0.478-0.553-0.778-0.729
			s-0.644-0.264-1.031-0.264c-0.442,0-0.853,0.098-1.233,0.295c-0.38,0.195-0.708,0.486-0.986,0.869
			c-0.264,0.369-0.471,0.838-0.622,1.408c-0.15,0.57-0.225,1.207-0.225,1.91c0,0.619,0.079,1.188,0.235,1.705
			c0.157,0.52,0.381,0.973,0.673,1.365c0.292,0.389,0.636,0.691,1.034,0.91c0.398,0.219,0.843,0.328,1.335,0.328
			c0.369,0,0.708-0.057,1.017-0.174c0.31-0.115,0.578-0.27,0.806-0.461c0.228-0.201,0.428-0.43,0.601-0.684
			c0.173-0.256,0.314-0.533,0.423-0.834l0.513,0.246c-0.392,0.961-0.911,1.648-1.557,2.061
			C37.479,119.903,36.709,120.11,35.817,120.11z"/>
		<path fill="#FFFFFF" d="M46.936,116.438c0,0.475-0.075,0.941-0.226,1.398c-0.151,0.459-0.365,0.846-0.644,1.166
			c-0.315,0.363-0.68,0.635-1.095,0.813s-0.881,0.268-1.396,0.268c-0.429,0-0.837-0.082-1.225-0.242
			c-0.388-0.162-0.732-0.398-1.033-0.709c-0.296-0.305-0.533-0.678-0.708-1.117c-0.175-0.439-0.263-0.934-0.263-1.48
			c0-1.053,0.307-1.914,0.92-2.584c0.613-0.67,1.417-1.004,2.412-1.004c0.944,0,1.723,0.318,2.337,0.953
			C46.629,114.536,46.936,115.381,46.936,116.438z M45.521,116.452c0-0.342-0.034-0.703-0.103-1.082
			c-0.069-0.381-0.171-0.703-0.309-0.969c-0.146-0.281-0.338-0.508-0.575-0.68c-0.237-0.17-0.527-0.256-0.87-0.256
			c-0.352,0-0.652,0.086-0.9,0.26c-0.249,0.172-0.451,0.41-0.606,0.711c-0.146,0.277-0.249,0.594-0.309,0.949
			c-0.059,0.355-0.089,0.699-0.089,1.033c0,0.438,0.035,0.842,0.106,1.213s0.184,0.703,0.339,0.994
			c0.155,0.293,0.35,0.521,0.585,0.688c0.235,0.166,0.526,0.25,0.873,0.25c0.571,0,1.023-0.275,1.356-0.828
			C45.354,118.184,45.521,117.422,45.521,116.452z"/>
		<path fill="#FFFFFF" d="M55.351,119.877h-3.295v-0.451c0.105-0.01,0.22-0.02,0.345-0.027c0.125-0.01,0.229-0.027,0.311-0.055
			c0.127-0.041,0.222-0.113,0.284-0.215c0.062-0.104,0.092-0.236,0.092-0.4v-3.467c0-0.479-0.113-0.848-0.339-1.107
			s-0.501-0.389-0.826-0.389c-0.242,0-0.463,0.037-0.665,0.113c-0.201,0.074-0.379,0.166-0.534,0.275
			c-0.151,0.105-0.271,0.219-0.36,0.34c-0.089,0.119-0.154,0.217-0.195,0.289v3.877c0,0.154,0.032,0.281,0.096,0.383
			c0.064,0.1,0.16,0.178,0.287,0.232c0.096,0.045,0.199,0.08,0.311,0.102c0.112,0.023,0.227,0.039,0.345,0.049v0.451h-3.302v-0.451
			c0.105-0.01,0.213-0.02,0.325-0.027c0.112-0.01,0.208-0.027,0.291-0.055c0.127-0.041,0.222-0.113,0.284-0.215
			c0.062-0.104,0.092-0.236,0.092-0.4v-4.158c0-0.154-0.033-0.297-0.099-0.426c-0.066-0.131-0.158-0.236-0.277-0.318
			c-0.086-0.055-0.189-0.094-0.308-0.119s-0.246-0.043-0.383-0.051v-0.451l2.242-0.15l0.096,0.096v0.949h0.034
			c0.109-0.109,0.246-0.24,0.41-0.393s0.319-0.277,0.465-0.373c0.168-0.109,0.369-0.199,0.602-0.273
			c0.232-0.072,0.495-0.109,0.786-0.109c0.647,0,1.127,0.203,1.439,0.605c0.312,0.404,0.468,0.939,0.468,1.609v3.508
			c0,0.158,0.027,0.287,0.082,0.387c0.055,0.098,0.148,0.174,0.28,0.229c0.109,0.045,0.204,0.076,0.284,0.096
			c0.08,0.018,0.19,0.031,0.332,0.041V119.877z"/>
		<path fill="#FFFFFF" d="M60.341,119.583c-0.296,0.123-0.577,0.227-0.841,0.313c-0.264,0.084-0.588,0.125-0.971,0.125
			c-0.565,0-0.963-0.143-1.193-0.426c-0.23-0.285-0.345-0.688-0.345-1.207v-4.566h-1.217v-0.656h1.244v-2.1h1.244v2.1h1.935v0.656
			h-1.921v3.766c0,0.283,0.01,0.52,0.031,0.709c0.021,0.188,0.069,0.354,0.147,0.494c0.073,0.133,0.182,0.232,0.328,0.301
			s0.342,0.104,0.588,0.104c0.114,0,0.281-0.01,0.502-0.031c0.221-0.02,0.377-0.047,0.468-0.078V119.583z"/>
		<path fill="#FFFFFF" d="M66.172,114.004c0,0.232-0.057,0.439-0.171,0.619s-0.289,0.27-0.526,0.27c-0.255,0-0.45-0.066-0.585-0.197
			c-0.134-0.133-0.201-0.279-0.201-0.438c0-0.102,0.008-0.191,0.023-0.273c0.017-0.082,0.031-0.164,0.045-0.246
			c-0.214,0-0.465,0.086-0.752,0.26c-0.287,0.172-0.531,0.418-0.731,0.738v3.924c0,0.158,0.03,0.289,0.093,0.389
			c0.061,0.102,0.158,0.176,0.29,0.227c0.114,0.045,0.261,0.08,0.44,0.102c0.181,0.023,0.337,0.039,0.469,0.049v0.451h-3.555v-0.451
			c0.105-0.01,0.213-0.02,0.325-0.027c0.112-0.01,0.208-0.027,0.291-0.055c0.127-0.041,0.222-0.113,0.284-0.215
			c0.062-0.104,0.092-0.236,0.092-0.4v-4.158c0-0.141-0.033-0.279-0.099-0.416s-0.158-0.246-0.277-0.328
			c-0.086-0.055-0.189-0.094-0.308-0.119s-0.246-0.043-0.383-0.051v-0.451l2.242-0.15l0.096,0.096v0.949h0.034
			c0.282-0.369,0.597-0.648,0.943-0.84s0.663-0.287,0.95-0.287s0.521,0.094,0.7,0.279C66.082,113.44,66.172,113.69,66.172,114.004z"
			/>
		<path fill="#FFFFFF" d="M73.322,116.438c0,0.475-0.075,0.941-0.226,1.398c-0.15,0.459-0.365,0.846-0.644,1.166
			c-0.314,0.363-0.68,0.635-1.095,0.813s-0.881,0.268-1.396,0.268c-0.429,0-0.837-0.082-1.225-0.242
			c-0.388-0.162-0.732-0.398-1.033-0.709c-0.297-0.305-0.532-0.678-0.708-1.117s-0.264-0.934-0.264-1.48
			c0-1.053,0.307-1.914,0.92-2.584c0.614-0.67,1.418-1.004,2.412-1.004c0.944,0,1.724,0.318,2.338,0.953
			C73.016,114.536,73.322,115.381,73.322,116.438z M71.907,116.452c0-0.342-0.034-0.703-0.103-1.082
			c-0.068-0.381-0.172-0.703-0.309-0.969c-0.146-0.281-0.338-0.508-0.575-0.68c-0.237-0.17-0.527-0.256-0.87-0.256
			c-0.352,0-0.651,0.086-0.9,0.26c-0.248,0.172-0.45,0.41-0.605,0.711c-0.146,0.277-0.249,0.594-0.309,0.949
			s-0.089,0.699-0.089,1.033c0,0.438,0.035,0.842,0.106,1.213c0.07,0.371,0.184,0.703,0.339,0.994
			c0.155,0.293,0.351,0.521,0.585,0.688c0.235,0.166,0.526,0.25,0.873,0.25c0.571,0,1.023-0.275,1.356-0.828
			C71.74,118.184,71.907,117.422,71.907,116.452z"/>
		<path fill="#FFFFFF" d="M77.451,119.877h-3.288v-0.451c0.104-0.01,0.217-0.02,0.335-0.031s0.217-0.029,0.294-0.051
			c0.128-0.041,0.224-0.113,0.287-0.217c0.063-0.102,0.096-0.234,0.096-0.4v-7.811c0-0.164-0.035-0.318-0.106-0.463
			c-0.07-0.143-0.162-0.256-0.276-0.338c-0.082-0.055-0.232-0.105-0.451-0.15c-0.219-0.047-0.395-0.074-0.526-0.082v-0.438
			l2.536-0.15l0.096,0.102v9.25c0,0.158,0.029,0.291,0.089,0.393c0.06,0.104,0.155,0.182,0.287,0.236
			c0.101,0.045,0.199,0.08,0.297,0.102c0.099,0.023,0.209,0.039,0.332,0.049V119.877z"/>
		<path fill="#FFFFFF" d="M88.73,115.358c0.282,0.191,0.518,0.443,0.704,0.752c0.187,0.311,0.28,0.686,0.28,1.129
			c0,0.451-0.098,0.842-0.294,1.176c-0.196,0.332-0.451,0.605-0.766,0.82c-0.306,0.209-0.65,0.369-1.036,0.479
			c-0.385,0.109-0.782,0.164-1.192,0.164h-4.594v-0.486c0.109-0.008,0.269-0.027,0.479-0.057c0.21-0.031,0.36-0.066,0.451-0.107
			c0.142-0.063,0.241-0.148,0.301-0.256s0.089-0.244,0.089-0.414v-6.973c0-0.154-0.026-0.291-0.078-0.41
			c-0.053-0.117-0.156-0.213-0.312-0.287c-0.137-0.068-0.289-0.121-0.458-0.156c-0.169-0.037-0.31-0.061-0.424-0.068v-0.486h4.478
			c0.347,0,0.678,0.035,0.995,0.104c0.316,0.068,0.618,0.189,0.905,0.361c0.269,0.16,0.49,0.377,0.663,0.65s0.26,0.605,0.26,0.998
			c0,0.342-0.062,0.646-0.185,0.912c-0.123,0.268-0.296,0.496-0.52,0.688c-0.21,0.182-0.45,0.336-0.722,0.461
			c-0.271,0.125-0.563,0.223-0.878,0.291v0.061c0.278,0.033,0.589,0.102,0.933,0.209C88.155,115.018,88.462,115.167,88.73,115.358z
			 M87.077,113.895c0.168-0.197,0.285-0.412,0.352-0.645c0.065-0.232,0.099-0.51,0.099-0.828c0-0.535-0.146-0.953-0.437-1.258
			c-0.291-0.303-0.75-0.455-1.378-0.455c-0.146,0-0.328,0.004-0.549,0.012c-0.221,0.006-0.405,0.012-0.556,0.016v3.732h0.866
			c0.373,0,0.692-0.047,0.958-0.143S86.913,114.086,87.077,113.895z M88.026,116.993c0-0.574-0.192-1.047-0.577-1.416
			c-0.386-0.369-0.936-0.553-1.651-0.553c-0.292,0-0.538,0.004-0.738,0.01c-0.2,0.008-0.351,0.012-0.451,0.018v3.418
			c0,0.287,0.116,0.504,0.349,0.648c0.232,0.146,0.556,0.219,0.971,0.219c0.679,0,1.198-0.197,1.559-0.594
			S88.026,117.762,88.026,116.993z"/>
		<path fill="#FFFFFF" d="M98.055,119.754l-2.201,0.15l-0.103-0.096v-0.855H95.71c-0.109,0.115-0.232,0.236-0.368,0.367
			c-0.137,0.129-0.294,0.246-0.471,0.352c-0.205,0.123-0.403,0.217-0.595,0.279c-0.19,0.064-0.461,0.096-0.812,0.096
			c-0.596,0-1.05-0.193-1.361-0.584c-0.313-0.389-0.468-0.955-0.468-1.695v-3.225c0-0.164-0.031-0.301-0.093-0.412
			c-0.063-0.111-0.152-0.209-0.271-0.291c-0.083-0.055-0.187-0.094-0.31-0.119c-0.124-0.025-0.255-0.043-0.393-0.051v-0.451
			l2.249-0.164l0.103,0.096v4.682c0,0.488,0.109,0.855,0.328,1.102s0.48,0.369,0.786,0.369c0.251,0,0.474-0.039,0.67-0.117
			c0.196-0.076,0.36-0.168,0.492-0.273c0.123-0.094,0.231-0.195,0.325-0.303c0.093-0.107,0.165-0.205,0.215-0.297v-3.816
			c0-0.15-0.032-0.283-0.096-0.4c-0.063-0.115-0.152-0.215-0.267-0.297c-0.082-0.055-0.204-0.088-0.366-0.098
			c-0.161-0.012-0.343-0.023-0.543-0.031v-0.451l2.454-0.164l0.103,0.096v5.346c0,0.154,0.032,0.287,0.096,0.396
			s0.152,0.203,0.267,0.279c0.082,0.051,0.18,0.084,0.294,0.1s0.239,0.025,0.376,0.031V119.754z"/>
		<path fill="#FFFFFF" d="M104.043,114.004c0,0.232-0.057,0.439-0.171,0.619s-0.289,0.27-0.526,0.27
			c-0.255,0-0.45-0.066-0.585-0.197c-0.134-0.133-0.201-0.279-0.201-0.438c0-0.102,0.008-0.191,0.023-0.273
			c0.017-0.082,0.031-0.164,0.045-0.246c-0.214,0-0.465,0.086-0.752,0.26c-0.287,0.172-0.531,0.418-0.731,0.738v3.924
			c0,0.158,0.03,0.289,0.093,0.389c0.061,0.102,0.158,0.176,0.29,0.227c0.114,0.045,0.261,0.08,0.44,0.102
			c0.181,0.023,0.337,0.039,0.469,0.049v0.451h-3.555v-0.451c0.104-0.01,0.213-0.02,0.324-0.027c0.112-0.01,0.209-0.027,0.291-0.055
			c0.128-0.041,0.223-0.113,0.283-0.215c0.063-0.104,0.093-0.236,0.093-0.4v-4.158c0-0.141-0.033-0.279-0.099-0.416
			c-0.066-0.137-0.159-0.246-0.277-0.328c-0.087-0.055-0.189-0.094-0.308-0.119s-0.246-0.043-0.383-0.051v-0.451l2.242-0.15
			l0.096,0.096v0.949h0.034c0.282-0.369,0.597-0.648,0.943-0.84s0.663-0.287,0.95-0.287s0.521,0.094,0.7,0.279
			C103.953,113.44,104.043,113.69,104.043,114.004z"/>
		<path fill="#FFFFFF" d="M110.605,118.292c-0.282,0.537-0.661,0.965-1.135,1.285c-0.474,0.318-1.019,0.479-1.634,0.479
			c-0.542,0-1.018-0.096-1.425-0.287c-0.408-0.191-0.744-0.451-1.009-0.779s-0.462-0.711-0.591-1.148
			c-0.131-0.438-0.195-0.9-0.195-1.389c0-0.438,0.069-0.867,0.209-1.287c0.139-0.422,0.343-0.803,0.611-1.139
			c0.26-0.324,0.582-0.584,0.967-0.783c0.386-0.197,0.817-0.297,1.296-0.297c0.492,0,0.914,0.076,1.265,0.232
			c0.351,0.154,0.636,0.367,0.854,0.635c0.21,0.256,0.366,0.557,0.468,0.902c0.104,0.348,0.154,0.723,0.154,1.129v0.451h-4.464
			c0,0.443,0.042,0.844,0.126,1.205c0.085,0.361,0.218,0.678,0.4,0.953c0.178,0.264,0.41,0.473,0.697,0.627
			c0.287,0.152,0.629,0.229,1.025,0.229c0.405,0,0.756-0.094,1.049-0.285c0.295-0.189,0.578-0.531,0.852-1.027L110.605,118.292z
			 M109.095,115.721c0-0.256-0.021-0.527-0.065-0.818c-0.043-0.291-0.112-0.533-0.208-0.729c-0.104-0.209-0.248-0.381-0.431-0.512
			c-0.183-0.133-0.417-0.197-0.704-0.197c-0.479,0-0.876,0.199-1.192,0.596c-0.317,0.398-0.489,0.951-0.517,1.66H109.095z"/>
		<path fill="#FFFFFF" d="M117.77,119.754c-0.214,0.076-0.402,0.141-0.564,0.188c-0.161,0.049-0.345,0.072-0.55,0.072
			c-0.355,0-0.64-0.084-0.851-0.25c-0.213-0.166-0.348-0.408-0.407-0.729h-0.041c-0.296,0.328-0.614,0.58-0.954,0.752
			c-0.339,0.174-0.748,0.26-1.227,0.26c-0.506,0-0.922-0.154-1.248-0.465c-0.325-0.309-0.488-0.715-0.488-1.217
			c0-0.26,0.036-0.492,0.109-0.697s0.183-0.389,0.328-0.553c0.114-0.137,0.265-0.26,0.451-0.365
			c0.187-0.107,0.362-0.193,0.526-0.258c0.205-0.076,0.621-0.221,1.247-0.43c0.627-0.211,1.05-0.375,1.269-0.492v-0.678
			c0-0.059-0.013-0.172-0.038-0.342c-0.024-0.168-0.078-0.328-0.16-0.479c-0.091-0.168-0.22-0.314-0.387-0.439
			c-0.166-0.127-0.401-0.189-0.707-0.189c-0.21,0-0.404,0.035-0.584,0.107c-0.181,0.07-0.307,0.145-0.38,0.221
			c0,0.092,0.021,0.227,0.065,0.404c0.043,0.178,0.064,0.342,0.064,0.492c0,0.158-0.072,0.305-0.215,0.438
			c-0.145,0.131-0.344,0.197-0.599,0.197c-0.228,0-0.396-0.08-0.503-0.242c-0.106-0.162-0.16-0.344-0.16-0.543
			c0-0.211,0.074-0.41,0.223-0.602c0.147-0.191,0.34-0.363,0.577-0.514c0.205-0.127,0.453-0.234,0.745-0.324
			c0.292-0.088,0.576-0.133,0.854-0.133c0.383,0,0.717,0.025,1.001,0.078c0.285,0.053,0.544,0.166,0.776,0.338
			c0.232,0.17,0.409,0.398,0.53,0.688c0.12,0.289,0.181,0.662,0.181,1.117c0,0.652-0.007,1.23-0.021,1.734
			c-0.014,0.502-0.021,1.053-0.021,1.65c0,0.178,0.03,0.318,0.093,0.424c0.061,0.104,0.155,0.193,0.283,0.266
			c0.068,0.041,0.177,0.064,0.324,0.068c0.148,0.006,0.3,0.008,0.455,0.008V119.754z M115.384,116.145
			c-0.388,0.113-0.727,0.227-1.019,0.336s-0.563,0.246-0.813,0.41c-0.228,0.156-0.408,0.34-0.54,0.551
			c-0.132,0.213-0.198,0.465-0.198,0.758c0,0.379,0.099,0.658,0.298,0.836c0.197,0.178,0.449,0.268,0.755,0.268
			c0.323,0,0.608-0.08,0.854-0.236c0.246-0.158,0.453-0.344,0.622-0.559L115.384,116.145z"/>
		<path fill="#FFFFFF" d="M125.665,119.754l-2.201,0.15l-0.103-0.096v-0.855h-0.041c-0.109,0.115-0.232,0.236-0.368,0.367
			c-0.137,0.129-0.294,0.246-0.471,0.352c-0.205,0.123-0.403,0.217-0.595,0.279c-0.19,0.064-0.461,0.096-0.812,0.096
			c-0.596,0-1.05-0.193-1.361-0.584c-0.313-0.389-0.468-0.955-0.468-1.695v-3.225c0-0.164-0.031-0.301-0.093-0.412
			c-0.063-0.111-0.152-0.209-0.271-0.291c-0.083-0.055-0.187-0.094-0.31-0.119c-0.124-0.025-0.255-0.043-0.393-0.051v-0.451
			l2.249-0.164l0.103,0.096v4.682c0,0.488,0.109,0.855,0.328,1.102s0.48,0.369,0.786,0.369c0.251,0,0.474-0.039,0.67-0.117
			c0.196-0.076,0.36-0.168,0.492-0.273c0.123-0.094,0.231-0.195,0.325-0.303c0.093-0.107,0.165-0.205,0.215-0.297v-3.816
			c0-0.15-0.032-0.283-0.096-0.4c-0.063-0.115-0.152-0.215-0.267-0.297c-0.082-0.055-0.204-0.088-0.366-0.098
			c-0.161-0.012-0.343-0.023-0.543-0.031v-0.451l2.454-0.164l0.103,0.096v5.346c0,0.154,0.032,0.287,0.096,0.396
			s0.152,0.203,0.267,0.279c0.082,0.051,0.18,0.084,0.294,0.1s0.239,0.025,0.376,0.031V119.754z"/>
	</g>
	<g enable-background="new    ">
		<path fill="#FFFFFF" d="M10.91,136.553l-2.358,0.15l-0.103-0.096v-0.629l-0.055-0.014c-0.237,0.266-0.529,0.48-0.877,0.65
			c-0.349,0.168-0.707,0.252-1.075,0.252c-0.382,0-0.752-0.086-1.109-0.256c-0.357-0.172-0.668-0.412-0.932-0.721
			c-0.269-0.314-0.481-0.693-0.639-1.135c-0.157-0.443-0.235-0.93-0.235-1.463c0-0.488,0.084-0.951,0.252-1.389
			s0.4-0.82,0.696-1.148c0.278-0.305,0.618-0.549,1.021-0.73c0.403-0.184,0.813-0.273,1.232-0.273c0.314,0,0.622,0.039,0.925,0.119
			s0.563,0.182,0.782,0.305v-2.35c0-0.191-0.032-0.367-0.096-0.523c-0.064-0.158-0.153-0.277-0.267-0.359
			c-0.127-0.088-0.3-0.15-0.516-0.189s-0.45-0.066-0.701-0.086v-0.424l2.762-0.15l0.103,0.104v9.086
			c0,0.158,0.031,0.295,0.092,0.406s0.151,0.205,0.27,0.283c0.086,0.055,0.212,0.088,0.376,0.102s0.314,0.023,0.451,0.027V136.553z
			 M8.436,135.372v-3.945c-0.037-0.117-0.096-0.246-0.177-0.383c-0.082-0.137-0.184-0.262-0.307-0.375
			c-0.132-0.115-0.287-0.209-0.464-0.285c-0.178-0.074-0.384-0.111-0.621-0.111c-0.273,0-0.524,0.07-0.754,0.211
			c-0.229,0.143-0.433,0.344-0.61,0.609c-0.168,0.254-0.301,0.58-0.399,0.973c-0.098,0.395-0.146,0.832-0.146,1.311
			c0,0.383,0.036,0.73,0.109,1.041c0.073,0.313,0.195,0.604,0.368,0.873c0.159,0.254,0.363,0.459,0.611,0.615
			c0.248,0.154,0.542,0.232,0.883,0.232c0.364,0,0.665-0.08,0.904-0.24C8.071,135.739,8.272,135.563,8.436,135.372z"/>
		<path fill="#FFFFFF" d="M14.834,136.676H11.58v-0.451c0.105-0.008,0.213-0.018,0.325-0.027c0.112-0.008,0.208-0.027,0.291-0.055
			c0.127-0.041,0.222-0.111,0.284-0.215c0.062-0.102,0.092-0.234,0.092-0.398v-4.158c0-0.146-0.033-0.279-0.099-0.4
			s-0.158-0.221-0.277-0.303c-0.086-0.055-0.212-0.102-0.376-0.141s-0.314-0.063-0.451-0.072v-0.451l2.379-0.15l0.096,0.096v5.496
			c0,0.16,0.031,0.293,0.092,0.396c0.061,0.105,0.157,0.184,0.289,0.232c0.099,0.041,0.197,0.074,0.292,0.1
			c0.095,0.025,0.202,0.043,0.319,0.051V136.676z M13.979,127.196c0,0.26-0.085,0.486-0.256,0.68s-0.382,0.291-0.632,0.291
			c-0.232,0-0.434-0.094-0.605-0.277c-0.171-0.186-0.256-0.395-0.256-0.633c0-0.25,0.085-0.469,0.256-0.656
			c0.171-0.186,0.373-0.279,0.605-0.279c0.26,0,0.473,0.088,0.639,0.262C13.896,126.758,13.979,126.963,13.979,127.196z"/>
		<path fill="#FFFFFF" d="M20.118,133.375c0.187,0.164,0.331,0.354,0.431,0.566c0.1,0.215,0.15,0.477,0.15,0.787
			c0,0.623-0.233,1.135-0.701,1.531s-1.072,0.594-1.815,0.594c-0.392,0-0.753-0.07-1.083-0.211
			c-0.331-0.143-0.566-0.271-0.708-0.391l-0.137,0.445h-0.513l-0.068-2.346h0.472c0.037,0.18,0.114,0.387,0.232,0.625
			s0.262,0.453,0.431,0.645c0.178,0.201,0.391,0.371,0.639,0.508s0.527,0.205,0.837,0.205c0.438,0,0.775-0.1,1.012-0.299
			s0.355-0.484,0.355-0.855c0-0.191-0.038-0.357-0.113-0.496s-0.186-0.262-0.332-0.365c-0.15-0.105-0.335-0.199-0.554-0.285
			c-0.219-0.084-0.462-0.166-0.731-0.248c-0.214-0.064-0.452-0.152-0.714-0.264s-0.486-0.242-0.673-0.393
			c-0.201-0.16-0.365-0.355-0.492-0.588s-0.191-0.506-0.191-0.82c0-0.553,0.205-1.02,0.615-1.402s0.959-0.574,1.647-0.574
			c0.264,0,0.534,0.035,0.81,0.104s0.5,0.15,0.673,0.246l0.157-0.355h0.492l0.103,2.166h-0.472
			c-0.096-0.484-0.302-0.879-0.619-1.184s-0.703-0.457-1.159-0.457c-0.374,0-0.667,0.094-0.882,0.283
			c-0.214,0.188-0.321,0.414-0.321,0.682c0,0.205,0.035,0.375,0.106,0.512s0.177,0.254,0.318,0.35
			c0.137,0.09,0.309,0.176,0.516,0.256s0.464,0.17,0.769,0.27c0.301,0.096,0.584,0.207,0.851,0.336
			C19.725,133.079,19.945,133.219,20.118,133.375z"/>
		<path fill="#FFFFFF" d="M25.881,136.383c-0.296,0.123-0.577,0.227-0.841,0.311s-0.588,0.127-0.971,0.127
			c-0.565,0-0.963-0.143-1.193-0.428s-0.345-0.688-0.345-1.207v-4.566h-1.217v-0.656h1.244v-2.098h1.244v2.098h1.935v0.656h-1.921
			v3.768c0,0.281,0.01,0.518,0.031,0.707s0.069,0.354,0.147,0.496c0.073,0.131,0.182,0.232,0.328,0.301s0.342,0.102,0.588,0.102
			c0.114,0,0.281-0.01,0.502-0.031c0.221-0.02,0.377-0.045,0.468-0.078V136.383z"/>
		<path fill="#FFFFFF" d="M31.712,130.805c0,0.232-0.057,0.438-0.171,0.617c-0.114,0.182-0.29,0.271-0.526,0.271
			c-0.255,0-0.45-0.066-0.584-0.199c-0.134-0.131-0.202-0.277-0.202-0.438c0-0.1,0.008-0.191,0.024-0.273s0.031-0.164,0.044-0.246
			c-0.214,0-0.465,0.088-0.752,0.26c-0.287,0.174-0.531,0.42-0.731,0.738v3.924c0,0.16,0.031,0.289,0.092,0.391
			c0.062,0.1,0.158,0.176,0.291,0.225c0.114,0.047,0.261,0.08,0.441,0.104c0.18,0.021,0.336,0.039,0.468,0.047v0.451h-3.555v-0.451
			c0.105-0.008,0.213-0.018,0.325-0.027c0.112-0.008,0.208-0.027,0.291-0.055c0.127-0.041,0.222-0.111,0.284-0.215
			c0.062-0.102,0.092-0.234,0.092-0.398v-4.158c0-0.143-0.033-0.281-0.099-0.418c-0.066-0.135-0.158-0.244-0.277-0.326
			c-0.086-0.055-0.189-0.096-0.308-0.121c-0.119-0.023-0.246-0.041-0.383-0.051v-0.451l2.242-0.15l0.096,0.096v0.951h0.034
			c0.283-0.369,0.597-0.65,0.943-0.842s0.663-0.287,0.95-0.287s0.521,0.094,0.701,0.281
			C31.622,130.239,31.712,130.491,31.712,130.805z"/>
		<path fill="#FFFFFF" d="M35.554,136.676H32.3v-0.451c0.105-0.008,0.213-0.018,0.325-0.027c0.112-0.008,0.208-0.027,0.291-0.055
			c0.127-0.041,0.222-0.111,0.284-0.215c0.062-0.102,0.092-0.234,0.092-0.398v-4.158c0-0.146-0.033-0.279-0.099-0.4
			s-0.158-0.221-0.277-0.303c-0.086-0.055-0.212-0.102-0.376-0.141s-0.314-0.063-0.451-0.072v-0.451l2.379-0.15l0.096,0.096v5.496
			c0,0.16,0.031,0.293,0.092,0.396c0.061,0.105,0.157,0.184,0.289,0.232c0.099,0.041,0.197,0.074,0.292,0.1
			c0.096,0.025,0.201,0.043,0.319,0.051V136.676z M34.699,127.196c0,0.26-0.085,0.486-0.256,0.68s-0.382,0.291-0.632,0.291
			c-0.232,0-0.434-0.094-0.605-0.277c-0.171-0.186-0.256-0.395-0.256-0.633c0-0.25,0.085-0.469,0.256-0.656
			c0.171-0.186,0.373-0.279,0.605-0.279c0.26,0,0.473,0.088,0.639,0.262C34.616,126.758,34.699,126.963,34.699,127.196z"/>
		<path fill="#FFFFFF" d="M39.505,136.854c-0.976,0-1.738-0.322-2.29-0.971c-0.552-0.646-0.827-1.516-0.827-2.604
			c0-0.475,0.074-0.918,0.223-1.33c0.147-0.412,0.363-0.787,0.646-1.125c0.269-0.322,0.606-0.584,1.012-0.783
			c0.405-0.197,0.848-0.297,1.326-0.297c0.661,0,1.198,0.158,1.613,0.475c0.415,0.318,0.622,0.75,0.622,1.297
			c0,0.227-0.055,0.43-0.164,0.604c-0.109,0.176-0.289,0.264-0.54,0.264c-0.269,0-0.478-0.068-0.626-0.203
			c-0.147-0.137-0.222-0.289-0.222-0.457c0-0.205,0.027-0.414,0.082-0.631c0.055-0.215,0.087-0.373,0.096-0.473
			c-0.082-0.141-0.203-0.236-0.365-0.283c-0.161-0.049-0.335-0.072-0.521-0.072c-0.218,0-0.426,0.047-0.624,0.141
			c-0.197,0.094-0.39,0.266-0.576,0.516c-0.168,0.229-0.304,0.535-0.408,0.924c-0.105,0.387-0.157,0.85-0.157,1.387
			c0,0.848,0.188,1.539,0.563,2.074c0.375,0.537,0.867,0.805,1.478,0.805c0.441,0,0.811-0.107,1.108-0.324
			c0.299-0.215,0.575-0.537,0.83-0.969l0.437,0.287c-0.301,0.539-0.697,0.965-1.189,1.279S40.029,136.854,39.505,136.854z"/>
		<path fill="#FFFFFF" d="M46.908,136.383c-0.296,0.123-0.576,0.227-0.841,0.311s-0.588,0.127-0.971,0.127
			c-0.565,0-0.963-0.143-1.193-0.428c-0.229-0.285-0.345-0.688-0.345-1.207v-4.566h-1.217v-0.656h1.244v-2.098h1.244v2.098h1.935
			v0.656h-1.921v3.768c0,0.281,0.011,0.518,0.03,0.707c0.021,0.189,0.07,0.354,0.147,0.496c0.073,0.131,0.183,0.232,0.328,0.301
			s0.342,0.102,0.588,0.102c0.114,0,0.281-0.01,0.503-0.031c0.221-0.02,0.377-0.045,0.468-0.078V136.383z"/>
		<path fill="#FFFFFF" d="M54.072,136.854c-0.976,0-1.738-0.322-2.29-0.971c-0.552-0.646-0.827-1.516-0.827-2.604
			c0-0.475,0.074-0.918,0.223-1.33c0.147-0.412,0.363-0.787,0.646-1.125c0.269-0.322,0.606-0.584,1.012-0.783
			c0.405-0.197,0.848-0.297,1.326-0.297c0.661,0,1.198,0.158,1.613,0.475c0.415,0.318,0.622,0.75,0.622,1.297
			c0,0.227-0.055,0.43-0.164,0.604c-0.109,0.176-0.289,0.264-0.54,0.264c-0.269,0-0.478-0.068-0.626-0.203
			c-0.147-0.137-0.222-0.289-0.222-0.457c0-0.205,0.027-0.414,0.082-0.631c0.055-0.215,0.087-0.373,0.096-0.473
			c-0.082-0.141-0.203-0.236-0.365-0.283c-0.161-0.049-0.335-0.072-0.521-0.072c-0.218,0-0.426,0.047-0.624,0.141
			c-0.197,0.094-0.39,0.266-0.576,0.516c-0.168,0.229-0.304,0.535-0.408,0.924c-0.105,0.387-0.157,0.85-0.157,1.387
			c0,0.848,0.188,1.539,0.563,2.074c0.375,0.537,0.867,0.805,1.478,0.805c0.441,0,0.811-0.107,1.108-0.324
			c0.299-0.215,0.575-0.537,0.83-0.969l0.437,0.287c-0.301,0.539-0.697,0.965-1.189,1.279S54.597,136.854,54.072,136.854z"/>
		<path fill="#FFFFFF" d="M63.301,135.09c-0.282,0.539-0.661,0.967-1.135,1.285c-0.474,0.32-1.019,0.479-1.634,0.479
			c-0.542,0-1.018-0.096-1.425-0.287c-0.408-0.191-0.744-0.451-1.009-0.779s-0.462-0.711-0.591-1.148
			c-0.131-0.438-0.195-0.9-0.195-1.387c0-0.438,0.069-0.867,0.209-1.289c0.139-0.422,0.343-0.801,0.611-1.139
			c0.26-0.322,0.582-0.584,0.967-0.783c0.386-0.197,0.817-0.297,1.296-0.297c0.492,0,0.914,0.078,1.265,0.232
			c0.351,0.156,0.636,0.367,0.854,0.637c0.21,0.254,0.366,0.555,0.468,0.902c0.104,0.346,0.154,0.723,0.154,1.127v0.451h-4.464
			c0,0.443,0.042,0.846,0.126,1.207c0.085,0.359,0.218,0.678,0.4,0.951c0.178,0.266,0.41,0.475,0.697,0.627
			c0.287,0.154,0.629,0.23,1.025,0.23c0.405,0,0.756-0.096,1.049-0.285c0.295-0.191,0.578-0.533,0.852-1.027L63.301,135.09z
			 M61.79,132.52c0-0.254-0.021-0.527-0.065-0.816c-0.043-0.291-0.112-0.535-0.208-0.73c-0.104-0.209-0.248-0.379-0.431-0.512
			c-0.183-0.131-0.417-0.197-0.704-0.197c-0.479,0-0.876,0.199-1.192,0.598c-0.317,0.396-0.489,0.949-0.517,1.658H61.79z"/>
		<path fill="#FFFFFF" d="M67.238,136.676H63.95v-0.451c0.104-0.008,0.217-0.02,0.335-0.031c0.118-0.01,0.217-0.027,0.294-0.051
			c0.128-0.041,0.224-0.113,0.287-0.215c0.063-0.104,0.096-0.236,0.096-0.4v-7.813c0-0.164-0.035-0.318-0.106-0.461
			c-0.07-0.145-0.162-0.258-0.276-0.34c-0.082-0.055-0.232-0.104-0.451-0.15c-0.219-0.045-0.395-0.072-0.526-0.082v-0.438
			l2.536-0.15l0.096,0.104v9.248c0,0.16,0.029,0.291,0.089,0.393c0.06,0.104,0.155,0.182,0.287,0.236
			c0.101,0.047,0.199,0.08,0.297,0.104c0.099,0.021,0.209,0.039,0.332,0.047V136.676z"/>
		<path fill="#FFFFFF" d="M71.244,136.676h-3.288v-0.451c0.104-0.008,0.217-0.02,0.335-0.031c0.118-0.01,0.217-0.027,0.294-0.051
			c0.128-0.041,0.224-0.113,0.287-0.215c0.063-0.104,0.096-0.236,0.096-0.4v-7.813c0-0.164-0.035-0.318-0.106-0.461
			c-0.07-0.145-0.162-0.258-0.276-0.34c-0.082-0.055-0.232-0.104-0.451-0.15c-0.219-0.045-0.395-0.072-0.526-0.082v-0.438
			l2.536-0.15l0.096,0.104v9.248c0,0.16,0.029,0.291,0.089,0.393c0.06,0.104,0.155,0.182,0.287,0.236
			c0.101,0.047,0.199,0.08,0.297,0.104c0.099,0.021,0.209,0.039,0.332,0.047V136.676z"/>
		<path fill="#FFFFFF" d="M76.542,133.375c0.187,0.164,0.33,0.354,0.431,0.566c0.101,0.215,0.15,0.477,0.15,0.787
			c0,0.623-0.233,1.135-0.701,1.531c-0.467,0.396-1.071,0.594-1.814,0.594c-0.392,0-0.753-0.07-1.084-0.211
			c-0.33-0.143-0.565-0.271-0.707-0.391l-0.137,0.445h-0.513l-0.068-2.346h0.472c0.036,0.18,0.114,0.387,0.232,0.625
			s0.262,0.453,0.431,0.645c0.178,0.201,0.391,0.371,0.64,0.508c0.248,0.137,0.527,0.205,0.837,0.205c0.438,0,0.774-0.1,1.012-0.299
			s0.355-0.484,0.355-0.855c0-0.191-0.038-0.357-0.112-0.496c-0.076-0.139-0.187-0.262-0.332-0.365
			c-0.15-0.105-0.335-0.199-0.554-0.285c-0.219-0.084-0.463-0.166-0.731-0.248c-0.214-0.064-0.452-0.152-0.715-0.264
			c-0.262-0.111-0.486-0.242-0.673-0.393c-0.2-0.16-0.364-0.355-0.492-0.588s-0.191-0.506-0.191-0.82
			c0-0.553,0.205-1.02,0.615-1.402s0.959-0.574,1.647-0.574c0.265,0,0.534,0.035,0.811,0.104c0.275,0.068,0.5,0.15,0.673,0.246
			l0.157-0.355h0.492l0.103,2.166h-0.472c-0.096-0.484-0.302-0.879-0.619-1.184c-0.316-0.305-0.702-0.457-1.158-0.457
			c-0.374,0-0.668,0.094-0.882,0.283c-0.214,0.188-0.321,0.414-0.321,0.682c0,0.205,0.035,0.375,0.105,0.512
			c0.071,0.137,0.177,0.254,0.318,0.35c0.137,0.09,0.309,0.176,0.516,0.256c0.208,0.08,0.464,0.17,0.77,0.27
			c0.301,0.096,0.584,0.207,0.852,0.336C76.148,133.079,76.369,133.219,76.542,133.375z"/>
		<path fill="#FFFFFF" d="M86.536,126.915c0,0.205-0.055,0.379-0.164,0.52c-0.109,0.143-0.275,0.213-0.499,0.213
			c-0.142,0-0.266-0.029-0.372-0.09c-0.107-0.059-0.207-0.139-0.298-0.238c-0.091-0.102-0.176-0.215-0.253-0.342
			c-0.077-0.129-0.144-0.23-0.198-0.309c-0.306,0.014-0.541,0.227-0.708,0.639c-0.166,0.412-0.249,1.066-0.249,1.967v0.689h1.736
			v0.656h-1.736v4.84c0,0.16,0.03,0.289,0.093,0.391c0.061,0.1,0.158,0.176,0.29,0.225c0.109,0.041,0.255,0.074,0.438,0.1
			s0.34,0.043,0.472,0.051v0.451h-3.555v-0.451c0.104-0.008,0.213-0.018,0.324-0.027c0.112-0.008,0.209-0.027,0.291-0.055
			c0.128-0.041,0.223-0.113,0.283-0.215c0.063-0.104,0.093-0.236,0.093-0.4v-4.908H81.19v-0.656h1.333v-0.43
			c0-1.023,0.266-1.852,0.796-2.486c0.531-0.635,1.195-0.953,1.993-0.953c0.405,0,0.711,0.08,0.916,0.24
			C86.434,126.493,86.536,126.688,86.536,126.915z"/>
		<path fill="#FFFFFF" d="M92.647,133.239c0,0.473-0.075,0.939-0.226,1.396c-0.15,0.459-0.365,0.848-0.644,1.166
			c-0.314,0.365-0.68,0.637-1.095,0.814s-0.881,0.266-1.396,0.266c-0.429,0-0.837-0.08-1.225-0.242s-0.732-0.398-1.033-0.707
			c-0.297-0.307-0.532-0.678-0.708-1.119c-0.176-0.439-0.264-0.932-0.264-1.479c0-1.053,0.307-1.914,0.92-2.584
			c0.614-0.67,1.418-1.006,2.412-1.006c0.944,0,1.724,0.318,2.338,0.953C92.341,131.334,92.647,132.18,92.647,133.239z
			 M91.232,133.252c0-0.342-0.034-0.703-0.103-1.084s-0.172-0.703-0.309-0.967c-0.146-0.283-0.338-0.51-0.575-0.682
			c-0.237-0.17-0.527-0.256-0.87-0.256c-0.352,0-0.651,0.088-0.9,0.26c-0.248,0.174-0.45,0.41-0.605,0.711
			c-0.146,0.279-0.249,0.596-0.309,0.951s-0.089,0.699-0.089,1.031c0,0.438,0.035,0.842,0.106,1.213
			c0.07,0.373,0.184,0.703,0.339,0.996c0.155,0.291,0.351,0.52,0.585,0.686c0.235,0.168,0.526,0.25,0.873,0.25
			c0.571,0,1.023-0.275,1.356-0.826C91.065,134.983,91.232,134.223,91.232,133.252z"/>
		<path fill="#FFFFFF" d="M98.779,130.805c0,0.232-0.057,0.438-0.171,0.617c-0.114,0.182-0.289,0.271-0.526,0.271
			c-0.255,0-0.45-0.066-0.585-0.199c-0.134-0.131-0.201-0.277-0.201-0.438c0-0.1,0.008-0.191,0.023-0.273
			c0.017-0.082,0.031-0.164,0.045-0.246c-0.214,0-0.465,0.088-0.752,0.26c-0.287,0.174-0.531,0.42-0.731,0.738v3.924
			c0,0.16,0.03,0.289,0.093,0.391c0.061,0.1,0.158,0.176,0.29,0.225c0.114,0.047,0.261,0.08,0.44,0.104
			c0.181,0.021,0.337,0.039,0.469,0.047v0.451h-3.555v-0.451c0.104-0.008,0.213-0.018,0.324-0.027
			c0.112-0.008,0.209-0.027,0.291-0.055c0.128-0.041,0.223-0.111,0.283-0.215c0.063-0.102,0.093-0.234,0.093-0.398v-4.158
			c0-0.143-0.033-0.281-0.099-0.418c-0.066-0.135-0.159-0.244-0.277-0.326c-0.087-0.055-0.189-0.096-0.308-0.121
			c-0.118-0.023-0.246-0.041-0.383-0.051v-0.451l2.242-0.15l0.096,0.096v0.951h0.034c0.282-0.369,0.597-0.65,0.943-0.842
			s0.663-0.287,0.95-0.287s0.521,0.094,0.7,0.281C98.689,130.239,98.779,130.491,98.779,130.805z"/>
		<path fill="#FFFFFF" d="M110.886,136.676h-3.281v-0.451c0.104-0.008,0.211-0.018,0.317-0.027c0.107-0.008,0.202-0.027,0.284-0.055
			c0.128-0.041,0.222-0.113,0.284-0.215c0.061-0.104,0.092-0.236,0.092-0.4v-3.479c0-0.475-0.108-0.84-0.324-1.098
			c-0.217-0.258-0.487-0.387-0.811-0.387c-0.224,0-0.433,0.035-0.629,0.104s-0.376,0.164-0.54,0.287
			c-0.132,0.1-0.243,0.207-0.331,0.324c-0.09,0.115-0.156,0.213-0.202,0.291v3.889c0,0.16,0.027,0.291,0.082,0.393
			c0.055,0.104,0.148,0.182,0.28,0.236c0.104,0.041,0.199,0.072,0.283,0.092c0.085,0.021,0.195,0.037,0.332,0.045v0.451h-3.213
			v-0.451c0.104-0.008,0.206-0.018,0.305-0.027c0.098-0.008,0.188-0.027,0.27-0.055c0.128-0.041,0.223-0.113,0.283-0.215
			c0.063-0.104,0.093-0.236,0.093-0.4v-3.479c0-0.475-0.108-0.84-0.325-1.098c-0.218-0.258-0.488-0.387-0.813-0.387
			c-0.224,0-0.434,0.035-0.63,0.105c-0.197,0.072-0.377,0.168-0.542,0.291c-0.132,0.102-0.244,0.213-0.335,0.338
			c-0.092,0.127-0.16,0.221-0.206,0.285v3.861c0,0.156,0.032,0.285,0.096,0.391c0.063,0.104,0.159,0.184,0.287,0.238
			c0.096,0.047,0.193,0.08,0.294,0.104c0.101,0.021,0.212,0.039,0.335,0.047v0.451h-3.274v-0.451
			c0.104-0.008,0.213-0.018,0.325-0.027c0.111-0.008,0.208-0.027,0.29-0.055c0.128-0.041,0.222-0.111,0.284-0.215
			c0.061-0.102,0.092-0.234,0.092-0.398v-4.186c0-0.146-0.033-0.277-0.1-0.393c-0.065-0.117-0.158-0.215-0.276-0.297
			c-0.087-0.055-0.193-0.1-0.321-0.135c-0.128-0.033-0.26-0.055-0.396-0.064v-0.451l2.256-0.15l0.096,0.096v0.965h0.048
			c0.114-0.115,0.253-0.248,0.417-0.404c0.164-0.154,0.316-0.279,0.458-0.375c0.159-0.109,0.358-0.201,0.599-0.273
			c0.238-0.074,0.497-0.109,0.775-0.109c0.438,0,0.813,0.117,1.128,0.352s0.54,0.518,0.677,0.852
			c0.164-0.16,0.309-0.301,0.434-0.422c0.125-0.119,0.29-0.248,0.494-0.385c0.173-0.119,0.377-0.215,0.611-0.287
			c0.234-0.074,0.494-0.109,0.781-0.109c0.568,0,1.02,0.186,1.352,0.561c0.332,0.373,0.498,0.947,0.498,1.723v3.424
			c0,0.16,0.027,0.291,0.082,0.393c0.055,0.104,0.148,0.182,0.28,0.236c0.104,0.041,0.208,0.072,0.312,0.092
			c0.102,0.021,0.217,0.037,0.345,0.045V136.676z"/>
		<path fill="#FFFFFF" d="M117.674,135.09c-0.282,0.539-0.661,0.967-1.135,1.285c-0.474,0.32-1.019,0.479-1.634,0.479
			c-0.542,0-1.018-0.096-1.425-0.287c-0.408-0.191-0.744-0.451-1.009-0.779s-0.462-0.711-0.591-1.148
			c-0.131-0.438-0.195-0.9-0.195-1.387c0-0.438,0.069-0.867,0.209-1.289c0.139-0.422,0.343-0.801,0.611-1.139
			c0.26-0.322,0.582-0.584,0.967-0.783c0.386-0.197,0.817-0.297,1.296-0.297c0.492,0,0.914,0.078,1.265,0.232
			c0.351,0.156,0.636,0.367,0.854,0.637c0.21,0.254,0.366,0.555,0.468,0.902c0.104,0.346,0.154,0.723,0.154,1.127v0.451h-4.464
			c0,0.443,0.042,0.846,0.126,1.207c0.085,0.359,0.218,0.678,0.4,0.951c0.178,0.266,0.41,0.475,0.697,0.627
			c0.287,0.154,0.629,0.23,1.025,0.23c0.405,0,0.756-0.096,1.049-0.285c0.295-0.191,0.578-0.533,0.852-1.027L117.674,135.09z
			 M116.163,132.52c0-0.254-0.021-0.527-0.065-0.816c-0.043-0.291-0.112-0.535-0.208-0.73c-0.104-0.209-0.248-0.379-0.431-0.512
			c-0.183-0.131-0.417-0.197-0.704-0.197c-0.479,0-0.876,0.199-1.192,0.598c-0.317,0.396-0.489,0.949-0.517,1.658H116.163z"/>
		<path fill="#FFFFFF" d="M125.836,136.553l-2.358,0.15l-0.103-0.096v-0.629l-0.055-0.014c-0.236,0.266-0.529,0.48-0.877,0.65
			c-0.349,0.168-0.707,0.252-1.075,0.252c-0.383,0-0.752-0.086-1.109-0.256c-0.357-0.172-0.668-0.412-0.932-0.721
			c-0.269-0.314-0.481-0.693-0.639-1.135c-0.157-0.443-0.235-0.93-0.235-1.463c0-0.488,0.084-0.951,0.253-1.389
			c0.168-0.438,0.4-0.82,0.696-1.148c0.277-0.305,0.617-0.549,1.021-0.73c0.402-0.184,0.813-0.273,1.231-0.273
			c0.314,0,0.623,0.039,0.926,0.119c0.302,0.08,0.563,0.182,0.781,0.305v-2.35c0-0.191-0.032-0.367-0.096-0.523
			c-0.063-0.158-0.152-0.277-0.267-0.359c-0.128-0.088-0.3-0.15-0.517-0.189c-0.216-0.039-0.449-0.066-0.7-0.086v-0.424l2.762-0.15
			l0.103,0.104v9.086c0,0.158,0.031,0.295,0.092,0.406c0.063,0.111,0.152,0.205,0.271,0.283c0.087,0.055,0.212,0.088,0.376,0.102
			s0.314,0.023,0.451,0.027V136.553z M123.361,135.372v-3.945c-0.036-0.117-0.096-0.246-0.178-0.383
			c-0.081-0.137-0.184-0.262-0.307-0.375c-0.132-0.115-0.286-0.209-0.464-0.285c-0.178-0.074-0.385-0.111-0.621-0.111
			c-0.272,0-0.524,0.07-0.754,0.211c-0.229,0.143-0.434,0.344-0.61,0.609c-0.168,0.254-0.302,0.58-0.399,0.973
			c-0.098,0.395-0.146,0.832-0.146,1.311c0,0.383,0.036,0.73,0.109,1.041c0.072,0.313,0.195,0.604,0.368,0.873
			c0.159,0.254,0.362,0.459,0.61,0.615c0.248,0.154,0.543,0.232,0.884,0.232c0.364,0,0.665-0.08,0.904-0.24
			C122.996,135.739,123.197,135.563,123.361,135.372z"/>
	</g>
</g>
</svg>
