<?xml version="1.0" encoding="utf-8"?>
<!-- Generator: Adobe Illustrator 16.0.0, SVG Export Plug-In . SVG Version: 6.00 Build 0)  -->
<!DOCTYPE svg PUBLIC "-//W3C//DTD SVG 1.1//EN" "http://www.w3.org/Graphics/SVG/1.1/DTD/svg11.dtd">
<svg version="1.1" id="Layer_1" xmlns="http://www.w3.org/2000/svg" xmlns:xlink="http://www.w3.org/1999/xlink" x="0px" y="0px"
	 width="196.57px" height="142.611px" viewBox="0 0 196.57 142.611" enable-background="new 0 0 196.57 142.611"
	 xml:space="preserve">
<g>
	<g>
		<polygon fill="#FFFFFF" points="160.295,117.755 162.259,120.32 164.04,117.776 		"/>
	</g>
	<g>
		<path fill="#FFFFFF" d="M196.57,95.17V18.198c0-1.642-0.767-3.093-1.943-4.063c0.461-0.848,0.401-1.924-0.239-2.726l-1.931-2.415
			l-1.793,2.242l-1.793-2.242l-1.793,2.242l-1.793-2.242l-1.93,2.415c-0.618,0.771-0.717,1.852-0.24,2.726
			c-1.177,0.971-1.944,2.421-1.944,4.063v14.229c0,2.552-2.076,4.629-4.629,4.629c-2.627,0-5.097-1.022-6.954-2.88
			c-1.855-1.855-2.878-4.324-2.878-6.951V5.494c0-3.029-2.464-5.494-5.494-5.494c-1.462,0-2.841,0.57-3.885,1.608
			c-1.038,1.038-1.608,2.417-1.608,3.886v21.73c0,5.421-4.409,9.832-9.829,9.832c-1.237,0-2.4-0.48-3.273-1.353
			c-0.875-0.876-1.355-2.04-1.355-3.276V18.198c0-1.642-0.768-3.093-1.944-4.063c0.461-0.848,0.4-1.924-0.24-2.725l-1.93-2.415
			l-1.793,2.242l-1.793-2.242l-1.793,2.242l-1.793-2.242l-1.931,2.415c-0.616,0.771-0.717,1.852-0.239,2.725
			c-1.178,0.971-1.944,2.421-1.944,4.063v114.089c0,1.865,0.977,3.501,2.441,4.442c-0.939,0.872-1.07,2.328-0.258,3.346l1.931,2.415
			l1.793-2.243l1.793,2.243l1.793-2.243l1.793,2.243l1.93-2.415c0.706-0.883,0.735-2.166,0-3.087
			c-0.078-0.097-0.167-0.178-0.255-0.26c1.463-0.941,2.439-2.576,2.439-4.441v-1.243v-20.287c0-3.159,1.91-5.867,4.631-7.066
			c-0.127-0.785-0.231-2.111,0.215-3.359c0.521-1.458,2.029-2.66,3.843-3.062c2.081-0.461,4.232,0.199,5.95,1.81
			c2.796-1.142,7.25-2.785,12.534,0.229c0.768-1.175,2.146-1.909,3.796-1.995c2.111-0.106,4.104,0.84,5.058,2.42
			c0.561,0.929,0.949,2.406,0.181,4.459c0.512,0.312,1.001,0.665,1.435,1.1c1.46,1.458,2.265,3.398,2.265,5.465v20.018l0,0v1.634
			c0,1.865,0.978,3.501,2.44,4.441c-0.939,0.872-1.07,2.328-0.257,3.345l1.93,2.415l1.793-2.242l1.793,2.242l1.793-2.242
			l1.793,2.242l1.93-2.415c0.706-0.882,0.735-2.166,0-3.086c-0.077-0.097-0.167-0.178-0.255-0.26
			c1.462-0.941,2.438-2.576,2.438-4.44v-1.365l0,0V95.17H196.57z M189.515,67.462c0.089-0.012,0.177-0.019,0.264-0.019
			c0.95,0,1.778,0.701,1.91,1.669c0.057,0.416-0.027,0.816-0.209,1.161c-0.281,0.531-0.801,0.927-1.441,1.014
			c-1.253,0.172-2.526,0.298-3.785,0.376c-1.057,0.063-1.979-0.744-2.045-1.809c-0.022-0.374,0.067-0.726,0.233-1.032
			c0.307-0.567,0.885-0.971,1.575-1.013C187.179,67.737,188.356,67.62,189.515,67.462z M184.652,84.492
			c-3.243,0.443-6.538,0.505-9.793,0.183c-1.062-0.105-1.836-1.051-1.73-2.111c0.024-0.246,0.099-0.474,0.204-0.682
			c0.352-0.688,1.094-1.128,1.907-1.048c2.955,0.293,5.945,0.237,8.889-0.166c0.089-0.012,0.178-0.019,0.265-0.019
			c0.949,0,1.776,0.701,1.91,1.669c0.057,0.416-0.027,0.816-0.209,1.161C185.812,84.009,185.292,84.404,184.652,84.492z
			 M170.741,52.926c0.132,0,0.266,0.014,0.4,0.042c4.285,0.904,8.655,1.061,12.985,0.468c1.058-0.145,2.03,0.594,2.174,1.65
			c0.058,0.416-0.026,0.815-0.209,1.161c-0.28,0.53-0.801,0.926-1.44,1.013c-4.771,0.654-9.585,0.48-14.308-0.515
			c-1.043-0.221-1.71-1.244-1.49-2.287c0.042-0.198,0.117-0.378,0.211-0.546C169.404,53.312,170.042,52.926,170.741,52.926z
			 M180.165,67.806c1.064,0.067,1.873,0.983,1.807,2.047c-0.019,0.285-0.101,0.549-0.227,0.786c-0.345,0.646-1.04,1.07-1.821,1.021
			c-7.137-0.447-12.777-2.293-16.253-3.763c-0.974-0.412-1.431-1.527-1.033-2.504c0.003-0.008,0.004-0.017,0.008-0.024
			c0.311-0.737,1.026-1.18,1.778-1.18c0.251,0,0.506,0.049,0.751,0.153C168.373,65.693,173.57,67.392,180.165,67.806z
			 M159.451,3.733C159.926,3.26,160.553,3,161.217,3c1.375,0,2.494,1.119,2.494,2.494v3.826h-0.042h-4.945V5.494
			c0-0.331,0.064-0.652,0.187-0.949C159.033,4.245,159.215,3.969,159.451,3.733z M158.723,25.482v-4.139v-0.08h4.987v4.22h-0.042
			L158.723,25.482L158.723,25.482z M163.669,17.402h-4.945v-4.139v-0.08h4.987v4.22L163.669,17.402L163.669,17.402z M157.015,51.275
			c2.039-0.793,3.202-1.479,3.215-1.485c0.304-0.181,0.646-0.271,0.988-0.271c0.344,0,0.687,0.091,0.991,0.273
			c0.008,0.005,1.172,0.69,3.211,1.483c0.994,0.387,1.486,1.505,1.1,2.499c-0.049,0.125-0.109,0.242-0.18,0.352
			c-0.486,0.753-1.449,1.087-2.318,0.749c-1.209-0.471-2.157-0.912-2.805-1.237c-0.646,0.325-1.595,0.767-2.804,1.237
			c-0.994,0.386-2.112-0.106-2.499-1.1c-0.19-0.491-0.166-1.014,0.027-1.463C156.14,51.853,156.513,51.47,157.015,51.275z
			 M157.262,64.341c0.245-0.104,0.5-0.153,0.751-0.153c0.752,0,1.467,0.442,1.777,1.18c0.221,0.521,0.189,1.081-0.029,1.556
			c-0.194,0.422-0.534,0.778-0.996,0.973c-3.476,1.471-9.116,3.315-16.253,3.763c-1.061,0.066-1.981-0.742-2.048-1.807
			c-0.022-0.374,0.066-0.727,0.232-1.034c0.306-0.566,0.884-0.97,1.574-1.013C148.866,67.392,154.063,65.693,157.262,64.341z
			 M138.307,53.436c4.331,0.593,8.699,0.437,12.985-0.468c0.136-0.028,0.269-0.042,0.401-0.042c0.893,0,1.695,0.624,1.887,1.533
			c0.089,0.422,0.027,0.839-0.141,1.203c-0.247,0.534-0.729,0.953-1.351,1.084c-4.722,0.995-9.534,1.169-14.307,0.515
			c-1.056-0.145-1.795-1.118-1.65-2.174c0.033-0.239,0.113-0.458,0.223-0.658C136.728,53.744,137.492,53.324,138.307,53.436z
			 M132.657,67.444c0.087,0,0.176,0.007,0.264,0.019c1.158,0.159,2.336,0.275,3.499,0.347c1.064,0.066,1.873,0.982,1.809,2.046
			c-0.019,0.285-0.101,0.549-0.227,0.785c-0.346,0.647-1.044,1.07-1.818,1.022c-1.26-0.078-2.532-0.204-3.785-0.376
			c-1.057-0.146-1.795-1.118-1.65-2.175c0.03-0.222,0.102-0.427,0.198-0.615C131.269,67.863,131.925,67.444,132.657,67.444z
			 M149.065,83.7c-0.299,0.527-0.838,0.908-1.488,0.974c-3.255,0.323-6.551,0.262-9.794-0.183c-1.056-0.146-1.795-1.118-1.65-2.175
			c0.03-0.222,0.102-0.427,0.198-0.615c0.325-0.635,0.98-1.053,1.712-1.054c0.087,0,0.176,0.006,0.265,0.019
			c2.942,0.402,5.934,0.459,8.889,0.166c1.06-0.105,2.006,0.669,2.111,1.729C149.349,82.974,149.254,83.366,149.065,83.7z
			 M172.299,82.431c-0.033,0.155-0.091,0.299-0.157,0.436c-0.384,0.778-1.256,1.229-2.142,1.035
			c-4.228-0.929-7.299-2.289-8.781-3.034c-1.481,0.744-4.554,2.105-8.78,3.034c-1.041,0.229-2.071-0.43-2.299-1.471
			c-0.107-0.489-0.014-0.973,0.219-1.375c0.262-0.453,0.7-0.803,1.252-0.924c5.35-1.175,8.586-3.09,8.618-3.109
			c0.305-0.183,0.648-0.273,0.991-0.273c0.344,0,0.688,0.091,0.992,0.273c0.029,0.018,3.317,1.945,8.618,3.109
			C171.869,80.361,172.528,81.39,172.299,82.431z"/>
	</g>
	<g>
		<path fill="#FFFFFF" d="M175.865,105.245c1.165-1.954,1.362-3.682,0.57-4.994c-0.752-1.249-2.423-2.034-4.149-1.938
			c-1.487,0.077-2.688,0.787-3.21,1.9l-0.238,0.507l-0.477-0.293c-5.244-3.227-9.538-1.464-12.381-0.297l-0.312,0.127l-0.234-0.239
			c-2.067-2.097-4.186-2.009-5.266-1.77c-1.463,0.322-2.715,1.296-3.117,2.42c-0.337,0.943-0.291,1.975-0.197,2.663
			c0.006-0.002,0.011-0.005,0.017-0.006c0.167,0.733,0.458,1.445,0.896,2.09c-0.563,1.607-0.807,3.293-0.725,5.022
			c0.005,0.097,0.012,0.191,0.019,0.286l0.614,3.186c0.882,2.729,2.628,5.133,5.009,6.819c0,3.168,4.302,6.524,8.953,6.812v-6.388
			l-3.377-4.407l7.692,0.042l-3.315,4.737v6.029c3.393-0.123,6.822-1.98,8.782-6.825c3.352-2.375,5.445-6.171,5.64-10.292
			c0.079-1.683-0.155-3.321-0.686-4.89L175.865,105.245z M159.035,113.691h-1.64l-0.808-1.392l-0.905,1.392h-1.565l0.054-0.08
			h-0.012l1.469-2.201l-1.411-2.158h0.095l-0.054-0.08h1.632l0.741,1.277l0.791-1.277h1.558l-0.053,0.08h0.012l-1.362,2.086
			l1.502,2.273h-0.095L159.035,113.691z M169.507,113.749h-1.683l-0.829-1.43l-0.93,1.43h-1.606l0.055-0.08h-0.013l1.508-2.262
			l-1.447-2.216h0.094l-0.053-0.08h1.674l0.761,1.311l0.813-1.311h1.598l-0.052,0.08h0.011l-1.399,2.144l1.542,2.334h-0.095
			L169.507,113.749z"/>
	</g>
</g>
<g>
	<g enable-background="new    ">
		<path fill="#FFFFFF" d="M69.654,112.401h-9.462V53.578l-8.975,6.243l-4.487-6.731l15.51-10.926h7.414V112.401z"/>
		<path fill="#FFFFFF" d="M105.746,112.401h-9.462V53.578l-8.975,6.243l-4.487-6.731l15.511-10.926h7.413V112.401z"/>
	</g>
	<g enable-background="new    ">
		<path fill="#FFFFFF" d="M4.655,129.493c-0.296,0.123-0.577,0.227-0.841,0.312c-0.264,0.084-0.588,0.126-0.971,0.126
			c-0.565,0-0.963-0.143-1.193-0.427c-0.23-0.285-0.345-0.688-0.345-1.207v-4.566H0.089v-0.656h1.244v-2.099h1.244v2.099h1.935
			v0.656H2.591v3.767c0,0.282,0.01,0.519,0.031,0.708c0.021,0.188,0.069,0.354,0.147,0.495c0.073,0.132,0.182,0.232,0.328,0.301
			s0.342,0.103,0.588,0.103c0.114,0,0.281-0.01,0.502-0.031c0.221-0.02,0.377-0.046,0.468-0.078V129.493z"/>
		<path fill="#FFFFFF" d="M8.593,129.787H5.339v-0.451c0.105-0.009,0.213-0.019,0.325-0.027s0.208-0.027,0.291-0.055
			c0.127-0.041,0.222-0.112,0.284-0.215s0.092-0.235,0.092-0.399v-4.158c0-0.146-0.033-0.279-0.099-0.399
			c-0.066-0.121-0.158-0.222-0.277-0.304c-0.086-0.055-0.212-0.102-0.376-0.14c-0.164-0.039-0.314-0.063-0.451-0.072v-0.451
			l2.379-0.15l0.096,0.096v5.496c0,0.159,0.031,0.292,0.092,0.396s0.157,0.183,0.289,0.232c0.099,0.041,0.197,0.074,0.292,0.1
			c0.095,0.024,0.202,0.042,0.319,0.051V129.787z M7.738,120.306c0,0.26-0.085,0.486-0.256,0.681
			c-0.171,0.193-0.382,0.29-0.632,0.29c-0.232,0-0.434-0.093-0.605-0.276c-0.171-0.186-0.256-0.396-0.256-0.633
			c0-0.251,0.085-0.47,0.256-0.656s0.373-0.28,0.605-0.28c0.26,0,0.473,0.088,0.639,0.263
			C7.655,119.869,7.738,120.073,7.738,120.306z"/>
		<path fill="#FFFFFF" d="M15.203,129.09c0.182,0.173,0.326,0.369,0.431,0.588s0.157,0.49,0.157,0.813s-0.071,0.628-0.212,0.913
			c-0.141,0.284-0.355,0.531-0.643,0.741c-0.305,0.214-0.67,0.381-1.094,0.499s-0.948,0.178-1.572,0.178
			c-1.021,0-1.784-0.149-2.29-0.447c-0.506-0.299-0.759-0.735-0.759-1.31c0-0.465,0.182-0.832,0.547-1.101s0.83-0.415,1.395-0.438
			v-0.096c-0.137-0.041-0.278-0.092-0.424-0.154c-0.146-0.061-0.271-0.133-0.376-0.215c-0.119-0.096-0.214-0.209-0.287-0.338
			c-0.073-0.131-0.109-0.291-0.109-0.482c0-0.241,0.085-0.464,0.256-0.666c0.171-0.203,0.43-0.378,0.776-0.523v-0.103
			c-0.438-0.205-0.777-0.468-1.019-0.79c-0.242-0.32-0.362-0.693-0.362-1.117c0-0.638,0.238-1.162,0.714-1.572
			s1.086-0.615,1.829-0.615c0.205,0,0.409,0.021,0.612,0.062s0.409,0.094,0.619,0.157h2.352v0.656h-1.586v0.041
			c0.168,0.196,0.294,0.412,0.376,0.649s0.123,0.47,0.123,0.697c0,0.593-0.24,1.094-0.721,1.504s-1.04,0.615-1.678,0.615h-0.827
			c-0.105,0.036-0.214,0.103-0.328,0.198s-0.171,0.226-0.171,0.39c0,0.169,0.048,0.298,0.144,0.386
			c0.096,0.09,0.212,0.149,0.349,0.182c0.132,0.036,0.286,0.06,0.461,0.068s0.356,0.016,0.543,0.021
			c0.201,0.005,0.475,0.019,0.824,0.041s0.596,0.036,0.742,0.041c0.209,0.009,0.42,0.06,0.632,0.15S15.03,128.931,15.203,129.09z
			 M14.67,130.744c0-0.255-0.059-0.465-0.178-0.629s-0.298-0.275-0.54-0.335c-0.127-0.019-0.39-0.039-0.786-0.062
			s-0.857-0.034-1.381-0.034c-0.492,0.096-0.842,0.257-1.049,0.481c-0.208,0.227-0.311,0.517-0.311,0.872
			c0,0.159,0.034,0.313,0.103,0.458s0.187,0.28,0.355,0.403c0.16,0.118,0.374,0.216,0.643,0.29c0.269,0.076,0.597,0.113,0.984,0.113
			c0.67,0,1.197-0.129,1.583-0.387C14.477,131.659,14.67,131.269,14.67,130.744z M13.357,125.091c0-0.533-0.108-0.958-0.325-1.274
			c-0.216-0.317-0.521-0.476-0.913-0.476c-0.214,0-0.397,0.044-0.55,0.134c-0.153,0.088-0.277,0.215-0.373,0.379
			c-0.091,0.15-0.156,0.332-0.195,0.543c-0.039,0.213-0.058,0.43-0.058,0.653c0,0.506,0.11,0.918,0.332,1.237
			s0.507,0.479,0.858,0.479c0.392,0,0.694-0.158,0.906-0.475C13.251,125.974,13.357,125.574,13.357,125.091z"/>
		<path fill="#FFFFFF" d="M22.545,128.201c-0.283,0.538-0.661,0.966-1.135,1.285s-1.019,0.479-1.634,0.479
			c-0.542,0-1.018-0.096-1.425-0.287s-0.744-0.451-1.008-0.779s-0.461-0.711-0.591-1.148s-0.195-0.9-0.195-1.388
			c0-0.438,0.069-0.867,0.208-1.288c0.139-0.422,0.343-0.802,0.612-1.139c0.26-0.323,0.582-0.584,0.967-0.783
			c0.385-0.197,0.817-0.297,1.295-0.297c0.492,0,0.914,0.077,1.265,0.232s0.636,0.367,0.854,0.636
			c0.209,0.255,0.366,0.556,0.468,0.902s0.154,0.723,0.154,1.128v0.451h-4.464c0,0.443,0.042,0.845,0.126,1.206
			c0.084,0.36,0.218,0.678,0.4,0.952c0.178,0.265,0.41,0.474,0.697,0.627s0.629,0.229,1.025,0.229c0.406,0,0.755-0.095,1.049-0.285
			s0.578-0.532,0.851-1.027L22.545,128.201z M21.034,125.631c0-0.255-0.021-0.527-0.065-0.817c-0.043-0.291-0.113-0.534-0.208-0.729
			c-0.105-0.209-0.249-0.38-0.431-0.512s-0.417-0.197-0.704-0.197c-0.479,0-0.876,0.199-1.193,0.597s-0.489,0.95-0.516,1.659H21.034
			z"/>
		<path fill="#FFFFFF" d="M28.485,123.915c0,0.232-0.057,0.438-0.171,0.618c-0.114,0.181-0.29,0.271-0.526,0.271
			c-0.255,0-0.45-0.066-0.584-0.198s-0.202-0.278-0.202-0.438c0-0.101,0.008-0.191,0.024-0.273s0.031-0.164,0.044-0.246
			c-0.214,0-0.465,0.087-0.752,0.26s-0.531,0.419-0.731,0.738v3.924c0,0.159,0.031,0.289,0.092,0.39s0.158,0.176,0.291,0.226
			c0.114,0.046,0.261,0.08,0.441,0.103s0.336,0.039,0.468,0.048v0.451h-3.555v-0.451c0.105-0.009,0.213-0.019,0.325-0.027
			s0.208-0.027,0.291-0.055c0.127-0.041,0.222-0.112,0.284-0.215s0.092-0.235,0.092-0.399v-4.158c0-0.142-0.033-0.28-0.099-0.417
			c-0.066-0.136-0.158-0.245-0.277-0.327c-0.086-0.055-0.189-0.095-0.308-0.12c-0.119-0.024-0.246-0.042-0.383-0.051v-0.451
			l2.242-0.15l0.096,0.096v0.95h0.034c0.283-0.369,0.597-0.649,0.943-0.841s0.663-0.287,0.95-0.287s0.521,0.094,0.701,0.28
			S28.485,123.601,28.485,123.915z"/>
		<path fill="#FFFFFF" d="M36.886,126.486c0.187,0.164,0.33,0.354,0.431,0.567s0.15,0.477,0.15,0.786
			c0,0.624-0.233,1.135-0.701,1.531c-0.467,0.396-1.071,0.595-1.814,0.595c-0.392,0-0.753-0.07-1.084-0.212
			c-0.33-0.142-0.565-0.271-0.707-0.39l-0.137,0.444h-0.513l-0.068-2.345h0.472c0.036,0.179,0.114,0.387,0.232,0.624
			c0.118,0.238,0.262,0.453,0.431,0.645c0.178,0.202,0.391,0.371,0.64,0.508c0.248,0.138,0.527,0.206,0.837,0.206
			c0.438,0,0.774-0.1,1.012-0.299s0.355-0.485,0.355-0.856c0-0.191-0.038-0.356-0.112-0.495c-0.076-0.14-0.187-0.262-0.332-0.366
			c-0.15-0.104-0.335-0.199-0.554-0.284c-0.219-0.084-0.463-0.167-0.731-0.249c-0.214-0.063-0.452-0.151-0.715-0.263
			c-0.262-0.112-0.486-0.243-0.673-0.394c-0.2-0.159-0.365-0.355-0.492-0.588s-0.191-0.506-0.191-0.82
			c0-0.552,0.205-1.019,0.615-1.401s0.959-0.574,1.647-0.574c0.265,0,0.534,0.034,0.811,0.103c0.275,0.068,0.5,0.15,0.673,0.246
			l0.157-0.355h0.492l0.103,2.167h-0.472c-0.096-0.485-0.302-0.88-0.619-1.185c-0.316-0.304-0.702-0.456-1.158-0.456
			c-0.374,0-0.668,0.094-0.882,0.282s-0.321,0.415-0.321,0.682c0,0.205,0.035,0.376,0.105,0.513
			c0.071,0.137,0.177,0.253,0.318,0.349c0.137,0.091,0.309,0.177,0.516,0.257c0.208,0.079,0.464,0.169,0.77,0.27
			c0.301,0.096,0.584,0.207,0.852,0.335C36.493,126.19,36.714,126.33,36.886,126.486z"/>
		<path fill="#FFFFFF" d="M45.63,129.787h-2.034c-0.355-0.515-0.736-1.065-1.143-1.652c-0.406-0.588-0.828-1.159-1.266-1.715
			l-0.562,0.523v1.6c0,0.164,0.029,0.3,0.089,0.406c0.06,0.107,0.155,0.187,0.287,0.236c0.109,0.046,0.214,0.08,0.314,0.103
			s0.217,0.039,0.349,0.048v0.451h-3.302v-0.451c0.104-0.009,0.213-0.02,0.326-0.031c0.113-0.011,0.208-0.028,0.285-0.051
			c0.126-0.041,0.222-0.113,0.285-0.216s0.095-0.235,0.095-0.4v-7.839c0-0.169-0.035-0.327-0.106-0.476
			c-0.07-0.148-0.162-0.261-0.276-0.339c-0.096-0.072-0.245-0.12-0.448-0.144c-0.202-0.022-0.365-0.039-0.488-0.048v-0.438
			l2.495-0.15l0.096,0.103v7.131c0.355-0.355,0.74-0.736,1.152-1.145c0.413-0.407,0.761-0.771,1.044-1.09
			c0.036-0.041,0.076-0.095,0.119-0.161s0.065-0.12,0.065-0.161c0-0.123-0.1-0.215-0.298-0.274c-0.198-0.059-0.389-0.101-0.57-0.123
			v-0.438h2.965v0.424c-0.383,0.114-0.721,0.256-1.016,0.428c-0.293,0.17-0.518,0.324-0.673,0.461
			c-0.109,0.091-0.265,0.239-0.465,0.443c-0.201,0.205-0.481,0.474-0.842,0.806c0.373,0.461,0.794,1.013,1.262,1.655
			c0.467,0.643,0.808,1.108,1.022,1.396c0.2,0.269,0.381,0.444,0.54,0.526s0.392,0.132,0.697,0.15V129.787z"/>
		<path fill="#FFFFFF" d="M49.253,129.787h-3.254v-0.451c0.104-0.009,0.213-0.019,0.324-0.027c0.112-0.009,0.209-0.027,0.291-0.055
			c0.128-0.041,0.223-0.112,0.283-0.215c0.063-0.103,0.093-0.235,0.093-0.399v-4.158c0-0.146-0.033-0.279-0.099-0.399
			c-0.066-0.121-0.159-0.222-0.277-0.304c-0.087-0.055-0.212-0.102-0.376-0.14c-0.164-0.039-0.314-0.063-0.451-0.072v-0.451
			l2.379-0.15l0.096,0.096v5.496c0,0.159,0.03,0.292,0.092,0.396c0.061,0.104,0.157,0.183,0.288,0.232
			c0.1,0.041,0.197,0.074,0.292,0.1c0.096,0.024,0.201,0.042,0.319,0.051V129.787z M48.398,120.306c0,0.26-0.085,0.486-0.257,0.681
			c-0.17,0.193-0.381,0.29-0.632,0.29c-0.232,0-0.435-0.093-0.604-0.276c-0.172-0.186-0.257-0.396-0.257-0.633
			c0-0.251,0.085-0.47,0.257-0.656c0.17-0.187,0.372-0.28,0.604-0.28c0.26,0,0.473,0.088,0.64,0.263
			C48.315,119.869,48.398,120.073,48.398,120.306z"/>
		<path fill="#FFFFFF" d="M57.531,129.787h-3.295v-0.451c0.104-0.009,0.22-0.019,0.345-0.027c0.126-0.009,0.229-0.027,0.312-0.055
			c0.128-0.041,0.222-0.113,0.284-0.215c0.061-0.104,0.092-0.236,0.092-0.4v-3.466c0-0.479-0.113-0.848-0.339-1.107
			c-0.227-0.26-0.502-0.39-0.826-0.39c-0.242,0-0.464,0.037-0.664,0.113c-0.201,0.074-0.38,0.167-0.535,0.276
			c-0.15,0.104-0.271,0.218-0.359,0.339c-0.089,0.12-0.154,0.217-0.195,0.29v3.876c0,0.155,0.032,0.282,0.096,0.383
			s0.159,0.178,0.287,0.232c0.096,0.046,0.199,0.08,0.312,0.103c0.111,0.022,0.227,0.039,0.345,0.048v0.451h-3.302v-0.451
			c0.104-0.009,0.213-0.019,0.324-0.027c0.112-0.009,0.209-0.027,0.291-0.055c0.128-0.041,0.223-0.112,0.283-0.215
			c0.063-0.103,0.093-0.235,0.093-0.399v-4.158c0-0.155-0.033-0.297-0.099-0.427c-0.066-0.13-0.159-0.235-0.277-0.317
			c-0.087-0.055-0.189-0.095-0.308-0.12c-0.118-0.024-0.246-0.042-0.383-0.051v-0.451l2.242-0.15l0.096,0.096v0.95h0.034
			c0.109-0.109,0.246-0.24,0.41-0.394c0.164-0.152,0.319-0.276,0.465-0.372c0.169-0.109,0.369-0.2,0.602-0.273
			s0.494-0.109,0.786-0.109c0.647,0,1.127,0.202,1.438,0.604c0.313,0.404,0.469,0.94,0.469,1.61v3.507
			c0,0.159,0.027,0.288,0.082,0.387c0.055,0.098,0.148,0.174,0.28,0.229c0.109,0.046,0.204,0.077,0.284,0.096
			c0.079,0.019,0.189,0.032,0.331,0.041V129.787z"/>
		<path fill="#FFFFFF" d="M62.808,126.486c0.187,0.164,0.33,0.354,0.431,0.567s0.15,0.477,0.15,0.786
			c0,0.624-0.233,1.135-0.701,1.531c-0.467,0.396-1.071,0.595-1.814,0.595c-0.392,0-0.753-0.07-1.084-0.212
			c-0.33-0.142-0.565-0.271-0.707-0.39l-0.137,0.444h-0.513l-0.068-2.345h0.472c0.036,0.179,0.114,0.387,0.232,0.624
			c0.118,0.238,0.262,0.453,0.431,0.645c0.178,0.202,0.391,0.371,0.64,0.508c0.248,0.138,0.527,0.206,0.837,0.206
			c0.438,0,0.774-0.1,1.012-0.299s0.355-0.485,0.355-0.856c0-0.191-0.038-0.356-0.112-0.495c-0.076-0.14-0.187-0.262-0.332-0.366
			c-0.15-0.104-0.335-0.199-0.554-0.284c-0.219-0.084-0.463-0.167-0.731-0.249c-0.214-0.063-0.452-0.151-0.715-0.263
			c-0.262-0.112-0.486-0.243-0.673-0.394c-0.2-0.159-0.364-0.355-0.492-0.588s-0.191-0.506-0.191-0.82
			c0-0.552,0.205-1.019,0.615-1.401s0.959-0.574,1.647-0.574c0.265,0,0.534,0.034,0.811,0.103c0.275,0.068,0.5,0.15,0.673,0.246
			l0.157-0.355h0.492l0.103,2.167h-0.472c-0.096-0.485-0.302-0.88-0.619-1.185c-0.316-0.304-0.702-0.456-1.158-0.456
			c-0.374,0-0.668,0.094-0.882,0.282s-0.321,0.415-0.321,0.682c0,0.205,0.035,0.376,0.105,0.513
			c0.071,0.137,0.177,0.253,0.318,0.349c0.137,0.091,0.309,0.177,0.516,0.257c0.208,0.079,0.464,0.169,0.77,0.27
			c0.301,0.096,0.584,0.207,0.852,0.335C62.415,126.19,62.635,126.33,62.808,126.486z"/>
		<path fill="#FFFFFF" d="M72.235,126.486c0.187,0.164,0.33,0.354,0.431,0.567s0.15,0.477,0.15,0.786
			c0,0.624-0.233,1.135-0.701,1.531c-0.467,0.396-1.071,0.595-1.814,0.595c-0.392,0-0.753-0.07-1.084-0.212
			c-0.33-0.142-0.565-0.271-0.707-0.39l-0.137,0.444H67.86l-0.068-2.345h0.472c0.036,0.179,0.114,0.387,0.232,0.624
			c0.118,0.238,0.262,0.453,0.431,0.645c0.178,0.202,0.391,0.371,0.64,0.508c0.248,0.138,0.527,0.206,0.837,0.206
			c0.438,0,0.774-0.1,1.012-0.299s0.355-0.485,0.355-0.856c0-0.191-0.038-0.356-0.112-0.495c-0.076-0.14-0.187-0.262-0.332-0.366
			c-0.15-0.104-0.335-0.199-0.554-0.284c-0.219-0.084-0.463-0.167-0.731-0.249c-0.214-0.063-0.452-0.151-0.715-0.263
			c-0.262-0.112-0.486-0.243-0.673-0.394c-0.2-0.159-0.364-0.355-0.492-0.588s-0.191-0.506-0.191-0.82
			c0-0.552,0.205-1.019,0.615-1.401s0.959-0.574,1.647-0.574c0.265,0,0.534,0.034,0.811,0.103c0.275,0.068,0.5,0.15,0.673,0.246
			l0.157-0.355h0.492l0.103,2.167h-0.472c-0.096-0.485-0.302-0.88-0.619-1.185c-0.316-0.304-0.702-0.456-1.158-0.456
			c-0.374,0-0.668,0.094-0.882,0.282s-0.321,0.415-0.321,0.682c0,0.205,0.035,0.376,0.105,0.513
			c0.071,0.137,0.177,0.253,0.318,0.349c0.137,0.091,0.309,0.177,0.516,0.257c0.208,0.079,0.464,0.169,0.77,0.27
			c0.301,0.096,0.584,0.207,0.852,0.335C71.842,126.19,72.062,126.33,72.235,126.486z"/>
		<path fill="#FFFFFF" d="M79.823,128.201c-0.282,0.538-0.661,0.966-1.135,1.285s-1.019,0.479-1.634,0.479
			c-0.542,0-1.018-0.096-1.425-0.287c-0.408-0.191-0.744-0.451-1.009-0.779s-0.462-0.711-0.591-1.148
			c-0.131-0.438-0.195-0.9-0.195-1.388c0-0.438,0.069-0.867,0.209-1.288c0.139-0.422,0.343-0.802,0.611-1.139
			c0.26-0.323,0.582-0.584,0.967-0.783c0.386-0.197,0.817-0.297,1.296-0.297c0.492,0,0.914,0.077,1.265,0.232
			s0.636,0.367,0.854,0.636c0.21,0.255,0.366,0.556,0.468,0.902c0.104,0.347,0.154,0.723,0.154,1.128v0.451h-4.464
			c0,0.443,0.042,0.845,0.126,1.206c0.085,0.36,0.218,0.678,0.4,0.952c0.178,0.265,0.41,0.474,0.697,0.627s0.629,0.229,1.025,0.229
			c0.405,0,0.756-0.095,1.049-0.285c0.295-0.19,0.578-0.532,0.852-1.027L79.823,128.201z M78.312,125.631
			c0-0.255-0.021-0.527-0.065-0.817c-0.043-0.291-0.112-0.534-0.208-0.729c-0.104-0.209-0.248-0.38-0.431-0.512
			s-0.417-0.197-0.704-0.197c-0.479,0-0.876,0.199-1.192,0.597c-0.317,0.397-0.489,0.95-0.517,1.659H78.312z"/>
		<path fill="#FFFFFF" d="M83.87,129.787h-3.254v-0.451c0.104-0.009,0.213-0.019,0.324-0.027c0.112-0.009,0.209-0.027,0.291-0.055
			c0.128-0.041,0.223-0.112,0.283-0.215c0.063-0.103,0.093-0.235,0.093-0.399v-4.158c0-0.146-0.033-0.279-0.099-0.399
			c-0.066-0.121-0.159-0.222-0.277-0.304c-0.087-0.055-0.212-0.102-0.376-0.14c-0.164-0.039-0.314-0.063-0.451-0.072v-0.451
			l2.379-0.15l0.096,0.096v5.496c0,0.159,0.03,0.292,0.092,0.396c0.061,0.104,0.157,0.183,0.288,0.232
			c0.1,0.041,0.197,0.074,0.292,0.1c0.096,0.024,0.201,0.042,0.319,0.051V129.787z M83.015,120.306c0,0.26-0.085,0.486-0.257,0.681
			c-0.17,0.193-0.381,0.29-0.632,0.29c-0.232,0-0.435-0.093-0.604-0.276c-0.172-0.186-0.257-0.396-0.257-0.633
			c0-0.251,0.085-0.47,0.257-0.656c0.17-0.187,0.372-0.28,0.604-0.28c0.26,0,0.473,0.088,0.64,0.263
			C82.932,119.869,83.015,120.073,83.015,120.306z"/>
		<path fill="#FFFFFF" d="M90.043,129.787h-5.455v-0.362l3.821-5.824h-0.945c-0.397,0-0.708,0.007-0.932,0.021
			c-0.225,0.014-0.43,0.06-0.617,0.137c-0.128,0.05-0.247,0.193-0.359,0.431s-0.209,0.547-0.291,0.93h-0.417v-2.071h5.154v0.28
			l-3.875,5.906c0.164,0.005,0.344,0.008,0.54,0.011c0.195,0.002,0.407,0.003,0.636,0.003c0.182,0,0.372-0.002,0.57-0.007
			s0.452-0.016,0.762-0.034c0.183-0.009,0.32-0.07,0.414-0.185c0.093-0.114,0.165-0.244,0.215-0.39
			c0.05-0.132,0.11-0.314,0.181-0.547c0.071-0.232,0.134-0.458,0.188-0.677h0.41V129.787z"/>
		<path fill="#FFFFFF" d="M96.906,128.201c-0.282,0.538-0.661,0.966-1.135,1.285s-1.019,0.479-1.634,0.479
			c-0.542,0-1.018-0.096-1.425-0.287c-0.408-0.191-0.744-0.451-1.009-0.779s-0.462-0.711-0.591-1.148
			c-0.131-0.438-0.195-0.9-0.195-1.388c0-0.438,0.069-0.867,0.209-1.288c0.139-0.422,0.343-0.802,0.611-1.139
			c0.26-0.323,0.582-0.584,0.967-0.783c0.386-0.197,0.817-0.297,1.296-0.297c0.492,0,0.914,0.077,1.265,0.232
			s0.636,0.367,0.854,0.636c0.21,0.255,0.366,0.556,0.468,0.902c0.104,0.347,0.154,0.723,0.154,1.128v0.451h-4.464
			c0,0.443,0.042,0.845,0.126,1.206c0.085,0.36,0.218,0.678,0.4,0.952c0.178,0.265,0.41,0.474,0.697,0.627s0.629,0.229,1.025,0.229
			c0.405,0,0.756-0.095,1.049-0.285c0.295-0.19,0.578-0.532,0.852-1.027L96.906,128.201z M95.395,125.631
			c0-0.255-0.021-0.527-0.065-0.817c-0.043-0.291-0.112-0.534-0.208-0.729c-0.104-0.209-0.248-0.38-0.431-0.512
			s-0.417-0.197-0.704-0.197c-0.479,0-0.876,0.199-1.192,0.597c-0.317,0.397-0.489,0.95-0.517,1.659H95.395z"/>
		<path fill="#FFFFFF" d="M105.068,129.664l-2.358,0.15l-0.103-0.096v-0.629l-0.055-0.014c-0.236,0.265-0.529,0.48-0.877,0.649
			c-0.349,0.169-0.707,0.253-1.075,0.253c-0.383,0-0.752-0.086-1.109-0.256c-0.357-0.172-0.668-0.412-0.932-0.722
			c-0.269-0.314-0.481-0.692-0.639-1.135s-0.235-0.93-0.235-1.463c0-0.487,0.084-0.95,0.253-1.388c0.168-0.438,0.4-0.82,0.696-1.148
			c0.277-0.306,0.617-0.549,1.021-0.731c0.402-0.183,0.813-0.273,1.231-0.273c0.314,0,0.623,0.04,0.926,0.12
			c0.302,0.079,0.563,0.181,0.781,0.304v-2.35c0-0.191-0.032-0.366-0.096-0.523c-0.063-0.158-0.152-0.277-0.267-0.359
			c-0.128-0.087-0.3-0.149-0.517-0.188c-0.216-0.039-0.449-0.067-0.7-0.086v-0.424l2.762-0.15l0.103,0.103v9.086
			c0,0.159,0.031,0.295,0.092,0.406c0.063,0.111,0.152,0.206,0.271,0.283c0.087,0.055,0.212,0.089,0.376,0.103
			s0.314,0.022,0.451,0.027V129.664z M102.594,128.482v-3.944c-0.036-0.118-0.096-0.246-0.178-0.383
			c-0.081-0.137-0.184-0.262-0.307-0.376c-0.132-0.114-0.286-0.208-0.464-0.284c-0.178-0.074-0.385-0.112-0.621-0.112
			c-0.272,0-0.524,0.07-0.754,0.212s-0.434,0.344-0.61,0.608c-0.168,0.255-0.302,0.58-0.399,0.974
			c-0.098,0.395-0.146,0.831-0.146,1.31c0,0.383,0.036,0.73,0.109,1.042c0.072,0.313,0.195,0.604,0.368,0.872
			c0.159,0.255,0.362,0.46,0.61,0.615s0.543,0.232,0.884,0.232c0.364,0,0.665-0.08,0.904-0.239
			C102.228,128.849,102.429,128.673,102.594,128.482z"/>
	</g>
</g>
</svg>
