<?xml version="1.0" encoding="utf-8"?>
<!-- Generator: Adobe Illustrator 16.0.0, SVG Export Plug-In . SVG Version: 6.00 Build 0)  -->
<!DOCTYPE svg PUBLIC "-//W3C//DTD SVG 1.1//EN" "http://www.w3.org/Graphics/SVG/1.1/DTD/svg11.dtd">
<svg version="1.1" id="Layer_1" xmlns="http://www.w3.org/2000/svg" xmlns:xlink="http://www.w3.org/1999/xlink" x="0px" y="0px"
	 width="155.032px" height="141.061px" viewBox="0 0 155.032 141.061" enable-background="new 0 0 155.032 141.061"
	 xml:space="preserve">
<circle fill="#FFFFFF" cx="87.158" cy="73.068" r="61.763"/>
<circle fill="none" stroke="#FFFFFF" stroke-miterlimit="10" cx="87.158" cy="73.068" r="67.378"/>
<g>
	<g>
		<path fill="#FAA61B" d="M51.027,40.188c0,0-1.686-2.746,1.922-5.292c3.606-2.545,4.234-2.247,6.882-3.436
			c2.647-1.189,5.029-2.775,7.345-3.171c2.316-0.395,12.074-1.878,13.926-1.678c1.853,0.2,9.394,1.196,12.469,3.018
			c3.074,1.821,4.86,2.351,6.613,2.187c1.754-0.164,5.129-2.411,5.558-0.261s-0.599,3.836,0.03,4.994
			c0.628,1.158,3.404,3.607,4.793,4.402s4.596,2.814,7.702,5.33c3.108,2.516,12.03,15.486,12.03,15.486s-0.211,46.304-45.15,57.855
			c-7.469-4.65-15.862-23.824-14.801-29.115c1.063-5.291-1.15-10.553-1.315-11.445c-0.165-0.894-4.001-2.352-5.158-2.584
			c-1.157-0.231-5.358-0.73-6.649,0.559s-2.516,3.107-3.342,2.941c-0.827-0.166-4.729-0.432-5.688-1.656s-3.306-4.104-3.337-5.658
			c-0.032-1.555,1.158-2.348,0.564-3.671c-0.595-1.323-2.28-4.069-2.608-5.856c-2.051-1.787-4.632-4.611-3.737-7.356
			c2.69-1.404,9.667-9.343,11.421-10.367C52.248,44.39,51.523,41.147,51.027,40.188z"/>
		<path fill="#552F25" d="M83.401,48.562c0,0-5.952-4.166-8.035-1.189s0.298,13.689,0.298,13.689L67.332,56.3l-2.381,2.977
			l3.868-0.299l10.713,5.654l-3.273-7.142c0,0-1.487-7.737,0.894-8.035S83.401,48.562,83.401,48.562z"/>
		<path fill="#552F25" d="M89.948,56.896c0,0-6.249-1.785-6.547,3.57c-0.298,5.356-4.464,13.986-4.464,13.986
			s-5.06,1.488-9.226,1.189c4.761,2.679,10.713,1.19,10.713,1.19l4.464-9.522C84.889,67.31,83.699,59.275,89.948,56.896z"/>
		<path fill="#552F25" d="M84.418,73.261c0,0-0.756,4.686-0.604,10.127c0.15,5.44-2.721,7.707-5.441,10.428
			c-2.72,2.72-2.569,4.836-2.267,6.045c0.906-2.721,2.115-4.836,3.476-4.988c1.36-0.15,7.406-3.627,7.103-7.859
			C86.381,82.781,84.418,73.261,84.418,73.261z"/>
		<path fill="#552F25" d="M79.235,26.542c0,0,2.976,1.785,4.166,6.844c1.189,5.059-1.19,5.356-1.19,5.356s-4.166-11.01-5.355-11.605
			C75.665,26.542,79.235,26.542,79.235,26.542z"/>
		<path fill="#552F25" d="M66.439,29.518c0,0,4.761,2.381,5.653,7.142c0.894,4.761-1.785,2.083-1.785,2.083l-4.464-6.249
			l-3.57-1.785l4.901-2.417"/>
		<path fill="#552F25" d="M60.488,62.847c0,0-3.571,1.487-9.522,0C54.239,65.524,53.645,64.929,60.488,62.847z"/>
		<path fill="#552F25" d="M61.827,66.64c0,0-3.571,1.488-9.522,0C55.578,69.318,54.983,68.724,61.827,66.64z"/>
		<path fill="#552F25" d="M61.24,70.106c0,0-3.767,0.886-9.396-1.553C54.637,71.729,54.147,71.046,61.24,70.106z"/>
	</g>
	<path fill="#552F25" d="M98.28,60.763c0,0,3.869,20.533-5.06,31.543c-8.927,11.01-11.604,14.879-10.713,23.211
		c2.678-10.117,5.06-13.391,11.605-20.532C100.661,87.843,102.446,77.726,98.28,60.763z"/>
	<path fill="#552F25" d="M110.666,41.718c0,0-3.868,4.762-2.678,10.416c1.189,5.653,5.059,11.604,4.166,13.985
		c-0.894,2.381,1.189,5.952,2.083,5.653c-0.894-2.678-1.19-5.653-0.298-6.844c0.892-1.189,2.083-5.059,0.893-8.629
		c-1.19-3.572,1.785-8.631,2.678-8.928C118.403,47.075,110.666,41.718,110.666,41.718z"/>
</g>
<line fill="none" stroke="#FFFFFF" stroke-width="7" stroke-linecap="round" stroke-miterlimit="10" x1="42.736" y1="40.339" x2="7.607" y2="7.627"/>
<g>
	<circle fill="#FFFFFF" cx="7.896" cy="7.896" r="7.896"/>
</g>
</svg>
