<?xml version="1.0" encoding="utf-8"?>
<!-- Generator: Adobe Illustrator 17.0.0, SVG Export Plug-In . SVG Version: 6.00 Build 0)  -->
<!DOCTYPE svg PUBLIC "-//W3C//DTD SVG 1.1//EN" "http://www.w3.org/Graphics/SVG/1.1/DTD/svg11.dtd">
<svg version="1.1" id="Layer_1" xmlns="http://www.w3.org/2000/svg" xmlns:xlink="http://www.w3.org/1999/xlink" x="0px" y="0px"
	 width="497.519px" height="200px" viewBox="0 0 497.519 200" enable-background="new 0 0 497.519 200" xml:space="preserve">
<g>
	<path fill="#FFFFFF" d="M497.519,200c-21.745,0-32.672-9.572-43.238-18.83c-10.267-8.994-19.964-17.489-39.676-17.489
		c-19.713,0-29.41,8.496-39.677,17.489C364.362,190.428,353.435,200,331.69,200c-21.747,0-32.674-9.572-43.24-18.83
		c-10.267-8.994-19.966-17.489-39.679-17.489s-29.41,8.496-39.677,17.489C198.527,190.428,187.6,200,165.856,200
		c-21.748,0-32.675-9.572-43.244-18.83c-10.269-8.994-19.968-17.489-39.684-17.489s-29.415,8.496-39.684,17.489
		C32.676,190.428,21.748,200,0,200v-5.405c19.716,0,29.415-8.496,39.684-17.489c10.568-9.257,21.496-18.83,43.244-18.83
		s32.676,9.572,43.244,18.83c10.268,8.994,19.967,17.489,39.684,17.489c19.713,0,29.41-8.496,39.677-17.489
		c10.566-9.257,21.493-18.83,43.238-18.83c21.747,0,32.674,9.572,43.24,18.83c10.267,8.994,19.966,17.489,39.679,17.489
		s29.41-8.496,39.677-17.489c10.566-9.257,21.493-18.83,43.238-18.83s32.67,9.572,43.236,18.828
		c10.267,8.995,19.964,17.491,39.677,17.491V200z"/>
</g>
<g>
	<path fill="#FFFFFF" d="M497.519,168.345c-21.745,0-32.672-9.572-43.238-18.83c-10.267-8.994-19.964-17.489-39.676-17.489
		c-19.713,0-29.41,8.496-39.677,17.489c-10.566,9.257-21.493,18.83-43.238,18.83c-21.747,0-32.674-9.572-43.24-18.83
		c-10.267-8.994-19.966-17.489-39.679-17.489s-29.41,8.496-39.677,17.489c-10.566,9.257-21.493,18.83-43.238,18.83
		c-21.748,0-32.675-9.572-43.244-18.83c-10.269-8.994-19.968-17.489-39.684-17.489s-29.415,8.496-39.684,17.489
		c-10.568,9.257-21.496,18.83-43.244,18.83v-5.405c19.716,0,29.415-8.496,39.684-17.489c10.568-9.257,21.496-18.83,43.244-18.83
		s32.676,9.572,43.244,18.83c10.268,8.994,19.967,17.489,39.684,17.489c19.713,0,29.41-8.496,39.677-17.489
		c10.566-9.257,21.493-18.83,43.238-18.83c21.747,0,32.674,9.572,43.24,18.83c10.267,8.994,19.966,17.489,39.679,17.489
		s29.41-8.496,39.677-17.489c10.566-9.257,21.493-18.83,43.238-18.83s32.67,9.572,43.236,18.828
		c10.267,8.995,19.964,17.491,39.677,17.491V168.345z"/>
</g>
<g>
	<path fill="#FFFFFF" d="M497.519,136.688c-21.745,0-32.672-9.572-43.238-18.83c-10.267-8.994-19.964-17.488-39.676-17.488
		c-19.713,0-29.41,8.495-39.677,17.49c-10.566,9.256-21.493,18.828-43.238,18.828c-21.747,0-32.674-9.572-43.24-18.828
		c-10.267-8.995-19.966-17.49-39.679-17.49s-29.41,8.495-39.677,17.49c-10.566,9.256-21.493,18.828-43.238,18.828
		c-21.748,0-32.675-9.572-43.244-18.828c-10.269-8.995-19.968-17.49-39.684-17.49s-29.415,8.495-39.684,17.49
		C32.676,127.116,21.748,136.688,0,136.688v-5.405c19.716,0,29.415-8.496,39.684-17.489c10.568-9.257,21.496-18.829,43.244-18.829
		s32.676,9.571,43.244,18.829c10.268,8.994,19.967,17.489,39.684,17.489c19.713,0,29.41-8.496,39.677-17.489
		c10.566-9.257,21.493-18.829,43.238-18.829c21.747,0,32.674,9.571,43.24,18.829c10.267,8.994,19.966,17.489,39.679,17.489
		s29.41-8.496,39.677-17.489c10.566-9.257,21.493-18.829,43.238-18.829s32.67,9.571,43.236,18.829
		c10.267,8.994,19.964,17.489,39.677,17.489V136.688z"/>
</g>
<g>
	<path fill="#FFFFFF" d="M497.519,105.033c-21.745,0-32.672-9.572-43.238-18.829c-10.267-8.994-19.964-17.489-39.676-17.489
		c-19.713,0-29.41,8.496-39.677,17.489c-10.566,9.257-21.493,18.829-43.238,18.829c-21.747,0-32.674-9.571-43.24-18.829
		c-10.267-8.994-19.966-17.489-39.679-17.489s-29.41,8.496-39.677,17.489c-10.566,9.257-21.493,18.829-43.238,18.829
		c-21.748,0-32.675-9.571-43.244-18.829c-10.269-8.994-19.968-17.489-39.684-17.489s-29.415,8.496-39.684,17.489
		C32.676,95.462,21.748,105.033,0,105.033v-5.405c19.716,0,29.415-8.496,39.684-17.489c10.568-9.257,21.496-18.829,43.244-18.829
		s32.676,9.571,43.244,18.829c10.268,8.994,19.967,17.489,39.684,17.489c19.713,0,29.41-8.496,39.677-17.489
		c10.566-9.257,21.493-18.829,43.238-18.829c21.747,0,32.674,9.572,43.24,18.829c10.267,8.994,19.966,17.489,39.679,17.489
		s29.41-8.496,39.677-17.489c10.566-9.257,21.493-18.829,43.238-18.829s32.67,9.571,43.236,18.828
		c10.267,8.994,19.964,17.49,39.677,17.49V105.033z"/>
</g>
<g>
	<path fill="#FFFFFF" d="M497.519,73.378c-21.745,0-32.672-9.572-43.238-18.829c-10.267-8.994-19.964-17.489-39.676-17.489
		c-19.713,0-29.41,8.496-39.677,17.489c-10.566,9.257-21.493,18.829-43.238,18.829c-21.747,0-32.674-9.571-43.24-18.829
		c-10.267-8.994-19.966-17.489-39.679-17.489s-29.41,8.496-39.677,17.489c-10.566,9.257-21.493,18.829-43.238,18.829
		c-21.748,0-32.675-9.571-43.244-18.829c-10.269-8.994-19.968-17.489-39.684-17.489S53.513,45.556,43.244,54.55
		C32.676,63.807,21.748,73.378,0,73.378v-5.405c19.716,0,29.415-8.496,39.684-17.489c10.568-9.257,21.496-18.829,43.244-18.829
		s32.676,9.571,43.244,18.829c10.268,8.994,19.967,17.489,39.684,17.489c19.713,0,29.41-8.496,39.677-17.489
		c10.566-9.257,21.493-18.829,43.238-18.829c21.747,0,32.674,9.572,43.24,18.829c10.267,8.994,19.966,17.489,39.679,17.489
		s29.41-8.496,39.677-17.489c10.566-9.257,21.493-18.829,43.238-18.829s32.67,9.571,43.236,18.828
		c10.267,8.994,19.964,17.49,39.677,17.49V73.378z"/>
</g>
<g>
	<path fill="#FFFFFF" d="M497.519,41.723c-21.745,0-32.672-9.572-43.238-18.83C444.014,13.9,434.317,5.405,414.606,5.405
		c-19.713,0-29.41,8.496-39.677,17.49c-10.566,9.257-21.493,18.829-43.238,18.829c-21.747,0-32.674-9.572-43.24-18.829
		c-10.267-8.994-19.966-17.49-39.679-17.49s-29.41,8.496-39.677,17.49c-10.566,9.257-21.493,18.829-43.238,18.829
		c-21.748,0-32.675-9.572-43.244-18.829c-10.269-8.994-19.968-17.49-39.684-17.49S53.513,13.9,43.244,22.895
		C32.676,32.151,21.748,41.723,0,41.723v-5.405c19.716,0,29.415-8.496,39.684-17.49C50.252,9.572,61.179,0,82.928,0
		s32.676,9.572,43.244,18.829c10.268,8.994,19.967,17.49,39.684,17.49c19.713,0,29.41-8.496,39.677-17.49
		C216.099,9.572,227.026,0,248.771,0c21.747,0,32.674,9.572,43.24,18.829c10.267,8.994,19.966,17.49,39.679,17.49
		s29.41-8.496,39.677-17.49C381.934,9.572,392.861,0,414.606,0s32.67,9.572,43.236,18.829c10.267,8.994,19.964,17.49,39.677,17.49
		V41.723z"/>
</g>
</svg>
